<?xml version="1.0" encoding="UTF-8" standalone="no"?>
<!-- Generator: Adobe Illustrator 13.0.0, SVG Export Plug-In . SVG Version: 6.00 Build 14948)  -->

<svg
   xmlns:dc="http://purl.org/dc/elements/1.1/"
   xmlns:cc="http://creativecommons.org/ns#"
   xmlns:rdf="http://www.w3.org/1999/02/22-rdf-syntax-ns#"
   xmlns:svg="http://www.w3.org/2000/svg"
   xmlns="http://www.w3.org/2000/svg"
   xmlns:sodipodi="http://sodipodi.sourceforge.net/DTD/sodipodi-0.dtd"
   xmlns:inkscape="http://www.inkscape.org/namespaces/inkscape"
   version="1.1"
   id="Layer_1"
   x="0px"
   y="0px"
   width="1000"
   height="1000"
   viewBox="0 0 999.99998 999.99997"
   enable-background="new 0 0 225.938 407.407"
   xml:space="preserve"
   inkscape:version="0.48.4 r9939"
   sodipodi:docname="Java_TTT_Challenge_Poster_002.svg"><metadata
   id="metadata44"><rdf:RDF><cc:Work
       rdf:about=""><dc:format>image/svg+xml</dc:format><dc:type
         rdf:resource="http://purl.org/dc/dcmitype/StillImage" /><dc:title></dc:title></cc:Work></rdf:RDF></metadata><defs
   id="defs42"><inkscape:perspective
   sodipodi:type="inkscape:persp3d"
   inkscape:vp_x="0 : 203.70351 : 1"
   inkscape:vp_y="0 : 1000 : 0"
   inkscape:vp_z="225.938 : 203.70351 : 1"
   inkscape:persp3d-origin="112.969 : 135.80234 : 1"
   id="perspective46" />
	
	
	<radialGradient
   gradientUnits="userSpaceOnUse"
   r="54.7155"
   cy="167.06931"
   cx="86.629898"
   id="SVGID_1_">
		<stop
   id="stop18"
   style="stop-color:#FFFFFF"
   offset="0" />
		<stop
   id="stop20"
   style="stop-color:#FBC8B4"
   offset="0.0604" />
		<stop
   id="stop22"
   style="stop-color:#FBC3B0"
   offset="0.0712" />
		<stop
   id="stop24"
   style="stop-color:#F7978B"
   offset="0.1829" />
		<stop
   id="stop26"
   style="stop-color:#F4716B"
   offset="0.2995" />
		<stop
   id="stop28"
   style="stop-color:#F15251"
   offset="0.4199" />
		<stop
   id="stop30"
   style="stop-color:#EF3A3D"
   offset="0.5453" />
		<stop
   id="stop32"
   style="stop-color:#EE292F"
   offset="0.6778" />
		<stop
   id="stop34"
   style="stop-color:#ED1F27"
   offset="0.822" />
		<stop
   id="stop36"
   style="stop-color:#ED1C24"
   offset="1" />
	</radialGradient>
	
</defs><sodipodi:namedview
   pagecolor="#ffffff"
   bordercolor="#666666"
   borderopacity="1"
   objecttolerance="10"
   gridtolerance="10"
   guidetolerance="10"
   inkscape:pageopacity="0"
   inkscape:pageshadow="2"
   inkscape:window-width="1366"
   inkscape:window-height="706"
   id="namedview40"
   showgrid="false"
   showguides="true"
   inkscape:guide-bbox="true"
   inkscape:zoom="0.7071068"
   inkscape:cx="488.33003"
   inkscape:cy="461.1855"
   inkscape:window-x="-8"
   inkscape:window-y="-8"
   inkscape:window-maximized="1"
   inkscape:current-layer="Layer_1" />




<path
   id="path15"
   style="fill:none;stroke:#ff0000;stroke-opacity:1"
   d="m 719.73524,620.73854 c -0.60929,6.85394 -1.08807,13.56085 -1.41478,20.12555 -1.008,19.728 2.016,27.504 14.904,27.504 22.752,0 51.624,-47.952 87.84,-46.872 36.288,1.08 47.808,55.00802 64.8,54.648 16.992,-0.36 30.672,-6.264 30.816,-58.752 0.14391,-44.73469 -10.46371,-87.05677 -26.58291,-125.18794 -5.976,-15.984 -5.09709,-36.95606 4.11891,-49.98806 9.216,-13.032 1.44,-42.048 6.336,-54.792 4.896,-12.744 16.272,-9.144 19.944,-28.944 3.672,-19.8 -11.952,-33.408 0.144,-58.536 12.096,-25.128 -6.912,-24.984 -15.264,-18.864 -8.352,6.12 -10.44,21.024 -13.896,32.76 -11.376,-12.384 -5.04,-42.768 -19.656,-44.784 -14.616,-2.016 -13.896,5.832 -14.256,16.128 -0.36,10.296 1.368,17.64 6.048,35.352 -15.912,-12.024 -14.76,-38.304 -28.656,-33.192 -13.896,5.112 -10.224,17.064 -5.256,30.096 4.968,13.032 11.592,25.56 22.896,36.864 -12.672,2.088 -29.664,7.632 -25.056,20.736 4.608,13.104 15.192,3.24 25.056,3.96 9.864,0.72 16.92,10.584 26.784,11.304 9.864,0.72 12.096,19.872 11.232,35.064 -0.85222,14.98485 -20.62264,24.57076 -28.83398,11.92528 C 821.17855,370.78507 769.3021,324.45598 747.48046,312.25609 l 0,0 0,0 0,0 c 6.42547,13.45503 4.6406,88.31999 -0.92352,142.0594 -7.39423,50.63543 -32.77248,56.9486 -34.06848,78.0446 -1.296,21.096 6.84,23.112 6.336,42.624 -0.504,19.512 -17.856,27.432 -19.944,38.016 -2.088,10.584 8.928,13.968 15.336,13.968 1.87089,0 3.74177,-2.39357 5.51768,-6.22743 4.30681,-9.29757 8.05508,-27.06582 9.89032,-39.70857 1.09262,-7.52689 -0.24557,-13.74883 -2.15938,-19.34532 -2.6263,-7.68003 -6.33662,-14.18224 -6.33662,-21.26268 0,-12.24 15.96526,-34.77302 13.01326,-15.11702 -2.36832,11.77207 -4.62193,24.01174 -6.67564,36.37658 M 845.70346,440.27109 c -0.35968,-3.72123 -1.23843,-7.14263 -2.56185,-10.24643 -4.79184,-11.23818 -15.4134,-18.31257 -28.33315,-20.38057 -15.92402,-2.54888 -33.26,4.998 -44.408,16.146 -11.90031,11.90032 -12.9569,28.21668 -5.52712,42.54735 0.39813,0.76791 0.82062,1.53012 1.26712,2.28565 8.661,14.657 27.847,19.501 43.563,15.835 21.506,-5.015 37.398,-23.824 36,-46.187 m -80.82537,28.07312 c -2.725,1.85776 -5.36465,3.65679 -7.96463,5.40688 l 0,0 0,0 0,0 c -5.616,27.504 -40.68,181.08 -22.824,183.024 17.856,1.944 43.272,-47.52 84.888,-47.16 41.688,0.36 58.104,55.44 68.256,55.08 10.152,-0.36 16.848,3.6 17.928,-58.464 1.08,-62.064 -36.792,-141.336 -59.184,-176.256 -0.98591,0.0631 -1.77503,0.10286 -2.76549,0.21209"
   inkscape:connector-curvature="0" />
<g
   style="font-size:40px;font-style:normal;font-weight:normal;line-height:125%;letter-spacing:0px;word-spacing:0px;fill:none;fill-opacity:1;stroke:#ff0000;font-family:Sans"
   id="text2994"><path
     d="m 254.41776,661.20905 -4.93946,0 0,-18.61524 c -1.80469,1.68752 -3.93164,2.93556 -6.38086,3.74414 l 0,-4.48242 c 1.28906,-0.42186 2.68945,-1.22166 4.20117,-2.39941 1.51171,-1.17772 2.54882,-2.55174 3.11133,-4.12207 l 4.00782,0 z"
     style="font-size:36px;font-variant:normal;font-weight:bold;font-stretch:normal;font-family:Arial;-inkscape-font-specification:Arial Bold;stroke:#ff0000;fill:none"
     id="path3083" /><path
     d="m 261.88846,654.58209 4.92187,-0.50976 c 0.14062,1.11328 0.55664,1.99512 1.24805,2.6455 0.6914,0.6504 1.48827,0.97559 2.39063,0.97559 1.03123,0 1.90428,-0.41894 2.61914,-1.25684 0.71483,-0.83788 1.07225,-2.10057 1.07226,-3.78808 -10e-6,-1.58202 -0.3545,-2.76854 -1.06348,-3.55957 -0.70899,-0.791 -1.63184,-1.18651 -2.76855,-1.18653 -1.41798,2e-5 -2.68946,0.62697 -3.81445,1.88086 l -4.00782,-0.58007 2.53125,-13.41211 13.06055,0 0,4.62304 -9.3164,0 -0.77344,4.37696 c 1.10155,-0.55077 2.22655,-0.82616 3.375,-0.82618 2.19139,2e-5 4.04881,0.7969 5.57226,2.39063 1.52342,1.59376 2.28514,3.66212 2.28516,6.20508 -2e-5,2.1211 -0.61525,4.01367 -1.8457,5.67773 -1.6758,2.27344 -4.00197,3.41016 -6.97852,3.41016 -2.37891,0 -4.31836,-0.63867 -5.81836,-1.91602 -1.5,-1.27734 -2.39648,-2.99413 -2.68945,-5.15039 z"
     style="font-size:36px;font-variant:normal;font-weight:bold;font-stretch:normal;font-family:Arial;-inkscape-font-specification:Arial Bold;stroke:#ff0000;fill:none"
     id="path3085" /><path
     d="m 282.9119,661.20905 0,-4.93946 4.93945,0 0,4.93946 z"
     style="font-size:36px;font-variant:normal;font-weight:bold;font-stretch:normal;font-family:Arial;-inkscape-font-specification:Arial Bold;stroke:#ff0000;fill:none"
     id="path3087" /><path
     d="m 300.19119,635.33405 c 2.49608,2e-5 4.44725,0.89065 5.85352,2.67187 1.67576,2.1094 2.51365,5.60744 2.51367,10.49414 -2e-5,4.87501 -0.84377,8.37891 -2.53125,10.51172 -1.39455,1.75781 -3.33986,2.63672 -5.83594,2.63672 -2.50782,0 -4.5293,-0.96387 -6.06445,-2.8916 -1.53516,-1.92773 -2.30274,-5.36425 -2.30273,-10.30957 -10e-6,-4.85155 0.84374,-8.34373 2.53125,-10.47657 1.39452,-1.75778 3.33983,-2.63669 5.83593,-2.63671 z m 0,4.0957 c -0.59766,2e-5 -1.13087,0.19045 -1.59961,0.57129 -0.46875,0.38088 -0.83204,1.06349 -1.08984,2.04785 -0.33985,1.27736 -0.50977,3.42775 -0.50977,6.45117 0,3.02345 0.15234,5.10059 0.45704,6.23145 0.30468,1.13086 0.68846,1.88379 1.15136,2.25879 0.46288,0.375 0.99316,0.5625 1.59082,0.5625 0.59765,0 1.13085,-0.19043 1.59961,-0.57129 0.46874,-0.38086 0.83202,-1.06347 1.08985,-2.04786 0.33983,-1.26561 0.50975,-3.41014 0.50976,-6.43359 -10e-6,-3.02342 -0.15236,-5.10057 -0.45703,-6.23144 -0.3047,-1.13084 -0.68849,-1.8867 -1.15137,-2.26758 -0.4629,-0.38084 -0.99317,-0.57127 -1.59082,-0.57129 z"
     style="font-size:36px;font-variant:normal;font-weight:bold;font-stretch:normal;font-family:Arial;-inkscape-font-specification:Arial Bold;stroke:#ff0000;fill:none"
     id="path3089" /><path
     d="m 328.56229,656.62115 0,4.5879 -17.31446,0 c 0.1875,-1.73438 0.75,-3.37793 1.6875,-4.93067 0.9375,-1.55273 2.78906,-3.61229 5.55469,-6.17871 2.22655,-2.07421 3.59179,-3.48045 4.0957,-4.21875 0.67968,-1.01951 1.01952,-2.02733 1.01954,-3.02344 -2e-5,-1.10154 -0.29592,-1.94822 -0.8877,-2.54004 -0.59181,-0.59177 -1.40919,-0.88767 -2.45215,-0.88769 -1.03126,2e-5 -1.85157,0.31057 -2.46094,0.93164 -0.60938,0.62111 -0.96094,1.65236 -1.05468,3.09375 l -4.92188,-0.49219 c 0.29297,-2.71873 1.21289,-4.6699 2.75977,-5.85351 1.54687,-1.18357 3.48046,-1.77537 5.80078,-1.77539 2.54295,2e-5 4.541,0.68557 5.99414,2.05664 1.45311,1.37111 2.17967,3.07619 2.17969,5.11523 -2e-5,1.16017 -0.20803,2.26467 -0.62403,3.31348 -0.41603,1.04884 -1.07521,2.14747 -1.97754,3.2959 -0.59767,0.76173 -1.67579,1.85743 -3.23437,3.2871 -1.55861,1.4297 -2.54591,2.37892 -2.96192,2.84766 -0.41602,0.46876 -0.75293,0.92579 -1.01074,1.37109 z"
     style="font-size:36px;font-variant:normal;font-weight:bold;font-stretch:normal;font-family:Arial;-inkscape-font-specification:Arial Bold;stroke:#ff0000;fill:none"
     id="path3091" /><path
     d="m 332.9744,661.20905 0,-4.93946 4.93945,0 0,4.93946 z"
     style="font-size:36px;font-variant:normal;font-weight:bold;font-stretch:normal;font-family:Arial;-inkscape-font-specification:Arial Bold;stroke:#ff0000;fill:none"
     id="path3093" /><path
     d="m 358.58572,656.62115 0,4.5879 -17.31445,0 c 0.1875,-1.73438 0.75,-3.37793 1.6875,-4.93067 0.9375,-1.55273 2.78906,-3.61229 5.55469,-6.17871 2.22655,-2.07421 3.59178,-3.48045 4.0957,-4.21875 0.67968,-1.01951 1.01952,-2.02733 1.01953,-3.02344 -1e-5,-1.10154 -0.29591,-1.94822 -0.88769,-2.54004 -0.59181,-0.59177 -1.40919,-0.88767 -2.45215,-0.88769 -1.03126,2e-5 -1.85157,0.31057 -2.46094,0.93164 -0.60938,0.62111 -0.96094,1.65236 -1.05469,3.09375 l -4.92187,-0.49219 c 0.29297,-2.71873 1.21289,-4.6699 2.75976,-5.85351 1.54687,-1.18357 3.48047,-1.77537 5.80079,-1.77539 2.54295,2e-5 4.541,0.68557 5.99414,2.05664 1.4531,1.37111 2.17967,3.07619 2.17968,5.11523 -10e-6,1.16017 -0.20802,2.26467 -0.62402,3.31348 -0.41603,1.04884 -1.07521,2.14747 -1.97754,3.2959 -0.59767,0.76173 -1.67579,1.85743 -3.23437,3.2871 -1.55861,1.4297 -2.54591,2.37892 -2.96192,2.84766 -0.41602,0.46876 -0.75294,0.92579 -1.01074,1.37109 z"
     style="font-size:36px;font-variant:normal;font-weight:bold;font-stretch:normal;font-family:Arial;-inkscape-font-specification:Arial Bold;stroke:#ff0000;fill:none"
     id="path3095" /><path
     d="m 370.29276,635.33405 c 2.49608,2e-5 4.44725,0.89065 5.85351,2.67187 1.67576,2.1094 2.51365,5.60744 2.51367,10.49414 -2e-5,4.87501 -0.84376,8.37891 -2.53125,10.51172 -1.39454,1.75781 -3.33985,2.63672 -5.83593,2.63672 -2.50782,0 -4.52931,-0.96387 -6.06446,-2.8916 -1.53516,-1.92773 -2.30273,-5.36425 -2.30273,-10.30957 0,-4.85155 0.84375,-8.34373 2.53125,-10.47657 1.39452,-1.75778 3.33983,-2.63669 5.83594,-2.63671 z m 0,4.0957 c -0.59767,2e-5 -1.13087,0.19045 -1.59961,0.57129 -0.46876,0.38088 -0.83204,1.06349 -1.08985,2.04785 -0.33985,1.27736 -0.50977,3.42775 -0.50976,6.45117 -1e-5,3.02345 0.15233,5.10059 0.45703,6.23145 0.30468,1.13086 0.68847,1.88379 1.15136,2.25879 0.46289,0.375 0.99316,0.5625 1.59083,0.5625 0.59764,0 1.13084,-0.19043 1.5996,-0.57129 0.46874,-0.38086 0.83202,-1.06347 1.08985,-2.04786 0.33983,-1.26561 0.50975,-3.41014 0.50976,-6.43359 -10e-6,-3.02342 -0.15235,-5.10057 -0.45703,-6.23144 -0.3047,-1.13084 -0.68849,-1.8867 -1.15136,-2.26758 -0.46291,-0.38084 -0.99318,-0.57127 -1.59082,-0.57129 z"
     style="font-size:36px;font-variant:normal;font-weight:bold;font-stretch:normal;font-family:Arial;-inkscape-font-specification:Arial Bold;stroke:#ff0000;fill:none"
     id="path3097" /><path
     d="m 394.62088,661.20905 -4.93945,0 0,-18.61524 c -1.8047,1.68752 -3.93165,2.93556 -6.38086,3.74414 l 0,-4.48242 c 1.28906,-0.42186 2.68945,-1.22166 4.20117,-2.39941 1.51171,-1.17772 2.54882,-2.55174 3.11133,-4.12207 l 4.00781,0 z"
     style="font-size:36px;font-variant:normal;font-weight:bold;font-stretch:normal;font-family:Arial;-inkscape-font-specification:Arial Bold;stroke:#ff0000;fill:none"
     id="path3099" /><path
     d="m 411.70682,661.20905 0,-5.18555 -10.54688,0 0,-4.32422 11.17969,-16.36523 4.14844,0 0,16.34765 3.19922,0 0,4.3418 -3.19922,0 0,5.18555 z m 0,-9.52735 0,-8.80664 -5.92383,8.80664 z"
     style="font-size:36px;font-variant:normal;font-weight:bold;font-stretch:normal;font-family:Arial;-inkscape-font-specification:Arial Bold;stroke:#ff0000;fill:none"
     id="path3101" /><path
     d="m 424.06424,647.48053 0,-4.93945 4.93945,0 0,4.93945 z m 0,13.72852 0,-4.93946 4.93945,0 0,4.93946 z"
     style="font-size:36px;font-variant:normal;font-weight:bold;font-stretch:normal;font-family:Arial;-inkscape-font-specification:Arial Bold;stroke:#ff0000;fill:none"
     id="path3103" /><path
     d="m 450.95877,661.20905 0,-21.41016 -7.64648,0 0,-4.35938 20.47851,0 0,4.35938 -7.6289,0 0,21.41016 z"
     style="font-size:36px;font-variant:normal;font-weight:bold;font-stretch:normal;font-family:Arial;-inkscape-font-specification:Arial Bold;stroke:#ff0000;fill:none"
     id="path3105" /><path
     d="m 472.05252,635.43951 0,9.47461 c 1.59374,-1.86326 3.49804,-2.7949 5.71289,-2.79492 1.13671,2e-5 2.1621,0.21096 3.07617,0.63281 0.91405,0.4219 1.60252,0.96096 2.06543,1.61719 0.46287,0.65627 0.77928,1.38283 0.94922,2.17969 0.1699,0.79689 0.25486,2.03321 0.25488,3.70898 l 0,10.95118 -4.93945,0 0,-9.86133 c -10e-6,-1.95702 -0.0938,-3.19921 -0.28125,-3.72657 -0.18751,-0.52732 -0.51857,-0.94627 -0.99316,-1.25683 -0.47462,-0.31053 -1.06935,-0.46581 -1.78418,-0.46582 -0.82033,10e-6 -1.55275,0.19923 -2.19727,0.59765 -0.64454,0.39846 -1.11622,0.99904 -1.41504,1.80176 -0.29883,0.80275 -0.44825,1.98927 -0.44824,3.55957 l 0,9.35157 -4.93945,0 0,-25.76954 z"
     style="font-size:36px;font-variant:normal;font-weight:bold;font-stretch:normal;font-family:Arial;-inkscape-font-specification:Arial Bold;stroke:#ff0000;fill:none"
     id="path3107" /><path
     d="m 499.94901,655.26764 4.92187,0.82617 c -0.63283,1.80469 -1.63185,3.17871 -2.99707,4.12207 -1.36525,0.94336 -3.07325,1.41504 -5.12402,1.41504 -3.2461,0 -5.64845,-1.06055 -7.20703,-3.18164 -1.23048,-1.69921 -1.84571,-3.84374 -1.84571,-6.43359 0,-3.09374 0.80859,-5.51659 2.42578,-7.26856 1.61719,-1.75193 3.66211,-2.62791 6.13477,-2.62793 2.77733,2e-5 4.96873,0.91701 6.57422,2.75098 1.60545,1.834 2.37303,4.64356 2.30273,8.42871 l -12.375,0 c 0.0351,1.46485 0.43359,2.6045 1.19531,3.41894 0.76172,0.81446 1.71093,1.22169 2.84766,1.22168 0.77343,10e-6 1.42382,-0.21093 1.95117,-0.63281 0.52733,-0.42187 0.92577,-1.10156 1.19532,-2.03906 z m 0.28125,-4.99219 c -0.0352,-1.42967 -0.40432,-2.51659 -1.10743,-3.26074 -0.70313,-0.74413 -1.5586,-1.1162 -2.5664,-1.11621 -1.07814,10e-6 -1.96876,0.39259 -2.67188,1.17773 -0.70313,0.78517 -1.04883,1.85158 -1.03711,3.19922 z"
     style="font-size:36px;font-variant:normal;font-weight:bold;font-stretch:normal;font-family:Arial;-inkscape-font-specification:Arial Bold;stroke:#ff0000;fill:none"
     id="path3109" /><path
     d="m 519.1619,635.43951 5.20312,0 0,13.95704 c -10e-6,2.21485 0.0645,3.65039 0.19336,4.30664 0.22265,1.05469 0.75292,1.90137 1.59082,2.54004 0.83788,0.63867 1.98339,0.95801 3.43652,0.958 1.47655,10e-6 2.58983,-0.30175 3.33985,-0.90527 0.74998,-0.60351 1.20115,-1.34472 1.35351,-2.22363 0.15233,-0.8789 0.2285,-2.33788 0.22852,-4.37696 l 0,-14.25586 5.20312,0 0,13.53516 c -2e-5,3.09376 -0.14064,5.2793 -0.42187,6.55664 -0.28127,1.27735 -0.79983,2.35547 -1.55567,3.23438 -0.75587,0.8789 -1.76662,1.5791 -3.03222,2.10058 -1.26564,0.52149 -2.91799,0.78223 -4.95703,0.78223 -2.46095,0 -4.32716,-0.28418 -5.59864,-0.85254 -1.27149,-0.56836 -2.27637,-1.30664 -3.01464,-2.21484 -0.73829,-0.9082 -1.22462,-1.86035 -1.45899,-2.85645 -0.33985,-1.47656 -0.50977,-3.65624 -0.50976,-6.53906 z"
     style="font-size:36px;font-variant:normal;font-weight:bold;font-stretch:normal;font-family:Arial;-inkscape-font-specification:Arial Bold;stroke:#ff0000;fill:none"
     id="path3111" /><path
     d="m 545.17752,661.20905 0,-25.76954 4.93945,0 0,25.76954 z"
     style="font-size:36px;font-variant:normal;font-weight:bold;font-stretch:normal;font-family:Arial;-inkscape-font-specification:Arial Bold;stroke:#ff0000;fill:none"
     id="path3113" /><path
     d="m 563.72244,642.54108 0,3.9375 -3.375,0 0,7.52343 c -10e-6,1.52345 0.0322,2.41114 0.0967,2.66309 0.0644,0.25196 0.21093,0.45997 0.43946,0.62402 0.2285,0.16407 0.50682,0.2461 0.83496,0.2461 0.45702,0 1.11913,-0.1582 1.98632,-0.47461 l 0.42188,3.83203 c -1.14845,0.49219 -2.44923,0.73828 -3.90234,0.73828 -0.89064,0 -1.69337,-0.14941 -2.40821,-0.44824 -0.71485,-0.29883 -1.23926,-0.68555 -1.57324,-1.16016 -0.33399,-0.47461 -0.56543,-1.11621 -0.69434,-1.9248 -0.10547,-0.57422 -0.1582,-1.73437 -0.1582,-3.48047 l 0,-8.13867 -2.26758,0 0,-3.9375 2.26758,0 0,-3.70899 4.95703,-2.88281 0,6.5918 z"
     style="font-size:36px;font-variant:normal;font-weight:bold;font-stretch:normal;font-family:Arial;-inkscape-font-specification:Arial Bold;stroke:#ff0000;fill:none"
     id="path3115" /><path
     d="m 567.18533,640.00983 0,-4.57032 4.93946,0 0,4.57032 z m 0,21.19922 0,-18.66797 4.93946,0 0,18.66797 z"
     style="font-size:36px;font-variant:normal;font-weight:bold;font-stretch:normal;font-family:Arial;-inkscape-font-specification:Arial Bold;stroke:#ff0000;fill:none"
     id="path3117" /><path
     d="m 576.80057,642.54108 4.55273,0 0,2.54882 c 1.6289,-1.98045 3.56835,-2.97068 5.81836,-2.9707 1.1953,2e-5 2.23241,0.24611 3.11133,0.73828 0.87889,0.49221 1.59959,1.23635 2.16211,2.23242 0.82029,-0.99607 1.70506,-1.74021 2.6543,-2.23242 0.94919,-0.49217 1.96286,-0.73826 3.04101,-0.73828 1.37107,2e-5 2.53123,0.27834 3.48047,0.83496 0.94919,0.55666 1.65817,1.37404 2.12695,2.45215 0.33982,0.79689 0.50974,2.08595 0.50977,3.86719 l 0,11.93555 -4.93945,0 0,-10.66993 c -3e-5,-1.85155 -0.16995,-3.04686 -0.50977,-3.58593 -0.45705,-0.70311 -1.16018,-1.05468 -2.10937,-1.05469 -0.69143,10e-6 -1.34182,0.21095 -1.95118,0.63281 -0.60939,0.42189 -1.04884,1.04005 -1.31836,1.85449 -0.26955,0.81447 -0.40431,2.1006 -0.40429,3.8584 l 0,8.96485 -4.93946,0 0,-10.23047 c -1e-5,-1.8164 -0.0879,-2.98827 -0.26367,-3.51563 -0.17579,-0.52733 -0.44825,-0.91991 -0.81738,-1.17773 -0.36915,-0.2578 -0.87013,-0.38671 -1.50293,-0.38672 -0.76173,10e-6 -1.44728,0.20509 -2.05664,0.61523 -0.60938,0.41017 -1.04591,1.00197 -1.30957,1.77539 -0.26368,0.77345 -0.39552,2.05666 -0.39551,3.84961 l 0,9.07032 -4.93945,0 z"
     style="font-size:36px;font-variant:normal;font-weight:bold;font-stretch:normal;font-family:Arial;-inkscape-font-specification:Arial Bold;stroke:#ff0000;fill:none"
     id="path3119" /><path
     d="m 612.8533,648.23639 -4.48242,-0.80859 c 0.5039,-1.80468 1.37109,-3.14061 2.60156,-4.00782 1.23047,-0.86717 3.05859,-1.30076 5.48438,-1.30078 2.20311,2e-5 3.84373,0.26076 4.92187,0.78223 1.07811,0.5215 1.8369,1.18361 2.27637,1.98633 0.43944,0.80275 0.65916,2.27638 0.65918,4.42089 l -0.0527,5.76563 c -2e-5,1.64063 0.0791,2.85059 0.2373,3.62988 0.15818,0.7793 0.45408,1.61426 0.8877,2.50489 l -4.88672,0 c -0.12892,-0.32813 -0.28713,-0.81446 -0.47461,-1.45899 -0.082,-0.29297 -0.14064,-0.48633 -0.17578,-0.58008 -0.84377,0.82032 -1.74611,1.43555 -2.70704,1.84571 -0.96094,0.41015 -1.98633,0.61523 -3.07617,0.61523 -1.92188,0 -3.43652,-0.52148 -4.54394,-1.56445 -1.10743,-1.04297 -1.66114,-2.36133 -1.66114,-3.95508 0,-1.05468 0.25196,-1.99511 0.75586,-2.82129 0.50391,-0.82616 1.20996,-1.45897 2.11817,-1.89844 0.9082,-0.43944 2.21777,-0.82323 3.92871,-1.15136 2.30858,-0.43359 3.90819,-0.83788 4.79883,-1.2129 l 0,-0.49218 c -2e-5,-0.94921 -0.23439,-1.62596 -0.70313,-2.03028 -0.46876,-0.40428 -1.35352,-0.60643 -2.65429,-0.60644 -0.87892,10e-6 -1.56447,0.17287 -2.05665,0.51855 -0.49219,0.34572 -0.89063,0.95217 -1.19531,1.81934 z m 6.60938,4.00781 c -0.63283,0.21095 -1.63478,0.4629 -3.00586,0.75586 -1.3711,0.29298 -2.26759,0.58009 -2.68946,0.86133 -0.64453,0.45704 -0.9668,1.03711 -0.96679,1.74023 -10e-6,0.69141 0.2578,1.28907 0.77344,1.79297 0.51561,0.50391 1.17186,0.75586 1.96875,0.75586 0.89061,0 1.74022,-0.29296 2.54882,-0.8789 0.59765,-0.44531 0.99023,-0.99023 1.17774,-1.63477 0.12889,-0.42187 0.19334,-1.2246 0.19336,-2.4082 z"
     style="font-size:36px;font-variant:normal;font-weight:bold;font-stretch:normal;font-family:Arial;-inkscape-font-specification:Arial Bold;stroke:#ff0000;fill:none"
     id="path3121" /><path
     d="m 637.76151,642.54108 0,3.9375 -3.375,0 0,7.52343 c -1e-5,1.52345 0.0322,2.41114 0.0967,2.66309 0.0645,0.25196 0.21093,0.45997 0.43946,0.62402 0.22851,0.16407 0.50683,0.2461 0.83496,0.2461 0.45702,0 1.11913,-0.1582 1.98633,-0.47461 l 0.42187,3.83203 c -1.14845,0.49219 -2.44923,0.73828 -3.90234,0.73828 -0.89063,0 -1.69337,-0.14941 -2.4082,-0.44824 -0.71485,-0.29883 -1.23927,-0.68555 -1.57325,-1.16016 -0.33398,-0.47461 -0.56543,-1.11621 -0.69433,-1.9248 -0.10547,-0.57422 -0.15821,-1.73437 -0.15821,-3.48047 l 0,-8.13867 -2.26757,0 0,-3.9375 2.26757,0 0,-3.70899 4.95704,-2.88281 0,6.5918 z"
     style="font-size:36px;font-variant:normal;font-weight:bold;font-stretch:normal;font-family:Arial;-inkscape-font-specification:Arial Bold;stroke:#ff0000;fill:none"
     id="path3123" /><path
     d="m 652.03494,655.26764 4.92188,0.82617 c -0.63283,1.80469 -1.63185,3.17871 -2.99707,4.12207 -1.36525,0.94336 -3.07326,1.41504 -5.12403,1.41504 -3.2461,0 -5.64844,-1.06055 -7.20703,-3.18164 -1.23047,-1.69921 -1.8457,-3.84374 -1.8457,-6.43359 0,-3.09374 0.80859,-5.51659 2.42578,-7.26856 1.61718,-1.75193 3.6621,-2.62791 6.13477,-2.62793 2.77733,2e-5 4.96873,0.91701 6.57422,2.75098 1.60545,1.834 2.37302,4.64356 2.30273,8.42871 l -12.375,0 c 0.0351,1.46485 0.43359,2.6045 1.19531,3.41894 0.76171,0.81446 1.71093,1.22169 2.84766,1.22168 0.77342,10e-6 1.42381,-0.21093 1.95117,-0.63281 0.52733,-0.42187 0.92577,-1.10156 1.19531,-2.03906 z m 0.28125,-4.99219 c -0.0352,-1.42967 -0.40431,-2.51659 -1.10742,-3.26074 -0.70314,-0.74413 -1.5586,-1.1162 -2.56641,-1.11621 -1.07813,10e-6 -1.96875,0.39259 -2.67187,1.17773 -0.70313,0.78517 -1.04883,1.85158 -1.03711,3.19922 z"
     style="font-size:36px;font-variant:normal;font-weight:bold;font-stretch:normal;font-family:Arial;-inkscape-font-specification:Arial Bold;stroke:#ff0000;fill:none"
     id="path3125" /><path
     d="m 255.21854,729.6051 0,-38.0625 -13.59375,0 0,-7.75 36.40625,0 0,7.75 -13.5625,0 0,38.0625 z"
     style="font-size:64px;font-variant:normal;font-weight:bold;font-stretch:normal;font-family:Arial;-inkscape-font-specification:Arial Bold;stroke:#ff0000;fill:none"
     id="path3127" /><path
     d="m 283.96854,691.9176 0,-8.125 8.78125,0 0,8.125 z m 0,37.6875 0,-33.1875 8.78125,0 0,33.1875 z"
     style="font-size:64px;font-variant:normal;font-weight:bold;font-stretch:normal;font-family:Arial;-inkscape-font-specification:Arial Bold;stroke:#ff0000;fill:none"
     id="path3129" /><path
     d="m 330.65604,706.2301 -8.65625,1.5625 c -0.29169,-1.72914 -0.95315,-3.03122 -1.98438,-3.90625 -1.03127,-0.87497 -2.36981,-1.31247 -4.01562,-1.3125 -2.18752,3e-5 -3.93231,0.75524 -5.23438,2.26563 -1.30209,1.51044 -1.95314,4.03648 -1.95312,7.57812 -2e-5,3.93752 0.66144,6.71876 1.98437,8.34375 1.3229,1.62501 3.09894,2.43751 5.32813,2.4375 1.66664,10e-6 3.03122,-0.47395 4.09375,-1.42187 1.06247,-0.94791 1.81247,-2.57812 2.25,-4.89063 l 8.625,1.46875 c -0.89587,3.95834 -2.61462,6.94792 -5.15625,8.96875 -2.5417,2.02084 -5.94794,3.03125 -10.21875,3.03125 -4.85418,0 -8.72397,-1.53125 -11.60938,-4.59375 -2.88542,-3.06249 -4.32813,-7.30207 -4.32812,-12.71875 -1e-5,-5.47914 1.44791,-9.74476 4.34375,-12.79687 2.89582,-3.05205 6.81248,-4.57809 11.75,-4.57813 4.04164,4e-5 7.25518,0.86983 9.64062,2.60938 2.38539,1.73961 4.09893,4.39065 5.14063,7.95312 z"
     style="font-size:64px;font-variant:normal;font-weight:bold;font-stretch:normal;font-family:Arial;-inkscape-font-specification:Arial Bold;stroke:#ff0000;fill:none"
     id="path3131" /><path
     d="m 365.46854,729.6051 0,-38.0625 -13.59375,0 0,-7.75 36.40625,0 0,7.75 -13.5625,0 0,38.0625 z"
     style="font-size:64px;font-variant:normal;font-weight:bold;font-stretch:normal;font-family:Arial;-inkscape-font-specification:Arial Bold;stroke:#ff0000;fill:none"
     id="path3133" /><path
     d="m 400.78104,706.5426 -7.96875,-1.4375 c 0.89583,-3.2083 2.43749,-5.5833 4.625,-7.125 2.18749,-1.54163 5.43748,-2.31246 9.75,-2.3125 3.91664,4e-5 6.83331,0.46358 8.75,1.39063 1.91663,0.92711 3.26559,2.10419 4.04687,3.53125 0.78122,1.42711 1.17184,4.0469 1.17188,7.85937 l -0.0937,10.25 c -4e-5,2.91668 0.14059,5.06772 0.42187,6.45313 0.28122,1.38542 0.80726,2.86979 1.57813,4.45312 l -8.6875,0 c -0.22919,-0.58333 -0.51044,-1.44791 -0.84375,-2.59375 -0.14586,-0.52083 -0.25003,-0.86458 -0.3125,-1.03125 -1.50003,1.45834 -3.10419,2.55209 -4.8125,3.28125 -1.70835,0.72917 -3.53127,1.09375 -5.46875,1.09375 -3.41668,0 -6.10939,-0.92708 -8.07813,-2.78125 -1.96875,-1.85416 -2.95313,-4.19791 -2.95312,-7.03125 -1e-5,-1.87499 0.44791,-3.54686 1.34375,-5.01562 0.89583,-1.46874 2.15103,-2.59374 3.76562,-3.375 1.61458,-0.78123 3.9427,-1.46352 6.98438,-2.04688 4.10414,-0.77081 6.94789,-1.48956 8.53125,-2.15625 l 0,-0.875 c -3e-5,-1.68747 -0.41669,-2.8906 -1.25,-3.60937 -0.83336,-0.71873 -2.40627,-1.0781 -4.71875,-1.07813 -1.56252,3e-5 -2.78127,0.30732 -3.65625,0.92188 -0.87502,0.61461 -1.58335,1.69273 -2.125,3.23437 z m 11.75,7.125 c -1.12503,0.37502 -2.90627,0.82293 -5.34375,1.34375 -2.43752,0.52085 -4.03127,1.03127 -4.78125,1.53125 -1.14585,0.81252 -1.71876,1.84376 -1.71875,3.09375 -1e-5,1.22918 0.45832,2.29168 1.375,3.1875 0.91665,0.89584 2.08332,1.34376 3.5,1.34375 1.58331,10e-6 3.09373,-0.52082 4.53125,-1.5625 1.06247,-0.79166 1.76039,-1.76041 2.09375,-2.90625 0.22914,-0.74999 0.34372,-2.17707 0.34375,-4.28125 z"
     style="font-size:64px;font-variant:normal;font-weight:bold;font-stretch:normal;font-family:Arial;-inkscape-font-specification:Arial Bold;stroke:#ff0000;fill:none"
     id="path3135" /><path
     d="m 458.78104,706.2301 -8.65625,1.5625 c -0.29169,-1.72914 -0.95315,-3.03122 -1.98438,-3.90625 -1.03127,-0.87497 -2.36981,-1.31247 -4.01562,-1.3125 -2.18752,3e-5 -3.93231,0.75524 -5.23438,2.26563 -1.30209,1.51044 -1.95314,4.03648 -1.95312,7.57812 -2e-5,3.93752 0.66144,6.71876 1.98437,8.34375 1.3229,1.62501 3.09894,2.43751 5.32813,2.4375 1.66664,10e-6 3.03122,-0.47395 4.09375,-1.42187 1.06247,-0.94791 1.81247,-2.57812 2.25,-4.89063 l 8.625,1.46875 c -0.89587,3.95834 -2.61462,6.94792 -5.15625,8.96875 -2.5417,2.02084 -5.94794,3.03125 -10.21875,3.03125 -4.85418,0 -8.72397,-1.53125 -11.60938,-4.59375 -2.88542,-3.06249 -4.32813,-7.30207 -4.32812,-12.71875 -1e-5,-5.47914 1.44791,-9.74476 4.34375,-12.79687 2.89582,-3.05205 6.81248,-4.57809 11.75,-4.57813 4.04164,4e-5 7.25518,0.86983 9.64062,2.60938 2.38539,1.73961 4.09893,4.39065 5.14063,7.95312 z"
     style="font-size:64px;font-variant:normal;font-weight:bold;font-stretch:normal;font-family:Arial;-inkscape-font-specification:Arial Bold;stroke:#ff0000;fill:none"
     id="path3137" /><path
     d="m 493.59354,729.6051 0,-38.0625 -13.59375,0 0,-7.75 36.40625,0 0,7.75 -13.5625,0 0,38.0625 z"
     style="font-size:64px;font-variant:normal;font-weight:bold;font-stretch:normal;font-family:Arial;-inkscape-font-specification:Arial Bold;stroke:#ff0000;fill:none"
     id="path3139" /><path
     d="m 520.31229,712.5426 c -10e-6,-2.91664 0.71874,-5.73956 2.15625,-8.46875 1.43749,-2.72914 3.47395,-4.81247 6.10937,-6.25 2.6354,-1.43746 5.57811,-2.15621 8.82813,-2.15625 5.02081,4e-5 9.13538,1.63024 12.34375,4.89063 3.20829,3.26044 4.81246,7.38023 4.8125,12.35937 -4e-5,5.02085 -1.61983,9.1823 -4.85938,12.48438 -3.23961,3.30208 -7.31773,4.95312 -12.23437,4.95312 -3.04169,0 -5.94273,-0.6875 -8.70313,-2.0625 -2.76042,-1.37499 -4.85938,-3.39062 -6.29687,-6.04687 -1.43751,-2.65624 -2.15626,-5.89061 -2.15625,-9.70313 z m 9,0.46875 c -2e-5,3.29168 0.78123,5.81251 2.34375,7.5625 1.56248,1.75001 3.48956,2.62501 5.78125,2.625 2.29164,10e-6 4.21351,-0.87499 5.76562,-2.625 1.55206,-1.74999 2.3281,-4.29165 2.32813,-7.625 -3e-5,-3.24998 -0.77607,-5.74997 -2.32813,-7.5 -1.55211,-1.74997 -3.47398,-2.62497 -5.76562,-2.625 -2.29169,3e-5 -4.21877,0.87503 -5.78125,2.625 -1.56252,1.75003 -2.34377,4.27086 -2.34375,7.5625 z"
     style="font-size:64px;font-variant:normal;font-weight:bold;font-stretch:normal;font-family:Arial;-inkscape-font-specification:Arial Bold;stroke:#ff0000;fill:none"
     id="path3141" /><path
     d="m 580.68729,719.0426 8.75,1.46875 c -1.12504,3.20834 -2.90107,5.65105 -5.32813,7.32813 -2.42711,1.67708 -5.46356,2.51562 -9.10937,2.51562 -5.77085,0 -10.04168,-1.88541 -12.8125,-5.65625 -2.18751,-3.02082 -3.28126,-6.83332 -3.28125,-11.4375 -10e-6,-5.49998 1.43749,-9.80726 4.3125,-12.92187 2.87499,-3.11455 6.5104,-4.67184 10.90625,-4.67188 4.93747,4e-5 8.8333,1.63024 11.6875,4.89063 2.85413,3.26044 4.21871,8.25523 4.09375,14.98437 l -22,0 c 0.0625,2.60418 0.77082,4.63022 2.125,6.07813 1.35415,1.44792 3.04165,2.17188 5.0625,2.17187 1.37498,10e-6 2.53123,-0.37499 3.46875,-1.125 0.93747,-0.74999 1.64581,-1.95832 2.125,-3.625 z m 0.5,-8.875 c -0.0625,-2.54164 -0.71878,-4.47393 -1.96875,-5.79687 -1.25002,-1.32289 -2.77086,-1.98435 -4.5625,-1.98438 -1.91669,3e-5 -3.50002,0.69795 -4.75,2.09375 -1.25002,1.39586 -1.8646,3.29169 -1.84375,5.6875 z"
     style="font-size:64px;font-variant:normal;font-weight:bold;font-stretch:normal;font-family:Arial;-inkscape-font-specification:Arial Bold;stroke:#ff0000;fill:none"
     id="path3143" /><path
     d="m 644.21854,712.76135 8.96875,2.84375 c -1.37505,5.00001 -3.6615,8.71355 -6.85938,11.14063 -3.19795,2.42708 -7.25524,3.64062 -12.17187,3.64062 -6.08335,0 -11.08335,-2.07812 -15,-6.23437 -3.91668,-4.15624 -5.87501,-9.83853 -5.875,-17.04688 -10e-6,-7.62497 1.96874,-13.54684 5.90625,-17.76562 3.93748,-4.21871 9.11456,-6.32808 15.53125,-6.32813 5.60413,5e-5 10.15621,1.6563 13.65625,4.96875 2.08329,1.95838 3.64579,4.77087 4.6875,8.4375 l -9.15625,2.1875 c -0.5417,-2.37496 -1.67191,-4.24996 -3.39063,-5.625 -1.71878,-1.37496 -3.80732,-2.06246 -6.26562,-2.0625 -3.39586,4e-5 -6.15106,1.21879 -8.26563,3.65625 -2.1146,2.43754 -3.17189,6.38545 -3.17187,11.84375 -2e-5,5.79169 1.04165,9.91668 3.125,12.375 2.08331,2.45834 4.79164,3.68751 8.125,3.6875 2.4583,10e-6 4.57288,-0.78124 6.34375,-2.34375 1.7708,-1.56249 3.04163,-4.02082 3.8125,-7.375 z"
     style="font-size:64px;font-variant:normal;font-weight:bold;font-stretch:normal;font-family:Arial;-inkscape-font-specification:Arial Bold;stroke:#ff0000;fill:none"
     id="path3145" /><path
     d="m 669.84354,683.7926 0,16.84375 c 2.83331,-3.31246 6.21873,-4.96871 10.15625,-4.96875 2.0208,4e-5 3.84372,0.37504 5.46875,1.125 1.62497,0.75003 2.84892,1.70837 3.67187,2.875 0.82288,1.1667 1.38538,2.45836 1.6875,3.875 0.30205,1.41669 0.45309,3.61461 0.45313,6.59375 l 0,19.46875 -8.78125,0 0,-17.53125 c -3e-5,-3.47914 -0.1667,-5.68747 -0.5,-6.625 -0.33336,-0.93747 -0.9219,-1.68226 -1.76563,-2.23437 -0.84377,-0.55206 -1.90106,-0.8281 -3.17187,-0.82813 -1.45836,3e-5 -2.76044,0.3542 -3.90625,1.0625 -1.14585,0.70836 -1.98439,1.77607 -2.51563,3.20313 -0.53126,1.4271 -0.79689,3.53648 -0.79687,6.32812 l 0,16.625 -8.78125,0 0,-45.8125 z"
     style="font-size:64px;font-variant:normal;font-weight:bold;font-stretch:normal;font-family:Arial;-inkscape-font-specification:Arial Bold;stroke:#ff0000;fill:none"
     id="path3147" /><path
     d="m 706.78104,706.5426 -7.96875,-1.4375 c 0.89583,-3.2083 2.43749,-5.5833 4.625,-7.125 2.18749,-1.54163 5.43748,-2.31246 9.75,-2.3125 3.91664,4e-5 6.83331,0.46358 8.75,1.39063 1.91663,0.92711 3.26559,2.10419 4.04687,3.53125 0.78122,1.42711 1.17184,4.0469 1.17188,7.85937 l -0.0937,10.25 c -4e-5,2.91668 0.14059,5.06772 0.42187,6.45313 0.28122,1.38542 0.80726,2.86979 1.57813,4.45312 l -8.6875,0 c -0.22919,-0.58333 -0.51044,-1.44791 -0.84375,-2.59375 -0.14586,-0.52083 -0.25003,-0.86458 -0.3125,-1.03125 -1.50003,1.45834 -3.10419,2.55209 -4.8125,3.28125 -1.70835,0.72917 -3.53127,1.09375 -5.46875,1.09375 -3.41668,0 -6.10939,-0.92708 -8.07813,-2.78125 -1.96875,-1.85416 -2.95313,-4.19791 -2.95312,-7.03125 -10e-6,-1.87499 0.44791,-3.54686 1.34375,-5.01562 0.89583,-1.46874 2.15103,-2.59374 3.76562,-3.375 1.61458,-0.78123 3.9427,-1.46352 6.98438,-2.04688 4.10414,-0.77081 6.94789,-1.48956 8.53125,-2.15625 l 0,-0.875 c -3e-5,-1.68747 -0.41669,-2.8906 -1.25,-3.60937 -0.83336,-0.71873 -2.40627,-1.0781 -4.71875,-1.07813 -1.56252,3e-5 -2.78127,0.30732 -3.65625,0.92188 -0.87502,0.61461 -1.58335,1.69273 -2.125,3.23437 z m 11.75,7.125 c -1.12503,0.37502 -2.90627,0.82293 -5.34375,1.34375 -2.43752,0.52085 -4.03127,1.03127 -4.78125,1.53125 -1.14585,0.81252 -1.71876,1.84376 -1.71875,3.09375 -10e-6,1.22918 0.45832,2.29168 1.375,3.1875 0.91665,0.89584 2.08332,1.34376 3.5,1.34375 1.58331,10e-6 3.09373,-0.52082 4.53125,-1.5625 1.06247,-0.79166 1.76039,-1.76041 2.09375,-2.90625 0.22914,-0.74999 0.34372,-2.17707 0.34375,-4.28125 z"
     style="font-size:64px;font-variant:normal;font-weight:bold;font-stretch:normal;font-family:Arial;-inkscape-font-specification:Arial Bold;stroke:#ff0000;fill:none"
     id="path3149" /><path
     d="m 735.84354,729.6051 0,-45.8125 8.78125,0 0,45.8125 z"
     style="font-size:64px;font-variant:normal;font-weight:bold;font-stretch:normal;font-family:Arial;-inkscape-font-specification:Arial Bold;stroke:#ff0000;fill:none"
     id="path3151" /><path
     d="m 753.59354,729.6051 0,-45.8125 8.78125,0 0,45.8125 z"
     style="font-size:64px;font-variant:normal;font-weight:bold;font-stretch:normal;font-family:Arial;-inkscape-font-specification:Arial Bold;stroke:#ff0000;fill:none"
     id="path3153" /><path
     d="m 790.56229,719.0426 8.75,1.46875 c -1.12504,3.20834 -2.90107,5.65105 -5.32813,7.32813 -2.42711,1.67708 -5.46356,2.51562 -9.10937,2.51562 -5.77085,0 -10.04168,-1.88541 -12.8125,-5.65625 -2.18751,-3.02082 -3.28126,-6.83332 -3.28125,-11.4375 -10e-6,-5.49998 1.43749,-9.80726 4.3125,-12.92187 2.87499,-3.11455 6.5104,-4.67184 10.90625,-4.67188 4.93747,4e-5 8.8333,1.63024 11.6875,4.89063 2.85413,3.26044 4.21871,8.25523 4.09375,14.98437 l -22,0 c 0.0625,2.60418 0.77082,4.63022 2.125,6.07813 1.35415,1.44792 3.04165,2.17188 5.0625,2.17187 1.37498,10e-6 2.53123,-0.37499 3.46875,-1.125 0.93747,-0.74999 1.64581,-1.95832 2.125,-3.625 z m 0.5,-8.875 c -0.0625,-2.54164 -0.71878,-4.47393 -1.96875,-5.79687 -1.25002,-1.32289 -2.77086,-1.98435 -4.5625,-1.98438 -1.91669,3e-5 -3.50002,0.69795 -4.75,2.09375 -1.25002,1.39586 -1.8646,3.29169 -1.84375,5.6875 z"
     style="font-size:64px;font-variant:normal;font-weight:bold;font-stretch:normal;font-family:Arial;-inkscape-font-specification:Arial Bold;stroke:#ff0000;fill:none"
     id="path3155" /><path
     d="m 837.15604,729.6051 -8.78125,0 0,-16.9375 c -3e-5,-3.58331 -0.18753,-5.90102 -0.5625,-6.95312 -0.37503,-1.05206 -0.9844,-1.86977 -1.82813,-2.45313 -0.84377,-0.5833 -1.8594,-0.87497 -3.04687,-0.875 -1.52086,3e-5 -2.88544,0.4167 -4.09375,1.25 -1.20835,0.83336 -2.03648,1.93753 -2.48438,3.3125 -0.44793,1.37502 -0.67189,3.91669 -0.67187,7.625 l 0,15.03125 -8.78125,0 0,-33.1875 8.15625,0 0,4.875 c 2.89581,-3.74997 6.54164,-5.62496 10.9375,-5.625 1.93747,4e-5 3.7083,0.34899 5.3125,1.04688 1.60413,0.69795 2.81767,1.58857 3.64062,2.67187 0.82288,1.08337 1.3958,2.31253 1.71875,3.6875 0.32288,1.37503 0.48434,3.34378 0.48438,5.90625 z"
     style="font-size:64px;font-variant:normal;font-weight:bold;font-stretch:normal;font-family:Arial;-inkscape-font-specification:Arial Bold;stroke:#ff0000;fill:none"
     id="path3157" /><path
     d="m 845.28104,731.7926 10.03125,1.21875 c 0.16665,1.16666 0.55207,1.96875 1.15625,2.40625 0.83331,0.625 2.14581,0.9375 3.9375,0.9375 2.29164,0 4.01039,-0.34375 5.15625,-1.03125 0.7708,-0.45834 1.35414,-1.19792 1.75,-2.21875 0.2708,-0.72917 0.40622,-2.07292 0.40625,-4.03125 l 0,-4.84375 c -2.62503,3.58334 -5.93752,5.375 -9.9375,5.375 -4.45835,0 -7.9896,-1.88541 -10.59375,-5.65625 -2.04167,-2.97916 -3.06251,-6.68748 -3.0625,-11.125 -10e-6,-5.56247 1.33853,-9.81247 4.01562,-12.75 2.67708,-2.93746 6.0052,-4.40621 9.98438,-4.40625 4.10414,4e-5 7.48956,1.80212 10.15625,5.40625 l 0,-4.65625 8.21875,0 0,29.78125 c -4e-5,3.91667 -0.32295,6.84375 -0.96875,8.78125 -0.64587,1.9375 -1.55212,3.45833 -2.71875,4.5625 -1.1667,1.10416 -2.72399,1.96874 -4.67188,2.59375 -1.94794,0.62499 -4.41148,0.93749 -7.39062,0.9375 -5.62502,-10e-6 -9.6146,-0.96355 -11.96875,-2.89062 -2.35418,-1.92709 -3.53126,-4.3698 -3.53125,-7.32813 -10e-6,-0.29167 0.0104,-0.64583 0.0312,-1.0625 z m 7.84375,-19.46875 c -2e-5,3.52085 0.68228,6.09897 2.04687,7.73438 1.36457,1.63542 3.04686,2.45313 5.04688,2.45312 2.14581,10e-6 3.95831,-0.83853 5.4375,-2.51562 1.47914,-1.67707 2.21872,-4.16145 2.21875,-7.45313 -3e-5,-3.43748 -0.70836,-5.98956 -2.125,-7.65625 -1.41669,-1.66664 -3.20836,-2.49997 -5.375,-2.5 -2.10419,3e-5 -3.83856,0.81774 -5.20313,2.45313 -1.36459,1.63544 -2.04689,4.13023 -2.04687,7.48437 z"
     style="font-size:64px;font-variant:normal;font-weight:bold;font-stretch:normal;font-family:Arial;-inkscape-font-specification:Arial Bold;stroke:#ff0000;fill:none"
     id="path3159" /><path
     d="m 904.43729,719.0426 8.75,1.46875 c -1.12504,3.20834 -2.90107,5.65105 -5.32813,7.32813 -2.42711,1.67708 -5.46356,2.51562 -9.10937,2.51562 -5.77085,0 -10.04168,-1.88541 -12.8125,-5.65625 -2.18751,-3.02082 -3.28126,-6.83332 -3.28125,-11.4375 -10e-6,-5.49998 1.43749,-9.80726 4.3125,-12.92187 2.87499,-3.11455 6.5104,-4.67184 10.90625,-4.67188 4.93747,4e-5 8.8333,1.63024 11.6875,4.89063 2.85413,3.26044 4.21871,8.25523 4.09375,14.98437 l -22,0 c 0.0625,2.60418 0.77082,4.63022 2.125,6.07813 1.35415,1.44792 3.04165,2.17188 5.0625,2.17187 1.37498,10e-6 2.53123,-0.37499 3.46875,-1.125 0.93747,-0.74999 1.64581,-1.95832 2.125,-3.625 z m 0.5,-8.875 c -0.0625,-2.54164 -0.71878,-4.47393 -1.96875,-5.79687 -1.25002,-1.32289 -2.77086,-1.98435 -4.5625,-1.98438 -1.91669,3e-5 -3.50002,0.69795 -4.75,2.09375 -1.25002,1.39586 -1.8646,3.29169 -1.84375,5.6875 z"
     style="font-size:64px;font-variant:normal;font-weight:bold;font-stretch:normal;font-family:Arial;-inkscape-font-specification:Arial Bold;stroke:#ff0000;fill:none"
     id="path3161" /></g><g
   transform="matrix(0.59833832,0,0,0.59833832,476.43242,350.97208)"
   id="g3000"
   style="fill:none;stroke:#ff0000"><path
     inkscape:connector-curvature="0"
     id="path3"
     d="m 102.681,291.324 c 0,0 -14.178,8.245 10.09,11.035 29.4,3.354 44.426,2.873 76.825,-3.259 0,0 8.518,5.341 20.414,9.967 -72.63,31.128 -164.376,-1.803 -107.329,-17.743"
     style="fill:none;stroke:#ff0000" /><path
     inkscape:connector-curvature="0"
     id="path5"
     d="m 93.806,250.704 c 0,0 -15.902,11.771 8.384,14.283 31.406,3.24 56.208,3.505 99.125,-4.759 0,0 5.936,6.018 15.27,9.309 -87.814,25.678 -185.623,2.025 -122.779,-18.833"
     style="fill:none;stroke:#ff0000" /><path
     inkscape:connector-curvature="0"
     id="path7"
     d="m 168.625,181.799 c 17.896,20.604 -4.702,39.145 -4.702,39.145 0,0 45.441,-23.458 24.572,-52.833 -19.491,-27.394 -34.438,-41.005 46.479,-87.934 0,0 -127.013,31.722 -66.349,101.622"
     style="fill:none;stroke:#ff0000" /><path
     inkscape:connector-curvature="0"
     id="path9"
     d="m 264.684,321.369 c 0,0 10.492,8.645 -11.555,15.333 -41.923,12.7 -174.488,16.535 -211.314,0.506 -13.238,-5.759 11.587,-13.751 19.396,-15.428 8.144,-1.766 12.798,-1.437 12.798,-1.437 -14.722,-10.371 -95.157,20.364 -40.857,29.166 148.084,24.015 269.943,-10.814 231.532,-28.14"
     style="fill:none;stroke:#ff0000" /><path
     inkscape:connector-curvature="0"
     id="path11"
     d="m 109.499,208.617 c 0,0 -67.431,16.016 -23.879,21.832 18.389,2.462 55.047,1.905 89.193,-0.956 27.906,-2.354 55.927,-7.359 55.927,-7.359 0,0 -9.84,4.214 -16.959,9.075 -68.475,18.009 -200.756,9.631 -162.674,-8.79 32.206,-15.568 58.392,-13.802 58.392,-13.802"
     style="fill:none;stroke:#ff0000" /><path
     inkscape:connector-curvature="0"
     id="path13"
     d="m 230.462,276.231 c 69.608,-36.171 37.424,-70.931 14.96,-66.248 -5.506,1.146 -7.961,2.139 -7.961,2.139 0,0 2.044,-3.202 5.948,-4.588 44.441,-15.624 78.619,46.081 -14.346,70.52 0,0.001 1.077,-0.962 1.399,-1.823"
     style="fill:none;stroke:#ff0000" /><path
     inkscape:connector-curvature="0"
     id="path15-1"
     d="m 188.495,4.399 c 0,0 38.55,38.563 -36.563,97.862 -60.233,47.568 -13.735,74.69 -0.025,105.678 C 116.748,176.217 90.946,148.292 108.256,122.302 133.663,84.151 204.049,65.654 188.495,4.399"
     style="fill:none;stroke:#ff0000" /><path
     inkscape:connector-curvature="0"
     id="path17"
     d="m 116.339,374.246 c 66.815,4.277 169.417,-2.373 171.847,-33.988 0,0 -4.671,11.985 -55.219,21.503 -57.028,10.732 -127.364,9.479 -169.081,2.601 10e-4,-0.001 8.54,7.068 52.453,9.884"
     style="fill:none;stroke:#ff0000" /></g><g
   id="g3075"
   transform="translate(-182.33601,-38.183764)"
   style="stroke:#ff0000;fill:none"><g
     style="font-size:32.32302855999999700px;font-style:normal;font-weight:normal;line-height:125%;letter-spacing:0px;word-spacing:0px;fill:none;fill-opacity:1;stroke:#ff0000;font-family:Sans"
     id="text2994-7"><path
       d="m 441.30882,418.33614 11.95384,0 c 2.69567,3e-5 4.75058,0.20625 6.16473,0.61868 1.90022,0.55979 3.52794,1.5541 4.88318,2.98293 1.35518,1.42889 2.38632,3.17814 3.09341,5.24776 0.70704,2.06966 1.06057,4.62173 1.0606,7.6562 -3e-5,2.66624 -0.33147,4.96421 -0.99431,6.8939 -0.81021,2.35689 -1.96656,4.2645 -3.46905,5.72282 -1.13427,1.10479 -2.66625,1.96653 -4.59593,2.58521 -1.44361,0.45664 -3.37331,0.68497 -5.7891,0.68497 l -12.30737,0 z m 6.54036,5.47976 0,21.45504 4.88318,0 c 1.82657,1e-5 3.14495,-0.10311 3.95515,-0.30934 1.06058,-0.26515 1.94073,-0.71443 2.64045,-1.34785 0.69968,-0.6334 1.27048,-1.67559 1.71242,-3.12656 0.4419,-1.45094 0.66285,-3.42852 0.66288,-5.93272 -3e-5,-2.50418 -0.22098,-4.42651 -0.66288,-5.76701 -0.44194,-1.34046 -1.06062,-2.38633 -1.85605,-3.13761 -0.79546,-0.75123 -1.80451,-1.25943 -3.02712,-1.52461 -0.91331,-0.2062 -2.70307,-0.30931 -5.36929,-0.30934 z"
       style="font-size:45.25223923000000100px;font-variant:normal;font-weight:bold;font-stretch:normal;font-family:Arial;-inkscape-font-specification:Arial Bold;stroke:#ff0000;fill:none"
       id="path3164" /><path
       d="m 503.2434,450.72861 -7.11485,0 -2.82827,-7.35791 -12.94815,0 -2.67359,7.35791 -6.93809,0 12.61671,-32.39247 6.91599,0 z m -12.04222,-12.81558 -4.46336,-12.02012 -4.37497,12.02012 z"
       style="font-size:45.25223923000000100px;font-variant:normal;font-weight:bold;font-stretch:normal;font-family:Arial;-inkscape-font-specification:Arial Bold;stroke:#ff0000;fill:none"
       id="path3166" /><path
       d="m 506.75663,450.72861 0,-32.39247 13.7657,0 c 3.46166,3e-5 5.9769,0.29096 7.54572,0.87278 1.56878,0.58189 2.82456,1.61671 3.76734,3.10446 0.94273,1.48781 1.4141,3.18919 1.41413,5.10414 -3e-5,2.43056 -0.71446,4.43759 -2.14329,6.02111 -1.42889,1.58355 -3.56482,2.58154 -6.40779,2.99398 1.41411,0.82493 2.5815,1.73085 3.50219,2.71779 0.92063,0.98695 2.16168,2.73989 3.72314,5.2588 l 3.95515,6.31941 -7.82192,0 -4.7285,-7.04857 c -1.6793,-2.51891 -2.82828,-4.10613 -3.44695,-4.76165 -0.6187,-0.6555 -1.27421,-1.10478 -1.96653,-1.34784 -0.69235,-0.24304 -1.78977,-0.36457 -3.29227,-0.36458 l -1.32575,0 0,13.52264 z m 6.54037,-18.69307 4.83898,0 c 3.13759,2e-5 5.09675,-0.13255 5.87749,-0.39772 0.7807,-0.26513 1.39201,-0.72178 1.83395,-1.36994 0.4419,-0.64813 0.66285,-1.4583 0.66288,-2.43054 -3e-5,-1.09004 -0.29095,-1.97019 -0.87279,-2.64045 -0.58188,-0.67022 -1.4031,-1.09372 -2.46368,-1.27051 -0.53032,-0.0736 -2.12122,-0.11045 -4.7727,-0.11048 l -5.10413,0 z"
       style="font-size:45.25223923000000100px;font-variant:normal;font-weight:bold;font-stretch:normal;font-family:Arial;-inkscape-font-specification:Arial Bold;stroke:#ff0000;fill:none"
       id="path3168" /><path
       d="m 539.34797,450.72861 0,-32.39247 9.78845,0 5.87748,22.09582 5.8112,-22.09582 9.81055,0 0,32.39247 -6.07635,0 0,-25.49858 -6.42989,25.49858 -6.2973,0 -6.40779,-25.49858 0,25.49858 z"
       style="font-size:45.25223923000000100px;font-variant:normal;font-weight:bold;font-stretch:normal;font-family:Arial;-inkscape-font-specification:Arial Bold;stroke:#ff0000;fill:none"
       id="path3170" /><path
       d="m 575.51882,440.1889 6.36359,-0.61868 c 0.38299,2.13594 1.16003,3.70474 2.33111,4.70641 1.17107,1.00168 2.75092,1.50252 4.73956,1.50251 2.10645,1e-5 3.69366,-0.44559 4.76165,-1.33679 1.06794,-0.89119 1.60192,-1.93338 1.60194,-3.12656 -2e-5,-0.76598 -0.22466,-1.41781 -0.67392,-1.95548 -0.4493,-0.53766 -1.2337,-1.00535 -2.3532,-1.40309 -0.76601,-0.26513 -2.51158,-0.73651 -5.23671,-1.41413 -3.50588,-0.86909 -5.96588,-1.93705 -7.38001,-3.20389 -1.98862,-1.78238 -2.98294,-3.95513 -2.98293,-6.51827 -10e-6,-1.6498 0.46769,-3.19282 1.40308,-4.62907 0.93539,-1.4362 2.28323,-2.52994 4.04354,-3.28123 1.76029,-0.75123 3.88517,-1.12686 6.37464,-1.12689 4.06561,3e-5 7.12588,0.89123 9.18081,2.67359 2.05489,1.78243 3.1339,4.16141 3.23704,7.13695 l -6.54036,0.28725 c -0.2799,-1.66453 -0.88017,-2.86138 -1.80081,-3.59057 -0.92068,-0.72914 -2.30166,-1.09372 -4.14297,-1.09374 -1.90025,2e-5 -3.38803,0.39038 -4.46335,1.17107 -0.69235,0.50087 -1.03851,1.17111 -1.03851,2.01072 0,0.76602 0.32407,1.42152 0.97222,1.96653 0.8249,0.69236 2.82825,1.41416 6.01006,2.16539 3.18178,0.75128 5.53498,1.52831 7.05962,2.33111 1.52458,0.80283 2.71776,1.90026 3.57952,3.29228 0.86171,1.39205 1.29258,3.11184 1.29261,5.15937 -3e-5,1.85606 -0.5156,3.59426 -1.54671,5.21462 -1.03116,1.62036 -2.48949,2.82458 -4.37497,3.61266 -1.88553,0.78809 -4.23505,1.18213 -7.04857,1.18213 -4.0951,0 -7.24007,-0.94644 -9.43492,-2.83931 -2.19485,-1.89288 -3.50587,-4.65117 -3.93305,-8.27489 z"
       style="font-size:45.25223923000000100px;font-variant:normal;font-weight:bold;font-stretch:normal;font-family:Arial;-inkscape-font-specification:Arial Bold;stroke:#ff0000;fill:none"
       id="path3172" /><path
       d="m 614.69471,450.72861 0,-26.91271 -9.61168,0 0,-5.47976 25.74163,0 0,5.47976 -9.58959,0 0,26.91271 z"
       style="font-size:45.25223923000000100px;font-variant:normal;font-weight:bold;font-stretch:normal;font-family:Arial;-inkscape-font-specification:Arial Bold;stroke:#ff0000;fill:none"
       id="path3174" /><path
       d="m 664.27773,450.72861 -7.11485,0 -2.82827,-7.35791 -12.94815,0 -2.67359,7.35791 -6.93809,0 12.61671,-32.39247 6.916,0 z m -12.04222,-12.81558 -4.46336,-12.02012 -4.37497,12.02012 z"
       style="font-size:45.25223923000000100px;font-variant:normal;font-weight:bold;font-stretch:normal;font-family:Arial;-inkscape-font-specification:Arial Bold;stroke:#ff0000;fill:none"
       id="path3176" /><path
       d="m 667.74677,418.33614 11.95384,0 c 2.69568,3e-5 4.75058,0.20625 6.16474,0.61868 1.90021,0.55979 3.52794,1.5541 4.88317,2.98293 1.35519,1.42889 2.38632,3.17814 3.09342,5.24776 0.70703,2.06966 1.06057,4.62173 1.0606,7.6562 -3e-5,2.66624 -0.33147,4.96421 -0.99431,6.8939 -0.81021,2.35689 -1.96656,4.2645 -3.46905,5.72282 -1.13428,1.10479 -2.66625,1.96653 -4.59593,2.58521 -1.44361,0.45664 -3.37331,0.68497 -5.7891,0.68497 l -12.30738,0 z m 6.54037,5.47976 0,21.45504 4.88317,0 c 1.82657,1e-5 3.14496,-0.10311 3.95516,-0.30934 1.06057,-0.26515 1.94072,-0.71443 2.64045,-1.34785 0.69967,-0.6334 1.27048,-1.67559 1.71242,-3.12656 0.44189,-1.45094 0.66285,-3.42852 0.66288,-5.93272 -3e-5,-2.50418 -0.22099,-4.42651 -0.66288,-5.76701 -0.44194,-1.34046 -1.06062,-2.38633 -1.85605,-3.13761 -0.79547,-0.75123 -1.80451,-1.25943 -3.02712,-1.52461 -0.91332,-0.2062 -2.70308,-0.30931 -5.36929,-0.30934 z"
       style="font-size:45.25223923000000100px;font-variant:normal;font-weight:bold;font-stretch:normal;font-family:Arial;-inkscape-font-specification:Arial Bold;stroke:#ff0000;fill:none"
       id="path3178" /><path
       d="m 707.7623,450.72861 0,-26.91271 -9.61168,0 0,-5.47976 25.74163,0 0,5.47976 -9.58958,0 0,26.91271 z"
       style="font-size:45.25223923000000100px;font-variant:normal;font-weight:bold;font-stretch:normal;font-family:Arial;-inkscape-font-specification:Arial Bold;stroke:#ff0000;fill:none"
       id="path3180" /></g><g
     style="font-size:40px;font-style:normal;font-weight:normal;line-height:125%;letter-spacing:0px;word-spacing:0px;fill:none;fill-opacity:1;stroke:#ff0000;font-family:Sans"
     id="text3067"><path
       d="m 480.93384,299.60757 20.74219,0 0,65.25 c -7e-5,8.53128 -0.75007,15.09378 -2.25,19.6875 -2.01569,6.00002 -5.67194,10.81642 -10.96875,14.44922 -5.29693,3.63282 -12.2813,5.44922 -20.95313,5.44922 -10.1719,0 -18.00002,-2.84765 -23.48437,-8.54297 -5.48438,-5.6953 -8.25001,-14.05076 -8.29688,-25.0664 l 19.61719,-2.25 c 0.23435,5.90628 1.10154,10.07815 2.60156,12.51562 2.24997,3.70314 5.67185,5.55471 10.26563,5.55469 4.64058,2e-5 7.92183,-1.3242 9.84375,-3.97266 1.92182,-2.64841 2.88276,-8.1445 2.88281,-16.48828 z"
       style="font-size:144px;font-variant:normal;font-weight:bold;font-stretch:normal;font-family:Arial;-inkscape-font-specification:Arial Bold;stroke:#ff0000;fill:none"
       id="path3183" /><path
       d="m 523.75415,299.60757 20.8125,0 0,55.82813 c -3e-5,8.85941 0.25778,14.60159 0.77344,17.22656 0.89059,4.21878 3.01168,7.60549 6.36328,10.16016 3.35152,2.5547 7.93355,3.83205 13.74609,3.83203 5.90619,2e-5 10.35932,-1.20701 13.35938,-3.62109 2.99993,-2.41404 4.80462,-5.37889 5.41406,-8.89454 0.6093,-3.51559 0.91399,-9.35152 0.91406,-17.50781 l 0,-57.02344 20.8125,0 0,54.14063 c -9e-5,12.37504 -0.56259,21.11721 -1.6875,26.22656 -1.12509,5.10939 -3.1993,9.42189 -6.22265,12.9375 -3.02352,3.51563 -7.06649,6.31641 -12.12891,8.40235 -5.06257,2.08593 -11.67194,3.1289 -19.82812,3.1289 -9.8438,0 -17.30863,-1.13672 -22.39454,-3.41015 -5.08596,-2.27344 -9.10549,-5.22656 -12.05859,-8.85938 -2.95314,-3.6328 -4.89845,-7.44139 -5.83594,-11.42578 -1.35938,-5.90622 -2.03907,-14.62496 -2.03906,-26.15625 z"
       style="font-size:144px;font-variant:normal;font-weight:bold;font-stretch:normal;font-family:Arial;-inkscape-font-specification:Arial Bold;stroke:#ff0000;fill:none"
       id="path3185" /><path
       d="m 675.9104,364.78726 0,-17.36719 44.85938,0 0,41.0625 c -4.35948,4.21876 -10.67588,7.9336 -18.94922,11.14454 -8.27352,3.21093 -16.65241,4.8164 -25.13672,4.8164 -10.7813,0 -20.17973,-2.26172 -28.19531,-6.78515 -8.01565,-4.52343 -14.03908,-10.99218 -18.07032,-19.40625 -4.03126,-8.41403 -6.04688,-17.56637 -6.04687,-27.45704 -1e-5,-10.73431 2.24999,-20.27336 6.75,-28.61718 4.49998,-8.34366 11.08591,-14.7421 19.75781,-19.19532 6.60934,-3.42177 14.83589,-5.1327 24.67969,-5.13281 12.7968,1.1e-4 22.79289,2.6837 29.98828,8.05078 7.19522,5.36728 11.82412,12.78524 13.88672,22.25391 l -20.67188,3.86719 c -1.4532,-5.06243 -4.18367,-9.05852 -8.1914,-11.98828 -4.00788,-2.92961 -9.01179,-4.39445 -15.01172,-4.39454 -9.0938,9e-5 -16.32426,2.8829 -21.69141,8.64844 -5.36722,5.7657 -8.05081,14.32038 -8.05078,25.66406 -3e-5,12.23442 2.71872,21.41019 8.15625,27.52735 5.43746,6.1172 12.56245,9.1758 21.375,9.17578 4.35931,2e-5 8.7304,-0.85545 13.11328,-2.56641 4.38274,-1.71091 8.14445,-3.78513 11.28516,-6.22265 l 0,-13.07813 z"
       style="font-size:144px;font-variant:normal;font-weight:bold;font-stretch:normal;font-family:Arial;-inkscape-font-specification:Arial Bold;stroke:#ff0000;fill:none"
       id="path3187" /></g></g></svg>