<?xml version="1.0" encoding="UTF-8" standalone="no"?>
<svg
   xmlns:svg="http://www.w3.org/2000/svg"
   xmlns="http://www.w3.org/2000/svg"
   width="390"
   height="160"
   version="1.0">
  <path transform="translate(150,-300)"
    d="M 99.2372,430.71039 L 99.2372,379.84019 C 99.2372,366.86269 91.97,358.03859 73.8018,358.03859 C 63.4202,358.03859 54.5957,360.63393 46.8093,363.74829 L 49.40506,373.0918 C 55.11476,371.01549 62.38196,368.93897 70.16836,368.93897 C 80.0309,368.93897 84.70256,373.0918 84.70256,381.39727 L 84.70256,388.14544 L 79.51188,388.14544 C 54.59568,388.14544 43.17588,397.48895 43.17588,412.54214 C 43.17588,425.00024 50.96211,432.26744 64.97748,432.26744 C 73.80176,432.26744 80.55018,428.11461 86.77908,422.92393 L 87.81734,430.71036 L 99.23714,430.71036 L 99.2372,430.71039 z M 84.7026,414.09949 C 79.51192,418.77114 73.8018,421.3669 68.6109,421.3669 C 61.86314,421.3669 57.7105,417.21427 57.7105,409.9471 C 57.7105,402.67969 61.86313,397.489 78.4738,397.489 L 84.70253,397.489 L 84.70253,414.0995 L 84.7026,414.09949 z M 148.0311,430.71039 L 129.8627,430.71039 L 108.0613,359.59569 L 123.634,359.59569 L 137.1301,403.19869 L 140.24447,416.17579 C 146.99264,397.48899 152.18377,378.28249 154.26007,359.59569 L 169.83257,359.59569 C 165.67994,382.95459 158.41297,408.38939 148.03117,430.71039 L 148.0311,430.71039 z M 232.1225,430.71039 L 232.1225,379.84019 C 232.1225,366.86269 224.8553,358.03859 206.6873,358.03859 C 196.3055,358.03859 187.4812,360.63393 179.6948,363.74829 L 181.77132,373.0918 C 188.00026,371.01549 195.26742,368.93897 203.05392,368.93897 C 212.91646,368.93897 217.58812,373.0918 217.58812,381.39727 L 217.58812,388.14544 L 212.39744,388.14544 C 187.48124,388.14544 176.06144,397.48895 176.06144,412.54214 C 176.06144,425.00024 183.32864,432.26744 197.34384,432.26744 C 206.68735,432.26744 213.43554,428.11461 219.66464,422.92393 L 220.7029,430.71036 L 232.1225,430.71036 L 232.1225,430.71039 z M 217.5881,414.09949 C 212.39742,418.77114 206.6873,421.3669 201.4962,421.3669 C 194.74844,421.3669 190.5958,417.21427 190.5958,409.9471 C 190.5958,402.67969 194.74843,397.489 211.3591,397.489 L 217.58804,397.489 L 217.58804,414.0995 L 217.5881,414.09949 z M 27.0841,442.64909 C 22.93147,448.87803 16.7023,453.55009 8.9165,456.14519 L 2.16812,447.83973 C 7.3588,444.72536 12.54992,440.05392 14.62602,435.90113 C 16.70233,432.26753 17.22178,427.07643 17.22178,415.13783 L 17.22178,334.16083 L 32.79428,334.16083 L 32.79428,414.09963 C 32.79428,430.19113 31.23699,436.42003 27.08416,442.64923 L 27.0841,442.64909 z "
    style="fill:#f58219" 
  />
  <g
     transform="scale(0.5,0.5) translate(-150,-439)">
    <path
       d="M 228.27395,680.11448 C 228.27395,680.11448 216.33485,687.38168 236.57915,689.45799 C 260.97585,692.57236 273.95325,692.05375 300.94545,686.86265 C 300.94545,686.86265 308.21265,691.5343 318.07515,695.16811 C 257.34245,721.12231 180.51815,693.61041 228.27385,680.11451 L 228.27395,680.11448 z M 220.48755,646.37428 C 220.48755,646.37428 207.51065,656.23661 227.75475,658.31288 C 254.22825,660.90864 274.99155,661.42725 310.80815,654.16025 C 310.80815,654.16025 315.47995,659.35114 323.26605,661.94668 C 250.07545,683.74828 168.06005,664.02299 220.48805,646.37418 L 220.48755,646.37428 z M 363.75455,705.54968 C 363.75455,705.54968 372.57905,712.81709 353.89195,718.52658 C 319.11325,728.90838 208.02895,732.02268 176.88395,718.52658 C 165.98335,713.85514 186.74675,707.10678 193.49445,706.06868 C 200.24265,704.5116 203.87605,704.5116 203.87605,704.5116 C 191.93765,696.20614 124.45655,721.6411 169.61655,728.9083 C 293.67755,749.1526 395.93755,720.08402 363.75355,705.5496 L 363.75455,705.54968 z M 233.98355,611.07648 C 233.98355,611.07648 177.40365,624.57258 213.73965,629.24428 C 229.31215,631.32038 259.93795,630.80178 288.48775,628.72525 C 311.84625,626.64894 335.20535,622.49631 335.20535,622.49631 C 335.20535,622.49631 326.89985,626.1297 321.18975,629.76372 C 263.57185,644.81672 153.00675,638.06876 184.67075,622.49631 C 211.66305,609.51901 233.98325,611.07651 233.98325,611.07651 L 233.98355,611.07648 z M 335.20555,667.65638 C 393.34275,637.54948 366.35065,608.48098 347.66345,612.11478 C 342.99155,613.15283 340.91525,614.19109 340.91525,614.19109 C 340.91525,614.19109 342.47255,611.07652 346.10595,610.03846 C 382.96115,597.06116 412.02975,648.96936 334.16755,669.21366 C 334.16755,669.21366 334.68615,668.69463 335.20555,667.65637 L 335.20555,667.65638 z M 239.69385,749.67168 C 295.75515,753.30549 381.40385,747.59537 383.47985,721.12228 C 383.47985,721.12228 379.32735,731.50408 337.28175,739.28988 C 289.52595,748.11458 230.35075,747.07631 195.57175,741.36619 C 195.57175,741.36619 202.83875,747.59534 239.69375,749.67165 L 239.69385,749.67168 z "
       style="fill:#4e7896" />
    <a
       transform="translate(-81,63)">
      <path
         style="fill:#f58219"
         d="M 381.05061,376.92173 C 381.05061,376.92173 413.23381,409.62393 350.42451,458.93703 C 300.07331,498.90623 339.00471,521.74583 350.42451,547.69993 C 320.83671,521.22713 299.55431,497.86803 314.08851,476.06643 C 335.37131,443.88323 394.02751,428.31103 381.05061,376.92183 L 381.05061,376.92173 z M 364.44011,525.89873 C 379.49311,543.02863 360.28731,558.60133 360.28731,558.60133 C 360.28731,558.60133 398.69941,538.87603 381.05061,514.47893 C 364.95871,491.12043 352.50081,479.70063 419.98171,440.76913 C 419.98171,440.76913 313.56971,467.24263 364.44011,525.89883 L 364.44011,525.89873 z " />
    </a>
  </g>
</svg>
