<?xml version="1.0" encoding="utf-8"?>
<!-- Generator: Adobe Illustrator 13.0.2, SVG Export Plug-In . SVG Version: 6.00 Build 14948)  -->
<!DOCTYPE svg PUBLIC "-//W3C//DTD SVG 1.1//EN" "http://www.w3.org/Graphics/SVG/1.1/DTD/svg11.dtd" [
	<!ENTITY ns_extend "http://ns.adobe.com/Extensibility/1.0/">
	<!ENTITY ns_ai "http://ns.adobe.com/AdobeIllustrator/10.0/">
	<!ENTITY ns_graphs "http://ns.adobe.com/Graphs/1.0/">
	<!ENTITY ns_vars "http://ns.adobe.com/Variables/1.0/">
	<!ENTITY ns_imrep "http://ns.adobe.com/ImageReplacement/1.0/">
	<!ENTITY ns_sfw "http://ns.adobe.com/SaveForWeb/1.0/">
	<!ENTITY ns_custom "http://ns.adobe.com/GenericCustomNamespace/1.0/">
	<!ENTITY ns_adobe_xpath "http://ns.adobe.com/XPath/1.0/">
]>
<svg version="1.1" id="queen_ant_xA0_Image_1_" xmlns:x="&ns_extend;" xmlns:i="&ns_ai;" xmlns:graph="&ns_graphs;"
	 xmlns="http://www.w3.org/2000/svg" xmlns:xlink="http://www.w3.org/1999/xlink" x="0px" y="0px" width="468.271px"
	 height="324.995px" viewBox="0 0 468.271 324.995" enable-background="new 0 0 468.271 324.995" xml:space="preserve">
<metadata>
	<sfw  xmlns="&ns_sfw;">
		<slices></slices>
		<sliceSourceBounds  x="206.148" y="138.233" width="468.271" height="324.995" bottomLeftOrigin="true"></sliceSourceBounds>
	</sfw>
</metadata>
<g>
	<path fill-rule="evenodd" clip-rule="evenodd" d="M220.989,74.55c-5.102-1.476-2.807-12.325,1.055-11.6
		C225.487,64.33,225.027,74.321,220.989,74.55z M221.516,72.968c1.665-1.623,2.824-8.297-0.527-8.963
		C219.48,66.457,217.999,71.661,221.516,72.968z"/>
	<path fill-rule="evenodd" clip-rule="evenodd" d="M249.988,75.077c-6.229,1.729-4.965-17.138,1.582-8.963
		C251.37,70.469,252.204,73.548,249.988,75.077z M249.46,74.023c2.135-2.025,0.794-7.161-0.527-8.963c-0.526,0-1.054,0-1.581,0
		C245.768,67.701,246.387,72.173,249.46,74.023z"/>
	<path fill-rule="evenodd" clip-rule="evenodd" d="M236.28,68.223c-0.216,1.271,0.963,1.146,0.527,2.636c-1.055,0-2.109,0-3.164,0
		C233.523,68.981,234.402,68.103,236.28,68.223z"/>
	<path fill-rule="evenodd" clip-rule="evenodd" d="M265.279,131.494c1.312,0.079,0.153,1.785,0,2.109
		C263.967,133.523,265.125,131.817,265.279,131.494z"/>
	<path fill-rule="evenodd" clip-rule="evenodd" d="M232.061,76.659c-1.3,0.069-2.54,0.08-3.163-0.527
		c0.069-1.688,1.195-2.32,3.163-2.109C232.43,75.646,232.43,75.036,232.061,76.659z M229.953,75.604
		c1.319,0.066,1.65,1.006,2.108-0.527C231.273,75.167,230.116,74.889,229.953,75.604z"/>
	<path fill-rule="evenodd" clip-rule="evenodd" d="M20.633,126.221c0.527,0,1.055,0,1.582,0c3.83,5.178,9.136,8.778,14.236,13.182
		c1.128,0.974,1.916,2.703,3.164,3.69c2.139,1.693,5.434,3.215,8.436,5.273c5.482,3.758,10.694,5.866,17.926,8.963
		c3.363,1.439,6.46,3.774,8.963,4.218c14.46,2.56,31.028-2.084,43.235-3.163c2.465-0.218,4.887,0.116,7.381,0
		c7.145-0.335,13.653-1.764,20.563-3.164c20.435-4.14,41.403-7.895,53.78-17.399c-18.959,5.822-40.001,14.13-64.325,16.345
		c2.561-2.644,7.731-2.357,12.126-3.164c12.63-2.318,25.17-4.899,35.326-9.491c0-1.582,0-3.164,0-4.745
		c-12.444,2.939-27.139,2.339-40.071,3.69c-1.052-1.101-4.818-12.53-7.381-8.963c-0.259,0.361-0.183,1.752-0.527,2.109
		c-0.35,0.362-1.725,0.229-2.109,0.527c-0.347,0.268-0.704,1.246-1.055,1.582c-4.594,4.396-12.778,10.437-15.817,14.236
		c-6.255,1.418-11.06,6.284-16.345,9.49c-0.784-2.348,2.832-4.036,4.746-5.272c2.396-1.548,5.247-2.501,6.854-4.218
		c-12.327-4.284-39.823,0.257-51.144,1.055c0.164-1.567,2.246-1.886,3.164-2.109c3.89-0.944,9.263-1.211,13.708-1.582
		c12.57-1.047,26.282-1.995,36.381,1.055c8.372-5.161,15.488-11.577,22.145-18.454c-3.767-2.09-8.006-2.166-12.127-3.164
		c-11.385-2.755-23.333-7.356-32.689-13.181c-4.748-0.184-8.498,1.494-13.709,3.164c-8.437,2.703-18.041,6.527-28.472,7.909
		c-7.914,1.048-15.955,1.201-24.781,0.527c1.59-2.72,5.573-1.552,8.436-1.582c8.67-0.09,19.301-0.751,25.308-3.164
		c4.126,0.292,10.164-2.018,15.291-3.69c3.911-1.276,8.44-1.859,10.545-4.746c-1.341-2.018-5.822-2.645-8.963-3.163
		c-2.285-0.378-4.777-0.064-6.854-0.527c-2.185-0.488-4.179-2.093-6.327-2.636c-3.85-0.974-7.48-1.06-10.545-2.109
		c-6.319-2.163-13.521-4.331-21.09-6.854c-3.804-1.268-8.41-3.579-13.181-5.272c1.624-2.103,5.407,0.28,6.854,1.582
		c10.361,2.293,18.236,7.073,29.526,8.436c6.88,3.591,17.179,5.107,26.363,6.327c3.121,0.415,7.694,1.625,11.6-0.527
		c2.11-3.514,5.114-6.133,6.854-10.018c-5.699-2.737-11.508-5.365-16.345-8.963c-12.123-0.771-23.649-0.503-34.799-1.055
		c-4.663-0.23-9.101-1.634-13.708-1.582c-7.589,0.086-14.519,1.865-20.563,5.272c-4.12,0.098-6.419,2.017-8.436,4.218
		c-0.349,5.218-0.365,9.025,2.109,12.654c0.363,0.532,1.226,1.049,1.582,1.582c0.499,0.745,0.617,1.487,1.055,2.109
		C12.221,116.735,18.279,120.506,20.633,126.221c-3.786,0.559-7.031-4.411-10.018-7.909c-1.349-1.58-2.947-3.518-4.218-5.272
		c-0.598-0.826-0.885-2.205-1.582-3.164c-0.662-0.91-2.154-1.258-2.636-2.109c-2.319-4.094-2.684-10.041-1.582-16.872
		c9.509-0.884,19.444-6.804,30.054-7.381c3.173-0.173,7.035,0.368,10.545,0.527c8.453,0.384,17.588,1.183,26.363,1.582
		c10.913,0.496,22.273,0.116,31.635,1.582c11.403,1.785,26.66,3.734,37.962,7.382c9.915,3.2,18.544,7.346,27.417,10.018
		c-2.844-12.271-17.45-17.349-19.509-32.163c-5.488-5.584-12.606-9.539-16.872-16.345c-1.406,0-2.812,0-4.218,0
		c-3.097-5.339-10.927-5.945-15.291-10.018c-1.639-0.023-3.675,2.266-3.69-0.527c0.309-1.625,3.259-0.607,4.218-1.582
		c1.005-1.631,0.839-4.433,1.582-6.327c1.771-0.542,0.82,1.64,1.054,2.636c1.82,1.167,3.385,2.59,4.218,4.745
		c12.217,6.061,23.4,13.156,31.635,23.199c1.801-2.179-1.755-3.497-1.054-6.327c6.039,12.24,14.916,21.641,20.563,34.271
		c5.865,2.951,4.769,9.999,10.018,13.708c0.074,0.052,1.17,0.568,1.055,0.527c8.929,3.157,21.589,4.944,30.054,10.018
		c-0.105-4.305-0.557-10.508-1.582-14.763c-5.837,1.517-11.639,0.599-14.764-3.691c-0.748-1.027-0.815-2.825-1.582-4.218
		c-1.902-3.459-4.896-8.344-6.327-13.708c-0.643-2.409-0.239-5.231-1.055-7.381c-0.9-2.372-3.509-4.054-5.272-6.327
		c-4.821-6.216-9.593-15.02-12.127-22.672c-7.845-5.512-17.031-9.683-20.563-19.508c-3.785-1.487-4.685-5.86-9.49-6.327
		c-1.31-3.083-4.422-4.365-5.8-7.381c-3.642,0.478-5.206-1.122-5.8-3.691c-1.225-1.737-2.228,2.637-3.691,0.527
		c-1.043-1.989,1.167-4.632,3.691-4.745c0.869-1.24,0.166-4.052,2.109-4.218c2.199,0.016,2.374,2.052,1.582,3.691
		c0.908,1.903,3.328,2.295,3.163,5.272c6.075,1.834,7.94,7.878,14.236,9.491c0.567,1.366,1.907,1.96,2.109,3.69
		c8.437,4.744,14.627,11.735,20.562,18.981c2.899-1.57-0.64-3.736-0.527-5.8c3.102,0.765,3.114,4.619,3.69,7.909
		c3.868,3.938,7.05,7.979,10.018,12.654c3.067,4.83,4.833,10.189,7.381,15.291c2.174,4.351,5.293,8.327,7.382,12.654
		c2.183,4.523,4.281,8.726,6.327,13.181c3.823-1.976,4.808-6.792,10.545-6.854c3.869-4.391,11.909-4.611,13.182-11.6
		c-13.057,4.204-12.923-12.417-10.019-21.09c-6.244-3.597-17.628-2.056-21.617-7.909c-0.597-12.163-5.733-24.068-12.127-32.163
		c-4.67-4.117-11.09-6.485-16.345-10.018c3.032-4.021,4.898-2.44,9.491,0c1.982,1.053,4.447,1.631,5.8,2.636
		c9.263,6.878,16.569,22.279,16.872,35.853c7.311,1.126,13.162,3.711,18.454,6.854c1.282-3.618,4.266-5.056,6.854-7.909
		c1.281-1.412,1.587-3.352,2.637-4.218c3.195-2.639,8.066-2.207,10.545-5.272c9.975,1.8,14.596,8.954,17.399,17.926
		c6.774-2.364,11.632-6.646,20.562-6.854c0.839-21.833,9.624-35.72,24.781-43.235c2.47,0.341,6.313-0.689,7.908,0.527
		c0.384,2.446-3.187,3.25-5.272,4.218c-3.973,1.843-8.486,3.708-11.6,6.854c-3.333,5.904-8.33,10.729-10.018,18.981
		c-1.119,5.475-0.214,12.82-3.164,16.872c-2.635,1.192-4.796,2.738-8.436,1.582c2.289-1.402,6.821-0.561,7.382-3.691
		c-4.387-2.151-9.104,0.876-13.182,2.636c-4.205,1.814-9.019,3.361-11.6,6.327c5.414-1.088,8.445-4.561,14.763-4.745
		c-2.553,2.543-7.663,2.53-10.545,4.745c3.207,5.845,1.062,16.26-2.108,20.563c-2.063,0.573-3.867,1.406-6.854,1.054
		c-0.834,1.905,2.53,4.136,2.636,6.854c3.643,1.455,6.757,3.437,8.964,6.327c1.92-0.163,3.431,0.083,4.745,0.527
		c1.591,1.222,2.337,3.287,3.69,4.746c6.031-2.075,7.349-10.725,10.019-16.872c3.498-8.055,7.302-15.009,11.6-22.672
		c1.383-2.466,3.414-4.807,5.272-7.382c3.579-4.96,9.006-9.997,14.763-13.708c-0.321-4.148,0.884-6.651,1.055-8.963
		c2.334,1.215-0.361,4.813,0.527,7.909c6.523-6.13,10.808-14.5,20.562-17.399c0.585-0.998,0.673-2.491,1.055-3.691
		c1.658,0.263,2.062-1.149,3.163,0c0.264-3.076,3.716-2.963,4.219-5.8c1.005-0.225,0.954-1.506,2.636-1.055
		c1.845-3.103,4.066-5.748,6.854-8.436c0.894-0.861,1.376-2.334,3.163-1.582c0.829,2.715-4.097,4.252-0.526,7.381
		c0.605,1.578,2.983-2.207,4.218,0c-1.06,4.394-6.357,2.424-9.491,3.691c-3.896,1.575-4.803,6.043-8.963,6.854
		c-0.421,0.985-0.881,1.931-1.055,3.164c-1.242-0.012-1.552,0.908-3.163,0.527c-0.515,1.419-1.163,2.704-1.582,4.218
		c-5.413,2.913-8.384,9.085-13.182,13.181c-1.508,1.288-3.951,2.02-5.272,3.691c-2.119,2.68-3.109,6.456-5.272,9.49
		c-4.728,6.635-10.259,12.156-16.345,17.927c-0.111,6.858-2.744,10.778-5.8,17.927c-3.323,7.775-5.678,17.481-14.235,17.927
		c-3.238,0.168-5.604-2.483-9.491-1.055c-0.157,3.928,0.273,11.471-1.581,15.29c9.701-1.377,17.772-4.614,27.944-6.854
		c5.078-1.119,9.493-3.781,14.235-4.218c-0.353,1.667-2.58,1.603-3.69,2.109c-10.862,4.954-27.958,7.51-40.071,11.6
		c-3.009,3.143-5.282,7.021-8.437,10.018c-9.909,1.459-24.699,5.881-31.635-1.055c-2.832-2.832-2.093-6.493-5.8-8.963
		c-3.113-0.05-4.615-1.712-6.327-3.164c-8.054-2.513-17.771-4.825-26.89-7.909c-9.856-3.333-19.009-7.516-29.526-11.072
		c-11.531-3.898-22.234-8.261-36.38-9.49c0.588,4.034,5.442,8.226,7.381,12.654c1.364,0.859,2.505,1.573,3.691,2.636
		c0.928,0.833,1.536,2.355,2.636,3.164c6.409,4.708,17.057,6.543,27.417,7.382c9.243,0.748,19.275,0.298,28.472,1.582
		c10.425,1.455,18.881,5.098,26.89,6.854c-2.761,3.283-9.971,3.865-15.29,5.8c-3.524,1.282-6.562,2.433-9.49,4.218
		c0.013,2.228-1.021,3.405,0,5.272c5.53-1.214,10.475-2.856,15.29-4.745c4.701-1.844,8.596-4.967,13.182-6.854
		c0.798,2.971-8.785,4.994-8.964,7.382c-0.193,2.592,6.843,5.75,10.019,2.636c-0.624-2.569-1.844-4.812-1.055-7.382
		c1.924,1.467,1.109,4.27,2.636,6.854c0.321,0.544,2.101,2.18,3.691,3.691c4.513,4.287,7.444,6.341,16.345,5.8
		c6.27-0.381,10.127-1.054,13.181-4.218c0.692-0.717,2.24-1.504,2.637-2.109c1.415-2.157,0.88-5.956,3.69-7.381
		c-0.07,2.39-1.105,3.815-1.581,5.799c2.24,3.708,8.972,1.869,11.072-0.527c-1.361-5.494-9.519-4.19-11.072-9.491
		c4.248,1.375,7.859,3.388,11.072,5.8c7.362,1.425,15.379,2.196,21.617,4.745c2.725-1.141,4.509-3.224,5.272-6.327
		c-8.034-4.89-24.93-3.414-34.271-5.273c5.452-2.528,11.776,0.096,17.927,0.527c4.074,0.286,7.038,0.285,10.545,1.055
		c2.749,0.603,5.032,1.771,7.382,2.109c3.695,0.532,7.778-0.273,11.6,0c9.191,0.658,18.168,2.247,26.89,3.691
		c2.991-2.281,3.944-6.601,6.327-9.491c-2.261-3.751-0.932-8.553,0.527-12.654c-24.695,5.359-56.525,8.152-82.779,13.709
		c4.884-3.31,11.506-3.744,17.927-4.746c15.618-2.436,34.31-4.414,52.198-7.909c15.848-3.096,28.639-8.843,36.38-20.036
		c-21.404,1.465-42.034,7.735-60.106,14.236c6.148-5.138,7.857-15.445,16.345-19.508c3.454-8.673,8.499-15.755,14.236-22.145
		c0.253-2.734-0.568-6.543,0.527-8.436c0.946,2.025,0.72,5.017,0.526,6.854c3.986-2.19,7.922-11.729,13.709-12.126
		c0.778-1.683,1.039-3.882,3.69-3.691c1.976-6.988,9.722-8.205,11.6-15.291c1.573,0.36,1.768,2.099,1.582,4.218
		c0.656,1.453,4.887-0.668,4.218,2.109c-3.172,0.342-5.373,1.657-7.908,2.636c-2.707,5.203-9.666,6.152-10.545,13.182
		c-4.152,3.581-7.661,7.805-12.654,10.545c-2.444,11.089-8.566,18.5-15.817,24.781c0.31,4.704-2.625,6.163-3.691,9.491
		c9.315-0.996,19.106-5.584,30.054-7.382c11.425-1.876,24.148-2.583,36.907-3.164c18.585-0.844,35.814-2.272,52.198-2.636
		c5.375-0.119,10.276,2.579,15.291,2.109c4.372,3.712,12.235,3.933,15.29,8.963c-0.98,3.079,0.469,4.063,0.527,6.327
		c-2.829,10.176-11.229,14.783-15.29,23.727c-4.852,2.354-7.546,6.866-12.654,8.963c-1.988,1.351-3.489,3.19-4.746,5.272
		c-10.591,5.226-16.441,15.193-28.471,18.981c3.832,2.67,7.632,5.373,10.018,9.49c-1.076,5.053-5.681,8.052-9.491,11.072
		c-8.364,6.631-17.548,12.82-28.998,17.399c-12.74,2.38-32.427,1.741-45.871-1.582c-4.166-1.029-8.753-2.796-14.236-4.218
		c-13.988-3.627-28.595-5.682-40.071-12.127c-0.73-0.41-1.312-1.625-2.108-2.109c-1.062-0.644-2.463-0.531-3.164-1.054
		c-3.144-2.348-4.921-5.659-8.436-7.382c-0.408,1.653,2.847,4.171,3.163,6.854c3.211,2.237,6.438,4.459,7.382,8.963
		c11.453,5.771,17.683,16.765,24.78,26.89c-0.405,1.987,0.644,2.521,0.527,4.219c6.898,8.619,6.462,21.105,5.8,35.325
		c-0.144,3.09-1,7.72-0.527,10.546c0.733,4.377,6.759,10.423,8.437,14.763c0.691,1.788,0.289,3.431,1.055,5.272
		c5.758,7.072,12.709,12.95,16.345,22.145c2.486,3.489,7.355,4.596,9.49,8.437c-1.288,1.413-4.551-0.32-5.272,0.527
		c-3.928,0.289-2.461,5.975-6.327,6.326c1.025-4.467-0.461-6.095-0.527-10.545c-4.153-1.646-3.265-8.334-7.908-9.49
		c-0.08-3.787-1.643-6.091-4.745-6.854c0.069-1.3,0.079-2.54-0.527-3.163c-7.414-6.471-11.172-16.598-14.764-26.89
		c-1.771-0.542-0.82,1.64-1.055,2.636c-2.488-0.995-0.739-3.307-1.054-5.272c-0.39-2.435-1.8-5.182-2.109-7.909
		c-0.538-4.736,0.135-10.468,0-15.817c-0.149-5.924-1.495-10.243,0.527-15.817c-4.563-3.523-9.831-5.145-14.236-9.49
		c-5.315-5.245-9.371-11.118-12.653-18.981c-2.947-3.028-6.849-5.103-7.909-10.018c-7.343-2.5-10.447-9.237-14.763-14.764
		c-2.437,1.958-3.634,5.155-6.854,6.327c0.617,2.194,3.434,2.19,3.69,4.745c-2.435,1.432-5.712,2.021-6.327,5.272
		c5.274,2.29,10.718,0.404,15.817,2.637c2.6,1.138,7.5,5.109,10.019,8.437c0.407,0.538,0.466,2.223,1.055,3.163
		c1.034,1.653,3.839,5.262,4.745,7.909c0.49,1.433,1.236,5.155,1.581,6.854c2.322,11.436,3.028,26.629,1.582,36.908
		c-1.273,9.056-5.075,16.802-8.436,24.254c-1.761,3.902-2.939,7.793-5.272,11.072c-2.279,3.201-5.483,5.391-7.382,8.436
		c-3.316-0.163-5.315,3.018-8.437,4.218c-2.203,0.848-4.748,0.63-6.854,1.582c-1.848,0.835-2.863,2.571-4.746,3.164
		c-3.484-0.58-5.492-4.049-8.963-5.273c-1.581-0.557-3.739-0.095-5.272-0.526c-2.979-0.84-4.762-3.453-7.909-3.164
		c-3.423-3.152-7.456-10.424-10.545-16.345c-14.651-28.082-15.979-95.457,27.944-93.851c-0.055-2.933-2.309-3.667-3.69-5.273
		c-0.094-1.851,1.781-1.733,2.109-3.163c-2.805-1.766-6.357-2.782-6.327-7.382c-4.846,4.646-7.144,11.838-14.764,13.709
		c-2.899,2.9-4.562,7.037-8.436,8.963c-4.752,11.418-13.202,19.137-20.563,27.944c-0.674,0.732-2.49,0.323-3.164,1.055
		c-1.896,9.86-2.377,20.416-4.218,30.054c-0.316,1.652-1.452,3.569-1.582,5.272c-0.448,5.889,3.258,10.387,2.109,15.817
		c-2.142-1.943-2.271-6.751-3.691-10.018c-4.967,10.147-8.867,21.362-16.872,28.472c0,1.406,0,2.812,0,4.218
		c-0.193,1.564-0.914,2.602-2.109,3.164c1.938,3.956-2.238,5.525-0.527,9.49c-2.569,1.824-2.338,6.449-3.691,9.49
		c0.294,2.176,2.399,5.388-0.527,6.327c-1.592-1.396-1.991-3.985-4.746-4.218c-2.581-0.472-1.423,2.794-4.218,2.109
		c-0.877-3.786,3.308-6.415,4.745-9.491c1.122-2.398,0.261-5.478,3.164-6.327c0.255-1.66-1.618-1.193-1.054-3.163
		c0.999-1.462,1.338-3.583,3.163-4.218c-1.641-3.92,1.216-6.973,2.636-9.491c-0.022-1.735-0.89-2.624-0.527-4.745
		c4.603-8.228,10.392-15.268,14.763-23.727c-1.234-16.396,3.435-31.328,9.491-42.18c0.188-4.342,2.348-8.532,4.218-12.127
		c2.708-5.204,5.354-7.781,9.49-11.6c2.576-2.377,4.128-4.696,7.909-5.8c-0.459-2.568,0.721-3.497,1.055-5.272
		c2.67-0.669,3.388-3.291,6.854-3.164c-0.446-4.138,2.008-5.374,3.164-7.908c-4.672,2.471-9.729,6.893-15.291,9.49
		c-1.086,0.508-2.398,0.468-3.691,1.055c-2.003,0.911-3.74,2.95-5.8,3.69c-2.711,0.975-7.008,1.386-10.545,2.109
		c-8.728,1.785-18.161,4.562-27.944,5.8c-2.076,0.263-3.872,1.356-5.8,1.582c-3.613,0.422-7.743,0.363-11.6,0.527
		c-9.463,0.4-16.671,0.573-27.417-0.527c-6.836-0.7-10.907-3.175-17.399-6.327c-3.219-1.563-6.685-2.531-8.963-4.218
		c-1.239-0.918-2.16-2.882-3.691-4.219c-3.375-2.946-13.212-10.389-13.181-14.235c0.044-5.454,7.066-8.191,13.181-8.964
		c-0.881-2.815-4.343-2.316-6.327-3.163c-4.016-1.714-7.702-4.397-11.599-6.854c-1.87-1.179-4.241-1.958-5.8-3.164
		c-4.925-3.805-8.862-9.082-13.709-13.181c-1.939-1.641-4.696-2.621-6.327-4.745C19.194,126.892,20.626,127.269,20.633,126.221z
		 M199.899,155.747c0.61,1.85,1.498,3.423,2.109,5.272c3.262-1.817,4.78-5.437,7.381-7.909c3.241-3.08,8.12-3.958,10.545-7.909
		c-0.797-2.19-2.644-3.332-4.218-4.746c-4.177,2.671-10.501,1.021-12.127-3.164c-5.701,3.965-11.878,7.454-18.454,10.545
		c8.146-0.466,14.779-2.446,21.618-4.218c-3.326-0.188-7.252,0.222-8.964-1.582c6.874,0.167,13.924,1.119,19.509,1.054
		c-14.336,1.896-27.22,7.846-42.708,6.854c-7.243,3.056-17.136,4.45-25.835,6.327c-2.855,0.616-6.875,1.468-8.963,3.163
		c1.517,3.186,5.031,2.842,8.436,3.691c4.46,1.112,9.823,4.466,12.654,4.218c3.357-0.294,7.791-4.943,12.127-6.854
		c0.437-0.192,1.898-0.243,2.636-0.527c5.412-2.084,10.688-4.117,15.818-5.272c2.497-0.562,5.424-0.351,7.381-1.054
		c1.289-0.463,2.485-1.917,3.691-2.636c4.705-2.806,9.963-4.181,14.763-5.8C211.972,149.19,203.484,150.018,199.899,155.747z
		 M343.312,10.225c2.813-0.698,4.304-0.363,5.8-1.582c0.138-1.543-1.192-1.62-1.055-3.164
		C345.26,5.846,344.058,7.808,343.312,10.225z M302.186,8.644c0.83-0.783,0.588-2.356-1.055-2.109
		C300.984,7.736,301.258,8.517,302.186,8.644z M295.332,9.698c1.164,0.9,4.293,0.388,4.218-1.582
		C298.607,7.437,295.68,8.15,295.332,9.698z M124.502,8.644c0.272,2.849,3.619,4.986,5.8,4.218c-0.288-2.172-1.651-3.27-2.636-4.745
		C126.366,8.047,125.125,8.036,124.502,8.644z M168.791,10.225c0.783,0.831,2.356,0.587,2.109-1.054
		C169.918,9.243,169.138,9.518,168.791,10.225z M290.586,12.861c1.552,1.167,4.457,0.164,4.218-2.109
		C293.262,9.595,291.441,11.682,290.586,12.861z M175.118,12.861c0.368-1.95-0.834-2.329-2.636-2.109
		C172.581,12.235,173.399,12.999,175.118,12.861z M340.148,13.916c0.357-1.225,1.753-1.411,2.109-2.636
		C340.391,10.685,339.051,13.291,340.148,13.916z M179.863,14.971c-0.017-1.917-1.55-2.316-3.691-2.109
		C176.251,14.679,178.537,16.033,179.863,14.971z M286.896,16.552c1.63,1.366,2.829-1.075,3.69-2.109
		c-0.752-0.126-0.89-0.868-1.582-1.055C288.676,14.818,286.802,14.701,286.896,16.552z M131.356,14.971
		c1.267,0.491,1.396,2.119,3.691,1.582C135.123,14.75,132.162,12.678,131.356,14.971z M336.458,16.552c0.352,0,0.703,0,1.055,0
		c0.028-0.674,0.676-0.73,0.527-1.582c-0.352,0-0.703,0-1.055,0C336.956,15.645,336.309,15.701,336.458,16.552z M184.082,18.134
		c-1.531-0.402-1.368-2.499-3.691-2.109C180.802,17.226,182.854,19.496,184.082,18.134z M135.574,18.134
		c0.289,1.889,2.573,3.766,4.218,2.637C139.398,18.986,137.48,16.744,135.574,18.134z M284.259,21.297
		c2.456,0.041,3.733-2.587,2.109-3.69C284.611,17.745,282.946,19.72,284.259,21.297z M331.712,20.243
		c1.719,0.137,2.537-0.626,2.636-2.109C333.133,16.981,331.407,18.29,331.712,20.243z M188.299,22.352
		c-1.604-0.505-1.068-3.15-3.69-2.636C183.614,20.999,186.772,25.064,188.299,22.352z M146.119,25.516
		c-0.915-2.249-2.361-3.966-5.272-4.218C141.168,23.934,143.867,26.513,146.119,25.516z M281.096,26.043
		c2.311,0.277,3.674-2.268,2.636-3.691C281.39,22.12,280.862,23.7,281.096,26.043z M328.022,22.352
		c-3.307,2.466-6.591,5.009-9.491,7.909c-2.787,2.788-6.193,5.767-7.382,10.018c3.385,0.804,5.27-3.16,7.382-5.272
		c2.455-2.455,4.672-5.34,6.854-7.382c1.962-1.835,5.323-2.234,4.745-5.272C329.427,22.352,328.724,22.352,328.022,22.352z
		 M187.245,24.988c1.308,0.625,0.635,3.231,3.163,2.636c1.189-1.181-0.034-2.642-0.527-3.691
		C188.573,23.856,187.323,23.835,187.245,24.988z M152.974,37.115c3.691,3.662,9.408,7.35,12.654,7.909
		c1.205-1.483-0.878-2.713-1.582-3.691c-4.169-5.789-10.085-9.938-15.291-14.236c-0.527,0-1.055,0-1.582,0
		C147.541,31.664,150.333,34.495,152.974,37.115z M278.987,30.788c2.634,1.004,2.799-3.485,1.055-3.691
		C279.836,28.54,277.607,29.346,278.987,30.788z M193.044,32.897c0.847-1.5-0.256-4.798-3.163-4.218
		C190.188,30.833,190.366,33.115,193.044,32.897z M278.987,35.533c0.227-1.004,1.136-1.324,1.055-2.636
		c-0.753-0.126-0.89-0.868-1.582-1.054C277.741,32.554,277.455,35.523,278.987,35.533z M191.463,35.006
		c0.969,0.613,0.365,2.798,2.636,2.109c1.032-0.985,0.163-1.931,0-3.164C192.79,33.873,191.911,34.224,191.463,35.006z
		 M276.877,39.224c1.769,0.362,1.928-0.884,2.109-2.109c-0.713-0.166-1.007-0.75-2.109-0.527
		C276.509,38.211,276.509,37.601,276.877,39.224z M195.154,41.86c0.796-0.951,0.301-3.808-1.582-3.691
		C192.544,39.353,193.289,41.959,195.154,41.86z M237.333,49.769c-2.526,1.691-9.455-1.02-11.072,1.582
		c-1.257,3.201,4.295,4.133,4.746,7.381c2.14-0.207,3.673,0.193,3.69,2.109c-2.085,0.318-3.058-2.061-4.745-0.527
		c-0.536,4.334-0.186,8.307-3.691,10.545c-0.989-1.644,1.938-3.117,2.109-5.272c-2.719-2.905-5.662-5.586-11.072-5.8
		c-1.961,5.28-2.936,16.33,1.582,19.508c5.526,0.158,10.839-1.166,14.235-1.582c8.627-1.057,12.495,2.62,18.981,1.582
		c2.611-4.013,4.457-12.805,2.108-18.454c-4.404,0.516-7.166,2.675-10.545,4.218c-0.221,2.415,0.68,5.952-1.054,6.854
		c1.804-4.309-2.279-4.815-1.582-10.545c-0.764-1.697-3.675-1.246-5.272-2.109c5.379-0.752,9.372-3.959,8.436-9.491
		c0.67-1.791,2.924-1.997,3.164-4.218c-3.468-1.806-5.642-4.903-10.019-5.8C237.491,42.62,238.283,46.364,237.333,49.769z
		 M359.657,43.442c2.123-0.338,3.999-0.922,3.69-3.691C360.888,39.752,360.511,41.836,359.657,43.442z M307.986,40.279
		c-6.006,5.842-15.028,13.241-18.454,21.09c-1.089,2.495-2.572,5.061,0.527,6.854c8.755-7.238,16.212-15.775,21.09-26.89
		C310.211,40.865,309.809,39.861,307.986,40.279z M277.932,43.442c-0.039-0.918,0.118-1.64,0.527-2.109
		c-1.271,0.216-1.146-0.963-2.636-0.527C275.428,42.783,276.417,43.375,277.932,43.442z M227.316,43.442
		c-0.317,0.22-2.668,3.531-2.636,3.69c0.709,3.583,6.299,1.001,10.545,2.109c1.238-2.846-0.354-4.497,1.055-7.382
		C234.424,41.097,229.463,41.949,227.316,43.442z M110.266,46.079c1.258,0.508,3.377,1.74,4.745,0.527
		c0.029-2.49-1.925-2.996-3.164-4.218C110.803,43.101,109.797,43.852,110.266,46.079z M195.154,48.715
		c2.877-0.002,1.319-5.667-0.527-5.8C194.368,45.283,194.894,46.866,195.154,48.715z M277.405,48.715
		c-0.115-1.698,0.933-2.231,0.527-4.218c-0.726,0.023-1.157-0.248-1.581-0.527C275.516,45.067,275.34,48.884,277.405,48.715z
		 M357.02,47.133c0.155-1.075,1.427-1.034,1.582-2.109C357.406,43.229,355.364,46.234,357.02,47.133z M170.373,55.569
		c2.937,5.652,5.981,9.323,9.491,13.708c1.659,2.074,2.958,5.995,6.327,5.273c-0.268-6.019-4.491-13.018-7.381-16.872
		c-3.421-4.561-7.045-9.607-11.073-12.654c-0.351,0-0.703,0-1.054,0C167.036,49.515,168.596,52.149,170.373,55.569z M118.702,49.242
		c-0.433-1.325-0.69-2.825-2.636-2.637C115.692,48.737,116.571,49.616,118.702,49.242z M246.297,53.46
		c-1.273,2.346-5.685,4.016-4.745,6.854c3.48,2.55,8.789-1.591,10.545-4.218c-1.544-2.85-1.682-7.106-4.745-8.436
		C245.78,48.602,245.364,51.513,246.297,53.46z M218.353,55.042c2.732,2.249,6.51,6.062,11.072,4.745
		c-0.736-3.307-3.679-4.406-5.272-6.854c0.699-0.882,1.396-1.767,1.055-3.69C221.889,46.545,219.656,52.387,218.353,55.042z
		 M353.33,49.769c0.352,0,0.703,0,1.055,0c0.028-0.674,0.676-0.73,0.527-1.582c-0.527,0-1.055,0-1.582,0
		C353.33,48.715,353.33,49.242,353.33,49.769z M119.756,49.769c0.269,1.665,2.408,1.459,3.691,2.109
		C123.31,50.12,121.334,48.455,119.756,49.769z M212.026,54.515c-4.848-2.053-10.569-5.269-15.817-4.218
		c-0.409,0.118-1.04,0.015-1.055,0.527c5.854,5.746,18.153,5.046,26.362,8.436C219.397,56.931,215.572,56.016,212.026,54.515z
		 M123.975,53.987c1.102,0.832,3.501,0.365,4.745,1.055C128.845,52.332,124.231,50.375,123.975,53.987z M349.112,54.515
		c1.795,0.038,1.964-1.551,2.636-2.636C349.87,51.758,348.991,52.637,349.112,54.515z M129.774,57.151
		c2.424,2.685,5.718,3.979,8.436,6.327c2.394,2.069,3.931,6.054,7.909,6.327c0.408-2.723-3.032-3.532-4.745-5.272
		c-3.156-3.207-5.918-7.574-10.018-9.49c-0.527,0-1.054,0-1.582,0C129.774,55.745,129.774,56.448,129.774,57.151z M335.93,67.696
		c5.121-3.49,10.449-6.774,13.182-12.654C342.848,57.39,338.565,61.719,335.93,67.696z M246.297,61.896
		c1.308,0.078,2.559,0.098,2.636-1.054C247.625,60.764,246.375,60.743,246.297,61.896z M226.261,62.423
		c1.048,0.007,0.671,1.438,2.109,1.055c0-0.703,0-1.406,0-2.109C227.168,61.222,226.388,61.496,226.261,62.423z M242.08,64.005
		c1.004,0.988,1.324,0.058,2.636,0C244.882,61.534,242.277,62.594,242.08,64.005z M275.296,103.022
		c2.958-1.998,5.545-9.672,7.908-15.291c2.313-5.499,9.987-17.48,3.164-20.563c-0.352,0-0.703,0-1.055,0
		c-0.081,1.79-1.869,2.295-2.637,3.691c-4.13,7.516-5.946,19.194-10.018,25.835c-1.587,2.59-4.509,3.548-6.327,5.8
		C267.564,105.007,272.631,104.821,275.296,103.022z M333.821,68.75c-5.264,7.039-11.56,13.045-13.708,23.199
		c6.857-5.972,13.923-11.736,15.29-23.199C334.875,68.75,334.348,68.75,333.821,68.75z M146.119,70.859
		c-0.57,3.733,1.831,4.496,1.582,7.909c2.354,2.966,5.153,6.144,7.909,9.491c2.37,2.878,4.685,8.389,9.49,7.381
		c-4.298-9.937-10.536-17.935-16.345-26.363c-0.527,0-1.055,0-1.582,0C147.202,70.185,146.768,70.629,146.119,70.859z
		 M184.082,76.132c0.203,6.036,3.703,13.597,5.8,17.927c2.615,5.399,4.814,10.501,11.072,10.545
		c0.986-0.771,0.622-2.893,2.636-2.636c-0.342,2.452,1.238,2.98,3.691,2.636c0.799-3.946,1.976-7.515,3.69-10.545
		c-5.312,0.515-5.181,7.375-10.018,6.854c-3.72-8.759-7.791-17.166-12.127-25.308C187.177,75.712,184.956,75.249,184.082,76.132z
		 M227.316,80.35c-0.225,2.775-4.12,4.651-3.163,6.854c5.782-3.637,16.761-3.104,22.672,0c0.798-2.053-2.627-3.906-2.637-6.854
		C238.909,78.59,233.204,79.973,227.316,80.35z M209.389,107.767c1.819-6.105,4.5-11.462,9.491-14.763
		c6.947-4.595,25.104-3.244,30.58,0.527c4.646,3.198,6.614,9.493,10.019,12.654C261.375,78.819,204.422,80.378,209.389,107.767z
		 M91.812,92.477c0-1.054,0-2.109,0-3.164c-2.406,0.567-2.929,0.119-5.272-0.527C87.028,91.285,90.027,91.274,91.812,92.477z
		 M92.339,93.531c2.271,0.689,1.667-1.496,2.636-2.109c0,0.878,0,1.757,0,2.636c2.075,0.845,0.184-2.277,1.582-2.109
		c0,1.055,0,2.109,0,3.164c2.22-1.629,1.443-1.299,3.164,0.527c1.002-1.283,0.159-4.411,1.055-5.8
		c-3.131,0.288-5.363-0.031-7.381-1.054C92.311,89.636,92.171,91.43,92.339,93.531z M104.466,93.004
		c1.438,0.384,1.061-1.048,2.109-1.055c-0.064-1.341-0.768-2.044-2.109-2.109C103.745,90.515,103.745,92.33,104.466,93.004z
		 M101.83,94.586c1.326-0.432,1.109-2.405,1.054-4.218c-0.527,0-1.054,0-1.582,0C101.382,91.926,99.77,94.089,101.83,94.586z
		 M222.571,133.075c3.455,1.167,8.923,0.245,11.6,0c6.615-0.606,13.236-0.469,16.345-2.636c1.766-1.23,2.32-3.444,3.69-5.272
		c1.6-2.133,3.615-3.45,4.219-5.272c4.373-13.215-7.485-28.263-22.672-28.472c-2.063-0.028-7.989,0.494-11.6,1.054
		c-10.488,1.627-15.961,15.325-13.709,28.472c4.713,1.438,6.271,6.033,8.437,10.018C220.576,130.607,221.33,132.656,222.571,133.075
		z M423.455,91.422c-5.826,0-12.188-0.57-17.399,0c-10.306,1.127-17.9,7.376-24.254,10.018c3.073,3.782,7.163,6.545,10.018,10.545
		c2.032-0.928,4.577,0.171,6.854,0.527c10.76-6.798,29.674-6.991,42.708-11.072c1.573-0.493,3.333-1.063,4.745-1.582
		c3.061-1.125,6.295-2.708,8.436-4.746C446.367,91.066,435.543,91.422,423.455,91.422z M133.992,115.676
		c-2.269-2.87-7.506-3.687-10.545-6.327c-2.59-2.25-5.143-5.536-6.854-7.909c-2.054-2.847-3.236-6.347-5.272-9.491
		c-4.604,0.844-7.024,3.872-11.6,4.746c-1.845,6.099-8.732,8.031-7.381,15.817c12.237,7.623,28.031,11.689,43.762,15.818
		C136.365,124.435,136.362,118.674,133.992,115.676z M316.949,92.477c-3.804,3.929-7.186,8.281-9.49,13.709
		c2.706-0.81,5.154-1.876,8.437-2.109c0.859-4.412,4.615-5.93,4.745-11.072C319.402,92.836,318.661,92.171,316.949,92.477z
		 M391.292,94.586c0.148-1.379-0.192-2.268-1.581-2.109c-0.169,1.238-0.833,1.979-0.527,3.691c2.489-0.293,2.895-1.859,4.745-1.582
		c-0.048-1.439,0.878-1.062,0-2.109C391.95,92.08,392.779,94.491,391.292,94.586z M376.529,97.222
		c-0.142-1.572,1.476-3.21-0.527-3.691c-1.577,1.125-0.899,3.332-0.527,5.272c1.906-0.337,1.698,1.4,4.218,1.582
		c-0.431-2.382,1.017-6.64-1.054-7.382C377.445,93.92,378.149,96.733,376.529,97.222z M380.747,100.913
		c2.777,0.668,0.656-3.562,2.109-4.218c-0.216,1.27,0.963,1.146,0.527,2.636c3.621-0.791,0.835-3.188,2.108-6.327
		c-2.567-0.81-1.582,1.933-2.636,2.636c-0.597-1.655,0.151-1.393-0.527-2.636c-0.527,0-1.055,0-1.582,0
		C379.811,95.147,380.219,98.68,380.747,100.913z M386.019,97.749c3.024,0.564,2.772-2.148,2.637-4.745c-0.703,0-1.406,0-2.109,0
		C386.103,94.318,385.856,95.829,386.019,97.749z M372.838,98.276c2.443,0.334,1.335-2.883,1.581-4.745c-0.527,0-1.055,0-1.581,0
		C371.591,94.841,372.833,96.634,372.838,98.276z M367.039,94.586c0.063,1.341,0.767,2.044,2.108,2.109
		c0.166-0.713,0.751-1.007,0.527-2.109C368.982,93.909,367.731,93.909,367.039,94.586z M371.256,97.222
		c-0.381-1.611,0.539-1.921,0.527-3.164C369.725,93.479,369.67,97.199,371.256,97.222z M363.875,95.113
		C366.55,96.551,365.837,93.272,363.875,95.113L363.875,95.113z M260.533,103.549c2.33,0.045,4.672,0.103,4.746-2.109
		c-0.815-3.403-3.473-4.964-6.327-6.327C258.357,97.12,261.125,99.836,260.533,103.549z M284.259,146.784
		c10.127,4.426,20.589,8.378,32.163,11.072c6.68,1.555,13.748,2.165,21.617,3.691c9.763,1.894,19.117,3.632,28.999,4.745
		c5.204,0.587,10.9,1.86,15.29,1.582c1.896-0.12,4.192-1.214,6.327-1.582c8.393-1.447,18.033-2.752,24.253-6.327
		c2.936-1.687,5.794-5.169,8.964-7.909c3.105-2.684,6.548-4.923,9.49-7.381c7.204-6.02,14.178-9.682,18.981-14.763
		c2.362-2.499,5.115-6.909,7.908-10.545c2.497-3.25,6.901-8.262,7.382-11.6c1.003-6.96-4.585-9.985-9.49-12.127
		c-13.147,11.634-40.561,9.001-56.416,17.927c2.302,4.628,8.503,5.344,13.708,6.854c8.741,2.537,17.853,4.981,27.945,6.327
		c2.312,0.309,5.439-1.061,6.854,1.582c-17.437-0.848-36.412-4.708-48.507-12.654c-5.464,0.451-9.86,1.575-14.236,2.636
		c-14.363,3.483-30.491,6.682-45.344,8.963c-2.475,2.622-4.357,5.836-5.8,9.491c7.752,6.835,15.79,13.385,25.309,18.454
		c1.722-8.737,11.332-6.154,20.562-5.272c5.743,0.549,13.651,1.413,19.509,1.055c7.006-0.429,11.821-2.114,16.345,1.054
		c-2.612,1.571-6.418-0.996-10.018-1.054c-4.196-0.068-9.327,1.268-14.764,1.054c-8.773-0.345-18.615-2.99-23.727-2.109
		c-2.848,0.491-6.423,2.354-6.326,5.8c2.363,3.261,8.299,2.948,10.545,6.327c-14.483-4.298-26.732-14.51-37.963-23.727
		c-13.197-1.741-26.158-3.719-40.598-4.218c-0.593,3.098-2.685,4.697-3.691,7.381c13.353,3.135,25.942,9.729,40.071,12.127
		c4.299,0.729,10.277-0.184,12.127,2.636c-12.111-0.777-22.722-3.461-33.217-6.854c-6.853-2.215-13.148-5.566-20.036-7.381
		c-7.719-2.034-15.479-1.906-23.198-5.272C268.895,142.959,276.206,143.264,284.259,146.784z M386.546,108.294
		c-5.675-5.861-13.511-10.525-23.199-12.127c-5.419,8.113-13.489,13.576-23.199,17.399c-0.967,3.434-3.52,8.476-1.054,12.127
		c18.832-2.434,36.601-5.931,52.725-11.073C391.063,111.654,388.321,110.126,386.546,108.294z M174.591,108.294
		c-4.142-3.24-3.773-10.99-11.072-11.072C164.669,103.104,168.48,109.129,174.591,108.294z M85.485,109.876
		c-1.213,3.541,3.783,2.945,5.273,2.109c0-1.054,0-2.109,0-3.163C88.501,108.674,88.15,110.432,85.485,109.876z M392.874,114.094
		c1.098,0.259,5.277,2.035,5.272,0C397.142,113.741,393.147,111.78,392.874,114.094z M137.683,128.857
		c2.394,2.878,4.403,6.142,6.327,9.49c14.589-1.976,27.702,1.123,39.017-3.164c3.655-1.385,6.811-4.481,11.072-5.8
		c3.944-1.22,7.803-1.475,12.127-2.109c-1.5-2.898-5.369-2.415-8.437-3.164c-2.948-0.72-6.245-2.019-9.49-2.636
		c-15.928-3.028-37.534-2.109-52.198-5.272c-0.322,0.03-0.625,0.079-0.527,0.527C137.156,119.886,138.609,124.811,137.683,128.857z
		 M258.424,144.147c3.377,1.312,8.45,0.111,10.018-2.109C265.051,138.288,262.291,143.718,258.424,144.147z M254.733,143.093
		c-1.005-0.225-0.954-1.506-2.636-1.054C251.727,143.348,254.351,144.271,254.733,143.093z M326.967,161.547
		c-12.244-1.868-21.018-4.972-31.636-8.436c-3.404-1.111-7.495-2.381-11.072-3.164c-11.123-2.433-22.808-1.529-33.217-6.327
		c-0.529-0.001-0.627,0.427-1.055,0.527c-0.29,3.454,2.739,3.588,3.164,6.327c8.837,2.059,12.979,8.813,19.508,13.182
		c1.909-1.255,4.596-1.732,5.272-4.219c-5.497-3.436-11.963-6.087-18.453-8.436c-1.809-0.654-5.375-1.052-5.8-3.691
		c18.866,6.792,41.928,18.517,61.688,23.726c3.295,0.869,8.051-0.967,12.127-2.108c1.659-0.466,3.561-1.04,5.272-1.582
		c1.37-0.435,4.446-0.324,4.218-2.637C334.461,161.948,330.035,162.015,326.967,161.547z M278.459,145.729
		c-5.06-2.021-9.771-3.138-13.708,0.527c6.66,0.919,12.404,0.917,18.98,2.636C283.155,147.436,280.572,146.573,278.459,145.729z
		 M240.498,149.947c-4.638,0.546-9.794-0.404-14.763,0c-1.791-1.021-2.689-2.935-5.273-3.164c-1.582,0.527-2.637,1.581-3.163,3.164
		c10.546,1.841,23.603,2.875,32.162-2.109C246.878,147.178,244.045,149.53,240.498,149.947z M236.28,153.111
		c-6.234,0.213-12.709-1.333-18.981-2.109c3.355,6.052,0.768,20.234,5.8,24.254c4.698,3.752,11.011-2.892,16.872,1.581
		c8.563-4.09,7.638-17.671,11.072-26.89C245.977,149.84,241.808,152.921,236.28,153.111z M213.608,151.002
		c-2.271,2.895-5.071,4.761-7.382,7.382c-1.97,2.233-3.606,4.833-5.8,6.854c-7.418,6.837-17.63,12.04-26.89,15.818
		c-3.148,1.284-6.533,3.029-10.018,3.163c13.244-6.968,28.881-11.541,37.962-22.672c-1.951-1.389-2.264-4.416-3.691-6.327
		c-14.458,1.886-25.156,7.533-35.853,13.182c-11.334,18.657-41.571,23.652-68.543,23.199c2.4-2.712,6.567-1.469,9.49-1.582
		c10.068-0.392,19.318-1.907,28.472-4.218c11.744-2.965,22.61-7.532,27.944-16.872c-2.717-1.3-5.953-2.047-9.49-3.164
		c-3.136-0.99-7.012-3.362-10.018-3.163c-1.822,0.121-4.352,2.211-6.854,3.163c-15.113,5.754-32.486,7.011-50.089,6.327
		c-6.255-0.242-11.712,0.474-15.817-1.582c5.827-2.229,12.528,0.206,18.981,0.527c16.629,0.829,30.498-1.795,41.653-5.272
		c4.15-1.293,9.658-1.845,11.072-5.8c-3.367-2.057-7.54-0.283-11.072,0c-11.05,0.886-22.394,0.887-33.217,2.637
		c-4.374,0.707-10.15,1.848-14.763,1.582c-5.188-0.3-9.538-3.554-14.235-3.691c-6.056-0.178-11.221,3.193-13.182,7.909
		c9.198,10.492,20.889,23.544,38.49,26.362c13.677,2.19,30.913,2.013,45.344,0c9.134-1.273,18.251-4.527,27.417-6.327
		c4.357-0.855,8.367-0.77,12.127-2.108c3.209-1.144,6.326-3.214,9.49-4.746c6.992-3.385,13.296-6.731,17.4-11.072
		c5.257-5.561,9.055-13.305,12.126-19.508C214.311,151.002,213.959,151.002,213.608,151.002z M249.988,163.656
		c-0.432,2.3-1.878,4.066-1.581,5.8c0.481,2.814,4.892,6.13,6.326,7.908c3.62,4.487,7.849,9.397,11.6,3.691
		c-1.149-10.803-14.06-14.412-13.181-29c-0.675-0.029-0.73-0.676-1.582-0.527C250.138,155.048,250.893,158.837,249.988,163.656z
		 M211.499,161.547c-3.618,6.206-13.396,12.405-10.545,21.617c6.705,0.315,10.219-4.549,13.182-8.436
		c4.321-5.671,4.281-6.165,3.69-13.709c-0.306-3.898-0.296-8.272-2.109-8.963C213.789,154.871,213.094,158.81,211.499,161.547z
		 M254.733,154.166c1.059,10.722,7.219,14.828,14.764,21.09c4.812,3.994,10.191,8.007,15.817,10.545
		c7.179,3.237,17.196,4.697,26.362,6.854c10.632,2.503,20.561,5.597,31.108,6.854c5.016,0.599,11.755,2.132,17.399,2.109
		c14.903-0.06,26.309-5.687,36.38-11.072c5.515-6.262,14.565-8.986,17.927-17.399c-2.294-4.033-5.8-6.854-10.545-8.437
		c-9.026,2.458-17.653,5.005-28.999,4.219c-11.282-0.782-22.872-3.385-31.635-4.745c-1.508-0.234-4.057-0.974-5.272,0.526
		c0.901,3.566,5.351,3.02,8.436,3.691c3.183,0.692,6.654,2.062,10.018,2.636c2.238,0.383,4.888,0.162,7.382,0.527
		c2.631,0.386,4.994,1.462,7.382,1.582c12.774,0.645,22.921-2.2,32.689-4.218c1.145-0.236,3.541-2.602,4.218,0.527
		c-16.449,5.495-35.933,5.945-53.779,2.636c-5.492-1.019-11.393-4.07-16.872-4.218c-6.557-0.177-12.379,4.04-18.454,4.745
		c1.424,4.734,5.981,8.682,9.49,11.072c3.327,2.267,6.835,4.284,10.546,5.8c9.956,4.067,23.575,7.892,36.38,6.327
		c2.688-0.328,6.255-2.69,8.964,0c-3.038-0.281-5.875,1.225-8.964,1.582c-11.344,1.312-23.439-1.908-31.107-4.746
		c-7.484-2.769-16.426-7.113-21.091-11.072c-2.977-2.525-3.638-6.033-6.327-8.436c-13.848-3.376-25.855-8.592-37.962-13.709
		c-0.414,3.276-3.214,4.168-6.327,4.746c3.657,5.281,8.558,8.878,13.709,12.126c1.608,1.015,3.169,2.216,4.745,2.637
		c0.65,0.174,0.178,0.878,0.527,1.055c1.822,0.919,4.324,1.194,6.327,2.108c5.91,2.699,12.042,5.652,18.454,7.909
		c2.014,0.709,4.318,1.608,6.326,2.109c2.177,0.542,5.621-0.71,6.854,2.108c-6.996-1.32-12.759-3.004-17.927-4.745
		c-11.776-3.968-25.082-9.566-33.217-16.345c-7.371-6.144-13.026-16.361-22.672-20.036c-0.116-0.411-0.441-0.613-1.055-0.527
		C254.658,153.207,253.794,153.779,254.733,154.166z M227.316,179.474c2.102-0.408,8.898-0.896,12.654,0
		C238.065,175.441,229.581,175.717,227.316,179.474z M226.261,181.582c1.258,4.573,14.286,3.346,15.818,0
		C237.981,180.185,230.304,179.978,226.261,181.582z M267.387,182.109c-0.715,1.569-2.38,2.189-3.69,3.164
		c0.776,3.793,3.757,5.382,5.8,7.908c2.08-0.907,3.794-2.181,4.745-4.218C272.506,186.13,271.018,183.048,267.387,182.109z
		 M197.262,182.637c-2.84,0.032-5.064,3.522-5.799,6.327c3.769,5.237,9.787,0.919,10.545-4.218
		C199.493,184.73,199.505,182.611,197.262,182.637z M227.843,187.382c2.178,0.604,8.678,1.419,10.018-0.526
		C235.347,185.758,228.584,184.196,227.843,187.382z M258.424,195.291c-7.404-6.441-23.228-6.673-37.436-5.8
		c-5.984,0.367-6.756,0.52-10.545,2.637c-5.812,3.247-10.615,8.936-12.127,14.763c20.078,5.508,47.742,8.912,69.07,2.109
		C265.714,204.792,262.73,199.037,258.424,195.291z M189.881,191.073c-7.895,5.304-19.32,18.119-18.981,28.999
		c3.253,1.172,5.496-2.367,7.382-4.219c6.691-6.566,12.471-14.542,16.872-22.672C193.828,192.511,191.483,189.997,189.881,191.073z
		 M283.205,196.873c-1.476-1.477-5.445-6.249-8.436-5.8c-7.57,1.136,0.08,10.702,2.636,14.235
		c5.915,8.176,12.042,13.704,21.618,16.872C297.989,212.091,289.738,203.406,283.205,196.873z M197.79,207.945
		c-4.163,7.099-6.257,19.031-5.8,28.999c23.416,6.217,53.524,7.078,80.143,3.69c-0.09-11.027-1.232-20.819-4.218-30.054
		C246.393,217.176,217.392,214.543,197.79,207.945z M169.318,221.127c-1.824,2.394-2.286,6.15-4.218,8.436
		c-1.231,7.119-3.303,14.854-4.218,22.672c-0.277,2.366-2.131,6.534,1.055,7.909c3.856-0.114,3.67-5.088,4.218-7.909
		c2.032-10.477,3.665-22.546,4.745-31.107C170.373,221.127,169.846,221.127,169.318,221.127z M300.077,235.362
		c-1.839,0.82-1.974,3.625-2.108,5.8c-0.235,3.779,0,9.833,0.527,14.235c0.477,3.982,1.871,9.183,4.745,9.491
		c2.433-2.34,0.896-6.078,1.055-9.491c0.532-11.519,2.08-26.171-4.746-32.689C297.217,225.126,297.157,233.589,300.077,235.362z
		 M196.736,270.688c6.889-0.453,13.33-2.575,21.09-3.164c16.171-1.227,33.492,0.274,47.979,3.164
		c3.498-7.926,5.676-17.172,6.327-27.944c-28.114,2.924-55.583,2.372-80.143-4.219C191.534,251.285,193.627,261.493,196.736,270.688
		z M160.882,261.197c-0.029,0.675-0.676,0.73-0.527,1.582c-1.835,4.668-5.335,7.671-6.854,12.654
		c-2.647,3.71-8.688,8.954-6.327,14.235c4.523-2.708,7.004-7.939,9.49-12.653c2.524-4.787,5.049-10.02,6.854-15.291
		C162.028,262.161,162.153,260.981,160.882,261.197z M302.713,268.052c4.351,6.812,5.681,18.076,12.654,21.091
		c-0.49-4.445-3.484-7.967-5.272-11.6c-1.915-3.89-2.832-8.457-6.327-11.072c-0.352,0-0.703,0-1.055,0
		C302.507,267.223,302.081,267.359,302.713,268.052z M211.499,270.161c-4.732,0.549-9.613,1.421-13.709,3.163
		c1.591,3.956,4.983,8.746,6.854,12.127c1.557,2.812,2.016,4.576,3.691,6.327c4.877,5.097,9.939,2.317,16.872,1.055
		c8.741-1.593,16.204,2.658,25.308,2.108c6.126-3.338,8.227-9.312,11.072-15.29c1.218-2.557,3.698-4.734,3.164-7.382
		C248.267,268.947,228.704,268.165,211.499,270.161z M320.113,295.996c1.34-2.062-2.198-6.088-4.218-4.745
		C317.768,292.365,316.882,296.238,320.113,295.996z M143.483,297.051c0.612,0.442,1.414,0.695,2.636,0.527
		c0.14-1.887,1.141-3.694,0-5.8C145.518,293.812,143.847,294.779,143.483,297.051z M217.298,297.051
		c4.745,2.285,10.483,3.577,14.235,6.854c3.228-3.804,11.521-2.539,14.236-6.854C237.713,295.013,224.996,293.593,217.298,297.051z
		 M325.913,302.323c-0.408-3.282-2.876-4.505-5.272-5.8C321.977,298.878,321.526,303.019,325.913,302.323z M142.956,305.487
		c1.129-0.369,2.96-4.754,0.527-5.272C142.765,302.271,138.942,304.399,142.956,305.487z M327.495,309.178
		c1.223,0.168,2.023-0.085,2.636-0.527c-0.741-2.071-1.42-4.203-3.69-4.745C324.389,304.901,327.331,307.193,327.495,309.178z
		 M140.319,311.814c2.576,0.368,4.512-3.989,2.109-5.273C141.682,308.122,138.491,309.332,140.319,311.814z M331.185,316.032
		c1.055,0,2.109,0,3.163,0c0.29-3.629-1.922-4.757-4.218-5.8C329.754,312.894,330.851,314.081,331.185,316.032z M136.628,318.141
		c1.048,0.007,0.671,1.439,2.109,1.055c1.596-0.688,2.097-2.473,2.109-4.745c-1.49,0.436-1.366-0.743-2.636-0.527
		C137.761,315.407,136.507,316.086,136.628,318.141z"/>
</g>
</svg>
