<?xml version="1.0" encoding="UTF-8" standalone="no"?>
<!-- Created with Inkscape (http://www.inkscape.org/) -->
<svg
   xmlns:dc="http://purl.org/dc/elements/1.1/"
   xmlns:cc="http://creativecommons.org/ns#"
   xmlns:rdf="http://www.w3.org/1999/02/22-rdf-syntax-ns#"
   xmlns:svg="http://www.w3.org/2000/svg"
   xmlns="http://www.w3.org/2000/svg"
   xmlns:sodipodi="http://sodipodi.sourceforge.net/DTD/sodipodi-0.dtd"
   xmlns:inkscape="http://www.inkscape.org/namespaces/inkscape"
   version="1.0"
   width="451.62256"
   height="314.89676"
   id="svg2"
   sodipodi:version="0.32"
   inkscape:version="0.46"
   sodipodi:docname="bee.svg"
   inkscape:output_extension="org.inkscape.output.svg.inkscape">
  <metadata
     id="metadata21">
    <rdf:RDF>
      <cc:Work
         rdf:about="">
        <dc:format>image/svg+xml</dc:format>
        <dc:type
           rdf:resource="http://purl.org/dc/dcmitype/StillImage" />
      </cc:Work>
    </rdf:RDF>
  </metadata>
  <sodipodi:namedview
     inkscape:window-height="978"
     inkscape:window-width="1680"
     inkscape:pageshadow="2"
     inkscape:pageopacity="0.0"
     guidetolerance="10.0"
     gridtolerance="10.0"
     objecttolerance="10.0"
     borderopacity="1.0"
     bordercolor="#666666"
     pagecolor="#ffffff"
     id="base"
     showgrid="false"
     inkscape:zoom="0.43901235"
     inkscape:cx="269.75247"
     inkscape:cy="172.81934"
     inkscape:window-x="-4"
     inkscape:window-y="-4"
     inkscape:current-layer="svg2"
     inkscape:showpageshadow="false" />
  <defs
     id="defs4">
    <inkscape:perspective
       sodipodi:type="inkscape:persp3d"
       inkscape:vp_x="0 : 526.18109 : 1"
       inkscape:vp_y="0 : 1000 : 0"
       inkscape:vp_z="744.09448 : 526.18109 : 1"
       inkscape:persp3d-origin="372.04724 : 350.78739 : 1"
       id="perspective23" />
  </defs>
  <g
     id="g3292"
     transform="translate(-319.67042,-342.60833)"
     style="stroke:#000000;stroke-opacity:1">
    <g
       transform="matrix(-1,0,0,1,1088.2025,-0.4026691)"
       id="g3224"
       style="stroke:#000000;stroke-opacity:1">
      <path
         sodipodi:nodetypes="ccccc"
         id="path3226"
         d="M 572.59541,505.94025 C 577.00359,510.85699 582.43831,511.66758 587.89684,512.38297 L 592.32619,506.34293 C 587.56756,502.91396 582.68307,499.61085 575.81677,498.28955 L 572.59541,505.94025 z"
         style="fill:#ffff00;fill-opacity:1;fill-rule:evenodd;stroke:#000000;stroke-width:1px;stroke-linecap:butt;stroke-linejoin:miter;stroke-opacity:1" />
      <path
         sodipodi:nodetypes="cssscc"
         id="path3228"
         d="M 637.02247,549.42852 C 640.05398,550.37497 655.1138,552.82433 662.40678,551.49696 C 672.90619,549.586 679.1536,551.94362 674.06802,553.05254 C 667.37174,554.51268 661.09973,561.94561 672.05468,565.53529 C 683.16831,569.17696 646.74136,573.21013 631.38509,557.4819 L 637.02247,549.42852 z"
         style="fill:#ffff00;fill-opacity:1;fill-rule:evenodd;stroke:#000000;stroke-width:1px;stroke-linecap:butt;stroke-linejoin:miter;stroke-opacity:1" />
      <path
         sodipodi:nodetypes="cccc"
         id="path3230"
         d="M 613.26499,535.3351 C 605.49495,544.29764 626.10781,559.36009 632.99578,559.09258 C 637.77581,557.67779 638.45797,553.1896 639.03581,548.62317 C 630.04287,544.32804 620.25771,524.49943 613.26499,535.3351 z"
         style="fill:#ffff00;fill-opacity:1;fill-rule:evenodd;stroke:#000000;stroke-width:1px;stroke-linecap:butt;stroke-linejoin:miter;stroke-opacity:1" />
      <path
         sodipodi:nodetypes="cccc"
         id="path3232"
         d="M 587.09151,506.34293 C 596.35816,496.10365 615.40063,523.81434 620.11036,530.90574 C 617.8155,536.11431 615.26206,540.8057 610.84898,541.77781 C 600.0905,527.81861 578.51706,513.38618 587.09151,506.34293 z"
         style="fill:#ffff00;fill-opacity:1;fill-rule:evenodd;stroke:#000000;stroke-width:1px;stroke-linecap:butt;stroke-linejoin:miter;stroke-opacity:1" />
    </g>
    <g
       id="g3218"
       style="stroke:#000000;stroke-opacity:1">
      <path
         style="fill:#ffff00;fill-opacity:1;fill-rule:evenodd;stroke:#000000;stroke-width:1px;stroke-linecap:butt;stroke-linejoin:miter;stroke-opacity:1"
         d="M 572.59541,505.94025 C 577.00359,510.85699 582.43831,511.66758 587.89684,512.38297 L 592.32619,506.34293 C 587.56756,502.91396 582.68307,499.61085 575.81677,498.28955 L 572.59541,505.94025 z"
         id="path3206"
         sodipodi:nodetypes="ccccc" />
      <path
         style="fill:#ffff00;fill-opacity:1;fill-rule:evenodd;stroke:#000000;stroke-width:1px;stroke-linecap:butt;stroke-linejoin:miter;stroke-opacity:1"
         d="M 637.02247,549.42852 C 640.05398,550.37497 655.1138,552.82433 662.40678,551.49696 C 672.90619,549.586 679.1536,551.94362 674.06802,553.05254 C 667.37174,554.51268 661.09973,561.94561 672.05468,565.53529 C 683.16831,569.17696 646.74136,573.21013 631.38509,557.4819 L 637.02247,549.42852 z"
         id="path3204"
         sodipodi:nodetypes="cssscc" />
      <path
         style="fill:#ffff00;fill-opacity:1;fill-rule:evenodd;stroke:#000000;stroke-width:1px;stroke-linecap:butt;stroke-linejoin:miter;stroke-opacity:1"
         d="M 613.26499,535.3351 C 605.49495,544.29764 626.10781,559.36009 632.99578,559.09258 C 637.77581,557.67779 638.45797,553.1896 639.03581,548.62317 C 630.04287,544.32804 620.25771,524.49943 613.26499,535.3351 z"
         id="path3202"
         sodipodi:nodetypes="cccc" />
      <path
         style="fill:#ffff00;fill-opacity:1;fill-rule:evenodd;stroke:#000000;stroke-width:1px;stroke-linecap:butt;stroke-linejoin:miter;stroke-opacity:1"
         d="M 587.09151,506.34293 C 596.35816,496.10365 615.40063,523.81434 620.11036,530.90574 C 617.8155,536.11431 615.26206,540.8057 610.84898,541.77781 C 600.0905,527.81861 578.51706,513.38618 587.09151,506.34293 z"
         id="path3200"
         sodipodi:nodetypes="cccc" />
    </g>
    <g
       id="g3184"
       style="stroke:#000000;stroke-opacity:1">
      <path
         style="fill:#ffff00;fill-opacity:1;fill-rule:evenodd;stroke:#000000;stroke-width:1px;stroke-linecap:butt;stroke-linejoin:miter;stroke-opacity:1"
         d="M 440.11729,613.85557 C 436.14381,616.67909 427.08088,619.26137 419.2031,624.76728 C 414.59294,627.9894 407.1443,636.08657 409.91712,636.00237 C 417.15387,635.78263 415.18401,639.89824 418.37317,648.48511 C 419.34554,651.10324 423.96268,646.97521 427.5398,641.01147 C 434.42938,629.52521 446.24728,621.77723 451.39203,618.6876 L 440.11729,613.85557 z"
         id="path3172"
         sodipodi:nodetypes="csssscc" />
      <path
         style="fill:#ffff00;fill-opacity:1;fill-rule:evenodd;stroke:#000000;stroke-width:1px;stroke-linecap:butt;stroke-linejoin:miter;stroke-opacity:1"
         d="M 474.74684,585.26606 C 479.57886,591.57454 454.43034,631.1581 440.11729,619.8956 C 431.61315,610.91067 454.5872,589.96823 465.88812,580.8367 L 474.74684,585.26606 z"
         id="path3170"
         sodipodi:nodetypes="cccc" />
      <path
         style="fill:#ffff00;fill-opacity:1;fill-rule:evenodd;stroke:#000000;stroke-width:1px;stroke-linecap:butt;stroke-linejoin:miter;stroke-opacity:1"
         d="M 494.07495,532.51642 C 482.84544,541.67519 474.70149,562.01414 462.26409,581.64204 C 465.63285,586.9109 470.4446,588.57228 475.95484,588.48742 C 485.06568,588.69056 498.84081,552.78791 498.90698,535.3351 L 494.07495,532.51642 z"
         id="path3168"
         sodipodi:nodetypes="ccccc" />
      <path
         style="fill:#ffff00;fill-opacity:1;fill-rule:evenodd;stroke:#000000;stroke-width:1px;stroke-linecap:butt;stroke-linejoin:miter;stroke-opacity:1"
         d="M 519.44309,518.82567 C 510.17449,511.83163 498.78595,518.71784 491.65893,532.91909 C 493.59346,535.02972 494.73013,537.67225 499.71232,537.75111 C 504.34162,532.91076 508.91123,529.32288 514.61107,530.90574 L 519.44309,518.82567 z"
         id="path2396"
         sodipodi:nodetypes="ccccc" />
    </g>
    <g
       style="fill:#ffff00;fill-opacity:1;stroke:#000000;stroke-opacity:1"
       transform="matrix(-1,0,0,1,1089.8259,3.2213525)"
       id="g3190">
      <path
         sodipodi:nodetypes="csssscc"
         id="path3192"
         d="M 440.11729,613.85557 C 436.14381,616.67909 427.08088,619.26137 419.2031,624.76728 C 414.59294,627.9894 407.1443,636.08657 409.91712,636.00237 C 417.15387,635.78263 415.18401,639.89824 418.37317,648.48511 C 419.34554,651.10324 423.96268,646.97521 427.5398,641.01147 C 434.42938,629.52521 446.24728,621.77723 451.39203,618.6876 L 440.11729,613.85557 z"
         style="fill:#ffff00;fill-opacity:1;fill-rule:evenodd;stroke:#000000;stroke-width:1px;stroke-linecap:butt;stroke-linejoin:miter;stroke-opacity:1" />
      <path
         sodipodi:nodetypes="cccc"
         id="path3194"
         d="M 474.74684,585.26606 C 479.57886,591.57454 454.43034,631.1581 440.11729,619.8956 C 431.61315,610.91067 454.5872,589.96823 465.88812,580.8367 L 474.74684,585.26606 z"
         style="fill:#ffff00;fill-opacity:1;fill-rule:evenodd;stroke:#000000;stroke-width:1px;stroke-linecap:butt;stroke-linejoin:miter;stroke-opacity:1" />
      <path
         sodipodi:nodetypes="ccccc"
         id="path3196"
         d="M 494.07495,532.51642 C 482.84544,541.67519 474.70149,562.01414 462.26409,581.64204 C 465.63285,586.9109 470.4446,588.57228 475.95484,588.48742 C 485.06568,588.69056 498.84081,552.78791 498.90698,535.3351 L 494.07495,532.51642 z"
         style="fill:#ffff00;fill-opacity:1;fill-rule:evenodd;stroke:#000000;stroke-width:1px;stroke-linecap:butt;stroke-linejoin:miter;stroke-opacity:1" />
      <path
         sodipodi:nodetypes="ccccc"
         id="path3198"
         d="M 519.44309,518.82567 C 510.17449,511.83163 498.78595,518.71784 491.65893,532.91909 C 493.14848,535.72468 495.04411,538.12418 499.71232,537.75111 C 504.34162,532.91076 508.91123,529.32288 514.61107,530.90574 L 519.44309,518.82567 z"
         style="fill:#ffff00;fill-opacity:1;fill-rule:evenodd;stroke:#000000;stroke-width:1px;stroke-linecap:butt;stroke-linejoin:miter;stroke-opacity:1" />
    </g>
    <g
       style="fill:#ffff00;fill-opacity:1;stroke:#000000;stroke-opacity:1"
       id="layer1">
      <path
         style="fill:#ffff00;fill-opacity:1;fill-rule:evenodd;stroke:#000000;stroke-width:1px;stroke-linecap:butt;stroke-linejoin:miter;stroke-opacity:1"
         d="M 540.31353,393.99826 C 537.2264,393.72737 531.72326,392.30582 528.63613,389.97157 C 508.48766,375.97447 505.80277,370.11353 500.44929,362.59007 C 491.6805,350.26693 486.00941,366.70433 518.97207,391.58224 C 525.29351,397.78955 524.27948,401.87347 524.60944,405.27299 L 540.31353,393.99826 z"
         id="path3272"
         sodipodi:nodetypes="ccsccc" />
      <path
         sodipodi:nodetypes="ccsccc"
         id="path3270"
         d="M 554.07264,394.40093 C 557.15977,394.13004 562.66291,392.70849 565.75004,390.37424 C 585.89851,376.37714 588.5834,370.5162 593.93688,362.99274 C 602.70567,350.6696 608.37676,367.107 575.4141,391.98491 C 569.09266,398.19222 570.10669,402.27614 569.77673,405.67566 L 554.07264,394.40093 z"
         style="fill:#ffff00;fill-opacity:1;fill-rule:evenodd;stroke:#000000;stroke-width:1px;stroke-linecap:butt;stroke-linejoin:miter;stroke-opacity:1" />
      <path
         style="fill:#ffff00;fill-opacity:1;stroke:#000000;stroke-width:0.62706046999999998;stroke-linecap:butt;stroke-linejoin:miter;stroke-miterlimit:4;stroke-dasharray:none;stroke-opacity:1"
         id="path3466"
         transform="matrix(1.3793647,0,0,1.84375,-153.08698,-288.70628)"
         d="M 530.82524,380.3374 C 530.8318,386.59386 520.29369,391.66739 507.29199,391.66739 C 494.29029,391.66739 483.75218,386.59386 483.75874,380.3374 C 483.75218,374.08094 494.29029,369.00741 507.29199,369.00741 C 520.29369,369.00741 530.8318,374.08094 530.82524,380.3374 z" />
      <path
         style="fill:#ffff00;fill-opacity:1;stroke:#000000;stroke-width:0.49324358000000001;stroke-linecap:butt;stroke-linejoin:miter;stroke-miterlimit:4;stroke-dasharray:none;stroke-opacity:1"
         id="path3468"
         transform="matrix(2.260922,0,0,1.8179905,-600.42762,-303.22929)"
         d="M 502.51458,392.54639 C 502.51653,394.63392 501.50521,396.56379 499.86203,397.60818 C 498.21885,398.65256 496.19381,398.65256 494.55063,397.60818 C 492.90745,396.56379 491.89613,394.63392 491.89808,392.54639 C 491.89613,390.45886 492.90745,388.52899 494.55063,387.4846 C 496.19381,386.44022 498.21885,386.44022 499.86203,387.4846 C 501.50521,388.52899 502.51653,390.45886 502.51458,392.54639 z" />
      <path
         style="fill:#ffff00;fill-opacity:1;stroke:#000000;stroke-width:0.49324358000000001;stroke-linecap:butt;stroke-linejoin:miter;stroke-miterlimit:4;stroke-dasharray:none;stroke-opacity:1"
         id="path3476"
         transform="matrix(2.260922,0,0,1.8179905,-553.715,-302.87541)"
         d="M 502.51458,392.54639 C 502.51653,394.63392 501.50521,396.56379 499.86203,397.60818 C 498.21885,398.65256 496.19381,398.65256 494.55063,397.60818 C 492.90745,396.56379 491.89613,394.63392 491.89808,392.54639 C 491.89613,390.45886 492.90745,388.52899 494.55063,387.4846 C 496.19381,386.44022 498.21885,386.44022 499.86203,387.4846 C 501.50521,388.52899 502.51653,390.45886 502.51458,392.54639 z" />
      <path
         style="fill:#ffff00;fill-opacity:1;stroke:#000000;stroke-width:0.85046213999999998;stroke-linecap:butt;stroke-linejoin:miter;stroke-miterlimit:4;stroke-dasharray:none;stroke-opacity:1"
         id="path3448"
         transform="matrix(-1.2600323,0,0,1.0972569,1232.7902,-58.803844)"
         d="M 580.71428,580.75507 C 580.71428,620.3026 564.9643,652.36221 545.53571,652.36221 C 526.10712,652.36221 510.35714,620.3026 510.35714,580.75507 C 510.35714,541.20754 526.10712,509.14793 545.53571,509.14793 C 564.9643,509.14793 580.71428,541.20754 580.71428,580.75507 L 580.71428,580.75507 z" />
      <path
         style="fill:#ffff00;fill-opacity:1;stroke:#000000;stroke-width:1;stroke-linecap:butt;stroke-linejoin:miter;stroke-miterlimit:4;stroke-dasharray:none;stroke-opacity:1"
         id="path3459"
         d="M 579.44357,497.27385 C 579.44357,506.68372 563.78102,514.31192 544.4603,514.31192 C 525.13956,514.31192 509.47701,506.68372 509.47701,497.27385 C 509.47701,487.86397 525.13956,480.23577 544.4603,480.23577 C 563.78102,480.23577 579.44357,487.86397 579.44357,497.27385 L 579.44357,497.27385 z" />
      <g
         style="fill:#ffff00;fill-opacity:1;stroke:#000000;stroke-opacity:1"
         id="g3252">
        <path
           style="fill:#ffff00;fill-opacity:1;fill-rule:evenodd;stroke:#000000;stroke-width:1px;stroke-linecap:butt;stroke-linejoin:miter;stroke-opacity:1"
           d="M 502.53099,419.76908 C 510.99208,419.89322 511.42177,429.63748 522.26178,436.27851 L 515.81907,443.92922 C 507.72714,435.0962 498.18335,434.21068 496.49096,424.6011 L 502.53099,419.76908 z"
           id="path3240"
           sodipodi:nodetypes="ccccc" />
        <path
           style="fill:#ffff00;fill-opacity:1;fill-rule:evenodd;stroke:#000000;stroke-width:1px;stroke-linecap:butt;stroke-linejoin:miter;stroke-opacity:1"
           d="M 445.35199,350.91266 C 451.3689,355.42643 456.34705,356.50712 455.82138,345.2753 C 455.44003,337.12718 464.56179,353.66059 468.70679,366.61677 L 459.84808,371.04612 C 448.51323,368.38684 438.6021,345.84901 445.35199,350.91266 z"
           id="path3238"
           sodipodi:nodetypes="csccs" />
        <path
           style="fill:#ffff00;fill-opacity:1;fill-rule:evenodd;stroke:#000000;stroke-width:1px;stroke-linecap:butt;stroke-linejoin:miter;stroke-opacity:1"
           d="M 489.24291,397.62228 C 497.31033,388.00881 473.64212,364.44401 469.9148,363.79808 C 463.93432,362.90148 455.8979,367.39199 456.62672,373.46214 C 457.9387,378.50361 481.28736,407.10245 489.24291,397.62228 z"
           id="path3236"
           sodipodi:nodetypes="cccs" />
        <path
           style="fill:#ffff00;fill-opacity:1;fill-rule:evenodd;stroke:#000000;stroke-width:1px;stroke-linecap:butt;stroke-linejoin:miter;stroke-opacity:1"
           d="M 479.17619,399.63563 C 482.12909,394.26669 487.3638,391.98493 492.46427,391.98491 C 495.26846,401.22788 512.51538,414.07426 501.32299,425.40645 C 494.74668,432.06491 481.37034,416.82395 479.17619,399.63563 z"
           id="path3234"
           sodipodi:nodetypes="ccsc" />
      </g>
      <g
         style="fill:#ffff00;fill-opacity:1;stroke:#000000;stroke-opacity:1"
         transform="matrix(-1,0,0,1,1091.0471,0.4026691)"
         id="g3258">
        <path
           sodipodi:nodetypes="ccccc"
           id="path3260"
           d="M 502.53099,419.76908 C 510.99208,419.89322 511.42177,429.63748 522.26178,436.27851 L 515.81907,443.92922 C 507.72714,435.0962 498.18335,434.21068 496.49096,424.6011 L 502.53099,419.76908 z"
           style="fill:#ffff00;fill-opacity:1;fill-rule:evenodd;stroke:#000000;stroke-width:1px;stroke-linecap:butt;stroke-linejoin:miter;stroke-opacity:1" />
        <path
           sodipodi:nodetypes="csccs"
           id="path3262"
           d="M 445.35199,350.91266 C 451.3689,355.42643 456.34705,356.50712 455.82138,345.2753 C 455.44003,337.12718 464.56179,353.66059 468.70679,366.61677 L 459.84808,371.04612 C 448.51323,368.38684 438.6021,345.84901 445.35199,350.91266 z"
           style="fill:#ffff00;fill-opacity:1;fill-rule:evenodd;stroke:#000000;stroke-width:1px;stroke-linecap:butt;stroke-linejoin:miter;stroke-opacity:1" />
        <path
           sodipodi:nodetypes="cccs"
           id="path3264"
           d="M 489.24291,397.62228 C 497.31033,388.00881 473.64212,364.44401 469.9148,363.79808 C 463.93432,362.90148 455.8979,367.39199 456.62672,373.46214 C 457.9387,378.50361 481.28736,407.10245 489.24291,397.62228 z"
           style="fill:#ffff00;fill-opacity:1;fill-rule:evenodd;stroke:#000000;stroke-width:1px;stroke-linecap:butt;stroke-linejoin:miter;stroke-opacity:1" />
        <path
           sodipodi:nodetypes="ccsc"
           id="path3266"
           d="M 479.17619,399.63563 C 482.12909,394.26669 487.3638,391.98493 492.46427,391.98491 C 495.26846,401.22788 512.51538,414.07426 501.32299,425.40645 C 494.74668,432.06491 481.37034,416.82395 479.17619,399.63563 z"
           style="fill:#ffff00;fill-opacity:1;fill-rule:evenodd;stroke:#000000;stroke-width:1px;stroke-linecap:butt;stroke-linejoin:miter;stroke-opacity:1" />
      </g>
      <path
         style="fill:#ffff00;fill-opacity:1;stroke:#000000;stroke-width:0.58085059999999999;stroke-linecap:butt;stroke-linejoin:miter;stroke-miterlimit:4;stroke-dasharray:none;stroke-opacity:1"
         id="path3457"
         transform="matrix(1.4471873,0,0,2.048077,-52.462762,-469.3144)"
         d="M 437.50001,453.43362 C 437.50001,463.69034 426.62693,472.00505 413.2143,472.00505 C 399.80166,472.00505 388.92858,463.69034 388.92858,453.43362 C 388.92858,443.1769 399.80166,434.86219 413.21429,434.86219 C 426.62693,434.86219 437.50001,443.1769 437.50001,453.43362 z" />
      <g
         style="fill:#ffff00;fill-opacity:1;stroke:#000000;stroke-opacity:1"
         id="g3480">
        <path
           sodipodi:nodetypes="cccccc"
           style="fill:#ffff00;fill-opacity:1;fill-rule:evenodd;stroke:#000000;stroke-width:1px;stroke-linecap:butt;stroke-linejoin:miter;stroke-opacity:1"
           id="path3472"
           d="M 572.92501,450.05245 C 652.48425,457.59455 705.72875,405.0164 768.98885,445.09809 C 778.91946,456.40598 746.58488,494.98113 703.16653,504.19663 C 658.14333,498.96312 606.59294,493.61061 572.04774,478.48414 C 574.0615,471.85543 571.29505,468.41353 566.90306,466.05532 C 572.38647,461.59005 575.96924,456.64963 572.92501,450.05245 z" />
        <path
           d="M 572.92501,450.05245 C 652.48425,457.59455 705.72875,405.0164 768.98885,445.09809 C 778.91946,456.40598 746.58488,494.98113 703.16653,504.19663 C 658.14333,498.96312 606.59294,493.61061 572.04774,478.48414 C 574.0615,471.85543 571.29505,468.41353 566.90306,466.05532 C 572.38647,461.59005 575.96924,456.64963 572.92501,450.05245 z"
           id="path3274"
           style="fill:#ffff00;fill-opacity:1;fill-rule:evenodd;stroke:#000000;stroke-width:1px;stroke-linecap:butt;stroke-linejoin:miter;stroke-opacity:1"
           sodipodi:nodetypes="cccccc" />
        <path
           sodipodi:nodetypes="ccscc"
           style="fill:#ffff00;fill-opacity:1;fill-rule:evenodd;stroke:#000000;stroke-width:1px;stroke-linecap:butt;stroke-linejoin:miter;stroke-opacity:1"
           id="path3474"
           d="M 571.05803,475.1294 C 627.65876,483.90676 703.74674,479.35985 724.75342,512.33595 C 716.52841,542.4555 651.67895,534.20441 624.70518,516.36119 C 604.28751,502.85484 583.74908,491.35721 563.38254,486.50246 C 567.17106,482.71144 570.45498,478.92042 571.05803,475.1294 z" />
      </g>
      <g
         transform="matrix(-1,0,0,1,1090.9634,-0.8053381)"
         id="g3276"
         style="fill:#ffff00;fill-opacity:1;stroke:#000000;stroke-opacity:1">
        <path
           d="M 572.92501,450.05245 C 652.48425,457.59455 705.72875,405.0164 768.98885,445.09809 C 778.91946,456.40598 746.58488,494.98113 703.16653,504.19663 C 658.14333,498.96312 606.59294,493.61061 572.04774,478.48414 C 574.0615,471.85543 571.29505,468.41353 566.90306,466.05532 C 572.38647,461.59005 575.96924,456.64963 572.92501,450.05245 z"
           id="path3278"
           style="fill:#ffff00;fill-opacity:1;fill-rule:evenodd;stroke:#000000;stroke-width:1px;stroke-linecap:butt;stroke-linejoin:miter;stroke-opacity:1"
           sodipodi:nodetypes="cccccc" />
        <path
           sodipodi:nodetypes="cccccc"
           style="fill:#ffff00;fill-opacity:1;fill-rule:evenodd;stroke:#000000;stroke-width:1px;stroke-linecap:butt;stroke-linejoin:miter;stroke-opacity:1"
           id="path3282"
           d="M 572.92501,450.05245 C 652.48425,457.59455 705.72875,405.0164 768.98885,445.09809 C 778.91946,456.40598 746.58488,494.98113 703.16653,504.19663 C 658.14333,498.96312 606.59294,493.61061 572.04774,478.48414 C 574.0615,471.85543 571.29505,468.41353 566.90306,466.05532 C 572.38647,461.59005 575.96924,456.64963 572.92501,450.05245 z" />
        <path
           d="M 571.05803,475.1294 C 627.65876,483.90676 703.74674,479.35985 724.75342,512.33595 C 716.52841,542.4555 651.67895,534.20441 624.70518,516.36119 C 604.28751,502.85484 583.74908,491.35721 563.38254,486.50246 C 567.17106,482.71144 570.45498,478.92042 571.05803,475.1294 z"
           id="path3280"
           style="fill:#ffff00;fill-opacity:1;fill-rule:evenodd;stroke:#000000;stroke-width:1px;stroke-linecap:butt;stroke-linejoin:miter;stroke-opacity:1"
           sodipodi:nodetypes="ccscc" />
      </g>
      <path
         sodipodi:nodetypes="cc"
         id="path3284"
         d="M 505.3577,546.03532 C 526.86957,540.12942 551.72697,537.41221 585.32032,545.82177"
         style="fill:#ffff00;fill-opacity:1;fill-rule:evenodd;stroke:#000000;stroke-width:1px;stroke-linecap:butt;stroke-linejoin:miter;stroke-opacity:1" />
      <path
         sodipodi:nodetypes="cc"
         id="path3286"
         d="M 501.17643,579.51076 C 530.51442,570.33216 559.96593,571.48433 589.49357,579.56381"
         style="fill:#ffff00;fill-opacity:1;fill-rule:evenodd;stroke:#000000;stroke-width:1px;stroke-linecap:butt;stroke-linejoin:miter;stroke-opacity:1" />
      <path
         sodipodi:nodetypes="cc"
         id="path3288"
         d="M 503.77947,605.25505 C 531.60738,597.8845 559.25312,597.70995 586.70141,605.33463"
         style="fill:#ffff00;fill-opacity:1;fill-rule:evenodd;stroke:#000000;stroke-width:1px;stroke-linecap:butt;stroke-linejoin:miter;stroke-opacity:1" />
      <path
         sodipodi:nodetypes="cc"
         id="path3290"
         d="M 511.40576,628.80527 C 537.4114,619.82409 558.73972,623.19428 579.3089,628.85203"
         style="fill:#ffff00;fill-opacity:1;fill-rule:evenodd;stroke:#000000;stroke-width:1px;stroke-linecap:butt;stroke-linejoin:miter;stroke-opacity:1" />
    </g>
  </g>
</svg>
