<?xml version="1.0" encoding="UTF-8" standalone="no"?>
<!-- Created with Inkscape (http://www.inkscape.org/) -->

<svg
   xmlns:dc="http://purl.org/dc/elements/1.1/"
   xmlns:cc="http://creativecommons.org/ns#"
   xmlns:rdf="http://www.w3.org/1999/02/22-rdf-syntax-ns#"
   xmlns:svg="http://www.w3.org/2000/svg"
   xmlns="http://www.w3.org/2000/svg"
   xmlns:sodipodi="http://sodipodi.sourceforge.net/DTD/sodipodi-0.dtd"
   xmlns:inkscape="http://www.inkscape.org/namespaces/inkscape"
   id="svg4699"
   version="1.1"
   inkscape:version="0.48.4 r9939"
   width="693.3"
   height="432.9375"
   xml:space="preserve"
   sodipodi:docname="Bird Tribal Style.svg"><metadata
     id="metadata4705"><rdf:RDF><cc:Work
         rdf:about=""><dc:format>image/svg+xml</dc:format><dc:type
           rdf:resource="http://purl.org/dc/dcmitype/StillImage" /><dc:title /></cc:Work></rdf:RDF></metadata><defs
     id="defs4703" /><sodipodi:namedview
     pagecolor="#ffffff"
     bordercolor="#666666"
     borderopacity="1"
     objecttolerance="10"
     gridtolerance="10"
     guidetolerance="10"
     inkscape:pageopacity="0"
     inkscape:pageshadow="2"
     inkscape:window-width="2560"
     inkscape:window-height="1378"
     id="namedview4701"
     showgrid="false"
     inkscape:zoom="2.6886098"
     inkscape:cx="404.82409"
     inkscape:cy="210.12146"
     inkscape:window-x="-8"
     inkscape:window-y="-8"
     inkscape:window-maximized="1"
     inkscape:current-layer="g4707" /><g
     id="g4707"
     inkscape:groupmode="layer"
     inkscape:label="birdsv3"
     transform="matrix(1.25,0,0,-1.25,0,432.9375)"><path
       inkscape:connector-curvature="0"
       id="path4711"
       style="fill:none;stroke:#000000;stroke-opacity:1;stroke-width:0.14;stroke-miterlimit:4;stroke-dasharray:none"
       d="m 219.5052,177.2568 c 0,0 18.51288,13.14384 2.77704,43.68936 0,0 13.3284,-7.59 13.69872,-21.84552 -0.92544,-13.3284 -16.47576,-21.84384 -16.47576,-21.84384" /><path
       inkscape:connector-curvature="0"
       id="path4715"
       style="fill:none;stroke:#000000;stroke-opacity:1;stroke-width:0.14;stroke-miterlimit:4;stroke-dasharray:none"
       d="m 212.28552,176.51712 c 7.96032,42.20808 -11.10744,63.49728 -11.10744,63.49728 0,0 34.80288,-17.77248 11.10744,-63.49728" /><path
       inkscape:connector-curvature="0"
       id="path4719"
       style="fill:none;stroke:#000000;stroke-opacity:1;stroke-width:0.14;stroke-miterlimit:4;stroke-dasharray:none"
       d="m 205.24968,174.85128 c 5.4048,46.41744 -16.10448,78.12072 -16.10448,78.12072 l -20.91936,10.368 c 0,0 28.69416,-22.0296 37.02384,-88.48872" /><path
       inkscape:connector-curvature="0"
       id="path4723"
       style="fill:none;stroke:#000000;stroke-opacity:1;stroke-width:0.14;stroke-miterlimit:4;stroke-dasharray:none"
       d="m 195.43872,173.37 c 5.16288,27.20352 -32.76648,92.1924 -32.76648,92.1924 -14.44032,14.4408 -44.24448,17.4024 -44.24448,17.4024 0,0 51.28776,-20.364 77.01096,-109.5948" /><path
       inkscape:connector-curvature="0"
       id="path4727"
       style="fill:none;stroke:#000000;stroke-opacity:1;stroke-width:0.14;stroke-miterlimit:4;stroke-dasharray:none"
       d="m 186.01512,171.94776 c -6.49992,35.25 -25.87512,65.87544 -46.75032,86.75064 -38.62512,40.5 -78.75,35.2488 -78.75,35.2488 0,0 88.3752,-27.3744 125.50032,-121.99944" /><path
       inkscape:connector-curvature="0"
       id="path4731"
       style="fill:none;stroke:#000000;stroke-opacity:1;stroke-width:0.14;stroke-miterlimit:4;stroke-dasharray:none"
       d="M 176.26512,177.44808 C 159.27552,225.33648 116.28,260.2104 77.01096,278.9472 26.5152,305.1984 0.015,300.6984 0.015,300.6984 c 0,0 132.75012,-41.7504 176.25012,-123.25032" /><path
       inkscape:connector-curvature="0"
       id="path4735"
       style="fill:none;stroke:#000000;stroke-opacity:1;stroke-width:0.14;stroke-miterlimit:4;stroke-dasharray:none"
       d="m 242.4024,129.06288 c 0,0 36.4488,-22.94064 51.8832,-22.94064 27.8736,-1.28712 50.8128,23.58288 50.8128,23.58288 0,0 -28.944,-24.0132 -102.696,-0.64224" /><path
       inkscape:connector-curvature="0"
       id="path4739"
       style="fill:none;stroke:#000000;stroke-opacity:1;stroke-width:0.14;stroke-miterlimit:4;stroke-dasharray:none"
       d="m 229.7532,145.14192 c 0,0 0.2136,0.85584 23.5836,-3.00192 23.3712,-3.85776 36.6624,-14.79288 58.3152,-14.79288 28.0872,0 54.6744,27.44256 54.6744,27.44256 0,0 1.5,-2.78808 -17.796,-7.29 -19.2984,-4.50192 -27.228,-7.07448 -67.7496,-2.78616 -22.2984,2.57232 -51.0276,0.4284 -51.0276,0.4284" /><path
       inkscape:connector-curvature="0"
       id="path4743"
       style="fill:none;stroke:#000000;stroke-opacity:1;stroke-width:0.14;stroke-miterlimit:4;stroke-dasharray:none"
       d="m 205.51512,154.69776 c 0,0 21,4.5 56.50008,4.5 49.6896,-3.03936 58.2,-2.37 83.4984,-0.49968 52.9944,3.34872 67.0008,33 67.0008,33 0,0 -17.496,-12.28776 -54.4344,-17.22 -33.0168,-2.65776 -68.7408,-2.83776 -94.5648,-4.78032 -22.5552,-2.5536 -58.00008,-15 -58.00008,-15" /><path
       inkscape:connector-curvature="0"
       id="path4747"
       style="fill:none;stroke:#000000;stroke-opacity:1;stroke-width:0.14;stroke-miterlimit:4;stroke-dasharray:none"
       d="m 221.82288,171.39 c 0,0 21.02832,6.94872 48.77472,8.8932 47.9688,1.34712 71.1432,-0.27 112.9104,7.54488 53.6256,9.97032 74.6448,48.77544 74.6448,48.77544 0,0 -20.3856,-21.55872 -66.0216,-29.64288 -40.6896,-9.43128 -94.8552,-10.7784 -116.4144,-15.63 C 248.232,184.86384 221.82288,171.39 221.82288,171.39" /><path
       inkscape:connector-curvature="0"
       id="path4751"
       style="fill:none;stroke:#000000;stroke-opacity:1;stroke-width:0.14;stroke-miterlimit:4;stroke-dasharray:none"
       d="m 247.248,187.83384 c 0,0 7.8984,7.75968 27.9504,12.06168 32.1072,3.9732 96.156,8.93736 141.6696,24.82608 48.3288,13.57128 73.8144,56.9328 73.8144,56.9328 0,0 -12.5784,-12.5976 -45.6768,-29.1288 -24.1656,-15.06048 -87.72,-28.46688 -108.24,-30.45144 C 256.0008,204.8616 247.248,187.83384 247.248,187.83384" /><path
       inkscape:connector-curvature="0"
       id="path4755"
       style="fill:none;stroke:#000000;stroke-opacity:1;stroke-width:0.14;stroke-miterlimit:4;stroke-dasharray:none"
       d="m 255.6912,201.52968 c 0,0 33.012,21.18 56.7744,28.55544 58.1184,15.79008 110.5248,17.13408 150.1656,44.34528 47.0328,30.9048 66.1824,71.8896 66.1824,71.8896 0,0 -18.8136,-26.5392 -53.7504,-45.6864 -44.6808,-29.5632 -117.5808,-43.6728 -138.0744,-50.3928 -49.3824,-14.44464 -81.2976,-48.71112 -81.2976,-48.71112" /><path
       inkscape:connector-curvature="0"
       id="path4759"
       style="fill:none;stroke:#000000;stroke-opacity:1;stroke-width:0.14;stroke-miterlimit:4;stroke-dasharray:none"
       d="m 131.7468,114.1068 c 0,0 -26.56296,2.12544 -34.00032,-9.82872 0,20.45352 19.14,22.3716 19.14,22.3716 0,0 3.27672,-3.93936 13.79736,-4.30872 1.59456,0 1.06296,-8.23416 1.06296,-8.23416" /><path
       inkscape:connector-curvature="0"
       id="path4763"
       style="fill:none;stroke:#000000;stroke-opacity:1;stroke-width:0.14;stroke-miterlimit:4;stroke-dasharray:none"
       d="m 231.35616,91.52808 c 0,0 -14.8752,9.29712 -23.64,13.28064 -39.84456,18.59544 -72.51648,8.76648 -72.51648,8.76648 0,0 -0.1332,9.69576 -1.86,11.4216 -1.72584,1.72704 -14.87448,4.24968 -14.87448,4.24968 0,0 3.98448,12.48576 17.66352,21.91512 19.65744,15.4068 79.29,19.25712 79.29,19.25712 0,0 -19.78872,-13.5468 -21.78096,-18.59256 14.34288,0 31.60872,-6.90744 31.60872,-6.90744 0,0 -5.3568,-1.32648 -18.32712,-7.17192 11.95224,0 28.42128,-7.43712 28.42128,-7.43712 0,0 -16.36968,-0.96288 -20.45256,-5.04648 20.98416,-3.71904 32.40552,-19.39128 32.40552,-19.39128 0,0 -13.002,11.66712 -34.53072,9.82872 -5.84352,0 -11.68776,3.18744 -11.68776,3.18744 13.40328,-14.65488 30.28104,-27.36 30.28104,-27.36" /><path
       inkscape:connector-curvature="0"
       id="path4767"
       style="fill:none;stroke:#000000;stroke-opacity:1;stroke-width:0.14;stroke-miterlimit:4;stroke-dasharray:none"
       d="m 164.34288,143.72448 c 0,0 -8.63736,2.622 -14.80776,0 -4.47384,-0.9264 -13.42128,-7.09608 -13.42128,-7.09608 l 9.25584,0 c 0,0 2.4684,-5.7084 7.25064,-4.6284 4.78032,1.08 5.24352,4.32 5.24352,4.32 l -3.16224,3.16224 9.64128,4.24224" /><path
       inkscape:connector-curvature="0"
       id="path4771"
       style="fill:none;stroke:#000000;stroke-opacity:1;stroke-width:0.14;stroke-miterlimit:4;stroke-dasharray:none"
       d="m 324.084,46.0668 c 0,0 -12.5328,-0.27264 -27.2424,4.3584 -23.1576,5.99352 -43.8624,20.97576 -69.19776,37.5948 -12.25968,8.44584 -41.68224,19.61616 -41.68224,19.61616 0,0 21.79392,-11.442 31.32936,-20.97744 12.66744,-9.39936 38.68584,-29.69424 56.11944,-34.59936 25.608,-8.99064 50.6736,-5.99256 50.6736,-5.99256" /><path
       inkscape:connector-curvature="0"
       id="path4775"
       style="fill:none;stroke:#000000;stroke-opacity:1;stroke-width:0.14;stroke-miterlimit:4;stroke-dasharray:none"
       d="m 316.728,54.78384 c -46.0416,1.09032 -94.8048,53.66808 -94.8048,53.66808 l 45.768,-11.44128 -21.3864,21.3852 c 0,0 29.2104,-22.74936 54.3504,-22.74936 25.1928,2.72544 35.28,13.48968 39.228,17.43672 22.512,-20.37288 50.4,-32.96352 50.4,-32.96352 0,0 -25.68,4.38096 -26.6976,1.90584 -1.332,-5.4852 43.5864,-20.43072 43.5864,-20.43072 0,0 -18.6312,3.46296 -47.1288,13.89168 -6.2664,1.09032 -6.6432,1.09032 -14.9832,1.09032 -1.2768,-2.59584 13.3488,-7.90032 13.3488,-7.90032 0,0 -15.5976,-0.0684 -18.1848,-0.88488 -2.724,-2.72256 7.0152,-14.91576 7.0152,-14.91576 0,0 -24.516,22.61064 -52.3056,12.25968 0,0 10.6248,-5.17584 21.7944,-10.35168" /><path
       inkscape:connector-curvature="0"
       id="path4779"
       style="fill:none;stroke:#000000;stroke-opacity:1;stroke-width:0.14;stroke-miterlimit:4;stroke-dasharray:none"
       d="m 328.2912,43.72032 c 0,0 23.952,-31.215 40.9056,-38.75064 12.3768,-6.1893672 25.0248,-3.7678056 25.0248,-3.7678056 C 378.3456,5.508744 328.2912,43.72032 328.2912,43.72032" /><path
       inkscape:connector-curvature="0"
       id="path4783"
       style="fill:none;stroke:#000000;stroke-opacity:1;stroke-width:0.14;stroke-miterlimit:4;stroke-dasharray:none"
       d="m 308.916,64.44 c 0,0 56.5128,-33.09936 78.3096,-50.052192 37.404,-25.56468 54.3576,-9.150936 54.3576,-9.150936 0,0 -10.764,-0.537192 -32.0232,8.611872 C 349.0128,46.14192 308.916,64.44 308.916,64.44" /><path
       inkscape:connector-curvature="0"
       id="path4787"
       style="fill:none;stroke:#000000;stroke-opacity:1;stroke-width:0.14;stroke-miterlimit:4;stroke-dasharray:none"
       d="m 389.2896,43.72032 c -24.0672,11.03256 -41.6232,15.33744 -41.6232,15.33744 0,0 11.8416,-5.38128 28.7952,-15.87648 16.9536,-10.49544 13.452,-11.84064 58.6632,-28.793472 33.9048,-12.5137464 55.704,0.269064 55.704,0.269064 0,0 -11.0328,1.076256 -19.644,2.422512 -16.416,0 -66.1992,19.520616 -81.8952,26.640936" /><path
       inkscape:connector-curvature="0"
       id="path4791"
       style="fill:none;stroke:#000000;stroke-opacity:1;stroke-width:0.14;stroke-miterlimit:4;stroke-dasharray:none"
       d="m 448.032,45.29808 c -18.4008,6.25968 -84.7584,21.56352 -84.7584,21.56352 0,0 5.3832,-5.38224 42.2496,-19.10448 15.4536,-5.532 20.8752,-12.6516 62.0208,-21.21096 60.204,-12.215544 87.06,17.4432 87.06,17.4432 0,0 -29.2272,-13.35744 -49.8696,-11.20488 -15.5256,2.89488 -23.5944,1.24776 -56.7024,12.5136" /><path
       inkscape:connector-curvature="0"
       id="path4795"
       style="fill:none;stroke:#000000;stroke-opacity:1;stroke-width:0.14;stroke-miterlimit:4;stroke-dasharray:none"
       d="m 378.3456,77.35584 c 0,0 51.6648,-15.06744 89.6088,-29.86872 29.0616,-8.34192 43.3224,-7.26456 54.3576,-2.6916 11.0328,4.57416 19.644,15.87768 19.644,15.87768 0,0 -17.4696,-12.08808 -34.176,-10.22544 -20.9904,2.69064 -24.7584,7.53288 -50.052,15.3384 -25.296,7.8048 -79.3824,11.56968 -79.3824,11.56968" /></g></svg>