<?xml version="1.0" encoding="UTF-8" standalone="no"?>
<!-- Created with Inkscape (http://www.inkscape.org/) -->

<svg
   xmlns:dc="http://purl.org/dc/elements/1.1/"
   xmlns:cc="http://creativecommons.org/ns#"
   xmlns:rdf="http://www.w3.org/1999/02/22-rdf-syntax-ns#"
   xmlns:svg="http://www.w3.org/2000/svg"
   xmlns="http://www.w3.org/2000/svg"
   xmlns:sodipodi="http://sodipodi.sourceforge.net/DTD/sodipodi-0.dtd"
   xmlns:inkscape="http://www.inkscape.org/namespaces/inkscape"
   id="svg95015"
   version="1.1"
   inkscape:version="0.48.1 "
   width="351.7375"
   height="227.4625"
   xml:space="preserve"
   sodipodi:docname="Black Dragon.pdf"><metadata
     id="metadata95021"><rdf:RDF><cc:Work
         rdf:about=""><dc:format>image/svg+xml</dc:format><dc:type
           rdf:resource="http://purl.org/dc/dcmitype/StillImage" /><dc:title></dc:title></cc:Work></rdf:RDF></metadata><defs
     id="defs95019" /><sodipodi:namedview
     pagecolor="#ffffff"
     bordercolor="#666666"
     borderopacity="1"
     objecttolerance="10"
     gridtolerance="10"
     guidetolerance="10"
     inkscape:pageopacity="0"
     inkscape:pageshadow="2"
     inkscape:window-width="1366"
     inkscape:window-height="706"
     id="namedview95017"
     showgrid="false"
     inkscape:zoom="1.2793318"
     inkscape:cx="175.86874"
     inkscape:cy="113.73125"
     inkscape:window-x="-8"
     inkscape:window-y="-8"
     inkscape:window-maximized="1"
     inkscape:current-layer="g95023" /><g
     id="g95023"
     inkscape:groupmode="layer"
     inkscape:label="Black Dragon"
     transform="matrix(1.25,0,0,-1.25,0,227.4625)"><g
       id="g95025"
       transform="scale(0.24,0.24)"><path
         d="m 709.336,54.8594 0,0 0.684,-1.6172 c 3.191,-10.3555 2.312,-21.6914 -2.434,-31.293 C 704.316,15.0859 700.508,8.5625 696.211,2.42578 696.008,1.88672 695.922,1.30469 695.949,0.714844 696,0.316406 696.301,0.0234375 696.668,0 c 0.496,0.0234375 0.977,0.222656 1.367,0.5625 7.453,5.36328 14.051,12.0273 19.547,19.7344 4.836,7.3242 8.211,15.6992 9.891,24.5703 -0.133,2.1172 0.402,4.2187 1.519,5.9609 2.031,2.2969 4.141,4.5078 6.324,6.6446 3.204,2.5078 5.426,6.2656 6.207,10.5078 -0.21,3.3125 -0.878,6.5664 -1.968,9.6562 -0.481,1.461 -1.606,2.5547 -2.973,2.9063 -0.914,0.2031 -1.82,0.457 -2.715,0.7578 l -1.426,0.289 c -1.461,0.5313 -2.699,1.6407 -3.484,3.0938 l -0.656,1.5859 c -1.137,3.4532 -3.356,6.3438 -6.242,8.1875 -1.008,0.2735 -2.036,0.5039 -3.059,0.711 -7.512,-0.0586 -15.023,-0.1485 -22.527,-0.2539 -5.055,-0.875 -10.215,0.3437 -14.485,3.4257 -6,8.9182 -5.07,21.3482 2.172,29.0702 l 1.242,3.387 c 1.434,5.695 3.391,11.211 5.825,16.488 7.386,13.629 13.578,27.992 18.496,42.918 5.41,7.543 9.859,15.867 13.238,24.731 1.812,7.519 4.512,14.754 8.012,21.515 4.535,9.067 12.023,15.906 20.953,19.153 2.472,0.527 4.933,1.105 7.387,1.722 1.089,0.309 2.027,1.11 2.574,2.196 0.199,0.757 -0.059,1.582 -0.645,2.046 -2.203,1.641 -4.621,2.922 -7.164,3.793 -0.512,0.153 -0.949,0.504 -1.25,0.981 -0.254,0.668 -0.098,1.445 0.387,1.93 1.519,1.515 3.098,2.937 4.73,4.273 5.746,3.305 11.778,5.957 18.008,7.902 5.559,1.758 11.34,2.598 17.125,2.485 0.512,0.07 0.985,0.3 1.375,0.668 0.172,0.168 0.215,0.445 0.082,0.656 -0.234,0.398 -0.594,0.707 -1,0.871 -2.328,0.582 -4.68,1.043 -7.047,1.367 -5.992,0.887 -11.945,1.988 -17.863,3.285 -1.168,0.164 -2.305,0.481 -3.395,0.95 -0.617,0.257 -0.941,1.007 -0.746,1.714 0.168,0.61 0.504,1.157 0.957,1.571 12.567,8.609 26.856,13.695 41.625,14.808 0.907,0.028 1.801,0.196 2.664,0.485 l 0.438,0.363 c 0.234,0.285 0.227,0.723 -0.016,1.004 -0.441,0.461 -0.968,0.812 -1.547,1.016 -3.433,1.007 -6.828,2.164 -10.179,3.457 -9.465,0.906 -18.988,1.05 -28.469,0.425 -2.367,-0.781 -4.727,-1.593 -7.07,-2.433 -1.348,-0.383 -2.742,0.363 -3.285,1.773 -0.247,0.738 -0.125,1.563 0.324,2.172 3.039,4.231 5.859,8.66 8.429,13.254 0.829,1.996 1.79,3.934 2.875,5.781 4.602,4.465 8.747,9.488 12.344,14.965 0.367,0.441 0.625,0.961 0.774,1.531 0.039,0.18 0.007,0.367 -0.09,0.52 -0.098,0.156 -0.246,0.262 -0.406,0.277 -0.489,0.082 -0.985,0.008 -1.434,-0.211 -1.75,-0.847 -3.434,-1.84 -5.039,-2.969 -9.699,-8.976 -19.172,-18.246 -28.426,-27.785 -1.09,-1.359 -2.34,-2.547 -3.726,-3.531 -0.731,-0.555 -1.711,-0.523 -2.418,0.074 -0.707,0.664 -1.231,1.535 -1.496,2.52 -0.54,5.617 -1.34,11.207 -2.418,16.726 -0.082,0.625 -0.34,1.211 -0.723,1.676 -0.317,0.313 -0.781,0.332 -1.113,0.055 -0.434,-0.445 -0.719,-1.047 -0.801,-1.692 -0.367,-7.46 -2.535,-14.671 -6.293,-20.898 -6.336,-7.234 -15.367,-10.836 -24.453,-9.75 -4.621,-0.352 -9.18,1.348 -12.66,4.703 -3.485,3.356 -5.61,8.106 -5.895,13.192 0.043,7.863 2.688,15.437 7.445,21.3 8.239,9.203 18.161,16.379 29.106,21.043 13.004,5.805 26.601,9.809 40.5,11.907 12.515,2.304 25.351,1.285 37.437,-2.989 20.18,-5.148 37.391,-19.562 47.27,-39.605 4.113,-8.016 5.84,-17.246 4.926,-26.391 -0.024,-2.871 -0.555,-5.715 -1.555,-8.359 -2.789,-4.778 -5.352,-9.719 -7.691,-14.781 -11.348,-17.715 -24.836,-33.665 -40.079,-47.395 -18.953,-16.055 -30.738,-40.285 -32.351,-66.535 -3.262,-24.578 7.133,-48.918 26.402,-61.856 15.938,-13.1442 35.758,-19.2613 55.582,-17.1559 16.121,1.0196 31.91,5.4849 46.481,13.1519 14.824,7.079 27.633,18.434 37.082,32.86 8.488,9.027 16.129,18.969 22.804,29.687 3.75,11.043 7.696,21.996 11.836,32.868 5.578,21.625 9.34,43.769 11.219,66.156 1.965,8.707 3.758,17.472 5.363,26.277 3.903,18.692 14.146,35.043 28.656,45.688 1.07,0.609 2.06,1.382 2.92,2.297 0.37,0.378 0.56,0.91 0.55,1.464 -0.01,0.551 -0.23,1.063 -0.61,1.43 -0.51,0.316 -1.1,0.473 -1.68,0.457 -3.05,-0.043 -6.12,0.008 -9.16,0.152 -0.5,0.075 -0.97,0.36 -1.29,0.782 -0.87,1.304 -0.89,3.062 -0.07,4.379 7.58,11.183 16.25,21.402 25.86,30.496 9.69,7.031 18.79,14.98 27.23,23.754 7.96,4.605 15.86,9.308 23.73,14.121 1.2,0.461 2.37,1.031 3.48,1.707 0.1,0.086 0.16,0.226 0.15,0.367 0,0.16 -0.07,0.301 -0.19,0.391 l -1.26,0.507 c -14.43,3.305 -29.46,0.594 -42.18,-7.609 -0.56,-0.273 -1.18,-0.371 -1.8,-0.297 -0.43,0.055 -0.81,0.344 -1.02,0.766 -0.2,0.582 -0.2,1.222 -0.01,1.804 0.64,2.18 1.59,4.231 2.83,6.079 6.26,6.285 12.64,12.445 19.12,18.453 8.9,8.379 18.71,15.523 29.19,21.273 7.71,3.766 15.46,7.445 23.25,11.031 7.05,3.84 14.57,6.481 22.34,7.832 1.02,0.274 2,0.707 2.91,1.286 0.37,0.269 0.6,0.714 0.63,1.199 -0.04,0.75 -0.56,1.363 -1.24,1.468 -2.18,0.211 -4.35,0.301 -6.52,0.27 -8.64,1.137 -17.42,-0.047 -25.55,-3.441 -8.23,-0.344 -16.32,-2.403 -23.84,-6.063 -1.17,-0.66 -2.41,-1.164 -3.68,-1.512 -0.75,-0.175 -1.52,0.301 -1.75,1.114 -0.25,0.906 -0.1,1.89 0.39,2.675 2.01,2.875 4.15,5.633 6.44,8.254 15.42,15.348 32.56,28.485 50.99,39.094 10.58,5.465 21.47,10.195 32.59,14.168 0.79,0.367 1.54,0.863 2.18,1.469 0.09,0.094 0.13,0.215 0.12,0.344 0,0.105 -0.06,0.203 -0.14,0.253 -0.39,0.192 -0.82,0.282 -1.25,0.254 -27.82,-2.195 -54.54,-12.875 -77.16,-30.839 -9.8,-7.594 -19.3,-15.665 -28.46,-24.184 -2.75,-3.34 -5.5,-6.688 -8.23,-10.051 -0.16,-0.148 -0.38,-0.242 -0.59,-0.262 -0.18,-0.011 -0.35,0.047 -0.48,0.176 -0.33,0.336 -0.55,0.797 -0.61,1.293 -0.63,6.934 0.38,13.922 2.96,20.293 l 14.64,29.57 c 0.69,1.024 1.18,2.184 1.44,3.415 0.01,0.253 -0.11,0.484 -0.32,0.593 -0.28,0.141 -0.6,0.141 -0.87,-0.004 -2.04,-1.484 -3.87,-3.273 -5.44,-5.32 -6.56,-6.668 -12.05,-14.5 -16.26,-23.168 -5.58,-6.777 -10.06,-14.551 -13.27,-22.996 -4.79,-11.645 -8.52,-23.789 -11.13,-36.258 l -0.38,-0.773 c -0.28,-0.371 -0.72,-0.551 -1.15,-0.473 -0.75,0.25 -1.35,0.887 -1.57,1.715 -0.47,2.504 -0.63,5.07 -0.46,7.621 1.05,9.316 2.17,18.617 3.38,27.914 0.15,1.317 0.21,2.649 0.17,3.981 -0.05,0.336 -0.2,0.64 -0.44,0.851 -0.17,0.145 -0.4,0.149 -0.57,0.012 l -1.3,-1.871 c -5.16,-10.031 -9.82,-20.36 -13.97,-30.949 -6.38,-15.235 -11.546,-31.055 -15.406,-47.286 -0.152,-0.461 -0.429,-0.859 -0.785,-1.152 -0.172,-0.148 -0.426,-0.141 -0.59,0.031 -0.41,0.414 -0.707,0.946 -0.851,1.532 -2.157,8.023 -2.289,16.531 -0.383,24.621 0.176,0.589 0.269,1.203 0.277,1.824 -0.027,0.18 -0.101,0.351 -0.23,0.473 -0.102,0.105 -0.242,0.156 -0.391,0.144 -0.48,-0.117 -0.883,-0.437 -1.144,-0.894 -8.504,-17.149 -14.219,-35.805 -16.864,-55.125 -1.879,-4.094 -2.855,-8.618 -2.84,-13.208 -1.21,-12.054 -1.839,-24.171 -1.875,-36.304 -0.078,-12.688 -0.898,-25.36 -2.46,-37.938 -0.418,-8.804 -1.11,-17.605 -2.063,-26.359 -1.445,-9.336 -2.734,-18.703 -3.836,-28.094 -1.844,-15.144 -6.437,-29.734 -13.523,-42.89 -8.852,-16.711 -19.844,-31.942 -32.641,-45.204 -15.883,-12.73 -33.566,-22.48 -52.34,-28.859 -11.168,-4.523 -23.43,-4.508 -34.59,0.043 -8.39,4.523 -15.89,10.824 -22.078,18.527 -5.117,4.672 -9.07,10.703 -11.484,17.516 -0.926,2.277 -1.258,4.805 -0.949,7.273 0.066,0.864 0.57,1.622 1.3,1.946 0.723,0.336 1.563,0.187 2.164,-0.375 3.34,-3.36 6.731,-6.653 10.18,-9.871 2.824,-2.758 6.027,-5.004 9.485,-6.68 0.195,-0.047 0.386,-0.031 0.566,0.074 0.172,0.09 0.305,0.254 0.375,0.449 0.172,0.52 0.172,1.086 0.008,1.606 -3.391,9.223 -7.242,18.23 -11.52,26.996 -4.918,17.609 0.488,36.734 13.606,48.176 0.422,0.433 0.937,0.742 1.488,0.906 0.449,0.082 0.902,-0.113 1.187,-0.504 l 0.415,-0.797 c 0.269,-0.644 0.492,-1.312 0.644,-1.996 1.457,-8.461 2.816,-16.949 4.086,-25.445 0.145,-0.684 0.441,-1.328 0.852,-1.871 0.46,-0.735 1.312,-1.039 2.066,-0.727 0.922,0.539 1.641,1.418 2.031,2.465 2.684,12.805 7.43,24.961 14.004,35.922 4.602,7.535 8.219,15.746 10.742,24.383 0.301,1.082 0.801,2.074 1.473,2.925 0.617,0.657 1.547,0.801 2.301,0.36 0.504,-0.391 0.965,-0.856 1.347,-1.375 4.032,-9.094 7.094,-18.676 9.121,-28.555 0.098,-0.285 0.262,-0.535 0.469,-0.742 0.141,-0.121 0.313,-0.176 0.492,-0.152 0.497,0.046 0.934,0.39 1.157,0.879 0.375,0.761 0.664,1.57 0.851,2.41 4.793,9.894 8.633,20.32 11.461,31.086 1.254,11.519 1.301,23.168 0.137,34.699 -0.43,1.301 -0.676,2.676 -0.734,4.062 0.05,0.891 0.546,1.692 1.289,2.067 0.793,0.316 1.683,0.156 2.347,-0.426 7.067,-6.453 13.137,-14.121 17.981,-22.703 0.308,-0.649 0.765,-1.203 1.316,-1.621 0.18,-0.129 0.399,-0.196 0.621,-0.188 0.172,0.016 0.324,0.117 0.422,0.262 0.27,0.449 0.406,0.961 0.399,1.496 0.597,10.793 -0.411,21.617 -2.973,32.055 -6.676,19.039 -17.102,36.218 -30.531,50.304 -1.231,0.692 -2.411,1.504 -3.524,2.418 -0.711,0.582 -1.097,1.536 -1.027,2.512 0.215,1.074 0.937,1.938 1.887,2.262 11.363,2.344 23.113,0.644 33.546,-4.84 0.539,-0.285 1.118,-0.465 1.707,-0.512 0.223,0 0.418,0.153 0.497,0.371 0.101,0.262 0.078,0.547 -0.063,0.774 l -1.414,1.597 c -10.828,8.489 -22.465,15.625 -34.711,21.29 -5.223,3.042 -10.742,5.417 -16.453,7.078 -10.637,3.14 -21.719,3.922 -32.633,2.297 -1.336,-0.067 -2.516,0.941 -2.785,2.375 -0.27,1.441 0.449,2.89 1.691,3.41 2.223,1.058 4.461,2.058 6.723,3.019 3.762,2.02 7.273,4.539 10.449,7.535 1.344,0.938 2.953,1.286 4.516,0.942 7.437,-1.528 14.953,-2.571 22.5,-3.129 9.64,2.457 19.758,0.91 28.406,-4.363 7.106,-6.106 13.883,-12.649 20.313,-19.598 0.863,-1.367 1.796,-2.668 2.808,-3.906 0.387,-0.504 0.949,-0.813 1.555,-0.852 0.437,0 0.82,0.317 0.933,0.77 l -0.019,1.742 c -0.734,10.613 -4.766,20.633 -11.414,28.371 -0.586,0.57 -1.086,1.25 -1.465,2 -0.246,0.527 -0.305,1.141 -0.16,1.719 0.691,1.765 2.43,2.734 4.141,2.304 8.574,-1.617 16.957,-4.3 24.992,-8.011 0.804,-0.446 1.722,-0.602 2.621,-0.453 0.488,0.007 0.949,0.25 1.258,0.667 0.14,0.161 0.211,0.364 0.211,0.594 0,0.266 -0.079,0.543 -0.219,0.774 -10.473,11.535 -23.399,20.027 -37.598,24.707 -0.676,0.136 -1.312,0.441 -1.863,0.894 -0.961,0.688 -1.277,2.074 -0.731,3.18 0.356,0.625 0.836,1.156 1.391,1.57 9.938,4.668 20.184,8.469 30.652,11.387 0.207,0.074 0.344,0.281 0.336,0.519 0,0.27 -0.129,0.512 -0.343,0.641 -0.547,0.324 -1.129,0.578 -1.731,0.766 -6.926,0.625 -13.809,1.691 -20.621,3.191 l -2.973,-0.238 c -2.953,-0.602 -5.949,-0.899 -8.949,-0.871 -7.07,-1.832 -14.363,-2.477 -21.609,-1.895 -1.188,0.09 -2.227,0.926 -2.676,2.141 -0.176,0.433 -0.152,0.937 0.062,1.344 l 1.125,1.16 c 1.84,1.91 3.598,3.898 5.29,5.965 1.636,1.546 3.226,3.148 4.761,4.808 0.137,0.196 0.223,0.446 0.223,0.696 0,0.183 -0.086,0.359 -0.215,0.472 -0.406,0.317 -0.887,0.492 -1.383,0.496 -10.211,-0.801 -20.41,-1.879 -30.582,-3.246 -4.508,0.844 -9.035,1.621 -13.566,2.324 -12.051,3.457 -24.024,7.223 -35.906,11.305 -7.555,0.352 -15.079,1.059 -22.575,2.121 -11.066,-0.07 -22.105,1.242 -32.898,3.906 -0.699,0.247 -1.395,0.543 -2.063,0.875 -0.324,0.164 -0.625,0.364 -0.902,0.606 -1.516,1.223 -2.816,2.715 -3.875,4.422 -2.57,4.504 -2.156,10.328 1.008,14.344 1.336,1.121 2.648,2.273 3.937,3.445 0.907,0.773 1.536,1.875 1.778,3.097 0.468,3.473 0.656,6.981 0.547,10.485 -0.051,2.902 1.511,5.539 3.937,6.664 3.012,1.004 6.008,2.043 8.996,3.129 3.024,0.894 5.391,3.488 6.231,6.812 0.839,3.325 0.023,6.879 -2.149,9.371 -7.351,6.778 -17.172,9.352 -26.504,6.922 -2.386,-1.043 -4.984,-1.351 -7.523,-0.906 -14.649,3.809 -30.063,-0.711 -41.039,-12.043 -0.414,-0.379 -0.762,-0.844 -1.043,-1.351 -0.172,-0.434 -0.18,-0.918 -0.02,-1.356 0.121,-0.328 0.395,-0.551 0.711,-0.574 l 2.461,0.359 c 5.856,1.488 11.922,1.832 17.887,0.996 5.531,0.356 10.976,-1.687 15.168,-5.679 0.555,-0.649 0.719,-1.606 0.402,-2.434 -0.297,-0.73 -0.691,-1.406 -1.183,-2 -3.254,-3.262 -5.012,-7.953 -4.801,-12.785 l 0.172,-1.66 c 0.254,-1.106 0.238,-2.27 -0.028,-3.379 -1.168,-3.492 -1.781,-7.192 -1.793,-10.918 -0.043,-0.871 -0.523,-1.649 -1.238,-2.016 -0.879,-0.394 -1.801,-0.66 -2.746,-0.781 -0.566,-0.02 -1.121,0.172 -1.574,0.543 -0.649,0.547 -1.223,1.187 -1.731,1.898 -2.144,3.243 -4.961,5.883 -8.215,7.707 -1.859,1.516 -4.167,2.204 -6.472,1.938 -0.555,-0.145 -1.024,-0.531 -1.301,-1.082 -1.082,-2.277 -2.434,-4.379 -4.012,-6.274 -0.863,-1.14 -2.156,-1.785 -3.507,-1.714 -5.731,0.558 -11.434,-1.317 -15.942,-5.235 -1.516,-0.851 -2.73,-2.238 -3.437,-3.937 l -0.446,-1.684 c -4.109,-7.672 -6.48,-16.312 -6.918,-25.207 -0.058,-0.539 0.008,-1.082 0.18,-1.598 0.059,-0.144 0.18,-0.25 0.324,-0.261 0.18,-0.02 0.352,0.058 0.481,0.191 0.554,0.754 1.043,1.563 1.449,2.422 3.004,9.586 9.961,17.031 18.75,20.066 2.125,0.668 4.406,-0.199 5.703,-2.164 1.008,-1.437 2.008,-2.886 3.016,-4.336 0.597,-1.011 1.578,-1.671 2.672,-1.8 1.695,-0.254 3.406,-0.34 5.113,-0.254 7.277,-0.84 14.633,0.004 21.597,2.468 0.493,0.262 1.032,0.364 1.571,0.305 0.715,-0.223 1.312,-0.75 1.66,-1.469 0.703,-2.015 0.797,-4.226 0.277,-6.308 -0.773,-1.453 -1.953,-2.594 -3.367,-3.223 -1.644,-0.738 -2.629,-2.582 -2.418,-4.515 1.317,-3.715 3.094,-7.219 5.274,-10.407 0.961,-1.234 1.773,-2.593 2.421,-4.054 0.403,-0.84 0.297,-1.864 -0.25,-2.602 l -0.707,-0.715 c -1.441,-1.101 -2.562,-2.648 -3.234,-4.437 -1.18,-3.356 -2.918,-6.446 -5.133,-9.11 -7.39,-4.797 -15.41,-8.304 -23.777,-10.402 -2.297,-0.543 -4.484,-1.527 -6.473,-2.902 -0.136,-0.125 -0.211,-0.305 -0.203,-0.504 0,-0.176 0.09,-0.348 0.231,-0.45 5.371,-2.347 11.171,-3.265 16.933,-2.675 7.578,-0.414 15.16,0.55 22.453,2.855 3.246,0.305 6.18,2.266 7.91,5.293 1.075,1.715 2.457,3.164 4.067,4.254 3.476,1.414 7,2.699 10.562,3.844 3.274,0.664 5.969,3.207 7.051,6.664 1.383,2.332 1.215,5.379 -0.406,7.515 -0.692,0.661 -1.426,1.27 -2.18,1.84 -2.457,1.422 -4.137,4.067 -4.5,7.106 0.086,2.738 0.309,5.472 0.649,8.183 0.035,1.411 0.226,2.805 0.586,4.161 0.156,0.55 0.55,0.98 1.066,1.132 l 0.781,-0.015 c 0.625,-0.024 1.246,-0.164 1.828,-0.422 7.953,-4.391 16.411,-7.586 25.133,-9.504 7.024,0.531 14.047,0.875 21.078,1.031 9.325,0.68 18.645,-1.379 27.008,-5.961 8.57,-4.687 16.781,-10.152 24.527,-16.343 0.524,-0.301 0.981,-0.735 1.34,-1.254 0.61,-0.75 0.582,-1.895 -0.058,-2.614 -0.375,-0.289 -0.813,-0.465 -1.282,-0.515 -13.773,-1.809 -27.464,-4.364 -41.015,-7.653 -9.113,-0.871 -17.906,-4.148 -25.633,-9.547 -5.965,-2.839 -10.605,-8.257 -12.832,-14.972 -0.516,-2.328 -1.418,-4.516 -2.68,-6.469 -0.437,-0.578 -1.136,-0.832 -1.797,-0.652 -18.742,1.636 -37.55,-2.133 -54.566,-10.946 -14.566,-5.507 -27.492,-15.273 -37.398,-28.246 -5.149,-7.789 -9.907,-15.879 -14.243,-24.238 -3.168,-3.211 -5.367,-7.402 -6.3,-12.023 -12.407,-30.422 -25.114,-60.688 -38.129,-90.797 -13.356,-23.699 -28.953,-45.77 -46.532,-65.852 -21.546,-19.043 -47.488,-31.105 -74.921,-34.828 -17.461,-2.102 -35.102,1.16 -50.969,9.434 -20.27,11.386 -38.887,26.027 -55.238,43.449 -4.676,8.863 -9.426,17.66 -14.247,26.433 -9.164,13.391 -14.601,29.403 -15.656,46.125 -0.301,2.418 -0.113,4.887 0.551,7.211 0.141,0.313 0.398,0.536 0.707,0.614 0.383,0.093 0.789,0.031 1.141,-0.172 1.148,-0.887 2.242,-1.856 3.281,-2.899 8.422,-9.039 17.273,-17.586 26.535,-25.586 0.699,-0.773 1.563,-1.351 2.508,-1.668 0.293,-0.058 0.578,0.106 0.699,0.399 0.188,0.465 0.219,0.988 0.074,1.473 -0.601,1.539 -1.32,3.035 -2.152,4.441 -2.223,3.512 -4.106,7.262 -5.617,11.203 -0.899,6.258 -2.606,12.336 -5.067,18.066 -9.398,23.95 -9.894,51 -1.39,75.348 0.195,0.61 0.531,1.164 0.961,1.602 0.226,0.211 0.523,0.308 0.816,0.254 0.293,-0.051 0.551,-0.254 0.699,-0.532 l 0.274,-0.789 c 0.187,-0.648 0.301,-1.34 0.343,-2.023 2.497,-9.192 5.094,-18.328 7.801,-27.445 l 16.66,-43.782 c 0.164,-0.617 0.508,-1.156 0.969,-1.547 0.235,-0.195 0.543,-0.234 0.813,-0.105 0.351,0.172 0.636,0.48 0.793,0.863 0.179,0.692 0.32,1.375 0.433,2.086 1.828,12.524 4.012,24.981 6.555,37.352 1.785,19.711 5.754,39.101 11.824,57.738 3.227,10.344 6.129,20.809 8.719,31.363 0.266,0.742 0.676,1.403 1.195,1.953 0.594,0.426 1.391,0.247 1.781,-0.398 3.02,-5.566 5.125,-11.652 6.235,-18.016 1.394,-15.316 2.707,-30.656 3.93,-46.004 0.066,-1.371 0.23,-2.726 0.488,-4.078 0.058,-0.16 0.179,-0.308 0.34,-0.359 0.195,-0.066 0.41,-0.059 0.597,0.043 0.985,0.66 1.825,1.547 2.485,2.578 7.492,16.805 14.543,33.848 21.14,51.109 4.157,14.559 7.18,29.477 9.032,44.602 1.273,16.863 1.71,33.797 1.308,50.715 0,1.617 0.848,3.082 2.184,3.758 1.203,0.273 2.461,0.086 3.554,-0.536 14.368,-9.332 26.102,-22.875 33.907,-39.097 0.605,-0.965 0.988,-2.074 1.125,-3.235 0.136,-1.355 0.351,-2.699 0.656,-4.023 0.101,-0.355 0.351,-0.641 0.668,-0.773 0.289,-0.114 0.605,-0.051 0.844,0.164 0.422,0.468 0.691,1.078 0.773,1.734 4.582,27.836 3.41,56.453 -3.426,83.719 -2.629,16.476 -8.199,32.207 -16.414,46.281 -2.531,2.945 -4.336,6.555 -5.258,10.48 -0.179,0.899 0.059,1.833 0.629,2.5 0.66,0.516 1.504,0.641 2.262,0.325 10.18,-3.489 19.606,-9.223 27.711,-16.844 6.633,-6.734 13.32,-13.414 20.059,-20.023 0.402,-0.418 0.894,-0.708 1.433,-0.852 0.363,-0.059 0.707,0.184 0.82,0.566 l 0.067,0.727 c -0.012,0.562 -0.106,1.121 -0.277,1.648 -0.602,1.172 -1.192,2.344 -1.766,3.528 -4.867,20.461 -13.703,39.515 -25.906,55.859 -10.227,17.652 -25.86,30.695 -44.063,36.77 -13.683,7.078 -28.293,11.75 -43.297,13.847 -1.043,0.106 -2.043,0.485 -2.929,1.098 -1.145,1.379 -1.079,3.516 0.152,4.805 5.918,7.07 12.871,12.988 20.578,17.511 8.356,4.496 16.977,8.356 25.813,11.559 0.058,0.035 0.093,0.109 0.093,0.187 0,0.082 -0.027,0.161 -0.093,0.215 -1.465,1.114 -3.11,1.907 -4.852,2.324 -2.875,1.04 -5.828,1.782 -8.824,2.211 -14.875,0.282 -29.742,0.497 -44.61,0.645 -0.953,0.269 -1.953,0.312 -2.921,0.133 -6.567,-1.789 -13.29,-2.762 -20.055,-2.899 -7.883,-2.078 -15.922,-3.449 -24.012,-4.09 -8.273,-2.121 -16.465,-4.601 -24.558,-7.433 -0.696,-0.176 -1.411,0.176 -1.747,0.859 -0.25,0.582 -0.347,1.223 -0.293,1.867 0.797,5.606 3.598,10.645 7.778,13.977 0.082,0.078 0.117,0.203 0.101,0.316 -0.015,0.098 -0.086,0.184 -0.179,0.207 -1.7,0.243 -3.434,0.055 -5.063,-0.554 -9.84,-1.422 -19.429,-4.414 -28.48,-8.879 -2.09,-1.274 -4.328,-2.227 -6.653,-2.836 -1.039,-0.262 -2.105,0.355 -2.496,1.453 -0.179,1.008 -0.058,2.047 0.332,2.981 5.977,11.867 13.2,22.929 21.535,32.941 0.512,0.5 0.938,1.098 1.262,1.773 0.145,0.328 0.153,0.711 0.024,1.043 -0.121,0.313 -0.375,0.535 -0.676,0.602 -0.594,0.07 -1.188,-0.031 -1.742,-0.281 -5.141,-2.543 -10.141,-5.434 -14.965,-8.645 -15.703,-9.656 -30.063,-21.738 -42.645,-35.883 -0.754,-1.242 -1.992,-2.039 -3.351,-2.156 -0.309,-0.004 -0.61,0.129 -0.828,0.359 -0.231,0.239 -0.36,0.563 -0.364,0.903 -0.039,1.933 0.395,3.847 1.254,5.535 4.223,8.394 7.703,17.215 10.395,26.348 4.187,9.128 8.008,18.457 11.457,27.953 1.082,2.054 1.789,4.32 2.078,6.672 0.113,0.804 -0.277,1.601 -0.953,1.929 -0.676,0.332 -1.473,0.133 -1.946,-0.496 -0.378,-0.551 -0.667,-1.168 -0.859,-1.828 -5.644,-9.48 -10.926,-19.219 -15.824,-29.187 -9.504,-12.614 -18.977,-25.25 -28.418,-37.926 -6.77,-8.344 -14.199,-15.996 -22.207,-22.879 -0.684,-0.762 -1.613,-1.203 -2.586,-1.235 -0.379,0.004 -0.731,0.211 -0.941,0.555 -0.211,0.422 -0.278,0.903 -0.204,1.371 1.817,6.856 3.825,13.653 6.008,20.383 2.93,6.695 4.231,14.106 3.778,21.52 0.043,12.265 -0.231,24.535 -0.817,36.789 -0.105,0.554 -0.363,1.058 -0.746,1.433 -0.336,0.285 -0.789,0.34 -1.164,0.117 -0.437,-0.289 -0.734,-0.761 -0.816,-1.316 -3.7,-24.758 -11.676,-48.512 -23.485,-69.973 -0.558,-1.132 -1.344,-2.117 -2.301,-2.871 -0.648,-0.484 -1.519,-0.379 -2.062,0.239 -0.621,0.836 -0.984,1.863 -1.035,2.937 -0.004,3.731 0.039,7.461 0.133,11.191 -0.805,13.555 -3.352,26.907 -7.567,39.665 -0.429,2.484 -1.164,4.882 -2.199,7.136 -0.082,0.137 -0.219,0.219 -0.367,0.207 -0.129,-0.004 -0.246,-0.09 -0.297,-0.226 -0.582,-2.903 -1.051,-5.828 -1.414,-8.774 -0.606,-14.422 -2.297,-28.765 -5.051,-42.886 -1.301,-7.43 -3.418,-14.661 -6.305,-21.52 -0.66,-1.98 -1.601,-3.836 -2.785,-5.492 -0.164,-0.164 -0.375,-0.254 -0.601,-0.254 -0.211,-0.008 -0.414,0.082 -0.571,0.246 -0.578,0.731 -0.867,1.684 -0.812,2.641 0.453,13.691 -0.652,27.386 -3.301,40.765 -0.348,2.242 -0.949,4.426 -1.805,6.504 -0.242,0.414 -0.601,0.742 -1.015,0.922 -0.285,0.125 -0.61,0.086 -0.864,-0.109 -0.472,-0.36 -0.812,-0.903 -0.945,-1.524 -0.301,-1.906 -0.437,-3.843 -0.402,-5.785 -1.313,-11.055 -3.012,-22.051 -5.098,-32.961 -3.043,-10.738 -6.89,-21.187 -11.512,-31.23 -1.371,-5.094 -5.093,-9.008 -9.785,-10.289 -6.297,-1.762 -11.582,-6.485 -14.437,-12.911 -1.821,-3.492 -4.031,-6.726 -6.574,-9.617 -5.754,-3.133 -11.231,-6.855 -16.352,-11.113 -3.406,-2.195 -5.375,-6.344 -5.043,-10.684 0.34,-1.304 0.668,-2.625 0.969,-3.953 0.203,-1.117 -0.379,-2.23 -1.36,-2.609 -1.246,-0.578 -2.5035,-1.117 -3.773,-1.617 -9.3789,-2.504 -18.8438,-4.629 -28.3594,-6.371 -6.5547,-0.305 -13.0898,0.996 -19.1367,3.781 -0.5781,0.09 -1.1485,0.219 -1.711,0.398 l -0.4804,0.375 c -0.5664,0.59 -0.9219,1.383 -0.9883,2.246 -0.1172,2.61 -0.1992,5.211 -0.2422,7.825 -0.1836,2.687 -2.1367,4.82 -4.5781,5.004 -1.4297,0.57 -2.9805,0.668 -4.461,0.289 -2.9609,-1.477 -5.9804,-2.813 -9.0468,-4.02 -0.9141,-0.488 -1.9297,-0.703 -2.9453,-0.621 -0.9961,0.25 -1.9883,0.512 -2.9805,0.789 -5.6133,2.762 -11.7891,3.836 -17.89846,3.109 -1.26562,0.075 -2.53515,-0.199 -3.68359,-0.796 C 0.617188,582.836 0.121094,581.887 0.0898438,580.848 -0.410156,572.969 1.14453,565.09 4.57031,558.145 l 0.84766,-1.68 c 0.42969,-1.02 0.61719,-2.145 0.54687,-3.27 L 4.33203,533.402 c -0.4375,-3.64 0.12891,-7.328 1.63281,-10.613 0.24219,-0.492 0.69141,-0.82 1.19532,-0.879 0.1875,-0.019 0.36718,0.043 0.5039,0.184 0.19532,0.199 0.33985,0.457 0.41407,0.742 0.51171,7.269 2.90627,14.227 6.88667,20.059 2.0157,4.339 6.8008,6.148 10.8125,4.07 1.5391,-0.258 2.875,-1.317 3.5899,-2.844 0.4726,-1.875 0.6016,-3.84 0.3828,-5.773 -1.9922,-7.633 -1.4219,-15.789 1.6055,-23 0.4375,-1.391 1,-2.731 1.6797,-4 0.1328,-0.192 0.3711,-0.25 0.5664,-0.145 0.3086,0.18 0.5507,0.477 0.6797,0.844 0.2773,1.129 0.4609,2.281 0.539,3.449 1.0938,7.301 3.1758,14.383 6.1758,21.008 0.8555,2.691 3.3281,4.332 5.8984,3.906 l 1.5039,-0.578 c 3.3243,-1.621 6.961,-2.32 10.5938,-2.031 4.8281,1.754 10.0312,1.82 14.9062,0.199 3.7539,-2.117 8.1485,-2.387 12.086,-0.73 0.3242,0.16 0.6523,0.328 0.9687,0.511 0.668,0.379 1.3516,0.707 2.0586,0.985 1.4649,0.363 2.961,0.586 4.4649,0.648 4.9765,0.195 9.9494,0.422 14.9184,0.672 6.144,1.644 12.574,1.519 18.664,-0.375 0.761,-0.191 1.406,-0.738 1.765,-1.504 0.352,-0.766 0.383,-1.668 0.078,-2.457 -2.652,-6.527 -7.207,-11.895 -12.953,-15.242 -6.699,-3.153 -13.754,-5.281 -20.9724,-6.332 C 84.2148,513.305 73.6289,510.68 63.5703,506.383 56.1914,500.059 48.6484,493.98 40.9492,488.141 30.1563,482.418 19,477.59 7.55859,473.703 c -0.45703,-0.101 -0.875,-0.351 -1.1875,-0.73 -0.20312,-0.25 -0.22265,-0.625 -0.02734,-0.887 l 0.41406,-0.281 1.63282,-0.149 c 7.95707,0.36 15.85157,1.645 23.56247,3.832 l -0.0039,0 c 11.1133,6.598 22.125,13.41 33.0235,20.434 7.789,2.516 15.8671,3.746 23.9843,3.652 6.543,1.364 13.059,2.918 19.527,4.66 13.438,5.383 24.856,15.547 32.454,28.883 1.41,2.113 3.746,3.235 6.113,2.93 1.328,0.113 2.566,-0.734 3.058,-2.09 0.582,-2.328 0.84,-4.746 0.766,-7.164 0.727,-4.996 -1.844,-9.859 -6.141,-11.637 -7.046,-3.922 -13.699,-8.64 -19.851,-14.078 -5.051,-6.262 -11.481,-11.004 -18.664,-13.777 -10.4338,-4.27 -21.2698,-7.235 -32.3049,-8.84 -0.6328,-0.152 -1.2422,-0.414 -1.8047,-0.773 -0.9688,-0.618 -1.8789,-1.325 -2.7305,-2.125 -2.5156,-2.688 -5.5625,-4.7 -8.9062,-5.868 -4.6875,0.086 -9.3282,-1.117 -13.4805,-3.507 -10.293,-2.723 -19.8281,-8.157 -27.7969,-15.817 l -0.5742,-0.816 c -0.1016,-0.36 -0.0039,-0.746 0.25,-0.992 l 0.6016,-0.215 c 1.1718,-0.11 2.3515,-0.176 3.5234,-0.188 1.2383,0.133 2.4805,0.035 3.6875,-0.289 0.5469,-0.168 1.0156,-0.562 1.3008,-1.101 0.3633,-0.938 0.3242,-1.997 -0.0977,-2.895 -3.457,-6.594 -5.3789,-14.031 -5.5703,-21.645 0.0078,-0.476 0.125,-0.937 0.3359,-1.355 0.0743,-0.109 0.2071,-0.145 0.3204,-0.09 0.2539,0.125 0.4843,0.317 0.6562,0.563 0.668,1.027 1.3047,2.074 1.9063,3.136 1.9609,4.649 5.2148,8.489 9.2851,10.973 0.7578,0.363 1.6367,0.188 2.2227,-0.449 0.8789,-1.18 1.4414,-2.606 1.6367,-4.117 1.8594,-16.723 6.6875,-32.875 14.207,-47.547 0.4219,-1.11 1.0703,-2.094 1.8946,-2.867 0.2578,-0.204 0.6015,-0.196 0.8437,0.015 0.3047,0.27 0.4688,0.684 0.4453,1.11 -0.0703,0.714 -0.2461,1.414 -0.5156,2.066 -1.7813,3.387 -2.6914,7.242 -2.6094,11.148 -0.5234,11.598 -0.0469,23.211 1.4141,34.7 0.3906,2.484 1.2773,4.847 2.6015,6.906 0.4493,0.695 1.2969,0.926 1.9883,0.547 0.6446,-0.422 1.211,-0.953 1.6797,-1.586 4.0977,-7.547 9.9414,-13.774 16.9336,-18.039 0.207,-0.137 0.4648,-0.141 0.6758,-0.012 0.2031,0.121 0.3242,0.367 0.3086,0.621 -0.0586,0.551 -0.2383,1.086 -0.5274,1.539 -4.164,6.285 -7.0742,13.461 -8.539,21.063 -0.1953,1.011 0.1172,2.054 0.8125,2.742 0.7031,0.691 1.6758,0.918 2.5742,0.601 0.8867,-0.269 1.7734,-0.539 2.6562,-0.824 11.3789,-2.156 23,-2.246 34.4106,-0.265 1.05,0.105 2.019,0.671 2.683,1.566 0.242,0.387 0.223,0.906 -0.051,1.266 l -0.586,0.472 c -2.16,0.828 -4.343,1.594 -6.542,2.301 -6.4067,1.113 -12.6567,3.106 -18.6138,5.93 -0.7734,0.484 -1.2304,1.418 -1.1719,2.39 0.3321,1.821 1.7149,3.192 3.3985,3.364 6.4805,0.449 12.9492,1.023 19.4022,1.73 0.992,0.074 1.985,0.211 2.961,0.422 4.664,2.227 9.516,3.961 14.481,5.18 0.902,0.175 1.773,0.547 2.554,1.074 0.133,0.105 0.172,0.301 0.078,0.449 -0.168,0.277 -0.422,0.481 -0.714,0.574 -1.286,0.336 -2.583,0.633 -3.883,0.903 -1.168,0.187 -2.219,0.894 -2.895,1.961 -0.246,0.476 -0.262,1.05 -0.058,1.543 0.308,0.597 0.781,1.078 1.347,1.382 6.434,2.348 12.797,4.907 19.094,7.676 7.531,1.477 14.937,3.656 22.137,6.512 0.621,0.234 1.164,0.644 1.578,1.195 0.375,0.844 0.148,1.86 -0.531,2.414 -0.649,0.645 -1.399,1.141 -2.215,1.473 -1.176,0.562 -2.328,1.184 -3.453,1.859 -0.481,0.297 -0.789,0.86 -0.805,1.465 0.047,0.973 0.582,1.836 1.387,2.235 4.992,2.441 9.925,5.031 14.781,7.773 4.574,4.914 10.09,8.637 16.141,10.891 0.621,0.336 1.16,0.828 1.582,1.429 0.214,0.305 0.3,0.7 0.222,1.075 -0.074,0.378 -0.293,0.699 -0.601,0.875 -0.274,0.207 -0.563,0.382 -0.864,0.527 -0.48,0.219 -0.918,0.527 -1.308,0.914 -0.629,0.555 -0.817,1.523 -0.449,2.316 0.3,0.575 0.734,1.047 1.253,1.371 10.625,4.872 21.348,9.489 32.153,13.848 9.808,6.438 19.562,12.973 29.273,19.598 0.512,0.32 0.946,0.777 1.254,1.328 0.129,0.23 0.137,0.523 0.016,0.758 -0.114,0.234 -0.344,0.375 -0.578,0.363 l -1.723,-0.547 c -7.645,-2.785 -15.539,-4.648 -23.547,-5.559 -1.203,-0.281 -2.433,-0.433 -3.66,-0.433 -0.766,0.019 -1.375,0.703 -1.375,1.547 0.066,1.004 0.512,1.929 1.227,2.558 6.234,4.137 12.222,8.723 17.929,13.707 0.867,0.836 1.293,2.09 1.137,3.348 -0.047,0.414 -0.316,0.75 -0.684,0.859 l -0.656,-0.05 c -4.559,-2.032 -9.254,-3.68 -14.039,-4.918 -8.961,0.101 -17.914,-0.289 -26.84,-1.192 -1.375,-0.144 -2.742,0.36 -3.765,1.379 -0.547,0.637 -0.618,1.606 -0.172,2.328 0.355,0.637 0.82,1.196 1.367,1.645 5.594,3.656 11.246,7.207 16.941,10.656 0.571,0.262 1.074,0.656 1.492,1.16 l 0.184,0.606 c -0.047,0.492 -0.332,0.922 -0.746,1.125 -1.598,0.715 -3.238,1.308 -4.914,1.773 -0.84,0.34 -1.434,1.152 -1.547,2.121 -0.047,1.028 0.301,2.031 0.957,2.77 2.418,2.406 5.121,4.441 8.043,6.039 7.934,6.629 17.18,11.082 26.984,13.004 3.024,0.543 5.957,1.543 8.735,2.976 0.265,0.203 0.398,0.559 0.324,0.91 -0.102,0.485 -0.375,0.907 -0.758,1.172 -0.617,0.317 -1.219,0.668 -1.801,1.055 l -0.82,0.496 c -0.559,0.492 -0.914,1.211 -0.992,1.988 -0.024,1.93 1.195,3.606 2.914,3.989 7.82,2.175 15.82,3.433 23.879,3.75 12.215,0.16 24.348,2.23 36.031,6.144 23.317,10.215 48.488,14.235 73.473,11.754 17.656,0.356 34.965,-5.406 49.476,-16.473 13.914,-10.855 25.172,-25.324 32.778,-42.121 1.64,-2.562 3.004,-5.332 4.054,-8.246 2.536,-9.121 4.153,-18.515 4.84,-28.019 1.766,-14.16 -0.469,-28.571 -6.402,-41.285 -5.488,-8.727 -10.918,-17.508 -16.281,-26.329 -14.086,-19.066 -29.141,-37.242 -45.094,-54.445 -11.274,-9.969 -21.785,-20.933 -31.422,-32.793 -13.484,-12.066 -25.504,-25.992 -35.758,-41.43 -1.98,-3.589 -4.336,-6.917 -7.023,-9.914 -0.707,-0.609 -1.617,-0.836 -2.496,-0.625 -1.254,0.399 -2.45,0.977 -3.567,1.727 -3.844,3.645 -8.558,6.012 -13.59,6.793 -4.093,0.473 -7.703,3.148 -9.625,7.156 -1.914,4.004 -1.89,8.797 0.071,12.774 2.336,3.5 5.031,6.707 8.023,9.547 6.656,5.054 10.914,13.109 11.613,21.98 2.067,5.395 5.993,9.68 10.911,11.926 5.14,2.449 8.32,8.191 7.957,14.34 -0.028,1.429 0.191,2.851 0.64,4.203 0.391,1.269 1.563,2.047 2.766,1.832 2.191,-0.442 4.398,-0.715 6.625,-0.821 2.086,-0.363 4.215,0.215 5.906,1.606 9.004,11.781 17.793,23.762 26.367,35.922 l 1.035,1.082 c 1.411,1.09 2.813,2.191 4.207,3.308 4.083,2.039 7.149,5.938 8.391,10.68 0.457,0.981 0.645,2.086 0.547,3.188 -0.336,1.675 -0.66,3.359 -0.977,5.039 -1.449,4.531 -1.078,9.531 1.012,13.754 0.402,0.472 0.789,0.957 1.152,1.461 0.407,0.503 0.629,1.152 0.629,1.824 -0.187,3.64 -2.043,6.926 -4.918,8.726 -4.882,2.668 -9.832,5.184 -14.836,7.535 -7.007,0.965 -14.101,0.661 -21.011,-0.91 -2.336,-0.672 -4.547,-1.789 -6.535,-3.289 -0.446,-0.367 -0.723,-0.929 -0.758,-1.543 -0.016,-0.218 0.051,-0.437 0.179,-0.605 0.161,-0.211 0.375,-0.367 0.61,-0.446 2.168,-0.253 4.34,-0.347 6.515,-0.285 5.813,1.328 11.856,-0.355 16.391,-4.562 1.031,-1.168 1.07,-3.012 0.094,-4.238 -0.895,-1.094 -1.805,-2.18 -2.727,-3.243 -1.742,-2.047 -2.097,-5.086 -0.894,-7.55 1.609,-2.571 3.386,-5.012 5.304,-7.305 1.098,-1.606 0.836,-3.883 -0.593,-5.133 -2.328,-2.07 -4.668,-4.125 -7.02,-6.16 -6.937,-8.762 -13.512,-17.867 -19.691,-27.293 -0.543,-0.746 -1.406,-1.121 -2.262,-0.992 -3.469,0.785 -6.258,3.625 -7.238,7.363 -0.36,3.273 -0.36,6.582 -0.012,9.863 2.164,8.606 2.563,17.633 1.168,26.426 0.07,3.383 -1.914,6.402 -4.863,7.391 -0.707,0.25 -1.399,0.539 -2.071,0.879 -2.269,1.586 -4.054,3.875 -5.132,6.586 -1.61,4.027 -4.766,7.058 -8.618,8.261 -3.843,1.2 -7.98,0.453 -11.269,-2.05 -1.106,-1.274 -2.113,-2.641 -3.012,-4.09 -0.539,-1.004 -1.465,-1.684 -2.508,-1.852 -10.449,-2.851 -18.695,-11.664 -21.582,-23.07 -0.007,-0.785 -0.07,-1.574 -0.195,-2.348 -0.215,-1.043 -0.684,-2.004 -1.355,-2.773 -0.946,-1.082 -1.629,-2.414 -1.985,-3.864 -0.387,-1.093 -0.609,-2.246 -0.652,-3.421 -0.02,-0.524 0.203,-1.032 0.594,-1.348 0.175,-0.16 0.406,-0.262 0.64,-0.266 0.231,-0.004 0.457,0.078 0.637,0.235 l 1.73,2.093 c 4.219,7.262 9.727,13.508 16.2,18.364 1.234,0.82 2.812,0.629 3.851,-0.477 0.473,-0.613 0.891,-1.269 1.242,-1.973 0.973,-2.003 2.661,-3.476 4.649,-4.07 l 1.527,-0.09 c 2.895,-0.015 5.711,-1.035 8.055,-2.898 0.847,-0.676 1.394,-1.707 1.508,-2.848 0.105,-1.535 0.078,-3.066 -0.067,-4.59 -1.097,-4.98 -0.457,-10.234 1.805,-14.711 3.223,-4.16 4.926,-9.488 4.785,-14.949 0.09,-2.808 -1.738,-5.258 -4.269,-5.699 -4.469,0.355 -8.879,1.324 -13.129,2.883 -1.504,0.433 -3.071,0.515 -4.606,0.242 l -1.469,-0.824 c -3.894,-3.121 -8.933,-3.946 -13.48,-2.184 -5.379,3.809 -11.539,6.067 -17.918,6.578 -2.02,0.567 -4.168,-0.125 -5.594,-1.808 -1,-1.571 -1.945,-3.176 -2.84,-4.817 -0.609,-0.879 -1.511,-1.453 -2.504,-1.582 l -4.121,-0.761 c -8.968,-4.989 -14.066,-15.707 -12.668,-26.661 -0.769,-5.574 0.075,-11.269 2.414,-16.281 0.223,-0.39 0.583,-0.644 0.997,-0.703 0.121,0.008 0.234,0.059 0.324,0.156 0.148,0.157 0.273,0.348 0.355,0.563 l 0.449,1.855 c 1.129,9.43 5.34,18.086 11.844,24.356 0.707,0.644 1.625,0.918 2.528,0.742 0.906,-0.168 1.687,-0.774 2.148,-1.641 1.27,-2.222 2.664,-4.359 4.168,-6.398 1.578,-1.285 3.582,-1.77 5.5,-1.336 3.785,0.851 7.348,2.644 10.402,5.246 1.332,1.008 2.84,1.707 4.418,2.066 l 1.489,-0.226 c 2.988,-0.508 6.027,-0.524 9.019,-0.039 4.301,2.023 8.828,3.41 13.465,4.129 1.223,0.355 2.484,0.515 3.75,0.48 1.094,0 2.012,-0.906 2.137,-2.101 -0.067,-0.692 -0.317,-1.344 -0.723,-1.879 -3.023,-4.254 -6.746,-7.844 -10.977,-10.575 -7.371,-2.875 -13.433,-8.82 -16.867,-16.543 -0.574,-5.585 -1.593,-11.109 -3.058,-16.488 -0.504,-2.246 -2.067,-4.012 -4.086,-4.64 -4.274,-1.008 -8.356,-2.789 -12.094,-5.266 -0.797,-0.578 -1.324,-1.504 -1.473,-2.539 -0.023,-6.152 -0.031,-12.305 -0.027,-18.457 0.102,-2.156 1.523,-3.969 3.445,-4.402 7.489,-1.692 14.5,-5.305 20.485,-10.532 3.285,-1.746 5.8,-4.863 6.996,-8.656 1.109,-6.668 2.531,-13.258 4.261,-19.758 l -0.199,-3.297 c -0.933,-6.324 -2.808,-12.437 -5.543,-18.09 -1.121,-2.289 -1.504,-4.917 -1.09,-7.48 0.375,-0.984 1.165,-1.715 2.11,-1.973 3.18,-0.82 6.137,-2.464 8.617,-4.789 0.387,-0.425 0.645,-0.972 0.734,-1.562 0.036,-0.766 -0.238,-1.508 -0.742,-2.031 -0.512,-0.524 -1.203,-0.77 -1.894,-0.684 -3.231,0.41 -6.481,0.598 -9.731,0.547 -1.008,-0.008 -1.965,-0.504 -2.625,-1.34 -1.844,-2.477 -2.84,-5.586 -2.828,-8.773 0.199,-1.379 0.344,-2.77 0.418,-4.153 0.012,-0.73 -0.301,-1.422 -0.828,-1.863 -0.527,-0.445 -1.219,-0.59 -1.859,-0.399 -6.727,2.942 -13.911,4.418 -21.149,4.344 -5.531,-0.011 -11.058,0.461 -16.519,1.418 -1.715,0.16 -3.336,0.93 -4.629,2.176 -4.731,6.305 -10.262,11.816 -16.43,16.367 -8.328,4.594 -16.84,8.77 -25.516,12.504 -8.988,2.637 -14.8,12.207 -13.578,22.356 1.91,5.234 2.43,10.957 1.52,16.496 -2.02,5.441 -3.887,10.937 -5.598,16.496 l 0.238,3.285 c 0.723,3.949 1.754,7.824 3.079,11.574 l 0.808,1.613 c 0.414,1.032 0.586,2.164 0.481,3.286 -0.286,2.238 -0.606,4.46 -0.961,6.683 -0.637,6.606 -1.364,13.199 -2.192,19.781 l -0.363,1.711 c -0.531,1.633 -1.664,2.946 -3.125,3.598 -3.957,3.328 -9.359,3.668 -13.633,0.852 -2.719,-2.969 -6.308,-4.786 -10.133,-5.11 -8.496,0.715 -16.984,1.504 -25.461,2.383 -3.601,0.441 -7.242,-0.293 -10.468,-2.098 -3.293,-3.914 -4.629,-9.359 -3.555,-14.566 l 0.07,-1.652 -1.234,-3.274 c -4.774,-9.496 -6.543,-20.457 -5.039,-31.183 -0.024,-1.516 0.453,-2.989 1.336,-4.133 0.148,-0.149 0.336,-0.223 0.531,-0.203 0.168,0.007 0.324,0.113 0.414,0.265 0.375,0.879 0.684,1.793 0.918,2.719 1.012,3.477 2.434,6.781 4.242,9.84 l 0.633,0.969 0.629,2.308 c 0.879,5.258 3,10.168 6.16,14.235 0.43,0.578 1.145,0.781 1.781,0.511 0.594,-0.242 1.098,-0.683 1.457,-1.25 0.704,-0.945 1.418,-1.883 2.145,-2.808 0.738,-0.953 2.039,-1.075 2.918,-0.278 0.551,0.399 1.074,0.848 1.562,1.344 1.172,1.406 2.782,2.27 4.512,2.434 6.559,-0.18 13.098,0.82 19.371,2.953 1.793,0.902 3.754,1.316 5.727,1.23 0.996,-0.043 1.906,-0.644 2.402,-1.605 0.539,-1.262 0.762,-2.645 0.66,-4.028 -0.906,-5.152 -2.441,-10.132 -4.558,-14.828 -0.395,-1.058 -0.489,-2.23 -0.258,-3.343 0.836,-3.907 2.066,-7.7 3.656,-11.313 0.754,-1.207 1.34,-2.531 1.738,-3.93 0.153,-0.488 0.121,-1.027 -0.074,-1.496 -0.07,-0.14 -0.164,-0.254 -0.273,-0.351 -0.215,-0.196 -0.434,-0.348 -0.672,-0.5 -0.77,-0.379 -1.656,-0.364 -2.418,0.035 l -11.879,5.672 c -2.367,1.344 -5.168,1.41 -7.578,0.179 -3.527,-2.675 -6.735,-5.843 -9.535,-9.414 -0.711,-0.75 -1.555,-1.332 -2.481,-1.699 -6.894,-0.89 -13.769,-1.914 -20.629,-3.105 -1.566,-0.344 -2.929,-1.395 -3.761,-2.895 -0.661,-2.402 -0.645,-4.965 0.031,-7.355 0.558,-1.59 0.676,-3.328 0.336,-5 -3.535,-8.242 -4.91,-17.407 -3.973,-26.465 0.031,-3.77 1.219,-7.406 3.379,-10.328 0.121,-0.129 0.293,-0.203 0.461,-0.203 0.141,0.007 0.262,0.101 0.328,0.238 l 0.27,1.535 c 0,6.918 1.129,13.797 3.336,20.273 0.41,2.997 2.179,5.547 4.699,6.778 0.476,0.18 0.988,0.164 1.457,-0.035 1.433,-0.719 2.851,-1.477 4.25,-2.266 0.555,-0.32 1.199,-0.383 1.801,-0.195 1.824,0.898 3.382,2.343 4.48,4.168 0.66,1.246 1.324,2.48 2.004,3.707 0.531,1.035 1.609,1.562 2.668,1.304 1.613,-0.48 3.289,-0.699 4.961,-0.648 1.476,0.273 2.82,1.102 3.801,2.355 3.422,4.731 8.566,7.555 14.058,7.719 2.922,0.535 5.707,-1.554 6.324,-4.746 0.625,-3.254 1.204,-6.519 1.735,-9.793 0.875,-2.648 0.043,-5.629 -2.043,-7.281 -5.156,-2.914 -9.93,-6.594 -14.192,-10.914 l -0.839,-0.895 c -0.809,-0.64 -1.782,-1 -2.778,-1.008 -3.035,-0.25 -6.062,-0.632 -9.07,-1.128 -6.391,-1.11 -11.52,-6.395 -12.93,-13.336 -0.511,-1.641 -0.347,-3.45 0.461,-4.938 1.367,-2.09 2.934,-4.012 4.672,-5.726 0.602,-0.762 0.984,-1.684 1.113,-2.68 -0.449,-11.215 2.981,-22.184 9.594,-30.731 0.586,-0.64 1.344,-1.078 2.156,-1.238 l 0.684,-0.035 c 0.367,0.121 0.633,0.477 0.668,0.898 0.102,0.629 0.094,1.27 -0.02,1.899 -2.738,7.707 -3.675,16.047 -2.73,24.25 0.203,2.562 1.977,4.64 4.289,5.015 1.859,0.086 3.727,0.079 5.586,-0.019 2.418,-0.363 4.84,0.652 6.418,2.699 1.812,3.645 3.793,7.192 5.926,10.606 3.859,7.539 11.351,11.925 19.187,11.242 2.953,-0.75 5.957,-1.278 8.977,-1.57 0.64,-0.075 1.281,-0.188 1.906,-0.352 0.371,-0.106 0.734,-0.246 1.07,-0.449 2.621,-1.957 4.875,-4.457 6.629,-7.364 4.946,-10.164 12.555,-18.457 21.832,-23.812 3.278,-1.113 6.735,-1.457 10.141,-0.981 1.023,0.028 2.027,-0.339 2.832,-1.035 1.16,-1.082 2.09,-2.441 2.707,-3.972 9.066,-20.719 25.734,-36.2 45.828,-42.555 1.422,-0.242 2.766,-0.918 3.879,-1.934 1.105,-0.785 1.652,-2.234 1.367,-3.629 -0.293,-1.5 -0.492,-3.015 -0.601,-4.535 -1.129,-6.179 -0.129,-12.59 2.808,-18.004 1.004,-2.359 2.606,-4.363 4.606,-5.757 1.351,-0.555 2.859,0.191 3.386,1.668 2.262,5.793 5.989,10.757 10.735,14.289 0.269,0.156 0.566,0.234 0.879,0.234 0.187,0.008 0.371,-0.062 0.511,-0.211 0.34,-0.316 0.52,-0.812 0.457,-1.309 -0.019,-0.121 -0.043,-0.253 -0.082,-0.382 -0.164,-0.481 -0.336,-0.961 -0.523,-1.426 -5.004,-10.336 -6.656,-22.234 -4.68,-33.731 3.34,-7.699 7.938,-14.64 13.567,-20.492 2.297,-2.832 5.144,-5.054 8.332,-6.504 0.66,-0.293 1.41,-0.273 2.054,0.067 0.649,0.336 1.137,0.949 1.352,1.711 0.914,5.64 1.648,11.32 2.203,17.023 0.316,3.074 1.664,5.926 3.785,7.977 0.489,0.468 1.149,0.664 1.785,0.527 0.641,-0.129 1.184,-0.578 1.485,-1.211 0.867,-1.734 0.863,-3.844 0,-5.578 -4.469,-9.234 -4.719,-20.234 -0.672,-29.703 5.75,-10.0314 14.289,-17.758 24.348,-22.0275 3.05,-1.6914 6.312,-2.9141 9.675,-3.6133 0.52,-0.0742 1.051,0.0859 1.465,0.4453 0.406,0.3672 0.668,0.8945 0.715,1.4766 -0.414,5.6953 0.156,11.414 1.668,16.8869 0.051,1.101 0.301,2.187 0.738,3.195 0.371,0.594 1.071,0.805 1.664,0.504 1.27,-0.734 2.094,-2.137 2.184,-3.707 0.004,-2.6719 0.051,-5.3438 0.144,-8.0196 -0.3,-5.207 0.95,-10.3828 3.571,-14.7343 9.277,-9.3125 21.207,-14.7735 33.742,-15.4649 4.465,-1.5937 9.289,-1.4258 13.641,0.4961 1.089,0.668 1.589,2.1016 1.203,3.4024 -0.485,1.7734 -1.258,3.4296 -2.282,4.914 -3.375,4.4414 -3.996,10.6836 -1.57,15.8399 0.277,0.5586 0.758,0.9726 1.324,1.1093 0.578,0.1407 1.176,0 1.645,-0.3828 0.48,-0.5312 0.836,-1.1875 1.035,-1.8945 l 0.793,-3.2383 c 2,-7.9492 6.559,-14.8398 12.816,-19.375 9.293,-2.5859 18.95,-3.1406 28.434,-1.6523 6.668,0.4062 13.168,2.4414 19.035,5.9492 0.926,0.6914 1.692,1.6289 2.207,2.7148 0.258,0.8633 0.047,1.8164 -0.547,2.4532 -3.371,3.1796 -6.465,6.6992 -9.257,10.5 -0.59,0.7617 -0.848,1.7695 -0.711,2.7734 0.136,0.9922 0.652,1.8633 1.421,2.418 0.704,0.4687 1.61,0.3476 2.188,-0.2969 0.742,-0.6758 1.402,-1.4531 1.957,-2.3242 5.574,-9.5469 15.453,-14.9688 25.734,-14.1485 8.946,4.7227 17.911,9.3828 26.891,14 1.355,0.6172 2.609,1.4883 3.703,2.5703 0.707,0.6758 0.895,1.793 0.465,2.7032 -0.406,0.7812 -0.938,1.4922 -1.563,2.0664 -2.066,1.6015 -3.789,3.6601 -5.07,6.0661 -0.433,0.883 -0.465,1.942 -0.086,2.852 0.375,0.922 1.121,1.59 2.016,1.801 1.258,-0.008 2.5,-0.317 3.637,-0.903 4.07,-2.535 8.832,-3.355 13.41,-2.328 3.883,2.074 7.445,4.793 10.578,8.055 6.578,4.183 12.48,9.562 17.433,15.894 1.887,2.004 2.735,4.926 2.239,7.766 l -0.617,1.625 c -0.75,1.262 -1.485,2.551 -2.192,3.852 -0.422,0.707 -0.43,1.636 0,2.336 0.504,0.625 1.238,0.957 1.996,0.917 3.547,-0.316 7.047,1.075 9.598,3.809 10.648,9.703 19.383,21.703 25.664,35.254 6.574,17.422 12.707,35.035 18.391,52.832 2.75,12.082 6.203,23.949 10.328,35.539 0.414,1.047 1.105,1.926 1.976,2.547 0.403,0.277 0.899,0.301 1.317,0.062 0.476,-0.308 0.871,-0.746 1.152,-1.273 1.633,-3.711 4.031,-6.957 7.012,-9.477 1.14,-1.082 2.652,-1.57 4.14,-1.316 7.196,3.188 14.864,4.902 22.618,5.063 0.667,0.054 1.312,0.277 1.878,0.652 1.036,0.918 1.946,2 2.688,3.219 1.742,3.289 4.039,6.172 6.762,8.504 2.484,2.543 6.129,3.175 9.207,1.597 3.074,-1.578 4.968,-5.054 4.781,-8.781 -0.895,-4.32 -2.684,-8.348 -5.227,-11.773 -4.863,-3.711 -9.941,-7.075 -15.191,-10.09 -8.75,-3.895 -15.031,-12.52 -16.57,-22.766 -0.871,-9.887 -1.965,-19.742 -3.305,-29.566 -1.25,-10.161 -3.551,-20.141 -6.863,-29.719 -5.86,-15.535 -12.118,-30.875 -18.77,-46.012 -1.18,-2.172 -3.148,-3.683 -5.41,-4.168 -2.027,0.18 -4.051,0.391 -6.07,0.637 -0.946,0.086 -1.871,0.379 -2.719,0.855 l -0.856,1.075 c -0.781,2.086 -0.55,4.457 0.61,6.312 2.191,3.484 3.844,7.359 4.875,11.434 0.652,2.191 -0.172,4.582 -1.973,5.746 -0.621,0.203 -1.258,0.324 -1.894,0.375 -1.34,0.058 -2.649,0.453 -3.817,1.179 -1.488,1.262 -3.031,2.422 -4.644,3.481 -1.848,1.273 -4.133,1.5 -6.16,0.613 -0.629,-0.426 -1.149,-1.004 -1.543,-1.687 -4.43,-4.375 -9.461,-7.949 -14.914,-10.586 -6.004,-6.176 -10.75,-13.688 -13.915,-22.031 -3.957,-8.461 -6.437,-17.6645 -7.316,-27.1255 -0.066,-0.539 0.008,-1.0937 0.215,-1.5976 0.078,-0.1875 0.281,-0.2813 0.461,-0.1953 0.367,0.1523 0.683,0.4257 0.914,0.7929 0.844,1.6641 1.633,3.3555 2.375,5.0821 5.183,11.4214 12.269,21.6874 20.883,30.2384 1.078,1.078 2.633,1.32 3.953,0.644 1.48,-1.179 2.383,-3.058 2.433,-5.07 -0.382,-2.539 -0.714,-5.094 -0.992,-7.652 -0.449,-1.992 -0.015,-4.098 1.149,-5.703 3.855,-3.68 8.8,-5.6879 13.906,-5.6567 2.434,0.0821 4.809,-0.8359 6.656,-2.5781 0.961,-0.8789 1.32,-2.3203 0.887,-3.6172 -0.336,-1.0312 -0.723,-2.039 -1.156,-3.0234 -0.536,-0.8555 -1.391,-1.4102 -2.328,-1.5117 -6.817,-0.0586 -13.426,-2.5742 -18.821,-7.1563 -1.32,-0.9765 -2.152,-2.5703 -2.246,-4.3125 -0.469,-2.1406 -0.269,-4.3789 0.563,-6.375 0.574,-0.8047 1.367,-1.3906 2.261,-1.664 2.09,-0.3516 4.196,-0.6055 6.313,-0.7422 0.992,-0.0547 1.93,-0.5664 2.57,-1.4024 0.656,-0.8437 0.957,-1.9414 0.844,-3.0312 -0.547,-2.5625 -0.637,-5.2266 -0.254,-7.8281 3.441,-9.7422 2.543,-20.6993 -2.418,-29.6172 -3.785,-5.9219 -7.547,-11.8633 -11.277,-17.82034 -0.293,-0.60938 -0.426,-1.30078 -0.387,-1.99219 0.051,-0.5 0.352,-0.92188 0.793,-1.07813 0.519,-0.08203 1.047,0.07422 1.461,0.42969 3.433,2.8086 6.918,5.53127 10.461,8.17187 9.957,5.5039 16.504,16.4102 17.195,28.6367 l 0.063,1.6719 c 0.254,1.5859 1.156,2.9609 2.449,3.7266 l 1.449,0.5351 c 3.641,1.0742 6.715,3.7305 8.531,7.3594 0.617,2.7148 0.547,5.5664 -0.203,8.2422 -0.984,3.2851 -0.711,6.8945 0.766,9.9531 1.203,2.707 3.238,4.8672 5.75,6.0781 l 0.707,0.1485 c 0.492,-0.0586 0.93,-0.3672 1.176,-0.8399 0.394,-0.75 0.714,-1.5429 0.941,-2.375 1.621,-6.6836 6.129,-12.0625 12.055,-14.375 1.015,-0.3945 2.144,-0.3242 3.125,0.1875 3.902,2.5 7.918,4.7969 12.023,6.8633 0.492,0.2031 1.012,0.332 1.543,0.375 0.461,0.0391 0.942,0 1.399,-0.1406 1.25,-0.3867 2.441,-1.0078 3.523,-1.8125 1.406,-0.9531 2.207,-2.7031 2.059,-4.5156 l -0.379,-4.5352 c -0.223,-1.1172 -0.145,-2.2695 0.238,-3.3281 z m -276.52,630.3636 0,0 c 0.622,0.183 1.161,0.582 1.551,1.144 0.281,0.383 0.305,0.934 0.047,1.348 -0.523,0.812 -1.344,1.324 -2.246,1.394 -1.395,0.055 -2.785,0.012 -4.168,-0.121 -6.605,-2.328 -13.309,-4.289 -20.094,-5.879 -0.5,-0.089 -0.949,-0.375 -1.277,-0.816 l -0.453,-0.543 c -0.344,-0.687 -0.231,-1.539 0.285,-2.074 l 1.516,-0.988 c 3.285,-1.954 6.636,-3.77 10.046,-5.454 0.579,-0.238 1.215,-0.246 1.801,-0.031 1.293,0.641 2.465,1.543 3.438,2.672 2.48,3.496 5.449,6.527 8.801,8.992 0.234,0.156 0.492,0.281 0.753,0.356 z m 53.942,-58.024 0,0 c -0.762,0.571 -1.629,0.934 -2.543,1.071 -0.5,0.171 -1.039,0.105 -1.492,-0.18 -0.453,-0.293 -0.778,-0.774 -0.899,-1.332 -0.101,-0.613 -0.039,-1.242 0.192,-1.805 1.316,-3.601 2.746,-7.14 4.308,-10.613 0.946,-2.981 3.313,-5.137 6.156,-5.606 5.344,-0.367 10.704,-0.386 16.055,-0.066 0.543,0 1.074,0.242 1.461,0.664 0.246,0.461 0.27,1.023 0.07,1.504 -0.226,0.691 -0.586,1.32 -1.054,1.848 -5.305,4.339 -10.836,8.328 -16.574,11.937 -1.895,0.852 -3.793,1.715 -5.68,2.578 z m -325.067,-27.109 0,0 c -0.07,0.512 -0.234,1 -0.484,1.433 -0.457,0.493 -1.148,0.602 -1.711,0.27 -2.238,-1.621 -4.289,-3.531 -6.117,-5.688 -4.52,-4.835 -8.93,-9.781 -13.227,-14.855 -2.101,-1.41 -3.89,-3.309 -5.25,-5.555 -0.113,-0.261 -0.156,-0.554 -0.113,-0.836 0.031,-0.285 0.145,-0.543 0.324,-0.75 4.539,-3.828 10.344,-5.316 15.95,-4.105 7.316,3.219 12.242,10.844 12.609,19.5 -0.074,3.629 -0.742,7.215 -1.981,10.586 z m 343.911,-61.102 c -0.184,0.461 -0.442,0.879 -0.77,1.239 -0.199,0.218 -0.519,0.222 -0.719,0.007 -0.304,-0.332 -0.527,-0.746 -0.64,-1.199 -1.715,-7.887 -3.852,-15.66 -6.407,-23.269 -0.539,-1.075 -0.644,-2.344 -0.296,-3.508 0.351,-1.168 1.128,-2.113 2.148,-2.625 l 7.035,-4.309 c 1.938,-1.597 4.223,-2.601 6.621,-2.918 1.129,-0.129 2.184,0.633 2.531,1.824 0.129,0.665 0.172,1.352 0.129,2.028 -2.507,10.703 -5.543,21.246 -9.101,31.578 l -0.531,1.152 z m -32.555,-101.355 0,0 c 0.168,1.418 0.183,2.851 0.039,4.281 -0.047,0.289 -0.168,0.563 -0.344,0.789 -0.156,0.207 -0.355,0.363 -0.594,0.453 -0.535,0.211 -1.128,0.192 -1.652,-0.051 -3.094,-1.492 -5.875,-3.679 -8.172,-6.402 -1.136,-0.754 -2.34,-1.387 -3.586,-1.89 -0.675,-0.25 -1.23,-0.793 -1.531,-1.5 -0.305,-0.719 -0.332,-1.532 -0.074,-2.258 2.551,-5.188 5.238,-10.293 8.066,-15.301 0.305,-0.461 0.739,-0.805 1.231,-0.973 0.211,-0.066 0.437,-0.058 0.644,0.039 0.266,0.114 0.5,0.301 0.688,0.547 1.754,3.356 2.98,7.02 3.613,10.828 0.797,3.762 1.355,7.586 1.672,11.438 z m -69.809,-83.09 0,0 c 0.215,-0.32 0.481,-0.586 0.782,-0.816 0.168,-0.122 0.371,-0.18 0.578,-0.168 0.511,0.07 0.945,0.437 1.14,0.957 1.867,6.007 3.45,12.101 4.742,18.289 0.149,0.617 0.172,1.269 0.067,1.894 -0.09,0.391 -0.414,0.66 -0.781,0.653 -0.512,-0.051 -1.004,-0.239 -1.422,-0.563 -3.223,-2.976 -6.004,-6.476 -8.231,-10.398 -0.269,-0.586 -0.359,-1.246 -0.265,-1.891 0.148,-0.855 0.41,-1.668 0.777,-2.434 0.82,-1.871 1.691,-3.711 2.613,-5.523 z m -47.379,-47.941 0,0 c -0.921,-1.993 -0.339,-4.434 1.356,-5.68 0.156,-0.113 0.32,-0.223 0.488,-0.317 0.481,-0.265 0.969,-0.503 1.457,-0.742 0.36,-0.172 0.766,-0.215 1.145,-0.105 0.281,0.07 0.511,0.293 0.625,0.582 0.199,0.582 0.34,1.172 0.41,1.785 -0.152,2.629 -0.543,5.234 -1.156,7.77 -0.086,0.597 -0.329,1.152 -0.688,1.605 -0.176,0.172 -0.422,0.23 -0.644,0.145 -0.375,-0.129 -0.7,-0.383 -0.95,-0.723 -0.425,-0.652 -0.793,-1.352 -1.093,-2.094 -0.325,-0.726 -0.637,-1.476 -0.95,-2.226"
         style="fill:#231f20;fill-opacity:1;fill-rule:evenodd;stroke:none"
         id="path95027" /></g></g></svg>