<?xml version="1.0" encoding="UTF-8"?>
<!DOCTYPE svg PUBLIC "-//W3C//DTD SVG 1.1//EN" "http://www.w3.org/Graphics/SVG/1.1/DTD/svg11.dtd">
<svg xmlns="http://www.w3.org/2000/svg" xmlns:xlink="http://www.w3.org/1999/xlink">
<metadata>
    <rdf:RDF xmlns:cc="http://web.resource.org/cc/" xmlns:dc="http://purl.org/dc/elements/1.1/" xmlns:rdf="http://www.w3.org/1999/02/22-rdf-syntax-ns#">
      <cc:Work rdf:about="">
        <dc:title>Dragon</dc:title>
        <dc:description>Dragon head siluete</dc:description>
        <dc:subject>
          <rdf:Bag>
            <rdf:li>icon</rdf:li>
            <rdf:li>arrow</rdf:li>
            <rdf:li>navigation</rdf:li>
            <rdf:li>green</rdf:li>
            <rdf:li>red</rdf:li>
            <rdf:li>button</rdf:li>
          </rdf:Bag>
        </dc:subject>
        <dc:publisher>
          <cc:Agent rdf:about="http://www.openclipart.org">
            <dc:title>Open Clip Art Library</dc:title>
          </cc:Agent>
        </dc:publisher>
        <dc:creator>
          <cc:Agent>
            <dc:title>Jakub Jankiewicz</dc:title>
          </cc:Agent>
        </dc:creator>
        <dc:rights>
          <cc:Agent>
            <dc:title>Jakub Jankiewicz</dc:title>
          </cc:Agent>
        </dc:rights>
        <dc:date></dc:date>
        <dc:format>image/svg+xml</dc:format>
        <dc:type rdf:resource="http://purl.org/dc/dcmitype/StillImage"/>
        <cc:license rdf:resource="http://web.resource.org/cc/PublicDomain"/>
        <dc:language>pl</dc:language>
      </cc:Work>
      <cc:License rdf:about="http://web.resource.org/cc/PublicDomain">
        <cc:permits rdf:resource="http://web.resource.org/cc/Reproduction"/>
        <cc:permits rdf:resource="http://web.resource.org/cc/Distribution"/>
        <cc:permits rdf:resource="http://web.resource.org/cc/DerivativeWorks"/>
      </cc:License>
    </rdf:RDF>
  </metadata>
 <g>
  <path class="fil0" d="M202.329 116.772c2.926,-6.4712 4.4841,-13.344 2.7482,-18.8307 -2.275,-7.1911 -8.666,-12.3996 -15.4317,-15.7289 -4.6971,-2.3113 -27.3447,-9.6993 -24.9588,-13.8191 3.986,-6.8852 -3.8436,-10.5261 -8.5111,-15.4852 -12.4503,-13.2245 -16.9525,-19.3249 -29.5299,-26.8926 -12.132,-7.3 -28.5166,-8.428 -37.7398,-7.7885 24.5994,3.4402 45.9498,15.815 36.7524,25.7972 -5.0212,5.4504 -15.7614,4.6952 -34.1181,-1.8229 -19.3641,-6.8756 -44.8181,-19.0391 -56.8143,-42.2009 5.3873,27.5407 37.7093,44.3134 60.6292,53.3761 -10.8816,2.8284 -17.2908,4.6331 -29.8099,11.0241 -17.5317,-4.4735 -36.3997,-5.2287 -53.5319,12.4311 17.9676,-8.8112 31.9454,-9.6294 36.7792,-2.9154 -8.0264,5.8691 -13.6432,10.8807 -18.5401,17.829 -16.508,5.135 -25.713,10.399 -30.2525,24.9053 7.0467,-10.873 15.5081,-15.748 23.1714,-12.5229 -3.0091,7.3373 -4.4238,15.4192 -4.0759,24.4962 -7.192,5.8882 -12.2304,13.8029 -13.4348,32.6833 4.1169,-15.5129 9.7375,-21.5263 14.7692,-20.9652 0.0975,0.5305 0.1969,1.0639 0.3049,1.6001 1.453,7.2236 3.6534,13.3268 6.3796,18.955 -6.1654,6.3872 -9.6429,14.9518 -7.6165,36.8901 0.5659,-15.0512 4.4305,-26.2722 12.7161,-28.2394 4.0653,6.325 10.5088,16.2097 15.229,23.6713 3.0377,4.8023 4.4935,12.153 4.1609,19.8707l103.33 0c7.1738,-40.9659 -50.8478,-54.8777 -65.9927,-68.085 -6.8507,-5.9743 -12.0115,-18.5058 -9.812,-27.3247 2.8007,-11.2334 11.1866,-21.6228 21.338,-25.3565 4.3062,3.7394 6.6758,5.4571 8.3505,10.9027 5.1445,16.7336 8.0494,24.7524 31.3919,38.3889 6.5085,3.8015 13.1997,1.6059 19.0028,0.8077 -3.6362,-0.8631 -6.7925,-1.0065 -10.4296,-1.8687 3.3523,-0.6701 5.9848,-3.7394 6.6969,-5.6091 -4.5901,2.7185 -10.139,2.2387 -16.6504,-1.4376 3.3293,-0.7131 7.6594,-2.4471 10.1304,-3.7872 -4.7832,0.2657 -11.8376,-0.5544 -14.0399,-2.8007 -1.8038,-1.8401 -3.8551,-4.6714 -4.5251,-7.1633 3.8053,2.3008 8.4451,0.2485 11.6091,-0.0077 -5.2688,-0.9692 -14.4318,-5.6578 -16.7202,-9.5951 -4.0902,-7.0342 -7.0467,-13.538 -7.8181,-20.3257 8.7023,8.4203 18.0039,18.023 26.2311,25.9348 9.6352,9.2653 21.4499,16.1906 32.7101,17.9609 9.0435,1.4214 11.2172,2.2052 17.6139,9.4527 -3.1468,-10.7135 -11.6378,-11.0289 -16.0406,-12.6042 6.5,-0.3154 12.999,0.3164 20.4443,5.0432 -7.0247,-8.8227 -14.3515,-7.9758 -21.7031,-7.8802 -7.5945,0.0994 -18.8757,-3.7891 -27.6784,-12.9187 -8.8925,-9.2251 -16.4219,-16.486 -24.7457,-29.3301 9.5378,2.709 18.6367,8.2359 21.7089,18.479 0.9635,-5.4972 0.0067,-10.6733 -2.8705,-15.531 5.005,-0.5105 13.0104,7.907 20.5743,20.8333 0.0554,-4.6007 0.6395,-8.1068 -1.2599,-14.9155 8.081,1.3458 12.718,5.5307 17.3367,14.9155 2.0351,-3.6572 3.0158,-8.0304 -0.4081,-12.9703 9.3093,2.0245 11.5833,9.7633 15.1057,17.2516 0.9645,-4.0625 1.7559,-7.5906 2.5273,-9.4584 2.0198,-0.0631 5.2621,3.2032 5.3175,12.6816zm-11.1875 -29.548c1.6078,0.801 4.2001,2.6201 4.6035,5.5059 -1.5524,-1.0553 -2.8724,-0.1348 -5.2784,-2.0399 -2.2797,-1.8123 -2.8246,-3.1305 -4.0041,-3.6361 1.5886,-0.3996 3.6342,-0.3518 4.679,0.1701zm-48.5585 -29.5059c4.5806,2.2902 5.3204,3.7221 8.4949,9.9 -4.7545,-3.683 -7.3746,-0.3346 -10.9553,-3.0913 -3.3073,-2.5465 -5.6683,-6.1893 -10.0415,-7.6308 4.5232,-1.1289 9.5282,-0.6643 12.5019,0.8221z"/>
 </g>
</svg>
