<?xml version="1.0" encoding="UTF-8" standalone="no"?>
<svg height="3.9875in" id="svg2" inkscape:version="0.43+devel" sodipodi:docbase="/mnt/donnees/donnees-02/09-Mes_images/Travaux/Travaux_vectoriel/signes zodiac chinois" sodipodi:docname="dragon.svg" sodipodi:version="0.32" viewBox="0 0 1463 1595" width="3.6575in" xmlns="http://www.w3.org/2000/svg" xmlns:cc="http://web.resource.org/cc/" xmlns:dc="http://purl.org/dc/elements/1.1/" xmlns:inkscape="http://www.inkscape.org/namespaces/inkscape" xmlns:rdf="http://www.w3.org/1999/02/22-rdf-syntax-ns#" xmlns:sodipodi="http://inkscape.sourceforge.net/DTD/sodipodi-0.dtd" xmlns:svg="http://www.w3.org/2000/svg">
  <metadata>
    <rdf:RDF xmlns:cc="http://web.resource.org/cc/" xmlns:dc="http://purl.org/dc/elements/1.1/" xmlns:rdf="http://www.w3.org/1999/02/22-rdf-syntax-ns#">
      <cc:Work rdf:about="">
        <dc:title>dragon</dc:title>
        <dc:description></dc:description>
        <dc:subject>
          <rdf:Bag>
            <rdf:li>shape</rdf:li>
          </rdf:Bag>
        </dc:subject>
        <dc:publisher>
          <cc:Agent rdf:about="http://www.openclipart.org/">
            <dc:title>Open Clip Art Library</dc:title>
          </cc:Agent>
        </dc:publisher>
        <dc:creator>
          <cc:Agent>
            <dc:title>yves GUILLOU</dc:title>
          </cc:Agent>
        </dc:creator>
        <dc:rights>
          <cc:Agent>
            <dc:title></dc:title>
          </cc:Agent>
        </dc:rights>
        <dc:date></dc:date>
        <dc:format>image/svg+xml</dc:format>
        <dc:type rdf:resource="http://purl.org/dc/dcmitype/StillImage"/>
        <cc:license rdf:resource="http://web.resource.org/cc/PublicDomain"/>
        <dc:language>en</dc:language>
      </cc:Work>
      <cc:License rdf:about="http://web.resource.org/cc/PublicDomain">
        <cc:permits rdf:resource="http://web.resource.org/cc/Reproduction"/>
        <cc:permits rdf:resource="http://web.resource.org/cc/Distribution"/>
        <cc:permits rdf:resource="http://web.resource.org/cc/DerivativeWorks"/>
      </cc:License>
    </rdf:RDF>
  </metadata>
  <defs id="defs6"/>
  <sodipodi:namedview bordercolor="#666666" borderopacity="1.0" id="base" inkscape:current-layer="svg2" inkscape:cx="164.58749" inkscape:cy="212.74376" inkscape:pageopacity="0.0" inkscape:pageshadow="2" inkscape:window-height="946" inkscape:window-width="1272" inkscape:window-x="0" inkscape:window-y="0" inkscape:zoom="1.2009753" pagecolor="#ffffff"/>
  <path d="M 629.00,99.00            C 629.00,99.00 628.00,106.00 628.00,106.00              633.00,109.00 633.00,110.00 639.00,111.00              640.00,119.00 643.00,120.00 643.00,124.00              643.00,132.00 629.00,137.00 622.00,139.00              621.00,136.00 621.00,130.00 620.00,127.00              615.00,118.00 602.00,111.00 593.00,110.00              588.00,110.00 573.00,111.00 570.00,116.00              569.00,117.00 569.00,118.00 569.00,120.00              580.00,122.00 596.00,131.00 594.00,144.00              593.00,152.00 588.00,157.00 586.00,163.00              579.00,160.00 578.00,155.00 566.00,152.00              552.00,148.00 528.00,159.00 526.00,173.00              531.00,172.00 538.00,169.00 542.00,170.00              554.00,171.00 561.00,182.00 561.00,194.00              561.00,194.00 560.00,201.00 560.00,201.00              551.00,201.00 554.00,199.00 542.00,199.00              526.00,199.00 508.00,214.00 506.00,231.00              518.00,227.00 518.00,222.00 527.00,224.00              532.00,221.00 536.00,225.00 540.00,228.00              542.00,230.00 543.00,232.00 544.00,235.00              547.00,240.00 553.00,254.00 552.00,260.00              551.00,264.00 548.00,264.00 545.00,265.00              540.00,266.00 535.00,269.00 531.00,271.00              526.00,275.00 520.00,284.00 519.00,290.00              519.00,290.00 518.00,302.00 518.00,302.00              524.00,299.00 529.00,290.00 536.00,289.00              543.00,287.00 553.00,294.00 557.00,299.00              559.00,301.00 561.00,304.00 563.00,307.00              566.00,311.00 568.00,312.00 568.00,317.00              573.00,321.00 562.00,324.00 557.00,328.00              552.00,332.00 545.00,346.00 544.00,353.00              543.00,357.00 544.00,361.00 546.00,364.00              552.00,359.00 552.00,353.00 557.00,349.00              559.00,348.00 561.00,348.00 563.00,347.00              571.00,344.00 573.00,347.00 580.00,351.00              583.00,352.00 589.00,357.00 589.00,361.00              590.00,365.00 583.00,369.00 580.00,374.00              574.00,384.00 575.00,386.00 575.00,397.00              575.00,400.00 575.00,407.00 579.00,408.00              581.00,409.00 582.00,407.00 583.00,405.00              583.00,405.00 583.00,400.00 583.00,400.00              584.00,395.00 588.00,391.00 592.00,388.00              599.00,385.00 607.00,386.00 613.00,390.00              613.00,390.00 617.00,393.00 617.00,393.00              617.00,393.00 623.00,395.00 623.00,395.00              623.00,395.00 628.00,399.00 628.00,399.00              635.00,402.00 634.00,400.00 639.00,407.00              642.00,407.00 644.00,409.00 642.00,412.00              642.00,413.00 633.00,424.00 631.00,430.00              631.00,430.00 630.00,436.00 630.00,436.00              629.00,449.00 632.00,447.00 632.00,455.00              632.00,455.00 636.00,460.00 636.00,460.00              648.00,457.00 639.00,455.00 642.00,445.00              646.00,436.00 655.00,432.00 664.00,433.00              670.00,433.00 675.00,436.00 680.00,439.00              680.00,439.00 698.00,445.00 698.00,445.00              698.00,445.00 703.00,448.00 703.00,448.00              705.00,449.00 715.00,452.00 717.00,452.00              720.00,452.00 722.00,451.00 726.00,452.00              726.00,452.00 738.00,460.00 738.00,460.00              738.00,460.00 762.00,473.00 762.00,473.00              762.00,473.00 769.00,479.00 769.00,479.00              769.00,479.00 784.00,487.00 784.00,487.00              791.00,492.00 795.00,497.00 805.00,497.00              806.00,501.00 811.00,504.00 815.00,506.00              822.00,510.00 836.00,520.00 843.00,521.00              845.00,527.00 860.00,535.00 866.00,536.00              868.00,540.00 872.00,542.00 876.00,544.00              876.00,544.00 884.00,551.00 884.00,551.00              884.00,551.00 891.00,554.00 891.00,554.00              891.00,554.00 899.00,559.00 899.00,559.00              899.00,559.00 905.00,564.00 905.00,564.00              905.00,564.00 916.00,571.00 916.00,571.00              916.00,571.00 949.00,591.00 949.00,591.00              956.00,595.00 965.00,606.00 973.00,607.00              975.00,614.00 989.00,628.00 995.00,635.00              1001.00,645.00 1006.00,655.00 1008.00,666.00              1008.00,666.00 1008.00,673.00 1008.00,673.00              1008.00,673.00 1010.00,680.00 1010.00,680.00              1011.00,683.00 1009.00,688.00 1008.00,692.00              1008.00,692.00 1006.00,702.00 1006.00,702.00              1006.00,702.00 998.00,717.00 998.00,717.00              994.00,723.00 991.00,727.00 985.00,732.00              972.00,743.00 952.00,751.00 935.00,751.00              930.00,751.00 921.00,750.00 916.00,749.00              916.00,749.00 909.00,747.00 909.00,747.00              892.00,744.00 880.00,740.00 864.00,733.00              864.00,733.00 830.00,718.00 830.00,718.00              825.00,715.00 819.00,712.00 814.00,711.00              815.00,708.00 817.00,705.00 816.00,702.00              815.00,699.00 808.00,695.00 805.00,693.00              795.00,685.00 783.00,679.00 774.00,670.00              765.00,661.00 764.00,654.00 774.00,646.00              776.00,643.00 778.00,642.00 782.00,640.00              788.00,637.00 786.00,636.00 794.00,634.00              783.00,628.00 759.00,636.00 750.00,644.00              750.00,644.00 739.00,656.00 739.00,656.00              736.00,657.00 733.00,655.00 731.00,653.00              726.00,649.00 718.00,641.00 721.00,634.00              724.00,627.00 733.00,623.00 735.00,621.00              736.00,619.00 736.00,618.00 736.00,617.00              736.00,617.00 746.00,614.00 746.00,614.00              741.00,612.00 733.00,613.00 728.00,615.00              712.00,619.00 693.00,632.00 691.00,650.00              691.00,654.00 693.00,657.00 691.00,658.00              688.00,659.00 679.00,655.00 676.00,654.00              676.00,654.00 637.00,640.00 637.00,640.00              629.00,638.00 629.00,639.00 623.00,638.00              623.00,638.00 614.00,635.00 614.00,635.00              614.00,635.00 589.00,632.00 589.00,632.00              589.00,632.00 570.00,627.00 570.00,627.00              557.00,625.00 514.00,620.00 502.00,620.00              502.00,620.00 484.00,620.00 484.00,620.00              484.00,620.00 458.00,622.00 458.00,622.00              451.00,623.00 454.00,624.00 444.00,624.00              444.00,622.00 445.00,620.00 444.00,619.00              442.00,616.00 432.00,616.00 429.00,616.00              429.00,616.00 415.00,617.00 415.00,617.00              415.00,617.00 395.00,618.00 395.00,618.00              390.00,618.00 381.00,618.00 377.00,614.00              366.00,604.00 378.00,587.00 380.00,579.00              370.00,582.00 360.00,595.00 356.00,605.00              356.00,605.00 355.00,611.00 355.00,611.00              355.00,611.00 352.00,617.00 352.00,617.00              352.00,617.00 351.00,631.00 351.00,631.00              351.00,631.00 354.00,637.00 354.00,637.00              344.00,641.00 337.00,648.00 326.00,647.00              312.00,646.00 312.00,623.00 314.00,613.00              309.00,616.00 308.00,619.00 306.00,624.00              300.00,635.00 303.00,632.00 301.00,642.00              301.00,646.00 300.00,648.00 300.00,652.00              300.00,652.00 303.00,663.00 303.00,663.00              303.00,667.00 310.00,675.00 309.00,679.00              307.00,683.00 297.00,688.00 292.00,687.00              289.00,687.00 286.00,686.00 284.00,684.00              278.00,679.00 273.00,665.00 274.00,656.00              268.00,662.00 268.00,670.00 266.00,677.00              268.00,680.00 268.00,688.00 268.00,692.00              270.00,699.00 273.00,705.00 277.00,711.00              281.00,715.00 283.00,717.00 288.00,719.00              291.00,720.00 295.00,720.00 296.00,723.00              297.00,726.00 293.00,734.00 292.00,737.00              292.00,737.00 285.00,767.00 285.00,767.00              285.00,767.00 285.00,778.00 285.00,778.00              285.00,778.00 287.00,806.00 287.00,806.00              287.00,806.00 293.00,823.00 293.00,823.00              293.00,823.00 305.00,843.00 305.00,843.00              305.00,843.00 320.00,858.00 320.00,858.00              320.00,858.00 340.00,878.00 340.00,878.00              340.00,878.00 347.00,881.00 347.00,881.00              347.00,881.00 352.00,885.00 352.00,885.00              352.00,885.00 373.00,896.00 373.00,896.00              373.00,896.00 383.00,903.00 383.00,903.00              383.00,903.00 391.00,906.00 391.00,906.00              391.00,906.00 409.00,919.00 409.00,919.00              409.00,919.00 415.00,921.00 415.00,921.00              415.00,921.00 420.00,924.00 420.00,924.00              420.00,924.00 427.00,926.00 427.00,926.00              427.00,926.00 434.00,931.00 434.00,931.00              434.00,931.00 444.00,936.00 444.00,936.00              444.00,936.00 463.00,941.00 463.00,941.00              465.00,946.00 472.00,946.00 476.00,948.00              476.00,948.00 485.00,951.00 485.00,951.00              485.00,951.00 492.00,954.00 492.00,954.00              492.00,954.00 510.00,960.00 510.00,960.00              510.00,960.00 516.00,963.00 516.00,963.00              516.00,963.00 524.00,965.00 524.00,965.00              524.00,965.00 532.00,968.00 532.00,968.00              532.00,968.00 543.00,971.00 543.00,971.00              543.00,971.00 549.00,972.00 549.00,972.00              553.00,974.00 553.00,976.00 562.00,979.00              562.00,979.00 574.00,982.00 574.00,982.00              574.00,982.00 583.00,986.00 583.00,986.00              583.00,986.00 599.00,992.00 599.00,992.00              599.00,992.00 606.00,995.00 606.00,995.00              606.00,995.00 617.00,999.00 617.00,999.00              617.00,999.00 622.00,1002.00 622.00,1002.00              622.00,1002.00 641.00,1009.00 641.00,1009.00              641.00,1009.00 653.00,1014.00 653.00,1014.00              653.00,1014.00 658.00,1017.00 658.00,1017.00              658.00,1017.00 669.00,1022.00 669.00,1022.00              671.00,1022.00 672.00,1022.00 673.00,1022.00              676.00,1026.00 678.00,1025.00 682.00,1027.00              682.00,1027.00 689.00,1031.00 689.00,1031.00              689.00,1031.00 696.00,1034.00 696.00,1034.00              696.00,1034.00 704.00,1038.00 704.00,1038.00              704.00,1038.00 721.00,1043.00 721.00,1043.00              721.00,1043.00 735.00,1050.00 735.00,1050.00              744.00,1054.00 752.00,1061.00 762.00,1062.00              762.00,1062.00 762.00,1065.00 762.00,1065.00              766.00,1066.00 776.00,1071.00 778.00,1075.00              782.00,1075.00 781.00,1077.00 787.00,1081.00              793.00,1084.00 798.00,1090.00 803.00,1095.00              803.00,1095.00 813.00,1104.00 813.00,1104.00              816.00,1106.00 815.00,1107.00 820.00,1111.00              820.00,1111.00 830.00,1120.00 830.00,1120.00              830.00,1120.00 837.00,1127.00 837.00,1127.00              840.00,1130.00 841.00,1129.00 845.00,1134.00              845.00,1134.00 856.00,1148.00 856.00,1148.00              856.00,1148.00 867.00,1161.00 867.00,1161.00              867.00,1161.00 877.00,1178.00 877.00,1178.00              877.00,1178.00 881.00,1183.00 881.00,1183.00              881.00,1183.00 885.00,1192.00 885.00,1192.00              885.00,1192.00 890.00,1199.00 890.00,1199.00              890.00,1199.00 894.00,1211.00 894.00,1211.00              894.00,1211.00 898.00,1216.00 898.00,1216.00              898.00,1216.00 899.00,1223.00 899.00,1223.00              899.00,1223.00 902.00,1230.00 902.00,1230.00              902.00,1230.00 905.00,1247.00 905.00,1247.00              905.00,1247.00 906.00,1255.00 906.00,1255.00              907.00,1260.00 908.00,1266.00 908.00,1271.00              908.00,1271.00 906.00,1278.00 906.00,1278.00              905.00,1283.00 904.00,1288.00 902.00,1292.00              892.00,1312.00 870.00,1330.00 847.00,1330.00              834.00,1330.00 824.00,1331.00 811.00,1326.00              795.00,1321.00 782.00,1311.00 770.00,1299.00              763.00,1293.00 757.00,1287.00 751.00,1280.00              751.00,1280.00 742.00,1268.00 742.00,1268.00              742.00,1268.00 733.00,1257.00 733.00,1257.00              733.00,1257.00 723.00,1242.00 723.00,1242.00              723.00,1242.00 719.00,1233.00 719.00,1233.00              719.00,1233.00 714.00,1227.00 714.00,1227.00              714.00,1227.00 699.00,1204.00 699.00,1204.00              699.00,1204.00 662.00,1166.00 662.00,1166.00              662.00,1166.00 622.00,1126.00 622.00,1126.00              622.00,1126.00 580.00,1099.00 580.00,1099.00              580.00,1099.00 568.00,1091.00 568.00,1091.00              558.00,1086.00 539.00,1082.00 527.00,1081.00              527.00,1081.00 508.00,1076.00 508.00,1076.00              493.00,1074.00 477.00,1075.00 461.00,1075.00              458.00,1075.00 455.00,1075.00 452.00,1077.00              445.00,1080.00 439.00,1090.00 442.00,1098.00              447.00,1114.00 467.00,1108.00 469.00,1108.00              469.00,1108.00 474.00,1109.00 474.00,1109.00              474.00,1109.00 482.00,1111.00 482.00,1111.00              486.00,1111.00 487.00,1110.00 493.00,1111.00              493.00,1111.00 509.00,1116.00 509.00,1116.00              512.00,1117.00 513.00,1119.00 517.00,1120.00              522.00,1122.00 527.00,1122.00 532.00,1125.00              532.00,1125.00 539.00,1131.00 539.00,1131.00              539.00,1131.00 547.00,1135.00 547.00,1135.00              547.00,1135.00 562.00,1147.00 562.00,1147.00              566.00,1150.00 570.00,1156.00 576.00,1157.00              576.00,1157.00 576.00,1161.00 576.00,1161.00              576.00,1161.00 588.00,1170.00 588.00,1170.00              588.00,1170.00 593.00,1179.00 593.00,1179.00              593.00,1179.00 606.00,1196.00 606.00,1196.00              606.00,1196.00 614.00,1209.00 614.00,1209.00              614.00,1209.00 617.00,1214.00 617.00,1214.00              617.00,1214.00 620.00,1220.00 620.00,1220.00              620.00,1220.00 628.00,1234.00 628.00,1234.00              613.00,1237.00 607.00,1257.00 608.00,1271.00              608.00,1271.00 610.00,1279.00 610.00,1279.00              610.00,1279.00 613.00,1279.00 613.00,1279.00              616.00,1270.00 615.00,1265.00 626.00,1263.00              626.00,1263.00 623.00,1274.00 623.00,1274.00              623.00,1274.00 619.00,1285.00 619.00,1285.00              619.00,1285.00 619.00,1297.00 619.00,1297.00              619.00,1297.00 623.00,1301.00 623.00,1301.00              629.00,1297.00 624.00,1294.00 630.00,1287.00              633.00,1284.00 639.00,1284.00 639.00,1289.00              639.00,1292.00 637.00,1296.00 636.00,1299.00              635.00,1303.00 634.00,1318.00 635.00,1322.00              635.00,1324.00 637.00,1325.00 638.00,1326.00              638.00,1326.00 641.00,1315.00 641.00,1315.00              643.00,1311.00 649.00,1308.00 654.00,1310.00              656.00,1311.00 658.00,1314.00 660.00,1315.00              669.00,1323.00 665.00,1321.00 671.00,1330.00              671.00,1330.00 678.00,1339.00 678.00,1339.00              678.00,1339.00 685.00,1351.00 685.00,1351.00              687.00,1354.00 693.00,1360.00 695.00,1361.00              697.00,1361.00 699.00,1360.00 701.00,1360.00              702.00,1366.00 707.00,1372.00 709.00,1377.00              709.00,1377.00 712.00,1384.00 712.00,1384.00              716.00,1393.00 724.00,1412.00 733.00,1417.00              733.00,1417.00 733.00,1420.00 733.00,1420.00              724.00,1424.00 718.00,1434.00 715.00,1443.00              715.00,1443.00 713.00,1455.00 713.00,1455.00              713.00,1455.00 715.00,1468.00 715.00,1468.00              715.00,1468.00 722.00,1484.00 722.00,1484.00              722.00,1484.00 730.00,1483.00 730.00,1483.00              727.00,1471.00 728.00,1453.00 744.00,1451.00              747.00,1450.00 757.00,1453.00 760.00,1454.00              772.00,1458.00 774.00,1467.00 783.00,1471.00              783.00,1471.00 798.00,1479.00 798.00,1479.00              798.00,1479.00 807.00,1481.00 807.00,1481.00              812.00,1483.00 817.00,1486.00 822.00,1487.00              822.00,1487.00 835.00,1488.00 835.00,1488.00              844.00,1490.00 845.00,1492.00 855.00,1490.00              863.00,1489.00 870.00,1486.00 878.00,1484.00              889.00,1480.00 897.00,1477.00 906.00,1469.00              910.00,1465.00 911.00,1467.00 912.00,1461.00              916.00,1460.00 917.00,1459.00 918.00,1455.00              924.00,1454.00 924.00,1452.00 928.00,1447.00              932.00,1443.00 936.00,1443.00 937.00,1436.00              942.00,1434.00 944.00,1430.00 946.00,1426.00              946.00,1426.00 958.00,1403.00 958.00,1403.00              958.00,1403.00 967.00,1387.00 967.00,1387.00              969.00,1381.00 969.00,1379.00 970.00,1376.00              970.00,1376.00 973.00,1371.00 973.00,1371.00              975.00,1364.00 980.00,1345.00 980.00,1338.00              980.00,1338.00 982.00,1324.00 982.00,1324.00              982.00,1324.00 983.00,1310.00 983.00,1310.00              983.00,1310.00 983.00,1295.00 983.00,1295.00              999.00,1295.00 1013.00,1287.00 1020.00,1272.00              1020.00,1272.00 1022.00,1266.00 1022.00,1266.00              1023.00,1260.00 1025.00,1257.00 1023.00,1251.00              1018.00,1256.00 1017.00,1260.00 1011.00,1264.00              998.00,1274.00 988.00,1267.00 979.00,1255.00              977.00,1252.00 974.00,1243.00 973.00,1239.00              973.00,1239.00 972.00,1232.00 972.00,1232.00              972.00,1232.00 966.00,1208.00 966.00,1208.00              966.00,1208.00 964.00,1201.00 964.00,1201.00              960.00,1189.00 950.00,1176.00 949.00,1164.00              962.00,1161.00 974.00,1138.00 973.00,1126.00              973.00,1122.00 970.00,1115.00 968.00,1111.00              963.00,1120.00 963.00,1133.00 952.00,1137.00              947.00,1139.00 941.00,1137.00 936.00,1135.00              922.00,1129.00 918.00,1121.00 909.00,1110.00              906.00,1107.00 898.00,1098.00 898.00,1094.00              897.00,1090.00 903.00,1085.00 906.00,1082.00              912.00,1073.00 915.00,1061.00 912.00,1051.00              911.00,1047.00 910.00,1046.00 907.00,1044.00              906.00,1048.00 904.00,1053.00 903.00,1057.00              900.00,1067.00 889.00,1072.00 879.00,1068.00              865.00,1063.00 867.00,1061.00 857.00,1052.00              857.00,1052.00 845.00,1043.00 845.00,1043.00              840.00,1038.00 835.00,1032.00 843.00,1027.00              845.00,1017.00 850.00,1002.00 841.00,994.00              840.00,1003.00 832.00,1020.00 821.00,1019.00              817.00,1018.00 811.00,1014.00 808.00,1012.00              808.00,1012.00 789.00,997.00 789.00,997.00              789.00,997.00 777.00,990.00 777.00,990.00              777.00,990.00 764.00,981.00 764.00,981.00              764.00,981.00 754.00,977.00 754.00,977.00              754.00,977.00 742.00,972.00 742.00,972.00              733.00,968.00 733.00,966.00 727.00,963.00              727.00,963.00 707.00,954.00 707.00,954.00              707.00,954.00 695.00,947.00 695.00,947.00              695.00,947.00 681.00,942.00 681.00,942.00              681.00,942.00 673.00,939.00 673.00,939.00              673.00,939.00 664.00,935.00 664.00,935.00              664.00,935.00 655.00,931.00 655.00,931.00              655.00,931.00 648.00,926.00 648.00,926.00              648.00,926.00 620.00,914.00 620.00,914.00              620.00,914.00 597.00,900.00 597.00,900.00              597.00,900.00 576.00,888.00 576.00,888.00              576.00,888.00 564.00,882.00 564.00,882.00              564.00,882.00 557.00,876.00 557.00,876.00              557.00,876.00 534.00,860.00 534.00,860.00              534.00,860.00 523.00,853.00 523.00,853.00              519.00,849.00 512.00,842.00 508.00,838.00              493.00,822.00 486.00,811.00 483.00,789.00              482.00,785.00 481.00,782.00 481.00,778.00              482.00,768.00 482.00,764.00 486.00,754.00              486.00,754.00 489.00,746.00 489.00,746.00              490.00,744.00 492.00,743.00 494.00,741.00              504.00,730.00 519.00,723.00 534.00,722.00              537.00,722.00 538.00,722.00 541.00,722.00              541.00,722.00 556.00,722.00 556.00,722.00              556.00,722.00 566.00,724.00 566.00,724.00              566.00,724.00 583.00,727.00 583.00,727.00              589.00,729.00 592.00,731.00 595.00,732.00              595.00,732.00 609.00,736.00 609.00,736.00              609.00,736.00 640.00,744.00 640.00,744.00              640.00,744.00 659.00,752.00 659.00,752.00              661.00,753.00 662.00,755.00 665.00,756.00              665.00,756.00 672.00,758.00 672.00,758.00              672.00,758.00 684.00,764.00 684.00,764.00              684.00,764.00 703.00,772.00 703.00,772.00              703.00,772.00 708.00,775.00 708.00,775.00              714.00,778.00 722.00,781.00 726.00,786.00              732.00,786.00 744.00,794.00 749.00,797.00              749.00,797.00 755.00,800.00 755.00,800.00              755.00,800.00 774.00,812.00 774.00,812.00              774.00,812.00 782.00,816.00 782.00,816.00              787.00,818.00 790.00,820.00 794.00,824.00              802.00,829.00 807.00,829.00 815.00,833.00              815.00,833.00 825.00,838.00 825.00,838.00              825.00,838.00 830.00,842.00 830.00,842.00              830.00,842.00 850.00,852.00 850.00,852.00              850.00,852.00 864.00,860.00 864.00,860.00              864.00,860.00 881.00,868.00 881.00,868.00              881.00,868.00 888.00,873.00 888.00,873.00              888.00,873.00 901.00,879.00 901.00,879.00              901.00,879.00 908.00,881.00 908.00,881.00              908.00,881.00 914.00,884.00 914.00,884.00              914.00,884.00 926.00,889.00 926.00,889.00              926.00,889.00 939.00,897.00 939.00,897.00              944.00,899.00 947.00,898.00 951.00,903.00              957.00,903.00 967.00,908.00 972.00,911.00              978.00,914.00 990.00,917.00 997.00,918.00              997.00,918.00 997.00,922.00 997.00,922.00              997.00,922.00 986.00,922.00 986.00,922.00              986.00,922.00 960.00,914.00 960.00,914.00              960.00,914.00 952.00,910.00 952.00,910.00              952.00,910.00 934.00,904.00 934.00,904.00              934.00,904.00 926.00,900.00 926.00,900.00              926.00,900.00 917.00,897.00 917.00,897.00              917.00,897.00 899.00,889.00 899.00,889.00              899.00,889.00 888.00,885.00 888.00,885.00              888.00,885.00 865.00,874.00 865.00,874.00              860.00,871.00 849.00,864.00 845.00,860.00              845.00,860.00 838.00,853.00 838.00,853.00              836.00,852.00 831.00,846.00 828.00,850.00              825.00,853.00 829.00,858.00 831.00,860.00              831.00,860.00 842.00,871.00 842.00,871.00              845.00,874.00 850.00,877.00 852.00,880.00              859.00,882.00 860.00,886.00 865.00,890.00              865.00,890.00 885.00,903.00 885.00,903.00              893.00,909.00 897.00,916.00 909.00,916.00              911.00,920.00 914.00,921.00 918.00,921.00              919.00,925.00 921.00,924.00 924.00,926.00              930.00,930.00 932.00,932.00 940.00,932.00              941.00,936.00 943.00,936.00 947.00,937.00              947.00,937.00 969.00,946.00 969.00,946.00              969.00,946.00 1008.00,956.00 1008.00,956.00              1008.00,956.00 1021.00,957.00 1021.00,957.00              1021.00,957.00 1032.00,960.00 1032.00,960.00              1032.00,960.00 1052.00,965.00 1052.00,965.00              1057.00,967.00 1060.00,971.00 1069.00,972.00              1069.00,972.00 1069.00,975.00 1069.00,975.00              1073.00,976.00 1073.00,976.00 1075.00,979.00              1079.00,980.00 1086.00,989.00 1087.00,993.00              1091.00,1003.00 1092.00,1012.00 1088.00,1022.00              1086.00,1028.00 1086.00,1029.00 1081.00,1033.00              1068.00,1044.00 1061.00,1045.00 1045.00,1043.00              1045.00,1043.00 1036.00,1042.00 1036.00,1042.00              1036.00,1042.00 1016.00,1037.00 1016.00,1037.00              1016.00,1037.00 1016.00,1045.00 1016.00,1045.00              1022.00,1046.00 1022.00,1047.00 1027.00,1050.00              1027.00,1050.00 1041.00,1054.00 1041.00,1054.00              1045.00,1055.00 1047.00,1058.00 1051.00,1058.00              1053.00,1059.00 1055.00,1059.00 1057.00,1058.00              1071.00,1059.00 1079.00,1054.00 1089.00,1045.00              1089.00,1045.00 1095.00,1041.00 1095.00,1041.00              1095.00,1041.00 1098.00,1036.00 1098.00,1036.00              1103.00,1029.00 1104.00,1031.00 1106.00,1021.00              1106.00,1021.00 1112.00,1021.00 1112.00,1021.00              1112.00,1023.00 1112.00,1026.00 1112.00,1028.00              1110.00,1034.00 1103.00,1043.00 1099.00,1047.00              1096.00,1049.00 1087.00,1054.00 1087.00,1058.00              1087.00,1063.00 1099.00,1063.00 1102.00,1063.00              1110.00,1063.00 1119.00,1062.00 1127.00,1058.00              1138.00,1053.00 1151.00,1039.00 1156.00,1027.00              1156.00,1027.00 1160.00,1007.00 1160.00,1007.00              1160.00,997.00 1154.00,982.00 1149.00,974.00              1142.00,964.00 1132.00,960.00 1122.00,955.00              1103.00,945.00 1108.00,948.00 1089.00,941.00              1089.00,941.00 1079.00,937.00 1079.00,937.00              1079.00,937.00 1056.00,930.00 1056.00,930.00              1050.00,929.00 1046.00,930.00 1043.00,924.00              1043.00,924.00 1080.00,919.00 1080.00,919.00              1084.00,916.00 1092.00,915.00 1098.00,913.00              1111.00,907.00 1127.00,896.00 1136.00,885.00              1141.00,880.00 1145.00,879.00 1146.00,871.00              1151.00,869.00 1152.00,865.00 1154.00,860.00              1158.00,854.00 1165.00,838.00 1167.00,831.00              1167.00,831.00 1169.00,825.00 1169.00,825.00              1169.00,825.00 1173.00,812.00 1173.00,812.00              1173.00,812.00 1174.00,806.00 1174.00,806.00              1176.00,792.00 1176.00,787.00 1176.00,773.00              1176.00,764.00 1175.00,766.00 1174.00,758.00              1170.00,728.00 1159.00,712.00 1143.00,688.00              1137.00,680.00 1132.00,673.00 1126.00,666.00              1126.00,666.00 1103.00,639.00 1103.00,639.00              1103.00,639.00 1081.00,617.00 1081.00,617.00              1081.00,617.00 1047.00,584.00 1047.00,584.00              1047.00,584.00 1026.00,567.00 1026.00,567.00              1026.00,567.00 1019.00,561.00 1019.00,561.00              1019.00,561.00 1005.00,550.00 1005.00,550.00              1005.00,550.00 985.00,535.00 985.00,535.00              985.00,535.00 967.00,523.00 967.00,523.00              967.00,523.00 961.00,520.00 961.00,520.00              961.00,520.00 955.00,514.00 955.00,514.00              955.00,514.00 939.00,504.00 939.00,504.00              939.00,504.00 932.00,497.00 932.00,497.00              932.00,497.00 903.00,477.00 903.00,477.00              903.00,477.00 872.00,451.00 872.00,451.00              872.00,451.00 847.00,432.00 847.00,432.00              847.00,432.00 836.00,423.00 836.00,423.00              836.00,423.00 814.00,407.00 814.00,407.00              814.00,407.00 807.00,404.00 807.00,404.00              807.00,404.00 801.00,398.00 801.00,398.00              801.00,398.00 794.00,393.00 794.00,393.00              794.00,393.00 785.00,384.00 785.00,384.00              785.00,384.00 755.00,358.00 755.00,358.00              755.00,358.00 717.00,319.00 717.00,319.00              717.00,319.00 706.00,302.00 706.00,302.00              698.00,291.00 688.00,280.00 687.00,266.00              687.00,266.00 686.00,252.00 686.00,252.00              687.00,250.00 688.00,248.00 688.00,246.00              688.00,246.00 690.00,239.00 690.00,239.00              693.00,232.00 704.00,221.00 710.00,217.00              710.00,217.00 726.00,210.00 726.00,210.00              726.00,210.00 733.00,210.00 733.00,210.00              733.00,210.00 738.00,209.00 738.00,209.00              743.00,209.00 743.00,210.00 749.00,209.00              751.00,212.00 758.00,213.00 762.00,215.00              762.00,215.00 768.00,219.00 768.00,219.00              780.00,225.00 778.00,221.00 793.00,231.00              793.00,231.00 799.00,234.00 799.00,234.00              799.00,234.00 815.00,250.00 815.00,250.00              815.00,250.00 820.00,257.00 820.00,257.00              820.00,257.00 827.00,264.00 827.00,264.00              830.00,267.00 833.00,273.00 837.00,275.00              837.00,275.00 846.00,296.00 846.00,296.00              846.00,296.00 842.00,316.00 842.00,316.00              842.00,316.00 842.00,324.00 842.00,324.00              842.00,324.00 846.00,351.00 846.00,351.00              846.00,351.00 852.00,363.00 852.00,363.00              852.00,363.00 858.00,374.00 858.00,374.00              858.00,374.00 862.00,377.00 862.00,377.00              862.00,377.00 868.00,383.00 868.00,383.00              868.00,383.00 878.00,390.00 878.00,390.00              878.00,390.00 898.00,403.00 898.00,403.00              898.00,403.00 903.00,403.00 903.00,403.00              905.00,408.00 908.00,405.00 911.00,409.00              911.00,409.00 915.00,422.00 915.00,422.00              915.00,422.00 916.00,436.00 916.00,436.00              917.00,441.00 921.00,460.00 923.00,465.00              923.00,465.00 927.00,472.00 927.00,472.00              932.00,482.00 934.00,488.00 946.00,490.00              948.00,486.00 951.00,481.00 949.00,476.00              949.00,474.00 946.00,471.00 944.00,466.00              944.00,466.00 941.00,450.00 941.00,450.00              940.00,444.00 936.00,436.00 943.00,432.00              943.00,443.00 949.00,449.00 947.00,461.00              947.00,461.00 955.00,475.00 955.00,475.00              955.00,475.00 964.00,487.00 964.00,487.00              964.00,487.00 968.00,487.00 968.00,487.00              968.00,489.00 969.00,490.00 970.00,492.00              971.00,495.00 983.00,506.00 985.00,508.00              991.00,511.00 997.00,510.00 999.00,502.00              1000.00,494.00 991.00,483.00 987.00,476.00              977.00,461.00 977.00,459.00 973.00,442.00              972.00,439.00 969.00,429.00 969.00,426.00              970.00,424.00 970.00,421.00 972.00,421.00              975.00,420.00 984.00,427.00 986.00,429.00              994.00,437.00 994.00,440.00 1000.00,447.00              1000.00,447.00 1007.00,454.00 1007.00,454.00              1010.00,458.00 1012.00,462.00 1017.00,463.00              1017.00,463.00 1029.00,479.00 1029.00,479.00              1029.00,479.00 1034.00,481.00 1034.00,481.00              1035.00,484.00 1046.00,494.00 1049.00,496.00              1051.00,497.00 1052.00,497.00 1054.00,497.00              1055.00,501.00 1059.00,503.00 1062.00,506.00              1062.00,506.00 1074.00,519.00 1074.00,519.00              1078.00,522.00 1083.00,525.00 1084.00,530.00              1084.00,530.00 1095.00,539.00 1095.00,539.00              1095.00,539.00 1116.00,552.00 1116.00,552.00              1116.00,552.00 1129.00,561.00 1129.00,561.00              1129.00,561.00 1144.00,564.00 1144.00,564.00              1144.00,564.00 1153.00,562.00 1153.00,562.00              1156.00,559.00 1157.00,560.00 1160.00,558.00              1160.00,558.00 1169.00,549.00 1169.00,549.00              1176.00,543.00 1183.00,539.00 1189.00,532.00              1193.00,528.00 1197.00,519.00 1196.00,513.00              1195.00,509.00 1190.00,505.00 1187.00,504.00              1187.00,504.00 1180.00,502.00 1180.00,502.00              1167.00,498.00 1156.00,492.00 1144.00,486.00              1144.00,486.00 1105.00,465.00 1105.00,465.00              1105.00,465.00 1078.00,443.00 1078.00,443.00              1073.00,439.00 1072.00,439.00 1067.00,434.00              1067.00,434.00 1055.00,419.00 1055.00,419.00              1055.00,419.00 1050.00,414.00 1050.00,414.00              1047.00,410.00 1044.00,405.00 1042.00,401.00              1044.00,401.00 1045.00,401.00 1047.00,402.00              1047.00,402.00 1062.00,411.00 1062.00,411.00              1069.00,416.00 1069.00,419.00 1078.00,420.00              1080.00,426.00 1082.00,425.00 1086.00,428.00              1086.00,428.00 1091.00,433.00 1091.00,433.00              1095.00,436.00 1096.00,436.00 1099.00,438.00              1099.00,438.00 1104.00,443.00 1104.00,443.00              1104.00,443.00 1111.00,448.00 1111.00,448.00              1111.00,448.00 1119.00,455.00 1119.00,455.00              1119.00,455.00 1127.00,461.00 1127.00,461.00              1133.00,464.00 1134.00,469.00 1141.00,469.00              1143.00,473.00 1144.00,473.00 1148.00,475.00              1153.00,478.00 1161.00,484.00 1167.00,484.00              1169.00,489.00 1171.00,487.00 1175.00,491.00              1180.00,495.00 1197.00,504.00 1204.00,506.00              1207.00,506.00 1212.00,506.00 1215.00,506.00              1224.00,505.00 1221.00,501.00 1229.00,499.00              1231.00,492.00 1239.00,490.00 1244.00,485.00              1249.00,479.00 1248.00,476.00 1251.00,470.00              1251.00,470.00 1262.00,453.00 1262.00,453.00              1263.00,449.00 1263.00,447.00 1263.00,443.00              1263.00,440.00 1263.00,437.00 1262.00,434.00              1258.00,424.00 1249.00,426.00 1241.00,422.00              1236.00,420.00 1237.00,419.00 1230.00,417.00              1230.00,417.00 1216.00,414.00 1216.00,414.00              1216.00,414.00 1195.00,405.00 1195.00,405.00              1195.00,405.00 1179.00,399.00 1179.00,399.00              1179.00,399.00 1158.00,386.00 1158.00,386.00              1158.00,386.00 1142.00,379.00 1142.00,379.00              1142.00,379.00 1108.00,358.00 1108.00,358.00              1108.00,358.00 1101.00,353.00 1101.00,353.00              1101.00,353.00 1090.00,345.00 1090.00,345.00              1090.00,345.00 1073.00,330.00 1073.00,330.00              1073.00,330.00 1068.00,324.00 1068.00,324.00              1068.00,324.00 1052.00,311.00 1052.00,311.00              1048.00,307.00 1044.00,298.00 1037.00,292.00              1032.00,288.00 1023.00,285.00 1017.00,289.00              1014.00,291.00 1013.00,295.00 1009.00,295.00              1004.00,296.00 994.00,282.00 994.00,278.00              994.00,277.00 995.00,276.00 996.00,275.00              999.00,272.00 1004.00,277.00 1006.00,280.00              1015.00,279.00 1021.00,275.00 1021.00,265.00              1021.00,261.00 1021.00,258.00 1019.00,254.00              1019.00,254.00 1006.00,238.00 1006.00,238.00              1005.00,235.00 1005.00,224.00 1000.00,216.00              994.00,208.00 987.00,202.00 977.00,199.00              971.00,197.00 962.00,198.00 958.00,193.00              952.00,185.00 951.00,177.00 948.00,168.00              948.00,168.00 941.00,150.00 941.00,150.00              941.00,150.00 933.00,136.00 933.00,136.00              933.00,136.00 928.00,125.00 928.00,125.00              928.00,125.00 919.00,109.00 919.00,109.00              919.00,109.00 914.00,98.00 914.00,98.00              914.00,98.00 906.00,86.00 906.00,86.00              906.00,86.00 900.00,77.00 900.00,77.00              900.00,77.00 896.00,71.00 896.00,71.00              893.00,66.00 893.00,64.00 887.00,61.00              873.00,53.00 862.00,65.00 862.00,79.00              862.00,86.00 872.00,102.00 877.00,109.00              879.00,114.00 882.00,120.00 884.00,126.00              884.00,126.00 885.00,134.00 885.00,134.00              885.00,134.00 892.00,146.00 892.00,146.00              896.00,156.00 894.00,157.00 897.00,165.00              897.00,167.00 899.00,170.00 898.00,173.00              896.00,176.00 891.00,173.00 888.00,171.00              888.00,171.00 881.00,168.00 881.00,168.00              881.00,168.00 865.00,160.00 865.00,160.00              865.00,160.00 855.00,157.00 855.00,157.00              855.00,157.00 843.00,150.00 843.00,150.00              839.00,148.00 839.00,150.00 831.00,146.00              823.00,141.00 822.00,144.00 815.00,142.00              815.00,142.00 799.00,138.00 799.00,138.00              771.00,131.00 748.00,126.00 718.00,125.00              709.00,124.00 699.00,125.00 690.00,126.00              690.00,126.00 673.00,128.00 673.00,128.00              668.00,127.00 667.00,119.00 660.00,112.00              652.00,105.00 640.00,100.00 629.00,99.00 Z            M 863.00,156.00            C 865.00,156.00 870.00,155.00 872.00,153.00              873.00,151.00 872.00,148.00 871.00,146.00              868.00,141.00 864.00,134.00 860.00,130.00              860.00,130.00 844.00,111.00 844.00,111.00              844.00,111.00 839.00,104.00 839.00,104.00              834.00,99.00 833.00,99.00 828.00,95.00              819.00,88.00 823.00,89.00 811.00,83.00              811.00,83.00 804.00,80.00 804.00,80.00              796.00,77.00 788.00,75.00 783.00,84.00              782.00,86.00 780.00,88.00 780.00,90.00              780.00,92.00 784.00,102.00 785.00,105.00              789.00,114.00 791.00,113.00 797.00,118.00              800.00,121.00 800.00,124.00 802.00,126.00              807.00,129.00 812.00,131.00 817.00,133.00              817.00,133.00 822.00,136.00 822.00,136.00              822.00,136.00 832.00,140.00 832.00,140.00              832.00,140.00 863.00,156.00 863.00,156.00 Z            M 1172.00,830.00            C 1172.00,830.00 1174.00,836.00 1174.00,836.00              1176.00,835.00 1180.00,834.00 1182.00,833.00              1186.00,830.00 1194.00,818.00 1197.00,814.00              1197.00,814.00 1203.00,807.00 1203.00,807.00              1203.00,807.00 1207.00,800.00 1207.00,800.00              1207.00,800.00 1231.00,762.00 1231.00,762.00              1231.00,762.00 1238.00,750.00 1238.00,750.00              1238.00,750.00 1244.00,744.00 1244.00,744.00              1244.00,744.00 1247.00,738.00 1247.00,738.00              1253.00,729.00 1259.00,722.00 1267.00,715.00              1267.00,715.00 1271.00,711.00 1271.00,711.00              1274.00,709.00 1280.00,706.00 1283.00,704.00              1285.00,703.00 1287.00,702.00 1290.00,701.00              1298.00,699.00 1309.00,702.00 1316.00,706.00              1320.00,709.00 1322.00,712.00 1327.00,713.00              1328.00,721.00 1334.00,720.00 1334.00,729.00              1337.00,733.00 1339.00,743.00 1340.00,748.00              1342.00,747.00 1343.00,746.00 1344.00,744.00              1345.00,742.00 1347.00,725.00 1348.00,721.00              1348.00,717.00 1349.00,712.00 1349.00,708.00              1348.00,687.00 1335.00,665.00 1317.00,655.00              1309.00,651.00 1300.00,650.00 1292.00,648.00              1302.00,638.00 1323.00,642.00 1333.00,650.00              1338.00,653.00 1341.00,654.00 1342.00,660.00              1342.00,660.00 1346.00,660.00 1346.00,660.00              1346.00,663.00 1347.00,667.00 1349.00,670.00              1352.00,673.00 1354.00,669.00 1354.00,666.00              1354.00,666.00 1354.00,659.00 1354.00,659.00              1355.00,650.00 1354.00,642.00 1351.00,633.00              1344.00,614.00 1325.00,598.00 1304.00,598.00              1297.00,598.00 1292.00,598.00 1285.00,600.00              1274.00,604.00 1266.00,609.00 1258.00,617.00              1254.00,621.00 1246.00,632.00 1243.00,637.00              1243.00,637.00 1233.00,678.00 1233.00,678.00              1233.00,678.00 1231.00,686.00 1231.00,686.00              1231.00,686.00 1229.00,692.00 1229.00,692.00              1229.00,692.00 1227.00,701.00 1227.00,701.00              1227.00,701.00 1224.00,708.00 1224.00,708.00              1224.00,708.00 1223.00,716.00 1223.00,716.00              1223.00,716.00 1220.00,723.00 1220.00,723.00              1220.00,723.00 1216.00,734.00 1216.00,734.00              1216.00,734.00 1214.00,744.00 1214.00,744.00              1214.00,744.00 1202.00,776.00 1202.00,776.00              1202.00,776.00 1195.00,790.00 1195.00,790.00              1195.00,790.00 1189.00,803.00 1189.00,803.00              1189.00,803.00 1178.00,821.00 1178.00,821.00              1175.00,825.00 1176.00,826.00 1172.00,830.00 Z            M 149.00,961.00            C 149.00,961.00 158.00,961.00 158.00,961.00              156.00,955.00 155.00,954.00 153.00,950.00              152.00,944.00 153.00,938.00 153.00,932.00              153.00,929.00 153.00,928.00 153.00,925.00              156.00,916.00 165.00,904.00 173.00,899.00              173.00,899.00 182.00,895.00 182.00,895.00              182.00,895.00 188.00,892.00 188.00,892.00              194.00,890.00 204.00,889.00 210.00,889.00              208.00,893.00 199.00,900.00 195.00,905.00              186.00,914.00 187.00,916.00 182.00,927.00              181.00,929.00 179.00,931.00 179.00,933.00              179.00,933.00 178.00,948.00 178.00,948.00              178.00,948.00 178.00,956.00 178.00,956.00              178.00,963.00 180.00,967.00 182.00,973.00              182.00,973.00 185.00,981.00 185.00,981.00              191.00,991.00 199.00,1000.00 208.00,1008.00              210.00,1011.00 223.00,1021.00 226.00,1022.00              228.00,1023.00 229.00,1023.00 231.00,1023.00              233.00,1029.00 235.00,1026.00 241.00,1025.00              241.00,1025.00 234.00,1015.00 234.00,1015.00              223.00,997.00 219.00,976.00 232.00,958.00              236.00,953.00 244.00,945.00 250.00,945.00              255.00,941.00 256.00,942.00 262.00,941.00              270.00,939.00 266.00,939.00 277.00,939.00              277.00,939.00 296.00,939.00 296.00,939.00              296.00,939.00 308.00,941.00 308.00,941.00              314.00,941.00 315.00,942.00 320.00,943.00              324.00,944.00 325.00,943.00 328.00,943.00              328.00,943.00 346.00,948.00 346.00,948.00              346.00,948.00 352.00,951.00 352.00,951.00              352.00,951.00 363.00,953.00 363.00,953.00              363.00,953.00 371.00,956.00 371.00,956.00              375.00,957.00 376.00,956.00 380.00,959.00              380.00,959.00 393.00,963.00 393.00,963.00              393.00,963.00 419.00,970.00 419.00,970.00              419.00,970.00 439.00,975.00 439.00,975.00              439.00,975.00 463.00,982.00 463.00,982.00              463.00,982.00 472.00,984.00 472.00,984.00              472.00,984.00 491.00,989.00 491.00,989.00              491.00,989.00 503.00,989.00 503.00,989.00              503.00,989.00 510.00,989.00 510.00,989.00              516.00,982.00 517.00,978.00 507.00,974.00              507.00,974.00 487.00,970.00 487.00,970.00              487.00,970.00 458.00,960.00 458.00,960.00              458.00,960.00 444.00,952.00 444.00,952.00              444.00,952.00 435.00,950.00 435.00,950.00              435.00,950.00 421.00,944.00 421.00,944.00              421.00,944.00 404.00,935.00 404.00,935.00              404.00,935.00 394.00,930.00 394.00,930.00              394.00,930.00 368.00,915.00 368.00,915.00              368.00,915.00 345.00,903.00 345.00,903.00              345.00,903.00 322.00,888.00 322.00,888.00              322.00,888.00 297.00,873.00 297.00,873.00              297.00,873.00 257.00,846.00 257.00,846.00              241.00,838.00 217.00,834.00 199.00,834.00              173.00,834.00 149.00,845.00 133.00,865.00              130.00,868.00 126.00,874.00 124.00,878.00              124.00,878.00 122.00,885.00 122.00,885.00              121.00,889.00 119.00,893.00 118.00,897.00              118.00,897.00 118.00,908.00 118.00,908.00              119.00,914.00 125.00,932.00 129.00,937.00              129.00,937.00 149.00,961.00 149.00,961.00 Z" fill="none" id="selection_to_path" stroke="black" stroke-width="1" style="fill:#000000;fill-opacity:1"/>
</svg>
