<?xml version="1.0" encoding="UTF-8" standalone="no"?>
<!-- Created with Inkscape (http://www.inkscape.org/) -->

<svg
   xmlns:dc="http://purl.org/dc/elements/1.1/"
   xmlns:cc="http://creativecommons.org/ns#"
   xmlns:rdf="http://www.w3.org/1999/02/22-rdf-syntax-ns#"
   xmlns:svg="http://www.w3.org/2000/svg"
   xmlns="http://www.w3.org/2000/svg"
   xmlns:sodipodi="http://sodipodi.sourceforge.net/DTD/sodipodi-0.dtd"
   xmlns:inkscape="http://www.inkscape.org/namespaces/inkscape"
   id="svg5311"
   version="1.1"
   inkscape:version="0.48.1 "
   width="597.75"
   height="592.85"
   xml:space="preserve"
   sodipodi:docname="dragonfly-vector-graphics.pdf"><metadata
     id="metadata5317"><rdf:RDF><cc:Work
         rdf:about=""><dc:format>image/svg+xml</dc:format><dc:type
           rdf:resource="http://purl.org/dc/dcmitype/StillImage" /><dc:title></dc:title></cc:Work></rdf:RDF></metadata><defs
     id="defs5315" /><sodipodi:namedview
     pagecolor="#ffffff"
     bordercolor="#666666"
     borderopacity="1"
     objecttolerance="10"
     gridtolerance="10"
     guidetolerance="10"
     inkscape:pageopacity="0"
     inkscape:pageshadow="2"
     inkscape:window-width="640"
     inkscape:window-height="480"
     id="namedview5313"
     showgrid="false"
     inkscape:zoom="0.49084931"
     inkscape:cx="298.875"
     inkscape:cy="296.42499"
     inkscape:window-x="680"
     inkscape:window-y="151"
     inkscape:window-maximized="0"
     inkscape:current-layer="g5319" /><g
     id="g5319"
     inkscape:groupmode="layer"
     inkscape:label="dragonfly-vector-graphics"
     transform="matrix(1.25,0,0,-1.25,0,592.85)"><g
       id="g5321"
       transform="scale(0.24,0.24)"><path
         d="m 951.828,1547.62 28.434,0.88 c 0,0 -0.657,4.59 0,9.18 l -29.961,0 1.527,-10.06 z m 2.129,-11.33 26.047,0.8 c 0,0 -0.606,4.21 0,8.41 l -27.453,0 1.406,-9.21 z m 31.406,-596.497 -9.097,-6.613 5.433,-16.739 c 2.406,5.688 3.848,12.629 3.848,20.2 0,1.074 -0.125,2.097 -0.184,3.152 m -39.504,0 c -0.05,-1.055 -0.183,-2.078 -0.183,-3.152 0,-7.571 1.461,-14.512 3.851,-20.2 l 5.43,16.739 -9.098,6.613 z m 19.758,26.16 6.582,-20.258 12.567,0 c -2.313,14.61 -9.965,25.403 -19.149,25.403 -9.187,0 -16.84,-10.793 -19.156,-25.403 l 12.566,0 6.59,20.258 z m -15.133,-51.508 c 3.657,-7.441 9.039,-12.257 15.133,-12.257 6.082,0 11.469,4.816 15.129,12.257 l -15.129,10.996 -15.133,-10.996 z m 39.496,283.875 -12.035,-8.75 7.004,-21.58 c 3.246,7.07 5.192,15.93 5.192,25.58 0,1.61 -0.063,3.19 -0.161,4.75 m -24.363,29.19 7.613,-23.45 16.098,0 c -2.746,17.93 -12.301,31.18 -23.711,31.18 -11.422,0 -20.988,-13.25 -23.726,-31.18 l 16.101,0 7.625,23.45 z m -18.855,-60.59 c 4.504,-9.17 11.273,-15.01 18.855,-15.01 7.574,0 14.344,5.84 18.844,15.01 l -18.844,13.7 -18.855,-13.7 z m -5.52,31.4 c -0.097,-1.56 -0.168,-3.14 -0.168,-4.75 0,-9.65 1.961,-18.51 5.199,-25.57 l 7.02,21.57 -12.051,8.75 z m 54.824,235.89 -14.418,-10.48 8.34,-25.64 c 3.922,8.43 6.278,19.01 6.278,30.52 0,1.9 -0.078,3.76 -0.2,5.6 m -58.878,0 c -0.122,-1.84 -0.2,-3.7 -0.2,-5.6 0,-11.51 2.36,-22.09 6.289,-30.52 l 8.332,25.64 -14.421,10.48 z m 29.441,35.75 9.285,-28.57 19.324,0 c -3.371,21.24 -14.879,36.9 -28.609,36.9 -13.731,0 -25.242,-15.66 -28.609,-36.9 l 19.328,0 9.281,28.57 z m -22.555,-73.53 c 5.434,-10.69 13.508,-17.49 22.555,-17.49 9.039,0 17.117,6.8 22.551,17.49 l -22.551,16.39 -22.555,-16.39 z M 979,1640.83 c -3.758,0 -6.805,-3.95 -6.805,-8.81 0,-4.87 3.047,-8.82 6.805,-8.82 3.762,0 6.813,3.95 6.813,8.82 0,4.86 -3.051,8.81 -6.813,8.81 m -38.129,-1.07 c -3.766,0 -6.816,-3.95 -6.816,-8.81 0,-4.87 3.05,-8.82 6.816,-8.82 3.754,0 6.805,3.95 6.805,8.82 0,4.86 -3.051,8.81 -6.805,8.81 M 966.652,351.328 c -3.425,0 -6.207,-13.39 -6.207,-29.91 0,-16.52 2.782,-29.914 6.207,-29.914 3.418,0 6.203,13.394 6.203,29.914 0,16.52 -2.785,29.91 -6.203,29.91 m -1.035,373.395 c -6.769,0 -12.25,-14.36 -12.25,-32.055 0,-17.695 5.481,-32.051 12.25,-32.051 6.766,0 12.25,14.356 12.25,32.051 0,17.695 -5.484,32.055 -12.25,32.055 m 1.035,-251.637 c -3.425,0 -6.207,-10.121 -6.207,-22.598 0,-12.484 2.782,-22.605 6.207,-22.605 3.418,0 6.203,10.121 6.203,22.605 0,12.477 -2.785,22.598 -6.203,22.598 m 25.973,1171.874 c 58.495,66.11 112.575,130.21 73.715,164.67 -16.43,14.56 -38.46,5.71 -47.8,-8.01 -9.22,-13.54 -2.68,-36.06 9.34,-40.87 12.01,-4.81 27.54,9.24 16.02,16.82 -17.61,11.63 -3.25,29.98 9.62,21.24 42.47,-28.85 -49.21,-130.55 -66.508,-150.24 l 5.613,-3.61 z m -60.574,3.61 c -17.301,19.69 -108.965,121.39 -66.504,150.24 12.871,8.74 27.25,-9.61 9.621,-21.24 -11.52,-7.58 4.004,-21.63 16.023,-16.82 12.02,4.81 18.551,27.33 9.332,40.87 -9.332,13.72 -31.371,22.57 -47.796,8.01 -38.856,-34.46 15.226,-98.56 73.718,-164.67 l 5.606,3.61 z M 1157.81,1236.2 c 42.73,-7.43 102.59,-10.87 167.02,-10 -91,33.13 -162.67,177.85 -273.4,172.26 -4.8,-28.53 -15.63,-141.03 106.38,-162.26 m 221.72,-8.24 c 42.56,35 83.97,60.8 121.44,79.76 -39.72,47.51 -228.91,57.37 -268.99,131.08 -88.27,20.83 -169.89,36.01 -180.5,-7.98 0,0 0.01,-6.08 1.71,-12.94 116.15,12.75 195.69,-159.97 288.64,-191.34 12.46,0.31 25.06,0.79 37.7,1.42 m 308.48,75.89 c 14.73,16.35 12.13,29.49 -2.95,40.51 -97.44,1.75 -253.18,-80.69 -289.01,-115.48 126.5,7.76 253.13,31.88 291.96,74.97 m -315.95,104.51 c -38.21,5.52 -83.55,16.94 -127.97,27.57 60.99,-72.29 255.8,-74.18 286.46,-114.18 59.99,26.38 106.06,34.77 124.25,37.25 -59.05,20.7 -170.67,33.15 -282.74,49.36 m -328.01,0.26 c 0.22,1.02 0.65,2.64 1.22,4.21 -0.57,6.99 -1.32,21.87 1.9,28.68 16.59,77.08 208.92,-3.06 334.28,-23.82 197.53,-32.72 393.91,-53.68 336.27,-122.4 -69.63,-83 -412.75,-99.92 -561.46,-70.63 -148.7,29.3 -112.21,183.96 -112.21,183.96 m 2.54,64.17 c 79.68,73.42 174.62,-10.66 299.37,-15.66 63.27,35.33 84.44,90.56 89.27,105.91 -122.16,-3.81 -258.49,-11.02 -387.3,-78.35 -2.64,-1.35 -6,-4.01 -7.79,-6.87 1.63,-3.52 4.19,-5.61 6.45,-5.03 m 628.72,65.92 c -15.66,5.78 -46.17,18.43 -65.64,35.25 -50.04,-7.53 -106.23,-8.85 -165.94,-10.66 -1.85,-13.04 -13.31,-69.66 -74.48,-106.34 128.17,1.28 235.74,37.1 306.06,81.75 m 88.52,106.15 c -35.14,-38.62 -82.56,-58.01 -138.39,-68.26 13.1,-6.24 40.31,-18.42 67.76,-25.83 42.98,31.09 68.2,65.1 70.63,94.09 m -139.85,58.46 c -27.8,-66.24 -128.94,-73.78 -153.92,-125.99 122.32,6.9 225.46,16.62 287.8,94.88 -16.84,26.95 -67.1,35.33 -133.88,31.11 m -580.2,-203.25 c -5.26,-6.41 -6.05,-13.44 -4.83,-18.78 0.79,1.69 2.75,4.92 7,7.15 142.31,75.61 288.37,81.39 414.87,88.37 11.57,52.9 105.53,56.02 131.36,123.74 -192.75,-21.39 -486.55,-127.56 -548.4,-200.48 m -4.28,4.14 c 96.25,120.5 729.36,310.47 755.56,162.22 15.26,-86.29 -158.91,-227.8 -421.25,-222.24 -136.36,2.89 -243.92,91.44 -327.06,26.95 -4.51,-3.66 -18.46,19.75 -7.25,33.07 M 875.984,1398.46 c -110.734,5.59 -182.41,-139.13 -273.406,-172.26 64.43,-0.87 124.301,2.57 167.024,10 122,21.23 111.171,133.73 106.382,162.26 M 585.578,1226.54 c 92.942,31.37 172.492,204.09 288.645,191.34 1.691,6.86 1.699,12.94 1.699,12.94 -10.609,43.99 -92.234,28.81 -180.492,7.98 -40.075,-73.71 -229.278,-83.57 -268.992,-131.08 37.464,-18.96 78.875,-44.76 121.445,-79.76 12.625,-0.63 25.226,-1.11 37.695,-1.42 m -54.226,2.34 c -35.829,34.79 -191.567,117.23 -289.004,115.48 -15.086,-11.02 -17.688,-24.16 -2.95,-40.51 38.829,-43.09 165.454,-67.21 291.954,-74.97 M 272.602,1359 c 18.191,-2.48 64.273,-10.87 124.25,-37.25 30.664,40 225.468,41.89 286.468,114.18 -44.425,-10.63 -89.757,-22.05 -127.965,-27.57 C 443.285,1392.15 331.66,1379.7 272.602,1359 m 498.543,-134.34 c -148.704,-29.29 -491.825,-12.37 -561.45,70.63 -57.648,68.72 138.731,89.68 336.262,122.4 125.363,20.76 317.684,100.9 334.277,23.82 3.227,-6.81 2.469,-21.69 1.895,-28.68 0.582,-1.57 1.008,-3.19 1.219,-4.21 0,0 36.504,-154.66 -112.203,-183.96 m 116.121,253.16 c -1.782,2.86 -5.149,5.52 -7.789,6.87 -128.805,67.33 -265.141,74.54 -387.301,78.35 4.824,-15.35 26,-70.58 89.265,-105.91 124.754,5 219.696,89.08 299.379,15.66 2.254,-0.58 4.809,1.51 6.446,5.03 m -329.114,-20.86 c -61.164,36.68 -72.625,93.3 -74.48,106.34 -59.711,1.81 -115.887,3.13 -165.93,10.66 -19.472,-16.82 -49.988,-29.47 -65.652,-35.25 70.328,-44.65 177.898,-80.47 306.062,-81.75 m -323.941,93.81 c 27.449,7.41 54.652,19.59 67.754,25.83 -55.832,10.25 -103.246,29.64 -138.395,68.26 2.434,-28.99 27.66,-63 70.641,-94.09 m -64.668,121.44 c 62.332,-78.26 165.484,-87.98 287.809,-94.88 -24.981,52.21 -126.129,59.75 -153.926,125.99 -66.781,4.22 -117.031,-4.16 -133.883,-31.11 m 165.68,28.34 c 25.836,-67.72 119.793,-70.84 131.367,-123.74 126.484,-6.98 272.558,-12.76 414.867,-88.37 4.246,-2.23 6.215,-5.46 6.996,-7.15 1.227,5.34 0.434,12.37 -4.824,18.78 -61.844,72.92 -355.664,179.09 -548.406,200.48 m 545.429,-229.41 c -83.14,64.49 -190.695,-24.06 -327.05,-26.95 -262.348,-5.56 -436.512,135.95 -421.254,222.24 26.211,148.25 659.316,-41.72 755.562,-162.22 11.211,-13.32 -2.746,-36.73 -7.258,-33.07 m 69.825,-1215.445 10.289,20.653 c -6.981,13.238 -11.938,25.98 -11.121,48.468 0.714,19.614 5.957,30.719 13.195,41.336 l -12.617,16.532 c -8.453,-12.942 -15.926,-29.332 -16.903,-56.407 -1.257,-34.492 8.09,-54.004 17.157,-70.582 m -14.188,188.129 c 1.012,-27.644 8.977,-44.461 16.957,-56.617 3.988,-5.855 9.258,-13.121 12.363,-17.07 8.676,-11.953 15.153,-23.25 15.961,-45.321 0.907,-25.007 -6.996,-38.175 -16.129,-53.421 -5.199,-7.684 -8.679,-15.754 -11.671,-21.684 -5.231,-12.063 -9.696,-28.336 -8.543,-51.453 1.183,-23.813 11.839,-34.66 21.246,-34.66 5.402,0 10.574,3.527 14.179,9.679 4.012,6.825 5.899,16.426 5.336,27.039 -0.922,17.289 -4.133,30.485 -8.086,41.235 l -11.035,-23.434 c 1.387,-5.777 2.418,-12.281 2.828,-19.922 0.176,-3.39 -0.199,-6.07 -1.07,-7.554 -0.727,-1.227 -1.66,-1.407 -2.152,-1.407 -2.032,0 -4.543,2.887 -4.946,11.02 -0.554,11.078 0.688,19.703 2.805,26.898 2.383,6.516 6.559,16.266 10.418,22.332 0.855,1.434 1.711,2.871 2.598,4.344 10.238,17.074 21.859,36.442 20.547,72.449 -1.106,30.293 -10.309,47.282 -19.934,60.93 -3.254,4.445 -9.223,11.984 -12.352,17.027 -7.343,10.907 -12.3,22.067 -12.992,41.051 -0.812,22.41 5.004,34.836 12.946,48.504 l 0.046,-0.082 0.036,0.082 c 2.691,4.406 8.871,15.246 10.925,19.258 7.207,14.043 13.375,31.801 12.414,58.527 -0.648,17.684 -4.191,30.824 -8.601,41.031 l -11.699,-19.05 c 2.207,-6.453 3.621,-13.926 3.964,-23.438 0.594,-16.355 -2.445,-27.539 -7.039,-37.406 -2.617,-6.121 -7.918,-15.434 -10.972,-19.664 -9.594,-16.32 -19.571,-35.465 -18.348,-69.223 m 32.754,-34.051 12.398,-16.871 c 6.684,11.645 12.625,27.332 13.481,50.922 1.078,29.492 -6.402,47.801 -14.715,62.852 l -11.164,-18.992 c 6.133,-11.52 10.242,-23.348 9.555,-42.399 -0.578,-15.82 -4.145,-26.187 -9.555,-35.512 m -41.672,279.348 c 1.246,-34.019 12.703,-51.258 23.496,-65.836 l 11.543,18.266 c -10.015,13.445 -17.828,24.715 -18.715,49.023 -0.886,24.469 8.129,36.981 19.532,52.836 6.214,7.867 9.769,14.848 13.921,21.531 6.434,12.286 11.93,28.754 11.086,51.942 -0.558,15.543 -3.746,27.367 -7.625,36.5 L 968.625,834.59 c 1.93,-5.817 3.02,-12.024 3.273,-19.168 0.497,-13.363 -1.976,-23.176 -6.289,-32.063 -5.449,-10.98 -8.523,-15.382 -13.226,-20.757 -12.356,-17.164 -26.344,-36.614 -25.012,-73.481 m -8.918,245.324 c 1.34,-36.777 16.625,-53.996 30.113,-69.191 0.207,-0.234 0.395,-0.453 0.606,-0.684 l 11.75,18.278 c -0.938,1.074 -1.879,2.179 -2.809,3.23 -12.039,13.563 -22.437,25.274 -23.328,49.817 -0.867,23.832 10.25,36.968 23.113,52.187 4.454,5.641 16.207,20.668 19.618,27.238 5.699,10.86 10.738,25.97 9.976,46.87 -0.426,11.5 -2.597,21.83 -6.359,31.33 l -13.184,-15.2 c 1.918,-5.37 2.977,-11.12 3.219,-17.59 0.371,-10.44 -1.285,-19.03 -5.559,-27.7 -2.754,-6.05 -8.117,-13.46 -11.914,-17.71 -1.816,-2.24 -3.703,-4.47 -5.648,-6.77 -14.508,-17.155 -30.949,-36.605 -29.594,-74.105 m -17.844,490.695 c 1.317,-36.13 14.161,-53.34 25.496,-68.53 10.536,-14.14 18.872,-25.3 19.79,-50.51 0.914,-25.22 -6.547,-37.79 -16.004,-53.71 -10.161,-17.1 -21.661,-36.5 -20.352,-72.63 1.352,-37.33 19.051,-54.51 34.664,-69.68 1.945,-1.89 3.77,-3.74 5.613,-5.6 l 11.563,18.77 c -2.832,2.98 -5.707,5.86 -8.563,8.63 -14,13.59 -26.078,25.33 -26.949,49.34 -0.922,25.21 6.543,37.78 15.988,53.71 10.165,17.11 21.672,36.49 20.368,72.62 -1.313,36.14 -14.16,53.35 -25.496,68.55 -10.539,14.13 -18.872,25.29 -19.789,50.51 -0.848,23.21 7.046,45.87 17.523,61.46 12,17.91 24.519,25.31 14.684,63.29 -5.879,22.7 -19.098,30.71 -19.098,61.16 0,8.01 7.617,27.51 32.453,27.64 22.063,0.12 31.512,-16.42 31.648,-28.04 0.399,-33.25 -9.902,-41.7 -11.218,-59.7 -2.805,-38.46 4.633,-46.16 15.629,-63.81 9.471,-15.2 16.601,-37.65 15.721,-62 -0.92,-25.22 -9.25,-36.38 -19.796,-50.51 -11.332,-15.2 -24.175,-32.41 -25.488,-68.55 -1.308,-36.13 10.192,-55.51 20.352,-72.62 9.453,-15.93 16.922,-28.5 16.002,-53.71 -0.87,-24.01 -12.963,-35.75 -26.955,-49.34 -4.188,-4.07 -8.473,-8.23 -12.536,-12.85 -6.257,-7.98 -7.957,-9.88 -12.554,-18.06 -5.907,-11.43 -9.051,-24.22 -9.578,-38.78 -0.625,-17.1 2.652,-30.26 6.984,-40.45 l 12.117,18.17 c -2.168,6.46 -3.055,13.13 -2.777,20.82 0.312,8.82 2.078,16.31 5.558,23.32 2.036,4.16 9.028,14.04 12.293,16.92 2.883,3.07 5.946,6.04 9.102,9.11 15.616,15.17 33.316,32.35 34.676,69.68 1.31,36.13 -10.2,55.53 -20.36,72.63 -9.457,15.92 -16.918,28.49 -15.996,53.71 0.914,25.21 9.246,36.37 19.796,50.51 11.32,15.19 24.17,32.4 25.48,68.53 1.29,35.65 -11.28,55.84 -21.39,72.06 -9.874,15.85 -17.663,28.36 -15.062,52.93 0.192,1.83 0.43,3.87 0.68,6.05 2.219,18.76 18.732,50.17 7.942,70.77 -5.282,10.08 -19.84,24.03 -41.067,24.03 -22.035,0 -35.027,-12.16 -40.117,-24.47 -11.965,-28.95 12.523,-65.79 15.977,-79.11 5.41,-20.86 -0.481,-30.91 -13.227,-49.91 -11.137,-16.6 -25.004,-37.26 -23.727,-72.35 m 51.039,-655.199 11.426,19.493 c -2.691,7.339 -4.144,15.574 -3.765,25.988 0.379,10.332 2.324,18.805 6.3,26.805 2.379,5.074 8.262,13.214 12.086,17.398 1.602,1.863 3.254,3.727 4.95,5.629 13.488,15.195 28.775,32.414 30.115,69.191 1.36,37.5 -15.088,56.95 -29.592,74.105 -0.328,0.38 -0.609,0.74 -0.93,1.12 l -11.886,-18.006 c 1,-1.187 1.984,-2.418 2.968,-3.582 12.864,-15.219 23.985,-28.355 23.114,-52.187 -0.887,-24.543 -11.289,-36.254 -23.336,-49.817 -2.407,-2.707 -4.86,-5.469 -7.27,-8.379 0,0 -8.226,-10.238 -12.308,-18.074 -5.133,-9.777 -9.84,-23.43 -10.543,-42.742 -0.731,-20.199 3.359,-35.266 8.671,-46.942 m -9.41,-198.367 c 0.789,21.711 5.938,36.653 11.68,47.617 -0.172,0.223 11.867,18.289 11.867,18.289 0.645,0.883 1.293,1.747 1.942,2.61 10.543,14.133 18.882,25.293 19.785,50.484 0.855,23.211 -7.25,35.696 -17.821,50.446 l 10.633,19.488 c 11.961,-16.672 24.806,-36.004 23.516,-71.387 -1.32,-36.129 -14.16,-53.336 -25.485,-68.523 -0.351,-0.465 -11.089,-16.485 -12.746,-19.524 -3.98,-8.125 -6.558,-17.539 -7.043,-30.957 -0.492,-13.496 1.516,-23.445 4.809,-32.062 l -11.441,-19.332 c -5.95,13.136 -10.543,29.57 -9.696,52.851"
         style="fill:#231f20;fill-opacity:1;fill-rule:nonzero;stroke:none"
         id="path5323" /></g></g></svg>