<?xml version="1.0" encoding="UTF-8" standalone="no"?>
<!-- Created with Inkscape (http://www.inkscape.org/) -->

<svg
   xmlns:dc="http://purl.org/dc/elements/1.1/"
   xmlns:cc="http://creativecommons.org/ns#"
   xmlns:rdf="http://www.w3.org/1999/02/22-rdf-syntax-ns#"
   xmlns:svg="http://www.w3.org/2000/svg"
   xmlns="http://www.w3.org/2000/svg"
   xmlns:sodipodi="http://sodipodi.sourceforge.net/DTD/sodipodi-0.dtd"
   xmlns:inkscape="http://www.inkscape.org/namespaces/inkscape"
   id="svg2"
   sodipodi:version="0.32"
   inkscape:version="0.47 r22583"
   width="334.07907"
   height="387.49561"
   sodipodi:docname="eagle.svg"
   version="1.0">
  <metadata
     id="metadata7">
    <rdf:RDF>
      <cc:Work
         rdf:about="">
        <dc:format>image/svg+xml</dc:format>
        <dc:type
           rdf:resource="http://purl.org/dc/dcmitype/StillImage" />
        <dc:title></dc:title>
      </cc:Work>
    </rdf:RDF>
  </metadata>
  <defs
     id="defs5">
    <inkscape:perspective
       sodipodi:type="inkscape:persp3d"
       inkscape:vp_x="0 : 443.75 : 1"
       inkscape:vp_y="0 : 1000 : 0"
       inkscape:vp_z="750 : 443.75 : 1"
       inkscape:persp3d-origin="375 : 295.83333 : 1"
       id="perspective106" />
  </defs>
  <sodipodi:namedview
     inkscape:window-height="706"
     inkscape:window-width="1366"
     inkscape:pageshadow="2"
     inkscape:pageopacity="0.0"
     borderopacity="1.0"
     bordercolor="#666666"
     pagecolor="#ffffff"
     id="base"
     inkscape:zoom="0.41253288"
     inkscape:cx="-394.97778"
     inkscape:cy="-6.337804"
     inkscape:window-x="-8"
     inkscape:window-y="-8"
     inkscape:current-layer="svg2"
     showguides="true"
     inkscape:guide-bbox="true"
     showgrid="false"
     inkscape:window-maximized="1" />
  <g
     id="g2338"
     style="fill:#fefeff;fill-opacity:1;stroke-width:7.08661318;stroke-miterlimit:4;stroke-dasharray:none"
     transform="matrix(-0.47202,0.08720737,0.08720737,0.47202,-545.29076,-687.54996)">
    <g
       style="fill:#fefeff;fill-opacity:1;stroke-width:7.08661318;stroke-miterlimit:4;stroke-dasharray:none"
       transform="matrix(0,1,-1,0,1576.291,-225.7147)"
       id="g2346" />
  </g>
  <path
     id="path2352"
     style="fill:#060606;fill-opacity:1;fill-rule:evenodd;stroke:#000000;stroke-width:1.006881px;stroke-linecap:butt;stroke-linejoin:miter;stroke-opacity:1"
     d="m 167.06974,386.99218 c 13.983,-4.74429 14.7555,-17.05022 19.3058,-27.61256 7.5168,14.0164 25.8623,14.79759 47.4471,11.61969 15.7263,-3.89007 20.2529,2.55813 26.1443,7.74646 3.2401,-10.60288 -4.5039,-24.24836 -20.3345,-27.11261 -16.6213,1.65322 -29.6067,0.57954 -36.7956,-4.84154 3.6694,-3.45162 17.099,-5.13057 29.0492,-8.71476 -16.2897,-20.8537 -24.5448,-11.45387 -36.5835,-13.17825 -9.2955,-7.6088 -12.3296,-14.46361 -15.493,-21.30277 3.8536,-2.23246 19.4118,2.85049 35.6153,8.33671 -5.7335,-18.4019 -13.9328,-17.00524 -23.2394,-24.20769 -12.7095,-4.55232 -11.2155,-11.47189 -15.493,-17.42954 8.5658,4.83605 14.8313,10.69441 30.0176,12.58801 -23.4947,-24.24355 -26.7814,-37.40533 -26.1443,-48.41538 15.4821,-4.2881 32.7733,48.34394 38.7323,63.90829 4.7347,-4.81368 8.741,-10.53783 16.4612,-11.61969 9.2707,10.23293 20.3384,18.06987 31.9542,25.176 -7.9275,5.97605 -18.0192,-7.72342 -26.1443,-0.96831 -9.2265,11.77806 -4.7232,20.32559 -0.9684,29.04923 -0.3273,-8.20134 4.4321,-9.40832 10.3409,-9.03496 6.2865,1.38061 10.73,-1.38544 13.8707,-7.08293 3.3447,-3.70304 6.6894,-3.69229 10.0341,-3.54146 -0.2378,10.70387 2.0296,24.271 -3.2463,29.21705 -5.1597,16.75921 9.0326,10.45666 4.1317,27.44631 6.0973,-3.56711 11.4734,-4.83676 16.8219,-18.88778 -0.6897,-10.29261 -3.2665,-11.34391 -6.1975,-14.16584 l -0.5903,-19.47803 c 6.9084,4.19905 13.2136,9.24239 16.2317,18.88778 3.3893,16.51797 18.039,0.0956 22.7244,17.11705 5.6285,-17.10574 -0.023,-33.06411 -10.9195,-33.93899 -12.6735,2.14291 -21.2337,-7.07276 -21.5439,-13.57559 10.5603,-1.22135 22.7941,4.3209 31.2829,-8.2634 2.0477,-1.74428 4.0346,-3.56448 9.1488,-1.47561 -6.1821,-10.36019 -12.0833,-14.19923 -21.2488,-15.64145 -14.5867,-3.69121 -12.0415,16.36583 -27.1512,20.06828 l -10.6244,-2.6561 -30.9877,-25.38047 12.1,-4.13169 c -19.4421,-14.73101 -24.2856,-37.42484 -36.0049,-56.36824 6.1518,-7.48214 16.5052,35.88585 36.3,44.26825 1.4757,-9.34555 -13.0837,-21.24876 -23.6098,-53.1219 7.7662,-3.63555 17.0187,39.74305 51.6463,58.72921 7.4559,3.74886 13.7908,1.95096 18.8878,-0.59025 -20.6787,-23.28571 -36.0656,-47.84807 -48.1048,-75.84626 0.7332,-2.59384 1.5029,-5.09638 5.3122,0 11.0019,28.51866 30.2004,46.35136 59.0243,62.27067 -20.8754,-20.55006 -37.3373,-43.30688 -51.9414,-66.99261 -0.3678,-6.74853 1.8443,-7.90715 6.1976,-4.42682 8.4476,14.45697 17.3556,28.65819 32.7585,39.25117 9.6499,3.42641 17.991,2.27212 24.4951,-5.31218 -22.6211,-12.98089 -32.1745,-37.84147 -47.0719,-57.84385 -1.3876,-7.34609 1.9571,-6.80504 5.1646,-6.49268 6.4813,17.45923 23.1379,30.55756 40.4316,43.38289 l 5.3122,-0.88537 c -16.7702,-16.84776 -29.5505,-35.69055 -43.3828,-54.00726 0.8645,-2.23772 -1.1251,-5.83774 4.1317,-2.95121 6.1542,6.67566 11.5264,13.25172 20.6585,19.1829 6.8386,3.18012 12.7363,2.12573 18.0024,-1.77073 -15.1552,-12.85577 -26.0623,-26.98598 -33.3488,-42.20239 l 2.0659,-5.31219 c 6.3527,10.87694 15.6835,19.52028 28.3317,25.67558 l -28.6268,-40.431664 c -0.3949,-4.23277 1.6472,-3.59177 3.5414,-3.24634 4.9153,6.68344 10.6999,14.668944 25.9707,9.739024 -25.0821,-17.192854 -20.0682,-61.975554 -34.5292,-79.977974 -13.4229,-14.3998898 -32.3132,-7.64167 -39.8414,-0.59024 -9.3203,13.26894 -9.16,30.50494 3.2463,34.23411 7.5929,7.53006 5.6468,15.59007 -0.8853,23.90486 -12.6505,17.50234 -26.1256,32.118164 -41.9073,38.660924 -18.8868,2.83432 -23.9486,-3.12905 -25.6756,-11.21462 11.561,0.50341 19.2281,-3.94902 22.1341,-14.460954 -18.4799,2.1056 -27.4601,-0.72865 -26.2658,-8.85366 14.0118,1.90615 17.7932,-2.43962 17.7073,-9.14877 -7.0356,6.79536 -9.2899,0.66271 -13.2805,-4.72194 -2.182,-3.61394 -0.7413,-19.85221 2.6561,-25.08534 2.2345,-5.90243 4.1208,-11.80487 -0.5902,-17.7073 -2.212,-2.95122 -3.1464,-5.90243 0.8853,-8.85365 7.2535,0.99361 9.3935,-5.68294 12.1,-11.5097398 -12.1958,4.21879 -26.8345,4.52678 -37.7755,-0.59024 -12.0926,-5.17635001 -27.5441,-6.01905 -33.0537,3.83658 -13.4915,2.1886698 -19.4585,8.3977498 -17.4121,17.1170498 l 3.5414,7.08292 c 0.8105,-12.64318 30.4954,-2.93674 28.0366,1.77073 l -16.2317,1.47561 c 9.8073,5.24389 23.5845,9.76422 22.1341,23.01949 -2.1958,18.21541 -17.8201,14.5721 -28.9219,14.46096 -1.2069,5.92026 1.427,11.29182 11.2146,15.64144 -6.2971,2.77644 -11.184,8.72568 -20.3634,5.01707 -1.1129,7.421104 8.0597,11.807184 19.1829,14.756084 -9.0933,7.95014 -19.3418,10.12494 -31.1506,3.00963 -15.3543,-5.89411 -18.0544,-17.636604 -30.7048,-35.138944 -3.6588,-7.59646 -4.8866,-15.65646 -0.8854,-23.90486 12.4064,-3.72917 12.5667,-20.96516 3.2464,-34.23411 -7.5283,-7.05143 -26.4185,-13.8096498 -39.8415,0.59025 -14.4609,18.00242 -9.4471,62.78511 -34.5291995,79.97796 15.2708995,4.929924 21.0553995,-3.05558 25.9706995,-9.73902 1.8943,-0.34543 3.9363,-0.98643 3.5415,3.24634 L 4.0449405,132.69571 C 16.69314,126.5404 26.02394,117.89706 32.37664,107.02012 l 2.0658,5.31219 c -7.2864,15.21641 -18.1935,29.34662 -33.3486995,42.20239 5.2661,3.89646 11.1636995,4.95085 18.0023995,1.77074 9.1321,-5.93119 14.5043,-12.50725 20.6585,-19.18291 5.2567,-2.88653 3.2672,0.7135 4.1317,2.95121 -13.8324,18.31671 -26.6126,37.15951 -43.3828995,54.00726 l 5.3122,0.88537 C 23.10934,182.14105 39.76604,169.04271 46.24734,151.58349 c 3.2075,-0.31237 6.5522,-0.85342 5.1646,6.49268 -14.8974,20.00237 -24.4508,44.86295 -47.0718995,57.84384 6.5039995,7.5843 14.8451995,8.73859 24.4950995,5.31218 15.4028,-10.59298 24.3109,-24.7942 32.7585,-39.25117 4.3532,-3.48033 6.5654,-2.32171 6.1976,4.42682 -14.6041,23.68573 -31.066,46.44255 -51.9415,66.99261 28.8239,-15.91931 48.0225,-33.75201 59.0244,-62.27067 3.8093,-5.09637 4.579,-2.59384 5.3122,0 -12.0392,27.99819 -27.4262,52.56055 -48.1049,75.84627 5.0971,2.5412 11.432,4.3391 18.8878,0.59024 34.6276,-18.98616 43.8802,-62.36476 51.6463,-58.7292 -10.526,31.87314 -25.0854,43.77634 -23.6097,53.12189 19.7948,-8.3824 30.1481,-51.75039 36.2999,-44.26825 -11.7193,18.9434 -16.5628,41.63723 -36.0048,56.36824 l 12.1,4.1317 -30.9878,25.38047 -10.6244,2.65609 c -15.1096,-3.70245 -12.5644,-23.75948 -27.1512,-20.06828 -9.1654,1.44222 -15.0665995,5.28126 -21.2486995,15.64145 5.1142,-2.08887 7.1011,-0.26867 9.1487995,1.47561 8.4887,12.5843 20.7226,7.04205 31.2829,8.2634 -0.3102,6.50283 -8.8704,15.7185 -21.5439,13.5756 C 9.3796405,325.98988 3.7285405,341.94825 9.3571405,359.05399 14.04254,342.03251 28.69214,358.45491 32.08144,341.93695 c 3.0181,-9.6454 9.3234,-14.68874 16.2317,-18.88779 l -0.5902,19.47803 c -2.931,2.82194 -5.5078,3.87323 -6.1976,14.16584 5.3485,14.05102 10.7246,15.32067 16.822,18.88778 -4.901,-16.98965 9.2914,-10.6871 4.1317,-27.44631 -5.276,-4.94605 -3.0085,-18.51318 -3.2464,-29.21705 3.3447,-0.15083 6.6895,-0.16158 10.0342,3.54146 3.1406,5.69749 7.5842,8.46354 13.8707,7.08293 5.9088,-0.37336 10.6682,0.83363 10.3408,9.03496 3.7549,-8.72363 8.2581,-17.27117 -0.9683,-29.04923 -8.1252,-6.75511 -18.2169,6.94436 -26.1443,0.96831 11.6158,-7.10612 22.6835,-14.94307 31.9541,-25.17599 7.7202,1.08185 11.7266,6.806 16.4613,11.61969 5.9589,-15.56436 23.2501,-68.1964 38.7323,-63.9083 0.637,11.01005 -2.6497,24.17183 -26.1443,48.41538 15.1862,-1.89359 21.4518,-7.75196 30.0175,-12.58801 -4.2775,5.95766 -2.7835,12.87722 -15.4929,17.42954 -9.3067,7.20246 -17.5059,5.80579 -23.2394,24.20769 16.2034,-5.48621 31.7617,-10.56917 35.6152,-8.3367 -3.1634,6.83915 -6.1974,13.69396 -15.4929,21.30276 -12.0388,1.72438 -20.2938,-7.67545 -36.5835,13.17825 11.9501,3.58419 25.3798,5.26315 29.0492,8.71476 -7.1889,5.42108 -20.1744,6.49476 -36.7957,4.84154 -15.8306,2.86426 -23.5745,16.50973 -20.3344,27.11261 5.8914,-5.18833 10.4179,-11.63652 26.1443,-7.74646 21.5848,3.1779 39.9303,2.39671 47.447,-11.61969 4.5504,10.56234 5.3229,22.86827 19.3662,29.04923 z"
     sodipodi:nodetypes="cccccccccccccccccccccccccccccccccccccccccccccccccccccccccccccccccccccccccccccccccccccccccccccccccccccccccccccccccccccccccccccccccccccccccccccccccccccccccccccc" />
</svg>
