<?xml version="1.0" encoding="UTF-8" standalone="no"?>
<!-- Created with Inkscape (http://www.inkscape.org/) -->

<svg
   xmlns:dc="http://purl.org/dc/elements/1.1/"
   xmlns:cc="http://creativecommons.org/ns#"
   xmlns:rdf="http://www.w3.org/1999/02/22-rdf-syntax-ns#"
   xmlns:svg="http://www.w3.org/2000/svg"
   xmlns="http://www.w3.org/2000/svg"
   xmlns:sodipodi="http://sodipodi.sourceforge.net/DTD/sodipodi-0.dtd"
   xmlns:inkscape="http://www.inkscape.org/namespaces/inkscape"
   version="1.0"
   width="192.2867"
   height="79.311462"
   id="svg2780"
   inkscape:version="0.47 r22583"
   sodipodi:docname="12065797931264970034wipp_Hittnau_-_Coat_of_arms.svg">
  <metadata
     id="metadata14">
    <rdf:RDF>
      <cc:Work
         rdf:about="">
        <dc:format>image/svg+xml</dc:format>
        <dc:type
           rdf:resource="http://purl.org/dc/dcmitype/StillImage" />
      </cc:Work>
    </rdf:RDF>
  </metadata>
  <sodipodi:namedview
     pagecolor="#ffffff"
     bordercolor="#666666"
     borderopacity="1"
     objecttolerance="10"
     gridtolerance="10"
     guidetolerance="10"
     inkscape:pageopacity="0"
     inkscape:pageshadow="2"
     inkscape:window-width="1366"
     inkscape:window-height="706"
     id="namedview12"
     showgrid="false"
     inkscape:zoom="1.8880002"
     inkscape:cx="39.439358"
     inkscape:cy="9.3755746"
     inkscape:window-x="-8"
     inkscape:window-y="-8"
     inkscape:window-maximized="1"
     inkscape:current-layer="svg2780" />
  <defs
     id="defs2782">
    <inkscape:perspective
       sodipodi:type="inkscape:persp3d"
       inkscape:vp_x="0 : 124.99998 : 1"
       inkscape:vp_y="0 : 1000 : 0"
       inkscape:vp_z="251.99843 : 124.99998 : 1"
       inkscape:persp3d-origin="125.99921 : 83.333323 : 1"
       id="perspective16" />
  </defs>
  <path
     id="path3223"
     style="fill:#000000;fill-opacity:1;fill-rule:evenodd;stroke:none"
     d="m 80.235413,25.924054 c 7.3416,-0.30759 8.26435,-3.68594 9.93758,-4.76244 1.76038,-1.13257 5.29189,-1.6596 5.15124,-3.29838 -0.14013,-1.63285 -2.26803,0.632 -5.36751,-0.29567 -3.04235,-0.91058 -3.7675,-3.31758 -3.89956,-4.52794 -0.13206,-1.21036 2.51061,0.13264 3.46529,0.14063 0.74741,0.006 1.24263,-0.041 1.37967,-1.03572 -5.66926,-0.42421 -10.12607,1.32762 -12.25319,0.39169 -2.07506,-0.91302 -4.26875,-4.1778096 -1.82435,-4.2191396 2.3821,-0.0413 1.66251,2.1288796 5.21412,2.2656896 3.54867,0.13671 7.47577,-0.26962 8.8056,-0.20882 -0.0888,-1.8634896 -2.86592,-1.5011296 -7.62214,-1.4078396 1.66036,-5.26425 6.05114,-9.21215996 12.34028,-8.95415996 6.282817,0.25775 10.352397,2.78657996 10.419177,10.12818956 0.0668,7.46621 -3.96167,9.03719 -3.87388,10.39052 0.0918,1.41537 3.41162,4.98256 10.31732,5.89176 6.91348,0.91022 9.48977,5.35754 12.83315,3.73782 3.29604,-1.59678 4.23619,-5.7313 0.99675,-10.71506 -3.18273,-4.89651 0.62298,-13.4561496 12.08561,-13.4561496 11.46264,0 40.72155,-0.24918 43.90902,-0.37377 3.06307,-0.11974 5.43015,-4.72034996 7.79744,-3.10774 2.28292,1.55514 1.71672,5.45621 -1.24594,9.8357996 -2.86566,4.2362 -34.50693,2.96476 -37.87653,2.24269 -3.48863,-0.74757 -4.60998,2.74107 -1.12135,3.48863 3.46515,0.74253 34.26331,3.64454 36.75519,2.3986 2.44407,-1.22204 3.73782,-3.20812 5.23294,-1.37053 1.54596,1.90006 -0.12185,9.58061 -10.83966,11.18213 -10.83967,1.61972 -29.43809,-3.24813 -32.02062,-3.98701 -2.61292,-0.74757 -3.60611,1.24594 -1.98995,1.99351 1.61616,0.74756 19.43308,7.2955 23.04631,8.72156 3.50567,1.38361 5.91905,1.0354 8.63905,1.14664 2.71776,0.11114 6.41552,-3.52748 8.80409,-0.71732 2.4506,2.883153 -4.51561,9.538263 -13.95451,9.787383 -9.44137,0.24918 -26.8422,-10.785203 -28.77763,-12.459383 -1.87246,-1.61972 -4.11871,-0.24919 -2.37084,1.24593 1.82086,1.55756 18.56449,16.944763 24.66958,16.944773 6.2297,0 6.57571,5.23294 1.24594,6.22969 -5.32977,0.99675 -13.95807,-0.87215 -18.06611,-4.85916 -4.10804,-3.98701 -14.01474,-13.3331 -15.07586,-14.57748 -1.12134,-1.315003 -3.11485,-0.37379 -1.86891,1.37053 1.30555,1.82777 8.09861,13.50099 9.96752,13.95452 1.98678,0.48212 4.60997,3.987 -0.62297,3.987 -5.23295,0 -10.60224,-5.10007 -12.60464,-9.59373 -2.04862,-4.59738 -2.26049,-5.24921 -3.82897,-7.53553 -1.62609,-2.3703 -3.37274,-2.13824 -3.25222,1.55502 0.12458,3.81772 2.29381,6.10636 3.86177,8.23087 1.5229,2.06345 -0.72293,4.9273 -4.73394,2.73339 -4.0646,-2.22322 -5.44333,-6.76101 -6.67713,-9.7495 -1.21645,-2.94646 0.32492,-6.641353 -3.41497,-6.641353 -3.73781,0 -9.92266,1.065813 -2.86566,7.793883 6.992,6.6661 9.46914,9.46913 9.46914,11.21344 0,1.74431 10.71507,6.60349 12.58397,7.47564 1.76723,0.82471 4.12672,1.92051 5.76781,-0.60159 1.6154,-2.48261 7.90815,-4.89565 9.53943,-2.84169 1.58874,2.0004 1.58852,1.91793 -1.06444,1.99091 -2.56486,0.073 -5.78908,3.37288 -2.40637,3.19668 3.47057,-0.18078 8.64612,2.60956 8.76432,5.05674 0.11834,2.44984 -2.57738,4.69182 -2.81145,2.1723 -0.23497,-2.52914 -11.53738,-5.70734 -8.94312,-3.22692 2.63784,2.52211 4.74968,2.24269 4.74968,6.47888 0,4.23619 -0.90407,2.70088 -4.88313,-1.77454 -4.01773,-4.51891 -6.12649,-6.27099 -10.11349,-1.64037 -3.987,4.63062 -0.9108,7.85941 -4.29147,4.67856 -3.33703,-3.13979 2.40191,-6.42101 3.10672,-7.7123 0.72598,-1.33007 1.71336,-2.78641 -1.77527,-3.78316 -3.48863,-0.99675 -8.35873,-4.84894 -9.99775,-4.47027 -1.65621,0.38265 -4.20595,-1.26105 -7.69458,-4.50049 -3.48863,-3.23944 -8.2232,-7.22644 -9.469127,-1.24594 -1.24594,5.98051 0.996757,9.7032 7.244147,9.27781 6.24204,-0.42501 8.20962,-0.72661 10.50863,3.57934 2.31827,4.342 0.6871,5.83194 -1.05721,4.08762 -1.74432,-1.74432 -3.84372,-1.24612 -4.57348,0.36752 -0.76268,1.68644 -5.18758,-0.36752 -6.63996,-1.61346 -1.46264,-1.25474 -4.57341,-3.66789 -4.64647,-0.30705 -0.073,3.35776 -0.23408,6.0686 -4.284197,6.0686 -4.05012,0 -4.21121,-2.71084 -4.2842,-6.0686 -0.0731,-3.36084 -3.18383,-0.94769 -4.64647,0.30705 -1.45238,1.24594 -5.87728,3.2999 -6.63996,1.61346 -0.72976,-1.61364 -2.82916,-2.11184 -4.57348,-0.36752 -1.74431,1.74432 -3.37548,0.25438 -1.05721,-4.08762 2.29901,-4.30595 4.26659,-4.00435 10.50863,-3.57934 6.24739,0.42539 8.49009,-3.2973 7.24415,-9.27781 -1.24593,-5.9805 -5.9805,-1.9935 -9.46913,1.24594 -3.48863,3.23944 -6.03837,4.88314 -7.69458,4.50049 -1.63902,-0.37867 -6.50911,3.47352 -9.99774,4.47027 -3.48863,0.99675 -2.50125,2.45309 -1.77527,3.78316 0.70481,1.29129 6.44375,4.57251 3.10672,7.7123 -3.38067,3.18085 -0.30447,-0.0479 -4.29147,-4.67856 -3.987,-4.63062 -6.09576,-2.87854 -10.11348,1.64037 -3.97907,4.47542 -4.88313,6.01073 -4.88313,1.77454 0,-4.23619 2.11183,-3.95677 4.74968,-6.47888 2.59425,-2.48042 -8.70815,0.69778 -8.94312,3.22692 -0.23407,2.51952 -2.92979,0.27754 -2.81146,-2.1723 0.11821,-2.44718 5.29375,-5.23752 8.76433,-5.05674 3.3827,0.1762 0.15849,-3.1237 -2.40637,-3.19668 -2.65297,-0.073 -2.65318,0.009 -1.06444,-1.99091 1.63128,-2.05396 7.92402,0.35908 9.53941,2.84169 1.6411,2.5221 4.00059,1.4263 5.76782,0.60159 1.8689,-0.87215 12.58396,-5.73133 12.58396,-7.47564 0,-1.74431 2.47714,-4.54734 9.46914,-11.21344 7.057,-6.72807 0.87215,-7.793883 -2.86566,-7.793883 -3.73989,0 -2.19852,3.694893 -3.41497,6.641353 -1.2338,2.98849 -2.61253,7.52628 -6.67712,9.7495 -4.01101,2.19391 -6.25684,-0.66994 -4.73394,-2.73339 1.56796,-2.12451 3.73719,-4.41315 3.86177,-8.23087 0.12052,-3.69326 -1.62613,-3.92532 -3.25222,-1.55502 -1.56848,2.28632 -1.78035,2.93815 -3.82897,7.53553 -2.0024,4.49366 -7.37169,9.59373 -12.60463,9.59373 -5.23294,0 -2.60975,-3.50488 -0.62297,-3.987 1.86891,-0.45353 8.66196,-12.12675 9.96751,-13.95452 1.24594,-1.74432 -0.74757,-2.685533 -1.86891,-1.37053 -1.06112,1.24438 -10.96782,10.59047 -15.07586,14.57748 -4.10804,3.98701 -12.73634,5.85591 -18.06611,4.85916 -5.32977,-0.99675 -4.98375,-6.22969 1.24594,-6.22969 6.1051,-10e-6 22.84873,-15.387213 24.66959,-16.944773 1.74787,-1.49512 -0.49838,-2.86565 -2.37085,-1.24593 -1.93542,1.67418 -19.33625,12.708563 -28.77762,12.459383 -9.4388995,-0.24912 -16.4051095,-6.90423 -13.9545095,-9.787383 2.38856,-2.81016 6.0863195,0.82846 8.8040795,0.71732 2.72,-0.11124 5.13338,0.23697 8.63906,-1.14664 3.61322,-1.42606 21.43014,-7.974 23.04631,-8.72156 1.61616,-0.74757 0.62296,-2.74108 -1.98995,-1.99351 -2.58253,0.73888 -21.18095,5.60673 -32.02062,3.98701 -10.71780952,-1.60152 -12.3856195,-9.28207 -10.83966952,-11.18213 1.49513002,-1.83759 2.78887002,0.14849 5.23295002,1.37053 2.49187,1.24594 33.2900295,-1.65607 36.7551795,-2.3986 3.48863,-0.74756 2.36729,-4.2362 -1.12134,-3.48863 -3.3696,0.72207 -35.0108795,1.99351 -37.8765295,-2.24269 -2.96266002,-4.3795896 -3.52886002,-8.2806596 -1.24594,-9.8357996 2.36728,-1.61260996 4.73437,2.988 7.7974395,3.10774 3.18747,0.12459 32.44638,0.37377 43.90901,0.37377 11.46263,0 15.26834,8.5596396 12.08561,13.4561496 -3.23944,4.98376 -2.29929,9.11828 0.99675,10.71506 3.34338,1.61972 5.74073,-3.92861 13.20693,-4.23619 z M 95.186683,5.3972244 c 0,0.80812 -0.8298,1.0902 -1.77546,1.0902 -0.94567,0 -1.65087,-0.28208 -1.65087,-1.0902 0,-0.80812 0.7052,-1.1525 1.65087,-1.1525 0.94566,0 1.77546,0.34438 1.77546,1.1525 z" />
</svg>
