<?xml version="1.0"?><svg width="793.7007874015749" height="682.52" xmlns="http://www.w3.org/2000/svg">

 <g>
  <title>Layer 1</title>
  <path fill="none" fill-rule="evenodd" stroke="#000000" stroke-width="3" id="path1342" d="m72.51339,375.758392c20.381393,-109.02301 4.255913,-101.477081 12.068108,-151.546326c10.521133,-50.443542 45.575272,-96.85334 95.270172,-112.743423c59.739716,-28.229317 128.492905,-38.104652 192.903244,-21.717865c44.314728,8.177574 87.929443,20.7743 129.283142,38.907364c27.78006,-22.726982 67.425385,-44.074829 102.785858,-25.885979c23.300781,33.491844 66.243713,51.590111 78.8396,92.456703c14.490723,32.919724 17.605957,71.429886 2.343872,104.704697c-14.497559,42.918823 -31.325928,86.921539 -28.599915,133.091919c11.538208,20.427704 59.447693,52.525024 20.50592,70.785431c-41.829712,9.490662 -56.002075,-41.012787 -61.127136,-72.885498c-10.599915,-44.613525 -15.175964,-90.671936 -29.570923,-134.348206c-21.007568,17.228271 -7.136719,55.071594 -29.982483,74.0849c-13.230408,22.758087 -43.600342,13.345551 -34.80426,-14.204712c-1.699768,-40.338806 -15.335175,-78.801849 -32.825897,-114.6436c-11.716492,-37.921799 8.391571,-84.054962 45.657013,-98.411011c21.200806,2.357788 37.151062,18.817474 56.302307,26.598984m-520.000999,204.795135c20.227608,-32.442444 28.513306,-79.184845 25.572517,-119.73407c1.339523,-13.23732 17.83593,-52.25798 13.94912,-15.077103c-4.929863,32.334457 -7.58197,70.380783 16.6894,95.999619c16.136169,20.704681 32.99231,58.414337 5.764725,77.274353c-23.388443,17.92395 -57.532257,19.900299 -75.329834,45.134094c-10.495861,33.550293 28.631371,64.343872 55.735474,77.435059c31.509201,-2.40387 32.587296,-55.209595 67.708969,-59.6586c34.635681,-21.263489 72.714249,-37.095764 104.336411,-63.138184c14.672241,-29.475342 -13.011261,-55.061584 -29.667084,-76.248413c-8.315384,-11.898285 -17.27536,-23.294189 -25.719559,-35.110809m196.439224,-21.5867c-6.35141,35.226929 -34.86972,59.228821 -54.056763,87.431915c-4.803223,33.201935 2.499481,67.315399 -3.165039,100.220398c-15.015686,22.285522 -47.449768,54.621216 -9.86261,75.008606c23.808044,25.175293 60.811493,8.081238 58.335571,-25.946411c6.285126,-35.422241 29.288788,-63.057495 48.81076,-91.777771c14.270294,-21.69223 24.885315,-45.388733 34.035461,-69.651733m25.662231,28.079041c-31.103394,2.41214 -73.650696,33.776917 -38.263153,62.730927c28.653168,24.017975 17.820496,77.528168 50.88327,92.734222c22.521484,3.943542 80.688232,-4.593994 50.573853,-35.469391c-25.110413,-27.242218 -25.291504,-62.770111 -26.313477,-97.138885c-7.309875,-17.203949 -2.770325,-72.785217 23.111206,-43.935516c6.324707,6.653107 11.964355,14.335571 20.083618,18.922913m-352.456802,53.114166c-14.782761,35.849609 24.060043,72.530121 3.994583,107.251343c-23.095718,17.771729 -67.127884,15.783813 -79.076065,-14.486633c-4.263275,-17.29718 4.785202,-34.220856 5.410461,-51.443939m102.723495,-85.738251c25.24176,15.477234 54.358337,31.177338 84.907623,24.693634m283.574219,-145.777771c31.096558,-13.96666 -16.134399,23.845978 -0.264648,0.209778m13.969238,-44.310684c-4.511414,2.785034 -9.022827,5.570068 -13.534241,8.355118"/>
 </g>
</svg>