<?xml version="1.0"?><svg width="250" height="250.99994999999998" xmlns="http://www.w3.org/2000/svg">
 <title>Flower Tattoo</title>
 <metadata id="metadata34">image/svg+xmlFlower outlineflower outline white plant drawing</metadata>

 <g>
  <title>Layer 1</title>
  <path d="m38.200001,43.300049" id="svg_2" stroke-linecap="round" stroke-width="5" stroke="#000000" fill="none"/>
  <path d="m36.900002,41.900051c0,0.099998 0.387386,0.615532 1,1.099998c0.784367,0.620293 1.019409,0.888859 1.299999,1.400002c0.107601,0.196011 0.5,0.799999 0.599998,0.899998l0.100002,0.100002l0,0.099998" id="svg_5" opacity="0" stroke-linecap="round" stroke-width="5" stroke="#000000" fill="none"/>
  <g id="use7146">
   <path id="svg_9" fill="#ffffff" fill-rule="evenodd" stroke="#000000" stroke-linecap="round" stroke-miterlimit="4" stroke-dashoffset="0" d="m51.497841,74.932068l-14.780251,-7.60672l-15.881227,6.855003l1.858494,-16.329964l-10.523823,-11.440804l16.36937,-3.102554l7.573511,-14.97809l6.949669,16.682337l17.964394,1.230644l-12.599792,12.471268l3.069656,16.21888z"/>
   <path id="svg_10" fill="#ffffff" fill-rule="evenodd" stroke="#000000" stroke-width="1px" d="m36.682175,55.896919c-4.698248,-24.436708 5.306175,-24.664736 12.733566,-20.106941c7.49128,4.597046 9.975357,13.056458 -12.733566,20.106941z"/>
   <path id="svg_11" fill="#ffffff" fill-rule="evenodd" stroke="#000000" stroke-width="1px" d="m36.568001,52.659058c-24.235704,-0.893127 -19.829287,-12.058289 -14.408514,-16.678711c5.369919,-4.577082 16.072821,-7.050531 14.408514,16.678711z"/>
   <path id="svg_12" fill="#ffffff" fill-rule="evenodd" stroke="#000000" stroke-width="1px" d="m36.400978,56.909981c18.437637,-12.66407 23.835205,-6.27845 21.079315,3.441284c-2.732788,9.638229 -7.097069,14.069626 -21.079315,-3.441284z"/>
   <path id="svg_13" fill="#ffffff" fill-rule="evenodd" stroke="#000000" stroke-width="1px" d="m35.335335,55.66291c17.859322,15.079147 6.596733,22.287094 -0.206818,22.209702c-6.803122,-0.077393 -16.57633,-7.151917 0.206818,-22.209702z"/>
   <path id="svg_14" fill="#ffffff" fill-rule="evenodd" stroke="#000000" stroke-width="1px" d="m35.050598,53.903748c-10.210279,19.901665 -19.06875,15.223991 -20.936342,6.888802c-1.863419,-8.316475 0.31485,-15.657417 20.936342,-6.888802z"/>
   <path id="svg_15" fill="#ffffff" fill-rule="evenodd" stroke-linecap="round" stroke-miterlimit="4" stroke-dashoffset="0" d="m28.497946,44.331627l9.862932,5.355324l5.863068,-5.656898l-2.370644,9.48764l6.461441,4.977371l-8.93161,0.588547l-4.090012,7.859985l-1.999123,-9.106125l-9.284086,-0.279892l8.01972,-5.796715l-3.531687,-7.429237z"/>
   <path id="svg_16" fill="#ffffff" fill-rule="evenodd" stroke="#000000" stroke-linecap="round" stroke-miterlimit="4" stroke-dashoffset="0" d="m43.738304,54.485168c0.000679,3.917358 -3.174789,7.093422 -7.092163,7.093422c-3.917389,0 -7.092852,-3.176064 -7.092157,-7.093422c-0.000694,-3.917351 3.174768,-7.093414 7.092157,-7.093414c3.917374,0 7.092842,3.176064 7.092163,7.093414l0,0z"/>
   <path id="svg_17" fill="#ffffff" fill-rule="evenodd" stroke="#000000" stroke-width="1px" d="m28.67967,71.608696c2.318256,2.497681 6.023691,0.118408 7.518396,0.0625c1.525475,-0.057007 3.818741,2.412964 6.089745,-0.392395"/>
   <path id="svg_18" fill="#ffffff" fill-rule="evenodd" stroke="#000000" stroke-width="1px" d="m50.718666,66.48291c2.216881,-1.488098 1.440781,-5.667229 1.948723,-7.074089c0.518402,-1.435791 3.359032,-3.391907 1.960762,-6.372078"/>
   <path id="svg_19" fill="#ffffff" fill-rule="evenodd" stroke="#000000" stroke-width="1px" d="m51.989891,44.668091c-0.52948,-4.16626 -3.704674,-3.390869 -5.036774,-4.071106c-1.359512,-0.694336 -3.123993,-5.117737 -7.003532,-3.247925"/>
   <path id="svg_20" fill="#ffffff" fill-rule="evenodd" stroke="#000000" stroke-width="1px" d="m31.144808,36.276733c-4.118561,-0.821838 -5.313004,3.241638 -6.381317,4.288513c-1.090309,1.06842 -3.672344,1.506531 -3.465435,5.109985"/>
   <path id="svg_21" fill="#ffffff" fill-rule="evenodd" stroke="#000000" stroke-width="1px" d="m17.842356,52.611816c-2.342091,3.486031 0.94986,6.150887 1.50555,7.539619c0.567131,1.417236 -0.021099,3.969292 3.384922,5.163628"/>
  </g>
 </g>
</svg>