<?xml version="1.0" encoding="UTF-8" standalone="no"?>
<!-- Created with Inkscape (http://www.inkscape.org/) -->
<svg
   xmlns:dc="http://purl.org/dc/elements/1.1/"
   xmlns:cc="http://creativecommons.org/ns#"
   xmlns:rdf="http://www.w3.org/1999/02/22-rdf-syntax-ns#"
   xmlns:svg="http://www.w3.org/2000/svg"
   xmlns="http://www.w3.org/2000/svg"
   xmlns:xlink="http://www.w3.org/1999/xlink"
   xmlns:sodipodi="http://sodipodi.sourceforge.net/DTD/sodipodi-0.dtd"
   xmlns:inkscape="http://www.inkscape.org/namespaces/inkscape"
   id="svg2701"
   sodipodi:version="0.32"
   inkscape:version="0.46"
   width="265"
   height="247"
   version="1.0"
   sodipodi:docname="flower5.svg"
   inkscape:output_extension="org.inkscape.output.svg.inkscape">
  <metadata
     id="metadata2706">
    <rdf:RDF>
      <cc:Work
         rdf:about="">
        <dc:format>image/svg+xml</dc:format>
        <dc:type
           rdf:resource="http://purl.org/dc/dcmitype/StillImage" />
      </cc:Work>
    </rdf:RDF>
  </metadata>
  <defs
     id="defs2704">
    <inkscape:perspective
       sodipodi:type="inkscape:persp3d"
       inkscape:vp_x="0 : 526.18109 : 1"
       inkscape:vp_y="0 : 1000 : 0"
       inkscape:vp_z="744.09448 : 526.18109 : 1"
       inkscape:persp3d-origin="372.04724 : 350.78739 : 1"
       id="perspective2708" />
  </defs>
  <sodipodi:namedview
     inkscape:window-height="669"
     inkscape:window-width="640"
     inkscape:pageshadow="2"
     inkscape:pageopacity="0.0"
     guidetolerance="10.0"
     gridtolerance="10.0"
     objecttolerance="10.0"
     borderopacity="1.0"
     bordercolor="#666666"
     pagecolor="#ffffff"
     id="base"
     showgrid="false"
     inkscape:zoom="1.8704453"
     inkscape:cx="132.5"
     inkscape:cy="123.5"
     inkscape:window-x="125"
     inkscape:window-y="61"
     inkscape:current-layer="svg2701" />
  <image
     xlink:href="flower5.jpg"
     sodipodi:absref="C:\Users\biohazzard\Documents\SVG Files\Yo, Make me!\flower5.jpg"
     width="265"
     height="247"
     id="image2710"
     x="0"
     y="0" />
  <path
     style="fill:#000000"
     d="M 103.60827,202.58615 C 98.970143,200.86053 91.817708,194.15143 88.325598,188.25074 C 85.044362,182.70638 81.837233,180.529 73.960785,178.49821 C 66.403341,176.54967 62.266426,174.20641 58.192785,169.56679 C 50.976547,161.34795 50.099233,150.19555 55.951496,141.07559 C 57.769682,138.24219 59.086899,135.79591 58.878644,135.6394 C 58.67039,135.4829 56.25,134.53516 53.5,133.53331 C 47.377415,131.30279 40.521538,124.54007 39.064798,119.29425 C 37.576516,113.93484 37.748292,106.53819 39.455953,102.45118 C 40.256727,100.53466 43.406727,95.778103 46.455953,91.88106 C 49.505179,87.984018 52.057305,84.054034 52.127344,83.147764 C 52.197383,82.241494 52.309883,76.968481 52.377344,71.429958 C 52.491045,62.095144 52.719104,61.004911 55.500961,56.497597 C 57.15149,53.823322 60.691491,50.062509 63.367631,48.140237 C 69.276585,43.895831 76.335222,42.904015 83.429595,45.32131 L 88,46.878604 L 88.021962,42.189302 C 88.050893,36.011926 90.738021,30.355969 95.821424,25.772727 C 104.28409,18.142714 111.39301,17.263211 125.60331,22.088163 L 134.70661,25.179092 L 143.56552,22.089546 C 157.4316,17.253748 165.331,18.39767 173.33363,26.400301 C 178.53149,31.598157 180.37267,35.651028 180.44086,42.045 L 180.5,47.590001 L 184,46.338893 C 189.06318,44.529012 196.88647,44.764502 201.5,46.865662 C 206.17718,48.99581 212.57129,55.729712 214.65724,60.722082 C 215.46183,62.647747 216.45993,69.286847 216.87524,75.475637 L 217.63034,86.727984 L 222.44757,93.478725 C 228.3073,101.69041 230.34875,107.72607 229.51272,114.36727 C 228.2986,124.01188 223.28237,131.10284 215.02854,134.84213 C 213.08784,135.72134 211.34064,136.5384 211.14586,136.65782 C 210.95108,136.77724 212.07608,139.49058 213.64586,142.68747 C 215.94249,147.36462 216.48415,149.76966 216.41888,155 C 216.26848,167.05133 210.68589,173.41071 196.27324,177.94881 C 191.19852,179.54668 186.06254,181.54321 184.85995,182.38554 C 183.65735,183.22787 180.60939,186.9571 178.08671,190.67271 C 171.10476,200.95626 163.86406,204.76965 153.36252,203.69397 C 146.79974,203.02174 142.843,200.94415 137.33792,195.27984 C 134.91146,192.7832 132.79706,190.91138 132.63925,191.12024 C 132.48144,191.32911 131.34364,192.96076 130.11081,194.74614 C 125.02848,202.10636 112.37756,205.84876 103.60827,202.58615 z M 117.28212,195.59896 C 120.8961,194.02547 125.15345,190.2232 127.75883,186.24215 C 129.22751,183.99798 129.5,181.11542 129.5,167.82295 L 129.5,152.06429 L 124.59098,151.0086 C 113.83362,148.69521 103.61446,141.81419 97.94722,133.06815 C 96.140993,130.28067 94.363278,128 93.996741,128 C 90.501835,128 68.519371,137.21148 64.876581,140.20244 C 61.298593,143.14019 59.007515,148.44466 59.003738,153.79966 C 58.997004,163.34746 62.861386,167.69405 74.380394,171.09505 C 84.997624,174.22981 88.583208,176.64441 94.264203,184.48519 C 99.713655,192.00641 101.7065,193.83405 106.46431,195.67392 C 110.60502,197.27516 113.47797,197.25526 117.28212,195.59896 z M 163.41962,194.47112 C 165.53783,193.46596 169.22197,189.82245 172.66364,185.32904 C 179.1815,176.81941 183.65219,173.80031 193.96888,170.94141 C 203.05765,168.42278 205.40915,166.85198 207.95089,161.60144 C 210.58117,156.16801 210.52055,153.6405 207.61269,147.5 C 203.81381,139.47795 199.91429,136.61515 190,134.56984 C 185.325,133.60539 179.34881,131.89632 176.71957,130.77191 C 174.09033,129.6475 171.80076,128.90134 171.63162,129.11376 C 171.46249,129.32619 169.93535,131.55641 168.23799,134.06981 C 162.68727,142.28911 151.26464,149.49564 140.75806,151.4069 C 135.98069,152.27596 135.53829,153.92759 136.28608,168.10239 C 136.74989,176.89423 137.36249,180.05764 139.54153,184.9132 C 142.63165,191.79889 144.38116,193.64193 149.6838,195.59766 C 154.06692,197.21424 158.38527,196.86007 163.41962,194.47112 z M 74.501229,126.53066 C 78.89061,124.62252 84.590876,122.5208 87.168487,121.86018 L 91.855051,120.65905 L 91.294219,113.96944 C 90.338404,102.56849 93.975398,91.826837 101.79218,82.964316 L 105.79268,78.428631 L 101.41341,71.964316 C 92.482961,58.781907 83.088512,51 76.104938,51 C 65.239314,51 58.112489,60.971049 59.488217,74.248241 C 60.337302,82.442791 58.566772,87.3164 51.288624,96.818666 C 46.425992,103.16726 45.596346,104.89142 45.26324,109.3405 C 44.982657,113.08806 45.398125,115.4578 46.781444,118 C 49.223121,122.4872 59.289265,128.72189 66.010268,129.90981 C 66.290915,129.95942 70.111847,128.43879 74.501229,126.53066 z M 215.43066,127.18049 C 219.93116,124.55205 222.31447,119.71902 222.35789,113.13301 C 222.39679,107.23161 220.90209,103.62654 215.04883,95.50427 C 211.15842,90.105754 210.00103,85.727468 209.99442,76.38398 C 209.99136,72.047791 209.52406,66.826475 208.95599,64.781055 C 206.93678,57.510576 200.08735,52 193.06963,52 C 188.65339,52 179.20939,55.824348 177.44853,58.325764 C 176.60673,59.521594 173.04294,64.929031 169.529,70.342292 L 163.14002,80.184584 L 167.49015,86.093819 C 173.7373,94.579971 175.5187,100.45289 175.4113,112.20823 L 175.32261,121.91647 L 181.9113,124.56116 C 195.42796,129.98672 208.83223,131.03418 215.43066,127.18049 z M 141.12844,120.43358 C 144.18633,118.85228 147,113.84408 147,109.98246 C 147,104.47084 141.27135,99 135.5,99 C 131.65327,99 127.23792,101.63922 125.51693,104.96727 C 120.16642,115.31401 130.75088,125.80003 141.12844,120.43358 z M 161.48713,69.25 C 166.6839,62.633772 172.49849,51.208634 173.43945,45.764816 C 174.45854,39.868941 172.51326,34.595176 167.84574,30.599951 C 161.6867,25.328043 157.05206,24.969607 145.64968,28.883341 C 140.61735,30.610626 135.6231,32.018491 134.55133,32.01193 C 133.47956,32.005368 128.28541,30.584906 123.00878,28.855347 C 111.71176,25.152442 106.07422,25.38378 100.86878,29.763869 C 96.631193,33.329563 95,37.677496 95,45.407062 C 95,51.525006 95.219438,52.131902 99.018761,56.521677 C 101.22908,59.0755 104.89874,63.940369 107.17357,67.332496 C 109.4484,70.724623 111.43391,73.65645 111.58581,73.847666 C 111.73771,74.038882 114.48055,73.164746 117.681,71.905142 C 126.45018,68.453848 141.20968,68.595134 149.5,72.209731 C 152.8,73.648538 155.83092,74.864952 156.23538,74.912872 C 156.63984,74.960792 159.00313,72.4125 161.48713,69.25 z"
     id="path2712" />
</svg>
