<?xml version="1.0" encoding="UTF-8" standalone="no"?>
<!-- Created with Inkscape (http://www.inkscape.org/) -->

<svg
   xmlns:dc="http://purl.org/dc/elements/1.1/"
   xmlns:cc="http://creativecommons.org/ns#"
   xmlns:rdf="http://www.w3.org/1999/02/22-rdf-syntax-ns#"
   xmlns:svg="http://www.w3.org/2000/svg"
   xmlns="http://www.w3.org/2000/svg"
   xmlns:sodipodi="http://sodipodi.sourceforge.net/DTD/sodipodi-0.dtd"
   xmlns:inkscape="http://www.inkscape.org/namespaces/inkscape"
   id="svg19721"
   version="1.1"
   inkscape:version="0.48.1 "
   width="232.175"
   height="246.025"
   xml:space="preserve"
   sodipodi:docname="frog1.pdf"><metadata
     id="metadata19727"><rdf:RDF><cc:Work
         rdf:about=""><dc:format>image/svg+xml</dc:format><dc:type
           rdf:resource="http://purl.org/dc/dcmitype/StillImage" /><dc:title></dc:title></cc:Work></rdf:RDF></metadata><defs
     id="defs19725"><clipPath
       clipPathUnits="userSpaceOnUse"
       id="clipPath19737"><path
         d="m 0,0 773.926,0 0,820 L 0,820 0,0 z"
         id="path19739" /></clipPath></defs><sodipodi:namedview
     pagecolor="#ffffff"
     bordercolor="#666666"
     borderopacity="1"
     objecttolerance="10"
     gridtolerance="10"
     guidetolerance="10"
     inkscape:pageopacity="0"
     inkscape:pageshadow="2"
     inkscape:window-width="640"
     inkscape:window-height="480"
     id="namedview19723"
     showgrid="false"
     inkscape:zoom="1.1828067"
     inkscape:cx="116.0875"
     inkscape:cy="123.0125"
     inkscape:window-x="0"
     inkscape:window-y="0"
     inkscape:window-maximized="0"
     inkscape:current-layer="g19729" /><g
     id="g19729"
     inkscape:groupmode="layer"
     inkscape:label="frog1"
     transform="matrix(1.25,0,0,-1.25,0,246.025)"><g
       id="g19731"
       transform="scale(0.24,0.24)"><g
         id="g19733"><g
           id="g19735"
           clip-path="url(#clipPath19737)"><path
             d="m 343.191,589.227 c 0,0 122.567,20.011 131.317,-111.309 15.633,-111.934 -66.91,-215.742 -66.91,-215.742 0,0 -150.707,80.672 -158.211,188.226 -7.504,121.317 93.804,138.825 93.804,138.825"
             style="fill:#abdc57;fill-opacity:1;fill-rule:nonzero;stroke:none"
             id="path19741" /><path
             d="m 442.512,523.754 c -6.582,-35.274 -49.922,-53.34 -49.922,-53.34 0,0 -14.383,18.82 -34.129,15.695 -15.633,-3.125 -19.027,-28.832 -19.027,-28.832 0,0 -59.204,-0.808 -64.989,41.965 -2.914,-10.433 -4.617,-22.437 -4.617,-36.258 0,-3.644 0.113,-7.406 0.352,-11.296 5.261,-75.379 94.695,-138.754 131.508,-161.774 18.214,27.664 60.312,90.691 60.312,159.316 0,4.649 -0.785,42.708 -19.488,74.524"
             style="fill:#ffffff;fill-opacity:1;fill-rule:nonzero;stroke:none"
             id="path19743" /><path
             d="m 295.188,668.184 c -5.864,-11.352 -19.055,-16.196 -29.465,-10.821 -10.403,5.371 -14.09,18.938 -8.223,30.285 5.859,11.356 19.051,16.2 29.457,10.829 10.41,-5.375 14.094,-18.942 8.231,-30.293"
             style="fill:#abdc57;fill-opacity:1;fill-rule:nonzero;stroke:none"
             id="path19745" /><path
             d="m 396.441,681.41 c -5.863,-11.351 -19.054,-16.191 -29.464,-10.816 -10.403,5.371 -14.09,18.937 -8.223,30.285 5.859,11.351 19.051,16.199 29.457,10.828 10.406,-5.375 14.094,-18.941 8.23,-30.297"
             style="fill:#abdc57;fill-opacity:1;fill-rule:nonzero;stroke:none"
             id="path19747" /><path
             d="m 270.66,564.832 c 0,0 56.91,66.281 155.715,27.512 6.254,46.273 -23.141,75.664 -23.141,75.664 0,0 -42.523,-36.266 -54.433,14.25 -5,17.508 15.664,38.281 15.664,38.281 0,0 -28.774,15.008 -38.774,15.008 -10.003,0 -38.144,-23.137 -38.144,-23.137 0,0 26.887,-13.758 21.262,-33.144 -5.629,-29.387 -23.762,-39.395 -56.907,-37.52 -21.265,-48.152 18.758,-76.914 18.758,-76.914"
             style="fill:#abdc57;fill-opacity:1;fill-rule:nonzero;stroke:none"
             id="path19749" /><path
             d="m 335.688,441.02 c -38.77,0 -50.653,16.257 -50.653,16.257 -7.504,-36.269 76.918,-120.691 76.918,-120.691 0,0 -33.144,68.789 -26.265,104.434"
             style="fill:#abdc57;fill-opacity:1;fill-rule:nonzero;stroke:none"
             id="path19751" /><path
             d="m 403.621,453.922 c 35.961,14.476 40.918,34 40.918,34 20.5,-30.848 -26.297,-140.684 -26.297,-140.684 0,0 5.067,76.192 -14.621,106.684"
             style="fill:#abdc57;fill-opacity:1;fill-rule:nonzero;stroke:none"
             id="path19753" /><path
             d="m 399.422,406.051 c 7.75,-37.75 2.754,-72.094 -8.938,-74.496 -11.691,-2.395 -27.449,26.258 -35.203,64.004 -7.754,37.75 -4.558,70.296 7.137,72.703 11.691,2.394 29.246,-24.469 37.004,-62.211"
             style="fill:#abdc57;fill-opacity:1;fill-rule:nonzero;stroke:none"
             id="path19755" /><path
             d="m 339.434,457.277 c 0,0 3.394,25.707 19.027,28.832 19.746,3.125 34.129,-15.695 34.129,-15.695 0,0 43.34,18.066 49.922,53.34 -15.614,26.559 -43.699,48.769 -94.356,43.527 -7.414,-1.406 -58.039,-11.855 -73.711,-68.039 5.785,-42.773 64.989,-41.965 64.989,-41.965"
             style="fill:#abdc57;fill-opacity:1;fill-rule:nonzero;stroke:none"
             id="path19757" /><path
             d="m 321.926,476.664 c -7.508,31.266 14.234,60.508 34.246,60.508 31.187,4.855 43.918,-19.238 56.742,-40.184 20.945,20.946 -5.32,70.282 -61.598,64.094 -47.527,-8.742 -72.546,-49.398 -29.39,-84.418"
             style="fill:#ffffff;fill-opacity:1;fill-rule:nonzero;stroke:none"
             id="path19759" /><path
             d="m 391.969,257.176 c 0,0 -3.403,8.722 -14.692,14.695 -81.414,43.938 -91.613,80.984 -91.613,80.984 0,0 -25.012,-35.015 -53.156,-40.648 -28.141,-5.629 -44.399,6.227 -71.914,1.25 -20.637,-5.035 -31.871,-10.039 -38.227,-34.336 0,-30.074 26.973,-26.945 26.973,-26.945 0,0 13.129,38.769 33.14,38.769 54.403,-5.629 61.282,-31.89 101.305,-31.89 30.012,-5.008 64.403,8.75 93.805,2.5 5,0 14.379,-4.379 14.379,-4.379"
             style="fill:#abdc57;fill-opacity:1;fill-rule:nonzero;stroke:none"
             id="path19761" /><path
             d="m 157.949,37.543 c 0,0 -6.738,65.168 6.391,107.07 13.133,53.153 21.258,50.028 24.387,71.914 3.128,21.887 -17.508,41.274 -29.391,41.274 -11.883,0 16.883,-1.25 -2.504,-33.141 -19.383,-31.898 -13.125,-45.652 -8.125,-83.801 5,-38.148 4.352,-102.6598 4.352,-102.6598 l 4.89,-0.6562"
             style="fill:#abdc57;fill-opacity:1;fill-rule:nonzero;stroke:none"
             id="path19763" /><path
             d="m 138.23,59.0977 c -6.121,6.6679 -12.144,11.6015 -20.792,13.7382 -9.829,2.4336 -15.797,7.2696 -23.6567,13.1094 -3.7032,2.75 -6.3477,4.3789 -8.8243,4.0742 -0.7422,4.8203 -2.5898,10.8085 -7.0078,15.7075 -5.2773,5.851 -13.0117,8.82 -22.9844,8.82 l -7.2187,0 c -0.9297,3.637 -5.4258,6.394 -10.8594,6.394 -6.1054,0 -11.0547,-3.484 -11.0547,-7.793 0,-4.296 4.9493,-7.781 11.0547,-7.781 4.7188,0 8.711,2.082 10.3047,5.012 l 7.7734,0 c 8.7305,0 15.4141,-2.5 19.8672,-7.422 4.2344,-4.6836 5.7149,-10.7539 6.1953,-15.1953 -1.082,-1.1094 -2.2109,-2.625 -3.4726,-4.6601 -0.6016,-0.9727 -1.0274,-1.9844 -1.3125,-3.0274 -8.1992,0.7188 -19.5078,2.0703 -23.6094,3.9649 -6.3555,2.9336 -14.1406,2.9843 -20.1601,2.3789 -1.9649,2.164 -5.3868,3.6015 -9.3047,3.6015 -6.1094,0 -11.0547,-3.4804 -11.0547,-7.789 0,-4.3008 4.9453,-7.7852 11.0547,-7.7852 6.1054,0 11.0586,3.4844 11.0586,7.793 0,0.0469 -0.0157,0.0898 -0.0196,0.1328 5.2618,0.4219 11.6172,0.2187 16.6797,-2.1211 4.8946,-2.2539 17.0469,-3.6328 24.8828,-4.3203 0.0469,-3.793 1.168,-7.8164 1.9375,-11.7813 C 69.9414,62.1367 60.207,58.6211 53.4297,55.1367 48.7031,52.7109 42.1836,50.4414 36.4414,48.6719 34,51.8516 28.543,52.7773 23.3086,50.6602 17.3438,48.2383 13.9258,42.7695 15.6797,38.4453 c 1.75,-4.3242 8.0078,-5.8711 13.9726,-3.4531 4.8555,1.9687 7.9688,5.9492 8.0352,9.6953 5.9063,1.8203 12.6367,4.1719 17.6445,6.7461 6.7696,3.4766 15.875,6.7031 22.9766,8.5781 0.0859,-1.0039 0.1172,-1.9961 0.0547,-2.9687 C 77.9375,50.3398 80.7656,44.2656 83.7031,41.6094 76.3984,33.4336 62.5938,23.1328 53.5391,16.7305 50.7266,18.2461 46.6914,18.4023 42.75,16.8086 36.7852,14.3867 33.3672,8.92188 35.1211,4.59766 c 1.75,-4.328129 8.0078,-5.8711 13.9727,-3.45703 5.9687,2.42187 9.3867,7.89453 7.6328,12.21877 -0.0508,0.1289 -0.1446,0.2304 -0.2071,0.3633 9.7188,6.8867 24.3633,17.9375 31.6172,26.707 2.8281,0.5547 4.5156,1.7148 7.2578,3.0312 5.5005,2.6485 12.1135,4.2774 18.7935,3.461 3.859,-0.4727 5.804,-2.4883 8.898,-3.5977 2.734,-0.9726 6.062,-0.2578 8.766,-1.2383 4.691,-1.6875 10.625,-4.8007 14.355,-7.5312 6.996,6.9726 -3.504,19.668 -7.977,24.543"
             style="fill:#abdc57;fill-opacity:1;fill-rule:nonzero;stroke:none"
             id="path19765" /><path
             d="m 641.57,165.598 c 0,0 -65.113,13.132 -16.156,127.05 27.594,50.301 26.906,48.125 33.566,69.207 5.188,19.59 -2.976,47.098 -14.695,49.032 -11.722,1.941 -3.324,-18.867 -15.445,-30.985 -30.985,-22.535 -18.965,-66.726 -26.36,-90.832 -24.105,-128.422 39.09,-123.472 39.09,-123.472"
             style="fill:#abdc57;fill-opacity:1;fill-rule:nonzero;stroke:none"
             id="path19767" /><path
             d="m 427.508,268.004 c 0,0 11.191,15.336 19.48,15.336 10.774,-2.488 42.692,9.945 88.696,61.758 32.742,52.636 99.468,89.105 121.113,72.23 10.152,-10.152 7.371,-31.199 7.371,-31.199 -0.02,-0.004 8.633,12.918 6.633,25.281 -4.149,21.969 -16.578,34.399 -37.719,32.328 -61.34,3.731 -113.773,-54.918 -155.008,-62.59 4.559,-19.472 -50.566,-113.144 -50.566,-113.144"
             style="fill:#abdc57;fill-opacity:1;fill-rule:nonzero;stroke:none"
             id="path19769" /><path
             d="m 765.43,210.414 c -4.117,0.641 -7.887,-0.734 -9.633,-3.199 -14.434,-0.731 -35.082,-5.117 -46.379,-7.738 -0.879,1.695 -0.383,4.238 -0.383,6.859 0,1.5 -0.008,3.891 -0.887,5.312 10.012,4.34 25.586,12.457 34.868,17.395 2.172,-2.184 6.257,-2.832 10.269,-1.301 4.965,1.895 7.867,6.375 6.485,10.004 -1.383,3.625 -6.536,5.027 -11.508,3.129 -4.055,-1.543 -6.696,-4.812 -6.785,-7.934 -15.262,-8.125 -30.723,-15.859 -38.047,-18.812 -0.129,0.098 -0.266,0.184 -0.383,0.285 -1.359,1.106 -2.656,2.024 -2.512,4.07 0.149,2.094 1.235,4.383 1.93,6.387 0.164,0.469 0.484,1.207 0.719,1.969 5.019,8.742 15.421,20.246 22.882,27.84 2.856,-0.832 6.614,0.332 9.481,3.246 3.726,3.789 4.508,9.078 1.742,11.801 -2.769,2.714 -8.039,1.847 -11.769,-1.95 -3.192,-3.238 -4.2,-7.562 -2.704,-10.449 -6.906,-7.015 -18.136,-19.16 -23.586,-29.105 -0.382,-0.301 -0.738,-0.578 -1.019,-0.758 -1.609,-1.031 -2.231,-1.445 -2.973,-3.25 -0.695,-1.699 -1.59,-3.512 -2.593,-5.039 -0.872,-1.313 -1.832,-2.309 -2.344,-3.86 -0.649,-1.957 -0.688,-3.367 -1.86,-5.101 -2.238,-3.305 -5.968,-6.055 -9.117,-8.754 -3.679,-3.148 -8.949,-4.672 -13.172,-7.211 -3.629,-2.184 -6.48,-4.805 -9.554,-7.387 -1.918,-1.609 -3.118,-2.179 -5.668,-2.793 -1.555,-0.379 -5.356,-1.965 -6.016,-3.343 -0.269,-0.551 0.359,-13.454 -0.59,-15.262 l 0.219,0.211 c 1.82,-0.789 3.395,-2.168 5.289,-2.793 2.945,-0.973 6.078,-1.492 9.16,-1.492 2.571,0 5.043,0.347 7.528,0.886 2.984,0.649 6.117,1.34 8.937,2.621 2.152,0.977 4.086,2.43 6.203,3.497 2.082,1.05 3.918,2.226 5.926,3.503 2.504,1.59 4.801,3.336 7.18,5.043 2.449,1.75 3.914,2.418 7.004,2.497 2.398,0.066 4.316,0.554 6.214,1.914 2.059,1.476 3.782,1.91 6.356,1.906 0.996,0 2.16,0.019 3.18,0.238 6.148,-3.637 14.566,-9.098 21.214,-15.203 -1.629,-1.355 -2.808,-3.219 -3.156,-5.426 -0.773,-4.98 2.852,-9.695 8.113,-10.512 5.254,-0.82 10.145,2.563 10.926,7.555 0.774,4.977 -2.855,9.692 -8.109,10.508 -1.305,0.203 -2.582,0.145 -3.781,-0.125 -6.989,6.715 -16.016,12.633 -22.653,16.562 0.067,1.625 -0.117,3.543 -0.211,4.938 -0.109,1.68 -0.062,3.672 -1.418,4.668 -0.304,0.227 -0.687,0.387 -1.109,0.504 11.168,2.426 26.363,5.344 37.59,6.051 0.672,-3.094 3.969,-5.817 8.336,-6.496 5.254,-0.821 10,1.625 10.601,5.464 0.598,3.832 -3.179,7.606 -8.433,8.43"
             style="fill:#abdc57;fill-opacity:1;fill-rule:nonzero;stroke:none"
             id="path19771" /><path
             d="m 156.086,743.871 c -3.328,3.633 -9.254,3.621 -13.242,-0.023 -3.989,-3.649 -4.52,-9.551 -1.196,-13.188 0.118,-0.129 0.262,-0.219 0.383,-0.34 -5.355,-10.129 -16.976,-25.593 -24.09,-34.746 -4.23,4.133 -9.621,7.239 -16.269,8.43 2.402,10.809 7.144,34.812 5.402,49.476 0.567,0.18 1.114,0.426 1.637,0.747 4.191,2.574 5,8.878 1.809,14.074 -3.2,5.191 -9.188,7.316 -13.3794,4.742 -4.1953,-2.582 -5.0039,-8.883 -1.8164,-14.082 1.875,-3.051 4.7188,-5 7.5898,-5.602 1.828,-13.812 -3.0702,-38.355 -5.4101,-48.863 -4.2226,0.223 -8.8867,-0.273 -14.0273,-1.703 -1.2227,-0.57 -2.3125,-1.383 -3.2891,-2.379 -12.3125,6.938 -27.0977,19.508 -35.7969,27.328 0.2149,0.43 0.418,0.871 0.5508,1.352 1.2813,4.75 -2.457,9.89 -8.3476,11.476 -5.8868,1.582 -11.6993,-0.988 -12.9805,-5.742 -1.2774,-4.754 2.457,-9.894 8.3476,-11.48 3.5704,-0.961 7.1055,-0.375 9.625,1.285 8.6836,-7.82 23.3672,-20.289 36.1407,-27.567 -3.7383,-6.707 -4.5469,-17.554 -2.9258,-28.515 -11.0352,-1.41 -32.207,-2.563 -53.1992,4.89 -0.8321,3.477 -4.0039,6.61 -8.3711,7.789 -5.88675,1.583 -11.69925,-0.992 -12.9805,-5.742 -1.27734,-4.758 2.45703,-9.898 8.34766,-11.484 5.60934,-1.508 11.10544,0.781 12.72264,5.113 21.707,-7.453 43.0078,-6.215 54.207,-4.719 3.4571,-16.878 12.6094,-32.785 25.7497,-32.785 0,8.25 -19.1012,39.063 0,47.742 5.207,5.211 15.84,-7.589 26.254,-23.652 5.032,5.031 3.559,23.965 -6.75,36.731 7.09,9.082 19.074,24.992 24.852,35.863 3.047,-0.824 6.578,-0.051 9.254,2.394 3.98,3.653 4.519,9.551 1.199,13.18"
             style="fill:#abdc57;fill-opacity:1;fill-rule:nonzero;stroke:none"
             id="path19773" /><path
             d="m 475.613,524.785 c 0,0 20.657,17.445 16.067,27.547 -4.59,10.098 -31.219,16.527 -31.219,16.527 0,0 9.641,13.313 28.465,16.528 18.828,3.215 50.961,-8.266 61.523,8.722 10.563,16.989 5.508,29.844 4.129,39.485 0,40.863 4.133,46.375 -3.207,67.496 -1.144,14.922 0.004,22.492 12.395,22.492 12.398,0 18.363,-12.394 12.398,-26.168 -5.973,-13.773 -20.664,-40.402 -15.609,-59.226 5.054,-18.825 23.871,-23.418 19.742,-33.977 -9.184,-25.254 -59,-42.695 -73.922,-64.277 -14.922,-14.922 -30.762,-15.149 -30.762,-15.149"
             style="fill:#abdc57;fill-opacity:1;fill-rule:nonzero;stroke:none"
             id="path19775" /><path
             d="m 639.117,767.016 c -4.879,0 -8.832,-4.02 -8.832,-8.981 0,-1.035 0.207,-2.008 0.52,-2.93 -9.45,-5.902 -27.887,-17.136 -37.793,-21.308 -0.153,5.07 -1.664,10.094 -5.539,14.269 4.054,8.516 10.882,21.629 17.117,27.868 5.215,5.214 8.172,11.496 10.07,17.789 0.617,-0.164 1.262,-0.27 1.922,-0.27 4.844,0 8.766,4.711 8.766,10.524 0,5.812 -3.922,10.523 -8.766,10.523 -4.832,0 -8.758,-4.711 -8.758,-10.523 0,-3.227 1.239,-6.082 3.137,-8.012 -1.719,-6.098 -4.418,-12.188 -9.316,-17.086 -6.45,-6.449 -13.219,-19.188 -17.442,-27.949 -2.258,1.64 -5,3.09 -8.383,4.242 -4.363,0 -8.179,-0.922 -11.547,-2.477 l 0,47.715 c 3.707,1.094 6.457,4.992 6.457,9.676 0,5.531 -3.82,10.012 -8.539,10.012 -4.714,0 -8.539,-4.481 -8.539,-10.012 0,-4.684 2.758,-8.582 6.457,-9.676 l 0,-50.105 c -3.933,-2.754 -7.109,-6.453 -9.644,-10.559 -9.918,8.692 -18.801,26.887 -23.203,36.934 1.906,1.402 3.129,3.433 3.129,5.73 0,4.231 -4.082,7.656 -9.121,7.656 -5.04,0 -9.125,-3.425 -9.125,-7.656 0,-4.23 4.085,-7.656 9.125,-7.656 0.75,0 1.464,0.098 2.16,0.242 4.605,-10.551 14.019,-29.758 24.972,-38.933 -6.902,-13.528 -8.019,-29.278 -8.019,-29.278 0,0 14.996,29.649 29.64,29.649 13.977,0 15.34,-28.286 15.34,-28.286 0,0 6.239,10.028 7.457,21.106 10.075,3.809 30.157,16.027 40.192,22.312 1.59,-1.546 3.734,-2.511 6.105,-2.511 4.879,0 8.832,4.019 8.832,8.98 0,4.961 -3.953,8.981 -8.832,8.981"
             style="fill:#abdc57;fill-opacity:1;fill-rule:nonzero;stroke:none"
             id="path19777" /><path
             d="m 253.156,537.172 c 2.949,2.953 -0.277,5.074 -12.113,9.48 -11.836,4.411 -14.316,7.715 -31.66,7.715 -17.348,0 -29.047,-10.597 -48.727,-11.84 -13.765,0 -18.265,2.481 -18.265,13.457 7.418,20.61 7.418,20.61 5.324,25.641 -7.707,17.344 -28.906,58.918 -31.383,68.828 -0.055,0.219 -0.105,0.387 -0.156,0.598 0.969,1.773 1.539,3.914 1.539,6.23 0,6.067 -3.883,10.981 -8.68,10.981 -4.789,0 -8.676,-4.914 -8.676,-10.981 0,-3.945 1.657,-7.375 4.125,-9.312 5.368,-13.629 22.329,-43.617 20.934,-60.563 -1.652,-20.097 -13.77,-25.883 -9.637,-42.676 7.157,-13.765 17.887,-19.542 37.164,-18.167 26.207,0 34.785,11.664 51.535,-5.086 11.844,-9.36 12.61,-21.278 27.188,-21.278 11.012,0 17.633,5.164 17.633,5.164 0,0 -17.621,7.16 -16.52,18.172 1.102,11.012 17.426,10.688 20.375,13.637"
             style="fill:#abdc57;fill-opacity:1;fill-rule:nonzero;stroke:none"
             id="path19779" /></g></g></g></g></svg>