<?xml version="1.0" encoding="UTF-8" standalone="no"?>
<!-- Generator: Adobe Illustrator 12.0.1, SVG Export Plug-In . SVG Version: 6.00 Build 51448)  -->
<svg
   xmlns:dc="http://purl.org/dc/elements/1.1/"
   xmlns:cc="http://web.resource.org/cc/"
   xmlns:rdf="http://www.w3.org/1999/02/22-rdf-syntax-ns#"
   xmlns:svg="http://www.w3.org/2000/svg"
   xmlns="http://www.w3.org/2000/svg"
   xmlns:sodipodi="http://sodipodi.sourceforge.net/DTD/sodipodi-0.dtd"
   xmlns:inkscape="http://www.inkscape.org/namespaces/inkscape"
   version="1.1"
   id="Layer_1"
   width="220.348"
   height="180.903"
   viewBox="0 0 220.348 180.903"
   style="overflow:visible;enable-background:new 0 0 220.348 180.903;"
   xml:space="preserve"
   sodipodi:version="0.32"
   inkscape:version="0.44.1"
   sodipodi:docname="Koffein - Coffeine.svg"
   sodipodi:docbase="E:\Eigene Dateien\Eigene Bilder\Ready for Commons"><metadata
   id="metadata100"><rdf:RDF><cc:Work
       rdf:about=""><dc:format>image/svg+xml</dc:format><dc:type
         rdf:resource="http://purl.org/dc/dcmitype/StillImage" /></cc:Work></rdf:RDF></metadata><defs
   id="defs98" /><sodipodi:namedview
   inkscape:window-height="573"
   inkscape:window-width="925"
   inkscape:pageshadow="2"
   inkscape:pageopacity="0.0"
   guidetolerance="10.0"
   gridtolerance="10.0"
   objecttolerance="10.0"
   borderopacity="1.0"
   bordercolor="#666666"
   pagecolor="#ffffff"
   id="base"
   inkscape:zoom="2.0895176"
   inkscape:cx="110.174"
   inkscape:cy="90.4515"
   inkscape:window-x="110"
   inkscape:window-y="110"
   inkscape:current-layer="Layer_1" />
<g
   id="g3"
   transform="matrix(0.95,0,0,0.95,5.508725,4.522625)">
	<path
   d="M 61.653,76.984 L 61.653,59.797 L 63.993,59.797 L 72.997,73.285 L 72.997,59.797 L 75.185,59.797 L 75.185,76.985 L 72.845,76.985 L 63.841,63.496 L 63.841,76.985 L 61.653,76.985 L 61.653,76.984 z "
   id="path5" />
</g>
<g
   id="g7"
   transform="matrix(0.95,0,0,0.95,5.508725,4.522625)">
	<path
   d="M 96.053,136.534 L 96.053,119.346 L 98.393,119.346 L 107.397,132.834 L 107.397,119.346 L 109.585,119.346 L 109.585,136.534 L 107.245,136.534 L 98.241,123.045 L 98.241,136.534 L 96.053,136.534 z "
   id="path9" />
</g>
<path
   d="M 71.367475,105.91992 L 69.752475,106.86992 L 69.752475,79.748375 L 71.367475,79.748375 L 71.367475,105.91992 z "
   id="polygon11" />
<path
   d="M 93.834975,118.88838 L 93.027475,120.26493 L 69.752475,106.86992 L 71.367475,105.91992 L 93.834975,118.88838 z "
   id="polygon13" />
<path
   d="M 135.01748,105.91992 L 135.87248,106.39492 L 135.91998,107.25088 L 113.30998,120.31338 L 112.50248,118.93588 L 135.01748,105.91992 z "
   id="polygon15" />
<path
   d="M 135.01748,69.154925 L 135.87248,68.679925 L 136.67998,69.249925 L 136.67998,105.77742 L 135.87248,106.39492 L 135.01748,105.91992 L 135.01748,69.154925 z "
   id="polygon17" />
<path
   d="M 140.71748,72.812428 L 142.33248,72.812428 L 142.33248,102.26242 L 140.71748,102.26242 L 140.71748,72.812428 z "
   id="rect19" />
<path
   d="M 103.19248,50.773375 L 103.19248,48.919925 L 135.91998,67.824925 L 135.87248,68.679925 L 135.01748,69.154925 L 103.19248,50.773375 z "
   id="polygon21" />
<path
   d="M 80.677475,63.787425 L 79.869975,62.362425 L 103.19248,48.919925 L 103.19248,50.773375 L 80.677475,63.787425 z "
   id="polygon23" />
<g
   id="g25"
   transform="matrix(0.95,0,0,0.95,5.508725,4.522625)">
	<path
   d="M 168.153,128.935 L 168.153,111.747 L 170.493,111.747 L 179.497,125.235 L 179.497,111.747 L 181.685,111.747 L 181.685,128.935 L 179.345,128.935 L 170.341,115.446 L 170.341,128.935 L 168.153,128.935 z "
   id="path27" />
</g>
<g
   id="g29"
   transform="matrix(0.95,0,0,0.95,5.508725,4.522625)">
	<path
   d="M 168.153,64.734 L 168.153,47.547 L 170.493,47.547 L 179.497,61.035 L 179.497,47.547 L 181.685,47.547 L 181.685,64.735 L 179.345,64.735 L 170.341,51.246 L 170.341,64.735 L 168.153,64.735 L 168.153,64.734 z "
   id="path31" />
</g>
<path
   d="M 162.56748,114.23242 L 162.04498,115.75243 L 135.91998,107.25088 L 135.87248,106.39492 L 136.67998,105.77742 L 162.56748,114.23242 z "
   id="polygon33" />
<path
   d="M 192.87248,87.537425 L 194.86748,87.537425 L 179.33498,108.91338 L 178.00498,107.96338 L 192.87248,87.537425 z "
   id="polygon35" />
<path
   d="M 186.22248,87.062425 L 187.50498,88.012425 L 174.77498,105.58838 L 173.44498,104.63838 L 186.22248,87.062425 z "
   id="polygon37" />
<path
   d="M 178.76498,68.110875 L 180.09498,67.160875 L 194.86748,87.537425 L 192.87248,87.537425 L 178.76498,68.110875 z "
   id="polygon39" />
<path
   d="M 136.67998,69.249925 L 135.87248,68.679925 L 135.91998,67.824925 L 162.04498,59.323375 L 162.56748,60.842425 L 136.67998,69.249925 z "
   id="polygon41" />
<g
   id="g43"
   transform="matrix(0.95,0,0,0.95,5.508725,4.522625)">
	<path
   d="M 25.931,128.119 C 25.931,125.267 26.697,123.034 28.229,121.42 C 29.761,119.807 31.739,119 34.162,119 C 35.749,119 37.179,119.379 38.453,120.137 C 39.727,120.895 40.698,121.952 41.367,123.308 C 42.035,124.664 42.369,126.202 42.369,127.92 C 42.369,129.662 42.017,131.222 41.314,132.597 C 40.61,133.973 39.614,135.014 38.324,135.721 C 37.034,136.428 35.643,136.782 34.15,136.782 C 32.532,136.782 31.086,136.391 29.812,135.61 C 28.538,134.829 27.573,133.762 26.916,132.41 C 26.259,131.058 25.931,129.627 25.931,128.119 z M 28.275,128.148 C 28.275,130.218 28.832,131.849 29.946,133.041 C 31.06,134.233 32.458,134.828 34.138,134.828 C 35.85,134.828 37.259,134.226 38.366,133.023 C 39.472,131.82 40.025,130.113 40.025,127.902 C 40.025,126.504 39.789,125.283 39.316,124.24 C 38.843,123.197 38.151,122.388 37.24,121.814 C 36.329,121.24 35.307,120.953 34.174,120.953 C 32.564,120.953 31.178,121.506 30.017,122.611 C 28.856,123.716 28.275,125.563 28.275,128.148 z "
   id="path45" />
</g>
<path
   d="M 48.282475,123.44838 L 47.474975,122.02338 L 72.982475,107.29837 L 73.789975,108.72338 L 48.282475,123.44838 z "
   id="polygon47" />
<path
   d="M 45.432475,118.55493 L 44.624975,117.12993 L 70.132475,102.40493 L 70.939975,103.82993 L 45.432475,118.55493 z "
   id="polygon49" />
<g
   id="g51"
   transform="matrix(0.95,0,0,0.95,5.508725,4.522625)">
	<path
   d="M 94.631,9.119 C 94.631,6.267 95.397,4.034 96.929,2.42 C 98.461,0.807 100.439,0 102.862,0 C 104.449,0 105.879,0.379 107.153,1.137 C 108.427,1.895 109.398,2.952 110.067,4.308 C 110.735,5.664 111.069,7.202 111.069,8.92 C 111.069,10.662 110.717,12.222 110.014,13.597 C 109.31,14.973 108.314,16.014 107.024,16.721 C 105.734,17.428 104.343,17.782 102.85,17.782 C 101.232,17.782 99.786,17.391 98.512,16.61 C 97.238,15.829 96.273,14.762 95.616,13.41 C 94.959,12.058 94.631,10.627 94.631,9.119 z M 96.975,9.148 C 96.975,11.218 97.532,12.849 98.646,14.041 C 99.76,15.233 101.158,15.828 102.838,15.828 C 104.55,15.828 105.959,15.226 107.066,14.023 C 108.172,12.82 108.725,11.113 108.725,8.902 C 108.725,7.504 108.489,6.283 108.016,5.24 C 107.543,4.197 106.851,3.388 105.94,2.814 C 105.029,2.24 104.007,1.953 102.874,1.953 C 101.264,1.953 99.878,2.506 98.717,3.611 C 97.556,4.716 96.975,6.563 96.975,9.148 z "
   id="path53" />
</g>
<path
   d="M 99.582477,23.554925 L 101.19748,23.554925 L 101.19748,51.484925 L 99.582477,51.484925 L 99.582477,23.554925 z "
   id="rect55" />
<path
   d="M 105.23498,23.554925 L 106.84998,23.554925 L 106.84998,51.484925 L 105.23498,51.484925 L 105.23498,23.554925 z "
   id="rect57" />
<g
   id="g59"
   transform="matrix(0.95,0,0,0.95,5.508725,4.522625)">
	<path
   d="M 192.669,21.007 L 194.95,21.581 C 194.474,23.451 193.617,24.877 192.381,25.858 C 191.144,26.84 189.631,27.331 187.844,27.331 C 185.994,27.331 184.49,26.954 183.331,26.199 C 182.172,25.444 181.29,24.352 180.685,22.921 C 180.08,21.49 179.778,19.954 179.778,18.312 C 179.778,16.521 180.119,14.959 180.802,13.626 C 181.484,12.292 182.455,11.28 183.716,10.588 C 184.976,9.896 186.362,9.55 187.876,9.55 C 189.593,9.55 191.036,9.988 192.206,10.864 C 193.377,11.741 194.192,12.973 194.652,14.561 L 192.418,15.088 C 192.021,13.838 191.442,12.928 190.687,12.358 C 189.93,11.788 188.978,11.503 187.832,11.503 C 186.514,11.503 185.412,11.819 184.526,12.452 C 183.64,13.085 183.019,13.934 182.66,15.001 C 182.301,16.068 182.122,17.167 182.122,18.3 C 182.122,19.761 182.334,21.036 182.76,22.126 C 183.184,23.216 183.845,24.03 184.741,24.569 C 185.637,25.108 186.608,25.378 187.652,25.378 C 188.923,25.378 189.999,25.011 190.88,24.276 C 191.761,23.541 192.357,22.452 192.669,21.007 z "
   id="path61" />
	<path
   d="M 197.845,27.034 L 197.845,9.847 L 200.126,9.847 L 200.126,16.91 L 209.017,16.91 L 209.017,9.847 L 211.298,9.847 L 211.298,27.035 L 209.017,27.035 L 209.017,18.94 L 200.126,18.94 L 200.126,27.034 L 197.845,27.034 z "
   id="path63" />
</g>
<g
   id="g65"
   transform="matrix(0.95,0,0,0.95,5.508725,4.522625)">
	<path
   d="M 211.895,28.128 L 213.473,27.909 C 213.657,28.805 213.965,29.452 214.401,29.847 C 214.839,30.243 215.374,30.441 216.008,30.441 C 216.762,30.441 217.395,30.183 217.907,29.668 C 218.42,29.153 218.676,28.515 218.676,27.754 C 218.676,27.027 218.438,26.429 217.961,25.957 C 217.484,25.486 216.877,25.25 216.141,25.25 C 215.84,25.25 215.467,25.309 215.02,25.426 L 215.196,24.035 C 215.302,24.047 215.387,24.053 215.452,24.053 C 216.127,24.053 216.733,23.877 217.274,23.527 C 217.813,23.176 218.083,22.635 218.083,21.904 C 218.083,21.325 217.886,20.845 217.493,20.466 C 217.098,20.086 216.591,19.896 215.968,19.896 C 215.351,19.896 214.835,20.09 214.424,20.478 C 214.013,20.867 213.747,21.449 213.63,22.224 L 212.052,21.943 C 212.245,20.881 212.687,20.058 213.372,19.474 C 214.059,18.891 214.912,18.599 215.933,18.599 C 216.638,18.599 217.287,18.749 217.878,19.051 C 218.47,19.352 218.923,19.763 219.237,20.283 C 219.551,20.803 219.708,21.356 219.708,21.941 C 219.708,22.497 219.56,23.003 219.261,23.459 C 218.962,23.915 218.519,24.277 217.933,24.547 C 218.695,24.723 219.288,25.087 219.712,25.642 C 220.137,26.195 220.349,26.888 220.349,27.72 C 220.349,28.845 219.939,29.799 219.117,30.581 C 218.295,31.364 217.256,31.755 216,31.755 C 214.867,31.755 213.926,31.419 213.178,30.745 C 212.428,30.071 212,29.198 211.895,28.128 z "
   id="path67" />
</g>
<path
   d="M 179.09748,31.677425 L 180.61748,32.152425 L 175.81998,46.973375 L 174.29998,46.449925 L 179.09748,31.677425 z "
   id="polygon69" />
<g
   id="g71"
   transform="matrix(0.95,0,0,0.95,5.508725,4.522625)">
	<path
   d="M 108.319,170.157 L 110.6,170.731 C 110.124,172.601 109.267,174.027 108.031,175.008 C 106.794,175.99 105.281,176.481 103.494,176.481 C 101.644,176.481 100.14,176.104 98.981,175.349 C 97.822,174.594 96.94,173.502 96.335,172.071 C 95.73,170.64 95.428,169.104 95.428,167.462 C 95.428,165.671 95.769,164.109 96.452,162.776 C 97.135,161.442 98.106,160.43 99.367,159.738 C 100.627,159.046 102.013,158.7 103.527,158.7 C 105.244,158.7 106.687,159.138 107.857,160.014 C 109.028,160.891 109.843,162.123 110.303,163.711 L 108.069,164.238 C 107.671,162.988 107.094,162.078 106.338,161.508 C 105.581,160.938 104.629,160.653 103.483,160.653 C 102.165,160.653 101.063,160.969 100.177,161.602 C 99.292,162.235 98.67,163.084 98.311,164.151 C 97.952,165.218 97.773,166.317 97.773,167.45 C 97.773,168.911 97.985,170.186 98.41,171.276 C 98.835,172.366 99.495,173.18 100.392,173.719 C 101.289,174.258 102.259,174.528 103.304,174.528 C 104.575,174.528 105.65,174.161 106.531,173.426 C 107.412,172.691 108.007,171.603 108.319,170.157 z "
   id="path73" />
	<path
   d="M 113.494,176.185 L 113.494,158.997 L 115.775,158.997 L 115.775,166.06 L 124.666,166.06 L 124.666,158.997 L 126.947,158.997 L 126.947,176.185 L 124.666,176.185 L 124.666,168.091 L 115.775,168.091 L 115.775,176.185 L 113.494,176.185 z "
   id="path75" />
</g>
<g
   id="g77"
   transform="matrix(0.95,0,0,0.95,5.508725,4.522625)">
	<path
   d="M 127.545,177.278 L 129.123,177.059 C 129.306,177.955 129.615,178.602 130.051,178.997 C 130.488,179.393 131.024,179.591 131.658,179.591 C 132.411,179.591 133.045,179.333 133.556,178.818 C 134.07,178.303 134.326,177.665 134.326,176.904 C 134.326,176.177 134.088,175.579 133.61,175.107 C 133.133,174.636 132.527,174.4 131.791,174.4 C 131.49,174.4 131.116,174.459 130.669,174.576 L 130.846,173.185 C 130.951,173.197 131.037,173.203 131.102,173.203 C 131.776,173.203 132.383,173.027 132.923,172.677 C 133.463,172.327 133.733,171.785 133.733,171.054 C 133.733,170.475 133.536,169.995 133.142,169.616 C 132.748,169.237 132.24,169.046 131.617,169.046 C 131,169.046 130.485,169.24 130.073,169.628 C 129.662,170.017 129.397,170.599 129.28,171.374 L 127.702,171.093 C 127.895,170.031 128.336,169.208 129.022,168.624 C 129.708,168.041 130.561,167.749 131.583,167.749 C 132.287,167.749 132.936,167.899 133.528,168.201 C 134.12,168.502 134.573,168.913 134.887,169.433 C 135.2,169.954 135.358,170.506 135.358,171.091 C 135.358,171.647 135.209,172.153 134.91,172.609 C 134.611,173.065 134.169,173.427 133.583,173.697 C 134.345,173.873 134.937,174.237 135.362,174.792 C 135.786,175.345 135.999,176.038 135.999,176.87 C 135.999,177.995 135.588,178.949 134.767,179.731 C 133.945,180.514 132.906,180.905 131.65,180.905 C 130.517,180.905 129.576,180.569 128.828,179.895 C 128.077,179.222 127.65,178.349 127.545,177.278 z "
   id="path79" />
</g>
<path
   d="M 102.38498,134.46742 L 103.99998,134.46742 L 103.99998,153.08837 L 102.38498,153.08837 L 102.38498,134.46742 z "
   id="rect81" />
<g
   id="g83"
   transform="matrix(0.95,0,0,0.95,5.508725,4.522625)">
	<path
   d="M 0,57.185 L 0,39.997 L 2.281,39.997 L 2.281,47.06 L 11.172,47.06 L 11.172,39.997 L 13.453,39.997 L 13.453,57.185 L 11.172,57.185 L 11.172,49.091 L 2.281,49.091 L 2.281,57.185 L 0,57.185 z "
   id="path85" />
</g>
<g
   id="g87"
   transform="matrix(0.95,0,0,0.95,5.508725,4.522625)">
	<path
   d="M 14.461,58.278 L 16.039,58.059 C 16.222,58.955 16.531,59.602 16.967,59.997 C 17.404,60.393 17.939,60.591 18.574,60.591 C 19.327,60.591 19.96,60.333 20.473,59.818 C 20.986,59.303 21.242,58.665 21.242,57.904 C 21.242,57.177 21.004,56.579 20.526,56.107 C 20.049,55.636 19.443,55.4 18.707,55.4 C 18.406,55.4 18.032,55.459 17.585,55.576 L 17.762,54.185 C 17.868,54.197 17.953,54.203 18.018,54.203 C 18.692,54.203 19.299,54.027 19.839,53.677 C 20.379,53.326 20.649,52.785 20.649,52.054 C 20.649,51.475 20.452,50.995 20.058,50.616 C 19.664,50.236 19.156,50.046 18.533,50.046 C 17.916,50.046 17.401,50.24 16.99,50.628 C 16.578,51.017 16.314,51.599 16.197,52.374 L 14.619,52.093 C 14.812,51.031 15.253,50.208 15.939,49.624 C 16.625,49.041 17.479,48.749 18.5,48.749 C 19.204,48.749 19.853,48.899 20.445,49.201 C 21.037,49.502 21.49,49.913 21.805,50.433 C 22.118,50.954 22.276,51.506 22.276,52.091 C 22.276,52.647 22.127,53.153 21.828,53.609 C 21.529,54.065 21.087,54.427 20.501,54.697 C 21.263,54.873 21.855,55.237 22.28,55.792 C 22.704,56.345 22.917,57.038 22.917,57.87 C 22.917,58.995 22.506,59.949 21.684,60.731 C 20.862,61.514 19.823,61.905 18.567,61.905 C 17.434,61.905 16.493,61.569 15.745,60.895 C 14.994,60.222 14.567,59.349 14.461,58.278 z "
   id="path89" />
</g>
<g
   id="g91"
   transform="matrix(0.95,0,0,0.95,5.508725,4.522625)">
	<path
   d="M 37.039,51.157 L 39.32,51.731 C 38.844,53.601 37.987,55.027 36.751,56.008 C 35.514,56.99 34.001,57.481 32.214,57.481 C 30.364,57.481 28.86,57.104 27.701,56.349 C 26.542,55.594 25.66,54.502 25.055,53.071 C 24.45,51.64 24.148,50.104 24.148,48.462 C 24.148,46.671 24.489,45.109 25.172,43.776 C 25.855,42.442 26.826,41.43 28.087,40.738 C 29.347,40.046 30.733,39.7 32.247,39.7 C 33.964,39.7 35.407,40.138 36.577,41.014 C 37.748,41.891 38.563,43.123 39.023,44.711 L 36.789,45.238 C 36.391,43.988 35.814,43.078 35.058,42.508 C 34.301,41.938 33.349,41.653 32.203,41.653 C 30.885,41.653 29.783,41.969 28.897,42.602 C 28.012,43.235 27.39,44.084 27.031,45.151 C 26.672,46.218 26.493,47.317 26.493,48.45 C 26.493,49.911 26.705,51.186 27.13,52.276 C 27.555,53.366 28.215,54.18 29.112,54.719 C 30.009,55.258 30.979,55.528 32.024,55.528 C 33.295,55.528 34.37,55.161 35.251,54.426 C 36.132,53.691 36.727,52.603 37.039,51.157 z "
   id="path93" />
</g>
<path
   d="M 46.762475,55.902425 L 47.569975,54.477425 L 61.154975,62.314925 L 60.347475,63.739925 L 46.762475,55.902425 z "
   id="polygon95" />
</svg>