<?xml version="1.0" encoding="UTF-8" standalone="no"?>
<!-- Created with Inkscape (http://www.inkscape.org/) -->
<svg
   xmlns:dc="http://purl.org/dc/elements/1.1/"
   xmlns:cc="http://web.resource.org/cc/"
   xmlns:rdf="http://www.w3.org/1999/02/22-rdf-syntax-ns#"
   xmlns:svg="http://www.w3.org/2000/svg"
   xmlns="http://www.w3.org/2000/svg"
   xmlns:sodipodi="http://inkscape.sourceforge.net/DTD/sodipodi-0.dtd"
   xmlns:inkscape="http://www.inkscape.org/namespaces/inkscape"
   id="svg1322"
   sodipodi:version="0.32"
   inkscape:version="0.43"
   width="540pt"
   height="520pt"
   version="1.0"
   sodipodi:docbase="C:\foo\wikipedia\transfer"
   sodipodi:docname="Coat_of_arms_of_Stuttgart.svg"
   inkscape:export-filename="C:\Dokumente und Einstellungen\Martin\Desktop\Wappen Rostock.png"
   inkscape:export-xdpi="150"
   inkscape:export-ydpi="150">
  <metadata
     id="metadata1327">
    <rdf:RDF>
      <cc:Work
         rdf:about="">
        <dc:format>image/svg+xml</dc:format>
        <dc:type
           rdf:resource="http://purl.org/dc/dcmitype/StillImage" />
        <cc:license
           rdf:resource="http://web.resource.org/cc/PublicDomain" />
      </cc:Work>
      <cc:License
         rdf:about="http://web.resource.org/cc/PublicDomain">
        <cc:permits
           rdf:resource="http://web.resource.org/cc/Reproduction" />
        <cc:permits
           rdf:resource="http://web.resource.org/cc/Distribution" />
        <cc:permits
           rdf:resource="http://web.resource.org/cc/DerivativeWorks" />
      </cc:License>
    </rdf:RDF>
  </metadata>
  <defs
     id="defs1325">
    <style
       id="style6"
       type="text/css">
   
    .fil8 {fill:none;fill-rule:nonzero}
    .fil0 {fill:black;fill-rule:nonzero}
    .fil7 {fill:white;fill-rule:nonzero}
    .fil1 {fill:#000099;fill-rule:nonzero}
    .fil6 {fill:#660000;fill-rule:nonzero}
    .fil4 {fill:#8A8A01;fill-rule:nonzero}
    .fil3 {fill:#939301;fill-rule:nonzero}
    .fil5 {fill:red;fill-rule:nonzero}
    .fil2 {fill:#FFCC00;fill-rule:nonzero}
   
  </style>
    <style
       type="text/css"
       id="style2978">
   
    .str4 {stroke:black;stroke-width:1.13778}
    .str3 {stroke:black;stroke-width:1.13808}
    .str2 {stroke:black;stroke-width:1.13818}
    .str8 {stroke:black;stroke-width:1.13828}
    .str6 {stroke:black;stroke-width:1.13848}
    .str5 {stroke:black;stroke-width:1.13858}
    .str7 {stroke:black;stroke-width:1.13878}
    .str1 {stroke:black;stroke-width:1.13888}
    .str0 {stroke:black;stroke-width:2.40736}
    .fil0 {fill:#0000DC}
    .fil2 {fill:red}
    .fil1 {fill:#FFF000}
    .fil4 {fill:#FFF020}
    .fil3 {fill:#FFF02D}
    .fil5 {fill:black;fill-rule:nonzero}
   
  </style>
    <style
       id="style2181"
       type="text/css">
   
    .str4 {stroke:black;stroke-width:1.13778}
    .str3 {stroke:black;stroke-width:1.13808}
    .str2 {stroke:black;stroke-width:1.13818}
    .str8 {stroke:black;stroke-width:1.13828}
    .str6 {stroke:black;stroke-width:1.13848}
    .str5 {stroke:black;stroke-width:1.13858}
    .str7 {stroke:black;stroke-width:1.13878}
    .str1 {stroke:black;stroke-width:1.13888}
    .str0 {stroke:black;stroke-width:2.40736}
    .fil0 {fill:#0000DC}
    .fil2 {fill:red}
    .fil1 {fill:#FFF000}
    .fil4 {fill:#FFF020}
    .fil3 {fill:#FFF02D}
    .fil5 {fill:black;fill-rule:nonzero}
   
  </style>
    <style
       id="style2183"
       type="text/css">
   
    .str4 {stroke:black;stroke-width:1.13778}
    .str3 {stroke:black;stroke-width:1.13808}
    .str2 {stroke:black;stroke-width:1.13818}
    .str8 {stroke:black;stroke-width:1.13828}
    .str6 {stroke:black;stroke-width:1.13848}
    .str5 {stroke:black;stroke-width:1.13858}
    .str7 {stroke:black;stroke-width:1.13878}
    .str1 {stroke:black;stroke-width:1.13888}
    .str0 {stroke:black;stroke-width:2.40736}
    .fil0 {fill:#0000DC}
    .fil2 {fill:red}
    .fil1 {fill:#FFF000}
    .fil4 {fill:#FFF020}
    .fil3 {fill:#FFF02D}
    .fil5 {fill:black;fill-rule:nonzero}
   
  </style>
    <style
       type="text/css"
       id="style2054">
   
    .fil8 {fill:none;fill-rule:nonzero}
    .fil0 {fill:black;fill-rule:nonzero}
    .fil7 {fill:white;fill-rule:nonzero}
    .fil1 {fill:#000099;fill-rule:nonzero}
    .fil6 {fill:#660000;fill-rule:nonzero}
    .fil4 {fill:#8A8A01;fill-rule:nonzero}
    .fil3 {fill:#939301;fill-rule:nonzero}
    .fil5 {fill:red;fill-rule:nonzero}
    .fil2 {fill:#FFCC00;fill-rule:nonzero}
   
  </style>
    <style
       id="style1367"
       type="text/css">
   
    .str4 {stroke:black;stroke-width:1.13778}
    .str3 {stroke:black;stroke-width:1.13808}
    .str2 {stroke:black;stroke-width:1.13818}
    .str8 {stroke:black;stroke-width:1.13828}
    .str6 {stroke:black;stroke-width:1.13848}
    .str5 {stroke:black;stroke-width:1.13858}
    .str7 {stroke:black;stroke-width:1.13878}
    .str1 {stroke:black;stroke-width:1.13888}
    .str0 {stroke:black;stroke-width:2.40736}
    .fil0 {fill:#0000DC}
    .fil2 {fill:red}
    .fil1 {fill:#FFF000}
    .fil4 {fill:#FFF020}
    .fil3 {fill:#FFF02D}
    .fil5 {fill:black;fill-rule:nonzero}
   
  </style>
    <style
       type="text/css"
       id="style1365">
   
    .fil8 {fill:none;fill-rule:nonzero}
    .fil0 {fill:black;fill-rule:nonzero}
    .fil7 {fill:white;fill-rule:nonzero}
    .fil1 {fill:#000099;fill-rule:nonzero}
    .fil6 {fill:#660000;fill-rule:nonzero}
    .fil4 {fill:#8A8A01;fill-rule:nonzero}
    .fil3 {fill:#939301;fill-rule:nonzero}
    .fil5 {fill:red;fill-rule:nonzero}
    .fil2 {fill:#FFCC00;fill-rule:nonzero}
   
  </style>
    <style
       id="style1374"
       type="text/css">
   
    .fil8 {fill:none;fill-rule:nonzero}
    .fil0 {fill:black;fill-rule:nonzero}
    .fil7 {fill:white;fill-rule:nonzero}
    .fil1 {fill:#000099;fill-rule:nonzero}
    .fil6 {fill:#660000;fill-rule:nonzero}
    .fil4 {fill:#8A8A01;fill-rule:nonzero}
    .fil3 {fill:#939301;fill-rule:nonzero}
    .fil5 {fill:red;fill-rule:nonzero}
    .fil2 {fill:#FFCC00;fill-rule:nonzero}
   
  </style>
    <style
       type="text/css"
       id="style1372">
   
    .str4 {stroke:black;stroke-width:1.13778}
    .str3 {stroke:black;stroke-width:1.13808}
    .str2 {stroke:black;stroke-width:1.13818}
    .str8 {stroke:black;stroke-width:1.13828}
    .str6 {stroke:black;stroke-width:1.13848}
    .str5 {stroke:black;stroke-width:1.13858}
    .str7 {stroke:black;stroke-width:1.13878}
    .str1 {stroke:black;stroke-width:1.13888}
    .str0 {stroke:black;stroke-width:2.40736}
    .fil0 {fill:#0000DC}
    .fil2 {fill:red}
    .fil1 {fill:#FFF000}
    .fil4 {fill:#FFF020}
    .fil3 {fill:#FFF02D}
    .fil5 {fill:black;fill-rule:nonzero}
   
  </style>
    <style
       id="style1370"
       type="text/css">
   
    .fil8 {fill:none;fill-rule:nonzero}
    .fil0 {fill:black;fill-rule:nonzero}
    .fil7 {fill:white;fill-rule:nonzero}
    .fil1 {fill:#000099;fill-rule:nonzero}
    .fil6 {fill:#660000;fill-rule:nonzero}
    .fil4 {fill:#8A8A01;fill-rule:nonzero}
    .fil3 {fill:#939301;fill-rule:nonzero}
    .fil5 {fill:red;fill-rule:nonzero}
    .fil2 {fill:#FFCC00;fill-rule:nonzero}
   
  </style>
    <style
       type="text/css"
       id="style1368">
   
    .str4 {stroke:black;stroke-width:1.13778}
    .str3 {stroke:black;stroke-width:1.13808}
    .str2 {stroke:black;stroke-width:1.13818}
    .str8 {stroke:black;stroke-width:1.13828}
    .str6 {stroke:black;stroke-width:1.13848}
    .str5 {stroke:black;stroke-width:1.13858}
    .str7 {stroke:black;stroke-width:1.13878}
    .str1 {stroke:black;stroke-width:1.13888}
    .str0 {stroke:black;stroke-width:2.40736}
    .fil0 {fill:#0000DC}
    .fil2 {fill:red}
    .fil1 {fill:#FFF000}
    .fil4 {fill:#FFF020}
    .fil3 {fill:#FFF02D}
    .fil5 {fill:black;fill-rule:nonzero}
   
  </style>
    <style
       type="text/css"
       id="style1366">
   
    .str4 {stroke:black;stroke-width:1.13778}
    .str3 {stroke:black;stroke-width:1.13808}
    .str2 {stroke:black;stroke-width:1.13818}
    .str8 {stroke:black;stroke-width:1.13828}
    .str6 {stroke:black;stroke-width:1.13848}
    .str5 {stroke:black;stroke-width:1.13858}
    .str7 {stroke:black;stroke-width:1.13878}
    .str1 {stroke:black;stroke-width:1.13888}
    .str0 {stroke:black;stroke-width:2.40736}
    .fil0 {fill:#0000DC}
    .fil2 {fill:red}
    .fil1 {fill:#FFF000}
    .fil4 {fill:#FFF020}
    .fil3 {fill:#FFF02D}
    .fil5 {fill:black;fill-rule:nonzero}
   
  </style>
    <style
       id="style1364"
       type="text/css">
   
    .str4 {stroke:black;stroke-width:1.13778}
    .str3 {stroke:black;stroke-width:1.13808}
    .str2 {stroke:black;stroke-width:1.13818}
    .str8 {stroke:black;stroke-width:1.13828}
    .str6 {stroke:black;stroke-width:1.13848}
    .str5 {stroke:black;stroke-width:1.13858}
    .str7 {stroke:black;stroke-width:1.13878}
    .str1 {stroke:black;stroke-width:1.13888}
    .str0 {stroke:black;stroke-width:2.40736}
    .fil0 {fill:#0000DC}
    .fil2 {fill:red}
    .fil1 {fill:#FFF000}
    .fil4 {fill:#FFF020}
    .fil3 {fill:#FFF02D}
    .fil5 {fill:black;fill-rule:nonzero}
   
  </style>
    <style
       type="text/css"
       id="style1362">
   
    .fil8 {fill:none;fill-rule:nonzero}
    .fil0 {fill:black;fill-rule:nonzero}
    .fil7 {fill:white;fill-rule:nonzero}
    .fil1 {fill:#000099;fill-rule:nonzero}
    .fil6 {fill:#660000;fill-rule:nonzero}
    .fil4 {fill:#8A8A01;fill-rule:nonzero}
    .fil3 {fill:#939301;fill-rule:nonzero}
    .fil5 {fill:red;fill-rule:nonzero}
    .fil2 {fill:#FFCC00;fill-rule:nonzero}
   
  </style>
    <style
       type="text/css"
       id="style1841">
   
    .str4 {stroke:black;stroke-width:1.13778}
    .str3 {stroke:black;stroke-width:1.13808}
    .str2 {stroke:black;stroke-width:1.13818}
    .str8 {stroke:black;stroke-width:1.13828}
    .str6 {stroke:black;stroke-width:1.13848}
    .str5 {stroke:black;stroke-width:1.13858}
    .str7 {stroke:black;stroke-width:1.13878}
    .str1 {stroke:black;stroke-width:1.13888}
    .str0 {stroke:black;stroke-width:2.40736}
    .fil0 {fill:#0000DC}
    .fil2 {fill:red}
    .fil1 {fill:#FFF000}
    .fil4 {fill:#FFF020}
    .fil3 {fill:#FFF02D}
    .fil5 {fill:black;fill-rule:nonzero}
   
  </style>
    <style
       id="style2076"
       type="text/css">
   
    .fil8 {fill:none;fill-rule:nonzero}
    .fil0 {fill:black;fill-rule:nonzero}
    .fil7 {fill:white;fill-rule:nonzero}
    .fil1 {fill:#000099;fill-rule:nonzero}
    .fil6 {fill:#660000;fill-rule:nonzero}
    .fil4 {fill:#8A8A01;fill-rule:nonzero}
    .fil3 {fill:#939301;fill-rule:nonzero}
    .fil5 {fill:red;fill-rule:nonzero}
    .fil2 {fill:#FFCC00;fill-rule:nonzero}
   
  </style>
    <style
       type="text/css"
       id="style1844">
   
    .str4 {stroke:black;stroke-width:1.13778}
    .str3 {stroke:black;stroke-width:1.13808}
    .str2 {stroke:black;stroke-width:1.13818}
    .str8 {stroke:black;stroke-width:1.13828}
    .str6 {stroke:black;stroke-width:1.13848}
    .str5 {stroke:black;stroke-width:1.13858}
    .str7 {stroke:black;stroke-width:1.13878}
    .str1 {stroke:black;stroke-width:1.13888}
    .str0 {stroke:black;stroke-width:2.40736}
    .fil0 {fill:#0000DC}
    .fil2 {fill:red}
    .fil1 {fill:#FFF000}
    .fil4 {fill:#FFF020}
    .fil3 {fill:#FFF02D}
    .fil5 {fill:black;fill-rule:nonzero}
   
  </style>
    <style
       id="style3635"
       type="text/css">
   
    .fil8 {fill:none;fill-rule:nonzero}
    .fil0 {fill:black;fill-rule:nonzero}
    .fil7 {fill:white;fill-rule:nonzero}
    .fil1 {fill:#000099;fill-rule:nonzero}
    .fil6 {fill:#660000;fill-rule:nonzero}
    .fil4 {fill:#8A8A01;fill-rule:nonzero}
    .fil3 {fill:#939301;fill-rule:nonzero}
    .fil5 {fill:red;fill-rule:nonzero}
    .fil2 {fill:#FFCC00;fill-rule:nonzero}
   
  </style>
    <style
       id="style1893"
       type="text/css">
   
    .fil8 {fill:none;fill-rule:nonzero}
    .fil0 {fill:black;fill-rule:nonzero}
    .fil7 {fill:white;fill-rule:nonzero}
    .fil1 {fill:#000099;fill-rule:nonzero}
    .fil6 {fill:#660000;fill-rule:nonzero}
    .fil4 {fill:#8A8A01;fill-rule:nonzero}
    .fil3 {fill:#939301;fill-rule:nonzero}
    .fil5 {fill:red;fill-rule:nonzero}
    .fil2 {fill:#FFCC00;fill-rule:nonzero}
   
  </style>
    <style
       type="text/css"
       id="style1891">
   
    .str4 {stroke:black;stroke-width:1.13778}
    .str3 {stroke:black;stroke-width:1.13808}
    .str2 {stroke:black;stroke-width:1.13818}
    .str8 {stroke:black;stroke-width:1.13828}
    .str6 {stroke:black;stroke-width:1.13848}
    .str5 {stroke:black;stroke-width:1.13858}
    .str7 {stroke:black;stroke-width:1.13878}
    .str1 {stroke:black;stroke-width:1.13888}
    .str0 {stroke:black;stroke-width:2.40736}
    .fil0 {fill:#0000DC}
    .fil2 {fill:red}
    .fil1 {fill:#FFF000}
    .fil4 {fill:#FFF020}
    .fil3 {fill:#FFF02D}
    .fil5 {fill:black;fill-rule:nonzero}
   
  </style>
    <style
       id="style1889"
       type="text/css">
   
    .fil8 {fill:none;fill-rule:nonzero}
    .fil0 {fill:black;fill-rule:nonzero}
    .fil7 {fill:white;fill-rule:nonzero}
    .fil1 {fill:#000099;fill-rule:nonzero}
    .fil6 {fill:#660000;fill-rule:nonzero}
    .fil4 {fill:#8A8A01;fill-rule:nonzero}
    .fil3 {fill:#939301;fill-rule:nonzero}
    .fil5 {fill:red;fill-rule:nonzero}
    .fil2 {fill:#FFCC00;fill-rule:nonzero}
   
  </style>
    <style
       type="text/css"
       id="style1887">
   
    .str4 {stroke:black;stroke-width:1.13778}
    .str3 {stroke:black;stroke-width:1.13808}
    .str2 {stroke:black;stroke-width:1.13818}
    .str8 {stroke:black;stroke-width:1.13828}
    .str6 {stroke:black;stroke-width:1.13848}
    .str5 {stroke:black;stroke-width:1.13858}
    .str7 {stroke:black;stroke-width:1.13878}
    .str1 {stroke:black;stroke-width:1.13888}
    .str0 {stroke:black;stroke-width:2.40736}
    .fil0 {fill:#0000DC}
    .fil2 {fill:red}
    .fil1 {fill:#FFF000}
    .fil4 {fill:#FFF020}
    .fil3 {fill:#FFF02D}
    .fil5 {fill:black;fill-rule:nonzero}
   
  </style>
    <style
       type="text/css"
       id="style1885">
   
    .str4 {stroke:black;stroke-width:1.13778}
    .str3 {stroke:black;stroke-width:1.13808}
    .str2 {stroke:black;stroke-width:1.13818}
    .str8 {stroke:black;stroke-width:1.13828}
    .str6 {stroke:black;stroke-width:1.13848}
    .str5 {stroke:black;stroke-width:1.13858}
    .str7 {stroke:black;stroke-width:1.13878}
    .str1 {stroke:black;stroke-width:1.13888}
    .str0 {stroke:black;stroke-width:2.40736}
    .fil0 {fill:#0000DC}
    .fil2 {fill:red}
    .fil1 {fill:#FFF000}
    .fil4 {fill:#FFF020}
    .fil3 {fill:#FFF02D}
    .fil5 {fill:black;fill-rule:nonzero}
   
  </style>
    <style
       id="style1883"
       type="text/css">
   
    .str4 {stroke:black;stroke-width:1.13778}
    .str3 {stroke:black;stroke-width:1.13808}
    .str2 {stroke:black;stroke-width:1.13818}
    .str8 {stroke:black;stroke-width:1.13828}
    .str6 {stroke:black;stroke-width:1.13848}
    .str5 {stroke:black;stroke-width:1.13858}
    .str7 {stroke:black;stroke-width:1.13878}
    .str1 {stroke:black;stroke-width:1.13888}
    .str0 {stroke:black;stroke-width:2.40736}
    .fil0 {fill:#0000DC}
    .fil2 {fill:red}
    .fil1 {fill:#FFF000}
    .fil4 {fill:#FFF020}
    .fil3 {fill:#FFF02D}
    .fil5 {fill:black;fill-rule:nonzero}
   
  </style>
    <style
       type="text/css"
       id="style1881">
   
    .fil8 {fill:none;fill-rule:nonzero}
    .fil0 {fill:black;fill-rule:nonzero}
    .fil7 {fill:white;fill-rule:nonzero}
    .fil1 {fill:#000099;fill-rule:nonzero}
    .fil6 {fill:#660000;fill-rule:nonzero}
    .fil4 {fill:#8A8A01;fill-rule:nonzero}
    .fil3 {fill:#939301;fill-rule:nonzero}
    .fil5 {fill:red;fill-rule:nonzero}
    .fil2 {fill:#FFCC00;fill-rule:nonzero}
   
  </style>
  </defs>
  <sodipodi:namedview
     inkscape:window-height="753"
     inkscape:window-width="1028"
     inkscape:pageshadow="2"
     inkscape:pageopacity="0.0"
     borderopacity="1.0"
     bordercolor="#666666"
     pagecolor="#ffffff"
     id="base"
     inkscape:zoom="0.58448176"
     inkscape:cx="425.24916"
     inkscape:cy="377.31561"
     inkscape:window-x="-4"
     inkscape:window-y="-4"
     inkscape:current-layer="Ebene_1" />
  <g
     id="g1372"
     transform="translate(188.002,3.11543)">
    <g
       style="fill-rule:evenodd"
       id="g2190"
       transform="matrix(3.248992,0,0,3.19535,-708.5078,-52.19496)">
      <g
         id="Layer_x0020_1"
         transform="translate(-57.86415,1.873501e-14)">
        <metadata
           id="CorelCorpID_0Corel-Layer" />
      </g>
    </g>
  </g>
  <g
     id="Ebene_1"
     transform="translate(1399.035,-77.42019)">
    <path
       id="path1364"
       d="M -1183.8118,149.20289 C -1186.1031,150.36755 -1189.8951,150.07253 -1192.5268,149.50072 C -1193.6956,147.4608 -1196.8717,146.02776 -1197.7312,143.69702 C -1199.7791,142.24574 -1202.0999,142.8344 -1203.553,142.52109 C -1203.553,140.22546 -1199.5034,141.9507 -1199.7791,139.92762 C -1195.9871,139.34457 -1192.5268,138.18553 -1188.7403,137.02366 L -1189.3114,136.70474 L -1186.7149,136.70474 C -1186.9905,136.70474 -1186.9905,136.70474 -1187.2634,137.02366 C -1185.238,137.88768 -1184.0832,138.74748 -1182.9297,139.92762 C -1181.7399,143.12661 -1182.062,146.30875 -1183.8118,149.20289 M -1245.7037,175.34279 C -1246.8867,175.93987 -1247.7741,176.49622 -1248.0442,176.79547 L -1253.859,176.79547 C -1252.4074,175.64203 -1251.2273,174.45909 -1250.3594,172.44304 C -1249.7996,170.69533 -1251.8364,168.97148 -1252.4074,166.62668 C -1253.859,166.35973 -1255.3064,165.47324 -1257.336,166.35973 C -1257.6525,164.61624 -1254.4245,166.06752 -1254.7466,164.02195 C -1252.7042,163.72552 -1250.0668,163.72552 -1247.7741,164.02195 L -1248.0442,164.02195 C -1248.6153,165.74579 -1244.871,165.1754 -1245.4196,166.62668 C -1244.2493,167.79136 -1243.6838,169.54189 -1243.9778,171.55513 C -1243.6838,173.32393 -1244.871,173.89432 -1245.7037,175.34279 z M -726.76083,276.41819 C -724.72129,272.03344 -728.7891,268.56188 -730.23787,265.36569 C -735.18901,259.85139 -741.00377,256.37985 -745.95491,251.72957 C -750.02834,252.01055 -751.18455,248.53339 -754.07365,247.9391 C -754.07365,248.23693 -753.79232,248.83123 -754.36621,249.09815 C -751.18455,251.13529 -747.68499,254.05049 -744.47802,256.65802 C -743.05456,260.14362 -739.81944,260.44848 -739.25681,263.32576 C -738.39599,265.36569 -737.23979,268.56188 -738.96424,270.61307 C -739.81944,270.01878 -741.87022,270.29697 -741.87022,268.86675 C -746.23059,268.56188 -748.85808,267.37893 -752.93713,268.86675 C -755.24391,270.61307 -756.40574,274.37824 -755.8431,277.27799 C -756.11317,281.04178 -751.46022,281.90579 -752.93713,285.99691 C -752.93713,287.15035 -754.67567,287.72074 -754.07365,288.32768 C -756.11317,290.0515 -759.91092,289.19029 -762.79439,288.89806 C -763.40204,286.85812 -766.58089,287.72074 -768.63167,287.15035 C -769.22242,286.57994 -767.74551,286.85812 -768.63167,286.28773 C -775.30164,284.80555 -782.01098,281.90579 -788.95664,279.88833 L -788.39401,279.31792 C -793.04132,279.31792 -797.40732,277.27799 -801.76771,276.10207 C -809.6023,274.95988 -817.16966,275.23806 -825.32215,275.8211 C -829.38152,276.70759 -834.04854,278.14202 -837.23583,281.04178 C -844.8088,288.32768 -849.14387,297.31213 -854.10344,305.45782 C -856.12047,305.75146 -855.26245,309.22301 -857.59737,308.36179 C -856.43554,303.71152 -851.7826,299.32958 -851.7826,294.13138 C -851.19183,290.93801 -852.91911,286.57994 -854.396,284.54002 C -858.73387,281.34663 -861.63986,275.8211 -865.73017,272.33689 C -869.5054,270.61307 -872.99934,268.00273 -876.47357,265.95998 C -876.47357,265.95998 -876.17536,265.65511 -875.9053,265.65511 C -876.79144,265.09876 -877.95047,264.79531 -878.81128,265.36569 C -879.08135,267.37893 -875.9053,265.95998 -876.17536,268.00273 C -875.31455,268.00273 -874.74348,268.56188 -873.88266,268.56188 C -869.79797,273.19812 -866.02274,276.41819 -862.25029,281.04178 C -863.40931,281.90579 -861.0716,283.0817 -861.63986,283.67599 C -860.50333,288.59321 -862.25029,292.95406 -865.73017,296.16008 C -868.93152,299.32958 -872.99934,301.67158 -876.17536,305.14453 C -887.80769,319.09255 -881.13212,337.08674 -876.47357,352.2191 C -872.13007,364.99121 -864.8412,378.6133 -865.4376,391.38681 C -867.18456,399.22764 -865.16191,408.25424 -871.24674,414.90373 C -874.15273,415.20858 -874.15273,418.11115 -876.47357,418.11115 L -875.9053,418.70824 C -877.65226,419.57508 -881.41908,418.70824 -881.13212,420.72289 L -895.96021,421.02635 C -900.05052,419.00186 -902.63015,418.39212 -906.73181,416.67111 C -906.42786,416.36764 -906.42786,416.36764 -906.1354,416.36764 C -913.69988,411.70754 -919.52026,405.91225 -925.32942,401.27602 L -925.03411,400.95991 C -928.80373,398.05736 -932.02759,394.57596 -935.80274,392.24661 L -935.50176,391.9839 L -938.41614,390.83046 L -938.11516,390.52558 C -943.65983,388.48284 -948.00342,382.97415 -954.40332,381.51726 L -961.96226,380.36382 L -961.66967,380.36382 C -969.8285,379.77797 -978.5492,376.30643 -986.39082,375.14174 C -986.39082,375.03076 -986.22622,375.03076 -986.06316,375.03076 C -988.07873,373.75509 -990.81033,374.22855 -992.76687,373.39122 C -992.47427,373.39122 -992.47427,373.09899 -992.19856,373.09899 C -993.95118,371.92307 -996.55337,372.5314 -998.58157,371.65333 C -998.28202,371.35408 -998.0063,371.35408 -997.72505,371.35408 C -999.46633,370.79212 -1001.195,370.20206 -1003.2345,369.90843 C -1003.1529,369.90843 -1003.1051,369.85644 -1003.0349,369.83257 C -1007.3248,369.14134 -1008.3447,366.43686 -1013.1157,366.43686 L -1012.8231,366.12077 C -1018.9291,363.53432 -1025.0604,361.78379 -1030.5629,359.45444 L -1030.2646,358.87981 C -1031.4476,358.301 -1033.1763,358.87981 -1034.3549,357.41028 L -1034.0625,357.13632 C -1036.9683,356.84269 -1038.9967,354.23234 -1041.3288,354.23234 L -1040.7605,353.63526 C -1045.9818,351.91425 -1051.2338,348.13783 -1055.002,345.52747 L -1054.7094,345.22262 L -1057.0472,343.76571 L -1056.7307,343.50159 C -1057.6154,342.32006 -1060.2233,343.20938 -1059.6381,341.45884 L -1059.3328,341.45884 C -1062.2459,339.98929 -1063.9984,338.26828 -1066.6301,337.08674 C -1066.3362,336.81137 -1066.6301,336.21428 -1066.3362,335.94454 C -1070.428,332.15688 -1075.6224,329.83877 -1078.8251,325.46666 C -1079.9828,320.84167 -1078.2625,314.73731 -1075.0513,311.55518 C -1072.4519,309.51523 -1070.1044,306.61408 -1067.5234,305.45782 L -1067.7906,305.14453 C -1063.1334,304.57415 -1061.0911,302.54544 -1056.4268,301.96379 L -1056.4268,301.67158 L -1054.1398,300.81037 C -1053.2622,298.77042 -1056.4268,300.21328 -1055.8868,298.17333 C -1059.6381,296.16008 -1062.8605,295.29607 -1066.9016,293.84197 L -1066.9016,293.52586 L -1070.6938,291.80204 C -1070.428,290.93801 -1072.1467,290.34373 -1071.8542,289.45722 C -1070.6938,288.59321 -1068.9511,288.89806 -1067.7906,289.19029 C -1063.9984,291.23023 -1059.6381,292.66184 -1055.5703,292.95406 C -1050.0495,291.50841 -1045.4191,292.66184 -1040.4736,290.93801 C -1037.5662,292.66184 -1032.3042,292.66184 -1029.1324,291.80204 C -1027.3572,291.23023 -1029.9946,290.34371 -1029.9946,289.45722 C -1032.3042,288.32768 -1034.3549,286.28773 -1036.6927,284.80555 L -1036.3706,284.54002 C -1040.1683,281.90579 -1044.7987,282.7923 -1048.5966,281.90579 C -1048.5966,281.90579 -1048.5966,281.63886 -1048.3264,281.63886 C -1049.7569,280.47136 -1052.0946,281.04176 -1053.8248,280.18196 C -1054.1398,279.00183 -1057.6154,277.27799 -1059.0628,276.70759 C -1058.1851,275.53028 -1061.3836,276.10207 -1060.5172,274.08461 C -1059.6381,273.19812 -1057.9038,273.51422 -1056.7307,273.80644 C -1054.4099,275.23804 -1050.3421,275.53028 -1047.1435,276.41819 C -1044.5287,274.66766 -1039.8757,276.10207 -1038.1231,273.80644 C -1029.9946,273.19812 -1020.9686,274.37824 -1013.4435,272.91995 C -1012.2535,270.61307 -1016.0231,269.72656 -1017.206,268.86675 C -1018.6365,268.56188 -1020.6761,268.86675 -1021.5439,267.69785 L -1021.2739,267.37893 C -1023.8816,266.51913 -1026.2321,265.36569 -1028.5416,264.21225 C -1028.4009,263.93127 -1028.2659,263.89616 -1028.1308,263.89616 C -1034.3311,263.76129 -1040.0164,261.03152 -1045.9818,261.3097 C -1047.7061,260.14362 -1050.3421,258.10368 -1052.3886,256.09042 C -1052.0946,255.20392 -1052.9569,254.9103 -1051.8077,254.60682 C -1048.889,254.3399 -1045.4191,254.9103 -1042.7832,254.05049 L -1042.1839,252.85911 C -1038.1231,252.29997 -1033.4646,252.85911 -1029.9946,251.44014 C -1031.4476,250.57331 -1032.902,249.09815 -1034.6475,248.83123 C -1034.3549,248.53337 -1034.3549,248.53337 -1034.3549,248.23693 C -1038.7153,248.53337 -1041.3288,245.89916 -1045.4191,245.89916 C -1045.6892,243.8817 -1049.4812,245.03795 -1049.7569,242.13538 C -1047.9987,240.11231 -1043.0701,241.24747 -1039.8757,241.24747 C -1039.8757,241.56358 -1041.3288,241.24747 -1040.1683,241.56358 C -1034.6475,242.72264 -1029.9946,242.42759 -1025.0604,239.81726 C -1024.1812,238.66382 -1021.2739,239.23423 -1021.2739,237.4837 C -1013.1157,235.75987 -1005.8662,241.86283 -998.28202,238.34772 C -998.58157,238.34772 -998.89815,238.34772 -998.89815,238.07517 L -996.27199,236.91331 C -995.67416,235.75987 -996.27199,235.75987 -996.27199,234.3114 C -1002.6607,234.3114 -1009.342,227.33878 -1014.8683,228.77321 C -1019.8208,226.16287 -1026.789,228.20844 -1032.3042,226.73326 C -1032.3042,225.00383 -1036.9683,225.86362 -1038.7153,224.71159 L -1038.1231,224.13979 C -1041.3288,223.82368 -1043.6679,221.81044 -1045.6892,220.06273 C -1040.1683,219.19449 -1033.7811,220.65139 -1027.6555,219.76487 C -1022.4287,218.01716 -1017.4929,217.15313 -1012.8231,215.1132 C -1005.5793,214.84205 -999.1794,215.43633 -991.60641,214.5428 C -992.19856,212.81896 -989.56132,213.68861 -988.70041,212.81896 C -989.56132,211.93808 -986.95346,211.93808 -987.84388,210.48961 C -990.74563,210.19036 -994.24378,208.44265 -996.85293,207.87788 L -996.55337,207.58564 C -999.7646,206.40271 -1002.3723,204.1141 -1005.2741,204.38104 L -1004.9871,204.1141 C -1012.5475,204.38104 -1020.406,205.26754 -1027.6555,204.67888 C -1032.3042,202.93537 -1036.9683,200.31802 -1041.0362,197.41826 C -1039.2836,195.67055 -1038.4228,194.78966 -1036.6927,193.92001 C -1036.078,191.01886 -1040.4736,192.19619 -1040.7605,189.86683 C -1034.9415,188.41414 -1029.702,187.54591 -1024.1812,185.5144 C -1024.1812,184.05609 -1020.6761,183.78073 -1021.2739,182.89703 C -1016.0231,181.1465 -1009.6401,183.16957 -1004.9871,181.1465 C -1000.6323,180.88097 -998.58157,179.69804 -995.37602,177.09331 C -995.10031,172.74088 -1001.195,175.07024 -1004.1024,173.89432 C -1010.2083,170.41996 -1017.7743,168.64977 -1024.7551,169.26652 C -1029.9946,171.55513 -1036.6927,170.69533 -1042.7832,170.41996 C -1045.0913,168.09061 -1048.5966,169.26652 -1050.9117,166.92593 C -1050.3421,165.47324 -1047.9987,164.8916 -1047.7061,164.02195 C -1042.5018,161.41724 -1036.9683,160.55041 -1032.3042,158.51047 C -1032.608,158.21823 -1034.3549,157.0353 -1033.4646,157.35141 C -1036.9683,155.6065 -1040.1683,155.6065 -1043.3739,154.12572 C -1048.889,153.27153 -1055.2889,153.85315 -1060.8098,152.99616 L -1060.5172,152.70113 L -1064.616,151.5477 C -1064.2882,150.36755 -1062.2459,151.5477 -1061.7002,150.36755 C -1061.7002,150.36755 -1062.2459,150.66118 -1062.2459,150.36755 C -1058.7942,149.50072 -1054.7094,149.50072 -1050.9117,149.20289 C -1043.6679,147.19527 -1037.8475,141.65146 -1031.155,141.35923 C -1027.0872,143.39917 -1023.3134,140.79445 -1019.2512,140.79445 C -1018.6365,139.34457 -1016.0231,138.18553 -1016.3452,136.14558 L -1023.8816,136.14558 C -1024.7551,133.80218 -1028.8341,135.27734 -1030.8793,134.12391 C -1030.8793,133.80218 -1030.5629,133.80218 -1030.2646,133.80218 C -1032.0398,132.07694 -1035.2158,133.80218 -1035.808,131.51216 L -1043.9422,130.62565 C -1043.9422,130.62565 -1043.6679,130.33063 -1043.3739,130.33063 C -1057.6154,127.13162 -1071.8542,129.76585 -1085.806,129.17719 C -1085.806,127.72591 -1083.7805,127.42666 -1083.4823,126.56685 C -1078.8251,123.93263 -1073.8796,123.37347 -1068.9511,121.62295 L -1069.2408,121.32651 L -1065.1589,120.17448 L -1066.038,119.60267 L -1063.1334,118.42395 C -1062.5441,117.56274 -1061.3836,115.52279 -1061.0911,114.35812 C -1061.3836,114.08838 -1061.9731,114.35812 -1062.2459,114.08838 C -1063.1334,114.65316 -1063.1334,114.95239 -1063.1334,115.52279 C -1066.9016,114.65316 -1070.428,113.79334 -1074.1722,113.79334 C -1074.7615,111.7534 -1078.5297,113.20468 -1079.4173,111.183 C -1087.2562,109.70784 -1096.2695,111.45415 -1103.5583,110.88375 C -1099.1768,107.10171 -1092.5013,106.80388 -1089.2929,102.47814 C -1096.8588,103.33233 -1105.3166,102.17889 -1113.7208,101.29239 C -1113.4156,101.00016 -1113.1483,101.00016 -1112.8501,101.00016 C -1114.8685,101.00016 -1117.2161,99.841106 -1119.2317,101.58461 C -1119.8479,110.00288 -1122.751,116.99234 -1123.5992,125.70283 C -1122.4415,125.70283 -1121.8691,126.27323 -1121.0082,126.56685 C -1121.5737,126.86188 -1121.0082,126.86188 -1121.5737,127.13162 C -1118.6719,126.86188 -1118.9659,129.76585 -1116.624,130.037 C -1113.1483,133.236 -1109.3801,136.70474 -1105.8609,139.92762 C -1102.4092,144.85045 -1098.0277,149.79717 -1094.5267,155.01924 C -1089.5981,162.27424 -1086.1196,169.54189 -1082.6004,177.67637 C -1073.009,200.31802 -1075.922,228.77321 -1079.9828,254.3399 C -1082.893,272.03344 -1088.4109,288.89806 -1093.0737,306.32186 C -1093.9557,306.61408 -1094.5267,307.4753 -1095.4086,306.89224 C -1094.8433,304.28191 -1098.3188,304.00373 -1097.7464,301.67158 C -1102.4092,297.60574 -1097.4298,291.23023 -1096.8588,286.28773 C -1089.8879,260.44848 -1080.5778,230.81315 -1084.6427,204.96969 C -1085.2405,202.63893 -1084.346,200.59337 -1084.9592,199.16457 C -1087.8652,186.69031 -1090.1635,176.20682 -1096.593,165.47324 C -1100.0447,156.76837 -1107.605,150.66118 -1111.9654,143.39917 C -1115.7631,141.08668 -1117.7816,137.88768 -1121.0082,134.97809 C -1124.4839,134.68867 -1125.664,130.90102 -1128.8443,130.33063 C -1128.5686,130.33063 -1128.5686,130.037 -1128.2521,130.037 C -1131.1581,128.31316 -1134.6577,126.56685 -1137.565,124.52691 C -1137.2978,123.37347 -1135.5396,123.93263 -1134.6577,123.93263 C -1130.0047,123.37347 -1130.8655,118.1514 -1128.5686,115.22495 C -1127.6811,104.49138 -1124.1815,92.284054 -1124.4839,82.420126 C -1128.2521,89.971559 -1130.3,100.72761 -1138.1361,105.65044 C -1140.2023,109.14307 -1143.6541,108.84944 -1145.3968,111.183 L -1145.131,111.45415 C -1147.4461,112.04843 -1148.037,113.79334 -1150.6518,114.65316 C -1153.2567,117.26489 -1152.3776,122.50382 -1156.4651,122.18773 C -1158.807,120.17448 -1155.8969,115.22495 -1155.2808,112.61321 C -1153.555,108.5544 -1148.6094,108.84944 -1145.3968,106.23348 L -1145.3968,105.94266 L -1141.6314,104.49138 C -1141.0407,103.90272 -1140.7495,103.33232 -1140.4681,102.47813 L -1148.6094,101.29238 C -1148.6094,101.29238 -1148.3042,101.00016 -1148.037,101.00016 C -1152.1019,100.43257 -1157.0306,100.13895 -1161.3966,100.72761 C -1161.0928,101.58461 -1162.2828,101.58461 -1162.5697,101.58461 C -1167.7965,104.20197 -1168.0932,111.45415 -1168.9513,115.22495 C -1173.0219,116.10583 -1177.1065,118.42395 -1181.4529,120.17448 L -1181.1801,120.46389 C -1184.3588,120.76173 -1185.5376,123.07422 -1188.7403,123.37347 L -1188.4436,123.65726 L -1192.8082,125.09731 C -1192.5268,125.09731 -1192.2187,125.09731 -1192.2187,125.41342 C -1198.3486,128.31316 -1203.8427,130.90102 -1209.3635,133.53525 L -1209.0878,133.80218 L -1213.4341,135.27734 L -1213.1556,135.57518 L -1216.3415,137.02366 L -1216.0602,137.3229 C -1219.5386,138.74748 -1223.3293,139.92762 -1225.677,142.24574 L -1225.3492,142.52109 L -1228.8473,143.69701 L -1228.5815,143.99626 C -1232.3497,146.02776 -1237.578,148.93033 -1240.4811,150.95904 C -1245.7037,153.85315 -1250.9488,154.44745 -1256.1827,155.90014 L -1255.8774,156.17127 C -1259.0858,155.6065 -1259.6751,159.07525 -1262.5882,159.37028 C -1263.7359,160.82296 -1265.7614,162.84463 -1266.3733,164.8916 C -1272.7563,172.17049 -1266.0569,180.58734 -1269.2807,187.84375 C -1269.5536,190.74771 -1264.8964,188.97891 -1264.0412,190.44846 C -1257.0379,191.61314 -1250.3594,190.44846 -1243.3941,191.61314 C -1243.3941,191.61314 -1243.6838,191.88008 -1243.9778,191.88008 L -1237.2966,192.19619 C -1234.9631,192.76657 -1236.1418,194.21926 -1235.8282,195.67055 C -1242.2281,198.29914 -1247.452,201.48549 -1253.5861,203.81626 C -1253.2697,203.81626 -1252.9728,203.81626 -1252.7042,204.1141 C -1255.0152,204.9697 -1257.0379,205.54009 -1259.0858,206.40271 C -1260.2406,208.44265 -1256.1827,207.87788 -1257.0379,209.61998 C -1254.4245,210.48961 -1255.3064,211.34381 -1252.7042,212.21344 C -1252.9728,212.21344 -1252.9728,212.52956 -1253.2697,212.52956 C -1252.7042,213.68861 -1251.2273,213.09152 -1250.0668,213.98364 C -1250.3594,214.25901 -1250.6816,214.25901 -1250.9488,214.25901 C -1250.0668,215.1132 -1248.0442,214.5428 -1247.7741,216.29052 C -1243.1128,218.33608 -1237.8677,217.45238 -1232.9151,215.99409 C -1233.2372,214.5428 -1231.4874,215.1132 -1230.6056,214.5428 L -1230.8728,214.25901 C -1228.8473,213.09152 -1227.9682,211.34381 -1225.3492,210.78465 L -1225.677,210.48961 C -1222.4474,208.44265 -1218.9732,206.13438 -1215.4708,204.1141 C -1209.3635,201.48549 -1202.4108,201.21153 -1196.2767,199.72935 C -1193.074,202.06854 -1189.8951,205.54009 -1186.7149,207.58564 C -1182.3349,207.29062 -1181.4529,209.91781 -1177.1065,209.30949 C -1171.5718,208.44265 -1165.4784,207.01525 -1160.5499,204.1141 L -1160.8254,203.81626 C -1157.641,202.93537 -1156.4651,199.72935 -1153.555,199.16457 L -1153.8545,198.86954 C -1150.3521,196.55424 -1149.4702,191.61314 -1145.3968,191.31529 C -1143.9467,193.36085 -1146.2913,195.67055 -1147.4461,197.11901 C -1148.923,199.46382 -1151.5126,201.77069 -1153.555,204.67888 C -1157.0306,207.87788 -1159.6623,208.73908 -1162.5697,211.05439 C -1166.0439,211.05439 -1167.5208,214.25901 -1170.9992,214.25901 C -1170.7066,214.25901 -1170.1173,214.25901 -1170.1173,214.5428 C -1172.7252,215.43633 -1176.2514,214.84205 -1178.5427,216.29052 C -1181.1801,216.58837 -1182.9297,217.15315 -1184.0832,219.19449 C -1189.3114,225.00383 -1196.2767,229.95053 -1200.6455,236.33026 C -1214.316,251.13529 -1223.3293,269.15617 -1234.392,286.28773 C -1236.1418,288.59321 -1238.7313,290.62189 -1241.3461,292.95406 C -1243.9778,296.74172 -1247.452,299.65693 -1250.0668,303.71152 C -1253.859,307.18588 -1255.0152,312.71986 -1257.336,317.63987 C -1260.5627,315.59713 -1263.4701,312.41498 -1266.9457,310.66866 C -1266.9457,310.66866 -1266.6462,310.37503 -1266.3733,310.37503 C -1268.3988,309.22301 -1270.1429,308.04568 -1271.572,307.18588 L -1271.3034,307.18588 L -1273.9337,305.45782 L -1273.6199,305.14453 C -1276.8523,304.86355 -1275.0968,303.11723 -1278.28,302.22932 C -1284.6799,295.56581 -1290.7689,287.72074 -1296.3108,280.18196 C -1296.879,276.10207 -1299.2167,272.63053 -1300.3771,268.86675 C -1301.5348,268.56188 -1302.6924,266.8226 -1302.6924,265.65511 C -1305.7165,265.1114 -1305.1455,263.03353 -1308.0584,262.80171 C -1315.2995,266.4812 -1324.5435,262.80171 -1330.3344,270.01878 C -1331.7676,274.66766 -1334.99,278.14202 -1337.0155,283.38658 C -1341.6488,289.76209 -1349.5284,295.56581 -1353.2762,302.22932 C -1357.3673,304.86355 -1358.2519,307.76751 -1361.9998,310.37503 L -1361.7037,310.66866 C -1365.2258,313.58387 -1368.4053,316.48643 -1371.8986,319.38478 C -1378.603,322.56973 -1378.8758,331.5893 -1380.625,337.08674 C -1380.0335,341.45884 -1379.1509,343.20938 -1378.2865,347.83435 C -1375.9684,355.98288 -1381.5104,362.64359 -1385.5746,368.15789 C -1389.3428,370.49989 -1393.6828,372.5314 -1397.7739,372.5314 C -1397.2077,372.5314 -1397.4742,373.09899 -1397.4742,373.39122 C -1393.9817,373.39122 -1390.779,373.39122 -1387.8716,374.55729 C -1387.0072,375.70934 -1386.4419,378.04008 -1386.1458,379.49698 C -1387.5994,383.85785 -1387.5994,391.10581 -1388.757,396.03428 L -1387.3265,396.92359 C -1387.5994,397.19895 -1387.8716,397.49117 -1387.8716,397.78761 C -1382.0555,398.93543 -1375.6963,398.05736 -1370.4272,397.49117 C -1369.8823,396.03428 -1366.363,396.63135 -1365.2258,396.03428 C -1362.5884,394.57596 -1359.0931,393.7274 -1355.8904,392.56272 C -1356.1857,390.83046 -1352.1186,391.10581 -1352.4379,389.65876 C -1347.4622,385.87251 -1348.3504,377.7296 -1346.8939,372.5314 L -1365.2258,371.92307 C -1364.3382,370.49989 -1366.363,369.33522 -1365.2258,367.86568 C -1361.1587,366.43686 -1356.1857,365.25532 -1351.5504,363.82653 C -1350.961,360.31424 -1350.6917,356.26948 -1347.7786,354.23236 C -1346.0119,350.44469 -1341.6488,349.01027 -1338.446,346.41117 C -1335.2629,345.22262 -1339.3308,342.03344 -1338.446,339.70831 C -1339.9195,338.26828 -1340.1952,336.21428 -1341.0798,334.48765 C -1343.7143,332.15688 -1345.1477,329.83877 -1348.3504,328.68673 C -1348.643,326.6496 -1346.3045,325.1913 -1345.443,323.17243 C -1337.0155,315.02954 -1328.292,308.36179 -1320.999,299.94633 C -1320.4588,299.32958 -1319.5713,299.05984 -1318.7104,299.32958 C -1315.481,298.46554 -1316.3685,301.09977 -1314.0265,301.96379 C -1311.4159,306.61408 -1306.7602,309.8201 -1304.7403,313.58387 C -1301.5348,319.38478 -1297.1983,324.03786 -1296.0168,329.83877 C -1291.9293,336.81137 -1292.5412,343.76571 -1289.9081,351.04178 C -1289.3131,352.48182 -1288.1583,353.37114 -1287.8643,354.82944 C -1284.6799,357.13632 -1278.8721,359.74665 -1274.4821,361.19232 C -1270.1429,360.63035 -1269.5536,364.39412 -1265.4914,363.53432 C -1265.2128,357.13632 -1267.8038,349.58489 -1265.7614,342.03344 C -1264.6066,339.70831 -1263.7359,336.51916 -1262.3097,333.61519 C -1261.1282,332.75397 -1260.5627,333.61519 -1259.6751,334.17716 C -1262.854,343.76571 -1260.2406,352.78669 -1258.5148,361.78379 C -1259.0858,365.25532 -1256.765,367.29809 -1256.4921,370.49989 C -1261.1282,373.96583 -1265.7614,371.65333 -1270.7139,371.65333 C -1270.1429,371.07309 -1269.5536,371.35408 -1268.9698,371.35408 C -1274.2092,370.79212 -1278.5669,369.01912 -1283.8175,368.15789 C -1283.5011,368.15789 -1283.5011,367.86568 -1283.2113,367.86568 C -1291.9293,367.60295 -1298.3531,360.63035 -1306.7602,359.45444 L -1306.192,359.16081 C -1309.3736,358.59322 -1312.5764,357.41028 -1315.481,359.16081 C -1315.187,359.16081 -1314.6426,358.87981 -1314.6426,359.45444 C -1319.8413,360.92257 -1321.2943,368.46276 -1323.3633,372.80677 C -1329.7253,380.95529 -1321.6136,388.21871 -1321.2943,396.03428 C -1320.7288,399.82474 -1318.9791,403.60677 -1318.9791,406.76783 C -1317.8215,421.2961 -1317.5458,436.42283 -1315.481,450.64763 C -1314.3234,453.84383 -1310.8476,455.86831 -1309.9869,459.04201 C -1307.3482,459.35812 -1305.6054,461.94458 -1303.0117,461.94458 C -1303.2817,462.26069 -1303.2817,462.26069 -1303.5574,462.26069 C -1302.4026,463.13875 -1300.65,462.54167 -1299.7892,463.98171 L -1300.1057,463.98171 C -1297.4712,464.57879 -1296.3108,466.6047 -1293.6763,467.19054 L -1293.9716,467.48276 C -1291.9293,469.22767 -1290.2007,470.08186 -1288.4747,472.13023 C -1287.5872,474.44835 -1287.8643,477.07133 -1286.4085,479.09721 C -1285.5673,484.01443 -1284.9556,488.39215 -1286.1159,493.88397 C -1284.0904,495.08939 -1284.3901,491.86932 -1282.9301,491.60098 L -1283.2113,491.29611 C -1282.0425,489.83218 -1280.0269,490.71027 -1278.5669,490.71027 C -1275.959,494.20009 -1272.4637,496.5182 -1269.2807,499.70174 C -1268.3987,501.16565 -1267.2383,502.6057 -1266.3733,504.33797 C -1265.2128,504.64283 -1262.854,505.22867 -1261.9932,503.79988 C -1260.8328,502.33595 -1259.6751,500.89591 -1258.5148,499.12853 C -1253.5861,487.22185 -1246.0202,472.13023 -1254.1333,460.2362 C -1256.765,458.46741 -1257.6525,455.56484 -1259.9452,454.44091 C -1263.148,461.94458 -1266.6462,466.3237 -1269.5536,473.87514 C -1271.0304,473.87514 -1272.7563,473.55903 -1273.9337,472.98581 C -1273.0489,466.05395 -1269.5536,459.35812 -1266.6462,453.23409 C -1268.9698,453.23409 -1271.3034,453.23409 -1273.0489,452.06379 C -1273.6199,450.93985 -1274.7804,449.75692 -1275.6595,448.62174 C -1277.3952,441.62104 -1275.6595,436.12921 -1273.9337,427.98069 C -1274.4821,427.41874 -1276.2319,428.2968 -1275.959,426.82164 L -1286.4085,425.67521 C -1285.5673,425.39424 -1284.6799,425.39424 -1283.8175,425.39424 L -1290.4903,425.39424 C -1290.2007,425.39424 -1289.6352,425.39424 -1289.3131,425.67521 C -1292.5412,425.39424 -1295.4485,427.41874 -1297.7454,425.94355 C -1299.4896,414.90373 -1299.4896,403.86387 -1299.7892,393.13593 C -1293.108,390.83046 -1286.4085,395.47793 -1279.4291,396.92359 C -1279.7569,397.19895 -1280.0269,397.49117 -1280.3053,397.49117 L -1276.2319,398.66569 L -1276.8523,399.22764 C -1273.9337,399.53253 -1273.0489,401.85062 -1270.1429,402.14286 L -1271.0304,403.00969 C -1269.5536,403.30191 -1268.1174,403.30191 -1266.9457,403.86387 L -1267.8038,404.75319 C -1266.6462,405.0693 -1265.2128,405.0693 -1264.3309,405.91225 L -1264.8964,406.48685 C -1262.3097,406.48685 -1261.4221,409.10844 -1259.0858,409.10844 L -1259.6751,409.6704 L -1256.4921,411.1568 L -1257.0379,411.70754 C -1253.5861,411.1568 -1254.1333,414.62273 -1250.9488,414.31787 L -1251.5199,415.20858 C -1250.3594,415.47692 -1249.2046,415.47692 -1248.0442,416.36764 C -1248.3227,416.36764 -1248.3227,416.67111 -1248.6153,416.67111 C -1243.9778,419.00186 -1239.0478,421.02635 -1234.6649,423.93031 C -1230.0106,425.07813 -1225.0552,426.82164 -1220.1266,428.84753 C -1216.6313,429.13974 -1212.0008,430.32268 -1208.7924,428.84753 C -1207.9105,426.82164 -1205.885,425.39424 -1205.0059,423.62546 C -1198.8902,414.62273 -1198.6243,404.18 -1198.0265,394.28937 C -1197.4555,394.88084 -1196.2767,393.42394 -1195.7169,394.57596 C -1193.074,406.48685 -1196.2767,418.70824 -1196.8717,430.61492 C -1193.6956,430.88467 -1193.6956,433.79985 -1190.4662,433.79985 L -1191.0556,434.37307 C -1190.1694,434.94767 -1188.1453,434.94767 -1188.1453,436.12921 L -1184.65,437.54677 L -1184.9664,437.85023 L -1182.062,439.03319 L -1182.9297,439.91125 C -1181.7399,440.19224 -1180.2854,440.19224 -1179.1489,440.7542 C -1180.0196,441.05907 -1179.4303,441.3513 -1179.4303,441.62104 C -1178.267,441.62104 -1177.6777,442.49912 -1176.5229,442.81521 L -1177.1065,443.09621 C -1173.9038,445.73041 -1170.1173,445.73041 -1167.5208,448.30564 L -1167.7965,448.30564 C -1164.3012,449.17247 -1161.3966,451.80669 -1158.1854,453.5502 L -1158.4849,453.5502 L -1154.42,454.97899 L -1155.0093,455.56484 L -1150.9471,456.74638 L -1151.5126,457.34348 C -1150.0863,457.61322 -1148.6094,457.61322 -1147.7444,458.77227 L -1148.037,458.77227 C -1147.1733,459.6616 -1145.3968,459.6616 -1144.2687,459.92009 L -1144.5417,461.09039 C -1140.7495,459.92009 -1140.4681,463.98172 -1136.683,463.68948 C -1136.683,463.68948 -1136.97,463.98172 -1137.2978,463.98172 C -1131.4816,466.6047 -1124.4839,469.22767 -1118.9659,470.38672 L -1119.2317,470.97117 C -1111.3929,471.26481 -1102.6764,475.88838 -1095.704,478.20649 C -1089.5981,477.93816 -1086.9832,480.84072 -1081.1671,480.84072 C -1081.1671,480.84072 -1081.4343,481.11046 -1081.4343,481.41533 C -1074.7615,482.58563 -1068.6725,483.74468 -1062.2459,484.31789 C -1062.2459,484.61152 -1063.4274,484.31789 -1062.8605,484.61152 C -1059.0628,485.78182 -1054.7094,485.18473 -1050.9117,486.0628 L -1051.2338,486.3789 C -1041.0362,486.0628 -1032.608,489.56384 -1022.4287,489.56384 C -1022.7268,489.56384 -1022.7268,489.8322 -1023.0208,489.8322 L -1019.8208,490.98002 C -1018.6365,500.01784 -1018.3665,508.13124 -1017.206,516.84173 C -1016.0231,520.02668 -1015.1609,523.79607 -1014.3,526.71127 C -1011.093,529.3455 -1016.0231,529.93134 -1014.5926,532.51779 C -1016.0231,531.95584 -1016.6138,529.61525 -1017.7743,528.73716 C -1019.8208,524.67415 -1020.6761,521.75895 -1023.0208,518.31689 C -1025.0604,512.79136 -1027.0872,507.25317 -1027.9719,501.73886 C -1028.2476,497.67726 -1034.6475,500.01784 -1037.8475,498.8363 C -1037.2609,498.53144 -1036.3706,498.53144 -1035.808,498.53144 L -1052.9569,497.40751 C -1052.9569,497.19678 -1052.7333,497.12653 -1052.4997,497.09139 C -1056.8362,495.9211 -1062.0209,496.21333 -1066.038,495.35913 C -1065.7651,495.08939 -1065.4487,495.35913 -1065.1589,495.35913 C -1066.9016,494.4923 -1068.6725,494.20009 -1070.6938,494.4923 C -1066.9016,505.50967 -1062.5441,517.43883 -1055.5703,527.02738 C -1050.9117,531.37139 -1046.8495,536.59205 -1043.0701,540.95996 C -1040.4736,540.66633 -1041.6213,543.57029 -1039.2836,543.25418 C -1036.9683,548.49873 -1030.5629,551.4027 -1028.5416,557.198 C -1028.2476,570.00663 -1026.495,580.15716 -1030.2646,592.9419 C -1039.8757,604.54371 -1047.1435,619.07337 -1057.3173,628.67317 C -1061.0911,632.40745 -1065.7651,634.4797 -1069.8118,638.21537 C -1076.2384,642.30087 -1079.6902,650.42551 -1085.2405,655.35395 C -1090.1635,657.39109 -1096.593,660.02531 -1102.0814,660.02531 C -1102.4092,661.45412 -1100.3373,661.75898 -1100.3373,662.92928 C -1100.0447,671.90952 -1107.9032,679.74192 -1108.7682,688.76853 C -1106.4643,689.06074 -1104.4276,691.35498 -1101.5216,690.48954 C -1095.704,692.83015 -1087.8652,691.67108 -1081.1671,691.35498 C -1077.9644,689.33049 -1074.1722,691.67108 -1071.5813,689.06074 C -1065.1589,686.15678 -1061.0911,679.74192 -1059.0628,673.06856 C -1059.6381,672.76371 -1060.8098,672.49396 -1060.2233,672.22561 C -1065.7651,672.22561 -1071.5813,670.16459 -1076.5043,669.85973 C -1077.0768,668.43234 -1076.5043,666.10158 -1075.922,664.35807 C -1069.8118,662.92928 -1061.3836,666.43034 -1056.7307,662.3083 L -1057.0472,662.03996 C -1054.4099,660.02531 -1052.9569,656.82912 -1049.4812,656.23203 L -1049.7569,655.93982 C -1044.2361,654.47589 -1038.1231,651.90067 -1032.902,651.90067 L -1032.902,651.58457 L -1028.5416,651.01136 C -1027.9719,646.92446 -1027.9719,640.83694 -1030.8793,637.93439 C -1031.4476,636.17823 -1033.7811,635.31141 -1033.1763,633.28551 C -1025.6342,623.7096 -1018.6365,612.0839 -1009.0606,604.84859 C -1005.5793,602.54171 -1001.4876,601.63974 -998.58157,599.90749 C -993.64595,596.72253 -988.43037,594.08831 -984.93788,590.5999 C -984.36261,588.855 -980.83494,585.39048 -982.61695,582.48651 C -983.75357,575.19217 -985.21914,567.67587 -986.08559,560.10196 C -984.93788,559.80833 -983.75357,560.10196 -983.17959,560.99127 C -983.48353,561.29613 -983.48353,561.29613 -983.75357,561.29613 C -979.69832,562.42006 -976.79658,566.48168 -972.73024,567.95684 C -973.00454,567.95684 -973.00454,568.22658 -973.29843,568.22658 C -970.09854,568.82368 -968.64419,572.01987 -965.44482,572.89794 L -966.30573,573.76477 C -964.87097,574.04576 -963.69233,574.04576 -962.26878,574.63021 C -962.53328,574.93507 -962.83142,574.93507 -963.12402,574.93507 C -957.57936,576.94831 -952.65637,580.43813 -946.57433,581.61967 C -946.83599,581.61967 -946.83599,581.88941 -947.1313,581.61967 C -945.95266,583.3407 -942.18305,581.88941 -941.61474,583.90267 C -934.93345,591.4541 -927.08204,599.62649 -920.97474,607.75114 C -918.92385,610.93609 -921.26167,613.26544 -922.12244,616.15817 C -925.89773,629.50488 -932.89404,640.83694 -939.86779,652.17041 C -947.42957,660.02531 -952.94884,665.83324 -958.76367,674.81206 C -960.21802,676.26476 -961.96226,678.30187 -964.28307,679.47218 L -964.01586,679.74192 C -970.09854,682.94934 -976.50411,685.85332 -982.88571,687.3046 C -981.45662,688.45242 -980.2723,690.78177 -980.56477,692.5618 C -982.61695,699.79712 -985.51741,706.1895 -989.86087,711.39893 C -991.33778,712.88534 -991.0381,714.02192 -989.56132,714.89999 C -986.39082,715.7893 -983.75357,716.62102 -980.2723,717.21812 L -980.56477,717.48644 C -972.12533,718.70451 -961.09581,718.70451 -952.65637,717.48644 C -944.22814,714.89999 -939.00134,708.214 -936.66365,699.5035 C -937.52443,699.20003 -938.70874,699.20003 -938.70874,698.62543 L -948.85853,697.47901 L -948.58849,697.16292 C -951.20189,696.29608 -954.9715,697.16292 -957.57936,696.00384 C -956.44841,693.97796 -955.85767,691.67108 -954.11072,690.48954 C -948.29035,690.48954 -941.61474,690.20856 -936.95612,690.78177 C -933.76319,686.75386 -931.41713,682.94934 -927.37464,679.47218 C -924.16766,677.15407 -920.0829,675.39793 -916.60872,675.14083 L -916.87025,674.81206 L -905.86523,673.65301 C -904.10706,669.00554 -905.2549,664.06446 -908.4562,661.16189 C -909.04126,659.72184 -910.79956,657.7072 -911.94726,657.39109 C -913.10915,655.93982 -913.96438,654.21879 -913.69988,652.43875 C -910.49575,643.74092 -906.73181,635.90849 -902.63015,626.89314 C -896.53407,614.14351 -883.75961,606.5696 -881.41908,592.05119 C -881.72008,588.02468 -879.37954,582.7436 -884.03529,580.73036 C -885.50932,578.7171 -886.94124,577.53417 -887.80769,576.399 C -890.71369,576.399 -889.5772,573.76477 -892.1906,573.76477 C -895.09376,570.59107 -898.01098,566.21334 -900.61316,563.30938 C -904.68091,556.3438 -909.33386,551.4027 -912.83911,544.99908 C -914.58606,543.86251 -916.60872,542.38734 -917.1769,541.22828 L -917.49205,539.2038 C -910.79956,525.83321 -901.48245,513.35331 -895.39758,500.57981 C -889.27893,486.92964 -880.26569,467.48276 -888.41815,450.93985 C -887.23951,450.31888 -886.08047,450.31888 -885.78503,449.17247 L -881.13212,449.17247 C -879.08135,452.66087 -877.65226,454.44091 -875.9053,457.61322 C -872.69832,457.88296 -874.15273,459.92009 -871.24674,460.2362 L -872.13007,460.78551 L -868.34357,461.3826 C -867.74718,462.26069 -869.22408,461.94458 -868.34357,462.54167 C -866.89199,462.82264 -865.4376,462.82264 -863.97757,463.68948 C -864.26451,463.68948 -864.26451,463.98171 -864.54582,463.98171 L -860.2164,465.45687 C -860.50333,465.45687 -860.50333,465.73786 -860.77339,465.73786 L -857.59737,467.19054 C -857.8646,467.48276 -857.8646,467.48276 -858.17123,467.48276 C -857.59737,468.0686 -855.26245,468.64182 -856.43554,469.496 C -852.35085,474.16735 -856.43554,481.70754 -858.45819,487.22185 C -854.68857,482.89049 -852.91911,476.463 -849.14387,472.6922 C -848.28304,469.22767 -847.98485,466.05395 -847.98485,462.54167 C -847.12402,462.26069 -846.53045,462.82264 -845.96782,463.68948 C -845.38269,466.6047 -842.76927,467.19054 -841.90002,469.22767 C -837.80971,470.38672 -833.44933,469.496 -829.08896,470.08186 C -829.08896,471.86189 -825.61473,471.2648 -826.18297,472.98581 L -824.13783,472.98581 C -823.56957,469.80088 -824.46134,466.6047 -825.02396,463.68948 C -827.92994,459.35812 -833.17927,456.45416 -834.04854,450.93985 C -836.08805,449.17247 -837.80971,447.74368 -839.2641,445.73041 C -838.11071,444.83971 -836.08805,445.40167 -834.61115,446.2685 L -835.19628,446.85435 C -834.04854,447.14659 -832.566,447.14659 -831.43511,448.03589 L -831.99775,448.30564 C -829.38152,449.75692 -825.61473,449.47594 -822.70874,448.62174 C -818.91662,448.30564 -818.32867,451.52571 -814.55625,450.93985 C -813.39442,450.31888 -811.07358,450.64763 -811.34926,449.17247 L -801.76771,448.30564 C -800.87593,445.99875 -803.21364,444.51236 -803.78472,442.81521 L -803.51466,442.81521 C -806.39813,441.62104 -809.30411,440.19224 -811.64745,439.59514 C -813.10186,438.14386 -814.55625,437.01992 -815.74059,435.2399 C -816.89961,435.2399 -818.32867,434.94767 -819.50177,434.64282 C -819.80557,433.79985 -820.36821,432.62957 -819.20918,431.48174 C -815.74059,430.61491 -811.64745,430.88465 -808.44328,432.03249 C -808.44328,433.22665 -805.82988,432.8979 -804.96624,434.64282 C -799.44685,436.42283 -796.81374,431.20076 -793.34515,430.61491 C -793.63208,430.61491 -793.90214,430.61491 -794.20596,430.32268 C -793.04132,429.13974 -790.99617,429.99535 -789.5699,429.13974 C -790.7261,427.98069 -790.42791,425.39424 -792.75437,425.67521 C -793.63208,423.93031 -796.81374,424.79715 -798.56071,423.93031 L -797.96995,423.33322 L -801.76771,422.17417 C -802.35284,420.42926 -804.6793,419.00186 -804.96624,418.11115 C -807.01983,417.22182 -807.58247,415.47692 -809.92019,415.20858 C -809.92019,414.62273 -809.6023,414.62273 -810.18463,414.04953 C -807.87503,412.9017 -804.96624,413.79103 -802.63414,413.46368 C -802.06026,411.4153 -799.15428,412.30463 -799.15428,411.1568 C -795.65473,409.40206 -792.16081,408.25424 -788.95664,409.10844 C -788.08737,410.55972 -784.61877,409.98651 -782.56799,409.40206 L -782.86618,409.10844 L -779.96583,408.25424 C -780.53408,406.48685 -778.51142,406.76783 -779.09939,405.33904 C -779.662,405.33904 -780.84352,405.33904 -781.11358,404.17998 L -780.84352,403.86387 C -784.91133,401.85062 -788.68658,400.10572 -791.59255,396.92359 C -798.28502,395.15058 -805.26162,398.05736 -811.34926,396.32649 C -812.51673,394.57596 -816.00784,394.88084 -818.32867,394.28936 C -818.32867,393.99714 -818.02486,393.99714 -817.75481,393.99714 C -821.54691,393.42394 -825.32215,394.88084 -828.22813,396.03428 L -827.92994,396.03428 C -829.95822,396.03428 -831.70237,397.78761 -833.44933,396.63135 C -831.43511,393.99714 -829.68815,391.67902 -826.75686,390.83046 C -825.02396,389.07993 -821.54691,387.3294 -818.64657,386.76181 L -818.91662,386.44571 C -812.51673,384.71906 -804.38111,386.76181 -797.67738,385.01129 L -797.96995,384.71906 L -793.90214,383.54174 L -794.20596,383.26076 C -791.59255,382.40094 -790.7261,380.95529 -788.95664,379.49698 C -784.91133,379.21038 -781.42022,380.62654 -777.62248,380.36382 C -775.30164,378.6133 -771.80771,378.34355 -770.64588,375.70934 C -768.63167,374.82564 -765.98731,375.14174 -763.97309,375.4466 C -760.76612,376.30643 -760.76612,373.09899 -757.86013,373.09899 C -757.86013,371.92307 -756.40574,371.65333 -755.8431,370.49989 C -759.91092,368.75499 -763.67209,365.54756 -768.03247,363.21821 C -770.07762,360.92257 -774.42111,362.64359 -777.93756,361.78379 C -777.93756,359.45444 -780.23026,361.49155 -780.84352,359.74665 C -777.35243,360.31424 -774.42111,357.72639 -771.23944,357.72639 C -771.23944,357.41028 -770.94125,357.13632 -771.23944,356.84269 C -768.03247,354.82944 -764.83956,353.07892 -761.64382,353.37114 C -759.31171,353.63526 -754.36621,357.41028 -750.59098,355.98288 C -750.88353,354.23236 -748.55144,355.11604 -747.68499,354.23236 C -748.25325,353.37114 -746.52316,352.48182 -746.82979,351.60937 C -748.25325,351.32838 -750.02834,351.32838 -751.46022,350.73692 C -752.05099,350.17494 -754.36621,348.4188 -755.53928,347.56461 C -755.53928,347.25975 -755.8431,346.68091 -755.53928,346.41117 C -759.01916,346.97315 -758.15271,343.76571 -761.36249,343.76571 C -761.36249,343.76571 -761.29218,343.70672 -761.15152,343.65473 C -764.51042,342.63617 -767.60487,342.61228 -771.23945,342.61228 C -774.71368,339.70831 -779.09939,336.51916 -783.75232,335.36572 C -782.86618,332.15688 -779.09939,334.48765 -776.46066,334.17716 C -776.75885,334.48765 -776.75885,334.48765 -777.05984,334.48765 C -774.71368,335.94454 -771.23945,335.36572 -768.63167,335.06084 C -764.27128,333.31032 -761.05869,330.14363 -756.40574,330.71123 C -755.24391,333.02372 -751.18455,331.00486 -750.2984,333.31032 C -745.95491,334.17716 -741.30759,333.31032 -738.39599,331.27318 C -738.0978,330.14363 -736.05825,328.97896 -736.35084,327.80165 C -740.41301,327.50942 -743.32463,326.075 -746.52316,324.60685 C -748.25325,322.28873 -751.18455,321.42753 -752.6305,318.79331 C -753.79232,317.93912 -756.11317,319.09255 -756.40574,317.06666 L -773.84723,316.48643 C -777.05984,314.73731 -779.36662,312.71986 -782.86618,312.71986 C -782.86618,312.41498 -782.27541,312.41498 -782.01098,312.41498 C -783.43444,311.26294 -786.34322,311.83335 -788.08737,310.94683 L -787.22093,310.37503 C -790.14097,309.51523 -793.63208,310.08563 -796.54087,309.22301 C -795.06397,306.32186 -790.7261,306.32186 -788.68658,304.57415 C -784.61877,304.28191 -780.23026,304.28191 -776.46063,304.57415 C -773.84723,307.18588 -768.63167,305.14453 -765.98731,307.18588 C -759.31171,308.04568 -753.50538,307.76751 -746.52316,307.4753 C -745.07159,306.32186 -742.45816,305.45784 -740.71683,304.28191 C -739.81944,302.85031 -739.52688,301.36672 -737.80241,300.50549 C -736.05825,296.74172 -737.50985,290.34373 -740.14858,287.15035 C -740.71683,283.94574 -745.34164,282.23314 -744.47802,278.43143 C -739.25681,277.57021 -734.89644,282.23314 -729.95093,279.88833 C -729.95093,279.61155 -730.53606,279.61155 -730.53606,279.31792 L -727.63009,278.43143 C -728.7891,277.27799 -727.03089,276.98858 -726.76083,276.41819 z "
       style="fill:#000000;fill-opacity:1" />
  </g>
</svg>
