<?xml version="1.0" encoding="UTF-8" standalone="no"?>
<!-- Created with Inkscape (http://www.inkscape.org/) -->

<svg
   xmlns:dc="http://purl.org/dc/elements/1.1/"
   xmlns:cc="http://creativecommons.org/ns#"
   xmlns:rdf="http://www.w3.org/1999/02/22-rdf-syntax-ns#"
   xmlns:svg="http://www.w3.org/2000/svg"
   xmlns="http://www.w3.org/2000/svg"
   xmlns:sodipodi="http://sodipodi.sourceforge.net/DTD/sodipodi-0.dtd"
   xmlns:inkscape="http://www.inkscape.org/namespaces/inkscape"
   id="svg2858"
   sodipodi:version="0.32"
   inkscape:version="0.48.1 "
   width="351"
   height="400"
   version="1.0"
   sodipodi:docname="lion_mycarlion.svg"
   inkscape:output_extension="org.inkscape.output.svg.inkscape">
  <metadata
     id="metadata2863">
    <rdf:RDF>
      <cc:Work
         rdf:about="">
        <dc:format>image/svg+xml</dc:format>
        <dc:type
           rdf:resource="http://purl.org/dc/dcmitype/StillImage" />
      </cc:Work>
    </rdf:RDF>
  </metadata>
  <defs
     id="defs2861">
    <inkscape:perspective
       sodipodi:type="inkscape:persp3d"
       inkscape:vp_x="0 : 526.18109 : 1"
       inkscape:vp_y="0 : 1000 : 0"
       inkscape:vp_z="744.09448 : 526.18109 : 1"
       inkscape:persp3d-origin="372.04724 : 350.78739 : 1"
       id="perspective2865" />
  </defs>
  <sodipodi:namedview
     inkscape:window-height="669"
     inkscape:window-width="640"
     inkscape:pageshadow="2"
     inkscape:pageopacity="0.0"
     guidetolerance="10.0"
     gridtolerance="10.0"
     objecttolerance="10.0"
     borderopacity="1.0"
     bordercolor="#666666"
     pagecolor="#ffffff"
     id="base"
     showgrid="false"
     inkscape:zoom="1.155"
     inkscape:cx="175.5"
     inkscape:cy="200"
     inkscape:window-x="184"
     inkscape:window-y="95"
     inkscape:current-layer="svg2858"
     inkscape:window-maximized="0" />
  <path
     style="fill:#000000"
     d="M 134.69597,375.30864 C 124.56668,358.59384 122.92252,338.45095 130.05372,318.4356 C 133.64988,308.34214 134.33902,299.49638 132.12732,291.81922 C 130.87553,287.47405 130.49747,287.09089 126.85471,286.47545 C 119.41728,285.21891 114,278.19043 114,269.79751 C 114,267.37739 115.12029,261.59539 116.48954,256.94864 C 120.11537,244.64381 120.55026,239.40464 118.52428,232.43554 C 116.63991,225.95353 114.10639,221.68113 110.11524,218.25497 C 108.67686,217.0202 107.99914,216.0077 108.60921,216.00497 C 110.424,215.99684 118.94091,223.98506 120.65828,227.30608 C 123.64792,233.08741 124.19933,236.51184 124.91965,253.77075 C 125.55024,268.8793 125.89451,271.38318 127.66958,273.77075 C 130.72482,277.88021 135.94874,278.03807 139.24513,274.12053 L 141.75629,271.13618 L 144.3251,273.81809 C 147.71511,277.35736 150,283.00946 150,287.85601 C 150,293.42844 145.82963,307.09814 140.449,319.16248 C 134.65409,332.15568 131.99511,342.32516 132.01736,351.40996 C 132.03817,359.9066 134.08467,370.2021 136.91881,376.06809 C 139.97256,382.38862 138.72902,381.96376 134.69597,375.30864 z M 108.54638,335.25 C 112.5361,326.06741 113.20699,322.32129 112.79974,311.5 C 112.4172,301.33521 112.11042,299.92797 108.75933,292.96627 C 104.29264,283.68698 99.552842,278.21293 88.025037,269.01997 C 70.488822,255.03554 64.225181,241.52692 65.192475,219.77763 L 65.656412,209.34615 L 60.60141,216.92308 C 57.82116,221.09038 52.011634,228.1 47.691354,232.5 L 39.836299,240.5 L 44.964364,233.62993 C 51.757779,224.5288 55.291504,217.31932 60.674377,201.5785 C 67.712047,180.99866 74.428337,169.16812 83.994973,160.5 C 87.174195,157.61938 87.147148,157.70431 83.315283,162.63446 C 78.510809,168.81598 76.24396,175.71881 77.963394,178.9316 C 80.883448,184.38777 87.769837,183.23218 95.656442,175.96256 C 99.66749,172.26531 108.64735,166.00309 109.94578,165.9977 C 110.2506,165.99644 107.35,169.30532 103.5,173.35076 C 95.341907,181.92301 88.991184,192.51861 84.663542,204.77769 C 82.106282,212.02173 81.582204,215.02533 81.571292,222.5 C 81.551115,236.32206 85.490681,245.2083 98.368628,260.38872 C 109.757,273.81323 115.82838,288.74383 116.72789,305.5374 C 117.31625,316.52177 115.99492,323.1297 111.39496,332.20729 C 109.12025,336.69621 106.87687,339.09248 108.54638,335.25 z M 164.28143,277.03037 C 162.51122,276.60966 158.67253,275.09597 155.75101,273.66661 C 136.57954,264.28689 128.18864,244.22221 133.97544,221.59601 C 136.43568,211.97658 140.57679,204.11456 147.7886,195.37135 C 163.96954,175.75444 172,161.32521 172,151.868 C 172,148.71221 171.57008,144.99943 171.04463,143.61738 C 169.47091,139.4782 163.11795,133.19403 159.19996,131.90098 C 156.02022,130.85157 155.79601,130.58722 157.51592,129.91548 C 160.68322,128.67845 166.79247,128.88604 170.28212,130.34929 C 172.05195,131.09139 175.975,133.82968 179,136.43436 C 186.70155,143.0658 193.21314,146.16714 200.69617,146.76781 C 206.04782,147.19739 207.71186,146.88642 212.4399,144.5732 C 223.11189,139.35189 228.89053,128.79423 227.63759,116.80679 C 226.49391,105.86466 220.9914,99.109077 211.44003,96.920629 C 207.07881,95.921368 205.797,96.050266 200.5,98.020754 C 184.72155,103.89035 183.52514,104.20172 179.08097,103.5951 C 172.97745,102.762 166.46823,98.68824 163.26178,93.694763 C 161.05012,90.250492 160.56211,88.323757 160.5341,82.925564 C 160.50457,77.23307 160.87668,75.856822 163.30793,72.666333 C 164.85229,70.639696 168.00229,67.973192 170.30793,66.740769 C 174.28935,64.612596 175.65573,64.496752 197.5,64.435352 C 210.15,64.399796 222.075,64.009729 224,63.568536 C 225.925,63.127344 227.22843,63.053002 226.89652,63.403333 C 225.52988,64.845792 209.65461,67.109612 197.5,67.595288 C 181.62503,68.229622 176.81436,69.366266 172.40529,73.524557 C 169.57395,76.194852 169,77.449428 169,80.968077 C 169,84.42235 169.60638,85.806385 172.29991,88.49991 C 176.17607,92.37607 182.42112,94.518781 187.21893,93.618706 C 189.09545,93.266669 194.35673,90.513147 198.91066,87.499767 C 208.26569,81.309461 214.33658,79.136133 224.58536,78.308441 C 240.27403,77.041423 248.94704,84.177417 250.93203,99.985997 C 253.77748,122.64723 243.31428,138.64106 212,159.49673 C 203.475,165.17447 193.9125,172.14642 190.75,174.98994 C 185.38405,179.81466 185,180.45754 185,184.61517 C 185,190.15636 187.1504,193.5645 191.56621,195.02185 C 195.73026,196.39611 198.30455,195.66273 201.5312,192.18293 C 204.53793,188.9403 204.77353,190.10494 201.92116,194.11072 C 196.03605,202.37559 184.69482,201.75794 177.86679,192.8007 L 176.23358,190.6582 L 171.36679,194.26069 C 159.22765,203.24632 144.205,222.04712 141.3689,231.80297 C 138.35488,242.17085 141.42437,255.62562 148.86222,264.64902 C 152.58459,269.1649 160.32523,274.69288 164.08153,275.51791 C 165.67407,275.86769 167.23378,276.56925 167.54755,277.07694 C 167.86132,277.58462 167.97898,277.95394 167.80902,277.89764 C 167.63906,277.84134 166.05164,277.45107 164.28143,277.03037 z M 167.45042,271.5934 C 157.74434,267.3657 155.34651,253.24428 162.00069,239.49857 C 165.36905,232.54048 174.9649,222.43625 187.02465,213.14886 C 205.78014,198.70498 211.76985,190.58248 212.10709,179.13517 L 212.21418,175.5 L 213.20166,179.93062 C 214.52699,185.87712 212.7346,194.78267 208.67143,202.43926 C 205.50391,208.40809 199.11737,215.23752 177.66257,235.59851 C 165.31581,247.31581 162.47406,252.17461 163.24926,260.24229 C 163.80997,266.07775 167.70737,270.71968 173.11867,271.99708 L 176.5,272.79528 L 173.5,272.8585 C 171.85,272.89327 169.12769,272.32398 167.45042,271.5934 z M 98.775577,241.25 C 94.211991,236.04518 93.5,232.97484 93.5,218.5 C 93.5,205.03155 93.622885,204.19626 96.736568,196.5 C 102.78984,181.53781 116.60553,166.48926 124.56333,166.1901 C 135.36871,165.78388 141.37729,152.42771 134.69561,143.66757 C 133.15024,141.64148 130.24445,139.50849 127.76699,138.58161 L 123.5,136.98522 L 129.13748,137.40875 C 146.52735,138.71518 155.60451,155.07001 147.78804,171.01249 C 145.16053,176.37155 136.78909,185.81113 138.48724,181.5 C 140.20993,177.12659 141.36265,172.02931 140.7643,171.43096 C 140.41666,171.08333 139.10762,171.75347 137.85532,172.92017 C 136.60301,174.08686 131.28934,177.16961 126.04716,179.77072 C 110.14289,187.66222 101.44585,198.05184 97.40795,213.98356 C 95.362572,222.05369 95.916542,231.76224 98.793515,238.26611 C 101.08367,243.44339 101.08105,243.87942 98.775577,241.25 z M 223.12276,234.52141 C 217.12874,226.17488 215.56216,221.42198 215.53479,211.5 C 215.51263,203.46657 215.84341,201.80192 218.6148,196 C 223.38222,186.01939 230.07398,177.72353 245.06871,163.20476 C 259.4396,149.29004 264.24127,142.44503 267.48257,131.25275 C 271.21708,118.35739 269.78539,103.99361 263.60555,92.355533 C 261.64181,88.657348 260.21554,85.451126 260.43607,85.230595 C 261.19452,84.472143 269.79677,96.247724 272.46498,101.69692 C 275.41156,107.71462 277.96527,118.30179 277.96527,124.5 C 277.96527,130.55601 275.28804,141.94888 272.67795,147 C 271.39903,149.475 268.1733,155.50929 265.50965,160.40954 C 261.33302,168.0932 260.66667,170.10066 260.66667,174.99953 C 260.66667,178.85137 261.39305,182.18048 262.92313,185.3412 C 265.16006,189.9621 271.28063,196 273.72784,196 C 274.42753,196 275,196.45 275,197 C 275,198.43668 271.147,198.23282 265.26041,196.48469 C 258.70025,194.53653 251.51209,186.99054 250.49784,180.98721 C 250.12734,178.79424 249.6238,177 249.37886,177 C 247.09618,177 237.54714,183.31066 233.39586,187.56266 C 221.26273,199.99017 217.92835,219.26685 225.32617,234.21512 C 228.30061,240.22536 227.3172,240.36207 223.12276,234.52141 z M 64.976005,170.94615 C 64.258631,169.60077 60.995893,165.71006 57.725477,162.30013 L 51.779267,156.10027 L 55.582928,157.15051 C 62.801109,159.14354 71.721074,154.40521 74.053119,147.33905 C 78.128429,134.99074 59.684552,117.1601 47.889811,122.04564 C 41.627691,124.6395 39.113831,136.24791 42.97307,144.75 C 44.0341,147.0875 44.665515,149 44.376214,149 C 42.512918,149 28.964586,138.99986 23.746729,133.7732 C 17.589493,127.60558 8.9948488,115.86504 9.0053544,113.63605 C 9.0150342,111.58227 19.836188,104.57728 29.54114,100.34238 C 41.169779,95.268047 44.451335,92.834201 51.390443,84.13731 C 58.511952,75.211812 68.256437,66.385342 76.108437,61.747964 C 83.374001,57.456935 83.338694,57.456256 99.420486,62.196167 L 109.34097,65.120108 L 115.0892,62.540456 C 118.25073,61.121648 123.86732,59.213105 127.57052,58.299249 C 133.99794,56.713123 134.44425,56.721983 137.4018,58.494408 C 144.1095,62.514253 147.97091,64.123016 154.1066,65.454055 C 157.62297,66.216875 159.8123,66.876775 158.97179,66.9205 C 155.32367,67.110281 142.49648,74.362979 137.57218,79.020182 L 132.21964,84.082384 L 128.04991,81.908997 C 124.75484,80.191512 122.84976,79.857647 118.96795,80.31739 C 116.25631,80.638544 113.79281,80.473774 113.46884,79.949586 C 113.14606,79.427314 113.94517,79 115.24464,79 C 116.54411,79 119.97887,77.818203 122.87744,76.373784 C 126.78461,74.426759 128.43883,74.03883 129.27378,74.873784 C 131.1759,76.775897 133.10387,76.163088 138.6296,71.900011 L 143.94395,67.800023 L 139.27996,65.438808 C 135.22357,63.385204 134.04143,63.206348 130.20588,64.065913 C 124.28623,65.392535 120.2035,67.547952 116,71.565707 L 112.5,74.911044 L 106.03689,71.705522 C 100.26796,68.844291 98.656878,68.502325 91.036894,68.521651 C 83.989924,68.539523 81.532134,68.993489 76.954369,71.122764 C 67.07918,75.716051 59.22483,84.391794 56.827759,93.354177 C 55.670446,97.68124 55.370217,97.969599 51.053486,98.900169 C 43.626464,100.50123 39.089241,102.83638 33.809322,107.77513 C 26.218881,114.87509 24.464491,119.79009 27.059538,126.6849 C 28.085763,129.41149 34.718695,137 36.075719,137 C 36.444121,137 36.959915,134.76897 37.221927,132.04216 C 38.329885,120.51142 50.802917,112.96603 61.421682,117.40283 C 72.372657,121.97844 80.746069,136.80188 78.045332,146.83165 C 76.565491,152.32736 70.867121,157.83771 65.83093,158.64303 C 63.723918,158.97995 62,159.79466 62,160.45349 C 62,162.0475 66.596151,166.31049 67.825978,165.85716 C 68.358896,165.66072 75.976539,158.02981 84.754074,148.89958 C 105.09045,127.74606 106.5,125.19222 106.5,109.5 C 106.5,100.45212 106.12942,97.699407 104.41184,93.988739 L 102.32367,89.477479 L 109.91184,89.847778 C 114.08533,90.051443 117.64568,90.352191 117.82374,90.516108 C 118.00179,90.680025 117.38986,92.279194 116.4639,94.069817 C 111.83363,103.02376 119.31002,114.01759 130,113.9743 C 141.27676,113.92863 151.38194,104.96418 154.03078,92.656254 C 154.77618,89.192733 154.87577,89.83338 154.6283,96.5 C 154.41306,102.29858 153.7354,105.65854 152.16567,108.71016 C 150.97455,111.02575 150,113.3297 150,113.83006 C 150,115.02302 159.6592,116.89006 169.59099,117.61682 C 181.43641,118.48362 194.40963,115.26986 203,109.34068 C 204.90111,108.02851 204.69115,108.48246 202.12355,111.23564 C 197.93079,115.73145 188.88116,120.64093 182.40096,121.93527 C 179.70543,122.47366 170.37379,123.40025 161.66398,123.99436 C 136.88672,125.68444 125.21097,128.40864 110,136.04869 C 95.821404,143.17021 81.229783,155.08348 70.318939,168.44615 L 66.280323,173.39231 L 64.976005,170.94615 z M 316.14677,130.92496 C 313.75249,130.4542 309.70249,128.84544 307.14677,127.34991 C 300.89236,123.69004 287.41566,110.00623 282.18055,102 C 278.23544,95.966603 276.60408,92.824816 268.89202,76.407957 C 261.311,60.270041 243.42407,51.073457 225.1363,53.910902 C 216.20172,55.297149 197.57432,55.316519 191.18478,53.946207 C 185.68999,52.767786 181.37632,49.04259 180.12555,44.395678 C 179.38512,41.644826 179.10768,41.517409 174.57829,41.848089 C 171.95597,42.039537 165.24059,43.748178 159.65522,45.645069 C 142.18184,51.579336 132.60877,53.194034 111.61482,53.748081 C 97.787353,54.112999 92.915552,53.945657 93.423835,53.123238 C 93.805644,52.505457 95.553976,51.990261 97.309017,51.978358 C 106.94185,51.913026 131.73711,44.302573 150.81423,35.555913 C 169.13085,27.157933 193.42786,21 208.24667,21 L 213.34863,21 L 211.05201,23.444637 C 209.33553,25.271744 208.92158,26.55142 209.41329,28.510535 C 210.72622,33.741671 218.74255,35.080783 239.5148,33.538929 C 253.7622,32.481392 259.52443,33.968729 266.91177,40.610585 C 273.82157,46.823085 276.32993,51.459638 279.90318,64.624373 C 284.94518,83.200404 289.81155,94.543144 298.7271,108.5 C 307.90342,122.86509 315.37971,128.00734 327,127.94634 C 330.575,127.92757 335.1875,127.30999 337.25,126.57395 C 339.3125,125.8379 341,125.39609 341,125.59216 C 341,126.39847 334.16588,129.40058 329.5,130.64391 C 323.92921,132.12836 322.42807,132.15996 316.14677,130.92496 z M 67.165689,93.25 C 68.562618,91.7375 71.143427,88.3625 72.900821,85.75 C 75.97443,81.180844 76.279827,81 80.922314,81 C 83.576742,81 87.717624,80.329488 90.124273,79.509974 L 94.5,78.019949 L 90.806936,81.061293 C 88.775751,82.734033 85.561021,86.264094 83.663091,88.905874 C 80.855001,92.81453 79.365085,93.922443 75.663335,94.854555 C 73.161399,95.48455 69.654438,96 67.870089,96 L 64.625818,96 L 67.165689,93.25 z"
     id="path2869" />
</svg>
