<?xml version="1.0" encoding="UTF-8" standalone="no"?>
<svg xmlns:rdf="http://www.w3.org/1999/02/22-rdf-syntax-ns#" xmlns="http://www.w3.org/2000/svg" height="108.406" width="227.719" version="1.1" xmlns:cc="http://creativecommons.org/ns#" xmlns:dc="http://purl.org/dc/elements/1.1/">
 <defs>
  <style type="text/css">.fil0 {fill:black}
    .fil26 {fill:white;fill-rule:nonzero}
    .fil25 {fill:url(#id0)}
    .fil21 {fill:url(#id1)}
    .fil11 {fill:url(#id2)}
    .fil20 {fill:url(#id3)}
    .fil8 {fill:url(#id4)}
    .fil22 {fill:url(#id5)}
    .fil23 {fill:url(#id6)}
    .fil9 {fill:url(#id7)}
    .fil7 {fill:url(#id8)}
    .fil6 {fill:url(#id9)}
    .fil16 {fill:url(#id10)}
    .fil10 {fill:url(#id11)}
    .fil5 {fill:url(#id12)}
    .fil12 {fill:url(#id13)}
    .fil14 {fill:url(#id14)}
    .fil13 {fill:url(#id15)}
    .fil4 {fill:url(#id16)}
    .fil24 {fill:url(#id17)}
    .fil19 {fill:url(#id18)}
    .fil18 {fill:url(#id19)}
    .fil17 {fill:url(#id20)}
    .fil15 {fill:url(#id21)}
    .fil1 {fill:url(#id22)}
    .fil3 {fill:url(#id23)}
    .fil2 {fill:url(#id24)}</style>
  <style type="text/css">.fil4 {fill:white}
    .fil0 {fill:#010101}
    .fil1 {fill:#0A2512}
    .fil2 {fill:#2B7839}
    .fil3 {fill:#49C447;fill-rule:nonzero}</style>
 </defs>
 <g transform="translate(-237.562 -492.438)">
  <path fill-rule="evenodd" fill="#231f20" d="m431.531 496.438 1 16.2188l8.469-14.188-9.469-2.031zm-12.531 1.718l-7.09375 52.375h18.5938l3.71875-10.125-16.5625 5.40625 9.46875-35.8438-8.125-11.8125zm-173.375 0.65625-4.0625 92.625 11.5-45.9688 5.40625 13.5 7.4375-18.2188 20.625 42.5625-16.5625-67.5938-10.1562 17.2188-14.1875-34.125zm125.656 3.96875-2.625 63.2812l6.094-30.062c12.2536-1.26752 25.0904-26.5427-3.46875-33.2188zm-98.625 0.0937 5.0625 9.46875 15.2188-1.6875 14.5312 76.0312-5.40625-76.7188 37.1875-4.375-66.5938-2.71875zm184.906 2.03125-17.25 9.8125-6.75 21.625l15.532-1.343-37.844 61.844 50.0312-63.875-19.9375-6.4375 7.78125-10.125 3.03125 7.09375 5.40625-18.5938zm-109.812 3.375c-10.9424 0-19.8125 8.86651-19.8125 19.8125 0 10.9424 8.87005 19.8125 19.8125 19.8125s19.8125-8.87005 19.8125-19.8125c0-10.946-8.87005-19.8125-19.8125-19.8125zm-37.625 4.59375c-1.3428 0.0424-2.78703 0.20141-4.34375 0.46875l5.0625 69.625 3.0625-41.2188 17.9062 20.5938-10.125-26.0312c5.43679-5.51386 6.1416-23.0312-10.25-23.4375-0.42392-0.0105-0.8649-0.0141-1.3125 0zm69.0938 0.0625c2.7877 2.11124 4.56056 13.2567-3.46875 16.7188l3.46875-16.7188zm-32.9062 0.9375c7.3493 0 13.3125 5.92841 13.3125 13.2812 0 7.3493-5.9632 13.3125-13.3125 13.3125s-13.3125-5.9632-13.3125-13.3125 5.9632-13.2812 13.3125-13.2812zm-54.375 0.84375-15.5625 4.375 5.0625 30.4375 15.5625-1.375-1.34375-7.09375-11.1562 4.0625 0.65625-9.8125h3.71875l0.34375-8.78125-4.71875 1.34375 0.65625-6.40625 6.4375 1 0.34375-7.75zm143.281 1.6875-6.75 0.3125-6.40625 24.3438 4.03125-0.65625 9.125-24zm-120.062 6.5c4.81673 2.53363 2.46116 9.79229-0.75 10.4688l0.75-10.4688zm82.6875 3.96875c-7.67885 0-13.9062 6.23094-13.9062 13.9062 0 7.67884 6.23095 13.9062 13.9062 13.9062 7.67885 0 13.9062-6.23095 13.9062-13.9062 0-7.67885-6.2274-13.9062-13.9062-13.9062zm1.125 4.8125c4.66684 0 8.46875 3.77066 8.46875 8.4375s-3.80191 8.46875-8.46875 8.46875-8.4375-3.80191-8.4375-8.46875 3.7742-8.4375 8.4375-8.4375z"/>
 </g>
</svg>
