<?xml version="1.0" encoding="utf-8"?>
<!-- Generator: Adobe Illustrator 13.0.2, SVG Export Plug-In . SVG Version: 6.00 Build 14948)  -->
<!DOCTYPE svg PUBLIC "-//W3C//DTD SVG 1.1//EN" "http://www.w3.org/Graphics/SVG/1.1/DTD/svg11.dtd">
<svg version="1.1" id="Layer_1" xmlns="http://www.w3.org/2000/svg" xmlns:xlink="http://www.w3.org/1999/xlink" x="0px" y="0px"
	 width="164.164px" height="241.964px" viewBox="0 0 164.164 241.964" enable-background="new 0 0 164.164 241.964"
	 xml:space="preserve">
<g>
	<path d="M147.675,15.073c-3.579-0.973-2.84,2.377-4.563,3.261c-10.674,1.45-19.153-2.53-28.688-1.304
		c1.242,4.416,9.408,5.359,7.172,11.085c-5.086,2.984-12.963-0.821-16.301,3.912c-1.433-1.176-2.672-2.544-4.562-3.261
		c-8.449,1.874-17.084-8.534-26.733-10.432c-2.136-0.42-3.635,0.624-5.219,0c-3.552-1.401-5.462-5.522-8.473-7.824
		c-2.544-1.943-5.538-1.422-6.522-4.565c0,0-4.059-4.728-6.627-4.968c-1.073-0.101-2.125-0.163-3.152-0.248
		C29.811-0.461,14.967,0.078,0,0.461l0.969,4.832c2.68,6.449,10.803,7.456,14.345,13.041c-0.525,2.169-4.632,3.205-2.607,5.869
		c1.117,3.014,4.09,4.168,7.171,5.216c3.802-1.198,5.699-4.301,9.782-5.216c4.473,0.256,8.697,4.982,13.693,5.216
		c5.786,0.269,9.665-2.749,14.345-1.957c7.017,1.188,11.061,11.83,18.908,5.216c8.901,6.964,22.642,9.091,32.603,14.997
		c-0.179,5.694,0.291,12.029-1.959,15.649c-7.129-0.065-19.345,1.11-23.473,7.824c-0.912,3.304,2.991,1.791,2.607,4.564
		c-4.26,1.825-3.102,9.07-5.868,12.389c3.106,2.978,5.155,7.015,9.131,9.128c5.724-0.797,8.003-5.036,14.342-5.216
		c4.481,3.718,1.259,12.089,5.22,16.952c-2.818,3.054-3.873,7.864-8.478,9.129c-10.905-4.862-16.169-18.857-29.344-19.562
		c-9.158-0.491-18.492,7.297-29.34,3.26c-3.868-8.954-9.864-15.781-18.908-19.561c-2.085,1.978-6.821,4.272-5.216,7.824
		c1.311,2.167,5.733,1.222,7.824,2.608c6.758,4.407,2.333,19.803,10.432,20.865c2.905,0.381,5.189-2.95,8.477-3.261
		c6.819-0.645,15.374,5.675,24.124,2.608c3.497,2.373,6.275,5.462,9.13,8.477c1.563,3.539,7.425,5.907,6.521,9.778
		c-12.236-1.063-27.961-11.433-37.817-4.562c0.896,12.131,4.781,24.604,7.824,35.862c0.799,2.961,2.688,4.089,2.608,6.521
		c-0.053,1.611-1.828,4.235-2.608,6.521c-1.104,3.226-0.989,7.225-1.957,9.129c-1.672,3.286-7.101,3.762-6.519,8.476
		c0.528,2.93,5.648,2.12,7.171,0.651c0.472,2.353,2.737,2.915,5.869,2.606c4.186-6.262,1.532-12.547,6.521-18.908
		c14.332-3.793-0.281-10.893-1.958-19.561c-1.451-7.512,1.094-11.42-0.65-16.302c18.207,4.181,32.584,12.188,49.553,17.606
		c-3.072,12.062-2.525,23.484,1.957,33.904c4.416,10.266,14.291,17.204,15.648,25.428c2.032,12.308-8.781,22.227-21.517,16.955
		c-5.815-2.406-11.003-18.322,0-20.215c1.243,1.479-1.466,6.534,2.608,6.521c8.879-6.283-0.724-12.59-7.826-9.782
		c-4.487,1.774-7.565,9.09-6.521,15.651c2.81,17.617,30.726,19.07,38.47,3.91c6.211-26.283-20.119-36.519-15.646-63.897
		c0.658-4.038,3.377-5.792,3.91-11.085c5.189-6.135,11.544-14.777,14.346-23.475c0.387-1.203-0.424-3.48,0-5.215
		c0.541-2.222,2.389-3.394,2.607-5.215c0.263-2.195-1.159-4.313-1.303-7.174c-0.236-4.665,1.834-10.245,1.303-14.344
		c-0.782-6.053-5.51-10.602-5.868-16.954c-0.281-5.009,2.016-10.388,1.954-16.3c-0.065-6.702-3.43-13.739-0.649-20.213
		c5.028-0.524,10.55,2.129,15.649,4.564c4.544,2.17,11.064,5.958,12.387,9.781c0.023,0.07,0.034,0.156,0.055,0.232l-0.703-21.749
		C156.705,33.432,149.791,26.653,147.675,15.073z M11.403,3.989c12.053,1.2,35.792-3.193,37.818,11.736
		C33.798,17.219,21.22,10.266,11.403,3.989z M124.203,73.756c-7.365-2.68-3.535-19.763-6.521-26.082
		c2.674-0.065,5.346-0.127,7.174,0.653C124.27,57.879,126.298,66.099,124.203,73.756z M130.725,28.765
		c-1.869,0.129-3.562,0.081-3.261-1.955C128.599,27.413,130.962,26.788,130.725,28.765z M138.548,26.157
		c0.193-2.197,2.89-1.891,3.262-3.912c2.35,1.562,4.975,2.848,5.215,6.52C141.703,29.99,143.292,23.725,138.548,26.157z"/>
	<path d="M164.03,62.251l0.084,2.586C164.183,63.824,164.199,62.927,164.03,62.251z"/>
</g>
</svg>
