<?xml version="1.0" encoding="UTF-8" standalone="no"?>
<!-- Created with Inkscape (http://www.inkscape.org/) -->
<svg
   xmlns:dc="http://purl.org/dc/elements/1.1/"
   xmlns:cc="http://web.resource.org/cc/"
   xmlns:rdf="http://www.w3.org/1999/02/22-rdf-syntax-ns#"
   xmlns:svg="http://www.w3.org/2000/svg"
   xmlns="http://www.w3.org/2000/svg"
   xmlns:sodipodi="http://inkscape.sourceforge.net/DTD/sodipodi-0.dtd"
   xmlns:inkscape="http://www.inkscape.org/namespaces/inkscape"
   width="180pt"
   height="220pt"
   id="svg2193"
   sodipodi:version="0.32"
   inkscape:version="0.43"
   version="1.0"
   sodipodi:docbase="C:\Clipart\Egen"
   sodipodi:docname="Ornamental vine leaves 1879.svg">
  <defs
     id="defs2195" />
  <sodipodi:namedview
     id="base"
     pagecolor="#ffffff"
     bordercolor="#666666"
     borderopacity="1.0"
     inkscape:pageopacity="0.0"
     inkscape:pageshadow="2"
     inkscape:zoom="0.35"
     inkscape:cx="375"
     inkscape:cy="520"
     inkscape:document-units="px"
     inkscape:current-layer="layer1"
     inkscape:window-width="812"
     inkscape:window-height="540"
     inkscape:window-x="132"
     inkscape:window-y="132" />
  <metadata
     id="metadata2198">
    <rdf:RDF>
      <cc:Work
         rdf:about="">
        <dc:format>image/svg+xml</dc:format>
        <dc:type
           rdf:resource="http://purl.org/dc/dcmitype/StillImage" />
        <dc:creator>
          <cc:Agent>
            <dc:title>Staffan Vilcans</dc:title>
          </cc:Agent>
        </dc:creator>
        <cc:license
           rdf:resource="http://web.resource.org/cc/PublicDomain" />
        <dc:title>Ornamental vine leaves 1879</dc:title>
      </cc:Work>
      <cc:License
         rdf:about="http://web.resource.org/cc/PublicDomain">
        <cc:permits
           rdf:resource="http://web.resource.org/cc/Reproduction" />
        <cc:permits
           rdf:resource="http://web.resource.org/cc/Distribution" />
        <cc:permits
           rdf:resource="http://web.resource.org/cc/DerivativeWorks" />
      </cc:License>
    </rdf:RDF>
  </metadata>
  <g
     inkscape:label="Layer 1"
     inkscape:groupmode="layer"
     id="layer1">
    <g
       transform="matrix(3.543307e-2,0,0,3.543307e-2,-315.7171,-660.1774)"
       style="visibility:visible"
       id="g2049">
      <desc
         id="desc2051">Graphic</desc>
      <g
         id="g2053">
        <g
           id="g2055"
           style="fill:#030303;stroke:none">
          <path
             id="path2057"
             d="M 14066,19747 L 14050,19763 L 14050,19778 L 14066,19793 L 14081,19793 L 14081,19808 L 14066,19838 L 14050,19853 L 14035,19853 L 14020,19869 L 14020,19884 L 14005,19914 L 13975,19929 L 13960,19929 L 13944,19944 L 13944,19960 L 13914,19960 L 14020,19853 L 14020,19778 L 14066,19732 L 14066,19747 z M 13808,19763 L 13854,19763 L 13869,19778 L 13854,19808 L 13778,19808 L 13762,19793 L 13808,19763 z M 14066,19914 L 14081,19914 L 14081,19960 L 14066,19960 L 14050,19929 L 14066,19914 z M 13596,19975 L 13611,19975 L 13611,20035 L 13580,20035 L 13535,20081 L 13535,20126 L 13550,20142 L 13580,20142 L 13686,20096 L 13823,20020 L 13854,20020 L 13838,20035 L 13838,20051 L 13854,20066 L 13914,20081 L 13960,20081 L 13944,20096 L 13747,20096 L 13702,20111 L 13626,20157 L 13444,20217 L 13383,20248 L 13337,20278 L 13277,20308 L 13262,20308 L 13247,20293 L 13231,20293 L 13095,20354 L 12700,20475 L 12670,20505 L 12670,20520 L 12685,20535 L 12792,20566 L 12837,20596 L 12958,20702 L 12973,20732 L 12958,20732 L 12958,20717 L 12943,20702 L 12928,20702 L 12898,20687 L 12867,20657 L 12731,20566 L 12609,20535 L 12594,20535 L 12564,20551 L 12488,20581 L 12473,20596 L 12473,20611 L 12458,20626 L 12443,20626 L 12427,20611 L 12427,20596 L 12443,20566 L 12503,20520 L 12534,20520 L 12761,20414 L 12882,20339 L 12958,20263 L 13004,20202 L 13034,20142 L 13034,20126 L 13049,20081 L 13064,20081 L 13080,20066 L 13080,20005 L 13095,20005 L 13110,20020 L 13095,20035 L 13110,20051 L 13125,20051 L 13125,20066 L 13110,20066 L 13095,20081 L 13019,20202 L 12988,20278 L 12988,20308 L 13004,20323 L 13019,20323 L 13049,20293 L 13049,20278 L 13064,20278 L 13080,20293 L 13125,20293 L 13307,20248 L 13459,20187 L 13505,20142 L 13505,20081 L 13520,20066 L 13535,20066 L 13550,20051 L 13580,20005 L 13580,19990 L 13596,19975 z M 12397,20051 L 12412,20051 L 12412,20066 L 12382,20217 L 12367,20233 L 12367,20263 L 12397,20369 L 12443,20414 L 12443,20475 L 12412,20475 L 12382,20429 L 12382,20414 L 12351,20308 L 12336,20293 L 12336,20187 L 12351,20111 L 12367,20081 L 12397,20051 z M 13247,20339 L 13307,20339 L 13337,20354 L 13398,20414 L 13489,20475 L 13550,20490 L 13565,20490 L 13611,20520 L 13611,20535 L 13596,20535 L 13398,20445 L 13353,20399 L 13307,20369 L 13262,20369 L 13247,20354 L 13247,20339 z M 13004,20747 L 13034,20747 L 13019,20763 L 13004,20747 z M 14855,21081 L 14855,21111 L 14840,21111 L 14840,21096 L 14855,21081 z M 11243,21172 L 11243,21187 L 11228,21202 L 11228,21248 L 11212,21248 L 11197,21232 L 11197,21217 L 11243,21172 z M 14733,21172 L 14733,21187 L 14718,21202 L 14673,21232 L 14673,21202 L 14733,21172 z M 14612,21248 L 14627,21248 L 14597,21278 L 14506,21308 L 14278,21354 L 14035,21445 L 14005,21475 L 13960,21475 L 13960,21460 L 14126,21384 L 14612,21248 z M 11197,21263 L 11197,21293 L 11152,21384 L 11076,21657 L 11076,22020 L 11091,22035 L 11106,22081 L 11091,22096 L 11091,22111 L 11122,22141 L 11122,22248 L 11137,22278 L 11197,22339 L 11228,22339 L 11288,22369 L 11349,22430 L 11319,22430 L 11197,22369 L 11182,22354 L 11106,22323 L 10985,22323 L 10833,22354 L 10742,22399 L 10697,22399 L 10727,22369 L 10773,22339 L 10848,22339 L 10894,22323 L 10955,22293 L 10985,22263 L 10939,22217 L 10621,22050 L 10621,22035 L 10606,22020 L 10575,22020 L 10469,21975 L 10439,21944 L 10424,21944 L 10409,21959 L 10105,22020 L 10090,22035 L 10090,22050 L 10075,22035 L 10044,22035 L 10014,22066 L 9969,22066 L 9984,22050 L 10241,21944 L 10272,21914 L 10272,21899 L 10287,21914 L 10348,21914 L 10363,21899 L 10348,21884 L 10287,21854 L 10150,21808 L 10105,21763 L 10105,21672 L 10075,21611 L 10044,21581 L 10029,21581 L 10029,21551 L 10060,21520 L 10075,21520 L 10090,21536 L 10090,21581 L 10120,21657 L 10135,21672 L 10150,21672 L 10166,21687 L 10166,21748 L 10196,21778 L 10970,22187 L 10985,22202 L 10985,22217 L 11000,22232 L 11046,22248 L 11061,22248 L 11076,22232 L 11076,22217 L 11061,22202 L 11061,22050 L 11046,22020 L 11046,21959 L 11061,21914 L 11046,21884 L 11031,21869 L 11031,21854 L 11046,21838 L 11091,21551 L 11091,21445 L 11167,21293 L 11197,21263 z M 9771,21596 L 9802,21596 L 9862,21611 L 9877,21626 L 9877,21642 L 9832,21642 L 9802,21626 L 9771,21596 z M 9923,21642 L 9953,21672 L 9999,21687 L 10029,21687 L 10044,21702 L 10014,21717 L 9999,21717 L 9953,21687 L 9923,21672 L 9908,21657 L 9923,21642 z M 12518,21748 L 12534,21748 L 12549,21763 L 12564,21793 L 12549,21793 L 12518,21778 L 12518,21748 z M 12594,21823 L 12624,21823 L 12624,21838 L 12640,21854 L 12655,21854 L 12731,21929 L 12746,21929 L 12761,21959 L 12761,21975 L 12776,21990 L 12807,21990 L 12913,22111 L 12943,22157 L 12943,22172 L 12958,22187 L 12973,22187 L 12988,22202 L 13034,22293 L 13064,22339 L 13110,22384 L 13125,22445 L 13125,22505 L 13110,22505 L 13080,22460 L 13049,22384 L 13049,22369 L 13034,22339 L 12958,22232 L 12822,22035 L 12807,22020 L 12776,22020 L 12746,21990 L 12746,21975 L 12609,21838 L 12594,21838 L 12594,21823 z M 13914,22248 L 13929,22263 L 13944,22323 L 13914,22323 L 13914,22248 z M 13838,22263 L 13854,22263 L 13854,22278 L 13869,22323 L 13929,22445 L 13944,22490 L 13944,22505 L 13914,22475 L 13914,22445 L 13884,22369 L 13869,22354 L 13838,22354 L 13823,22369 L 13823,22339 L 13838,22354 L 13854,22339 L 13854,22308 L 13838,22293 L 13838,22263 z M 13960,22384 L 13975,22399 L 13975,22460 L 13990,22475 L 13990,22490 L 13975,22475 L 13960,22430 L 13960,22384 z M 10651,22414 L 10682,22414 L 10682,22445 L 10666,22460 L 10621,22475 L 10606,22475 L 10606,22460 L 10651,22414 z M 14870,22582 L 14855,22658 L 14840,22643 L 14840,22582 L 14870,22505 L 14870,22582 z M 10515,22520 L 10530,22520 L 10530,22536 L 10515,22536 L 10515,22520 z M 13960,22520 L 13990,22536 L 13975,22582 L 13960,22567 L 13960,22520 z M 14794,22552 L 14809,22552 L 14809,22612 L 14794,22627 L 14794,22552 z M 14916,22582 L 14931,22582 L 14931,22612 L 14916,22688 L 14900,22688 L 14900,22612 L 14916,22582 z M 10393,22658 L 10409,22658 L 10393,22703 L 10363,22703 L 10363,22688 L 10393,22658 z M 12200,22733 L 12458,22749 L 12807,22809 L 12852,22855 L 12943,22885 L 12958,22885 L 13156,23036 L 13186,23067 L 13277,23188 L 13277,23203 L 13292,23233 L 13322,23264 L 13337,23264 L 13353,23279 L 13368,23309 L 13368,23324 L 13535,23491 L 13535,23537 L 13565,23582 L 13580,23597 L 13596,23597 L 13611,23612 L 13717,23794 L 13808,24021 L 13854,24248 L 13854,24264 L 13838,24264 L 13702,23991 L 13686,23976 L 13656,23961 L 13626,23915 L 13611,23900 L 13596,23900 L 13550,23855 L 13550,23824 L 13459,23703 L 13413,23658 L 13398,23658 L 13368,23643 L 13307,23597 L 12488,23203 L 12382,23127 L 12351,23112 L 12336,23112 L 12321,23097 L 12321,23082 L 12291,23051 L 12260,23036 L 12124,22900 L 12124,22870 L 12094,22839 L 12078,22839 L 12062,22824 L 12062,22764 L 12078,22749 L 12200,22733 z M 12306,23961 L 12306,23991 L 12245,24067 L 12230,24051 L 12185,24097 L 12185,24112 L 12169,24127 L 12154,24127 L 12139,24142 L 12139,24203 L 12109,24233 L 12094,24233 L 12062,24264 L 12062,24294 L 12047,24309 L 12047,24248 L 12094,24142 L 12200,24036 L 12306,23961 z M 12776,24248 L 12807,24248 L 12807,24279 L 12761,24279 L 12746,24264 L 12655,24309 L 12594,24355 L 12549,24400 L 12458,24552 L 12458,24567 L 12367,24658 L 12321,24688 L 12260,24718 L 12245,24734 L 12245,24749 L 12260,24764 L 12367,24764 L 12443,24779 L 12458,24794 L 12488,24809 L 12503,24794 L 12518,24794 L 12534,24809 L 12655,24809 L 12655,24855 L 12624,24855 L 12564,24824 L 12549,24809 L 12534,24809 L 12518,24824 L 12488,24824 L 12443,24809 L 12427,24794 L 12412,24794 L 12397,24809 L 12382,24809 L 12367,24794 L 12275,24794 L 12260,24779 L 12230,24779 L 12215,24794 L 12215,24824 L 12230,24839 L 12245,24839 L 12245,24930 L 12260,24945 L 12260,24961 L 12245,24976 L 12245,25006 L 12260,25021 L 12260,25036 L 12245,25082 L 12230,25097 L 12230,25021 L 12245,25006 L 12245,24961 L 12230,24945 L 12215,24915 L 12185,24824 L 12185,24794 L 12139,24749 L 12001,24688 L 11971,24688 L 11956,24703 L 11941,24734 L 11925,24794 L 11895,24839 L 11880,24855 L 11880,24839 L 11895,24824 L 11925,24749 L 11925,24643 L 11880,24597 L 11880,24582 L 11925,24582 L 11971,24536 L 11986,24491 L 11986,24446 L 12017,24446 L 12017,24461 L 12001,24476 L 12001,24491 L 12017,24506 L 12017,24521 L 12001,24536 L 12001,24643 L 12017,24658 L 12078,24703 L 12139,24734 L 12185,24734 L 12200,24718 L 12200,24703 L 12230,24673 L 12245,24673 L 12306,24658 L 12351,24627 L 12382,24597 L 12382,24582 L 12488,24430 L 12624,24294 L 12700,24264 L 12776,24248 z M 12032,24339 L 12032,24385 L 12017,24385 L 12017,24355 L 12032,24339 z M 12958,24446 L 12973,24446 L 12973,24461 L 12958,24461 L 12958,24446 z M 12973,24506 L 13004,24506 L 13019,24552 L 13019,24597 L 13034,24612 L 13095,24612 L 13110,24627 L 13080,24627 L 13064,24643 L 13034,24688 L 13019,24718 L 13004,24718 L 13004,24658 L 12988,24643 L 12928,24643 L 12913,24658 L 12913,24688 L 12898,24703 L 12882,24703 L 12852,24718 L 12807,24764 L 12746,24794 L 12731,24809 L 12746,24824 L 12776,24839 L 12837,24855 L 13034,24915 L 13080,24915 L 13095,24930 L 13095,24945 L 13034,24945 L 13034,24930 L 13019,24915 L 12761,24855 L 12700,24809 L 12700,24779 L 12715,24764 L 12761,24764 L 12807,24734 L 12852,24688 L 12973,24627 L 13004,24597 L 13004,24567 L 12988,24552 L 12973,24552 L 12958,24536 L 12973,24506 z M 11804,24521 L 11820,24536 L 11804,24536 L 11804,24521 z M 11835,24552 L 11850,24567 L 11820,24567 L 11835,24552 z M 11835,24915 L 11850,24915 L 11850,24945 L 11820,24945 L 11820,24930 L 11835,24915 z M 12670,24930 L 12685,24930 L 12685,24945 L 12670,24930 z M 12700,24961 L 12715,24961 L 12731,24991 L 12731,25006 L 12700,25036 L 12700,24961 z M 13110,24961 L 13156,24961 L 13201,25006 L 13201,25021 L 13156,24991 L 13125,24976 L 13110,24961 z M 13247,25036 L 13247,25051 L 13231,25051 L 13247,25036 z M 13262,25067 L 13277,25067 L 13307,25097 L 13292,25112 L 13262,25067 z M 12215,25112 L 12215,25157 L 12200,25157 L 12200,25127 L 12215,25112 z M 13702,18778 L 13717,18793 L 13747,18793 L 13762,18778 L 13793,18778 L 13808,18793 L 13808,18808 L 13944,18838 L 13990,18853 L 14050,18899 L 14096,18944 L 14096,18960 L 14111,18990 L 14142,19020 L 14187,19111 L 14309,19505 L 14339,19717 L 14339,19869 L 14324,19929 L 14172,20293 L 13975,20581 L 13762,20793 L 13611,20899 L 13580,20914 L 13535,20929 L 13520,20944 L 13520,20959 L 13505,20975 L 13337,21050 L 13064,21141 L 12670,21187 L 12488,21126 L 12412,21050 L 12321,20914 L 12336,20899 L 12336,20869 L 12306,20793 L 12291,20747 L 12260,20747 L 12185,20823 L 12185,20838 L 12154,20899 L 12047,21066 L 11941,21293 L 11925,21308 L 11910,21308 L 11895,21323 L 11804,21611 L 11789,21793 L 11774,21854 L 11759,21869 L 11759,21975 L 11789,22232 L 11820,22263 L 11835,22293 L 11865,22490 L 11895,22520 L 11925,22567 L 11941,22597 L 11986,22643 L 12094,22643 L 12109,22627 L 12473,22643 L 12564,22658 L 12837,22733 L 12988,22794 L 13034,22839 L 13080,22839 L 13095,22824 L 13095,22749 L 13064,22688 L 12988,22612 L 12958,22597 L 12928,22597 L 12913,22582 L 12913,22567 L 12898,22552 L 12867,22552 L 12822,22520 L 12776,22475 L 12776,22460 L 12746,22414 L 12640,22308 L 12549,22172 L 12534,22111 L 12367,21823 L 12230,21672 L 12109,21566 L 12094,21566 L 12062,21536 L 12062,21505 L 12078,21490 L 12109,21490 L 12215,21505 L 12245,21536 L 12291,21551 L 12579,21596 L 12898,21702 L 12988,21763 L 13034,21808 L 13034,21823 L 13049,21838 L 13064,21838 L 13080,21854 L 13110,21899 L 13140,21959 L 13186,22141 L 13216,22172 L 13247,22172 L 13277,22141 L 13383,21975 L 13596,21763 L 13611,21763 L 13641,21732 L 13717,21626 L 13747,21520 L 13823,21369 L 13899,21263 L 13914,21248 L 13929,21248 L 13960,21217 L 13960,21202 L 13990,21172 L 14081,21111 L 14172,21081 L 14567,21035 L 14824,20959 L 14946,20838 L 14946,20823 L 14961,20778 L 15006,20717 L 15022,20702 L 15037,20702 L 15052,20717 L 15052,20808 L 15037,20823 L 15037,20838 L 15052,20853 L 15052,20869 L 15037,20959 L 14946,21248 L 14931,21263 L 14916,21263 L 14900,21278 L 14885,21308 L 14885,21323 L 14779,21414 L 14733,21445 L 14567,21505 L 13975,21596 L 13808,21642 L 13808,21687 L 13960,21657 L 14005,21642 L 14020,21626 L 14172,21626 L 14384,21657 L 14491,21687 L 14582,21732 L 14612,21763 L 14658,21793 L 14673,21793 L 14840,21959 L 14870,22005 L 14870,22035 L 14916,22141 L 15022,22248 L 15052,22293 L 15128,22475 L 15143,22552 L 15143,22567 L 15112,22673 L 15067,22779 L 15022,22855 L 15006,22870 L 14946,22900 L 14855,22930 L 14840,22930 L 14794,22915 L 14703,22839 L 14703,22824 L 14658,22673 L 14642,22643 L 14627,22627 L 14627,22445 L 14703,22339 L 14794,22248 L 14824,22157 L 14824,22081 L 14809,22050 L 14794,22050 L 14779,22035 L 14764,22005 L 14703,21944 L 14673,21929 L 14658,21929 L 14627,21899 L 14627,21884 L 14612,21854 L 14597,21838 L 14582,21838 L 14551,21823 L 14521,21793 L 14339,21717 L 14248,21702 L 13990,21702 L 13747,21808 L 13686,21854 L 13641,21899 L 13641,21929 L 13656,21944 L 13869,22035 L 13914,22066 L 13975,22126 L 14020,22187 L 14081,22339 L 14172,22749 L 14172,22839 L 14157,22855 L 14111,22855 L 13975,22779 L 13884,22733 L 13838,22703 L 13823,22688 L 13823,22673 L 13778,22627 L 13762,22627 L 13717,22582 L 13656,22505 L 13641,22460 L 13626,22339 L 13626,22263 L 13641,22248 L 13641,22081 L 13565,21975 L 13550,21975 L 13535,21990 L 13505,22005 L 13444,22020 L 13413,22035 L 13398,22050 L 13398,22081 L 13337,22172 L 13322,22187 L 13307,22187 L 13262,22293 L 13216,22475 L 13186,22703 L 13186,22779 L 13247,22945 L 13277,22991 L 13292,23006 L 13368,23112 L 13398,23173 L 13398,23188 L 13413,23203 L 13429,23203 L 13520,23294 L 13520,23324 L 13550,23385 L 13565,23385 L 13580,23400 L 13580,23415 L 13884,23900 L 13884,23915 L 13869,23930 L 13884,23930 L 13899,23945 L 13914,23991 L 14005,24521 L 14096,24703 L 14172,24809 L 14278,24915 L 14324,24976 L 14354,25067 L 14369,25173 L 14399,25233 L 14430,25279 L 14430,25309 L 14415,25324 L 14384,25324 L 14354,25309 L 14339,25294 L 14339,25279 L 14309,25218 L 14278,25188 L 14263,25157 L 14263,25097 L 14248,25036 L 14233,25006 L 14218,24991 L 14187,24976 L 14142,24961 L 14050,24870 L 14050,24855 L 14020,24839 L 14005,24839 L 13990,24824 L 13884,24627 L 13747,24279 L 13505,23900 L 13489,23885 L 13474,23885 L 13459,23870 L 13459,23839 L 13429,23809 L 13171,23643 L 12761,23446 L 12715,23446 L 12640,23400 L 12624,23385 L 12534,23324 L 12473,23294 L 12443,23294 L 12382,23248 L 12367,23233 L 12367,23218 L 12351,23203 L 12230,23142 L 12185,23097 L 12185,23051 L 12139,23036 L 12124,23036 L 12078,22991 L 12062,22961 L 12062,22945 L 12032,22900 L 11986,22855 L 11971,22855 L 11956,22839 L 11956,22824 L 11941,22809 L 11925,22809 L 11895,22794 L 11880,22779 L 11835,22779 L 11713,22824 L 11486,22961 L 11425,23021 L 11349,23112 L 11197,23385 L 11197,23446 L 11182,23506 L 11167,23521 L 11167,23794 L 11197,23900 L 11212,23930 L 11228,23945 L 11273,24097 L 11303,24142 L 11471,24324 L 11698,24491 L 11759,24491 L 11774,24461 L 11683,24142 L 11668,24127 L 11668,23915 L 11698,23855 L 11728,23809 L 11774,23764 L 11850,23718 L 11925,23688 L 12078,23658 L 12124,23643 L 12139,23643 L 12443,23718 L 12624,23809 L 12670,23839 L 12700,23870 L 12792,23915 L 12807,23915 L 12973,24051 L 13216,24324 L 13262,24415 L 13398,24612 L 13444,24658 L 13474,24718 L 13489,24779 L 13520,24855 L 13550,24900 L 13611,25036 L 13641,25127 L 13656,25233 L 13686,25309 L 13702,25324 L 13702,25658 L 13686,25718 L 13580,25976 L 13459,26097 L 13383,26158 L 13216,26248 L 13110,26279 L 12988,26279 L 12973,26264 L 12913,26248 L 12792,26248 L 12640,26173 L 12624,26158 L 12624,26142 L 12609,26127 L 12594,26127 L 12579,26112 L 12564,26082 L 12564,25991 L 12579,25930 L 12670,25840 L 12761,25840 L 12852,25855 L 12958,25946 L 12958,25961 L 13034,26006 L 13095,26006 L 13140,26021 L 13171,26036 L 13186,26052 L 13201,26052 L 13368,25976 L 13383,25961 L 13459,25824 L 13489,25643 L 13459,25476 L 13383,25279 L 13307,25233 L 13034,25142 L 12958,25142 L 12776,25173 L 12761,25188 L 12412,25354 L 12321,25370 L 12275,25385 L 12245,25400 L 12169,25415 L 12047,25415 L 11789,25324 L 11744,25279 L 11698,25248 L 11683,25248 L 11561,25127 L 11531,25067 L 11516,25021 L 11501,24945 L 11486,24779 L 11516,24734 L 11531,24718 L 11546,24718 L 11561,24703 L 11561,24688 L 11637,24612 L 11668,24612 L 11668,24582 L 11637,24552 L 11592,24536 L 11577,24536 L 11516,24506 L 11425,24446 L 11410,24430 L 11410,24415 L 11364,24370 L 11349,24370 L 11258,24264 L 11197,24142 L 11197,24127 L 11167,24067 L 11137,24036 L 11122,24006 L 11091,23870 L 11091,23794 L 11076,23703 L 11061,23688 L 11061,23627 L 11122,23339 L 11167,23218 L 11197,23173 L 11258,23112 L 11303,23051 L 11303,23036 L 11319,23021 L 11334,23021 L 11364,23006 L 11380,22991 L 11380,22976 L 11501,22855 L 11698,22749 L 11789,22718 L 11744,22673 L 11683,22673 L 11668,22658 L 11668,22643 L 11546,22612 L 11319,22597 L 11243,22582 L 11228,22567 L 11212,22567 L 11197,22582 L 10758,22627 L 10758,22643 L 10727,22673 L 10636,22688 L 10590,22703 L 10515,22764 L 10439,22779 L 10424,22809 L 10393,22900 L 10363,22930 L 10348,22961 L 10348,22991 L 10363,23006 L 10363,23021 L 10333,23127 L 10302,23203 L 10287,23218 L 10287,23385 L 10302,23430 L 10317,23461 L 10333,23476 L 10333,23612 L 10317,23627 L 10302,23627 L 10257,23597 L 10241,23582 L 10211,23537 L 10196,23506 L 10196,23461 L 10166,23385 L 10120,23339 L 10120,23021 L 10150,22794 L 10196,22658 L 10287,22490 L 10469,22323 L 10651,22248 L 10666,22248 L 10666,22217 L 10651,22202 L 10575,22202 L 10302,22263 L 10211,22293 L 10196,22308 L 10181,22308 L 10166,22293 L 10150,22293 L 10120,22323 L 9908,22354 L 9862,22369 L 9847,22369 L 9726,22293 L 9680,22248 L 9650,22202 L 9650,22157 L 9604,22096 L 9574,22066 L 9544,21975 L 9544,21914 L 9468,21763 L 9437,21732 L 9407,21687 L 9392,21657 L 9392,21642 L 9331,21566 L 9240,21490 L 9043,21384 L 8982,21323 L 8967,21293 L 8982,21278 L 9013,21263 L 9058,21263 L 9286,21323 L 9301,21308 L 9316,21308 L 9331,21323 L 9437,21323 L 9453,21339 L 9468,21339 L 9483,21323 L 9528,21323 L 9574,21339 L 9589,21354 L 9741,21354 L 9892,21323 L 10014,21263 L 10029,21248 L 10272,21248 L 10317,21263 L 10378,21293 L 10439,21354 L 10515,21490 L 10515,21505 L 10545,21566 L 10575,21611 L 10590,21626 L 10606,21626 L 10621,21642 L 10682,21732 L 10727,21823 L 10803,21914 L 10833,21914 L 10864,21808 L 10864,21748 L 10848,21732 L 10848,21657 L 10924,21414 L 11046,21232 L 11076,21172 L 11076,21157 L 11091,21141 L 11106,21141 L 11122,21126 L 11122,21111 L 11197,21035 L 11212,21035 L 11258,20990 L 11258,20975 L 11319,20914 L 11455,20808 L 11516,20778 L 11561,20763 L 11577,20763 L 11592,20778 L 11592,20808 L 11577,20838 L 11531,20899 L 11334,21263 L 11288,21384 L 11258,21520 L 11243,21808 L 11258,21823 L 11273,21854 L 11273,21975 L 11288,21990 L 11303,22020 L 11319,22111 L 11319,22141 L 11349,22202 L 11395,22248 L 11440,22339 L 11440,22354 L 11728,22612 L 11804,22658 L 11850,22658 L 11850,22643 L 11789,22520 L 11683,22217 L 11652,21914 L 11668,21854 L 11683,21838 L 11683,21793 L 11668,21778 L 11668,21748 L 11759,21399 L 11925,21066 L 12032,20899 L 12200,20717 L 12215,20717 L 12260,20702 L 12367,20641 L 12367,20596 L 12351,20581 L 12336,20581 L 12321,20596 L 12215,20596 L 12200,20581 L 12169,20581 L 12154,20596 L 12139,20596 L 12062,20581 L 11925,20505 L 11835,20460 L 11820,20445 L 11774,20369 L 11774,20323 L 11759,20293 L 11744,20278 L 11744,20126 L 11759,20081 L 11804,20035 L 11835,19990 L 11850,19960 L 11850,19944 L 11941,19853 L 12047,19778 L 12321,19702 L 12913,19732 L 12928,19747 L 12988,19747 L 13004,19732 L 13550,19732 L 13565,19717 L 13626,19702 L 13641,19702 L 13656,19717 L 13671,19717 L 13762,19687 L 13869,19657 L 13944,19626 L 14050,19505 L 14050,19460 L 14081,19384 L 14096,19369 L 14096,19354 L 14081,19308 L 14066,19308 L 14050,19293 L 14050,19233 L 13929,19096 L 13869,19051 L 13793,19035 L 13732,19035 L 13626,19066 L 13611,19081 L 13580,19081 L 13520,19066 L 13474,19035 L 13459,19020 L 13444,18975 L 13459,18914 L 13474,18899 L 13489,18899 L 13505,18884 L 13505,18869 L 13520,18853 L 13565,18823 L 13702,18778 z " />
        </g>
      </g>
    </g>
  </g>
</svg>
