<?xml version="1.0" encoding="utf-8"?>
<!-- Generator: Adobe Illustrator 12.0.1, SVG Export Plug-In . SVG Version: 6.00 Build 51448)  -->
<!DOCTYPE svg PUBLIC "-//W3C//DTD SVG 1.1//EN" "http://www.w3.org/Graphics/SVG/1.1/DTD/svg11.dtd" [
	<!ENTITY ns_svg "http://www.w3.org/2000/svg">
	<!ENTITY ns_xlink "http://www.w3.org/1999/xlink">
]>
<svg  version="1.1" id="Layer_1" xmlns="&ns_svg;" xmlns:xlink="&ns_xlink;" width="276.318" height="160.123"
	 viewBox="0 0 276.318 160.123" overflow="visible" enable-background="new 0 0 276.318 160.123" xml:space="preserve">
<g>
	<path fill-rule="evenodd" clip-rule="evenodd" d="M198.326,129.575c-25.423,3.657-52.225,7.534-80.99,4.999
		c-8.949,12.43-12.249,28.197-28.997,23.997c-12.695-3.184-6.833-14.337-11.999-27.997c-2.117-5.597-10.978-8.782-16.998-13.998
		c-9.137-7.917-13.975-17.384-22.998-19.997c-9.935-2.878-20.184,0.82-29.996-2c-0.17-10.143-12.77-31.266-2-36.995
		c7.453-3.965,10.854,6.194,17.998,5.999c8.978-0.245,20.153-18.955,26.997-22.997c7.793-4.603,17.542-4.249,17.998-12.999
		C67.879,17.282,51.801,16.571,53.344,6.59c1.685-10.898,24.391-5.857,30.996-2c9.808,5.727,9.494,13.983,20.998,15.998
		c16.505,2.891,41.039-4.952,59.993-5c30.968-0.078,69.697,4.414,86.989,23.997c6.609,7.486,4.314,10.983,10.998,21.997
		c3.292,5.424,13.149,8.196,12.999,17.998c-0.132,8.541-8.725,8.324-12.999,14.998c-4.904,7.659-6.402,24.527-10.998,35.995
		c-4.812,12.007-10.156,25.05-18.998,27.997C211.218,165.938,210.08,145.548,198.326,129.575z M266.317,82.581
		c1.666,0,3.333,0,4.999,0c-0.826-2.826,1.409-2.591,1-5c-1.695-1.637-2.483-4.182-5.999-3.999
		C266.317,76.581,266.317,79.581,266.317,82.581z"/>
</g>
</svg>
