<?xml version="1.0" encoding="UTF-8" standalone="no"?>
<!-- Created with Inkscape (http://www.inkscape.org/) -->

<svg
   xmlns:dc="http://purl.org/dc/elements/1.1/"
   xmlns:cc="http://creativecommons.org/ns#"
   xmlns:rdf="http://www.w3.org/1999/02/22-rdf-syntax-ns#"
   xmlns:svg="http://www.w3.org/2000/svg"
   xmlns="http://www.w3.org/2000/svg"
   xmlns:sodipodi="http://sodipodi.sourceforge.net/DTD/sodipodi-0.dtd"
   xmlns:inkscape="http://www.inkscape.org/namespaces/inkscape"
   width="1052.3622"
   height="744.09448"
   id="svg2"
   sodipodi:version="0.32"
   inkscape:version="0.47 r22583"
   sodipodi:docname="portal.svg"
   inkscape:output_extension="org.inkscape.output.svg.inkscape"
   version="1.0">
  <defs
     id="defs4">
    <inkscape:perspective
       sodipodi:type="inkscape:persp3d"
       inkscape:vp_x="0 : 526.18109 : 1"
       inkscape:vp_y="0 : 1000 : 0"
       inkscape:vp_z="744.09448 : 526.18109 : 1"
       inkscape:persp3d-origin="372.04724 : 350.78739 : 1"
       id="perspective10" />
    <inkscape:perspective
       id="perspective2390"
       inkscape:persp3d-origin="372.04724 : 350.78739 : 1"
       inkscape:vp_z="744.09448 : 526.18109 : 1"
       inkscape:vp_y="0 : 1000 : 0"
       inkscape:vp_x="0 : 526.18109 : 1"
       sodipodi:type="inkscape:persp3d" />
    <inkscape:perspective
       id="perspective2882"
       inkscape:persp3d-origin="124.97965 : 83.319768 : 1"
       inkscape:vp_z="249.9593 : 124.97965 : 1"
       inkscape:vp_y="0 : 1000 : 0"
       inkscape:vp_x="0 : 124.97965 : 1"
       sodipodi:type="inkscape:persp3d" />
    <inkscape:perspective
       id="perspective2598"
       inkscape:persp3d-origin="211 : 38.666667 : 1"
       inkscape:vp_z="422 : 58 : 1"
       inkscape:vp_y="0 : 1000 : 0"
       inkscape:vp_x="0 : 58 : 1"
       sodipodi:type="inkscape:persp3d" />
    <inkscape:perspective
       id="perspective2968"
       inkscape:persp3d-origin="0.5 : 0.33333333 : 1"
       inkscape:vp_z="1 : 0.5 : 1"
       inkscape:vp_y="0 : 1000 : 0"
       inkscape:vp_x="0 : 0.5 : 1"
       sodipodi:type="inkscape:persp3d" />
    <inkscape:perspective
       id="perspective2994"
       inkscape:persp3d-origin="0.5 : 0.33333333 : 1"
       inkscape:vp_z="1 : 0.5 : 1"
       inkscape:vp_y="0 : 1000 : 0"
       inkscape:vp_x="0 : 0.5 : 1"
       sodipodi:type="inkscape:persp3d" />
    <inkscape:perspective
       id="perspective3018"
       inkscape:persp3d-origin="0.5 : 0.33333333 : 1"
       inkscape:vp_z="1 : 0.5 : 1"
       inkscape:vp_y="0 : 1000 : 0"
       inkscape:vp_x="0 : 0.5 : 1"
       sodipodi:type="inkscape:persp3d" />
    <inkscape:perspective
       id="perspective3046"
       inkscape:persp3d-origin="0.5 : 0.33333333 : 1"
       inkscape:vp_z="1 : 0.5 : 1"
       inkscape:vp_y="0 : 1000 : 0"
       inkscape:vp_x="0 : 0.5 : 1"
       sodipodi:type="inkscape:persp3d" />
    <inkscape:perspective
       id="perspective3068"
       inkscape:persp3d-origin="0.5 : 0.33333333 : 1"
       inkscape:vp_z="1 : 0.5 : 1"
       inkscape:vp_y="0 : 1000 : 0"
       inkscape:vp_x="0 : 0.5 : 1"
       sodipodi:type="inkscape:persp3d" />
    <inkscape:perspective
       id="perspective3091"
       inkscape:persp3d-origin="0.5 : 0.33333333 : 1"
       inkscape:vp_z="1 : 0.5 : 1"
       inkscape:vp_y="0 : 1000 : 0"
       inkscape:vp_x="0 : 0.5 : 1"
       sodipodi:type="inkscape:persp3d" />
    <inkscape:perspective
       id="perspective3119"
       inkscape:persp3d-origin="0.5 : 0.33333333 : 1"
       inkscape:vp_z="1 : 0.5 : 1"
       inkscape:vp_y="0 : 1000 : 0"
       inkscape:vp_x="0 : 0.5 : 1"
       sodipodi:type="inkscape:persp3d" />
    <inkscape:perspective
       id="perspective3141"
       inkscape:persp3d-origin="0.5 : 0.33333333 : 1"
       inkscape:vp_z="1 : 0.5 : 1"
       inkscape:vp_y="0 : 1000 : 0"
       inkscape:vp_x="0 : 0.5 : 1"
       sodipodi:type="inkscape:persp3d" />
    <inkscape:perspective
       id="perspective3168"
       inkscape:persp3d-origin="0.5 : 0.33333333 : 1"
       inkscape:vp_z="1 : 0.5 : 1"
       inkscape:vp_y="0 : 1000 : 0"
       inkscape:vp_x="0 : 0.5 : 1"
       sodipodi:type="inkscape:persp3d" />
    <inkscape:perspective
       id="perspective3198"
       inkscape:persp3d-origin="0.5 : 0.33333333 : 1"
       inkscape:vp_z="1 : 0.5 : 1"
       inkscape:vp_y="0 : 1000 : 0"
       inkscape:vp_x="0 : 0.5 : 1"
       sodipodi:type="inkscape:persp3d" />
  </defs>
  <sodipodi:namedview
     id="base"
     pagecolor="#ffffff"
     bordercolor="#666666"
     borderopacity="1.0"
     gridtolerance="10000"
     guidetolerance="10"
     objecttolerance="10"
     inkscape:pageopacity="0.0"
     inkscape:pageshadow="2"
     inkscape:zoom="0.7"
     inkscape:cx="545.50792"
     inkscape:cy="275.6617"
     inkscape:document-units="px"
     inkscape:current-layer="layer2"
     showgrid="false"
     inkscape:window-width="1920"
     inkscape:window-height="1018"
     inkscape:window-x="-8"
     inkscape:window-y="-8"
     inkscape:window-maximized="1" />
  <metadata
     id="metadata7">
    <rdf:RDF>
      <cc:Work
         rdf:about="">
        <dc:format>image/svg+xml</dc:format>
        <dc:type
           rdf:resource="http://purl.org/dc/dcmitype/StillImage" />
      </cc:Work>
    </rdf:RDF>
  </metadata>
  <g
     inkscape:label="Layer 1"
     inkscape:groupmode="layer"
     id="layer1"
     style="opacity:1;display:inline" />
  <g
     inkscape:groupmode="layer"
     id="layer2"
     inkscape:label="blubb"
     style="opacity:1;display:inline">
    <g
       id="g3016"
       style="fill:#000000"
       transform="translate(0,-259.71429)">
      <path
         id="rect2418"
         d="m 75.781811,348.94722 0,38.76161 -2.69178,0 0,4.74265 68.986439,0 0,-4.74265 -2.66614,0 0,-38.71033 -3.94795,0 0,38.71033 -15.99685,0 0,-38.65906 -3.94794,0 0,38.65906 -35.813469,0 0,-38.76161 -3.92231,0 z m 24.251639,49.32363 0,15.89431 -7.306259,-0.0256 13.997259,14.8176 13.76652,-14.74069 -7.30625,-0.0256 0,-15.91995 -13.15127,0 z m -9.972399,26.81524 0,30.96826 3.23014,0 0,-30.96826 -3.23014,0 z m 30.250469,0.0769 0,30.9939 3.2045,0 0,-30.9939 -3.2045,0 z m -14.48433,9.89549 0,18.12463 3.2045,0 0,-18.12463 -3.2045,0 z m -15.458509,23.91837 c -2.58236,-1e-5 -4.66575,2.05774 -4.66575,4.64011 l 0,11.86946 9.89549,0 0,-1.97397 c 1e-5,-2.42098 1.82246,-4.40225 4.17867,-4.64012 0.15708,-0.0159 0.325689,0 0.487079,0 l 1.97398,0 0,-9.89548 -11.869469,0 z m 23.585119,0 0,9.89548 1.94833,0 c 2.58238,0 4.66575,2.05774 4.66575,4.64012 l 0,1.97397 9.89549,0 0,-11.86946 c 1e-5,-2.58239 -2.08337,-4.64011 -4.66575,-4.64011 l -11.84382,0 z m -8.92132,4.07612 0,5.81936 6.10136,0 0,-5.81936 -6.10136,0 z m -2.12779,8.45987 c -2.58238,0 -4.665759,2.08338 -4.665759,4.66575 l 0,4.38375 3.460859,0 c 0.3609,-2.94682 2.66537,-5.28967 5.61429,-5.63991 l 0,-3.40959 -4.40939,0 z m 5.94755,0 0,3.40959 c 2.95185,0.35024 5.30156,2.6931 5.66555,5.63991 l 3.40958,0 0,-4.38375 c 1e-5,-2.58238 -2.08338,-4.66575 -4.66574,-4.66575 l -4.40939,0 z m 11.71564,6.7679 0,6.10136 5.4861,0 0,-6.10136 -5.4861,0 z m -31.660449,0.0256 0,6.10136 6.69099,0 0,-6.10136 -6.69099,0 z m 9.3315,3.81976 0,4.40939 c 1e-5,2.58237 2.083369,4.64011 4.665759,4.64011 l 4.40939,0 0,-3.40959 c -2.95749,-0.34832 -5.26387,-2.68402 -5.61429,-5.63991 l -3.460859,0 z m 16.278859,0 c -0.35343,2.95589 -2.70511,5.2916 -5.66555,5.63991 l 0,3.40959 4.40939,0 c 2.58238,0 4.66574,-2.05775 4.66574,-4.64011 l 0,-4.40939 -3.40958,0 z m -28.814859,5.07592 0,11.84382 c 0,2.58237 2.08338,4.66574 4.66575,4.66575 l 11.843839,0 0,-9.89549 -1.94835,0 c -2.582369,0 -4.665749,-2.05773 -4.665749,-4.64011 l 0,-1.97397 -9.89549,0 z m 34.864949,0 0,1.97397 c 0,2.58236 -2.08338,4.64011 -4.66575,4.64011 l -1.94833,0 0,9.89549 11.84382,0 c 2.58238,-10e-6 4.66575,-2.08336 4.66575,-4.66575 l 0,-11.84382 -9.89549,0 z m -15.5354,6.61408 0,6.30646 6.10136,0 0,-6.30646 -6.10136,0 z"
         style="fill:#000000;fill-opacity:1;stroke:none" />
      <path
         id="rect2764"
         d="m 18.177761,334.46289 0,181.47712 181.477119,0 0,-181.47712 -181.477119,0 z m 4.97338,4.97339 171.555999,0 0,171.53035 -171.555999,0 0,-171.53035 z"
         style="fill:#000000;fill-opacity:1;stroke:none" />
    </g>
    <g
       id="g3012"
       style="fill:#000000"
       transform="translate(0,-259.71429)">
      <path
         id="path2512"
         d="m 315.55515,346.97325 c -1.6453,0.13847 -3.13947,1.16533 -3.84539,2.79433 l -4.71702,10.89529 9.07513,3.9223 0.76908,-1.82015 c 0.96264,-2.22137 3.43468,-3.30786 5.69119,-2.58924 0.15044,0.0479 0.28772,0.14092 0.43581,0.20509 l 1.82016,0.76908 3.9223,-9.07514 -10.86965,-4.71702 c -0.74045,-0.32087 -1.53374,-0.44747 -2.28161,-0.38454 z m 23.91837,9.76731 -3.94794,9.07514 1.79452,0.76908 c 2.36947,1.0268 3.46222,3.75754 2.43542,6.127 l -0.79472,1.79452 9.10078,3.94794 4.71702,-10.89529 c 1.02681,-2.36947 -0.066,-5.1002 -2.43542,-6.127 l -10.86966,-4.69139 z m -9.81858,0.17945 -2.30724,5.35792 5.58865,2.40979 2.33287,-5.33229 -5.61428,-2.43542 z m -7.1268,6.53718 c -1.81837,-0.0175 -3.53675,1.04287 -4.30684,2.81996 l -1.74325,4.02485 3.15322,1.3587 c 1.50286,-2.56035 4.56376,-3.77369 7.4088,-2.9225 l 1.35871,-3.15322 -4.05049,-1.74325 c -0.59236,-0.2567 -1.21403,-0.37872 -1.82015,-0.38454 z m -13.71525,1.05107 -2.43542,5.61428 6.127,2.64051 2.43542,-5.58864 -6.127,-2.66615 z m 20.99587,1.69198 -1.35871,3.12759 c 2.56923,1.49507 3.78587,4.58585 2.94814,7.43443 l 3.12759,1.35871 1.74325,-4.02485 c 1.02681,-2.36946 -0.0403,-5.1002 -2.40979,-6.127 l -4.05048,-1.76888 z m -27.48177,5.2041 -4.71702,10.86966 c -1.0268,2.36945 0.066,5.10019 2.43541,6.127 l 10.86966,4.71702 3.92231,-9.07514 -1.79452,-0.79471 c -2.36945,-1.02681 -3.46222,-3.7319 -2.43542,-6.10137 l 0.79471,-1.82015 -9.07513,-3.92231 z m 13.51016,0.33327 -1.74325,4.02485 c -1.02679,2.36946 0.066,5.1002 2.43542,6.127 l 4.05049,1.74325 1.3587,-3.12759 c -2.57515,-1.49556 -3.7763,-4.55729 -2.9225,-7.4088 l -3.17886,-1.35871 z m 41.27393,3.53777 -8.48551,4.76829 5.89627,6.20391 -7.04989,6.63972 3.23013,9.51095 -9.53658,-0.20509 -5.38356,6.63972 -8.51114,-7.66516 -6.30645,3.40958 -0.82036,-6.2039 -9.12641,1.84579 7.0499,0.6409 1.23053,7.02426 7.35752,-3.10196 9.53659,9.43404 6.20391,-8.6906 13.99724,0.41018 -5.07592,-11.92073 7.46007,-7.66516 -4.97338,-5.99882 3.30704,-5.07592 z m -19.25262,1.79452 -2.43542,5.61428 5.05029,2.17905 2.40978,-5.61428 -5.02465,-2.17905 z m -7.07553,1.12798 c -1.49961,2.57165 -4.57958,3.78004 -7.43444,2.9225 l -1.35871,3.12759 4.05049,1.76888 c 2.36945,1.02681 5.1002,-0.0403 6.127,-2.40978 l 1.74325,-4.05048 -3.12759,-1.35871 z m -13.35635,6.94735 -2.51233,5.79373 5.61428,2.43542 2.48669,-5.79373 -5.58864,-2.43542 z m 16.89411,0.12818 -0.79471,1.79452 c -1.0268,2.36944 -3.75755,3.43658 -6.127,2.40978 l -1.79452,-0.76908 -3.92231,9.07514 10.86966,4.71702 c 2.36947,1.02679 5.10019,-0.0659 6.127,-2.43542 l 4.71702,-10.86966 -9.07514,-3.9223 z m -24.91817,19.61153 c -1.35179,0.05 -2.7919,0.49606 -4.38376,1.66633 l -17.50937,14.8176 0.0769,0.0769 c -0.95366,0.97985 -1.53815,2.31985 -1.53816,3.79412 0,3.0019 2.43292,5.43484 5.43483,5.43483 1.39756,0 2.67669,-0.51699 3.64031,-1.38434 l 0.0513,0.0513 15.12523,-12.94617 7.35752,6.94735 -13.58707,18.63736 -5.28101,10.86966 -9.71604,17.0992 -20.63696,16.76593 0.10254,0.12818 c -0.6112,0.87939 -0.97416,1.95063 -0.97416,3.10195 0,3.0019 2.43292,5.43482 5.43482,5.43483 0.80051,0 1.57138,-0.17606 2.25597,-0.48708 l 0.0256,0.0256 0.15381,-0.12818 21.07278,-17.07356 12.12582,-20.20116 3.8454,0.10255 14.79196,12.33091 c -0.43529,8.36988 -0.39399,16.81598 -1.25617,25.12326 0,3.00189 2.43293,5.43483 5.43483,5.43483 2.39141,0 4.39941,-1.54508 5.1272,-3.69159 l 1.38434,-31.32717 -15.5354,-13.56143 12.94617,-15.43286 17.43246,14.63815 c 0.95777,1.55335 2.65688,2.58922 4.61448,2.58923 3.0019,0 5.43485,-2.43292 5.43483,-5.43483 0,-2.15552 -1.25657,-3.99114 -3.07632,-4.87083 l -45.45259,-37.37727 c -1.59117,-0.62103 -3.18409,-1.21787 -4.92211,-1.15361 z m 50.55415,3.87103 -14.63814,0.0769 -7.10117,9.84421 c 2.274,1.68713 5.07967,2.69178 8.12661,2.69178 7.18724,0 13.06588,-5.56518 13.6127,-12.6129 z"
         style="fill:#000000;fill-opacity:1;stroke:none" />
      <path
         id="path2626"
         d="m 227.82088,334.62675 0,181.47711 181.47712,0 0,-181.47711 -181.47712,0 z m 4.97338,4.97338 171.55599,0 0,171.53035 -171.55599,0 0,-171.53035 z"
         style="fill:#000000;fill-opacity:1;stroke:none;display:inline" />
    </g>
    <g
       id="g3000"
       style="fill:#000000"
       transform="translate(0,-259.71429)">
      <path
         id="path2621"
         d="m 562.83984,355.17677 -17.2018,17.20174 13.664,-4.97338 0,11.79255 8.101,3.53777 -3.5378,10.9722 10.357,14.71505 -11.1773,4.76829 -1.8715,12.84363 -5.7937,-1.05108 -3.1019,6.84481 3.7172,-3.53776 8.2804,4.97338 3.5378,-16.97102 16.5608,-6.63972 -15.5354,-15.74049 10.3569,-16.79157 -14.9201,-1.23053 -1.4356,-20.71387 z m -17.0992,26.5076 c -9.4345,0 -17.0992,7.66468 -17.0992,17.0992 0,9.43453 7.6647,17.09921 17.0992,17.0992 9.4345,0 17.0992,-7.66468 17.0992,-17.0992 0,-9.43452 -7.6647,-17.0992 -17.0992,-17.0992 z m -73.75473,0.20509 0,3.74285 57.39893,0 0,-3.74285 -57.39893,0 z m 73.75473,3.33268 c 7.4904,-1e-5 13.5614,6.07099 13.5614,13.56143 0,7.49044 -6.071,13.56144 -13.5614,13.56144 -7.4905,-10e-6 -13.5615,-6.071 -13.5615,-13.56144 0,-7.49044 6.071,-13.56143 13.5615,-13.56143 z m 0.026,7.02426 c -3.6022,0 -6.5628,2.96054 -6.5628,6.56281 0,3.60227 2.9349,6.51154 6.5372,6.51154 3.6022,0 6.5115,-2.90927 6.5115,-6.51154 0,-3.60226 -2.8836,-6.56281 -6.4859,-6.56281 z m 0,1.17925 c 2.9733,0 5.3579,2.41025 5.3579,5.38356 10e-5,2.97331 -2.4102,5.38355 -5.3835,5.38355 -2.9733,10e-6 -5.3836,-2.41025 -5.3836,-5.38355 0,-2.97331 2.4359,-5.38356 5.4092,-5.38356 z m 39.5563,1.10235 c -2.9635,0 -5.7216,0.93116 -7.9984,2.48669 l 13.6896,13.68961 -16.3557,7.38317 c 2.6014,2.95989 6.4172,4.81956 10.6645,4.81956 7.8335,0 14.1768,-6.34318 14.1767,-14.1767 0,-7.83351 -6.3432,-14.20233 -14.1767,-14.20233 z m -134.56322,2.89686 0,3.74286 70.65272,0 0,-3.74286 -70.65272,0 z m 42.78645,15.12523 0,3.74286 33.96767,0 0,-3.74286 -33.96767,0 z m 60.37277,8.30606 -18.2272,0.82035 -10.357,9.3315 -18.0221,28.58412 -0.205,32.53206 c 0.2565,8.05005 9.7028,8.72702 9.7416,0 l -0.2051,-28.40467 11.3824,-12.63854 17.6119,-12.84362 1.6664,-11.17729 6.6141,-6.20391 z m 18.663,2.48669 -1.2562,9.92113 20.3037,18.25282 c 5.1246,4.27275 9.8174,-0.76182 5.1785,-5.81937 l -24.226,-22.35458 z m -77.2925,4.74266 c -3.77435,0.28869 -6.30496,2.12848 -7.87027,5.17847 l -13.66398,18.4579 c -3.49015,5.88016 2.60915,10.19685 6.84481,5.17847 l 13.04871,-18.45791 20.50883,-0.20508 5.7937,-10.15185 -24.6618,0 z"
         style="fill:#000000;fill-opacity:1;stroke:none" />
      <path
         id="path2628"
         d="m 436.19014,334.62675 0,181.47711 181.4771,0 0,-181.47711 -181.4771,0 z m 4.97338,4.97338 171.55602,0 0,171.53035 -171.55602,0 0,-171.53035 z"
         style="fill:#000000;fill-opacity:1;stroke:none;display:inline" />
    </g>
    <g
       id="g2996"
       style="fill:#000000"
       transform="translate(0,-259.71429)">
      <path
         id="path2798"
         d="m 733.88314,352.69008 0,33.96767 3.5377,0 0,-33.96767 -3.5377,0 z m -11.5362,13.71525 0,26.5076 3.5377,0 0,-26.5076 -3.5377,0 z m 23.1236,0 0,26.5076 3.4865,0 0,-26.5076 -3.4865,0 z m -9.7929,26.76396 c -8.6916,1e-5 -15.7405,7.0746 -15.7405,15.76613 0,8.69153 7.049,15.7405 15.7405,15.74049 8.6915,1e-5 15.7661,-7.04897 15.7661,-15.74049 0,-8.69153 -7.0746,-15.76613 -15.7661,-15.76613 z m 0,3.28141 c 6.9005,-10e-6 12.5103,5.58417 12.5103,12.48472 0,6.90055 -5.6098,12.48472 -12.5103,12.48472 -6.9006,0 -12.4848,-5.58417 -12.4848,-12.48472 0,-6.90055 5.5842,-12.48472 12.4848,-12.48472 z m 0,6.46026 c -3.3186,1e-5 -6.0245,2.73151 -6.0245,6.0501 0,3.31858 2.7059,5.99882 6.0245,5.99882 3.3185,0 5.9988,-2.68024 5.9988,-5.99882 0,-3.31858 -2.6546,-6.0501 -5.9732,-6.0501 l -0.026,0 z m 0,1.07672 0.026,0 c 2.7273,0.0139 4.9477,2.24276 4.9477,4.97338 10e-5,2.73916 -2.2342,4.94774 -4.9733,4.94774 -2.7392,0 -4.9478,-2.20859 -4.9478,-4.94774 0,-2.73062 2.2203,-4.95951 4.9478,-4.97338 z m -5.3836,25.35398 0,12.99744 -5.9475,-0.0256 11.4336,12.10018 11.2286,-12.04891 -5.9476,-0.0256 0,-12.99744 -10.7671,0 z m 23.8671,27.50741 -4.2556,14.20233 -3.3839,0 0.1025,10.3313 c -1.9291,-0.24997 -3.9621,-0.43861 -6.127,-0.56399 l 0,-4.71702 -3.0763,0 0,-10.9722 -2.9481,0 0,10.9722 -3.0763,0 0,4.74266 c -2.1956,0.10738 -4.4154,0.27126 -6.6654,0.51272 l 0.1025,-10.22876 -3.3839,0 -4.2556,-14.20233 -2.0509,0 4.1018,14.20233 -25.3283,0 13.1512,14.74069 c -3.3867,1.50871 -6.7936,3.46229 -10.2287,6.05009 l 78.241,-0.12818 c -3.282,-1.94155 -6.8002,-3.98046 -10.9979,-5.76809 l 13.3564,-14.97142 -25.3284,0 4.1018,-14.20233 -2.0509,0 z m 0.4358,16.40703 18.5861,0 -11.4336,11.84382 c -2.2127,-0.83865 -4.61,-1.63253 -7.255,-2.2816 l 0.1025,-9.56222 z m -56.4248,0.0769 18.5861,0 0.1026,9.28022 c -2.4834,0.5634 -4.9857,1.32707 -7.5114,2.30724 L 698.17214,473.333 z m 32.609,10.99783 9.8186,0 0,5.99882 -9.8186,0 0,-5.99882 z"
         style="fill:#000000;fill-opacity:1;stroke:none;display:inline" />
      <path
         id="path2630"
         d="m 646.20014,334.62675 0,181.47711 181.4771,0 0,-181.47711 -181.4771,0 z m 4.9733,4.97338 171.556,0 0,171.53035 -171.556,0 0,-171.53035 z"
         style="fill:#000000;fill-opacity:1;stroke:none;display:inline" />
    </g>
    <g
       id="g2984"
       style="fill:#000000"
       transform="translate(0,-259.71429)">
      <path
         id="path2424"
         d="m 1016.1096,344.61474 c -4.6684,2.51953 -10.3855,2.29146 -9.5366,11.12602 0.5968,3.13679 1.9291,6.80482 -6.2808,6.46027 -13.08956,-0.53834 -8.83256,6.2604 -9.38276,9.81858 l 4.2556,-0.15382 c -0.5263,-3.05281 0.2205,-6.23744 6.71656,-6.46027 4.6842,-0.0434 9.7852,0.42011 8.7931,-6.43463 -0.6349,-4.96446 1.3868,-8.1706 8.0754,-10.25439 l -2.6405,-4.10176 z m -141.86946,9.17768 -2.615,4.10176 c 6.6888,2.08379 8.6847,5.28993 8.0498,10.25439 -0.992,6.85474 4.109,6.4169 8.7931,6.46027 6.4961,0.22283 7.2686,3.38183 6.7422,6.43463 l 4.23,0.15382 c -0.5502,-3.55818 3.7325,-10.35692 -9.3572,-9.81858 -8.2098,0.34455 -6.9032,-3.32348 -6.3063,-6.46027 0.8489,-8.83456 -4.8682,-8.60649 -9.5366,-11.12602 z m 92.0588,14.15107 c -3.081,-0.0783 -6.5749,2.64735 -4.8709,7.1268 l 10.562,18.02209 -5.9988,6.409 c 1.9754,2.20981 2.8066,4.4299 7.8702,6.63972 l 7.2551,-8.71624 c 2.5907,-3.36914 0.4282,-6.04571 -0.6153,-8.89568 l -10.7927,-18.63736 c -0.7105,-1.27962 -2.0092,-1.91276 -3.4096,-1.94833 z m -47.7086,0.25636 c -2.0739,0.0944 -4.0977,1.10549 -4.5888,2.9225 l -2.4868,22.99547 c 0.083,2.83131 -0.8705,5.65419 1.2306,8.48551 l 3.1019,4.35812 c 4.0787,0.0777 7.5235,-1.12515 9.9468,-4.35812 l -4.5632,-5.79373 2.2816,-24.226 c 0.4622,-3.10376 -2.2557,-4.50516 -4.9221,-4.38375 z m 27.7382,10.79274 c -6.9543,0 -12.6129,5.63304 -12.6129,12.58727 0,6.95423 5.6586,12.6129 12.6129,12.6129 6.9542,0 12.5872,-5.65867 12.5872,-12.6129 0,-6.95423 -5.633,-12.58727 -12.5872,-12.58727 z m -50.5799,25.48217 c -6.4132,4.98829 -10.4657,12.19217 -26.3025,8.28042 l -0.2051,5.17847 c 13.1629,4.51457 21.2109,0.85714 26.0975,-7.87025 5.872,12.56524 24.6923,14.91573 35.0187,0.6409 11.9351,12.77681 23.3425,13.39122 34.1727,0.20509 9.6708,10.32065 20.1119,14.20996 32.5321,1.43562 6.35056,5.35882 13.17046,13.92253 29.84036,2.48669 l 0.205,-5.38356 c -14.1528,9.70865 -21.7463,2.70551 -30.04536,-2.48669 -10.6232,11.23451 -21.5616,10.03516 -32.7372,-0.82035 -13.971,13.84507 -24.1541,8.30889 -33.7625,-0.20509 -11.3576,10.49063 -22.9051,12.83959 -34.8137,-1.46125 z m 34.4035,10.35694 -4.3581,5.17846 c 6.4551,8.15005 11.5592,15.85658 11.6131,30.66064 l 0.4102,25.07199 -27.3536,9.33149 c -6.122,2.38552 -3.2768,14.11181 2.8968,12.43346 l 31.7118,-10.15185 c 2.5651,-1.30668 5.7214,-1.26217 6.2039,-7.25499 l 1.051,-21.35477 c 1.8379,-2.65077 5.0567,-3.88791 9.1008,-4.33248 l 12.2283,7.46007 -5.3834,27.96886 c -1.5072,9.00268 11.2659,10.18208 12.8436,3.30704 l 6.4089,-28.58412 c 1.5982,-4.74156 0.2779,-8.17209 -3.1019,-11.6131 -7.2928,-5.94281 -23.8177,-13.07561 -20.5088,-37.27472 -13.1393,13.53237 -23.9241,9.82726 -33.7626,-0.84598 z m -28.8918,50.0158 c -1.8406,0.14297 -3.2517,1.71805 -3.6402,5.92191 -0.858,4.51076 -0.7928,9.86718 -9.1008,7.46007 -5.0147,-2.19517 -8.1618,1.0732 -10.9978,5.99882 l 3.3326,2.48669 c 1.5064,-4.35117 4.0163,-6.45834 8.2805,-4.74266 8.0188,2.30256 9.3059,-0.0792 11.3823,-8.30606 0.5899,-3.39062 1.1541,-7.52845 6.2808,-2.48669 l 2.4355,-2.2816 c -2.5187,-2.0537 -5.6062,-4.23432 -7.9729,-4.05048 z m 104.00526,2.51232 c -2.3058,0.0685 -5.1839,2.13652 -7.56256,4.07612 l 2.46106,2.2816 c 5.1266,-5.04176 5.6652,-0.90393 6.2551,2.4867 2.0764,8.22683 3.3636,10.58298 11.3824,8.28042 4.264,-1.71569 6.7996,0.41712 8.3061,4.76829 l 3.307,-2.48669 c -2.8361,-4.92562 -5.9576,-8.19399 -10.9722,-5.99882 -8.308,2.40711 -8.2684,-2.94931 -9.1264,-7.46007 -0.4164,-4.50413 -2.016,-6.00802 -4.0505,-5.94755 z"
         style="fill:#000000;fill-opacity:1;stroke:none" />
      <path
         id="path2632"
         d="m 852.92864,334.62675 0,181.47711 181.47716,0 0,-181.47711 -181.47716,0 z m 4.9734,4.97338 171.55596,0 0,171.53035 -171.55596,0 0,-171.53035 z"
         style="fill:#000000;fill-opacity:1;stroke:none;display:inline" />
    </g>
    <g
       id="g3020"
       style="fill:#000000"
       transform="translate(0,-259.71429)">
      <path
         id="rect2656"
         d="m 167.58427,545.11375 c -8.40978,0 -15.2534,18.03674 -15.25341,40.27413 0,22.23738 6.84364,40.29979 15.25341,40.29976 8.40977,0 15.22776,-18.06238 15.22777,-40.29976 0,-22.23738 -6.81799,-40.27413 -15.22777,-40.27413 z m 0.12818,3.25577 c 6.70958,0 12.15145,16.48395 12.15145,36.81327 1e-5,20.32933 -5.44186,36.83891 -12.15145,36.83891 -6.7096,10e-6 -12.15146,-16.50958 -12.15146,-36.83891 1e-5,-20.32932 5.44187,-36.81327 12.15146,-36.81327 z m -80.163719,48.58019 c -1.40016,0.0798 -3.00935,0.76866 -3.99922,2.15342 l -16.04812,18.45791 -0.10255,7.56261 -9.12641,9.20332 c -2.35196,2.48881 1.46678,6.73322 4.05049,4.25557 l 10.45948,-10.66457 0.20509,-6.43463 10.35693,8.92132 -5.69118,7.97279 c -1.17179,2.22491 -0.96973,4.2242 0.51272,5.69119 l 12.53599,12.22836 c 3.57573,2.97032 6.90465,-1.18744 3.92231,-4.05048 l -11.8951,-11.27983 8.79314,-12.536 7.46007,7.66516 c 2.263929,2.69785 5.223129,1.52786 6.203919,-0.20509 l 7.15244,-13.35634 c 2.77209,-3.96839 -1.7815,-7.12511 -4.76829,-3.23014 l -6.10138,10.45948 -19.688429,-19.45771 6.43463,-7.04989 8.89569,6.53717 c 3.259289,2.26615 5.781579,-2.29018 3.640309,-4.15303 l -11.100379,-8.17787 c -0.50329,-0.37332 -1.26207,-0.5606 -2.10215,-0.51272 z m -22.02131,0.41017 c -4.17407,0 -7.56263,3.38855 -7.56262,7.56262 0,4.17406 3.38855,7.56262 7.56262,7.56261 4.17406,0 7.56262,-3.38856 7.56261,-7.56261 0,-4.17407 -3.38855,-7.56262 -7.56261,-7.56262 z m 57.655329,27.86631 0,2.71742 c 9.01675,1.30073 15.38159,10.92964 15.38159,17.97082 0,0.84906 -0.0549,1.67227 -0.17945,2.48669 l 3.40958,0 c 0.10281,-0.81564 0.15382,-1.64324 0.15382,-2.48669 0,-8.92699 -7.99598,-19.69351 -18.76554,-20.68824 z m -7.02426,8.3317 0,3.58904 c 6.23342,2.32616 10.69021,8.31477 10.69021,15.35595 0,0.84906 -0.0549,1.67227 -0.17946,2.48669 l 3.40959,0 c 0.10281,-0.81564 0.15381,-1.64324 0.15381,-2.48669 0,-8.92698 -5.94143,-16.48536 -14.07415,-18.94499 z m -54.271379,15.91994 0,15.89431 -7.30626,-0.0256 13.99725,14.8176 13.76652,-14.74069 -7.30625,-0.0256 0,-15.91995 -13.15126,0 z m 67.884089,12.536 0,41.29956 5.28101,0 0,-36.01855 43.65808,0 0,-5.28101 -48.93909,0 z m -62.679989,19.04753 c -22.23738,3e-5 -40.29978,6.84364 -40.29976,15.25341 0,8.4098 18.06238,15.22776 40.29976,15.22777 22.23738,3e-5 40.274139,-6.81799 40.274139,-15.22777 0,-8.40975 -18.036749,-15.2534 -40.274139,-15.25341 z m 0.20509,3.23013 c 20.32933,4e-5 36.813279,5.44187 36.813279,12.15146 0,6.7096 -16.483949,12.15146 -36.813279,12.15146 -20.32932,3e-5 -36.8389,-5.44187 -36.8389,-12.15146 -2e-5,-6.70957 16.50958,-12.15146 36.8389,-12.15146 z"
         style="fill:#000000;fill-opacity:1;stroke:none" />
      <path
         id="path2640"
         d="m 19.085301,535.83079 0,181.47711 181.477119,0 0,-181.47711 -181.477119,0 z m 4.97338,4.97338 171.555999,0 0,171.53035 -171.555999,0 0,-171.53035 z"
         style="fill:#000000;fill-opacity:1;stroke:none;display:inline" />
    </g>
    <g
       id="g3008"
       style="fill:#000000"
       transform="translate(0,-259.71429)">
      <path
         id="path2661"
         d="m 381.18327,544.95994 c -4.82886,0 -9.14933,5.95368 -11.94637,15.22777 l 3.15322,-0.10254 c 2.22009,-7.2743 5.39425,-11.86946 8.92133,-11.86946 6.70958,0 12.15145,16.48394 12.15145,36.81327 2e-5,20.32933 -5.44187,36.8389 -12.15145,36.8389 -5.62298,2e-5 -10.35587,-11.6067 -11.74128,-27.32796 l -3.2045,0.0769 c 1.6057,17.71457 7.63089,30.91702 14.8176,30.917 8.40978,0 15.22776,-18.06239 15.22777,-40.29977 10e-6,-22.23737 -6.81799,-40.27412 -15.22777,-40.27412 z m -11.30547,18.43227 -14.8176,13.99724 14.74069,13.76652 0.0256,-7.30625 15.91994,0 0,-13.15126 -15.89431,0 0.0256,-7.30625 z m -110.95253,17.76573 c -4.08359,0 -7.40879,3.29957 -7.4088,7.38316 0,4.0836 3.32521,7.4088 7.4088,7.4088 4.0836,0 7.38317,-3.32521 7.38316,-7.4088 0,-4.08359 -3.29956,-7.38317 -7.38316,-7.38316 z m 55.93771,0.46145 0,4.12739 36.65945,0 0,-4.12739 -36.65945,0 z m 10.6133,6.35772 c -0.83306,-0.0219 -1.88998,0.10396 -3.2045,0.48709 l -18.61172,5.87064 3.51213,3.51213 16.99665,-5.28102 c 4.13167,-1.22619 4.91735,-4.49406 1.30744,-4.58884 z m -31.12208,3.74286 -25.91798,0.12818 c -2.20825,2.38544 -4.05291,5.54063 -7.84461,6.87044 l -3.66595,2.64051 -10.9722,-0.282 c -4.23924,0.1246 -4.03009,5.40381 0.15382,5.56301 l 15.22777,0.15381 8.0497,-5.43482 c 5.17891,1.14575 8.6102,2.64183 30.04537,0.58962 l 6.94735,4.07612 c 1.09356,0.52637 2.26186,0.81543 3.74286,0.17946 l 17.71446,-5.87064 c 4.35969,-1.62759 2.54967,-6.37323 -2.05088,-5.1272 l -17.86828,5.56301 -8.56242,-6.35773 c -1.32084,-1.23289 -2.71959,-2.41746 -4.99901,-2.69177 z m -48.40074,0.7178 c -4.91899,0.19621 -5.08151,5.76867 0,5.56301 l 8.35733,-0.43581 -4.10175,-4.99902 -4.25558,-0.12818 z m 89.57212,3.35832 0,4.12739 29.60956,0 0,-4.12739 -29.60956,0 z m -11.12601,11.17729 0,4.15302 36.65945,0 0,-4.15302 -36.65945,0 z m 18.4579,54.60464 0,41.29956 5.28102,0 0,-36.01855 43.65807,0 0,-5.28101 -48.93909,0 z m -61.88526,19.17571 c -22.23738,10e-6 -40.29978,6.84364 -40.29976,15.25341 0,8.40978 18.06238,15.22776 40.29976,15.22777 22.23738,10e-6 40.27413,-6.81799 40.27413,-15.22777 0,-8.40977 -18.03674,-15.2534 -40.27413,-15.25341 z m 0.20509,3.23013 c 20.32933,2e-5 36.81327,5.44187 36.81327,12.15146 0,6.70959 -16.48394,12.15145 -36.81327,12.15145 -20.32932,2e-5 -36.8389,-5.44186 -36.8389,-12.15145 -2e-5,-6.70959 16.50958,-12.15146 36.8389,-12.15146 z"
         style="fill:#000000;fill-opacity:1;stroke:none;display:inline" />
      <path
         id="path2646"
         d="m 228.72842,535.99464 0,181.47712 181.47711,0 0,-181.47712 -181.47711,0 z m 4.97338,4.97338 171.55599,0 0,171.53036 -171.55599,0 0,-171.53036 z"
         style="fill:#000000;fill-opacity:1;stroke:none;display:inline" />
    </g>
    <g
       id="g3004"
       style="fill:#000000"
       transform="translate(0,-259.71429)">
      <path
         id="path2968"
         d="m 575.11944,559.7519 c -5.8221,0 -10.562,10.32559 -10.562,23.02111 0,12.69552 4.7399,22.99548 10.562,22.99547 1.2999,0 2.5415,-0.52214 3.6916,-1.46125 -3.0877,-0.87033 -3.475,-6.09595 -3.025,-12.66417 l 5.2553,0 c -0.054,1.31106 -0.095,2.64211 -0.077,3.99921 0.3168,4.67555 1.7595,6.55925 5.5887,3.81976 4.3523,-3.21666 7.4328,-20.29791 6.2808,-26.94341 -0.4056,-2.16737 -3.5437,-5.21296 -6.2808,-1.17926 -2.4404,3.88655 -3.9923,8.34079 -4.8196,13.2538 l -5.1528,0 c 1.8067,-10.80641 4.3569,-13.59091 6.9986,-15.50976 -1.9225,-5.64587 -4.9896,-9.3315 -8.4599,-9.3315 z m -12.0233,10.84402 c -4.7357,2.1497 -5.1815,11.25817 -3.9479,21.09841 1.1433,7.74372 4.556,6.26274 5.8706,7.02426 -3.7701,-8.93597 -1.9328,-23.87442 -1.9227,-28.12267 z m 7.4857,9.66476 c 1.4556,-10e-6 2.6406,2.28615 2.6406,5.07593 -10e-5,2.78977 -1.185,5.05029 -2.6406,5.05029 -1.4555,0 -2.6405,-2.26052 -2.6405,-5.05029 10e-5,-2.78978 1.185,-5.07593 2.6405,-5.07593 z m -15.6123,3.61468 -36.2749,26.8665 c -0.2365,-0.73298 -0.5887,-1.4717 -0.9998,-2.20469 l -8.7931,-12.58727 c -2.487,-3.46918 -8.412,0.26612 -5.563,4.38376 l 8.0497,11.15165 -25.78982,11.40801 -13.02308,13.33071 0,8.63933 -18.099,13.40761 0,2.48669 18.099,-13.35634 0,6.40899 c 0.14649,4.9799 7.17441,4.66619 6.58845,-0.43581 l 0.15381,-10.94656 4.4863,-3.30704 4.58884,-2.89687 5.63991,8.97259 -28.25085,20.86769 0,2.25597 29.22504,-21.53423 1.8714,2.97378 -39.37686,28.84048 0,2.35851 40.42796,-29.53265 8.1779,13.07435 -16.68906,21.84185 c -2.44998,4.66696 2.84319,8.14073 6.43466,4.66575 l 16.9966,-22.55966 c 2.5098,-3.95788 1.6219,-6.66631 -0.1282,-9.07514 l -7.0499,-10.40821 4.8452,-1.89706 13.9204,12.15146 0.282,20.97023 c 0.3418,5.17947 7.7115,5.08596 7.6139,-0.15382 l -0.282,-21.09841 c 0.2835,-1.78102 -0.4942,-3.29995 -1.7689,-4.69139 l -15.5098,-14.04851 -0.4614,-0.71781 39.2999,-28.7123 0,-2.53796 -40.3766,29.55828 -1.9227,-2.9994 45.4013,-33.45496 0,-2.43542 -46.4268,34.30094 -5.2041,-8.10097 11.4337,-8.63932 c 1.4406,-1.07634 2.1534,-2.15379 2.3841,-3.23014 l 36.0698,-26.63578 0,-2.71741 z m 21.3035,2.69177 5.1785,0 c -0.131,1.02182 -0.2312,2.04542 -0.3076,3.10196 l -5.2041,0 c 0.065,-0.73917 0.1265,-1.4694 0.2051,-2.23033 0.042,-0.30485 0.085,-0.57746 0.1281,-0.87163 z m 18.4579,5.81937 c -0.7973,2.36681 -1.2663,4.57417 -3.1019,7.46007 4.9388,7.41902 6.8517,12.83482 9.5366,19.04754 -0.4602,-8.99205 -0.1315,-18.04675 -6.4347,-26.50761 z m -104.62039,4.56321 c -5.60353,0 -10.15183,4.54831 -10.15185,10.15185 0,5.60353 4.54832,10.15185 10.15185,10.15184 5.60349,0 10.15179,-4.54831 10.15189,-10.15184 0,-5.60354 -4.5484,-10.15186 -10.15189,-10.15185 z m 72.29349,5.81936 c -1.8627,0.14272 -3.75,1.36899 -4.7427,6.17828 l -0.846,11.40801 c 2.5984,-7.24191 5.5665,-12.71683 8.7163,-17.20175 -0.9064,-0.16372 -2.01,-0.47016 -3.1276,-0.38454 z m 19.6884,4.10176 -5.5886,0.43581 c 0.5468,6.70416 1.1633,13.35066 3.3326,18.43227 1.8836,-7.40812 1.9713,-13.05883 2.256,-18.86808 z"
         style="fill:#000000;fill-opacity:1;stroke:none;display:inline" />
      <path
         id="path2648"
         d="m 437.09768,535.99464 0,181.47712 181.47706,0 0,-181.47712 -181.47706,0 z m 4.97338,4.97338 171.55598,0 0,171.53036 -171.55598,0 0,-171.53036 z"
         style="fill:#000000;fill-opacity:1;stroke:none;display:inline" />
    </g>
    <g
       id="g2992"
       style="fill:#000000"
       transform="translate(0,-259.71429)">
      <path
         id="path2570"
         d="m 747.03434,556.11159 c -31.3345,0 -56.7837,25.42357 -56.7837,56.75806 0,31.3345 25.4492,56.75807 56.7837,56.75806 31.3345,0 56.758,-25.42355 56.7581,-56.75806 0,-31.33449 -25.4236,-56.75807 -56.7581,-56.75806 z m 0,9.79294 c 25.9167,0 46.9395,21.04846 46.9395,46.96512 0,14.42811 -6.5177,27.32992 -16.7659,35.94165 l -56.835,-74.57507 c 7.5784,-5.24305 16.7592,-8.3317 26.6614,-8.3317 z m -4.717,11.15166 c -5.0602,0 -9.4848,2.70021 -11.9207,6.74226 l 16.3301,20.35497 c 5.525,-1.84429 9.5109,-7.03429 9.5109,-13.1769 0,-7.68201 -6.2383,-13.92033 -13.9203,-13.92033 z m -26.1231,0.43581 56.4505,74.70325 c -7.3662,4.80712 -16.1616,7.61388 -25.6104,7.61388 -25.9167,10e-6 -46.9651,-21.02282 -46.9651,-46.93948 0,-14.11071 6.2573,-26.76475 16.125,-35.37765 z m 6.1527,13.43325 c -6.501,2.82168 -12.8447,5.77591 -17.1761,10.76711 -1.8141,10.65287 -1.1563,19.74452 3.1019,26.53324 l 6.8448,-4.76829 25.2515,23.81583 c 7.3785,5.64776 11.8657,-1.24016 6.2295,-6.61409 l -12.6385,-12.63853 0,-22.38022 -11.6131,-14.71505 z m 39.2486,8.6906 c -0.8086,0 -1.4612,0.6526 -1.4612,1.46125 0,0.80863 0.6526,1.46124 1.4612,1.46125 0.8087,0 1.4613,-0.65263 1.4613,-1.46125 0,-0.80863 -0.6526,-1.46124 -1.4613,-1.46125 z m 5.2811,0 c -0.8087,0 -1.4613,0.6526 -1.4613,1.46125 0,0.80863 0.6526,1.46124 1.4613,1.46125 0.8086,0 1.4612,-0.65263 1.4612,-1.46125 0,-0.80863 -0.6526,-1.46124 -1.4612,-1.46125 z m -9.5366,2.17906 c -0.8087,0 -1.4613,0.67825 -1.4613,1.48688 0,0.80863 0.6527,1.46126 1.4613,1.46126 0.8086,0 1.4868,-0.65263 1.4869,-1.46126 0,-0.80862 -0.6783,-1.48689 -1.4869,-1.48688 z m 13.3307,0.15381 c -0.8086,0 -1.4613,0.65263 -1.4613,1.46125 0,0.80863 0.6527,1.46125 1.4613,1.46125 0.8086,0 1.4868,-0.6526 1.4868,-1.46125 0,-0.80862 -0.6782,-1.46125 -1.4868,-1.46125 z m -6.2808,2.9225 c -0.8087,0 -1.4613,0.67826 -1.4613,1.48689 0,0.80863 0.6526,1.46126 1.4613,1.46125 0.8086,0 1.4612,-0.65262 1.4612,-1.46125 0,-0.80863 -0.6526,-1.48689 -1.4612,-1.48689 z m 9.0751,0 c -0.8086,0 -1.4613,0.67826 -1.4612,1.48689 0,0.80863 0.6526,1.46126 1.4612,1.46125 0.8086,0 1.4613,-0.65262 1.4612,-1.46125 0,-0.80863 -0.6526,-1.48689 -1.4612,-1.48689 z m -18.3041,0.15382 c -0.8086,0 -1.4613,0.65262 -1.4612,1.46125 0,0.80863 0.6526,1.46126 1.4612,1.46125 0.8086,0 1.4613,-0.65261 1.4613,-1.46125 0,-0.80863 -0.6527,-1.46125 -1.4613,-1.46125 z m 4.9734,1.76888 c -0.8086,0 -1.4613,0.65261 -1.4613,1.46125 0,0.80863 0.6527,1.46125 1.4613,1.46126 0.8086,0 1.4613,-0.65264 1.4612,-1.46126 0,-0.80862 -0.6526,-1.46124 -1.4612,-1.46125 z m 7.9215,0.282 c -0.8086,0 -1.4868,0.65263 -1.4869,1.46125 0,0.80863 0.6783,1.46124 1.4869,1.46125 0.8086,0 1.4612,-0.6526 1.4613,-1.46125 0,-0.80863 -0.6527,-1.46125 -1.4613,-1.46125 z m -10.1262,2.9225 c -0.8086,0 -1.4612,0.67825 -1.4613,1.48689 0,0.80863 0.6527,1.46126 1.4613,1.46125 0.8086,0 1.4613,-0.65262 1.4613,-1.46125 0,-0.80863 -0.6527,-1.4869 -1.4613,-1.48689 z m 13.0487,0 c -0.8086,0 -1.4612,0.67825 -1.4612,1.48689 0,0.80863 0.6526,1.46126 1.4612,1.46125 0.8087,0 1.4613,-0.65262 1.4613,-1.46125 0,-0.80863 -0.6526,-1.4869 -1.4613,-1.48689 z m -84.086,7.7677 c -4.8605,4.73789 -4.3134,14.02982 0.5896,26.96906 l 0,47.01639 c 0.073,7.75168 13.8821,7.95079 13.7665,0.28199 l -0.3076,-39.99213 c -8.7276,-11.18868 -11.8858,-22.70044 -14.0485,-34.27531 z m 55.6557,2.64051 c -5.4695,0.30532 -3.4488,6.7649 -1.3074,8.79314 l 21.5342,22.40585 c 1.5718,-0.64449 3.1302,-1.29409 4.6914,-2.05088 l -22.252,-29.14811 -2.6662,0 z m 16.4327,0.0513 18.0733,22.12385 c 1.835,-1.98785 3.6286,-4.41511 5.3579,-7.51134 l -0.1537,-14.50996 -23.2775,-0.10255 z"
         style="fill:#000000;fill-opacity:1;stroke:none" />
      <path
         id="path2650"
         d="m 647.10764,535.99464 0,181.47712 181.4771,0 0,-181.47712 -181.4771,0 z m 4.9734,4.97338 171.556,0 0,171.53036 -171.556,0 0,-171.53036 z"
         style="fill:#000000;fill-opacity:1;stroke:none;display:inline" />
    </g>
    <g
       id="g2988"
       style="fill:#000000"
       transform="translate(0,-259.71429)">
      <path
         sodipodi:nodetypes="ccccccccccccccccccccccccccccccccccccccccccccccccccccccccccccccccccccc"
         id="path2537"
         d="m 937.40714,555.70141 -4.3582,3.53777 7.4602,9.94676 -9.3315,8.89568 2.0764,2.07652 11.1773,-10.35694 -7.2292,-9.94676 0.205,-4.15303 z m -14.7151,22.71348 c -0.5821,0.0159 -1.1829,0.0996 -1.8458,0.25636 -5.8433,1.19323 -9.2073,5.62478 -9.9723,13.45889 1.0444,5.56614 2.8533,10.7067 10.2544,12.61291 5.7374,0.67941 10.8755,1.09483 14.2792,-0.94854 6.4805,-3.82475 7.1912,-9.92646 4.9221,-16.27884 -2.1794,-4.37788 -6.0374,-5.94391 -9.9724,-5.63992 -1.8095,1.11958 -3.2273,2.74903 -4.2556,4.8452 0.5402,-1.84338 0.421,-3.3167 2.2047,-5.87064 -1.2905,-1.37714 -3.0915,-2.50408 -5.6143,-2.43542 z m 90.11056,2.15342 c -19.02846,3.16618 -46.14396,6.74991 -70.42216,10.17749 l 2.1535,2.30724 6.0501,5.15283 c 0.8616,0.68512 0.7767,1.07642 0.1282,1.61507 l -8.4086,8.1266 12.3821,-6.43463 c 2.7654,-1.85508 2.8673,-3.90691 0.359,-6.15263 l -5.4605,-2.94814 c 17.2307,-2.14915 35.0484,-4.28623 49.0417,-6.43463 l -63.8849,30.17355 c -21.5747,0.69142 -39.7862,-1.14172 -43.9401,-13.61271 1.5479,-0.83966 4.3103,-1.67238 7.9728,-2.51233 l -0.2564,-2.30723 c -6.7927,1.40381 -11.0265,2.6823 -11.4592,3.76849 l 0.4102,75.21596 c 9.0177,13.7235 26.6005,16.98811 47.7341,14.74069 l 0,-0.0769 79.26646,-37.24909 -0.1538,-15.33031 -79.18956,37.04399 0,12.92054 c -18.5234,3.36303 -36.9848,-1.3846 -44.3502,-12.04892 l -0.4102,-68.57625 c 9.5908,11.68222 27.0867,11.99873 45.3757,11.17729 l 77.16426,-36.55691 -0.1025,-2.17906 z m -103.90266,2.92251 -8.5625,6.89608 c -2.0331,2.09168 -1.6233,4.37522 -0.077,6.74226 l 6.9473,7.02426 -3.9736,-8.51115 c -0.7419,-0.94627 -0.8521,-1.82608 -0.2819,-2.84559 l 5.9475,-9.30586 z m 104.95366,4.53757 -78.72806,37.09526 0,15.89431 78.88196,-36.73636 -0.1539,-16.25321 z m -101.72356,14.79196 5.6399,10.56202 c 0.8569,1.60725 3.151,1.381 4.5376,0.3589 l 7.1012,-6.22954 -7.7677,3.15323 c -1.0223,0.45439 -1.3248,-0.0253 -1.7945,-0.30764 l -7.7165,-7.53697 z m 101.95436,10.61329 -78.95886,36.91582 0,16.12503 79.11266,-36.83891 -0.1538,-16.20194 z"
         style="fill:#000000;fill-opacity:1;stroke:none" />
      <path
         id="path2652"
         d="m 853.83614,535.99464 0,181.47712 181.47716,0 0,-181.47712 -181.47716,0 z m 4.9734,4.97338 171.55596,0 0,171.53036 -171.55596,0 0,-171.53036 z"
         style="fill:#000000;fill-opacity:1;stroke:none;display:inline" />
    </g>
    <g
       id="g3204"
       transform="matrix(0.71225226,0,0,0.71225226,144.06701,135.39058)">
      <path
         id="path2976"
         d="m 564.40756,500.9923 c -18.48017,0 -33.46875,14.98858 -33.46875,33.46875 0,18.48017 14.98858,33.4375 33.46875,33.4375 18.48017,0 33.46875,-14.95733 33.46875,-33.4375 0,-18.48018 -14.98858,-33.46875 -33.46875,-33.46875 z m -79.40625,17.375 c -6.68171,0.17997 -12.81678,4.56971 -16.9375,16.84375 -16.32685,-7.83903 -24.39426,-0.0181 -26.25,6.40625 -1.7645,9.61726 -0.28173,21.1417 18.375,26.25 9.18673,2.16423 19.48785,-0.46006 28.40625,5.71875 1.45407,-9.54324 4.13447,-13.84611 8.5625,-21.78125 5.21374,-8.17754 9.61433,-24.27131 -2.84375,-31.4375 -3.12497,-1.30188 -6.27536,-2.08182 -9.3125,-2 z m 120.1875,61.84375 -70,0.15625 -31.96875,19.28125 c -2.12168,1.7857 -2.60251,3.58929 -2.84375,5.375 l 53.9375,0.53125 10.15625,10.1875 0.53125,46.96875 36.25,-13.59375 0.5625,-25.34375 9.09375,23.375 c 1.12539,2.44793 -0.0251,4.08231 -1.4375,5 l -41.25,17.15625 c -8.90617,3.63685 -2.14093,23.75882 7.6875,20.53125 l 56.25,-21.59375 c 7.30608,-3.82263 7.32676,-12.56596 4.09375,-21.25 l -20.15625,-52.15625 c -2.16625,-5.67989 -4.94836,-14.01653 -10.90625,-14.625 z m -123.46875,30 -8.5625,7.15625 0.15625,22.3125 21.09375,0.1875 10.53125,-11.0625 0,-18.40625 -23.21875,-0.1875 z m 68.9375,0 -23.21875,0.15625 0,18.40625 10.53125,11.0625 21.0625,-0.1875 0.1875,-22.3125 -8.5625,-7.125 z m -41.4375,6.78125 0,9.84375 13.9375,0 0,-9.84375 -13.9375,0 z m -56.3125,13.8125 c -8.50785,0 -15.40625,6.8984 -15.40625,15.40625 0,8.50784 6.8984,15.40625 15.40625,15.40625 8.50785,0 15.40625,-6.89841 15.40625,-15.40625 0,-8.50785 -6.8984,-15.40625 -15.40625,-15.40625 z m 63.625,4.53125 c -9.34614,0 -16.9375,7.56011 -16.9375,16.90625 0,9.34613 7.59136,16.9375 16.9375,16.9375 9.34614,0 16.9375,-7.59137 16.9375,-16.9375 0,-9.34614 -7.59136,-16.90625 -16.9375,-16.90625 z m 24.625,9.5 0,13.9375 9.84375,0 0,-13.9375 -9.84375,0 z m -59.46875,0.34375 0,13.9375 9.84375,0 0,-13.9375 -9.84375,0 z m 38.4375,0.90625 c 1.20382,-0.0345 2.2546,0.6118 3.1875,1.53125 2.14568,2.73411 -0.2115,6.03053 -2.03125,7.75 -1.71088,1.37902 -2.49811,1.98235 -4.3125,3.5 -2.33403,-1.4782 -3.72924,-2.37109 -5.59375,-3.6875 -3.097,-2.1637 -3.01571,-5.56529 -1.75,-7.5625 0.99734,-1.27291 3.5163,-2.2975 6.46875,0.9375 1.47961,-1.73084 2.82743,-2.43426 4.03125,-2.46875 z m -25.71875,17.5 -21.09375,0.1875 -0.15625,22.3125 8.5625,7.15625 23.21875,-0.1875 0,-18.40625 -10.53125,-11.0625 z m 43.5625,0.0312 -10.53125,11.0625 0,18.40625 23.21875,0.15625 8.5625,-7.125 -0.1875,-22.3125 -21.0625,-0.1875 z m -28.75,13 0,9.84375 13.9375,0 0,-9.84375 -13.9375,0 z"
         style="fill:#000000;fill-opacity:1;stroke:none" />
      <path
         sodipodi:nodetypes="ccccccc"
         id="path3109-4"
         d="m 516.2169,648.73579 c 2.95923,-3.46167 5.362,-2.78825 7.2278,-0.94936 2.14568,2.73412 -0.20399,6.03385 -2.02374,7.75331 -1.71088,1.37903 -2.52509,1.96781 -4.33948,3.48545 -2.33403,-1.47819 -3.71832,-2.355 -5.58283,-3.67141 -3.097,-2.1637 -3.01602,-5.55365 -1.75031,-7.55087 0.99734,-1.2729 3.51611,-2.30211 6.46856,0.93288 z"
         style="color:#000000;fill:#ffd5d5;fill-opacity:1;fill-rule:nonzero;stroke:none;stroke-width:1px;marker:none;visibility:visible;display:inline;overflow:visible;enable-background:accumulate" />
      <path
         id="path2652-4"
         d="m 411.30723,470.51832 0,253.19795 253.19801,0 0,-253.19795 -253.19801,0 z m 6.93892,6.93889 239.35589,0 0,239.32017 -239.35589,0 0,-239.32017 z"
         style="fill:#000000;fill-opacity:1;stroke:none;display:inline" />
    </g>
  </g>
</svg>
