<?xml version="1.0" encoding="UTF-8" standalone="no"?>
<!-- Created with Inkscape (http://www.inkscape.org/) -->
<svg
   xmlns:dc="http://purl.org/dc/elements/1.1/"
   xmlns:cc="http://web.resource.org/cc/"
   xmlns:rdf="http://www.w3.org/1999/02/22-rdf-syntax-ns#"
   xmlns:svg="http://www.w3.org/2000/svg"
   xmlns="http://www.w3.org/2000/svg"
   xmlns:sodipodi="http://sodipodi.sourceforge.net/DTD/sodipodi-0.dtd"
   xmlns:inkscape="http://www.inkscape.org/namespaces/inkscape"
   width="744.09448819"
   height="1052.3622047"
   id="svg2"
   sodipodi:version="0.32"
   inkscape:version="0.44+devel"
   sodipodi:docbase="C:\Documents and Settings\Molumen\Desktop"
   sodipodi:docname="hippocampe.svg"
   inkscape:output_extension="org.inkscape.output.svg.inkscape"
   sodipodi:modified="true">
  <defs
     id="defs4" />
  <sodipodi:namedview
     id="base"
     pagecolor="#ffffff"
     bordercolor="#666666"
     borderopacity="1.0"
     gridtolerance="10000"
     guidetolerance="10"
     objecttolerance="10"
     inkscape:pageopacity="0.0"
     inkscape:pageshadow="2"
     inkscape:zoom="0.35"
     inkscape:cx="603.32626"
     inkscape:cy="538.60643"
     inkscape:document-units="px"
     inkscape:current-layer="layer1"
     inkscape:window-width="1009"
     inkscape:window-height="939"
     inkscape:window-x="444"
     inkscape:window-y="118" />
  <metadata
     id="metadata7">
    <rdf:RDF>
      <cc:Work
         rdf:about="">
        <dc:format>image/svg+xml</dc:format>
        <dc:type
           rdf:resource="http://purl.org/dc/dcmitype/StillImage" />
        <dc:title>seahorse silhouette</dc:title>
        <dc:subject>
          <rdf:Bag>
            <rdf:li>seahorse</rdf:li>
            <rdf:li>sea</rdf:li>
            <rdf:li>horse</rdf:li>
            <rdf:li>animal</rdf:li>
            <rdf:li>marine</rdf:li>
            <rdf:li>underwater</rdf:li>
            <rdf:li>horse</rdf:li>
            <rdf:li>sea</rdf:li>
            <rdf:li></rdf:li>
          </rdf:Bag>
        </dc:subject>
        <dc:date>28 11 2006</dc:date>
        <dc:creator>
          <cc:Agent>
            <dc:title>molumen</dc:title>
          </cc:Agent>
        </dc:creator>
        <dc:description>seahorse silhouette</dc:description>
        <cc:license
           rdf:resource="http://web.resource.org/cc/PublicDomain" />
      </cc:Work>
      <cc:License
         rdf:about="http://web.resource.org/cc/PublicDomain">
        <cc:permits
           rdf:resource="http://web.resource.org/cc/Reproduction" />
        <cc:permits
           rdf:resource="http://web.resource.org/cc/Distribution" />
        <cc:permits
           rdf:resource="http://web.resource.org/cc/DerivativeWorks" />
      </cc:License>
    </rdf:RDF>
  </metadata>
  <g
     inkscape:label="Layer 1"
     inkscape:groupmode="layer"
     id="layer1">
    <path
       style="fill:#000000"
       d="M 363.22569,984.93643 C 226.78861,941.30957 151.35319,806.6387 207.49418,670.58692 C 235.4693,610.92446 154.53304,655.78784 126.88671,656.34584 C 139.18446,633.3765 142.40804,623.43441 136.1281,614.04986 C 129.84817,604.66531 102.77403,606.13721 79.491844,598.37018 C 95.923942,583.85092 133.29019,585.49691 136.44318,562.25005 C 139.48725,539.80626 96.433726,549.22235 78.279544,532.7532 C 94.326809,524.01196 136.22288,528.17609 144.12411,501.97809 C 150.13025,482.06359 111.79957,462.1076 111.19766,447.8327 C 160.77779,472.29265 196.64508,469.79511 229.55685,437.44209 C 231.04184,437.53398 233.31777,441.91453 239.07316,465.07473 C 244.82855,488.23494 255.11153,504.35999 280.32613,494.02214 C 305.54074,483.68428 311.99125,478.52242 279.58785,447.65043 C 212.38431,377.8542 229.29448,292.83191 293.36793,215.42543 C 306.00298,202.94636 278.87446,187.70806 266.47233,180.07856 C 254.0702,172.44907 254.96537,169.99941 256.0252,165.27854 C 284.14706,145.38027 297.99927,138.01113 281.87518,97.512555 C 295.25159,90.837237 310.73254,96.125425 323.73127,87.377133 C 339.82353,79.7213 327.79304,52.152335 336.37047,43.23959 C 351.69875,44.650355 358.60866,62.606081 374.60446,61.278101 C 394.48778,57.510241 415.45702,24.915507 429.3043,33.656239 C 427.87304,43.093436 424.72022,52.952639 431.79768,54.474524 C 443.51768,56.99471 471.49009,39.800641 475.37367,44.47843 C 478.56264,48.319563 454.01104,71.763747 482.83056,71.644738 C 511.65008,71.525729 538.46234,102.40302 545.53357,133.15905 C 558.49464,198.57645 601.87029,238.6399 652.89282,278.87272 C 675.1984,293.75192 673.61667,306.08215 659.74721,317.16747 C 645.87774,328.2528 622.89414,328.4438 603.03258,314.35899 C 583.17102,300.27417 573.80994,298.84312 527.82923,294.92146 C 481.84851,290.99981 468.26146,286.39787 456.74978,277.9673 C 445.23809,269.53673 436.85468,243.92817 436.77851,237.28471 C 436.70177,230.63997 425.50243,250.28861 417.33502,267.18354 C 409.16762,284.07848 414.04857,299.36434 480.18288,337.53825 C 546.19814,371.89176 600.71021,415.06516 603.32046,491.67024 C 603.26859,543.85336 576.1933,597.69525 466.99805,637.61939 C 343.07202,682.92942 287.18187,784.61459 376.54251,887.28173 C 437.60546,944.46253 527.53005,912.84856 528.79039,829.02478 C 525.52119,774.1942 470.20341,750.6656 433.80616,802.30622 C 415.76415,827.90433 405.46991,825.0472 411.1003,797.11387 C 418.09115,762.43103 461.64621,737.26949 504.4498,739.50308 C 577.8677,743.33419 601.99565,812.66535 582.2605,873.89889 C 551.04708,970.74681 455.03589,1005.0482 363.22569,984.93643 z "
       id="path2170"
       sodipodi:nodetypes="ccczcscscczzcczccccccsszcczzzzczccsccssssc" />
  </g>
</svg>
