<?xml version="1.0" encoding="UTF-8" standalone="no"?>
<!-- Created with Inkscape (http://www.inkscape.org/) -->

<svg
   xmlns:dc="http://purl.org/dc/elements/1.1/"
   xmlns:cc="http://creativecommons.org/ns#"
   xmlns:rdf="http://www.w3.org/1999/02/22-rdf-syntax-ns#"
   xmlns:svg="http://www.w3.org/2000/svg"
   xmlns="http://www.w3.org/2000/svg"
   xmlns:xlink="http://www.w3.org/1999/xlink"
   xmlns:sodipodi="http://sodipodi.sourceforge.net/DTD/sodipodi-0.dtd"
   xmlns:inkscape="http://www.inkscape.org/namespaces/inkscape"
   version="1.0"
   width="319.93454"
   height="317.27209"
   id="svg1351"
   sodipodi:version="0.32"
   inkscape:version="0.48.2 r9819"
   sodipodi:docname="11971499311643754029erik_Single_Snowflake2.svg"
   inkscape:output_extension="org.inkscape.output.svg.inkscape"
   sodipodi:modified="true">
  <metadata
     id="metadata15">
    <rdf:RDF>
      <cc:Work
         rdf:about="">
        <dc:format>image/svg+xml</dc:format>
        <dc:type
           rdf:resource="http://purl.org/dc/dcmitype/StillImage" />
        <cc:license
           rdf:resource="http://web.resource.org/cc/PublicDomain" />
        <dc:title></dc:title>
        <dc:date>2007-02-07</dc:date>
        <dc:creator>
          <cc:Agent>
            <dc:title>Erik R. Ramseth</dc:title>
          </cc:Agent>
        </dc:creator>
        <dc:subject>
          <rdf:Bag>
            <rdf:li>snowflake</rdf:li>
            <rdf:li>snow</rdf:li>
            <rdf:li>winter</rdf:li>
          </rdf:Bag>
        </dc:subject>
        <dc:description>a single snowflake</dc:description>
      </cc:Work>
      <cc:License
         rdf:about="http://web.resource.org/cc/PublicDomain">
        <cc:permits
           rdf:resource="http://web.resource.org/cc/Reproduction" />
        <cc:permits
           rdf:resource="http://web.resource.org/cc/Distribution" />
        <cc:permits
           rdf:resource="http://web.resource.org/cc/DerivativeWorks" />
      </cc:License>
    </rdf:RDF>
  </metadata>
  <sodipodi:namedview
     inkscape:window-height="863"
     inkscape:window-width="1221"
     inkscape:pageshadow="2"
     inkscape:pageopacity="0.0"
     guidetolerance="10.0"
     gridtolerance="10.0"
     objecttolerance="10.0"
     borderopacity="1.0"
     bordercolor="#666666"
     pagecolor="#ffffff"
     id="base"
     inkscape:zoom="1.5255044"
     inkscape:cx="184.9617"
     inkscape:cy="158.63607"
     inkscape:window-x="70"
     inkscape:window-y="191"
     inkscape:current-layer="svg1351"
     showgrid="false"
     inkscape:window-maximized="0" />
  <defs
     id="defs1353">
    <linearGradient
       id="linearGradient5090">
      <stop
         style="stop-color:#3c3c3c;stop-opacity:1"
         offset="0"
         id="stop5092" />
      <stop
         style="stop-color:#a6a6a6;stop-opacity:1"
         offset="1"
         id="stop5094" />
    </linearGradient>
    <linearGradient
       id="linearGradient4113">
      <stop
         style="stop-color:#cdf2ff;stop-opacity:1"
         offset="0"
         id="stop4115" />
      <stop
         style="stop-color:#eaffff;stop-opacity:1"
         offset="1"
         id="stop4117" />
    </linearGradient>
    <radialGradient
       cx="386.99893"
       cy="315.25943"
       r="164.9557"
       fx="386.99893"
       fy="315.25943"
       id="radialGradient4119"
       xlink:href="#linearGradient4113"
       gradientUnits="userSpaceOnUse"
       gradientTransform="matrix(0.221435, -0.975175, 0.904631, 0.205417, 16.1104, 627.892)" />
    <linearGradient
       x1="222.04323"
       y1="315.25943"
       x2="551.95465"
       y2="315.25943"
       id="linearGradient5096"
       xlink:href="#linearGradient5090"
       gradientUnits="userSpaceOnUse"
       gradientTransform="matrix(0.221435, -0.975175, 0.975175, 0.221435, -6.12935, 622.842)" />
  </defs>
  <g
     id="layer1"
     transform="translate(-227.854, -156.952)">
    <path
       d="M 521.72923,361.40175 C 508.7949,364.99135 508.77126,364.9837 502.08248,355.06519 L 495.38557,345.13469 L 506.68757,341.12207 C 518.46956,336.93903 525.71969,340.14537 531.86282,352.25565 C 534.12829,356.7219 532.14635,358.51075 521.72923,361.40175 z M 522.82758,291.39379 C 504.54609,301.11916 498.18983,302.80987 490.15454,300.08478 C 475.69605,295.1814 475.21197,293.77182 484.114,282.4951 C 491.22386,273.48865 494.42438,272.37634 511.59974,272.94272 C 522.29119,273.29527 534.58037,273.63069 538.90918,273.68795 C 551.36771,273.85287 547.22339,278.41585 522.82758,291.39379 z M 497.8857,431.23259 C 496.2998,430.87248 485.4815,424.75855 473.84499,417.64612 C 454.56404,405.86127 452.55795,403.53896 451.22359,391.45834 L 449.75944,378.20216 L 463.76445,381.38396 C 476.3455,384.2423 478.78107,386.48991 487.71802,403.48865 C 499.50355,425.90563 501.7799,432.11686 497.8857,431.23259 z M 499.35139,333.86016 L 488.20933,344.14343 L 492.20807,359.90512 C 495.44293,372.65576 495.23016,376.01414 491.0943,377.48472 C 488.28237,378.48461 484.82834,379.06497 483.41867,378.77441 C 481.09156,378.2948 473.00034,357.84046 472.24722,350.53357 C 472.07581,348.87077 462.82413,344.91556 451.68786,341.74418 C 440.55158,338.57289 428.46512,333.39676 424.82912,330.24184 C 418.36024,324.62872 418.38036,324.43237 425.76302,321.10303 C 431.42618,318.54915 438.70632,319.43797 454.95399,324.66704 L 476.60014,331.63358 L 488.44757,320.3074 C 501.17094,308.14392 503.82821,307.45639 508.63339,315.08491 C 512.63555,321.43862 512.48893,321.73529 499.35139,333.86016 z M 482.1444,316.52077 C 480.66507,317.45261 471.84305,315.5201 462.53978,312.22625 C 451.52169,308.32525 444.522,307.35927 442.46147,309.45533 C 438.54275,313.44153 419.38969,309.46425 420.43056,304.88037 C 421.60422,299.7117 436.96562,291.09245 442.68798,292.39183 C 445.58961,293.05071 452.12234,287.62057 457.75286,279.86953 C 466.7792,267.44396 468.2596,266.67437 473.83265,271.51003 C 477.99781,275.1242 478.82476,278.46293 476.40538,281.89738 C 469.05588,292.33026 469.58747,296.73913 478.57575,299.89686 C 487.10436,302.89305 489.09059,312.14546 482.1444,316.52077 z M 462.22417,375.32315 C 458.9631,375.7931 453.45209,375.53212 449.97741,374.74312 C 444.56264,373.51358 443.84856,374.64692 444.98,382.67409 C 446.52765,393.6535 443.45186,397.821 435.1861,395.94408 C 431.12633,395.02222 428.92731,390.01656 428.25896,380.17561 C 427.64598,371.14993 424.66665,363.76782 420.29273,360.43714 C 416.44985,357.51083 412.48559,351.1574 411.48329,346.31837 C 409.82494,338.31207 410.41583,337.69154 418.04801,339.42459 C 422.6609,340.47205 429.53597,344.54318 433.32589,348.47149 C 437.72579,353.03202 445.48214,356.37863 454.78277,357.72943 C 467.48058,359.5736 469.27221,360.78278 468.75115,367.15679 C 468.39864,371.46953 465.72137,374.81919 462.22417,375.32315 z M 475.7241,263.42064 L 459.79167,257.51128 L 444.5589,273.19677 C 431.73623,286.40048 418.324,293.87643 410.60364,292.12335 C 408.16661,291.56997 417.79636,271.37803 421.17195,269.96349 C 422.66522,269.33775 429.0938,263.91331 435.45767,257.90926 L 447.02831,246.99274 L 443.96268,230.30448 C 441.53051,217.06427 441.91187,213.25492 445.80841,211.86738 C 454.96694,208.60596 458.06684,211.64743 460.25753,226.04392 C 462.31134,239.54077 463.43859,240.77651 478.94387,246.52739 C 493.80368,252.03885 495.25632,253.477 493.55062,260.9887 C 491.71974,269.05168 491.12495,269.13278 475.7241,263.42064 z M 486.76457,235.25885 C 471.14093,238.49496 467.64454,236.01585 470.44412,223.68681 C 472.58003,214.28052 474.8366,212.10044 484.0718,210.52071 C 496.89512,208.32717 496.84244,208.27566 496.33519,222.52088 C 496.00828,231.70102 494.54614,233.64712 486.76457,235.25885 z M 429.54006,420.68734 C 413.70793,414.81517 413.61602,414.83415 401.44741,426.46728 C 388.10372,439.22383 385.69131,439.81275 381.40391,431.36061 C 379.13465,426.88711 380.95405,423.29967 390.1434,414.12845 L 401.74876,402.5459 L 397.84388,385.79062 C 395.69612,376.57523 392.73669,368.76235 391.26729,368.42869 C 389.79789,368.09503 389.78893,362.56706 391.24735,356.14432 C 392.70577,349.7216 395.01751,344.75572 396.38456,345.10903 C 402.52624,346.69642 410.24673,361.97785 413.85991,379.6988 C 417.12516,395.71336 419.26609,399.35428 426.39252,401.01226 C 443.05322,404.88826 449.18212,410.02905 447.25595,418.51167 C 445.50043,426.2428 444.76282,426.33341 429.54006,420.68734 z M 430.21803,450.07523 C 426.36486,461.72567 424.43021,462.11757 413.15506,453.53167 C 407.82108,449.46994 406.13977,445.14225 407.54904,439.10174 C 410.91206,424.68665 415.11047,422.8968 424.97083,431.67493 C 432.32898,438.2255 433.16615,441.16123 430.21803,450.07523 z M 426.36184,246.4498 C 419.58115,251.59107 413.14802,259.69627 412.06601,264.46129 C 410.98402,269.22626 407.21335,275.53451 403.68672,278.47947 C 398.13685,283.11406 396.97731,283.05887 395.0624,278.06887 C 393.84561,274.89802 394.01041,267.04123 395.42862,260.60937 C 396.84692,254.17751 396.047,243.73346 393.65109,237.40032 C 388.30247,223.2621 389.13872,218.51413 397.18153,217.35508 C 401.29243,216.76263 404.73444,219.47054 407.4012,225.39503 L 411.42234,234.32815 L 421.12921,228.62893 C 430.36341,223.20727 431.02741,223.27481 434.76329,230.01582 C 438.37939,236.5407 437.71395,237.84235 426.36184,246.4498 z M 401.54169,331.29085 C 396.65871,335.73531 391.24366,336.8466 383.28057,335.03841 C 374.14405,332.96376 371.18311,330.14533 367.92848,320.4251 C 363.83239,308.1916 364.98729,305.22439 378.24234,293.92766 C 387.11436,286.36646 406.08161,294.94123 408.72617,307.70878 C 411.20819,319.69188 410.02763,323.56697 401.54169,331.29085 z M 423.38612,221.5205 C 414.63057,226.66123 412.72304,226.72333 410.89637,221.92745 C 404.29952,204.60715 404.55993,202.73461 416.22964,183.57211 C 431.9949,157.68462 436.16277,153.76165 436.18322,164.79082 C 436.27419,213.78384 436.23003,213.97949 423.38612,221.5205 z M 380.12378,410.4501 C 376.2685,411.00566 372.50745,408.04323 369.62006,402.17676 L 365.12222,393.03804 L 355.88088,398.46385 C 347.6614,403.2898 346.04428,403.20071 341.25522,397.65768 C 336.03932,391.6206 336.28997,391.15114 349.26579,382.65216 C 358.33976,376.70889 363.3966,370.63771 364.94205,363.8317 C 366.19684,358.30576 369.91596,351.44143 373.2068,348.57759 C 379.00099,343.53514 379.25885,343.62067 381.36382,351.28285 C 382.55935,355.63457 382.44051,364.18102 381.09963,370.27494 C 379.7588,376.36883 380.74551,385.77492 383.2923,391.1775 C 388.98991,403.26383 387.99494,409.31583 380.12378,410.4501 z M 357.47196,449.87949 C 350.17094,461.54103 343.45703,471.54869 342.55217,472.11863 C 339.33882,474.14273 341.19534,420.11273 344.53474,414.42149 C 346.40269,411.23783 351.30836,406.73381 355.43618,404.41254 C 362.55357,400.41004 363.18874,400.78487 367.73288,411.6693 C 373.46848,425.40773 373.97575,423.51876 357.47196,449.87949 z M 381.53565,282.01429 C 374.20321,280.3493 367.98772,268.87346 364.18697,249.98281 L 359.75373,227.94895 L 343.52693,224.26429 C 328.44272,220.83909 327.4335,219.99233 329.19421,212.23836 C 330.97327,204.40356 332.15206,204.13706 348.61066,207.84897 C 365.55312,211.66999 366.48621,211.41569 376.80381,200.16528 C 386.03569,190.09856 388.24976,189.20237 393.22425,193.51877 C 400.42939,199.77072 400.47589,199.62117 386.80231,214.19972 L 375.44391,226.30989 L 381.20657,246.56823 C 386.37328,264.73144 386.54428,283.15161 381.53565,282.01429 z M 361.71576,349.46036 C 359.68644,352.87087 351.48873,361.63003 343.49874,368.92513 L 328.97153,382.18894 L 332.73386,397.01877 C 337.33659,415.16111 337.42737,414.75027 328.25974,417.26879 C 321.6445,419.0862 320.33936,417.39631 316.87398,402.52697 C 313.0384,386.06936 312.63864,385.65961 296.94231,382.09541 C 282.08124,378.72088 281.06147,377.85601 282.81879,370.11699 C 284.58412,362.34268 285.83571,362.03077 301.23505,365.52753 C 317.22883,369.15927 318.2123,368.84965 331.99,355.84562 C 347.70405,341.01398 356.23857,335.91499 362.84008,337.41401 C 367.53872,338.48094 367.40658,339.89633 361.71576,349.46036 z M 360.25642,291.2165 C 356.5217,290.36845 350.03738,286.13313 345.84672,281.80455 C 341.4271,277.23941 331.87519,272.4921 323.10045,270.4996 C 309.95336,267.51426 308.05693,266.05039 308.61184,259.31543 C 309.17016,252.53936 310.72404,251.90092 320.98654,254.23124 C 332.66795,256.88377 332.7169,256.84398 331.46275,245.70772 C 330.46802,236.87451 331.31561,234.12404 335.48934,232.64168 C 345.00329,229.26263 348.6114,232.25777 348.53196,243.46865 C 348.48903,249.53687 352.99165,261.54862 358.53792,270.16147 C 369.82131,287.68361 370.29572,293.49615 360.25642,291.2165 z M 353.31683,327.43118 C 351.84871,329.55049 345.7824,332.54736 339.83612,334.09083 C 333.88984,335.63429 324.61997,342.17975 319.23632,348.6363 C 308.89942,361.03313 307.07826,361.65374 300.47873,355.02772 C 297.11626,351.65179 297.45606,349.44255 302.32039,343.0547 C 310.14594,332.77795 310.27051,333.39652 299.34089,328.25786 C 292.92788,325.24279 290.28992,321.76378 291.24094,317.57561 C 293.21746,308.87123 296.97421,308.40328 311.0331,315.10996 C 319.99017,319.38284 326.07074,320.23357 333.62985,318.27143 C 344.65265,315.41027 358.19728,317.0831 356.81764,321.13526 C 356.36027,322.47868 354.78487,325.31182 353.31683,327.43118 z M 348.60296,308.31531 C 344.15631,308.77701 331.73855,306.6928 321.00793,303.68382 C 302.1097,298.38448 301.08749,298.52357 288.42461,308.11658 C 279.02118,315.24035 273.85609,317.0166 270.02366,314.44456 C 262.81573,309.60717 264.1565,306.12965 277.54004,294.95024 L 288.93014,285.4359 L 284.40639,268.57451 C 280.49173,253.98346 280.654,251.43662 285.61157,249.65996 C 294.50025,246.47453 295.37762,247.37104 301.12401,265.50936 L 306.51363,282.52154 L 327.20187,287.33086 C 353.60352,293.46832 366.81669,306.42429 348.60296,308.31531 z M 363.89917,200.27576 C 360.69747,203.45974 358.55922,202.8686 351.37914,196.81427 C 343.78016,190.40684 343.22208,188.0921 346.81974,177.9055 C 351.53743,164.54766 351.10742,164.6465 362.54496,174.29067 C 371.36454,181.72742 371.91575,192.30351 363.89917,200.27576 z M 292.18196,417.72676 C 285.6483,418.88149 280.19925,419.54149 280.07302,419.19349 C 279.9468,418.84548 280.02225,413.4884 280.24066,407.2888 C 280.59057,397.35951 281.93597,395.67989 291.53568,393.18806 C 307.46591,389.05307 309.73644,390.6352 306.74968,403.78856 C 304.43433,413.9851 302.41348,415.91864 292.18196,417.72676 z M 314.85034,247.98734 C 302.62115,247.52435 301.64722,246.58103 287.89488,221.87839 C 280.04756,207.7826 274.31314,195.81756 275.15167,195.28933 C 277.22009,193.98651 317.94473,218.56812 321.96821,223.5481 C 323.73425,225.73393 325.70991,232.23506 326.3586,237.99507 C 327.49795,248.11239 327.10761,248.45134 314.85034,247.98734 z M 291.94696,347.70006 C 284.54785,355.31676 280.46661,356.21767 258.64914,355.0503 C 244.97335,354.31848 232.14807,353.34833 230.14866,352.89432 C 226.55604,352.07854 263.62601,329.93705 274.18105,326.59421 C 280.13636,324.70815 301.80937,332.87396 300.9259,336.67093 C 300.62544,337.96258 296.58488,342.92567 291.94696,347.70006 z M 272.08853,286.58086 C 259.61991,291.22795 255.68167,290.01164 248.4431,279.27788 L 242.39104,270.30366 L 253.98795,266.42067 C 265.38629,262.60417 265.72545,262.69529 273.80048,271.74149 C 278.31905,276.80349 281.90806,281.42094 281.77601,282.00251 C 281.64396,282.58401 277.28459,284.64427 272.08853,286.58086 z "
       style="fill:none;fill-opacity:1;stroke:#000000;stroke-width:1;stroke-miterlimit:4;stroke-dasharray:none;stroke-opacity:1"
       id="path1481" />
  </g>
</svg>
