<?xml version="1.0" encoding="UTF-8" standalone="no"?>
<!-- Created with Inkscape (http://www.inkscape.org/) -->

<svg
   xmlns:dc="http://purl.org/dc/elements/1.1/"
   xmlns:cc="http://creativecommons.org/ns#"
   xmlns:rdf="http://www.w3.org/1999/02/22-rdf-syntax-ns#"
   xmlns:svg="http://www.w3.org/2000/svg"
   xmlns="http://www.w3.org/2000/svg"
   xmlns:sodipodi="http://sodipodi.sourceforge.net/DTD/sodipodi-0.dtd"
   xmlns:inkscape="http://www.inkscape.org/namespaces/inkscape"
   width="1052.3622"
   height="744.09448"
   id="svg2"
   version="1.1"
   inkscape:version="0.48.0 r9654"
   sodipodi:docname="jaguar coupe1.svg">
  <defs
     id="defs4" />
  <sodipodi:namedview
     id="base"
     pagecolor="#ffffff"
     bordercolor="#666666"
     borderopacity="1.0"
     inkscape:pageopacity="0.0"
     inkscape:pageshadow="2"
     inkscape:zoom="0.51789446"
     inkscape:cx="584.21341"
     inkscape:cy="235.81074"
     inkscape:document-units="px"
     inkscape:current-layer="layer1"
     showgrid="false"
     inkscape:window-width="1680"
     inkscape:window-height="1003"
     inkscape:window-x="-4"
     inkscape:window-y="-4"
     inkscape:window-maximized="1" />
  <metadata
     id="metadata7">
    <rdf:RDF>
      <cc:Work
         rdf:about="">
        <dc:format>image/svg+xml</dc:format>
        <dc:type
           rdf:resource="http://purl.org/dc/dcmitype/StillImage" />
        <dc:title></dc:title>
      </cc:Work>
    </rdf:RDF>
  </metadata>
  <g
     inkscape:label="Layer 1"
     inkscape:groupmode="layer"
     id="layer1"
     transform="translate(0,-308.2677)">
    <path
       inkscape:connector-curvature="0"
       id="2"
       style="fill:none;stroke:#25221e;stroke-width:2.06534386px;stroke-linecap:round;stroke-linejoin:round;stroke-opacity:1;stroke-dasharray:none"
       d="m 914.36931,544.39589 c 13.62256,2.78698 28.60738,4.18047 38.14316,18.11539 0,0 1.36225,0 1.36225,1.39349 2.72451,-2.78698 5.44903,-4.18047 9.53579,-4.18047 9.53579,0 16.34707,8.36095 16.34707,16.7219 0,2.78698 0,4.18048 -1.36225,6.96746 0,0 0,1.39349 1.36225,2.78698 0,4.18048 4.08676,6.96746 6.81128,13.93492 1.36225,2.78698 13.62254,2.78698 9.53578,19.50889 0,0 0,1.39349 0,1.39349 5.44906,6.96746 9.53576,29.26332 9.53576,57.13316 0,4.18048 0,6.96746 0,11.14793 l 0,0 c -1.3622,-9.75444 -2.7245,-19.50888 -5.449,-29.26332 -5.44901,-37.62428 -21.79607,-64.10063 -42.22992,-64.10063 -16.34706,0 -29.96961,15.32841 -39.5054,37.62428 0,0 0,0 0,0 -24.5206,55.73967 -29.96962,139.34918 -59.93924,160.25156 0,0 0,0 0,0 -35.41864,5.57396 -155.29712,23.68937 -260.19079,40.41126 8.17353,-20.90239 10.89804,-44.59174 10.89804,-71.06808 0,-15.32841 -1.36225,-29.26333 -2.72451,-43.19825 -8.17353,-48.77221 -32.69413,-85.00299 -62.66374,-85.00299 -21.79609,0 -42.22992,20.90237 -53.12797,51.55919 -13.62255,30.65682 -24.5206,78.03554 -36.78089,112.87283 -9.5358,22.29588 -12.2603,41.80476 -35.41865,41.80476 -24.52059,2.78697 -54.49022,2.78697 -84.45984,1.3935 -64.02601,-2.787 -134.86329,-6.96746 -193.44027,-12.54142 -35.41864,-4.1805 -49.041195,0 -66.750516,-18.11543 -19.071576,-22.29585 -31.331875,-54.34616 -31.331875,-89.18345 0,-51.5592 25.882853,-96.15094 62.663751,-115.65982 35.41864,-20.90238 77.64856,-30.65682 121.24073,-36.23079 49.04121,-5.57396 99.44465,-6.96746 148.48585,-4.18047 21.79608,-33.44381 42.22991,-64.10063 64.026,-82.21602 19.07158,-12.54142 31.33188,-18.11539 49.04119,-20.90237 102.16916,-11.14794 360.99771,-32.05031 426.38596,80.82252 z" />
    <path
       inkscape:connector-curvature="0"
       id="3"
       style="fill:none;stroke:#25221e;stroke-width:2.06534386px;stroke-linecap:round;stroke-linejoin:round;stroke-opacity:1;stroke-dasharray:none"
       d="m 956.59923,601.52905 c 27.24511,0 50.40347,50.16571 50.40347,111.47935 0,61.31363 -23.15836,111.47935 -50.40347,111.47935 -25.88286,0 -49.04119,-50.16572 -49.04119,-111.47935 0,-61.31364 23.15833,-111.47935 49.04119,-111.47935 z" />
    <path
       inkscape:connector-curvature="0"
       id="4"
       style="fill:none;stroke:#25221e;stroke-width:2.06534386px;stroke-linecap:round;stroke-linejoin:round;stroke-opacity:1;stroke-dasharray:none"
       d="m 959.32375,623.82492 c 20.43383,0 36.78089,40.41126 36.78089,89.18348 0,48.77221 -16.34706,87.78998 -36.78089,87.78998 -21.7961,0 -38.14316,-39.01777 -38.14316,-87.78998 0,-48.77222 16.34706,-89.18348 38.14316,-89.18348 z" />
    <path
       inkscape:connector-curvature="0"
       id="5"
       style="fill:none;stroke:#25221e;stroke-width:2.06534386px;stroke-linecap:round;stroke-linejoin:round;stroke-opacity:1;stroke-dasharray:none"
       d="m 546.56034,637.75984 c 34.05639,0 62.66375,55.73967 62.66375,125.41426 0,69.67458 -28.60736,126.80774 -62.66375,126.80774 -35.41864,0 -64.026,-57.13316 -64.026,-126.80774 0,-69.67459 28.60736,-125.41426 64.026,-125.41426 z" />
    <path
       inkscape:connector-curvature="0"
       id="6"
       style="fill:none;stroke:#25221e;stroke-width:2.06534386px;stroke-linecap:round;stroke-linejoin:round;stroke-opacity:1;stroke-dasharray:none"
       d="m 86.118003,782.68298 c 25.882857,-1.39349 50.403457,0 74.924047,2.78699 2.72451,1.39349 5.44903,1.39349 6.81128,1.39349 6.81128,13.93492 14.98481,22.29587 28.60737,26.47633 1.36225,2.787 1.36225,5.57397 2.7245,9.75446 -40.86766,-18.11538 -96.72013,-8.36096 -111.704941,-26.47635 -6.811278,-6.96746 -6.811278,-11.14793 -1.362256,-13.93492 z" />
    <path
       inkscape:connector-curvature="0"
       id="7"
       style="fill:none;stroke:#25221e;stroke-width:2.06534386px;stroke-linecap:round;stroke-linejoin:round;stroke-opacity:1;stroke-dasharray:none"
       d="m 316.33917,796.6179 c -29.96962,-4.18048 -64.026,-5.57397 -92.63336,-8.36095 -4.08677,12.54143 -10.89805,20.90238 -23.15834,23.68934 l 2.7245,11.14796 c 38.14315,-11.14796 96.72014,2.78697 110.34269,-8.36096 6.81128,-6.96746 8.17353,-15.32841 2.72451,-18.11539 z" />
    <path
       inkscape:connector-curvature="0"
       id="8"
       style="fill:none;stroke:#25221e;stroke-width:2.06534386px;stroke-linecap:round;stroke-linejoin:round;stroke-opacity:1;stroke-dasharray:none"
       d="m 197.82295,804.97887 c -1.36225,0 -1.36225,0 -1.36225,0 0,0 -1.36227,0 -1.36227,0 -17.70931,0 -32.69412,-30.65684 -32.69412,-68.28111 0,-39.01777 14.98481,-79.42904 58.57698,-80.82253 17.70932,-1.39349 31.33188,6.96746 32.69413,19.50889 2.72452,16.7219 -9.53578,37.62428 -19.07158,57.13316 -10.89803,20.90237 -19.07158,72.46159 -36.78089,72.46159 z" />
    <path
       inkscape:connector-curvature="0"
       id="9"
       style="fill:none;stroke:#25221e;stroke-width:2.06534386px;stroke-linecap:round;stroke-linejoin:round;stroke-opacity:1;stroke-dasharray:none"
       d="m 387.17646,563.90477 c -2.72452,1.3935 -6.81128,2.78699 -10.89805,4.18048 l 0,0 c 0,0 -1.36225,0 -1.36225,0 -2.72451,0 -5.44903,1.39349 -8.17353,1.39349 -106.25593,15.32841 -227.49666,55.73967 -227.49666,178.36695 0,12.54142 1.36225,25.08285 4.08676,36.23078 -19.07157,-1.39349 -38.14315,-2.78698 -57.214727,-1.39349 -5.449022,2.78699 -5.449022,6.96746 1.362256,13.93492 9.535788,11.14793 35.418641,12.54143 64.026011,15.32839 2.72451,6.96747 6.81127,13.93493 10.89804,19.50889 -8.17353,0 -14.98481,-1.39346 -21.79609,-1.39346 -35.41864,-4.1805 -49.041195,0 -66.750516,-18.11543 -19.071576,-22.29585 -31.331875,-54.34616 -31.331875,-89.18345 0,-51.5592 25.882853,-96.15094 62.663751,-115.65982 35.41864,-20.90238 77.64856,-30.65682 121.24073,-36.23079 39.50541,-4.18047 79.01082,-6.96746 118.51622,-5.57396 8.17354,0 14.98482,0 23.15835,0 0,0 0,0 0,0 1.36225,0 1.36225,0 2.72452,0 1.36225,0 1.36225,0 1.36225,0 1.36225,0 1.36225,1.39349 2.72451,1.39349 0,0 0,-1.39349 0,-1.39349 0,0 0,0 0,0 0,0 0,0 0,0 4.08677,0 8.17353,0 10.89805,-2.78699 l 0,1.39349 0,0 1.36225,0 z" />
    <path
       inkscape:connector-curvature="0"
       id="10"
       style="fill:none;stroke:#25221e;stroke-width:2.06534386px;stroke-linecap:round;stroke-linejoin:round;stroke-opacity:1;stroke-dasharray:none"
       d="m 917.09383,545.78938 c 13.62254,1.39349 27.24511,4.18048 35.41864,16.7219 0,0 1.36225,0 1.36225,1.39349 2.72451,-2.78698 5.44903,-4.18047 9.53579,-4.18047 9.53579,0 16.34707,8.36095 16.34707,16.7219 0,2.78698 0,4.18048 -1.36225,6.96746 0,0 0,1.39349 1.36225,2.78698 0,4.18048 4.08676,6.96746 6.81128,13.93492 1.36225,2.78698 13.62254,2.78698 9.53578,19.50889 0,0 0,1.39349 0,1.39349 5.44906,6.96746 9.53576,29.26332 9.53576,57.13316 0,4.18048 0,6.96746 0,11.14793 l 0,0 c -1.3622,-9.75444 -2.7245,-19.50888 -5.449,-29.26332 -5.44901,-37.62428 -21.79607,-64.10063 -42.22992,-64.10063 -16.34706,0 -29.96961,15.32841 -39.5054,37.62428 0,0 0,0 0,0 -24.5206,55.73967 -29.96962,139.34918 -59.93924,160.25156 0,0 0,0 0,0 -35.41864,5.57396 -155.29712,23.68937 -260.19079,40.41126 8.17353,-20.90239 10.89804,-44.59174 10.89804,-71.06808 0,-15.32841 -1.36225,-29.26333 -2.72451,-43.19825 -8.17353,-48.77221 -32.69413,-85.00299 -62.66374,-85.00299 -21.79609,0 -42.22992,20.90237 -53.12797,51.55919 -13.62255,30.65682 -24.5206,78.03554 -36.78089,112.87283 -9.5358,22.29588 -12.2603,41.80476 -35.41865,41.80476 -24.52059,2.78697 -54.49022,2.78697 -84.45984,1.3935 -23.15833,-1.3935 -46.31668,-2.787 -69.47502,-4.1805 -2.72452,-5.57396 -5.44902,-12.54142 -6.81128,-19.50888 25.88286,0 47.67894,1.3935 55.85247,-4.18047 6.81128,-6.96746 8.17353,-15.32841 2.72451,-18.11539 -20.43383,-2.78698 -42.22992,-4.18048 -62.66375,-5.57397 0,-2.78698 0,-4.18047 0,-6.96746 -9.53578,-156.07107 194.80253,-202.0563 318.76778,-207.63027 54.49022,-11.14793 106.25593,-8.36095 148.48584,2.78698 0,0 0,0 0,0 2.72451,1.3935 6.81128,1.3935 10.89804,2.78699 42.22993,0 80.37307,-2.78699 122.60299,-2.78699 9.5358,-12.54142 17.70933,-19.50888 25.88286,-27.86983 4.08677,-2.78699 9.53578,-5.57397 14.9848,-6.96746 6.81128,0 14.98481,0 21.7961,1.39349 z" />
    <path
       inkscape:connector-curvature="0"
       id="11"
       style="fill:none;stroke:#25221e;stroke-width:2.06534386px;stroke-linecap:round;stroke-linejoin:round;stroke-opacity:1;stroke-dasharray:none"
       d="m 959.32375,623.82492 c 21.79608,0 39.50541,40.41126 39.50541,89.18348 0,48.77221 -17.70933,89.18347 -39.50541,89.18347 -20.43383,0 -38.14316,-40.41126 -38.14316,-89.18347 0,-48.77222 17.70933,-89.18348 38.14316,-89.18348 z" />
    <path
       inkscape:connector-curvature="0"
       id="12"
       style="fill:none;stroke:#25221e;stroke-width:2.06534386px;stroke-linecap:round;stroke-linejoin:round;stroke-opacity:1;stroke-dasharray:none"
       d="m 956.59923,630.79238 c 20.43383,0 36.7809,36.23079 36.7809,80.82252 0,45.98523 -16.34707,82.21602 -36.7809,82.21602 0,0 0,0 0,0 17.70932,-4.18048 31.33188,-39.01777 31.33188,-82.21602 0,-41.80475 -13.62256,-76.64204 -31.33188,-80.82252 0,0 0,0 0,0 z" />
    <path
       inkscape:connector-curvature="0"
       id="13"
       style="fill:none;stroke:#25221e;stroke-width:2.06534386px;stroke-linecap:round;stroke-linejoin:round;stroke-opacity:1;stroke-dasharray:none"
       d="m 64.321916,648.90777 c 4.086766,-4.18047 9.535788,-9.75444 14.98481,-12.54142 4.086766,-2.78699 8.173533,-2.78699 12.260299,-1.39349 4.086766,2.78698 5.449022,8.36095 6.811277,16.7219 4.086768,18.11539 13.622558,76.64205 -8.173532,83.6095 -31.331876,12.54143 -39.505408,-11.14793 -44.95443,-33.4438 1.362255,-16.7219 6.811277,-30.65682 12.260299,-44.59174 2.724511,-4.18047 5.449022,-6.96746 6.811277,-8.36095 z" />
    <path
       inkscape:connector-curvature="0"
       id="14"
       style="fill:none;stroke:#25221e;stroke-width:2.06534386px;stroke-linecap:round;stroke-linejoin:round;stroke-opacity:1;stroke-dasharray:none"
       d="m 343.58428,653.08825 c 16.34707,-11.14794 32.69413,-12.54143 43.59218,-2.78699 16.34706,15.32841 2.72451,54.34618 -27.24511,80.82253 -31.33188,25.08285 -61.3015,30.65682 -69.47504,16.7219 -2.7245,-5.57397 -4.08676,-13.93492 -1.36225,-25.08285 10.89805,-27.86984 29.96963,-51.5592 54.49022,-69.67459 z" />
    <path
       inkscape:connector-curvature="0"
       id="15"
       style="fill:none;stroke:#25221e;stroke-width:2.06534386px;stroke-linecap:round;stroke-linejoin:round;stroke-opacity:1;stroke-dasharray:none"
       d="m 953.87472,644.7273 c 16.34706,0 28.60737,30.65682 28.60737,68.2811 0,36.23078 -12.26031,66.8876 -28.60737,66.8876 -16.34707,0 -29.96961,-30.65682 -29.96961,-66.8876 0,-37.62428 13.62254,-68.2811 29.96961,-68.2811 z" />
    <path
       inkscape:connector-curvature="0"
       id="16"
       style="fill:none;stroke:#25221e;stroke-width:2.06534386px;stroke-linecap:round;stroke-linejoin:round;stroke-opacity:1;stroke-dasharray:none"
       d="m 956.59923,690.71253 c 5.44902,0 9.53579,9.75444 9.53579,20.90237 0,12.54143 -4.08677,22.29587 -9.53579,22.29587 0,0 -1.36225,0 -1.36225,0 5.44902,-1.39349 9.53579,-9.75444 9.53579,-22.29587 0,-11.14793 -4.08677,-19.50888 -9.53579,-20.90237 0,0 1.36225,0 1.36225,0 z" />
    <path
       inkscape:connector-curvature="0"
       id="17"
       style="fill:none;stroke:#25221e;stroke-width:2.06534386px;stroke-linecap:round;stroke-linejoin:round;stroke-opacity:1;stroke-dasharray:none"
       d="m 956.59923,690.71253 c 5.44902,0 9.53579,9.75444 9.53579,20.90237 0,12.54143 -4.08677,22.29587 -9.53579,22.29587 -5.44901,0 -10.89804,-9.75444 -10.89804,-22.29587 0,-11.14793 5.44903,-20.90237 10.89804,-20.90237 z" />
    <path
       inkscape:connector-curvature="0"
       id="18"
       style="fill:none;stroke:#25221e;stroke-width:2.06534386px;stroke-linecap:round;stroke-linejoin:round;stroke-opacity:1;stroke-dasharray:none"
       d="m 414.42157,559.7243 c 9.53578,0 19.07158,1.39349 28.60736,2.78698 53.12796,4.18048 106.25593,4.18048 159.38388,5.57397 0,0 1.36227,0 1.36227,0 29.96961,-2.78698 58.57698,-2.78698 88.54659,1.39349 6.81129,-22.29587 14.98482,-44.59174 21.7961,-66.88761 1.36225,-12.54142 -57.21474,-15.3284 -64.02602,-15.3284 -54.4902,-5.57397 -111.70494,-6.96746 -166.19516,-1.3935 -16.34707,1.3935 -36.78089,1.3935 -49.04119,15.32841 -17.70933,19.50889 -34.05639,40.41127 -49.04119,62.70713 9.53578,-1.39349 19.07156,-2.78698 28.60736,-4.18047 z" />
    <path
       inkscape:connector-curvature="0"
       id="19"
       style="fill:none;stroke:#25221e;stroke-width:2.06534386px;stroke-linecap:round;stroke-linejoin:round;stroke-opacity:1;stroke-dasharray:none"
       d="m 714.11777,577.83969 c 1.36225,2.78699 2.7245,6.96746 5.44902,15.32841 1.36225,6.96746 10.89804,110.08585 9.53578,122.62728 0,11.14793 13.62256,16.7219 14.98481,18.11539 2.72452,1.39349 46.31669,-6.96746 89.90886,-11.14793 5.44902,0 19.07158,-4.18048 23.15835,-16.7219 4.08676,-13.93492 28.60736,-86.39649 -1.36227,-128.20125 0,0 -1.36225,0 -1.36225,1.39349 -42.22992,0 -80.37306,2.78699 -122.60299,2.78699 -6.81128,-1.39349 -12.26029,-2.78699 -17.70931,-4.18048 z" />
    <path
       inkscape:connector-curvature="0"
       id="20"
       style="fill:none;stroke:#25221e;stroke-width:2.06534386px;stroke-linecap:round;stroke-linejoin:round;stroke-opacity:1;stroke-dasharray:none"
       d="m 487.98335,463.57337 c 62.66376,-6.96746 185.26675,-18.1154 284.71139,1.39349 0,0 0,0 0,0 10.89805,2.78698 20.43385,4.18047 29.96963,6.96746 -8.17353,-1.3935 -16.34707,-1.3935 -24.5206,-1.3935 -12.2603,0 -25.88286,1.3935 -36.78089,4.18048 -85.8221,-13.93492 -166.19518,-16.7219 -253.37953,-11.14793 z" />
    <path
       inkscape:connector-curvature="0"
       id="21"
       style="fill:none;stroke:#25221e;stroke-width:2.06534386px;stroke-linecap:round;stroke-linejoin:round;stroke-opacity:1;stroke-dasharray:none"
       d="m 622.84666,679.56459 54.4902,-6.96746 c 0,1.3935 0,1.3935 0,2.78699 l -53.12795,6.96746 -1.36225,0 0,0 0,0 0,0 0,0 0,1.39349 -1.36227,0 0,0 0,0 1.36227,0 0,1.39349 0,0 0,0 0,1.39349 0,0 0,0 0,1.39349 0,0 1.36225,0 0,1.39349 0,0 0,0 0,1.3935 0,0 0,0 0,1.39349 0,0 0,0 0,1.39349 1.36225,0 0,0 0,1.39349 0,0 0,0 0,1.39349 0,0 0,0 53.12797,-6.96746 c 0,1.3935 0,1.3935 0,1.3935 l -54.49022,8.36094 c -1.36225,-5.57396 -2.72452,-9.75444 -4.08677,-15.3284 l 0,0 c 0,-1.39349 1.36225,-2.78699 2.72452,-4.18048 z m 57.21472,16.7219 c 0,1.3935 0,2.78698 0,2.78698 l -53.12796,6.96747 1.36225,0 0,0 0,1.39349 0,0 0,1.39349 0,0 0,1.39349 0,0 0,0 0,1.39349 0,0 0,1.3935 0,0 0,0 0,1.39348 0,0 1.36225,1.3935 0,0 0,1.39349 0,0 0,0 0,1.39349 0,0 0,1.39349 0,0 0,0 50.40346,-5.57397 c 0,0 0,1.3935 0,1.3935 l -51.76571,6.96746 c -1.36225,-6.96746 -1.36225,-12.54143 -2.72451,-18.1154 0,0 0,0 0,0 z m -1.36225,23.68936 c 0,0 0,1.3935 0,1.3935 l -49.04121,6.96746 0,0 0,1.39348 0,0 0,1.3935 0,0 0,1.39349 0,0 0,1.39349 0,0 0,0 0,1.39349 0,0 0,1.3935 0,0 0,1.39348 0,0 0,0 0,1.3935 0,0 0,0 0,0 0,1.39349 0,0 0,0 47.67894,-5.57397 c 0,0 -1.36225,1.3935 -1.36225,1.3935 l -47.67894,6.96745 c 0,0 0,0 0,0 0,-2.78698 0,-4.18047 0,-6.96745 0,-2.78699 0,-6.96747 0,-9.75445 0,0 0,0 0,0 z" />
    <path
       inkscape:connector-curvature="0"
       id="22"
       style="fill:none;stroke:#25221e;stroke-width:2.06534386px;stroke-linecap:round;stroke-linejoin:round;stroke-opacity:1;stroke-dasharray:none"
       d="m 75.21996,646.12079 c 5.449021,0 10.898043,6.96746 10.898043,18.11539 0,9.75445 -5.449022,18.1154 -10.898043,18.1154 -6.811278,0 -12.260299,-8.36095 -12.260299,-18.1154 0,-11.14793 5.449021,-18.11539 12.260299,-18.11539 z" />
    <path
       inkscape:connector-curvature="0"
       id="23"
       style="fill:none;stroke:#25221e;stroke-width:2.06534386px;stroke-linecap:round;stroke-linejoin:round;stroke-opacity:1;stroke-dasharray:none"
       d="m 84.755748,693.49951 c 5.449022,0 9.535788,6.96746 9.535788,15.32841 0,8.36095 -4.086766,15.32841 -9.535788,15.32841 -6.811277,0 -10.898044,-6.96746 -10.898044,-15.32841 0,-8.36095 4.086767,-15.32841 10.898044,-15.32841 z" />
    <path
       inkscape:connector-curvature="0"
       id="24"
       style="fill:none;stroke:#25221e;stroke-width:2.06534386px;stroke-linecap:round;stroke-linejoin:round;stroke-opacity:1;stroke-dasharray:none"
       d="m 62.959661,687.92554 c 4.086766,0 8.173532,5.57397 8.173532,12.54143 0,6.96746 -4.086766,12.54143 -8.173532,12.54143 -4.086767,0 -8.173533,-5.57397 -8.173533,-12.54143 0,-6.96746 4.086766,-12.54143 8.173533,-12.54143 z" />
    <path
       inkscape:connector-curvature="0"
       id="25"
       style="fill:none;stroke:#25221e;stroke-width:2.06534386px;stroke-linecap:round;stroke-linejoin:round;stroke-opacity:1;stroke-dasharray:none"
       d="m 319.06369,700.46697 c 6.81127,0 13.62255,8.36095 13.62255,19.50888 0,9.75444 -6.81128,18.11539 -13.62255,18.11539 -6.81128,0 -12.2603,-8.36095 -12.2603,-18.11539 0,-11.14793 5.44902,-19.50888 12.2603,-19.50888 z" />
    <path
       inkscape:connector-curvature="0"
       id="26"
       style="fill:none;stroke:#25221e;stroke-width:2.06534386px;stroke-linecap:round;stroke-linejoin:round;stroke-opacity:1;stroke-dasharray:none"
       d="m 365.38036,661.4492 c 6.81129,0 10.89805,8.36095 10.89805,18.11539 0,8.36095 -4.08676,16.7219 -10.89805,16.7219 -5.44901,0 -10.89803,-8.36095 -10.89803,-16.7219 0,-9.75444 5.44902,-18.11539 10.89803,-18.11539 z" />
    <path
       inkscape:connector-curvature="0"
       id="27"
       style="fill:none;stroke:#25221e;stroke-width:2.06534386px;stroke-linecap:round;stroke-linejoin:round;stroke-opacity:1;stroke-dasharray:none"
       d="m 349.0333,699.07347 c 4.08677,0 8.17353,6.96747 8.17353,13.93493 0,8.36095 -4.08676,15.32841 -8.17353,15.32841 -5.44902,0 -9.53578,-6.96746 -9.53578,-15.32841 0,-6.96746 4.08676,-13.93493 9.53578,-13.93493 z" />
    <path
       inkscape:connector-curvature="0"
       id="28"
       style="fill:none;stroke:#25221e;stroke-width:2.06534386px;stroke-linecap:round;stroke-linejoin:round;stroke-opacity:1;stroke-dasharray:none"
       d="m 839.44526,588.98763 c 5.44903,0 5.44903,1.39349 8.17353,2.78698 2.72452,1.39349 5.44903,-2.78698 4.08677,-5.57397 -2.7245,-2.78698 -6.81127,-2.78698 -10.89803,-2.78698 -8.17354,0 -16.34707,2.78698 -20.43383,9.75444 -1.36227,2.78698 2.7245,4.18048 5.44901,2.78698 2.72452,-4.18047 9.53578,-6.96745 13.62255,-6.96745 z" />
    <path
       inkscape:connector-curvature="0"
       id="29"
       style="fill:none;stroke:#25221e;stroke-width:2.06534386px;stroke-linecap:round;stroke-linejoin:round;stroke-opacity:1;stroke-dasharray:none"
       d="m 195.09843,803.58537 c -20.43382,-43.19826 -17.70931,-104.5119 9.5358,-143.52966 2.7245,0 4.08677,-1.39349 6.81127,-1.39349 -31.33187,39.01777 -32.69413,100.3314 -12.2603,143.52965 -1.36225,1.3935 -2.7245,1.3935 -4.08677,1.3935 z m -4.08676,-1.3935 c -2.72451,0 -4.08676,-1.39349 -5.44902,-2.78699 -16.34707,-43.19824 -14.98481,-91.97045 6.81128,-132.38171 1.36225,-1.3935 4.08677,-2.78699 6.81127,-4.18048 -24.52059,41.80475 -27.2451,94.75744 -8.17353,139.34918 z m -12.2603,-11.14794 c -4.08676,-5.57396 -8.17353,-12.54142 -9.53579,-19.50888 -5.44902,-27.86984 -2.7245,-58.52665 5.44903,-85.003 2.72451,-4.18047 5.44902,-8.36095 9.53578,-12.54142 -16.34706,34.83729 -19.07157,80.82252 -5.44902,117.0533 z m 38.14316,-133.77521 c 1.36225,0 4.08676,0 5.44901,0 -31.33187,37.62428 -38.14315,97.54443 -16.34706,140.74267 -1.36225,1.39349 -2.72451,1.39349 -2.72451,2.78699 -21.79608,-44.59174 -17.70932,-103.11839 13.62256,-142.13616 z m 10.89805,0 c 1.36225,0 2.7245,1.3935 4.08676,1.3935 -32.69414,30.65681 -39.50541,90.57696 -21.79609,130.98822 0,1.39349 -1.36225,2.78698 -1.36225,4.18048 -19.07158,-43.19825 -14.98482,-101.7249 19.07158,-136.5622 z m 9.53578,2.78699 c 0,0 4.08676,1.39349 2.72451,1.39349 -31.33187,27.86983 -38.14315,79.42903 -24.52061,118.4468 -1.36225,1.39349 -1.36225,4.18047 -2.7245,5.57397 -14.98481,-39.01777 -9.53579,-97.54443 24.5206,-125.41426 z m 6.81128,4.18047 c 1.36225,0 2.7245,1.39349 2.7245,1.39349 -28.60736,23.68936 -34.05638,68.2811 -27.2451,101.72491 -1.36226,2.78698 -1.36226,4.18047 -2.72451,6.96745 -9.5358,-36.23079 -4.08677,-86.39649 27.24511,-110.08585 z m 5.44902,5.57397 c 0,1.39349 1.36225,1.39349 1.36225,2.78698 -21.79608,18.1154 -28.60737,52.95269 -25.88285,79.42904 -1.36225,2.78698 -2.72452,5.57396 -2.72452,8.36094 -5.44901,-30.65682 1.36227,-71.06808 27.24512,-90.57696 z m 2.72451,8.36095 c 0,1.39349 0,2.78698 0,4.18048 -12.2603,13.93491 -19.07158,32.0503 -20.43383,50.1657 -1.36226,2.78698 -2.72451,6.96746 -4.08676,9.75444 0,-22.29587 6.81126,-50.1657 24.52059,-64.10062 z m -1.36226,11.14793 c -2.7245,12.54143 -8.17354,23.68937 -13.62255,33.44381 2.72451,-11.14794 6.81128,-23.68937 13.62255,-33.44381 z" />
    <path
       inkscape:connector-curvature="0"
       id="30"
       style="fill:none;stroke:#25221e;stroke-width:2.06534386px;stroke-linecap:round;stroke-linejoin:round;stroke-opacity:1;stroke-dasharray:none"
       d="m 740.00061,513.73907 c 1.36227,-5.57397 2.72452,-12.54143 5.44904,-16.7219 0,26.47634 -1.36227,52.95269 -4.08677,80.82252 -2.72452,0 -8.17355,1.39349 -10.89805,0 l -12.26029,-2.78698 z m 8.17354,-19.50889 c 2.72451,-2.78698 8.17353,-4.18047 12.26029,-4.18047 47.67894,-1.39349 99.44466,11.14793 132.13879,51.5592 -5.44903,1.39349 -9.5358,4.18047 -14.98481,6.96745 -8.17353,8.36095 -17.70932,16.72191 -24.5206,26.47635 -35.41864,0 -72.19953,2.78698 -108.98044,2.78698 2.72452,-27.86983 4.08677,-55.73967 4.08677,-83.60951 z" />
    <path
       inkscape:connector-curvature="0"
       id="31"
       style="fill:none;stroke:#25221e;stroke-width:2.06534386px;stroke-linecap:round;stroke-linejoin:round;stroke-opacity:1;stroke-dasharray:none"
       d="m 754.98543,544.39589 c 4.08676,0 8.17353,0 13.62255,0 4.08676,0 9.53579,0 13.62256,0 2.72451,0 4.08676,0 5.44901,1.39349 1.36227,1.39349 2.72452,4.18048 2.72452,5.57397 0,2.78698 0,4.18047 0,6.96746 -1.36225,1.39349 -1.36225,4.18047 -1.36225,6.96746 0,1.39349 0,2.78698 -1.36227,4.18047 -1.36225,1.39349 -4.08676,1.39349 -5.44901,1.39349 -5.44903,0 -10.89805,0 -14.98481,-1.39349 -4.08677,0 -8.17354,0 -13.62255,-1.39349 -1.36227,0 -2.72452,0 -4.08677,-1.39349 0,-1.39349 -1.36226,-2.78699 -1.36226,-4.18048 0,-2.78698 0,-4.18047 0,-6.96746 1.36226,-1.39349 1.36226,-2.78698 1.36226,-5.57396 0,-1.3935 0,-2.78699 1.36225,-4.18048 1.36225,-1.39349 2.72452,-1.39349 4.08677,-1.39349 z" />
    <path
       inkscape:connector-curvature="0"
       id="32"
       style="fill:none;stroke:#25221e;stroke-width:2.06534386px;stroke-linecap:round;stroke-linejoin:round;stroke-opacity:1;stroke-dasharray:none"
       d="m 735.91385,577.83969 c -5.44902,2.78699 -12.2603,1.39349 -16.34706,-4.18047 0,-6.96746 1.36225,-12.54143 4.08676,-18.1154 4.08677,-5.57396 13.62255,-8.36095 24.5206,-8.36095 0,1.39349 -1.36225,1.39349 -1.36225,1.39349 0,2.78699 0,5.57397 0,6.96746 0,1.39349 0,2.78699 0,4.18048 -4.08677,0 -8.17354,-1.39349 -10.89805,1.39349 -4.08677,2.78698 -2.72452,2.78698 -2.72452,6.96746 1.36227,4.18047 4.08677,9.75444 2.72452,9.75444 z" />
    <path
       inkscape:connector-curvature="0"
       id="33"
       style="fill:none;stroke:#25221e;stroke-width:2.06534386px;stroke-linecap:round;stroke-linejoin:round;stroke-opacity:1;stroke-dasharray:none"
       d="m 735.91385,577.83969 c -1.36225,1.39349 -4.08677,1.39349 -5.44902,1.39349 0,-4.18047 -4.08676,-16.7219 2.7245,-20.90237 4.08677,-2.78699 8.17355,-1.3935 12.26032,-1.3935 1.36225,0 1.36225,0 1.36225,0 0,0 0,1.3935 0,2.78699 -4.08677,0 -8.17354,-1.39349 -10.89805,1.39349 -4.08677,2.78698 -2.72452,2.78698 -2.72452,6.96746 1.36227,4.18047 4.08677,9.75444 2.72452,9.75444 z" />
    <path
       inkscape:connector-curvature="0"
       id="34"
       style="fill:none;stroke:#25221e;stroke-width:2.06534386px;stroke-linecap:round;stroke-linejoin:round;stroke-opacity:1;stroke-dasharray:none"
       d="m 754.98543,541.60891 c 4.08676,0 9.53578,0 14.98481,0 5.44902,0 10.89805,0 16.34706,0 2.72452,0 4.08677,1.39349 6.81129,2.78698 1.36225,1.39349 1.36225,4.18047 1.36225,5.57397 0,2.78698 0,5.57396 0,8.36095 0,2.78698 0,5.57396 0,8.36095 0,1.39349 -1.36225,4.18047 -2.72452,5.57396 -1.36225,1.3935 -4.08677,1.3935 -6.81127,1.3935 -5.44903,0 -10.89804,-1.3935 -16.34707,-1.3935 -5.44902,0 -10.89804,-1.39349 -14.9848,-1.39349 -2.72452,0 -4.08677,-1.39349 -5.44903,-2.78698 0,-1.39349 -1.36225,-2.78698 -1.36225,-5.57397 0,-1.39349 0,-4.18047 0,-6.96746 0,-1.39349 0,-4.18047 0,-6.96746 1.36225,-1.39349 1.36225,-2.78698 2.72451,-4.18047 1.36225,-1.39349 2.7245,-2.78698 5.44902,-2.78698 z" />
    <path
       inkscape:connector-curvature="0"
       id="35"
       style="fill:none;stroke:#25221e;stroke-width:2.06534386px;stroke-linecap:round;stroke-linejoin:round;stroke-opacity:1;stroke-dasharray:none"
       d="m 135.1592,828.66822 c 8.17353,22.29585 19.07158,36.23077 32.69413,37.62427 -10.89804,0 -21.79609,0 -32.69413,0 l -1.36226,0 0,0 c -38.143149,-2.787 -69.475024,-36.23077 -77.648557,-82.21602 5.449022,11.14794 10.898044,19.5089 17.709321,27.86982 16.347066,16.72193 29.969616,15.32843 61.301496,16.72193 z m 35.41864,37.62427 0,0 c 0,0 0,0 -1.36226,0 1.36226,0 1.36226,0 1.36226,0 z" />
    <path
       inkscape:connector-curvature="0"
       id="36"
       style="fill:none;stroke:#25221e;stroke-width:2.06534386px;stroke-linecap:round;stroke-linejoin:round;stroke-opacity:1;stroke-dasharray:none"
       d="m 199.1852,834.24218 c -8.17353,19.50889 -19.07157,32.05031 -31.33187,32.05031 -12.2603,0 -24.5206,-13.93492 -32.69413,-37.62427 1.36226,0 2.72451,0 2.72451,1.3935 0,0 0,0 0,0 0,0 0,0 0,0 0,0 0,0 0,0 0,0 0,0 1.36226,0 0,0 0,0 1.36225,0 0,0 0,0 1.36226,0 m 0,0 c 0,0 1.36225,0 1.36225,0 0,0 -1.36225,0 -1.36225,0 z m 2.72451,0 c 0,0 1.36225,0 1.36225,0 0,0 1.36226,0 1.36226,0 0,0 -1.36226,0 -1.36226,0" />
    <path
       inkscape:connector-curvature="0"
       id="37"
       style="fill:none;stroke:#25221e;stroke-width:2.06534386px;stroke-linecap:round;stroke-linejoin:round;stroke-opacity:1;stroke-dasharray:none"
       d="m 549.28486,662.84269 c 28.60736,0 51.7657,45.98523 51.7657,100.33141 0,55.73966 -23.15834,100.33139 -51.7657,100.33139 -27.24511,0 -50.40346,-44.59173 -50.40346,-100.33139 0,-54.34618 23.15835,-100.33141 50.40346,-100.33141 z" />
    <path
       inkscape:connector-curvature="0"
       id="38"
       style="fill:none;stroke:#25221e;stroke-width:2.06534386px;stroke-linecap:round;stroke-linejoin:round;stroke-opacity:1;stroke-dasharray:none"
       d="m 547.92261,664.23618 c 27.24509,0 49.04119,44.59174 49.04119,98.93792 0,54.34619 -21.7961,98.93793 -49.04119,98.93793 -25.88286,0 -47.67894,-44.59174 -47.67894,-98.93793 0,-54.34618 21.79608,-98.93792 47.67894,-98.93792 z" />
    <path
       inkscape:connector-curvature="0"
       id="39"
       style="fill:none;stroke:#25221e;stroke-width:2.06534386px;stroke-linecap:round;stroke-linejoin:round;stroke-opacity:1;stroke-dasharray:none"
       d="m 545.19809,671.20364 c 25.88285,0 47.67894,41.80476 47.67894,91.97046 0,50.16569 -21.79609,90.57697 -47.67894,90.57697 0,0 0,0 0,0 23.15834,-4.18047 40.86766,-43.19824 40.86766,-90.57697 0,-47.37872 -17.70932,-87.78998 -40.86766,-91.97046 0,0 0,0 0,0 z" />
    <path
       inkscape:connector-curvature="0"
       id="40"
       style="fill:none;stroke:#25221e;stroke-width:2.06534386px;stroke-linecap:round;stroke-linejoin:round;stroke-opacity:1;stroke-dasharray:none"
       d="m 541.11132,687.92554 c 21.79608,0 38.14316,33.44381 38.14316,75.24856 0,41.80477 -16.34708,75.24854 -38.14316,75.24854 -20.43382,0 -36.78089,-33.44377 -36.78089,-75.24854 0,-41.80475 16.34707,-75.24856 36.78089,-75.24856 z" />
    <path
       inkscape:connector-curvature="0"
       id="41"
       style="fill:none;stroke:#25221e;stroke-width:2.06534386px;stroke-linecap:round;stroke-linejoin:round;stroke-opacity:1;stroke-dasharray:none"
       d="m 545.19809,738.09124 c 6.81128,0 13.62255,11.14794 13.62255,25.08286 0,13.93492 -6.81127,25.08285 -13.62255,25.08285 0,0 -1.36225,0 -1.36225,0 6.81127,-2.78698 12.2603,-12.54143 12.2603,-25.08285 0,-12.54143 -5.44903,-23.68936 -12.2603,-25.08286 0,0 1.36225,0 1.36225,0 z" />
    <path
       inkscape:connector-curvature="0"
       id="42"
       style="fill:none;stroke:#25221e;stroke-width:2.06534386px;stroke-linecap:round;stroke-linejoin:round;stroke-opacity:1;stroke-dasharray:none"
       d="m 545.19809,738.09124 c 6.81128,0 13.62255,11.14794 13.62255,25.08286 0,13.93492 -6.81127,25.08285 -13.62255,25.08285 -6.81128,0 -13.62256,-11.14793 -13.62256,-25.08285 0,-13.93492 6.81128,-25.08286 13.62256,-25.08286 z" />
    <path
       inkscape:connector-curvature="0"
       id="43"
       style="fill:none;stroke:#25221e;stroke-width:2.06534386px;stroke-linecap:round;stroke-linejoin:round;stroke-opacity:1;stroke-dasharray:none"
       d="m 527.48876,639.15333 c 2.72452,-1.39349 9.5358,-1.39349 14.98481,-1.39349 -32.69412,2.78698 -59.93923,58.52665 -59.93923,125.41426 0,20.90237 2.72451,41.80477 8.17353,61.31365 6.81128,25.08285 23.15834,62.70713 53.12797,64.10059 0,0 0,0 0,0 -8.17355,0 -16.34708,0 -24.52061,0 -9.53578,0 -17.70931,0 -27.24511,0 0,0 0,0 0,0 -16.34706,-1.39346 -31.33186,-16.72189 -42.22991,-40.41124 -2.72451,-5.57396 -5.44903,-13.93492 -6.81128,-22.29588 4.08677,-6.96746 6.81128,-16.72189 10.89805,-26.47634 12.26029,-34.83729 23.15834,-82.21601 36.78089,-112.87283 8.17353,-23.68936 21.79609,-40.41126 36.78089,-47.37872 z" />
    <path
       inkscape:connector-curvature="0"
       id="44"
       style="fill:none;stroke:#25221e;stroke-width:2.06534386px;stroke-linecap:round;stroke-linejoin:round;stroke-opacity:1;stroke-dasharray:none"
       d="m 940.25217,601.52905 c 4.08677,0 8.17353,0 13.62255,0 -25.88285,4.18048 -46.31668,52.95269 -46.31668,111.47935 0,59.92014 21.79608,110.08585 47.67894,111.47935 -5.44903,0 -12.26029,0 -19.07158,0 -6.81128,0 -13.62256,0 -20.43382,0 0,0 0,0 0,0 -13.62257,-1.3935 -24.52061,-15.32842 -32.69415,-36.2308 -2.7245,-5.57397 -4.08676,-12.54143 -6.81126,-20.90237 16.34706,-34.8373 24.52059,-91.97046 42.22991,-133.77522 0,0 0,0 0,0 6.81128,-13.93491 13.62256,-25.08285 21.79609,-32.05031 z m 19.07158,0 c 0,0 0,0 0,0 0,0 0,0 0,0 0,0 0,0 0,0 z" />
    <path
       inkscape:connector-curvature="0"
       id="45"
       style="fill:none;stroke:#25221e;stroke-width:2.06534386px;stroke-linecap:round;stroke-linejoin:round;stroke-opacity:1;stroke-dasharray:none"
       d="m 853.06782,793.83092 c 57.21472,-36.23079 1.36225,-239.68059 113.0672,-204.84329 13.62256,5.57396 35.41868,34.83729 38.14318,89.18347 -1.3623,-5.57397 -2.7245,-12.54143 -4.0868,-18.11539 -5.44901,-37.62428 -21.79607,-64.10063 -42.22992,-64.10063 -16.34706,0 -29.96961,15.32841 -39.5054,37.62428 0,0 0,0 0,0 -24.5206,55.73967 -29.96962,139.34918 -59.93924,160.25156 0,0 0,0 0,0 -1.36225,0 -2.72452,0 -5.44902,0 z" />
    <path
       inkscape:connector-curvature="0"
       id="46"
       style="fill:none;stroke:#25221e;stroke-width:2.06534386px;stroke-linecap:round;stroke-linejoin:round;stroke-opacity:1;stroke-dasharray:none"
       d="m 606.49958,719.97585 c -9.53578,-48.77221 -34.05638,-85.00299 -62.66374,-85.00299 -21.79609,-1.3935 -42.22992,20.90237 -53.12797,51.55919 -13.62255,30.65682 -24.5206,78.03554 -36.78089,112.87283 -9.5358,22.29588 -12.2603,41.80476 -35.41865,41.80476 0,1.3935 0,1.3935 -1.36226,1.3935 39.50541,-50.16572 13.62256,-193.69537 107.61819,-221.5652 2.7245,0 6.81127,0 9.53578,0 51.76571,0 87.18435,64.10062 79.01082,142.13616 -1.36225,9.75444 -2.72452,18.11539 -4.08677,26.47634 0,-8.36095 0,-18.11539 0,-26.47634 0,-15.32841 -1.36225,-29.26333 -2.72451,-43.19825 z" />
    <path
       inkscape:connector-curvature="0"
       id="47"
       style="fill:none;stroke:#25221e;stroke-width:2.06534386px;stroke-linecap:round;stroke-linejoin:round;stroke-opacity:1;stroke-dasharray:none"
       d="m 181.47589,832.84868 c -2.72452,2.787 -5.44903,5.57396 -9.53579,5.57396 -4.08677,0 -6.81128,-2.78696 -9.53579,-6.96746" />
    <path
       sodipodi:nodetypes="ccccsccccccccsscccccsccssssccccccccccccsccccccccccc"
       inkscape:connector-curvature="0"
       id="48"
       style="fill:none;stroke:#25221e;stroke-width:6.19603109px;stroke-linecap:round;stroke-linejoin:round;stroke-opacity:1;stroke-dasharray:none"
       d="m 166.49108,866.29249 c -10.89805,0 -20.43384,0 -31.33188,0 0,0 -1.36226,0 -2.72451,0 -36.780899,-2.787 -68.112774,-37.62427 -76.286307,-82.21602 -8.173532,-18.11539 -13.622554,-39.01777 -13.622554,-61.31363 0,-51.5592 25.882853,-96.15094 62.663751,-115.65982 35.41864,-20.90238 77.64856,-30.65682 121.24073,-36.23079 49.04121,-5.57396 99.44465,-6.96746 148.48585,-4.18047 21.79608,-33.44381 42.22991,-64.10063 64.026,-82.21602 19.07158,-12.54142 31.33188,-18.11539 49.04119,-20.90237 102.16916,-11.14794 360.99771,-32.05031 426.38596,80.82252 13.62256,2.78698 28.60738,4.18047 38.14316,18.11539 0,0 1.36225,0 1.36225,1.39349 2.72451,-2.78698 5.44903,-4.18047 9.53579,-4.18047 9.53579,0 16.34707,8.36095 16.34707,16.7219 0,2.78698 0,4.18048 -1.36225,6.96746 0,0 0,1.39349 1.36225,2.78698 0,4.18048 4.08676,6.96746 6.81128,13.93492 1.36225,2.78698 13.62254,2.78698 9.53578,19.50889 l 0,1.39349 c 5.44906,6.96746 9.53576,29.26332 9.53576,57.13316 0,4.18048 0,6.96746 0,11.14793 l 0,0 c 0,6.96746 1.3623,15.32841 1.3623,22.29587 0,62.70713 -23.15836,112.87285 -51.76572,112.87285 l -1.36226,0 c -6.81127,0 -12.2603,0 -17.70932,0 -6.81128,0 -13.62256,0 -20.43382,0 l 0,0 c -13.62257,-1.3935 -24.52061,-15.32842 -32.69415,-36.2308 -2.7245,-5.57397 -4.08676,-12.54143 -5.44901,-20.90237 -5.44902,9.75444 -10.89805,20.90237 -19.07158,26.47634 l 0,0 c -87.18435,12.54141 -173.00645,26.47634 -260.19079,40.41126 1.36226,-1.3935 1.36226,-1.3935 1.36226,-1.3935 l 0,0 c -10.89805,32.05031 -29.96962,54.3462 -50.40345,55.73966 -2.72452,0.0308 -4.08677,0.13565 -6.81129,0 m 0,0 c -5.44901,0 -12.26029,0 -19.07157,0 -9.53579,0 -19.07157,0 -27.24511,0 l 0,0 c -19.07157,-1.39346 -34.05638,-16.72189 -44.95443,-40.41124 -4.08676,-5.57396 -6.81128,-13.93492 -8.17353,-22.29588 l 0,0 c -5.44902,9.75446 -12.2603,15.32842 -24.5206,15.32842 -24.52059,2.78697 -54.49022,2.78697 -84.45984,1.3935 -43.59218,-1.3935 -91.27112,-5.57396 -136.22554,-8.36096 1.36225,1.3935 1.36225,1.3935 1.36225,1.3935 -6.81127,16.72189 -16.34706,27.86981 -27.2451,30.65681 -1.36226,0 -4.08677,0 -5.44902,0" />
  </g>
</svg>
