<?xml version="1.0"?><svg width="586.5" height="666" xmlns="http://www.w3.org/2000/svg">
 <title>turtle outline</title>
 <g>
  <title>Layer 1</title>
  <path fill="#ffffff" fill-rule="evenodd" stroke="#000000" stroke-width="2px" id="path2" d="m338.5,182l0.5,2l-1.5,1.25q-1.5,1.25 -1.75,2q-0.25,0.75 -5,7.5q-4.75,6.75 -4.25,8.25l0.5,1.5l-6.5,4q-6.5,4 -10.75,6.25l-4.25,2.25l-1,1.5q-1,1.5 -3.25,5l-2.25,3.5l-1.5,0.5l-1.5,0.5l-7.5,1q-7.5,1 -8.5,0l-1,-1l0,1.5q0,1.5 -6.5,1.5q-6.5,0 -7.5,-0.75q-1,-0.75 -8.5,-1.75l-7.5,-1l-0.5,-0.25l-0.5,-0.25l-2.75,-3q-2.75,-3 -13,-9.75l-10.25,-6.75l-1.25,-3.25q-1.25,-3.25 -6,-9.5q-4.75,-6.25 -6.25,-9l-1.5,-2.75l3,-2.75q3,-2.75 4.5,-4.25l1.5,-1.5l2,-0.5q2,-0.5 3.75,-1.25q1.75,-0.75 2.5,0.5q0.75,1.25 3.25,0.5l2.5,-0.75l0,-0.5l0,-0.5l1.5,0l1.5,0l1,1.25q1,1.25 3.5,2.25q2.5,1 11,3.25q8.5,2.25 10.5,2.5l2,0.25l6.5,-0.5q6.5,-0.5 13.75,-0.25l7.25,0.25l0.25,-1.5q0.25,-1.5 6,-1l5.75,0.5l3.75,-1.75q3.75,-1.75 7.25,-4l3.5,-2.25l1.5,-0.25l1.5,-0.25l5.5,1.5q5.5,1.5 9,4.5q3.5,3 4.5,3.25q1,0.25 1.5,2.25z"/>
  <path fill="#ffffff" fill-rule="evenodd" stroke="#000000" stroke-width="2px" id="path4" d="m205.75,183.5l1.25,-0.5l1.5,2.75q1.5,2.75 6.25,9q4.75,6.25 6,9.5l1.25,3.25l10.25,6.75q10.25,6.75 13,9.75l2.75,3l-0.5,0l-0.5,0l-2,4.75q-2,4.75 -4.5,6.75q-2.5,2 -6.25,7.75q-3.75,5.75 -7,10.75q-3.25,5 -5.25,6l-2,1l-10,-1.75q-10,-1.75 -12.25,-3l-2.25,-1.25l-8.75,0q-8.75,0 -8.75,-1q0,-1 -13,-3.75q-13,-2.75 -15,-3l-2,-0.25l0.25,-5l0.25,-5l4.5,-4.5q4.5,-4.5 6.75,-6.5l2.25,-2l1.75,-6l1.75,-6l4.75,-4.75q4.75,-4.75 6.25,-6.5l1.5,-1.75l2.5,-0.75l2.5,-0.75l3,-4l3,-4l4,-1q4,-1 5.5,-1.5l1.5,-0.5l2.25,-2.75q2.25,-2.75 3.5,-3.25z"/>
  <path fill="#ffffff" fill-rule="evenodd" stroke="#000000" stroke-width="2px" id="path6" d="m210,262.25l10,1.75l0.5,0l0.5,0l1.5,1.25q1.5,1.25 4.5,3.25l3,2l1.25,3.25q1.25,3.25 1.75,4.75l0.5,1.5l0.75,2q0.75,2 3.5,3.5q2.75,1.5 4.75,6q2,4.5 2.75,5.25l0.75,0.75l0.5,0.25l0.5,0.25l0.5,1l0.5,1l-2.25,1.5q-2.25,1.5 -5.75,7q-3.5,5.5 -6.5,10q-3,4.5 -5.75,7.75q-2.75,3.25 -4,4.5q-1.25,1.25 -2.25,2.75q-1,1.5 -1.75,2l-0.75,0.5l-0.5,-0.75l-0.5,-0.75l-7.5,-1.5q-7.5,-1.5 -12.5,-1l-5,0.5l-2,-0.25q-2,-0.25 -1.75,-1.25q0.25,-1 -5.5,-1.75q-5.75,-0.75 -11.25,-2.25q-5.5,-1.5 -12.5,-3q-7,-1.5 -8.25,-1.25q-1.25,0.25 -7,-1.25l-5.75,-1.5l0.5,-1.5l0.5,-1.5l-0.75,-2.5q-0.75,-2.5 -0.75,-3q0,-0.5 -1.25,-2.25l-1.25,-1.75l0.25,-1.75q0.25,-1.75 -0.25,-2.75q-0.5,-1 0,-2.5q0.5,-1.5 0,-6.5q-0.5,-5 1,-13q1.5,-8 1.25,-11.5l-0.25,-3.5l1.25,-4q1.25,-4 2.5,-5.75q1.25,-1.75 2.75,-4l1.5,-2.25l1,0l1,0l2,0.25q2,0.25 15,3q13,2.75 13,3.75q0,1 8.75,1l8.75,0l2.25,1.25q2.25,1.25 12.25,3z"/>
  <path fill="#ffffff" fill-rule="evenodd" stroke="#000000" stroke-width="2px" id="path8" d="m138,321.75l1,-1.75l5.75,1.5q5.75,1.5 7,1.25q1.25,-0.25 8.25,1.25q7,1.5 12.5,3q5.5,1.5 11.25,2.25q5.75,0.75 5.5,1.75q-0.25,1 1.75,1.25l2,0.25l5,-0.5q5,-0.5 12.5,1l7.5,1.5l0.5,0.75l0.5,0.75l-0.5,0.75l-0.5,0.75l4,2q4,2 5.25,2.75l1.25,0.75l2,3q2,3 4,4.5q2,1.5 3.75,3.75q1.75,2.25 4.25,2.5l2.5,0.25l1.75,5q1.75,5 2.5,7.5l0.75,2.5l-2,1.75q-2,1.75 -4.75,4.5q-2.75,2.75 -6.5,7.5q-3.75,4.75 -8,8.5q-4.25,3.75 -5,5.75l-0.75,2l-17.5,-1q-17.5,-1 -17.5,0q0,1 -11.5,1.25q-11.5,0.25 -11.75,0q-0.25,-0.25 -6,1.25l-5.75,1.5l-3,-1.25l-3,-1.25l-2.75,-4.25q-2.75,-4.25 -5,-5.25l-2.25,-1l-2.75,-18.5q-2.75,-18.5 -3.5,-20.75l-0.75,-2.25l-2,-0.75l-2,-0.75l-5,-1l-5,-1l6,-1.25l6,-1.25l1.25,-7.25l1.25,-7.25l1.5,-1.5q1.5,-1.5 3.25,-3.25q1.75,-1.75 2.75,-3.5z"/>
  <path fill="#ffffff" fill-rule="evenodd" stroke="#000000" stroke-width="2px" id="path10" d="m205.5,401l17.5,1l1.25,2.5l1.25,2.5l2.5,-0.5q2.5,-0.5 9,8q6.5,8.5 5.5,10q-1,1.5 -0.75,3.25l0.25,1.75l2,1.75l2,1.75l-1,0.5l-1,0.5l-3.75,9q-3.75,9 -4.25,10l-0.5,1l-1.25,0.5q-1.25,0.5 -2.25,0.5l-1,0l-9,2.75q-9,2.75 -11.25,3.5l-2.25,0.75l-1.75,-1.25q-1.75,-1.25 -8.75,-0.75q-7,0.5 -15.5,2.25l-8.5,1.75l-0.5,-0.25l-0.5,-0.25l-1,-2.5q-1,-2.5 -7.75,-12.75q-6.75,-10.25 -8,-11.75l-1.25,-1.5l-2.25,-6.5q-2.25,-6.5 -3.75,-10l-1.5,-3.5l0.5,-2q0.5,-2 4.25,-4.25l3.75,-2.25l-1.5,-0.75l-1.5,-0.75l5.75,-1.5q5.75,-1.5 6,-1.25q0.25,0.25 11.75,0q11.5,-0.25 11.5,-1.25q0,-1 17.5,0z"/>
  <path fill="#ffffff" fill-rule="evenodd" stroke="#000000" stroke-width="2px" id="path12" d="m222,457.75l9,-2.75l1.5,1.25q1.5,1.25 4,2.75q2.5,1.5 4.75,2.75l2.25,1.25l2,5.5q2,5.5 2.75,9l0.75,3.5l-1,1l-1,1l-3,2.75q-3,2.75 -11.75,13.5q-8.75,10.75 -9,12.25l-0.25,1.5l-0.5,0.25l-0.5,0.25l-4,0q-4,0 -6.5,-1q-2.5,-1 -8.5,-2.75l-6,-1.75l-0.25,-3q-0.25,-3 -6.25,-12.5q-6,-9.5 -8.75,-14.5q-2.75,-5 -5.75,-6l-3,-1l0.5,-3.5l0.5,-3.5l8.5,-1.75q8.5,-1.75 15.5,-2.25q7,-0.5 8.75,0.75l1.75,1.25l2.25,-0.75q2.25,-0.75 11.25,-3.5z"/>
  <path fill="#ffffff" fill-rule="evenodd" stroke="#000000" stroke-width="2px" id="path14" d="m244,485.75l3,-2.75l11,1.75q11,1.75 21.75,1q10.75,-0.75 13,-1.75l2.25,-1l1.5,0.25l1.5,0.25l4.25,4.75q4.25,4.75 6.75,7.25q2.5,2.5 7.5,9.5q5,7 5.25,10l0.25,3l0,1.25l0,1.25l-11.5,4.5q-11.5,4.5 -23,6.25l-11.5,1.75l-0.5,1.5l-0.5,1.5l-10,-1.75q-10,-1.75 -10.75,-1.5l-0.75,0.25l-7.25,-3.25q-7.25,-3.25 -9.5,-3l-2.25,0.25l-0.25,-1q-0.25,-1 -2.75,-2.25q-2.5,-1.25 -4.75,-3.5l-2.25,-2.25l-0.75,-2.5l-0.75,-2.5l0.25,-1.5q0.25,-1.5 9,-12.25q8.75,-10.75 11.75,-13.5z"/>
  <path fill="#ffffff" fill-rule="evenodd" stroke="#000000" stroke-width="2px" id="path16" d="m309,455.5l0,-2.5l2.25,1q2.25,1 2.5,2l0.25,1l7.5,1q7.5,1 22.25,2.5q14.75,1.5 16,2.25q1.25,0.75 6.25,1.5l5,0.75l0.5,1.75l0.5,1.75l-0.75,1.75l-0.75,1.75l-3.25,3.25q-3.25,3.25 -7.75,8.75l-4.5,5.5l-0.25,1.25q-0.25,1.25 -2.75,5.75q-2.5,4.5 -4.25,8l-1.75,3.5l-1.5,-0.25l-1.5,-0.25l-2.5,1.5q-2.5,1.5 -4.25,4.25l-1.75,2.75l-4.75,-0.5l-4.75,-0.5l-1.5,1.5l-1.5,1.5l-0.25,-3q-0.25,-3 -5.25,-10q-5,-7 -7.5,-9.5q-2.5,-2.5 -6.75,-7.25l-4.25,-4.75l-1.5,-0.25l-1.5,-0.25l-0.25,-2q-0.25,-2 3.75,-10.5q4,-8.5 7.25,-10.5l3.25,-2l0,-2.5z"/>
  <path fill="#ffffff" fill-rule="evenodd" stroke="#000000" stroke-width="2px" id="path18" d="m379,402.75l8,1.25l-1,0.75l-1,0.75l5.25,1.75l5.25,1.75l0.5,1q0.5,1 -1,8.5q-1.5,7.5 -2.25,8.25l-0.75,0.75l0,1.75l0,1.75l-7.5,11.75q-7.5,11.75 -10.25,16.5q-2.75,4.75 -3,5.25l-0.25,0.5l-5,-0.75q-5,-0.75 -6.25,-1.5q-1.25,-0.75 -16,-2.25q-14.75,-1.5 -22.25,-2.5l-7.5,-1l-0.25,-1q-0.25,-1 -2.5,-2l-2.25,-1l-1.75,-2.5q-1.75,-2.5 -3.5,-8.5l-1.75,-6l-1,0l-1,0l0.25,-2.5q0.25,-2.5 0.75,-3q0.5,-0.5 1,-4.5q0.5,-4 7.75,-13.25l7.25,-9.25l1.5,-0.25l1.5,-0.25l0,1l0,1l8.5,-1.75q8.5,-1.75 25.5,-1.75q17,0 25,1.25z"/>
  <path fill="#ffffff" fill-rule="evenodd" stroke="#000000" stroke-width="2px" id="path20" d="m396,322.75l9,-1.75l0.5,0.25l0.5,0.25l4.25,3.75l4.25,3.75l-1.25,2.5q-1.25,2.5 -1,6.5q0.25,4 0.5,14l0.25,10l-1.75,5.5q-1.75,5.5 -1.5,8.5q0.25,3 0,6l-0.25,3l-2.5,4q-2.5,4 -5.25,8.75l-2.75,4.75l-5,1q-5,1 -6,0.75l-1,-0.25l-8,-1.25q-8,-1.25 -25,-1.25q-17,0 -25.5,1.75l-8.5,1.75l0,-1l0,-1l-0.25,-1.5q-0.25,-1.5 -5,-7.75q-4.75,-6.25 -9,-11.5q-4.25,-5.25 -8.5,-6.75l-4.25,-1.5l0,-2l0,-2l0.5,-0.25l0.5,-0.25l1.75,-2.75q1.75,-2.75 4.5,-7.5l2.75,-4.75l2,-1q2,-1 4.25,-3.25q2.25,-2.25 4.5,-5.5l2.25,-3.25l2.5,-1.25l2.5,-1.25l3.25,-1.5q3.25,-1.5 3,-2.25l-0.25,-0.75l13,-1l13,-1l0.5,-1.5q0.5,-1.5 17,-4q16.5,-2.5 25.5,-4.25z"/>
  <path fill="#ffffff" fill-rule="evenodd" stroke="#000000" stroke-width="2px" id="path22" d="m390.5,251.25l6.5,-2.25l1,0.5l1,0.5l3.5,12l3.5,12l0.5,0l0.5,0l2,10.25l2,10.25l-2.5,2.75q-2.5,2.75 -2.5,4q0,1.25 -0.5,1.75l-0.5,0.5l1.25,2.75q1.25,2.75 1.5,5.25q0.25,2.5 2,3.5q1.75,1 1.5,2.5l-0.25,1.5l-3,1l-3,1l-9,1.75q-9,1.75 -25.5,4.25q-16.5,2.5 -17,4l-0.5,1.5l-13,1l-13,1l0.25,0.75q0.25,0.75 -3,2.25l-3.25,1.5l-0.75,-4q-0.75,-4 -2.75,-6.5q-2,-2.5 -5.5,-8.5q-3.5,-6 -7.5,-12l-4,-6l-1.75,-1l-1.75,-1l1.5,-1.25l1.5,-1.25l1.75,-1.75q1.75,-1.75 2.25,-4.25q0.5,-2.5 3,-5q2.5,-2.5 3.75,-4l1.25,-1.5l-0.25,-1.5q-0.25,-1.5 1.5,-6.5l1.75,-5l2.5,-0.25q2.5,-0.25 3,-1l0.5,-0.75l2,-1l2,-1l5.5,-0.25q5.5,-0.25 12.5,-1.75q7,-1.5 7.5,-2l0.5,-0.5l9,-1.5q9,-1.5 11,-2.5q2,-1 7.5,-1.5q5.5,-0.5 12,-2.75z"/>
  <path fill="#ffffff" fill-rule="evenodd" stroke="#000000" stroke-width="2px" id="path24" d="m337.5,185.25l1.5,-1.25l1,0l1,0l0.5,1.75q0.5,1.75 2,3l1.5,1.25l3.75,1q3.75,1 6.5,3.25q2.75,2.25 6.5,5.5l3.75,3.25l0.75,-0.5l0.75,-0.5l2.75,2.5q2.75,2.5 6,6.25q3.25,3.75 4,4.5q0.75,0.75 1.25,1.75l0.5,1l2.75,6.25q2.75,6.25 7.75,11.25l5,5l-0.25,2.25q-0.25,2.25 0,4.25l0.25,2l-6.5,2.25q-6.5,2.25 -12,2.75q-5.5,0.5 -7.5,1.5q-2,1 -11,2.5l-9,1.5l-0.5,0.5q-0.5,0.5 -7.5,2q-7,1.5 -12.5,1.75l-5.5,0.25l-2,1l-2,1l-0.25,-2.5l-0.25,-2.5l-2.5,-2.5q-2.5,-2.5 -5.75,-9.5l-3.25,-7l-3.5,-3.25q-3.5,-3.25 -6.25,-5.5l-2.75,-2.25l-0.25,-1.5l-0.25,-1.5l1.5,-0.5l1.5,-0.5l2.25,-3.5q2.25,-3.5 3.25,-5l1,-1.5l4.25,-2.25q4.25,-2.25 10.75,-6.25l6.5,-4l-0.5,-1.5q-0.5,-1.5 4.25,-8.25q4.75,-6.75 5,-7.5q0.25,-0.75 1.75,-2z"/>
  <path fill="#ffffff" fill-rule="evenodd" stroke="#000000" stroke-width="2px" id="path26" d="m247.5,227l0.5,0l4,1.25q4,1.25 11,2.25q7,1 7.5,1q0.5,0 4.5,-1.75l4,-1.75l1,1q1,1 8.5,0l7.5,-1l0.25,1.5l0.25,1.5l2.75,2.25q2.75,2.25 6.25,5.5l3.5,3.25l3.25,7q3.25,7 5.75,9.5l2.5,2.5l0.25,2.5l0.25,2.5l-0.5,0.75q-0.5,0.75 -3,1l-2.5,0.25l-1.75,5q-1.75,5 -1.5,6.5l0.25,1.5l-1.25,1.5q-1.25,1.5 -3.75,4q-2.5,2.5 -3,5q-0.5,2.5 -2.25,4.25l-1.75,1.75l-1.5,1.25l-1.5,1.25l-2,0.25q-2,0.25 -2.5,-0.5q-0.5,-0.75 -15,0q-14.5,0.75 -21.5,-0.75q-7,-1.5 -8,-1.25l-1,0.25l-0.5,-0.25l-0.5,-0.25l-0.75,-0.75q-0.75,-0.75 -2.75,-5.25q-2,-4.5 -4.75,-6q-2.75,-1.5 -3.5,-3.5l-0.75,-2l-0.5,-1.5q-0.5,-1.5 -1.75,-4.75l-1.25,-3.25l-3,-2q-3,-2 -4.5,-3.25l-1.5,-1.25l-0.5,0l-0.5,0l2,-1q2,-1 5.25,-6q3.25,-5 7,-10.75q3.75,-5.75 6.25,-7.75q2.5,-2 4.5,-6.75l2,-4.75l0.5,0z"/>
  <path fill="#ffffff" fill-rule="evenodd" stroke="#000000" stroke-width="2px" id="path28" d="m295,300.25l2,-0.25l1.75,1l1.75,1l4,6q4,6 7.5,12q3.5,6 5.5,8.5q2,2.5 2.75,6.5l0.75,4l-2.5,1.25l-2.5,1.25l-2.25,3.25q-2.25,3.25 -4.5,5.5q-2.25,2.25 -4.25,3.25l-2,1l-2.75,4.75q-2.75,4.75 -4.5,7.5l-1.75,2.75l-0.5,0.25l-0.5,0.25l-11,0.75q-11,0.75 -11.5,0.75q-0.5,0 -10.5,0.25l-10,0.25l-0.75,-2.5q-0.75,-2.5 -2.5,-7.5l-1.75,-5l-2.5,-0.25q-2.5,-0.25 -4.25,-2.5q-1.75,-2.25 -3.75,-3.75q-2,-1.5 -4,-4.5l-2,-3l-1.25,-0.75q-1.25,-0.75 -5.25,-2.75l-4,-2l0.5,-0.75l0.5,-0.75l0.75,-0.5q0.75,-0.5 1.75,-2q1,-1.5 2.25,-2.75q1.25,-1.25 4,-4.5q2.75,-3.25 5.75,-7.75q3,-4.5 6.5,-10q3.5,-5.5 5.75,-7l2.25,-1.5l-0.5,-1l-0.5,-1l0,-0.5l0,-0.5l8,1.75q8,1.75 22.5,1q14.5,-0.75 15,0q0.5,0.75 2.5,0.5z"/>
  <path fill="#ffffff" fill-rule="evenodd" stroke="#000000" stroke-width="2px" id="path30" d="m282,370.75l11,-0.75l0,2l0,2l4.25,1.5q4.25,1.5 8.5,6.75q4.25,5.25 9,11.5q4.75,6.25 5,7.75l0.25,1.5l-1.5,0.25l-1.5,0.25l-7.25,9.25q-7.25,9.25 -7.75,13.25q-0.5,4 -1,4.5q-0.5,0.5 -0.75,3l-0.25,2.5l-0.75,0.5l-0.75,0.5l-12.25,0.25q-12.25,0.25 -18.25,-0.75q-6,-1 -11.5,-2q-5.5,-1 -8,-1.25l-2.5,-0.25l-2,-1.75l-2,-1.75l-0.25,-1.75q-0.25,-1.75 0.75,-3.25q1,-1.5 -5.5,-10q-6.5,-8.5 -9,-8l-2.5,0.5l-1.25,-2.5l-1.25,-2.5l0.75,-2q0.75,-2 5,-5.75q4.25,-3.75 8,-8.5q3.75,-4.75 6.5,-7.5q2.75,-2.75 4.75,-4.5l2,-1.75l10,-0.25q10,-0.25 10.5,-0.25q0.5,0 11.5,-0.75z"/>
  <path fill="#ffffff" fill-rule="evenodd" stroke="#000000" stroke-width="2px" id="path32" d="m299.25,436.5l0.75,-0.5l1,0l1,0l1.75,6q1.75,6 3.5,8.5l1.75,2.5l0,2.5l0,2.5l-3.25,2q-3.25,2 -7.25,10.5q-4,8.5 -3.75,10.5l0.25,2l-2.25,1q-2.25,1 -13,1.75q-10.75,0.75 -21.75,-1l-11,-1.75l1,-1l1,-1l-0.75,-3.5q-0.75,-3.5 -2.75,-9l-2,-5.5l-2.25,-1.25q-2.25,-1.25 -4.75,-2.75q-2.5,-1.5 -4,-2.75l-1.5,-1.25l1,0q1,0 2.25,-0.5l1.25,-0.5l0.5,-1q0.5,-1 4.25,-10l3.75,-9l1,-0.5l1,-0.5l2.5,0.25q2.5,0.25 8,1.25q5.5,1 11.5,2q6,1 18.25,0.75l12.25,-0.25l0.75,-0.5z"/>
  <path fill="#ffffff" fill-rule="evenodd" stroke="#000000" stroke-width="2px" id="path34" d="m187,167.75l-1,1.25l-0.5,0.25l-0.5,0.25l-3.75,4.25q-3.75,4.25 -7.5,6.5q-3.75,2.25 -6.25,4.5l-2.5,2.25l-2.75,2.5q-2.75,2.5 -4,3.75q-1.25,1.25 -3.25,3.25q-2,2 -10.25,12.25q-8.25,10.25 -11,14.25l-2.75,4l-4.5,0.5l-4.5,0.5l-3.75,3.5q-3.75,3.5 -8.5,5.75q-4.75,2.25 -7,4.5q-2.25,2.25 -14.5,14.5q-12.25,12.25 -16,15l-3.75,2.75l-1.5,4q-1.5,4 -3.75,6q-2.25,2 -4,5.5q-1.75,3.5 -4,6.75q-2.25,3.25 -5,7q-2.75,3.75 -6,5q-3.25,1.25 -5,1.5l-1.75,0.25l-0.25,3.5q-0.25,3.5 -4.5,9.5q-4.25,6 -7,6.5q-2.75,0.5 -4.25,4.5q-1.5,4 -4.5,5.25l-3,1.25l-1.75,-0.75q-1.75,-0.75 -2.25,-18.25q-0.5,-17.5 1.5,-29q2,-11.5 6,-26q4,-14.5 6,-18q2,-3.5 4.25,-5l2.25,-1.5l-0.25,-2.5q-0.25,-2.5 3.75,-10q4,-7.5 6,-11q2,-3.5 7.75,-10.75q5.75,-7.25 8.75,-10.75q3,-3.5 5.25,-6.25q2.25,-2.75 4,-4.5q1.75,-1.75 4.5,-4.5q2.75,-2.75 9.25,-7.75q6.5,-5 17.75,-12.25q11.25,-7.25 21.75,-11.25q10.5,-4 30,-5.5q19.5,-1.5 26.5,2l7,3.5l1.5,5.25q1.5,5.25 3,8l1.5,2.75l-1,1.25z"/>
  <path fill="#ffffff" fill-rule="evenodd" stroke="#000000" stroke-width="2px" id="path36" d="m414,227.5l0,-0.5l-0.25,-0.5q-0.25,-0.5 -3.25,-5q-3,-4.5 -8.75,-11.75q-5.75,-7.25 -11,-12.5q-5.25,-5.25 -7.25,-7.25q-2,-2 -4.25,-3l-2.25,-1l-1.5,0.5l-1.5,0.5l-3.75,-5.5q-3.75,-5.5 -8,-9l-4.25,-3.5l-1.25,-1.5l-1.25,-1.5l1.5,-3.5q1.5,-3.5 3.25,-7.75l1.75,-4.25l3,-2q3,-2 13,-3.5q10,-1.5 11,-2q1,-0.5 19,2.75q18,3.25 19.5,4q1.5,0.75 12.25,6.5q10.75,5.75 11,6.75q0.25,1 3.75,2.75q3.5,1.75 8.75,6q5.25,4.25 6.25,6.75l1,2.5l1.25,0.25q1.25,0.25 5.5,4q4.25,3.75 7,7.75l2.75,4l2,-0.5q2,-0.5 3,1.75q1,2.25 3,4.25q2,2 5.25,6.25q3.25,4.25 3,6.5l-0.25,2.25l1.75,-0.25q1.75,-0.25 4.25,4.25q2.5,4.5 5,9q2.5,4.5 7,18.5q4.5,14 4.25,15l-0.25,1l1,0q1,0 1,7.25l0,7.25l2,-0.75q2,-0.75 3.75,8.25q1.75,9 2.75,18.5q1,9.5 0.25,22l-0.75,12.5l-3.75,-0.5q-3.75,-0.5 -5.5,-2.5q-1.75,-2 -2.5,-3.5q-0.75,-1.5 -4.75,-4.5q-4,-3 -6.25,-7q-2.25,-4 -3.75,-5.25q-1.5,-1.25 -4.75,-3l-3.25,-1.75l-2,-3.5q-2,-3.5 -3.75,-6.5q-1.75,-3 -3.5,-4.5q-1.75,-1.5 -4.5,-5.75q-2.75,-4.25 -4,-5l-1.25,-0.75l-2,-6l-2,-6l-1.25,0.25q-1.25,0.25 -3.25,-1.75q-2,-2 -5.25,-5.25q-3.25,-3.25 -6,-6q-2.75,-2.75 -4,-4q-1.25,-1.25 -1,-2.25q0.25,-1 -3,-3q-3.25,-2 -8.5,-8l-5.25,-6l-6.5,-2.75q-6.5,-2.75 -8.5,-4.75l-2,-2l-4.5,-0.25l-4.5,-0.25l0,-0.5z"/>
  <path fill="#ffffff" fill-rule="evenodd" stroke="#000000" stroke-width="2px" id="path38" d="m272.5,555.5l1.5,-0.5l1.5,6.25l1.5,6.25l4.5,-0.25l4.5,-0.25l1,0l1,0l-2.75,7.5q-2.75,7.5 -4.5,19.5q-1.75,12 -2.75,11.75q-1,-0.25 -2.5,5q-1.5,5.25 -2.5,5l-1,-0.25l-1,-0.5q-1,-0.5 -3.75,-8.25q-2.75,-7.75 -5.75,-18.25q-3,-10.5 -3.25,-10.25q-0.25,0.25 -1.75,-5.5l-1.5,-5.75l0.5,0l0.5,0l1.5,-0.25q1.5,-0.25 6.5,0l5,0.25l1,-5.5q1,-5.5 2.5,-6z"/>
  <path fill="#ffffff" fill-rule="evenodd" stroke="#000000" stroke-width="2px" id="path40" d="m155.5,498.5l5.5,3.5l0.25,0.5l0.25,0.5l3,2q3,2 4.25,3.25q1.25,1.25 4,3q2.75,1.75 3,3.75l0.25,2l5,1l5,1l0.5,0l0.5,0l2,4q2,4 2.75,5q0.75,1 0.75,2l0,1l2.75,1.25q2.75,1.25 4,2.5q1.25,1.25 1.5,2.25l0.25,1l1,0l1,0l1.75,2l1.75,2l-0.5,3q-0.5,3 0,5.5q0.5,2.5 2,14.5l1.5,12l-4,3l-4,3l1,2.5q1,2.5 -1.25,6.25q-2.25,3.75 -2.75,5.25l-0.5,1.5l-5,0.5q-5,0.5 -8.5,1.5l-3.5,1l-0.25,0.25q-0.25,0.25 -4,4.5l-3.75,4.25l-8,1l-8,1l-5.75,-4.25q-5.75,-4.25 -8,-5.75l-2.25,-1.5l-2.25,-5q-2.25,-5 -1.75,-22q0.5,-17 3,-34.5q2.5,-17.5 6.25,-31l3.75,-13.5l5.5,3.5z"/>
  <path fill="#ffffff" fill-rule="evenodd" stroke="#000000" stroke-width="2px" id="path42" d="m337.5,544l0.5,-5l1,-0.75q1,-0.75 6,-3.5l5,-2.75l0.25,-2q0.25,-2 2.25,-3.5q2,-1.5 4.25,-4.5l2.25,-3l4,0l4,0l0.75,-3q0.75,-3 2,-4.5q1.25,-1.5 4.75,-3l3.5,-1.5l1.5,-3.25l1.5,-3.25l1,-0.25l1,-0.25l1.75,0.5q1.75,0.5 6,-2.75l4.25,-3.25l0.75,2.75q0.75,2.75 5.25,20.75q4.5,18 6.5,38q2,20 0.5,30.5q-1.5,10.5 -4.75,13.75q-3.25,3.25 -8.75,7.75l-5.5,4.5l-7,-0.5q-7,-0.5 -8.75,-1.25l-1.75,-0.75l-3.5,-3q-3.5,-3 -5.25,-4.25q-1.75,-1.25 -3,-4.5l-1.25,-3.25l-1.25,1.75q-1.25,1.75 -0.75,2.25q0.5,0.5 -3.5,0.5l-4,0l-1.25,-2.25q-1.25,-2.25 -3.5,-4.25q-2.25,-2 -1.25,-5.75l1,-3.75l-3.75,-1.75q-3.75,-1.75 -4.25,-2.75q-0.5,-1 1,-12q1.5,-11 2.25,-14.25l0.75,-3.25l-1.5,-0.25q-1.5,-0.25 -1,-5.25z"/>
  <path fill="#ffffff" fill-rule="evenodd" stroke="#000000" stroke-width="2px" id="path44" d="m344.5,507.75l1.5,0.25l1,0.75q1,0.75 3,2.5q2,1.75 3.5,3.5q1.5,1.75 3.5,3l2,1.25l-2.25,3q-2.25,3 -4.25,4.5q-2,1.5 -2.25,3.5l-0.25,2l-5,2.75q-5,2.75 -6,3.5l-1,0.75l-1,-0.25q-1,-0.25 -7.75,4.5q-6.75,4.75 -11.5,3.75l-4.75,-1l0.25,1q0.25,1 -0.5,3.5q-0.75,2.5 -8.25,6.25q-7.5,3.75 -11.5,5.75q-4,2 -5.5,3.25l-1.5,1.25l-4.5,0.25l-4.5,0.25l-1.5,-6.25l-1.5,-6.25l0.25,-4q0.25,-4 1,-9.5l0.75,-5.5l-0.5,0l-0.5,0l0.5,-1.5l0.5,-1.5l11.5,-1.75q11.5,-1.75 23,-6.25l11.5,-4.5l0,-1.25l0,-1.25l1.5,-1.5l1.5,-1.5l4.75,0.5l4.75,0.5l1.75,-2.75q1.75,-2.75 4.25,-4.25l2.5,-1.5l1.5,0.25z"/>
  <path fill="#ffffff" fill-rule="evenodd" stroke="#000000" stroke-width="2px" id="path46" d="m384.5,442.75l7.5,-11.75l1,0.25l1,0.25l0.75,1.75q0.75,1.75 1,3.25q0.25,1.5 -1.25,1.75l-1.5,0.25l5.5,1.75l5.5,1.75l3,0.5l3,0.5l-0.75,4.5q-0.75,4.5 -6,15.25q-5.25,10.75 -6.5,12q-1.25,1.25 -1.75,3.25q-0.5,2 -1.75,3.75q-1.25,1.75 -3,3l-1.75,1.25l-0.5,1q-0.5,1 -1.5,5q-1,4 -2.25,6l-1.25,2l-1,0.25l-1,0.25l-1.5,3.25l-1.5,3.25l-3.5,1.5q-3.5,1.5 -4.75,3q-1.25,1.5 -3.25,5l-2,3.5l-0.25,-0.25q-0.25,-0.25 -2.75,-0.5l-2.5,-0.25l-2,-1.25q-2,-1.25 -3.5,-3q-1.5,-1.75 -3.5,-3.5q-2,-1.75 -3,-2.5l-1,-0.75l1.75,-3.5q1.75,-3.5 4.25,-8q2.5,-4.5 2.75,-5.75l0.25,-1.25l4.5,-5.5q4.5,-5.5 7.75,-8.75l3.25,-3.25l0.75,-1.75l0.75,-1.75l-0.5,-1.75l-0.5,-1.75l0.25,-0.5q0.25,-0.5 3,-5.25q2.75,-4.75 10.25,-16.5z"/>
  <path fill="#ffffff" fill-rule="evenodd" stroke="#000000" stroke-width="2px" id="path48" d="m422.5,349.25l3.5,-0.25l2.5,0l2.5,0l1.25,5q1.25,5 0.75,8q-0.5,3 -3.75,20q-3.25,17 -5.75,17.5l-2.5,0.5l0.5,1.25q0.5,1.25 2.25,2q1.75,0.75 1,6.25q-0.75,5.5 -2,7q-1.25,1.5 -3,7.25q-1.75,5.75 -2.5,7q-0.75,1.25 -2,5.5l-1.25,4.25l-5,0.75l-5,0.75l-5.5,-1.75l-5.5,-1.75l1.5,-0.25q1.5,-0.25 1.25,-1.75q-0.25,-1.5 -1,-3.25l-0.75,-1.75l-1,-0.25l-1,-0.25l0,-1.75l0,-1.75l0.75,-0.75q0.75,-0.75 2.25,-8.25q1.5,-7.5 1,-8.5l-0.5,-1l-5.25,-1.75l-5.25,-1.75l1,-0.75l1,-0.75l1,0.25q1,0.25 6,-0.75l5,-1l2.75,-4.75q2.75,-4.75 5.25,-8.75l2.5,-4l0.25,-3q0.25,-3 0,-6q-0.25,-3 1.5,-8.5l1.75,-5.5l0.5,0q0.5,0 1.25,-5l0.75,-5l1.75,-1.25q1.75,-1.25 5.25,-1.5z"/>
  <path fill="#ffffff" fill-rule="evenodd" stroke="#000000" stroke-width="2px" id="path50" d="m423.75,268l0.25,-1l1,0l1,0l2.75,11q2.75,11 3,17.75q0.25,6.75 -0.75,7.25l-1,0.5l2,1.25q2,1.25 2.25,16.25q0.25,15 0,19l-0.25,4l-2.5,1.75q-2.5,1.75 -4,2.5l-1.5,0.75l-3.5,0.25q-3.5,0.25 -5.25,1.5l-1.75,1.25l-0.75,5q-0.75,5 -1.25,5l-0.5,0l-0.25,-10q-0.25,-10 -0.5,-14q-0.25,-4 1,-6.5l1.25,-2.5l-4.25,-3.75l-4.25,-3.75l-0.5,-0.25l-0.5,-0.25l3,-1l3,-1l0.25,-1.5q0.25,-1.5 -1.5,-2.5q-1.75,-1 -2,-3.5q-0.25,-2.5 -1.5,-5.25l-1.25,-2.75l0.5,-0.5q0.5,-0.5 0.5,-1.75q0,-1.25 2.5,-4l2.5,-2.75l-2,-10.25l-2,-10.25l0.25,-0.5l0.25,-0.5l1,-1q1,-1 2.75,-1.75q1.75,-0.75 7,-1l5.25,-0.25l0.25,-1z"/>
  <path fill="#ffffff" fill-rule="evenodd" stroke="#000000" stroke-width="2px" id="path52" d="m413.75,226.5l0.25,0.5l-0.25,1.5q-0.25,1.5 4.25,13.5q4.5,12 5.25,18.5l0.75,6.5l-0.25,1l-0.25,1l-5.25,0.25q-5.25,0.25 -7,1q-1.75,0.75 -3,2.25l-1.25,1.5l-0.5,0l-0.5,0l-3.5,-12l-3.5,-12l-1,-0.5l-1,-0.5l-0.25,-2q-0.25,-2 0,-4.25l0.25,-2.25l-5,-5q-5,-5 -7.75,-11.25l-2.75,-6.25l-0.5,-1q-0.5,-1 -1.25,-1.75q-0.75,-0.75 -4,-4.5q-3.25,-3.75 -6,-6.25l-2.75,-2.5l0.25,-2q0.25,-2 2,-3.75q1.75,-1.75 3.25,-5.5l1.5,-3.75l1.5,-0.5l1.5,-0.5l2.25,1q2.25,1 4.25,3q2,2 7.25,7.25q5.25,5.25 11,12.5q5.75,7.25 8.75,11.75q3,4.5 3.25,5z"/>
  <path fill="#ffffff" fill-rule="evenodd" stroke="#000000" stroke-width="2px" id="path54" d="m355,168.5l3,0.5l4.25,3.5q4.25,3.5 8,9l3.75,5.5l-1.5,3.75q-1.5,3.75 -3.25,5.5q-1.75,1.75 -2,3.75l-0.25,2l-0.75,0.5l-0.75,0.5l-3.75,-3.25q-3.75,-3.25 -6.5,-5.5q-2.75,-2.25 -6.5,-3.25l-3.75,-1l-1.5,-1.25q-1.5,-1.25 -2,-3l-0.5,-1.75l-1,0l-1,0l-0.5,-2q-0.5,-2 -1.5,-2.25q-1,-0.25 -4.5,-3.25q-3.5,-3 -9,-4.5l-5.5,-1.5l-1.5,0.25l-1.5,0.25l-0.75,-4.5q-0.75,-4.5 -3.5,-9.5l-2.75,-5l0.5,-2.5l0.5,-2.5l2,-1l2,-1l4,-0.75q4,-0.75 7.5,-1l3.5,-0.25l1.5,1.75q1.5,1.75 5,3.5q3.5,1.75 4,4.75q0.5,3 -0.75,3.5l-1.25,0.5l1.75,0.75q1.75,0.75 4.75,2.25q3,1.5 6,4.75l3,3.25l3,0.5z"/>
  <path fill="#ffffff" fill-rule="evenodd" stroke="#000000" stroke-width="2px" id="path56" d="m236.75,153l1.25,-2l0,1l0,1l1.5,-0.25q1.5,-0.25 4.5,0.25l3,0.5l5,3q5,3 8.5,4.25l3.5,1.25l0.5,-1.25q0.5,-1.25 7.75,-1.5q7.25,-0.25 9,1l1.75,1.25l9,-4q9,-4 11.75,-3.75l2.75,0.25l0.75,-1l0.75,-1l2.75,5q2.75,5 3.5,9.5l0.75,4.5l-3.5,2.25q-3.5,2.25 -7.25,4l-3.75,1.75l-5.75,-0.5q-5.75,-0.5 -6,1l-0.25,1.5l-7.25,-0.25q-7.25,-0.25 -13.75,0.25l-6.5,0.5l-2,-0.25q-2,-0.25 -10.5,-2.5q-8.5,-2.25 -11,-3.25q-2.5,-1 -3.5,-2.25l-1,-1.25l-1.5,0l-1.5,0l1,-0.75q1,-0.75 0.75,-3q-0.25,-2.25 1.75,-7.75q2,-5.5 3.25,-7.5z"/>
  <path fill="#ffffff" fill-rule="evenodd" stroke="#000000" stroke-width="2px" id="path58" d="m224,144.25l8,0.75l3,3l3,3l-1.25,2q-1.25,2 -3.25,7.5q-2,5.5 -1.75,7.75q0.25,2.25 -0.75,3l-1,0.75l0,0.5l0,0.5l-2.5,0.75q-2.5,0.75 -3.25,-0.5q-0.75,-1.25 -2.5,-0.5q-1.75,0.75 -3.75,1.25l-2,0.5l-1.5,1.5q-1.5,1.5 -4.5,4.25l-3,2.75l-1.25,0.5q-1.25,0.5 -3.5,3.25l-2.25,2.75l-1.5,0.5q-1.5,0.5 -5.5,1.5l-4,1l-1.75,1.75q-1.75,1.75 -4,4.5l-2.25,2.75l-1.5,0.25l-1.5,0.25l-0.25,-2.5q-0.25,-2.5 -3.25,-5q-3,-2.5 -5.75,-4q-2.75,-1.5 -3.25,-2.5l-0.5,-1l2.5,-2.25q2.5,-2.25 6.25,-4.5q3.75,-2.25 7.5,-6.5l3.75,-4.25l0.5,-0.25l0.5,-0.25l0,0.5q0,0.5 3.75,-1q3.75,-1.5 5.75,-3.5q2,-2 5.5,-5q3.5,-3 4.75,-2.25l1.25,0.75l-0.25,-1.25q-0.25,-1.25 1.25,-4.75q1.5,-3.5 4.75,-6.25l3.25,-2.75l8,0.75z"/>
  <path fill="#ffffff" fill-rule="evenodd" stroke="#000000" stroke-width="2px" id="path60" d="m162.25,189.5l2.75,-2.5l0.5,1q0.5,1 3.25,2.5q2.75,1.5 5.75,4q3,2.5 3.25,5l0.25,2.5l-1.5,1.75q-1.5,1.75 -6.25,6.5l-4.75,4.75l-1.75,6l-1.75,6l-2.25,2q-2.25,2 -6.75,6.5l-4.5,4.5l-0.25,5l-0.25,5l-1,0l-1,0l-1.5,2.25q-1.5,2.25 -2.75,4q-1.25,1.75 -2.5,5.75l-1.25,4l-1,0.25q-1,0.25 -7.5,0l-6.5,-0.25l-1,-1l-1,-1l3.25,-12q3.25,-12 5.5,-18.5q2.25,-6.5 1.75,-6.5l-0.5,0l2.75,-4q2.75,-4 11,-14.25q8.25,-10.25 10.25,-12.25q2,-2 3.25,-3.25q1.25,-1.25 4,-3.75z"/>
  <path fill="#ffffff" fill-rule="evenodd" stroke="#000000" stroke-width="2px" id="path62" d="m121,266.5l2,-0.5l6.5,0.25q6.5,0.25 7.5,0l1,-0.25l0.25,3.5q0.25,3.5 -1.25,11.5q-1.5,8 -1,13q0.5,5 0,6.5q-0.5,1.5 0,2.5q0.5,1 0.25,2.75l-0.25,1.75l1.25,1.75q1.25,1.75 1.25,2.25q0,0.5 0.75,3l0.75,2.5l-0.5,1.5l-0.5,1.5l-1,1.75q-1,1.75 -2.75,3.5q-1.75,1.75 -3.25,3.25l-1.5,1.5l-1.25,7.25l-1.25,7.25l-6,1.25l-6,1.25l-1.5,-0.75l-1.5,-0.75l-1.25,-6.75q-1.25,-6.75 -0.75,-19.25q0.5,-12.5 2.25,-13.25l1.75,-0.75l-1.5,-0.5q-1.5,-0.5 -1.25,-2.25q0.25,-1.75 3.5,-18.75l3.25,-17l2,-0.5z"/>
  <path fill="#ffffff" fill-rule="evenodd" stroke="#000000" stroke-width="2px" id="path64" d="m119.75,350.5l6.25,-1.5l2,0.75l2,0.75l0.75,2.25q0.75,2.25 3.5,20.75l2.75,18.5l2.25,1q2.25,1 5,5.25l2.75,4.25l3,1.25l3,1.25l1.5,0.75l1.5,0.75l-3.75,2.25q-3.75,2.25 -4.25,4.25l-0.5,2l1.5,3.5q1.5,3.5 3.75,10l2.25,6.5l-1.25,-1l-1.25,-1l-1.25,0.5q-1.25,0.5 -1.25,3.25q0,2.75 -7.5,5l-7.5,2.25l-1.5,-0.75l-1.5,-0.75l-5.25,-13.75q-5.25,-13.75 -6.25,-17.75q-1,-4 0.75,-7.25l1.75,-3.25l-1.5,-0.5q-1.5,-0.5 -3.75,-9.25q-2.25,-8.75 -3.75,-22.75q-1.5,-14 -1,-15l0.5,-1l6.25,-1.5z"/>
  <path fill="#ffffff" fill-rule="evenodd" stroke="#000000" stroke-width="2px" id="path66" d="m153.75,434l1.25,1l1.25,1.5q1.25,1.5 8,11.75q6.75,10.25 7.75,12.75l1,2.5l0.5,0.25l0.5,0.25l-0.5,3.5l-0.5,3.5l3,1q3,1 5.75,6q2.75,5 8.75,14.5q6,9.5 6.25,12.5l0.25,3l-1,0l-1,0l-1.75,3.5q-1.75,3.5 -4.5,5l-2.75,1.5l0,0.5l0,0.5l-2,-0.25q-2,-0.25 -3.75,-0.5l-1.75,-0.25l-1.5,-2.5q-1.5,-2.5 -4.25,-4.25q-2.75,-1.75 -4,-3q-1.25,-1.25 -4.25,-3.25l-3,-2l-0.25,-0.5l-0.25,-0.5l0.25,-1.5q0.25,-1.5 -0.75,-3q-1,-1.5 -1.75,-7.5l-0.75,-6l-2.25,-0.5q-2.25,-0.5 -10.25,-15q-8,-14.5 -9,-17.5q-1,-3 -1.25,-5l-0.25,-2l7.5,-2.25q7.5,-2.25 7.5,-5q0,-2.75 1.25,-3.25l1.25,-0.5l1.25,1z"/>
  <path fill="#ffffff" fill-rule="evenodd" stroke="#000000" stroke-width="2px" id="path68" d="m196,508l1,0l6,1.75q6,1.75 8.5,2.75q2.5,1 6.5,1l4,0l0.5,-0.25l0.5,-0.25l0.75,2.5l0.75,2.5l2.25,2.25q2.25,2.25 4.75,3.5q2.5,1.25 2.75,2.25l0.25,1l2.25,-0.25q2.25,-0.25 9.5,3l7.25,3.25l0.75,-0.25q0.75,-0.25 10.75,1.5l10,1.75l0.5,0l0.5,0l-0.75,5.5q-0.75,5.5 -1,9.5l-0.25,4l-1.5,0.5q-1.5,0.5 -2.5,6l-1,5.5l-5,-0.25q-5,-0.25 -6.5,0l-1.5,0.25l-0.25,-2q-0.25,-2 -1,-1.75q-0.75,0.25 -5.25,-2.75q-4.5,-3 -5.75,-2.75q-1.25,0.25 -6.25,-2.75q-5,-3 -5.25,-4.75l-0.25,-1.75l-2.5,0q-2.5,0 -3,0.5q-0.5,0.5 -6.5,-3.5q-6,-4 -11.5,-5.75l-5.5,-1.75l-1,0l-1,0l-0.25,-1q-0.25,-1 -1.5,-2.25q-1.25,-1.25 -4,-2.5l-2.75,-1.25l0.25,-2q0.25,-2 -2.5,-4.5q-2.75,-2.5 -3.5,-4l-0.75,-1.5l0,-0.5l0,-0.5l2.75,-1.5q2.75,-1.5 4.5,-5l1.75,-3.5l1,0z"/>
  <path fill="#ffffff" fill-rule="evenodd" stroke="#000000" stroke-width="2px" id="path70" d="m305.5,105.75l0.5,-0.75l0.5,0l0.5,0l-0.25,5.5q-0.25,5.5 -1,10q-0.75,4.5 -3.25,4.75l-2.5,0.25l3,0.25q3,0.25 4.75,3.75q1.75,3.5 6,6.5l4.25,3l-1.5,1.25q-1.5,1.25 -2.5,3l-1,1.75l-2,1l-2,1l-0.5,2.5l-0.5,2.5l-0.75,1l-0.75,1l-2.75,-0.25q-2.75,-0.25 -11.75,3.75l-9,4l-1.75,-1.25q-1.75,-1.25 -9,-1q-7.25,0.25 -7.75,1.5l-0.5,1.25l-3.5,-1.25q-3.5,-1.25 -8.5,-4.25l-5,-3l-3,-0.5q-3,-0.5 -4.5,-0.25l-1.5,0.25l0,-1l0,-1l-3,-3l-3,-3l-1.5,-3l-1.5,-3l1,-0.25q1,-0.25 5.25,-5.5l4.25,-5.25l-0.5,-6q-0.5,-6 -0.75,-10.5l-0.25,-4.5l0.5,0l0.5,0l4,1.25q4,1.25 20.5,2.25q16.5,1 29,-1.5q12.5,-2.5 13,-3.25z"/>
  <path fill="#ffffff" fill-rule="evenodd" stroke="#000000" stroke-width="2px" id="path72" d="m285.75,21.5l1.25,2.5l-1.25,1q-1.25,1 -0.25,10.5l1,9.5l1.75,0q1.75,0 2.75,1.25q1,1.25 5.5,0.5l4.5,-0.75l2,7.5q2,7.5 4.25,15q2.25,7.5 0.75,20q-1.5,12.5 -1.75,14.5l-0.25,2l-0.25,0.5l-0.25,0.5l-0.25,0.25q-0.25,0.25 -12.75,2.75q-12.5,2.5 -29,1.5q-16.5,-1 -20.5,-2.25l-4,-1.25l-1.75,-12q-1.75,-12 -0.75,-19.5q1,-7.5 4.75,-17.5l3.75,-10l5.25,-1q5.25,-1 7,-2l1.75,-1l0.75,-5.5q0.75,-5.5 0,-10l-0.75,-4.5l0.25,-1l0.25,-1l3.75,-4.75q3.75,-4.75 5,-5.5q1.25,-0.75 2,-1.5l0.75,-0.75l3.5,1.5q3.5,1.5 6.75,4.75q3.25,3.25 4.5,5.75z"/>
  <path fill="#ffffff" fill-rule="evenodd" stroke="#000000" stroke-width="2px" id="path74" d="m285.75,25l1.25,-1l5,2.5q5,2.5 7.25,8q2.25,5.5 2,8.5l-0.25,3l-4.5,0.75q-4.5,0.75 -5.5,-0.5q-1,-1.25 -2.75,-1.25l-1.75,0l-1,-9.5q-1,-9.5 0.25,-10.5z"/>
  <path fill="#ffffff" fill-rule="evenodd" stroke="#000000" stroke-width="2px" id="path76" d="m255,25.75l4,-1.75l0.75,4.5q0.75,4.5 0,10l-0.75,5.5l-1.75,1q-1.75,1 -7,2l-5.25,1l0.25,-7q0.25,-7 3,-10.25q2.75,-3.25 6.75,-5z"/>
 </g>
</svg>