<?xml version="1.0" encoding="UTF-8" standalone="no"?>
<!-- Created with Inkscape (http://www.inkscape.org/) -->
<svg
   xmlns:dc="http://purl.org/dc/elements/1.1/"
   xmlns:cc="http://creativecommons.org/ns#"
   xmlns:rdf="http://www.w3.org/1999/02/22-rdf-syntax-ns#"
   xmlns:svg="http://www.w3.org/2000/svg"
   xmlns="http://www.w3.org/2000/svg"
   xmlns:sodipodi="http://sodipodi.sourceforge.net/DTD/sodipodi-0.dtd"
   xmlns:inkscape="http://www.inkscape.org/namespaces/inkscape"
   width="1080"
   height="1080"
   id="svg2"
   sodipodi:version="0.32"
   inkscape:version="0.46"
   sodipodi:docname="unicorn.svg"
   inkscape:output_extension="org.inkscape.output.svg.inkscape"
   version="1.0"
   style="display:inline">
  <defs
     id="defs4">
    <inkscape:perspective
       sodipodi:type="inkscape:persp3d"
       inkscape:vp_x="0 : 526.18109 : 1"
       inkscape:vp_y="0 : 1000 : 0"
       inkscape:vp_z="744.09448 : 526.18109 : 1"
       inkscape:persp3d-origin="372.04724 : 350.78739 : 1"
       id="perspective10" />
    <inkscape:perspective
       id="perspective2475"
       inkscape:persp3d-origin="372.04724 : 350.78739 : 1"
       inkscape:vp_z="744.09448 : 526.18109 : 1"
       inkscape:vp_y="0 : 1000 : 0"
       inkscape:vp_x="0 : 526.18109 : 1"
       sodipodi:type="inkscape:persp3d" />
    <marker
       markerWidth="142.41759"
       markerHeight="130.54945"
       orient="auto"
       id="marker2443">
      <rect
         y="-65.274727"
         x="-71.208794"
         height="130.54945"
         width="142.41759"
         id="rect2441"
         style="opacity:1;fill:none;fill-opacity:1;fill-rule:nonzero;stroke:none;stroke-width:1;stroke-linecap:butt;stroke-linejoin:miter;marker:none;marker-start:none;marker-mid:none;marker-end:none;stroke-miterlimit:4;stroke-dasharray:none;stroke-dashoffset:0;stroke-opacity:1;visibility:visible;display:inline;overflow:visible;enable-background:accumulate" />
    </marker>
    <marker
       markerWidth="548.62952"
       markerHeight="541.84772"
       orient="auto"
       id="marker3296">
      <rect
         y="-270.42386"
         x="-273.81476"
         height="540.84772"
         width="547.62952"
         id="rect3294"
         style="opacity:1;fill:none;fill-opacity:1;fill-rule:nonzero;stroke:#2f9cca;stroke-width:1;stroke-linecap:butt;stroke-linejoin:miter;marker:none;marker-start:none;marker-mid:none;marker-end:none;stroke-miterlimit:4;stroke-dasharray:none;stroke-dashoffset:0;stroke-opacity:1;visibility:visible;display:inline;overflow:visible;enable-background:accumulate" />
    </marker>
    <inkscape:perspective
       id="perspective3416"
       inkscape:persp3d-origin="372.04724 : 350.78739 : 1"
       inkscape:vp_z="744.09448 : 526.18109 : 1"
       inkscape:vp_y="0 : 1000 : 0"
       inkscape:vp_x="0 : 526.18109 : 1"
       sodipodi:type="inkscape:persp3d" />
    <inkscape:perspective
       id="perspective3468"
       inkscape:persp3d-origin="372.04724 : 350.78739 : 1"
       inkscape:vp_z="744.09448 : 526.18109 : 1"
       inkscape:vp_y="0 : 1000 : 0"
       inkscape:vp_x="0 : 526.18109 : 1"
       sodipodi:type="inkscape:persp3d" />
    <inkscape:perspective
       sodipodi:type="inkscape:persp3d"
       inkscape:vp_x="0 : 526.18109 : 1"
       inkscape:vp_y="0 : 1000 : 0"
       inkscape:vp_z="744.09448 : 526.18109 : 1"
       inkscape:persp3d-origin="372.04724 : 350.78739 : 1"
       id="perspective2605" />
    <inkscape:perspective
       sodipodi:type="inkscape:persp3d"
       inkscape:vp_x="0 : 526.18109 : 1"
       inkscape:vp_y="0 : 1000 : 0"
       inkscape:vp_z="744.09448 : 526.18109 : 1"
       inkscape:persp3d-origin="372.04724 : 350.78739 : 1"
       id="perspective2548" />
    <inkscape:perspective
       sodipodi:type="inkscape:persp3d"
       inkscape:vp_x="0 : 526.18109 : 1"
       inkscape:vp_y="0 : 1000 : 0"
       inkscape:vp_z="744.09448 : 526.18109 : 1"
       inkscape:persp3d-origin="372.04724 : 350.78739 : 1"
       id="perspective2492" />
    <inkscape:perspective
       sodipodi:type="inkscape:persp3d"
       inkscape:vp_x="0 : 526.18109 : 1"
       inkscape:vp_y="0 : 1000 : 0"
       inkscape:vp_z="744.09448 : 526.18109 : 1"
       inkscape:persp3d-origin="372.04724 : 350.78739 : 1"
       id="perspective2443" />
    <inkscape:perspective
       id="perspective2486"
       inkscape:persp3d-origin="372.04724 : 350.78739 : 1"
       inkscape:vp_z="744.09448 : 526.18109 : 1"
       inkscape:vp_y="0 : 1000 : 0"
       inkscape:vp_x="0 : 526.18109 : 1"
       sodipodi:type="inkscape:persp3d" />
    <inkscape:perspective
       id="perspective2577"
       inkscape:persp3d-origin="372.04724 : 350.78739 : 1"
       inkscape:vp_z="744.09448 : 526.18109 : 1"
       inkscape:vp_y="0 : 1000 : 0"
       inkscape:vp_x="0 : 526.18109 : 1"
       sodipodi:type="inkscape:persp3d" />
    <inkscape:perspective
       id="perspective2625"
       inkscape:persp3d-origin="372.04724 : 350.78739 : 1"
       inkscape:vp_z="744.09448 : 526.18109 : 1"
       inkscape:vp_y="0 : 1000 : 0"
       inkscape:vp_x="0 : 526.18109 : 1"
       sodipodi:type="inkscape:persp3d" />
    <inkscape:perspective
       id="perspective3519"
       inkscape:persp3d-origin="372.04724 : 350.78739 : 1"
       inkscape:vp_z="744.09448 : 526.18109 : 1"
       inkscape:vp_y="0 : 1000 : 0"
       inkscape:vp_x="0 : 526.18109 : 1"
       sodipodi:type="inkscape:persp3d" />
    <inkscape:perspective
       id="perspective3575"
       inkscape:persp3d-origin="372.04724 : 350.78739 : 1"
       inkscape:vp_z="744.09448 : 526.18109 : 1"
       inkscape:vp_y="0 : 1000 : 0"
       inkscape:vp_x="0 : 526.18109 : 1"
       sodipodi:type="inkscape:persp3d" />
    <inkscape:perspective
       id="perspective3624"
       inkscape:persp3d-origin="372.04724 : 350.78739 : 1"
       inkscape:vp_z="744.09448 : 526.18109 : 1"
       inkscape:vp_y="0 : 1000 : 0"
       inkscape:vp_x="0 : 526.18109 : 1"
       sodipodi:type="inkscape:persp3d" />
    <inkscape:perspective
       id="perspective3671"
       inkscape:persp3d-origin="372.04724 : 350.78739 : 1"
       inkscape:vp_z="744.09448 : 526.18109 : 1"
       inkscape:vp_y="0 : 1000 : 0"
       inkscape:vp_x="0 : 526.18109 : 1"
       sodipodi:type="inkscape:persp3d" />
    <inkscape:perspective
       id="perspective3717"
       inkscape:persp3d-origin="372.04724 : 350.78739 : 1"
       inkscape:vp_z="744.09448 : 526.18109 : 1"
       inkscape:vp_y="0 : 1000 : 0"
       inkscape:vp_x="0 : 526.18109 : 1"
       sodipodi:type="inkscape:persp3d" />
    <inkscape:perspective
       id="perspective3767"
       inkscape:persp3d-origin="372.04724 : 350.78739 : 1"
       inkscape:vp_z="744.09448 : 526.18109 : 1"
       inkscape:vp_y="0 : 1000 : 0"
       inkscape:vp_x="0 : 526.18109 : 1"
       sodipodi:type="inkscape:persp3d" />
    <inkscape:perspective
       id="perspective2613"
       inkscape:persp3d-origin="372.04724 : 350.78739 : 1"
       inkscape:vp_z="744.09448 : 526.18109 : 1"
       inkscape:vp_y="0 : 1000 : 0"
       inkscape:vp_x="0 : 526.18109 : 1"
       sodipodi:type="inkscape:persp3d" />
  </defs>
  <sodipodi:namedview
     id="base"
     pagecolor="#ffffff"
     bordercolor="#666666"
     borderopacity="1.0"
     gridtolerance="10000"
     guidetolerance="10"
     objecttolerance="10"
     inkscape:pageopacity="0.0"
     inkscape:pageshadow="2"
     inkscape:zoom="0.20853102"
     inkscape:cx="-183.25093"
     inkscape:cy="517.30497"
     inkscape:document-units="in"
     inkscape:current-layer="layer1"
     showgrid="true"
     units="in"
     inkscape:window-width="1264"
     inkscape:window-height="852"
     inkscape:window-x="0"
     inkscape:window-y="115"
     borderlayer="true"
     showguides="true"
     inkscape:guide-bbox="true">
    <inkscape:grid
       type="xygrid"
       id="grid3422"
       units="in"
       visible="true"
       enabled="true"
       empspacing="6" />
  </sodipodi:namedview>
  <metadata
     id="metadata7">
    <rdf:RDF>
      <cc:Work
         rdf:about="">
        <dc:format>image/svg+xml</dc:format>
        <dc:type
           rdf:resource="http://purl.org/dc/dcmitype/StillImage" />
        <dc:description>to use this file:
Create your design and scale it to the size you would like for it to cut.
You may add more layers, but be sure that you leave the original layer visible
Save as usual and import into SCAL with default size set to 12 inches.
Your design will keep its size and be in the proper proportion to other
files created with this template.</dc:description>
        <cc:license
           rdf:resource="http://creativecommons.org/licenses/by-nc/3.0/" />
      </cc:Work>
      <cc:License
         rdf:about="http://creativecommons.org/licenses/by-nc/3.0/">
        <cc:permits
           rdf:resource="http://creativecommons.org/ns#Reproduction" />
        <cc:permits
           rdf:resource="http://creativecommons.org/ns#Distribution" />
        <cc:requires
           rdf:resource="http://creativecommons.org/ns#Notice" />
        <cc:requires
           rdf:resource="http://creativecommons.org/ns#Attribution" />
        <cc:prohibits
           rdf:resource="http://creativecommons.org/ns#CommercialUse" />
        <cc:permits
           rdf:resource="http://creativecommons.org/ns#DerivativeWorks" />
      </cc:License>
    </rdf:RDF>
  </metadata>
  <g
     inkscape:label="leave me on"
     inkscape:groupmode="layer"
     id="layer1">
    <rect
       style="opacity:1;fill:none;fill-opacity:1;fill-rule:nonzero;stroke:none;stroke-width:1;stroke-linecap:butt;stroke-linejoin:miter;marker:none;marker-start:none;marker-mid:none;marker-end:none;stroke-miterlimit:4;stroke-dasharray:none;stroke-dashoffset:0;stroke-opacity:1;visibility:visible;overflow:visible;enable-background:accumulate"
       id="rect3513"
       width="11.25"
       height="11.25"
       x="0"
       y="1068.75"
       sodipodi:insensitive="true" />
    <rect
       y="-0.00055045279"
       x="1068.8176"
       height="11.34"
       width="11.16"
       id="rect3515"
       style="opacity:1;fill:none;fill-opacity:1;fill-rule:nonzero;stroke:none;stroke-width:1;stroke-linecap:butt;stroke-linejoin:miter;marker:none;marker-start:none;marker-mid:none;marker-end:none;stroke-miterlimit:4;stroke-dasharray:none;stroke-dashoffset:0;stroke-opacity:1;visibility:visible;display:inline;overflow:visible;enable-background:accumulate"
       sodipodi:insensitive="true" />
    <text
       xml:space="preserve"
       style="font-size:144px;font-style:normal;font-variant:normal;font-weight:normal;font-stretch:normal;text-align:start;line-height:100%;writing-mode:lr-tb;text-anchor:start;fill:#000000;fill-opacity:1;stroke:none;stroke-width:1px;stroke-linecap:butt;stroke-linejoin:miter;stroke-opacity:1;font-family:'saru\'s Flower Ding (sRB)';-inkscape-font-specification:'saru\'s Flower Ding (sRB)'"
       x="569.67035"
       y="367.06436"
       id="text2459"
       sodipodi:linespacing="100%"><tspan
         sodipodi:role="line"
         id="tspan2461"
         x="569.67035"
         y="367.06436" /><tspan
         sodipodi:role="line"
         id="tspan2463" /></text>
    <flowRoot
       xml:space="preserve"
       id="flowRoot2467"
       style="fill:black;stroke:none;stroke-opacity:1;stroke-width:1px;stroke-linejoin:miter;stroke-linecap:butt;fill-opacity:1;font-family:Arial;font-style:normal;font-weight:normal;font-size:14px;-inkscape-font-specification:Arial;font-stretch:normal;font-variant:normal;text-anchor:start;text-align:start;writing-mode:lr;line-height:100%"><flowRegion
         id="flowRegion2469"><rect
           id="rect2471"
           width="103.42229"
           height="18.649921"
           x="194.12872"
           y="305.18054" /></flowRegion><flowPara
         id="flowPara2473" /></flowRoot>    <path
       style="fill:#000000"
       d="M 297.83607,995.78806 C 297.83607,986.06657 295.88141,984.71147 281.29918,984.32387 C 267.199,983.94907 266.38022,983.43397 275.74243,980.82817 C 284.23622,978.46407 285.3137,976.90127 280.50077,973.92677 C 275.61712,970.90847 276.57512,969.22227 284.95507,966.08627 L 295.63115,962.09106 L 283.97618,951.99566 C 273.67278,943.07095 272.58745,939.53819 274.61707,921.53146 C 276.43486,905.40403 274.51999,896.27165 265.42108,877.67418 C 259.10057,864.75548 248.9917,849.5471 242.95693,843.87773 C 232.12656,833.70313 232.08931,833.42104 240.07769,822.07232 C 260.58027,792.94536 256.95262,765.13036 228.03193,729.71148 C 198.78703,693.89554 192,678.50424 192,648 L 192,621.78991 L 182.4223,630.19061 C 177.15457,634.81101 174.29505,636.11077 176.0678,633.07901 C 177.84056,630.04724 177.25284,627.56671 174.76175,627.56671 C 172.27066,627.56671 167.09365,633.02388 163.25728,639.69376 L 156.28207,651.82081 L 158.16153,639.34618 C 159.31806,631.66989 157.82484,626.02115 154.27946,624.66067 C 139.71269,619.07085 138.08443,581.23658 152.03946,572.61186 C 154.61448,571.02044 156.86079,560.40941 157.03126,549.03185 C 157.25121,534.35151 158.33754,530.89764 160.77283,537.13588 C 163.87244,545.07592 164.98683,544.43592 172.291,530.52112 C 180.32973,515.20701 180.39413,515.18109 183.18033,526.14048 C 185.96883,537.10898 186.02533,537.08653 194.28112,521.73064 C 199.7366,511.58337 202.65543,496.95793 202.80186,479.0356 C 203.00022,454.75827 201.61292,450.30027 190.12511,438.29952 C 174.23946,421.70457 150.92196,416.20412 139.66083,426.39531 C 128.9828,436.05879 124.54709,435.39322 130.12813,424.96494 C 133.96625,417.79334 132.78617,415.45615 122.8917,410.63297 C 105.37949,402.09642 104.14927,393.29557 121.14975,398.17124 C 133.12623,401.60605 134.67213,401.00833 134.67213,392.94286 C 134.67213,384.54894 135.38736,384.74558 143.81187,395.45561 C 153.67811,407.9985 166.96798,411.51493 162.72586,400.46015 C 158.35942,389.08139 164.68912,393.12229 184.19197,414.16417 C 206.80587,438.56261 214.11339,451.40254 215.33563,468.8862 C 216.3819,483.8528 216.05973,483.63649 227.88172,477.30955 C 236.33943,472.78312 236.42485,473.03447 229.84267,483.08014 C 226.05761,488.85687 220.96514,504.38141 218.52608,517.5791 C 213.88367,542.69902 205.01064,553.5664 173.65579,572.53491 C 161.5971,579.82997 158.92623,584.16122 158.92623,596.42154 C 158.92623,605.28258 161.42757,612.23111 165.05236,613.43936 C 169.14228,614.80266 170.01238,613.59463 167.67016,609.80482 C 165.08703,605.62522 166.66956,604.784 173.67108,606.61496 C 178.90117,607.98263 183.18033,607.30303 183.18033,605.10468 C 183.18033,602.90633 186.13207,601.1077 189.73976,601.1077 C 193.34745,601.1077 201.04772,593.6661 206.85148,584.57081 C 228.00848,551.41484 255.72675,534.96015 290.42162,534.96015 C 313.56019,534.96015 336.46139,527.8623 348.60072,516.92854 C 356.69045,509.64219 357.23703,505.32572 354.80542,467.92874 C 352.90264,438.66497 349.47032,421.86698 342.82173,409.27982 C 332.68828,390.09512 331.77749,391.8521 332.53476,429.12409 L 332.84835,444.55851 L 321.82362,421.75581 C 308.98085,395.19279 303.53814,350.61134 310.20003,326.54648 C 315.15975,308.6304 314.99961,308.61038 292.32377,324.31137 C 285.65389,328.92966 280.19672,331.51718 280.19672,330.06142 C 280.19672,320.69443 295.11538,295.52569 312.96463,274.77982 C 324.44184,261.44007 336.69844,245.06855 340.20152,238.39867 L 346.57075,226.27163 L 329.92062,226.09902 L 313.27049,225.92641 L 327.09829,219.90913 C 334.70358,216.59962 347.01198,205.04632 354.45028,194.23512 L 367.97447,174.57838 L 356.95187,169.55615 C 350.88944,166.79393 342.80302,164.53392 338.98205,164.53392 C 333.58656,164.53392 333.15913,163.17922 337.06842,158.46881 C 344.67166,149.30748 379.51199,141.00255 398.16862,143.90428 L 414.69672,146.47496 L 404.28605,137.8651 C 398.22784,132.85482 387.16593,129.227 377.82703,129.1877 C 365.84203,129.13728 363.4535,128.03783 368.39344,124.84539 C 379.14172,117.89933 412.67821,119.9166 442.65109,129.31212 C 458.02599,134.13165 472.41308,138.0749 474.6224,138.0749 C 483.36966,138.0749 477.88101,128.66323 464.30738,120.38723 C 451.33697,112.47902 450.93884,111.64729 460.11653,111.63237 C 473.10697,111.61126 495.16725,122.7504 510.45721,137.05145 L 522.43082,148.25064 L 531.66489,137.65048 L 540.89891,127.05031 L 539.09132,140.27982 C 538.09712,147.55605 536.49137,156.48597 535.52301,160.12408 C 534.32816,164.61293 536.59685,166.37866 542.58197,165.61816 C 547.43279,165.00179 561.32377,163.24073 573.45082,161.70471 C 585.57787,160.16868 597.69592,157.19348 600.37979,155.09315 C 603.06366,152.99281 614.97022,149.19968 626.83881,146.66396 C 658.63787,139.87011 675.63126,135.55628 711.8216,125.09085 C 729.71565,119.91628 745.13976,116.46604 746.0974,117.42366 C 748.14872,119.475 649.85595,155.71425 642.24069,155.71425 C 639.38144,155.71425 629.2625,159.6831 619.7541,164.53392 C 610.2457,169.38474 598.62075,173.35359 593.92088,173.35359 C 589.22101,173.35359 577.52798,177.81855 567.93632,183.27572 C 553.60823,191.42768 551.11244,194.77134 553.94673,202.01753 C 555.84411,206.86835 557.53599,220.30506 557.70643,231.8769 C 557.87691,243.44873 562.41595,267.87074 567.79326,286.14803 C 574.92609,310.39248 576.19325,320.23038 572.47898,322.52595 C 569.67882,324.25652 565.32839,331.08922 562.81125,337.70974 C 557.34932,352.07573 544.78688,353.90238 544.78688,340.33059 C 544.78688,335.15154 539.55303,326.06357 533.15612,320.13511 L 521.52537,309.35608 L 524.79841,319.62943 C 526.59858,325.27977 528.35968,334.86384 528.71196,340.92736 C 529.26685,350.47837 527.73151,351.76241 517.22541,350.5339 C 501.71493,348.72022 502.19059,353.6773 518.78592,366.79661 C 536.82338,381.05596 560.85633,386.06389 575.33109,378.57937 C 581.57316,375.35174 602.46542,367.55559 621.75837,361.25458 C 641.05127,354.95357 667.41993,342.77113 680.3553,334.18252 L 703.87423,318.56684 L 744.49857,334.85768 C 773.58153,346.52027 794.1064,351.73423 816.74359,353.21012 C 846.36001,355.14104 849.39684,356.3292 864.65562,371.95558 C 873.61584,381.1317 879.64316,390.74907 878.04957,393.3275 C 874.24993,399.47548 841.06075,408.33121 833.16895,405.30282 C 829.78502,404.0043 827.01639,398.60318 827.01639,393.30033 C 827.01639,384.49673 826.3457,384.24306 819.29918,390.38158 C 811.06531,397.55445 798.61758,396.14182 803.29977,388.56588 C 807.59331,381.61883 795.79691,376.49667 781.90359,379.27534 C 773.99195,380.85767 766.67797,379.3311 761.85163,375.0901 C 757.673,371.41823 745.66643,364.09509 735.17036,358.81644 L 716.08661,349.21891 L 690.00812,366.01986 C 675.66491,375.26038 663.91226,384.92198 663.89104,387.49007 C 663.86983,390.05816 656.84814,403.79112 648.28737,418.00775 C 639.72655,432.22438 634.26938,445.30415 636.16032,447.07391 C 676.69187,485.00814 729.2348,525.70708 750.92855,535.97164 C 774.27396,547.0177 778.14368,550.45416 776.31871,558.51895 C 767.48308,597.56452 764.82492,615.28188 762.45688,650.9104 C 760.42425,681.49341 757.75917,693.68519 751.65423,700.32901 C 747.19682,705.17983 737.77895,715.99155 730.72564,724.35512 L 717.90139,739.56156 L 711.34004,726.56004 C 697.03753,698.21903 697.7077,686.29448 713.46311,688.7822 C 715.28217,689.06942 716.77049,684.95627 716.77049,679.64189 C 716.77049,670.16313 716.90314,670.14214 723.74526,678.53943 C 730.41889,686.72995 730.6049,686.73939 728.05412,678.75856 C 725.77904,671.64029 726.39011,671.24905 732.22265,676.08964 C 738.12631,680.98923 739.06521,680.02321 739.11685,668.99615 C 739.14975,661.97512 740.26081,636.32782 741.58592,612.00215 L 743.99523,567.77366 L 712.88022,555.62059 C 682.23874,543.65243 681.36762,543.57053 655.63543,550.23843 C 641.26404,553.9624 624.65788,557.00933 618.73287,557.00933 C 612.20256,557.00933 600.68826,563.92691 589.49473,574.57508 C 567.70145,595.30651 515.36229,621.13347 455.4877,640.70136 C 431.83996,648.42978 412.4918,656.57382 412.4918,658.7992 C 412.4918,661.02462 415.16088,662.8454 418.42309,662.8454 C 424.46288,662.8454 438.95082,676.42743 438.95082,682.08957 C 438.95082,683.80301 434.68423,682.92149 429.4695,680.13064 C 420.43175,675.29379 420.53212,676.02962 431.61492,695.85889 C 439.03572,709.13616 441.00596,715.80348 437.06138,714.2898 C 432.48788,712.53477 430.10543,717.5581 427.89752,733.61154 L 424.91392,755.30489 L 463.37211,798.37435 C 510.27893,850.90542 512.8685,855.84699 503.41757,874.79183 C 499.49119,882.66246 496.21557,894.25437 496.13844,900.55162 C 495.9921,912.49861 487.11985,927.5358 480.35811,927.29701 C 475.26779,927.11722 463.12342,910.26733 459.24006,897.99647 C 457.13336,891.3396 458.4417,887.14911 463.51286,884.31116 C 469.39655,881.01847 469.86429,878.43091 465.91107,871.04426 C 459.40113,858.88034 459.69682,854.71671 466.66019,860.4958 C 475.43185,867.77564 484.9337,859.8173 479.52382,849.72178 C 469.40393,830.83678 415.78485,790.73065 400.65684,790.73065 C 393.27525,790.73065 387.37438,786.03448 380.84005,774.95962 C 373.99026,763.35011 370.55646,760.73194 367.82679,765.03749 C 364.97525,769.53526 364.10306,769.16382 364.05113,763.42944 C 364.01399,759.32812 361.95768,754.72037 359.48154,753.19002 C 356.60733,751.4137 355.26797,758.5586 355.77735,772.95036 C 356.21618,785.34888 354.38428,797.68408 351.70647,800.36186 C 348.15469,803.91368 347.47132,802.80773 349.18009,796.27341 C 350.46838,791.34692 349.57683,786.11373 347.19885,784.64406 C 344.82087,783.17439 341.63355,786.91927 340.1159,792.96604 C 338.59826,799.01281 335.29282,803.96016 332.77048,803.96016 C 330.24814,803.96016 329.41085,801.97573 330.90984,799.55032 C 335.92478,791.43596 327.80422,795.02129 313.43077,807.26753 C 305.60231,813.93741 295.92031,821.37901 291.91523,823.80442 C 285.17597,827.88559 285.26516,831.26039 293.11188,869.08567 C 305.22606,927.48227 314.10374,951.41833 331.26808,971.96267 C 339.55998,981.88747 346.34426,993.78887 346.34426,998.41016 C 346.34426,1005.6551 343.00292,1006.8126 322.09016,1006.8126 C 299.15902,1006.8126 297.83607,1006.2113 297.83607,995.78806 z M 569.04098,317.89455 C 571.55759,316.01637 570.13762,314.57441 565.73361,314.53588 C 561.44376,314.49834 558.01639,317.7325 558.01639,321.81808 C 558.01639,325.86042 559.50471,327.37183 561.32377,325.17675 C 563.14283,322.98168 566.61557,319.70469 569.04098,317.89455 z M 535.96721,222.00019 C 535.96721,219.6509 532.99057,218.871 529.35246,220.26708 C 521.42345,223.30972 520.63582,216.90794 528.02951,209.51425 C 534.15975,203.38399 527.84024,202.52274 518.78774,208.25475 C 510.29913,213.6297 516.06785,226.27163 527.00914,226.27163 C 531.93609,226.27163 535.96721,224.34948 535.96721,222.00019 z"
       id="path2619" />
  </g>
</svg>
