<?xml version="1.0" encoding="UTF-8" standalone="no"?>
<!-- Created with Inkscape (http://www.inkscape.org/) -->

<svg
   xmlns:dc="http://purl.org/dc/elements/1.1/"
   xmlns:cc="http://creativecommons.org/ns#"
   xmlns:rdf="http://www.w3.org/1999/02/22-rdf-syntax-ns#"
   xmlns:svg="http://www.w3.org/2000/svg"
   xmlns="http://www.w3.org/2000/svg"
   xmlns:sodipodi="http://sodipodi.sourceforge.net/DTD/sodipodi-0.dtd"
   xmlns:inkscape="http://www.inkscape.org/namespaces/inkscape"
   width="210mm"
   height="297mm"
   id="svg3871"
   version="1.1"
   inkscape:version="0.48.1 "
   sodipodi:docname="Gingerbreadman_002.svg">
  <defs
     id="defs3873" />
  <sodipodi:namedview
     id="base"
     pagecolor="#ffffff"
     bordercolor="#666666"
     borderopacity="1.0"
     inkscape:pageopacity="0.0"
     inkscape:pageshadow="2"
     inkscape:zoom="0.49497475"
     inkscape:cx="328.73816"
     inkscape:cy="297.13256"
     inkscape:document-units="px"
     inkscape:current-layer="layer1"
     showgrid="false"
     inkscape:window-width="652"
     inkscape:window-height="790"
     inkscape:window-x="195"
     inkscape:window-y="167"
     inkscape:window-maximized="0" />
  <metadata
     id="metadata3876">
    <rdf:RDF>
      <cc:Work
         rdf:about="">
        <dc:format>image/svg+xml</dc:format>
        <dc:type
           rdf:resource="http://purl.org/dc/dcmitype/StillImage" />
        <dc:title></dc:title>
      </cc:Work>
    </rdf:RDF>
  </metadata>
  <g
     inkscape:label="Ebene 1"
     inkscape:groupmode="layer"
     id="layer1">
    <g
       id="Layer_2"
       style="fill:none;stroke:#000000;stroke-opacity:1"
       transform="matrix(0,-1,1,0,118.91581,782.56393)">
      <path
         d="m 197.386,159.582 c 0,0 -33.064,-44.355 0,-87.903 0,0 22.132,-28.226 54.614,-24.193 0,0 24.419,-3.227 51.838,23.387 0,0 33.064,38.71 0,88.71 0,0 14.516,2.419 48.387,-12.097 0,0 29.839,-7.259 41.936,23.387 0,0 9.678,16.129 0,33.871 0,0 -16.129,16.936 -29.839,18.548 0,0 -40.323,11.291 -41.936,17.742 0,0 -11.291,7.258 -4.839,31.451 0,0 12.097,53.227 25,56.452 0,0 11.291,12.902 27.42,9.677 0,0 19.892,0.808 28.494,32.259 0,0 -4.3,27.418 -23.655,34.677 0,0 -16.937,16.936 -48.388,5.646 0,0 -48.387,-25.807 -52.419,-33.871 0,0 -21.774,-21.774 -50.807,3.226 0,0 -37.097,32.258 -46.774,29.839 0,0 -29.032,12.098 -50.806,-5.645 0,0 -37.903,-19.355 -12.097,-55.646 0,0 -2.42,-4.033 36.29,-13.71 0,0 37.097,-21.614 35.484,-83.388 0,0 -4.032,-13.387 -37.097,-24.677 0,0 -59.126,-11.291 -43.676,-56.452 0,0 15.45,-31.452 43.676,-22.581 0,0 49.194,20.162 49.194,11.291 z"
         id="path8"
         style="fill:none;stroke:#000000;stroke-opacity:1"
         inkscape:connector-curvature="0" />
    </g>
    <g
       transform="matrix(0,-1,1,0,118.28446,784.35468)"
       id="Layer_4-1"
       style="fill:none;stroke:#000000;stroke-opacity:1">
      <path
         inkscape:connector-curvature="0"
         d="m 228.031,128.13 c 0,0 26.612,44.355 45.161,0 0,0 14.517,-4.479 8.871,9.857 0,0 -25.001,44.678 -63.71,-0.332 0.001,0 -1.612,-12.751 9.678,-9.525 z"
         id="path14-7"
         style="fill:none;stroke:#000000;stroke-opacity:1" />
    </g>
    <g
       transform="matrix(0,-1,1,0,118.28446,784.35468)"
       id="Layer_5-4"
       style="fill:none;stroke:#000000;stroke-opacity:1">
      <path
         inkscape:connector-curvature="0"
         d="m 226.64,87.001 c 0,0 12.097,0 10.484,10.484 0,0 -1.613,10.484 -10.484,9.677 0,0 -10.484,-0.762 -8.871,-10.059 0,0.001 3.024,-11.413 8.871,-10.102 z"
         id="path17-0"
         style="fill:none;stroke:#000000;stroke-opacity:1" />
    </g>
    <g
       transform="matrix(0,-1,1,0,118.28446,784.35468)"
       id="Layer_6-9"
       style="fill:none;stroke:#000000;stroke-opacity:1">
      <path
         inkscape:connector-curvature="0"
         d="m 269.446,87.001 c 0,0 12.097,0 10.483,10.484 0,0 -1.612,10.484 -10.483,9.677 0,0 -10.484,-0.762 -8.871,-10.059 0,0.001 3.025,-11.413 8.871,-10.102 z"
         id="path20-4"
         style="fill:none;stroke:#000000;stroke-opacity:1" />
    </g>
    <g
       transform="matrix(0,-1,1,0,118.28446,784.35468)"
       id="Layer_9-8"
       style="fill:none;stroke:#000000;stroke-opacity:1">
      <path
         inkscape:connector-curvature="0"
         d="m 173.192,170.065 c 0,0 10.484,-4.032 0,-10.484 0,0 -23.387,0.807 -14.516,18.548 0,0 4.839,5.645 -5.645,8.064 0,0 -11.291,4.032 -4.839,16.936 0,0 4.889,7.258 -1.991,8.064 h -4.46 c 0,0 -10.484,8.872 4.032,11.291 0,0 15.515,-3.226 12.193,-16.936 0,0 -8.161,-8.064 3.936,-14.516 0,0 14.148,-1.185 5.646,-13.71 -0.001,0.001 -2.42,-12.095 5.644,-7.257 z"
         id="path29-8"
         style="fill:none;stroke:#000000;stroke-opacity:1" />
    </g>
    <g
       transform="matrix(0,-1,1,0,126.28446,786.35468)"
       id="Layer_10-2"
       style="fill:none;stroke:#000000;stroke-opacity:1">
      <path
         inkscape:connector-curvature="0"
         d="m 192.345,380.741 c 0,0 -1.289,11.159 9.289,4.862 0,0 10.131,-21.095 -9.702,-21.463 0,0 -7.245,1.67 -4.527,-8.741 0,0 1.664,-11.873 -12.761,-12.14 0,0 -8.697,0.966 -6.221,-5.505 l 2.068,-3.951 c 0,0 -2.999,-13.402 -11.873,-1.663 0,0 -4.338,15.24 9.35,18.656 0,0 10.93,-3.491 11.036,10.219 0,0 -5.513,13.084 9.528,11.358 0,0.001 11.84,3.468 3.813,8.368 z"
         id="path32-4"
         style="fill:none;stroke:#000000;stroke-opacity:1" />
    </g>
    <g
       transform="matrix(0,-1,1,0,118.28446,784.35468)"
       id="Layer_11-5"
       style="fill:none;stroke:#000000;stroke-opacity:1">
      <path
         inkscape:connector-curvature="0"
         d="m 360.837,210.911 c 0,0 10.488,4.023 0.01,10.484 0,0 -23.388,-0.787 -14.533,-18.535 0,0 4.835,-5.65 -5.652,-8.06 0,0 -11.294,-4.022 -4.853,-16.931 0,0 4.883,-7.263 -1.998,-8.064 l -4.461,0.004 c 0,0 -10.491,-8.862 4.022,-11.293 0,0 15.518,3.211 12.208,16.924 0,0 -8.154,8.072 3.948,14.513 0,0 14.149,1.171 5.657,13.704 10e-4,10e-4 -2.408,12.1 5.652,7.254 z"
         id="path35-5"
         style="fill:none;stroke:#000000;stroke-opacity:1" />
    </g>
    <g
       transform="matrix(0,-1,1,0,118.28446,784.35468)"
       id="Layer_12-1"
       style="fill:none;stroke:#000000;stroke-opacity:1">
      <path
         inkscape:connector-curvature="0"
         d="m 312.452,387.903 c 0,0 0.373,11.228 -9.654,4.087 0,0 -8.372,-21.852 11.423,-20.599 0,0 7.086,2.258 5.227,-8.342 0,0 -0.688,-11.968 13.712,-11.055 0,0 8.589,1.674 6.651,-4.977 l -1.739,-4.108 c 0,0 4.084,-13.112 11.968,-0.688 0,0 3.077,15.545 -10.843,17.83 0,0 -10.608,-4.372 -11.836,9.281 0,0 4.425,13.492 -10.424,10.543 0,0.002 -12.083,2.489 -4.485,8.028 z"
         id="path38-7"
         style="fill:none;stroke:#000000;stroke-opacity:1" />
    </g>
    <g
       transform="matrix(0,-1,1,0,128.16742,779.00877)"
       id="Layer_3-1"
       style="fill:none;stroke:#000000;stroke-opacity:1">
      <path
         inkscape:connector-curvature="0"
         d="m 252,184.582 c 0,0 13.128,-8.871 21.192,-8.871 0,0 12.903,16.936 0,31.452 0,0 -9.32,0 -21.192,-7.258 h -9.453 c 0,0 -6.452,8.871 -25,7.258 0,0 -8.064,-24.193 0,-31.452 8.064,-7.259 22.581,9.677 22.581,9.677 L 252,184.582 z"
         id="path11-1"
         style="fill:none;stroke:#000000;stroke-opacity:1" />
    </g>
    <g
       transform="matrix(0,-1,1,0,128.16742,779.00877)"
       id="Layer_7-5"
       style="fill:none;stroke:#000000;stroke-opacity:1">
      <path
         inkscape:connector-curvature="0"
         d="m 249.189,223.164 c 0,0 19.782,0 17.144,17.145 0,0 -2.637,17.145 -17.144,15.825 0,0 -17.146,-1.245 -14.507,-16.449 0.001,0 4.946,-18.664 14.507,-16.521 z"
         id="path23-2"
         style="fill:none;stroke:#000000;stroke-opacity:1" />
    </g>
    <g
       transform="matrix(0,-1,1,0,128.16742,779.00877)"
       id="Layer_8-7"
       style="fill:none;stroke:#000000;stroke-opacity:1">
      <path
         inkscape:connector-curvature="0"
         d="m 249.189,278.551 c 0,0 19.782,0 17.143,17.145 0,0 -2.637,17.145 -17.143,15.826 0,0 -17.146,-1.246 -14.507,-16.449 0,-10e-4 4.946,-18.665 14.507,-16.522 z"
         id="path26-6"
         style="fill:none;stroke:#000000;stroke-opacity:1" />
    </g>
  </g>
</svg>
