<?xml version="1.0" encoding="UTF-8" standalone="no"?>
<!-- Created with Inkscape (http://www.inkscape.org/) -->

<svg
   xmlns:dc="http://purl.org/dc/elements/1.1/"
   xmlns:cc="http://creativecommons.org/ns#"
   xmlns:rdf="http://www.w3.org/1999/02/22-rdf-syntax-ns#"
   xmlns:svg="http://www.w3.org/2000/svg"
   xmlns="http://www.w3.org/2000/svg"
   xmlns:sodipodi="http://sodipodi.sourceforge.net/DTD/sodipodi-0.dtd"
   xmlns:inkscape="http://www.inkscape.org/namespaces/inkscape"
   width="1052.3622"
   height="744.09448"
   id="svg2"
   version="1.1"
   inkscape:version="0.48.4 r9939"
   sodipodi:docname="#hackffm_Banner_001.svg">
  <defs
     id="defs4" />
  <sodipodi:namedview
     id="base"
     pagecolor="#ffffff"
     bordercolor="#666666"
     borderopacity="1.0"
     inkscape:pageopacity="0.0"
     inkscape:pageshadow="2"
     inkscape:zoom="0.7"
     inkscape:cx="481.09566"
     inkscape:cy="389.96417"
     inkscape:document-units="px"
     inkscape:current-layer="layer1"
     showgrid="false"
     units="mm"
     inkscape:window-width="1366"
     inkscape:window-height="706"
     inkscape:window-x="-8"
     inkscape:window-y="-8"
     inkscape:window-maximized="1" />
  <metadata
     id="metadata7">
    <rdf:RDF>
      <cc:Work
         rdf:about="">
        <dc:format>image/svg+xml</dc:format>
        <dc:type
           rdf:resource="http://purl.org/dc/dcmitype/StillImage" />
        <dc:title></dc:title>
      </cc:Work>
    </rdf:RDF>
  </metadata>
  <g
     inkscape:label="Ebene 1"
     inkscape:groupmode="layer"
     id="layer1"
     transform="translate(0,-308.2677)">
    <g
       style="font-size:90.35211945px;font-style:normal;font-variant:normal;font-weight:bold;font-stretch:normal;line-height:125%;letter-spacing:0px;word-spacing:0px;fill:none;stroke:#000000;font-family:Segoe UI;-inkscape-font-specification:Segoe UI Bold"
       id="text2985">
      <path
         d="m 451.26149,686.5965 -14.29398,0 0,-25.76447 -26.20565,0 0,25.76447 -14.24987,0 0,-63.26413 14.24987,0 0,25.23506 26.20565,0 0,-25.23506 14.29398,0 z"
         style="stroke:#000000;font-family:Segoe UI;-inkscape-font-specification:Segoe UI Bold"
         id="path3076" />
      <path
         d="m 501.90809,686.5965 -13.19105,0 0,-6.48524 -0.17647,0 c -3.02941,5.05878 -7.51466,7.58817 -13.45576,7.58817 -4.38233,0 -7.83082,-1.24264 -10.3455,-3.72791 -2.51468,-2.48527 -3.77202,-5.80141 -3.77202,-9.94844 0,-8.7646 5.19112,-13.82338 15.57339,-15.17633 l 12.26459,-1.63234 c -3e-5,-4.9411 -2.67647,-7.41166 -8.02934,-7.4117 -5.38232,4e-5 -10.49991,1.60297 -15.3528,4.80878 l 0,-10.4999 c 1.94115,-0.99995 4.59554,-1.88229 7.96316,-2.64704 3.3676,-0.76465 6.43375,-1.147 9.19845,-1.14704 12.8822,4e-5 19.32331,6.42645 19.32335,19.27923 z m -13.10282,-18.35278 0,-3.04409 -8.20581,1.05882 c -4.52938,0.58825 -6.79407,2.63234 -6.79405,6.13229 -2e-5,1.58824 0.55145,2.88969 1.65439,3.90438 1.10292,1.01471 2.59555,1.52205 4.4779,1.52204 2.6176,1e-5 4.74994,-0.90439 6.39701,-2.71321 1.64701,-1.80879 2.47053,-4.09553 2.47056,-6.86023 z"
         style="stroke:#000000;font-family:Segoe UI;-inkscape-font-specification:Segoe UI Bold"
         id="path3078" />
      <path
         d="m 547.26063,684.96416 c -3.14707,1.82351 -7.69114,2.73527 -13.63223,2.73527 -6.94113,0 -12.55873,-2.10292 -16.85279,-6.30877 -4.29408,-4.20583 -6.44112,-9.63225 -6.44112,-16.27926 0,-7.67637 2.30145,-13.72778 6.90435,-18.15425 4.60289,-4.42639 10.75724,-6.6396 18.46307,-6.63964 5.32345,4e-5 9.17635,0.70592 11.55872,2.11762 l 0,11.82343 c -2.91178,-2.17642 -6.16175,-3.26465 -9.74991,-3.26468 -3.99999,3e-5 -7.16908,1.16914 -9.50727,3.50732 -2.33823,2.33824 -3.50734,5.56615 -3.50732,9.68374 -2e-5,3.99998 1.11762,7.13965 3.35291,9.41903 2.23525,2.2794 5.30875,3.41909 9.2205,3.41908 3.47053,10e-6 6.86755,-1.08821 10.19109,-3.26467 z"
         style="stroke:#000000;font-family:Segoe UI;-inkscape-font-specification:Segoe UI Bold"
         id="path3080" />
      <path
         d="m 601.7013,686.5965 -16.72044,0 -14.42634,-22.41156 -0.17646,0 0,22.41156 -13.94105,0 0,-66.88175 13.94105,0 0,42.57314 0.17646,0 13.45576,-20.86745 16.54397,0 -16.19103,21.22039 z"
         style="stroke:#000000;font-family:Segoe UI;-inkscape-font-specification:Segoe UI Bold"
         id="path3082" />
      <path
         d="m 647.49501,667.97902 -29.47032,0 c 0.47057,6.55877 4.60288,9.83815 12.39695,9.83814 4.97051,1e-5 9.33811,-1.17645 13.10282,-3.52938 l 0,10.05874 c -4.17647,2.23527 -9.60289,3.35291 -16.27927,3.35291 -7.29407,0 -12.95577,-2.02204 -16.98513,-6.06612 -4.02939,-4.04408 -6.04407,-9.68372 -6.04407,-16.91897 0,-7.4999 2.17645,-13.44102 6.52935,-17.82336 4.35289,-4.38227 9.70578,-6.57343 16.05868,-6.57347 6.58815,4e-5 11.68368,1.9559 15.28663,5.86759 3.60286,3.91177 5.40431,9.22053 5.40436,15.92633 z m -12.92635,-8.55875 c -4e-5,-6.47049 -2.61766,-9.70575 -7.85287,-9.70579 -2.2353,4e-5 -4.1691,0.9265 -5.80142,2.77939 -1.63236,1.85295 -2.62499,4.16175 -2.97791,6.9264 z"
         style="stroke:#000000;font-family:Segoe UI;-inkscape-font-specification:Segoe UI Bold"
         id="path3084" />
      <path
         d="m 685.25936,653.99385 c -1.67649,-0.91172 -3.63235,-1.3676 -5.86759,-1.36763 -3.02941,3e-5 -5.39704,1.11031 -7.10288,3.33085 -1.70589,2.2206 -2.55882,5.24262 -2.5588,9.06609 l 0,21.57334 -13.94105,0 0,-45.17606 13.94105,0 0,8.38227 0.17647,0 c 2.20584,-6.11754 6.17639,-9.17634 11.91166,-9.17638 1.47054,4e-5 2.61759,0.17651 3.44114,0.5294 z"
         style="stroke:#000000;font-family:Segoe UI;-inkscape-font-specification:Segoe UI Bold"
         id="path3086" />
      <path
         d="m 688.83285,685.40533 0,-11.29401 c 2.29409,1.38235 4.58083,2.41175 6.86023,3.0882 2.27938,0.67648 4.43377,1.01471 6.46318,1.0147 2.47055,1e-5 4.41906,-0.33822 5.84553,-1.0147 1.42644,-0.67645 2.13967,-1.70585 2.13969,-3.0882 -2e-5,-0.88234 -0.32355,-1.61762 -0.97058,-2.20587 -0.64707,-0.58821 -1.47795,-1.10291 -2.49262,-1.5441 -1.01472,-0.44116 -2.125,-0.83821 -3.33086,-1.19117 -1.20588,-0.35292 -2.36764,-0.74997 -3.48526,-1.19116 -1.79411,-0.67645 -3.37498,-1.40438 -4.7426,-2.1838 -1.36764,-0.77939 -2.51469,-1.68379 -3.44115,-2.71322 -0.92646,-1.02937 -1.63234,-2.22054 -2.11763,-3.57349 -0.48529,-1.3529 -0.72793,-2.95583 -0.72793,-4.80878 0,-2.52936 0.55146,-4.70581 1.6544,-6.52935 1.10292,-1.82348 2.5735,-3.31611 4.41172,-4.4779 1.83821,-1.16172 3.94113,-2.01465 6.30877,-2.55881 2.36761,-0.54406 4.83082,-0.81612 7.38964,-0.81616 1.99995,4e-5 4.02934,0.15445 6.08818,0.46323 2.05877,0.30886 4.08816,0.75739 6.08818,1.34557 l 0,10.76461 c -1.76473,-1.02937 -3.65441,-1.80142 -5.66907,-2.31615 -2.01471,-0.51467 -3.99264,-0.77202 -5.93377,-0.77206 -0.91178,4e-5 -1.77206,0.0809 -2.58086,0.24265 -0.80883,0.1618 -1.52206,0.39709 -2.13968,0.70587 -0.61766,0.30886 -1.10295,0.70592 -1.45587,1.19117 -0.35296,0.48532 -0.52943,1.03679 -0.52941,1.6544 -2e-5,0.82355 0.26469,1.52943 0.79411,2.11762 0.52939,0.58826 1.22056,1.09561 2.07351,1.52205 0.85291,0.4265 1.80143,0.80884 2.84556,1.14705 1.04409,0.33826 2.08084,0.68384 3.11027,1.03675 1.8529,0.64708 3.52935,1.35296 5.02936,2.11763 1.49996,0.76472 2.78671,1.66177 3.86026,2.69115 1.07349,1.02943 1.89701,2.2353 2.47057,3.61762 0.57349,1.38235 0.86025,3.0294 0.86029,4.94113 -4e-5,2.67646 -0.58092,4.9632 -1.74264,6.86023 -1.16178,1.89705 -2.70589,3.44115 -4.63231,4.63231 -1.92648,1.19117 -4.14704,2.05881 -6.6617,2.60292 -2.51471,0.54411 -5.12497,0.81617 -7.83081,0.81617 -4.97056,0 -9.57345,-0.7647 -13.8087,-2.2941 z"
         style="stroke:#000000;font-family:Segoe UI;-inkscape-font-specification:Segoe UI Bold"
         id="path3088" />
      <path
         d="m 745.61176,681.34654 -0.17647,0 0,26.02918 -13.94105,0 0,-65.95528 13.94105,0 0,6.79405 0.17647,0 c 3.44112,-5.26461 8.27931,-7.89694 14.51457,-7.89698 5.85285,4e-5 10.37486,2.00737 13.56606,6.022 3.19109,4.01471 4.78667,9.47789 4.78672,16.38956 -5e-5,7.52936 -1.86033,13.57341 -5.58083,18.13218 -3.7206,4.55879 -8.66908,6.83818 -14.84546,6.83818 -5.44115,0 -9.58817,-2.11763 -12.44106,-6.35289 z m -0.39705,-18.52924 0,3.61762 c -2e-5,3.11763 0.8235,5.66172 2.47056,7.63228 1.64702,1.97058 3.80876,2.95586 6.48524,2.95585 3.17641,10e-6 5.63962,-1.22791 7.38963,-3.68379 1.74995,-2.45584 2.62494,-5.93375 2.62498,-10.43372 -4e-5,-7.94108 -3.08824,-11.91163 -9.26462,-11.91166 -2.85294,3e-5 -5.1838,1.08091 -6.99258,3.24262 -1.80883,2.16177 -2.71323,5.02204 -2.71321,8.5808 z"
         style="stroke:#000000;font-family:Segoe UI;-inkscape-font-specification:Segoe UI Bold"
         id="path3090" />
      <path
         d="m 825.19926,686.5965 -13.19105,0 0,-6.48524 -0.17647,0 c -3.02942,5.05878 -7.51466,7.58817 -13.45576,7.58817 -4.38233,0 -7.83082,-1.24264 -10.3455,-3.72791 -2.51468,-2.48527 -3.77203,-5.80141 -3.77202,-9.94844 -10e-6,-8.7646 5.19112,-13.82338 15.57339,-15.17633 l 12.26459,-1.63234 c -3e-5,-4.9411 -2.67647,-7.41166 -8.02934,-7.4117 -5.38232,4e-5 -10.49992,1.60297 -15.3528,4.80878 l 0,-10.4999 c 1.94115,-0.99995 4.59553,-1.88229 7.96316,-2.64704 3.3676,-0.76465 6.43375,-1.147 9.19845,-1.14704 12.8822,4e-5 19.32331,6.42645 19.32335,19.27923 z m -13.10282,-18.35278 0,-3.04409 -8.20581,1.05882 c -4.52939,0.58825 -6.79407,2.63234 -6.79405,6.13229 -2e-5,1.58824 0.55145,2.88969 1.65439,3.90438 1.10292,1.01471 2.59555,1.52205 4.4779,1.52204 2.6176,1e-5 4.74993,-0.90439 6.397,-2.71321 1.64702,-1.80879 2.47054,-4.09553 2.47057,-6.86023 z"
         style="stroke:#000000;font-family:Segoe UI;-inkscape-font-specification:Segoe UI Bold"
         id="path3092" />
      <path
         d="m 870.5518,684.96416 c -3.14707,1.82351 -7.69114,2.73527 -13.63223,2.73527 -6.94114,0 -12.55873,-2.10292 -16.85279,-6.30877 -4.29409,-4.20583 -6.44112,-9.63225 -6.44112,-16.27926 0,-7.67637 2.30144,-13.72778 6.90435,-18.15425 4.60288,-4.42639 10.75723,-6.6396 18.46307,-6.63964 5.32344,4e-5 9.17635,0.70592 11.55872,2.11762 l 0,11.82343 c -2.91178,-2.17642 -6.16175,-3.26465 -9.74992,-3.26468 -3.99999,3e-5 -7.16907,1.16914 -9.50726,3.50732 -2.33824,2.33824 -3.50734,5.56615 -3.50732,9.68374 -2e-5,3.99998 1.11761,7.13965 3.35291,9.41903 2.23525,2.2794 5.30875,3.41909 9.2205,3.41908 3.47052,10e-6 6.86755,-1.08821 10.19109,-3.26467 z"
         style="stroke:#000000;font-family:Segoe UI;-inkscape-font-specification:Segoe UI Bold"
         id="path3094" />
      <path
         d="m 920.31606,667.97902 -29.47032,0 c 0.47056,6.55877 4.60287,9.83815 12.39694,9.83814 4.97051,1e-5 9.33811,-1.17645 13.10282,-3.52938 l 0,10.05874 c -4.17647,2.23527 -9.60288,3.35291 -16.27926,3.35291 -7.29407,0 -12.95578,-2.02204 -16.98514,-6.06612 -4.02938,-4.04408 -6.04407,-9.68372 -6.04406,-16.91897 -1e-5,-7.4999 2.17644,-13.44102 6.52935,-17.82336 4.35289,-4.38227 9.70577,-6.57343 16.05868,-6.57347 6.58814,4e-5 11.68368,1.9559 15.28662,5.86759 3.60287,3.91177 5.40432,9.22053 5.40437,15.92633 z m -12.92636,-8.55875 c -3e-5,-6.47049 -2.61765,-9.70575 -7.85287,-9.70579 -2.23529,4e-5 -4.1691,0.9265 -5.80142,2.77939 -1.63235,1.85295 -2.62499,4.16175 -2.97791,6.9264 z"
         style="stroke:#000000;font-family:Segoe UI;-inkscape-font-specification:Segoe UI Bold"
         id="path3096" />
      <path
         d="m 433.08519,747.87535 -22.32333,0 0,15.52927 20.51452,0 0,11.55872 -20.51452,0 0,24.57331 -14.24987,0 0,-63.26413 36.5732,0 z"
         style="stroke:#000000;font-family:Segoe UI;-inkscape-font-specification:Segoe UI Bold"
         id="path3098" />
      <path
         d="m 471.55543,766.934 c -1.67649,-0.91172 -3.63235,-1.3676 -5.8676,-1.36763 -3.02941,3e-5 -5.39703,1.11031 -7.10287,3.33085 -1.70589,2.2206 -2.55882,5.24262 -2.5588,9.06609 l 0,21.57334 -13.94105,0 0,-45.17606 13.94105,0 0,8.38227 0.17647,0 c 2.20584,-6.11755 6.17638,-9.17634 11.91165,-9.17638 1.47054,4e-5 2.61759,0.17651 3.44115,0.5294 z"
         style="stroke:#000000;font-family:Segoe UI;-inkscape-font-specification:Segoe UI Bold"
         id="path3100" />
      <path
         d="m 515.67267,799.53665 -13.19105,0 0,-6.48524 -0.17647,0 c -3.02941,5.05878 -7.51466,7.58817 -13.45576,7.58817 -4.38233,0 -7.83082,-1.24264 -10.3455,-3.72791 -2.51468,-2.48527 -3.77202,-5.80141 -3.77202,-9.94844 0,-8.7646 5.19112,-13.82338 15.57339,-15.17633 l 12.26459,-1.63234 c -3e-5,-4.9411 -2.67647,-7.41166 -8.02934,-7.4117 -5.38232,4e-5 -10.49991,1.60296 -15.3528,4.80878 l 0,-10.4999 c 1.94115,-0.99995 4.59554,-1.88229 7.96316,-2.64704 3.3676,-0.76465 6.43375,-1.147 9.19845,-1.14704 12.8822,4e-5 19.32331,6.42645 19.32335,19.27923 z m -13.10282,-18.35278 0,-3.04409 -8.20581,1.05882 c -4.52938,0.58825 -6.79407,2.63234 -6.79405,6.13229 -2e-5,1.58824 0.55145,2.88969 1.65439,3.90438 1.10292,1.0147 2.59555,1.52205 4.4779,1.52204 2.6176,1e-5 4.74994,-0.90439 6.39701,-2.71321 1.64701,-1.80879 2.47053,-4.09553 2.47056,-6.86023 z"
         style="stroke:#000000;font-family:Segoe UI;-inkscape-font-specification:Segoe UI Bold"
         id="path3102" />
      <path
         d="m 570.42217,799.53665 -13.89693,0 0,-25.10272 c -4e-5,-6.9999 -2.50001,-10.49987 -7.49993,-10.4999 -2.41177,3e-5 -4.39704,0.9265 -5.95583,2.77938 -1.55883,1.85296 -2.33823,4.20588 -2.33821,7.05876 l 0,25.76448 -13.94105,0 0,-45.17606 13.94105,0 0,7.14699 0.17647,0 c 3.32347,-5.49991 8.16166,-8.24988 14.51457,-8.24992 9.99986,4e-5 14.99981,6.20586 14.99986,18.61747 z"
         style="stroke:#000000;font-family:Segoe UI;-inkscape-font-specification:Segoe UI Bold"
         id="path3104" />
      <path
         d="m 626.75989,799.53665 -16.72043,0 -14.42634,-22.41156 -0.17647,0 0,22.41156 -13.94105,0 0,-66.88175 13.94105,0 0,42.57314 0.17647,0 13.45576,-20.86745 16.54397,0 -16.19103,21.22039 z"
         style="stroke:#000000;font-family:Segoe UI;-inkscape-font-specification:Segoe UI Bold"
         id="path3106" />
      <path
         d="m 661.43606,743.33127 c -1.79414,-0.70581 -3.51471,-1.05875 -5.16172,-1.05881 -4.47057,6e-5 -6.70584,2.4265 -6.70582,7.27935 l 0,4.80878 10.32343,0 0,10.27931 -10.32343,0 0,34.89675 -13.89693,0 0,-34.89675 -7.58817,0 0,-10.27931 7.58817,0 0,-5.60289 c -1e-5,-5.14696 1.67644,-9.29398 5.02936,-12.44107 3.3529,-3.14696 7.91167,-4.72047 13.67635,-4.72054 2.82347,7e-5 5.17639,0.29418 7.05876,0.88234 z"
         style="stroke:#000000;font-family:Segoe UI;-inkscape-font-specification:Segoe UI Bold"
         id="path3108" />
      <path
         d="m 709.47974,799.53665 -13.89693,0 0,-6.88229 -0.22059,0 c -3.44118,5.32348 -8.04407,7.98522 -13.8087,7.98522 -10.4705,0 -15.70574,-6.33818 -15.70574,-19.01454 l 0,-27.26445 13.89694,0 0,26.02917 c -2e-5,6.38231 2.52936,9.57345 7.58816,9.57344 2.49995,10e-6 4.49993,-0.87498 5.99995,-2.62497 1.49995,-1.74997 2.24994,-4.12495 2.24998,-7.12494 l 0,-25.8527 13.89693,0 z"
         style="stroke:#000000;font-family:Segoe UI;-inkscape-font-specification:Segoe UI Bold"
         id="path3110" />
      <path
         d="m 750.72936,766.934 c -1.67649,-0.91172 -3.63235,-1.3676 -5.86759,-1.36763 -3.02941,3e-5 -5.39703,1.11031 -7.10288,3.33085 -1.70588,2.2206 -2.55882,5.24262 -2.5588,9.06609 l 0,21.57334 -13.94105,0 0,-45.17606 13.94105,0 0,8.38227 0.17647,0 c 2.20584,-6.11755 6.17639,-9.17634 11.91166,-9.17638 1.47054,4e-5 2.61759,0.17651 3.44114,0.5294 z"
         style="stroke:#000000;font-family:Segoe UI;-inkscape-font-specification:Segoe UI Bold"
         id="path3112" />
      <path
         d="m 784.56728,799.00724 c -2.05883,1.08822 -5.16174,1.63234 -9.30874,1.63234 -9.82345,0 -14.73517,-5.10289 -14.73516,-15.30869 l 0,-20.69099 -7.32346,0 0,-10.27931 7.32346,0 0,-9.74992 13.89694,-3.97055 0,13.72047 10.14696,0 0,10.27931 -10.14696,0 0,18.26454 c -3e-5,4.70586 1.8676,7.05877 5.60289,7.05876 1.47054,10e-6 2.98523,-0.42645 4.54407,-1.2794 z"
         style="stroke:#000000;font-family:Segoe UI;-inkscape-font-specification:Segoe UI Bold"
         id="path3114" />
      <path
         d="m 857.84602,780.91917 -29.47032,0 c 0.47057,6.55877 4.60288,9.83815 12.39695,9.83814 4.97051,1e-5 9.33811,-1.17645 13.10282,-3.52938 l 0,10.05874 c -4.17647,2.23527 -9.60289,3.35291 -16.27926,3.35291 -7.29407,0 -12.95578,-2.02204 -16.98514,-6.06612 -4.02938,-4.04408 -6.04407,-9.68373 -6.04406,-16.91897 -10e-6,-7.4999 2.17644,-13.44102 6.52935,-17.82337 4.35289,-4.38226 9.70577,-6.57342 16.05868,-6.57346 6.58814,4e-5 11.68368,1.9559 15.28662,5.86759 3.60286,3.91176 5.40432,9.22053 5.40436,15.92632 z m -12.92635,-8.55875 c -3e-5,-6.47049 -2.61765,-9.70575 -7.85287,-9.70579 -2.2353,4e-5 -4.1691,0.9265 -5.80142,2.77938 -1.63235,1.85296 -2.62499,4.16176 -2.97791,6.92641 z"
         style="stroke:#000000;font-family:Segoe UI;-inkscape-font-specification:Segoe UI Bold"
         id="path3116" />
      <path
         d="m 872.36062,800.63958 c -2.29411,0 -4.20586,-0.70588 -5.73525,-2.11763 -1.5294,-1.41175 -2.2941,-3.14703 -2.29409,-5.20584 -10e-6,-2.11762 0.78675,-3.85289 2.36027,-5.20583 1.57351,-1.35292 3.53672,-2.02938 5.88965,-2.02939 2.38232,1e-5 4.33083,0.68383 5.84554,2.05145 1.51467,1.36764 2.27202,3.09557 2.27204,5.18377 -2e-5,2.14705 -0.77208,3.90438 -2.31616,5.27202 -1.54412,1.36763 -3.55145,2.05145 -6.022,2.05145 z"
         style="stroke:#000000;font-family:Segoe UI;-inkscape-font-specification:Segoe UI Bold"
         id="path3118" />
      <path
         d="m 944.71289,736.27252 -21.79392,63.26413 -16.14692,0 -21.52921,-63.26413 15.3528,0 13.19106,44.02901 c 0.70584,2.38234 1.13231,4.48526 1.2794,6.30876 l 0.2647,0 c 0.20585,-1.97055 0.66173,-4.1323 1.36763,-6.48523 l 13.10283,-43.85254 z"
         style="stroke:#000000;font-family:Segoe UI;-inkscape-font-specification:Segoe UI Bold"
         id="path3120" />
      <path
         d="m 957.24221,800.63958 c -2.29411,0 -4.20585,-0.70588 -5.73524,-2.11763 -1.52941,-1.41175 -2.2941,-3.14703 -2.2941,-5.20584 0,-2.11762 0.78675,-3.85289 2.36027,-5.20583 1.57351,-1.35292 3.53673,-2.02938 5.88965,-2.02939 2.38232,1e-5 4.33083,0.68383 5.84554,2.05145 1.51467,1.36764 2.27202,3.09557 2.27204,5.18377 -2e-5,2.14705 -0.77207,3.90438 -2.31616,5.27202 -1.54412,1.36763 -3.55145,2.05145 -6.022,2.05145 z"
         style="stroke:#000000;font-family:Segoe UI;-inkscape-font-specification:Segoe UI Bold"
         id="path3122" />
    </g>
    <g
       style="font-size:193.56532288px;font-style:normal;font-variant:normal;font-weight:bold;font-stretch:normal;line-height:125%;letter-spacing:0px;word-spacing:0px;fill:none;stroke:#000000;font-family:Segoe UI;-inkscape-font-specification:Segoe UI Bold"
       id="text2985-1">
      <path
         d="m 225.81676,475.04201 -3.68606,17.01258 -17.48515,0 -5.19828,23.43955 19.56446,0 -4.25314,17.01258 -18.80835,0 -7.37212,32.70195 -18.90286,0 6.89954,-32.70195 -21.64378,0 -6.99406,32.70195 -18.90286,0 6.71052,-32.70195 -17.57967,0 3.49703,-17.01258 17.76869,0 5.00926,-23.43955 -19.09189,0 3.21349,-17.01258 19.37543,0 6.99406,-33.64709 19.37544,0 -6.99406,33.64709 21.64378,0 7.18308,-33.64709 19.18641,0 -6.99406,33.64709 z m -40.2631,17.01258 -21.92732,0 -5.19829,23.43955 21.83281,0 z"
         style="stroke:#000000;font-family:Segoe UI;-inkscape-font-specification:Segoe UI Bold"
         id="path3125" />
      <path
         d="m 334.69726,576.07782 -29.77202,0 0,-55.00733 c -7e-5,-14.17708 -5.16685,-21.26565 -15.50034,-21.26572 -5.29286,7e-5 -9.5775,1.98487 -12.85395,5.9544 -3.27654,3.96967 -4.91479,9.01042 -4.91474,15.12229 l 0,55.19636 -29.86653,0 0,-143.28371 29.86653,0 0,60.86722 0.37805,0 c 7.30906,-11.15259 17.23305,-16.72893 29.77201,-16.72903 21.92723,10e-5 32.89088,13.23209 32.89099,39.69601 z"
         style="stroke:#000000;font-family:Segoe UI;-inkscape-font-specification:Segoe UI Bold"
         id="path3127" />
      <path
         d="m 438.75752,576.07782 -28.25978,0 0,-13.8936 -0.37806,0 c -6.49004,10.83764 -16.09898,16.25646 -28.82686,16.25646 -9.38845,0 -16.77631,-2.66216 -22.16361,-7.98646 -5.38732,-5.3243 -8.08098,-12.42862 -8.08097,-21.31298 -1e-5,-18.7768 11.12116,-29.61443 33.36355,-32.51293 l 26.27498,-3.49703 c -7e-5,-10.58553 -5.73393,-15.87832 -17.20161,-15.8784 -11.53078,8e-5 -22.49443,3.43409 -32.89098,10.30206 l 0,-22.49441 c 4.15861,-2.14223 9.84522,-4.03251 17.05984,-5.67086 7.21455,-1.63815 13.78329,-2.45727 19.70623,-2.45737 27.5981,10e-5 41.39718,13.76767 41.39727,41.30276 z m -28.07075,-39.31796 0,-6.52148 -17.57966,2.26834 c -9.70351,1.26023 -14.55524,5.63939 -14.55521,13.13749 -3e-5,3.40254 1.1814,6.19071 3.54429,8.36452 2.36282,2.17385 5.56055,3.26076 9.5932,3.26074 5.6078,2e-5 10.17599,-1.93752 13.70458,-5.81263 3.52847,-3.87506 5.29273,-8.77405 5.2928,-14.69698 z"
         style="stroke:#000000;font-family:Segoe UI;-inkscape-font-specification:Segoe UI Bold"
         id="path3129" />
      <path
         d="m 535.91823,572.58079 c -6.7421,3.90659 -16.47707,5.85989 -29.20492,5.85989 -14.8703,0 -26.90511,-4.50518 -36.10447,-13.51555 -9.19941,-9.01034 -13.7991,-20.63559 -13.79909,-34.87578 -1e-5,-16.44543 4.93048,-29.40963 14.79149,-38.89264 9.86096,-9.48285 23.04569,-14.22431 39.55424,-14.22441 11.40465,10e-5 19.6589,1.51233 24.76275,4.53669 l 0,25.32983 c -6.23802,-4.66263 -13.20057,-6.99398 -20.88766,-6.99405 -8.56936,7e-5 -15.35863,2.5047 -20.36784,7.51388 -5.0093,5.00933 -7.51393,11.92462 -7.51389,20.7459 -4e-5,8.56933 2.39433,15.2956 7.18309,20.1788 4.78868,4.88327 11.37317,7.32488 19.75349,7.32486 7.43506,2e-5 14.71265,-2.33133 21.83281,-6.99406 z"
         style="stroke:#000000;font-family:Segoe UI;-inkscape-font-specification:Segoe UI Bold"
         id="path3131" />
      <path
         d="m 652.54892,576.07782 -35.82093,0 -30.90618,-48.01327 -0.37806,0 0,48.01327 -29.86653,0 0,-143.28371 29.86653,0 0,91.20632 0.37806,0 28.82686,-44.70527 35.44287,0 -34.68675,45.46139 z"
         style="stroke:#000000;font-family:Segoe UI;-inkscape-font-specification:Segoe UI Bold"
         id="path3133" />
      <path
         d="m 726.83715,455.66658 c -3.84366,-1.51211 -7.52971,-2.26822 -11.05818,-2.26834 -9.5775,1.2e-4 -14.36622,5.1984 -14.36617,15.59486 l 0,10.30206 22.11635,0 0,22.02183 -22.11635,0 0,74.76083 -29.77201,0 0,-74.76083 -16.25647,0 0,-22.02183 16.25647,0 0,-12.00332 c -2e-5,-11.02655 3.59152,-19.91089 10.77463,-26.65304 7.18305,-6.74188 16.94952,-10.11288 29.29944,-10.11303 6.04885,1.5e-4 11.08961,0.63024 15.12229,1.89029 z"
         style="stroke:#000000;font-family:Segoe UI;-inkscape-font-specification:Segoe UI Bold"
         id="path3135" />
      <path
         d="m 800.93639,455.66658 c -3.84365,-1.51211 -7.52971,-2.26822 -11.05817,-2.26834 -9.57751,1.2e-4 -14.36623,5.1984 -14.36618,15.59486 l 0,10.30206 22.11635,0 0,22.02183 -22.11635,0 0,74.76083 -29.77201,0 0,-74.76083 -16.25646,0 0,-22.02183 16.25646,0 0,-12.00332 c -2e-5,-11.02655 3.59152,-19.91089 10.77463,-26.65304 7.18305,-6.74188 16.94952,-10.11288 29.29944,-10.11303 6.04885,1.5e-4 11.08961,0.63024 15.12229,1.89029 z"
         style="stroke:#000000;font-family:Segoe UI;-inkscape-font-specification:Segoe UI Bold"
         id="path3137" />
      <path
         d="m 965.58035,576.07782 -29.77201,0 0,-55.19636 c -1.4e-4,-14.05106 -5.16691,-21.07662 -15.50035,-21.07669 -4.91486,7e-5 -8.91596,2.11089 -12.00332,6.33245 -3.08757,4.22171 -4.6313,9.483 -4.6312,15.7839 l 0,54.1567 -29.86652,0 0,-55.76345 c -8e-5,-13.673 -5.07234,-20.50953 -15.21681,-20.5096 -5.10382,7e-5 -9.18369,2.01638 -12.2396,6.04891 -3.05601,4.03268 -4.58399,9.5145 -4.58395,16.44549 l 0,53.77865 -29.86652,0 0,-96.78266 29.86652,0 0,15.12229 0.37806,0 c 3.08742,-5.1667 7.41933,-9.37258 12.99572,-12.61766 5.57628,-3.2449 11.67245,-4.86739 18.28852,-4.86749 13.67298,10e-5 23.02989,6.01751 28.07075,18.05224 7.37201,-12.03473 18.20964,-18.05214 32.51293,-18.05224 21.04503,10e-5 31.56761,12.98005 31.56778,38.9399 z"
         style="stroke:#000000;font-family:Segoe UI;-inkscape-font-specification:Segoe UI Bold"
         id="path3139" />
    </g>
    <path
       style="font-size:193.56532288px;font-style:normal;font-variant:normal;font-weight:bold;font-stretch:normal;line-height:125%;letter-spacing:0px;word-spacing:0px;fill:none;stroke:#000000;font-family:Segoe UI;-inkscape-font-specification:Segoe UI Bold"
       d="m 709.5625,432.5625 c -16.25806,-0.38256 -32.92332,10.524 -35.28125,27.28125 -1.18594,7.02005 -0.39434,14.30048 -0.625,21.4375 -4.8114,1.28235 -14.79478,-2.60728 -16.28125,2 1.32639,4.68403 -2.67035,14.69118 2,16.03125 4.69319,1.40056 15.68932,-3.50182 14.28125,4 0,23.58333 0,47.16667 0,70.75 8.58333,0 17.16667,0 25.75,0 0,-24.91667 0,-49.83333 0,-74.75 7.375,0 14.75,0 22.125,0 0,-6.01042 0,-12.02083 0,-18.03125 -7.375,0 -14.75,0 -22.125,0 0.3664,-9.16176 -2.36686,-22.15127 7.1875,-27.75 5.54528,-3.0594 12.47078,-2.4729 18.25,-0.65625 -0.0626,-6.3107 0.1252,-12.80195 -0.0937,-19 -4.90389,-1.19966 -10.07244,-1.43375 -15.1875,-1.3125 z m 74.09375,0 c -16.63615,-0.33753 -33.42571,10.90039 -35.4375,28.15625 -0.92062,6.7462 -0.27682,13.72118 -0.46875,20.5625 -4.8114,1.28235 -14.79478,-2.60728 -16.28125,2 1.32639,4.68403 -2.67035,14.69118 2,16.03125 4.69319,1.40056 15.68932,-3.50182 14.28125,4 0,23.58333 0,47.16667 0,70.75 8.58333,0 17.16667,0 25.75,0 0,-24.91667 0,-49.83333 0,-74.75 7.375,0 14.75,0 22.125,0 0,-6.01042 0,-12.02083 0,-18.03125 -7.375,0 -14.75,0 -22.125,0 0.26718,-9.34339 -2.34279,-23.09247 8,-28.1875 5.45233,-2.52178 11.92304,-1.96926 17.4375,-0.21875 -0.0626,-6.3107 0.1252,-12.80195 -0.0937,-19 -4.96848,-1.22487 -10.06804,-1.42191 -15.1875,-1.3125 z m -539.875,141.5 c 8.625,0 17.25,0 25.875,0 0.4022,-19.6594 -0.76431,-39.43214 0.5,-59.03125 1.50301,-11.16039 13.06233,-20.10472 24.3125,-16.625 11.11995,2.7525 12.98979,15.97827 12.46875,25.65625 0,16.66667 0,33.33333 0,50 8.58333,0 17.16667,0 25.75,0 -0.45484,-22.4884 0.89069,-45.18468 -0.625,-67.5625 -0.953,-12.39353 -9.03127,-25.07456 -22.0625,-26.8125 -13.86148,-3.28755 -29.14629,2.71475 -36.3125,15.09375 -6.18861,4.14507 -3.52578,-7.25309 -4.03125,-11.125 0,-16.29167 0,-32.58333 0,-48.875 -8.625,0 -17.25,0 -25.875,0 0,46.42708 0,92.85417 0,139.28125 z m 313.78125,0 c 8.625,0 17.25,0 25.875,0 0,-16 0,-32 0,-48 6.16219,-1.17495 6.90404,7.5831 10.55734,10.99669 7.93922,12.33444 15.87844,24.66887 23.81766,37.00331 10.27083,0 20.54167,0 30.8125,0 -11.90459,-16.44911 -23.82228,-32.88878 -35.71875,-49.34375 11.04254,-14.4785 22.08319,-28.95845 33.125,-43.4375 -10.09375,0 -20.1875,0 -30.28125,0 -9.61689,14.90475 -19.21578,29.8212 -28.84375,44.71875 -6.75383,0.93091 -2.09602,-9.54981 -3.46875,-14 0,-25.73958 0,-51.47917 0,-77.21875 -8.625,0 -17.25,0 -25.875,0 0,46.42708 0,92.85417 0,139.28125 z m -407.65625,-98.625 c -3.10216,3.69496 -11.72342,0.5535 -16.96875,1.59375 -4.29147,-0.96906 -6.42784,12.95884 -3.1875,13.03125 5.19993,0.69329 13.78,-1.36341 16.9528,0.97909 -1.86601,8.82243 -3.7557,17.63991 -5.6403,26.45841 -5.91667,0 -11.83333,0 -17.75,0 0.21558,4.78554 -6.7488,15.41854 2.3125,13 4.28741,1.12828 15.2574,-3.20143 11.69181,4.36545 -1.93894,9.4511 -3.87787,18.9022 -5.81681,28.3533 5.09413,-1.45496 15.42669,3.56724 15.64901,-3.91155 2.05539,-9.60221 4.10346,-19.20599 6.16349,-28.8072 8.57292,0 17.14583,0 25.71875,0 -2.28021,10.90865 -4.58516,21.81212 -6.875,32.71875 5.11051,-1.45136 15.38652,3.55841 15.69306,-3.90187 2.16215,-9.60622 4.34632,-19.20754 6.49444,-28.81688 6.28125,0 12.5625,0 18.84375,0 -0.0148,-4.7772 7.40213,-15.35698 -1.75,-13 -4.17224,-1.45985 -16.2696,3.40638 -13.72016,-3.4136 1.78023,-8.00829 3.57162,-16.01412 5.34516,-24.0239 5.62651,-0.64336 13.34067,1.29956 17.64847,-0.97749 0.47702,-5.31739 6.2017,-14.87067 -3.39847,-12.05376 -5.73706,-0.18629 -14.6679,2.22937 -10.12591,-6.32305 1.88572,-9.10065 3.77144,-18.2013 5.65716,-27.30195 -4.78405,1.54036 -14.77532,-3.35047 -15.71784,2.93437 -2.17889,10.22989 -4.34565,20.46237 -6.53216,30.69063 -8.58333,0 -17.16667,0 -25.75,0 2.33144,-11.20873 4.66697,-22.4166 7,-33.625 -4.86185,1.51421 -14.88124,-3.31106 -15.89163,2.93725 -2.01529,9.698 -4.03058,19.396 -6.04587,29.094 z m 245.3125,3.53125 c -11.13223,0.61358 -22.36454,2.85066 -32.625,7.34375 0.59586,5.16835 -1.17998,14.47615 0.8627,17.11928 12.05931,-6.60995 27.25249,-10.99339 40.6998,-6.11928 6.67242,2.95364 9.02424,10.77798 8.59375,17.5625 -16.06432,3.17436 -33.9557,1.62086 -48.25,10.46875 -13.65847,9.01203 -15.25194,30.75766 -4.84375,42.78125 12.78778,13.18955 37.95599,10.55716 47.59375,-5.125 2.76662,-6.16754 7.20874,-1.00668 5.25,4.1875 -2.88873,9.18039 5.88052,6.70282 12,6.875 5.42262,-0.66071 15.14789,2.98123 12.25,-6 -0.54185,-20.0705 1.07717,-40.30041 -0.78125,-60.28125 -1.38103,-13.75866 -12.13538,-25.73001 -26,-27.65625 -4.83889,-1.00501 -9.80637,-1.29468 -14.75,-1.15625 z M 508.1875,479 c -20.68249,-0.17813 -41.65446,12.74715 -47.03125,33.34375 -5.45605,18.65527 -2.14058,41.85094 14.3125,54.21875 15.38251,12.06565 36.99935,11.85144 54.90625,6.4375 5.89348,-0.75803 2.81783,-7.50114 3.53125,-11.625 -0.52341,-3.63238 2.00284,-11.86179 -3.44162,-7.5237 -14.13713,7.01641 -35.15691,4.66468 -42.30838,-11.0388 -6.49919,-14.37224 -3.01652,-35.2897 12.65625,-42.15625 10.4715,-4.62521 23.32131,-3.58094 33.09375,2.375 -0.24386,-6.76974 0.47816,-14.17011 -0.34375,-20.5625 -7.8879,-3.48148 -16.89559,-3.59587 -25.375,-3.46875 z m 362.9375,0 c -11.38343,0.63193 -22.31638,7.46409 -27.875,17.40625 -6.75383,0.93091 -2.09602,-9.54981 -3.46875,-14 -3.33018,-2.71149 -11.77013,-0.31321 -17,-1.125 -8.46234,-2.17068 -10.24889,2.33444 -8.875,10 0,27.59375 0,55.1875 0,82.78125 8.625,0 17.25,0 25.875,0 0.38245,-19.37684 -0.72354,-38.87217 0.46875,-58.1875 0.9738,-10.08354 9.7302,-19.69507 20.46875,-17.96875 10.50847,0.38289 15.46927,11.60869 15.05688,20.87467 0.0885,18.42624 0.0104,36.85456 0.0369,55.28158 8.625,0 17.25,0 25.875,0 0.39517,-19.34396 -0.74111,-38.81473 0.46875,-58.09375 1.22816,-10.1395 10.21186,-20.23949 21.1875,-17.9375 10.85741,0.98504 14.9755,13.07968 14.46188,22.4997 0.0161,17.84368 0.002,35.68773 0.007,53.53155 8.59375,0 17.1875,0 25.78125,0 -0.48237,-22.70445 0.93072,-45.50138 -0.625,-68.15625 -0.87044,-12.22523 -8.86296,-24.90828 -21.90625,-26.40625 -14.86266,-2.94879 -31.27247,3.60624 -38.36785,17.38291 -2.15864,5.28665 -3.11667,-3.08742 -5.0384,-5.16416 C 892.5206,482.09281 881.5085,478.14971 871.125,479 z m -707.5,11.0625 c 8.14583,0 16.29167,0 24.4375,0 -2.08782,9.1424 -4.16339,18.28776 -6.21875,27.4375 -8.63542,0 -17.27083,0 -25.90625,0 2.0731,-9.13637 4.06031,-18.29218 6.09375,-27.4375 l 1,0 0.59375,0 z M 412.6875,530.25 c 1.25091,10.50962 -1.96225,23.14638 -12.65625,27.4375 -8.42065,3.88683 -21.49093,1.01231 -23.21875,-9.28125 -2.11082,-8.57925 4.98283,-16.51848 13.3125,-17.4375 7.48747,-1.20146 15.05473,-1.91131 22.5625,-3 0,0.76042 0,1.52083 0,2.28125 z"
       id="text3049"
       inkscape:connector-curvature="0" />
    <path
       style="font-size:193.56532288px;font-style:normal;font-variant:normal;font-weight:bold;font-stretch:normal;line-height:125%;letter-spacing:0px;word-spacing:0px;fill:none;stroke:#000000;font-family:Segoe UI;-inkscape-font-specification:Segoe UI Bold"
       d="M 709.59375,434.5625 C 693.02994,433.79601 675.90749,446.73785 675.8125,464 c -0.48759,6.30221 0.0867,12.62654 -0.1875,18.9375 -5.24988,1.89425 -11.01795,-1.18477 -16.125,0.625 1.12547,4.43528 -2.01409,10.03593 0.4375,13.84375 4.90237,0.99358 13.30836,-3.16855 15.6875,3.3125 0.10524,23.71695 -0.0135,47.57541 0.0312,71.34375 7.25,0 14.5,0 21.75,0 0,-24.91667 0,-49.83333 0,-74.75 7.375,0 14.75,0 22.125,0 -1.52906,-4.48135 3.73059,-15.75142 -4,-14.03125 -6.0625,0 -12.125,0 -18.1875,0 0.47669,-10.38318 -2.52523,-24.5498 7.71875,-31.15625 5.25386,-3.23867 11.91631,-3.28122 17.78125,-1.875 -0.26139,-4.83112 0.49795,-10.35128 -0.34375,-14.8125 -4.24463,-0.83921 -8.59092,-0.96934 -12.90625,-0.875 z m 74.09375,0 c -16.76705,-0.75313 -34.04775,12.4844 -33.84375,30.125 -0.32236,6.07904 0.10207,12.16803 -0.125,18.25 -5.24988,1.89425 -11.01795,-1.18477 -16.125,0.625 1.12614,4.42512 -2.01607,10.07039 0.4375,13.84375 4.90237,0.99358 13.30836,-3.16855 15.6875,3.3125 0.10524,23.71695 -0.0135,47.57541 0.0312,71.34375 7.25,0 14.5,0 21.75,0 0,-24.91667 0,-49.83333 0,-74.75 7.375,0 14.75,0 22.125,0 -1.52906,-4.48135 3.73059,-15.75142 -4,-14.03125 -6.0625,0 -12.125,0 -18.1875,0 0.4211,-10.5199 -2.50975,-25.11883 8.1875,-31.4375 5.19336,-2.92645 11.61579,-2.94933 17.3125,-1.59375 -0.28532,-4.81818 0.54105,-10.4106 -0.375,-14.8125 -4.1922,-0.87257 -8.55921,-0.94511 -12.875,-0.875 z m -537.90625,137.5 c 7.30208,0 14.60417,0 21.90625,0 0.52666,-19.85458 -1.25408,-39.87464 0.9375,-59.625 2.84635,-12.96 18.92646,-21.24888 30.65625,-14.25 11.27594,7.17946 9.77492,22.35976 9.65625,33.9375 0,13.3125 0,26.625 0,39.9375 7.23958,0 14.47917,0 21.71875,0 -0.59753,-23.25055 1.50833,-46.6746 -1.25,-69.8125 -2.05222,-11.42122 -11.80366,-20.99194 -23.53125,-21.25 -12.38197,-1.56532 -24.86257,4.89917 -31.15625,15.5 -3.2691,3.03168 -7.82568,-0.27529 -7.1875,-4.28125 0.32862,-18.4636 0.0181,-36.95967 0.125,-55.4375 -7.29167,0 -14.58333,0 -21.875,0 0,45.09375 0,90.1875 0,135.28125 z m 313.78125,0 c 7.29167,0 14.58333,0 21.875,0 0.13111,-17.88332 -0.15807,-35.88355 -0.0625,-53.6875 0.37361,-20.89481 -0.14242,-42.28647 0.0625,-63.375 0,-6.07292 0,-12.14583 0,-18.21875 -7.29167,0 -14.58333,0 -21.875,0 0,45.09375 0,90.1875 0,135.28125 z m -399.1875,-127 c -4.84966,0.17986 -2.38557,7.54064 -4.29564,10.50013 -2.15967,7.13789 -1.91224,15.61891 -5.48561,21.96862 -5.37629,3.96306 -12.77862,-0.14839 -18.46875,1.8125 -1.34745,2.31761 -3.0526,6.93775 -1.25,8.8125 5.95156,0.57544 12.83524,-2.00727 18.0625,1.90625 -2.06075,9.81721 -4.15754,19.62697 -6.25,29.4375 -5.75179,0.31578 -12.56316,-0.63253 -17.65625,0.46875 -0.29125,2.84899 -2.49957,6.19743 -1.84375,8.875 5.01405,0.32209 10.92437,-2.00671 15.5625,0.65625 3.40397,3.93086 -1.5731,9.2423 -1.09837,13.68245 -0.98203,5.81136 -2.92584,12.40817 -3.33913,17.75505 3.24408,-0.49835 8.3768,2.28894 10.6875,-0.65625 2.01038,-10.59613 4.49302,-21.18925 6.6875,-31.78125 9.9375,0 19.875,0 29.8125,0 -2.05171,10.72414 -5.02615,22.175 -6.53125,32.4375 3.24383,-0.53241 8.45714,2.36598 10.71875,-0.71875 2.17437,-10.57441 4.75956,-21.14258 7.0625,-31.71875 6.06765,-0.41404 13.52687,0.80665 18.78125,-0.5625 0.3771,-2.76442 3.10624,-6.4806 2.09375,-8.78125 -5.28935,-0.43545 -11.30664,1.82075 -16.5,-0.15625 -4.30108,-3.64475 0.82732,-9.83562 0.64231,-14.28514 1.85711,-5.18566 1.49384,-12.84083 4.63054,-16.5942 5.44248,-0.82544 11.31818,1.08584 16.5084,-0.55816 0.15134,-2.83545 2.74831,-6.58591 1.53125,-9.03125 -5.0191,0.11433 -12.18335,2.69872 -15.96875,-1.875 -1.73814,-4.7772 2.72451,-9.46813 2.40807,-14.39534 0.6182,-5.25475 3.47072,-12.32745 2.81068,-16.54216 -3.16754,0.46643 -8.26536,-2.3876 -10.5,0.5625 -2.29802,10.84352 -4.64077,21.84729 -6.96875,32.75 -9.94792,0 -19.89583,0 -29.84375,0 2.26446,-11.08437 4.73429,-22.33072 6.875,-33.3125 -2.97177,0.0406 -5.9042,-0.7853 -8.875,-0.65625 z m 772.34375,35.78125 c -12.29836,0.11894 -24.16306,7.6829 -29.375,18.8125 -4.18336,3.35115 -5.81822,-3.7512 -7.03125,-6.40625 -8.36738,-15.57559 -31.264,-15.53818 -43.59375,-4.96875 -3.9887,2.48497 -5.94624,7.64605 -9.25,10.125 -5.442,1.12391 -6.98912,-5.57591 -5.75,-9.625 0.44876,-2.44881 1.257,-6.35805 -2.53125,-5.6875 -5.84965,0.42773 -11.71307,0.35782 -17.34375,-0.25 -4.72182,2.01843 -0.8778,8.73841 -1.9375,12.4375 0,25.59375 0,51.1875 0,76.78125 7.30208,0 14.60417,0 21.90625,0 0.65614,-20.13374 -1.55061,-40.52749 1.21875,-60.5 2.74187,-11.25607 15.35894,-19.02614 26.46875,-14.75 11.02708,4.0769 13.27548,17.65619 12.29489,28.03123 0.0362,15.73956 0.009,31.47918 0.0176,47.21877 7.30208,0 14.60417,0 21.90625,0 0.58574,-19.80587 -1.38994,-39.83239 1.0625,-59.5 2.45036,-11.04545 14.27105,-19.86044 25.5625,-16.03125 11.57011,3.3721 14.46371,17.40878 13.46875,28.0625 0,15.82292 0,31.64583 0,47.46875 7.25,0 14.5,0 21.75,0 -0.71459,-23.743 1.73737,-47.79085 -1.4375,-71.34375 -2.32569,-11.04971 -12.03145,-20.03034 -23.5,-19.8125 -1.30039,-0.0759 -2.60404,-0.1275 -3.90625,-0.0625 z m -537.375,0.125 c -10.55133,0.594 -20.96693,2.60756 -30.65625,6.625 0.3628,4.14153 -0.90395,9.52597 0.15625,12.84375 12.87376,-6.42349 29.50673,-10.75657 42.875,-3.375 5.89988,4.44749 7.68445,12.41836 6.9375,19.5 -17.45552,3.97447 -37.8067,0.9004 -52.34375,13.125 -12.43225,12.22318 -9.11398,38.09632 8.71875,43.25 13.00926,4.64916 29.41415,-0.54419 35.90625,-13.15625 3.71571,-4.37507 9.22111,1.26107 8,5.71875 -0.38335,2.281 -2.64414,6.77915 1.4375,6.65625 6.09413,-0.3198 12.32047,0.26576 18.34375,-0.25 1.72091,-1.97813 -1.18849,-5.93297 -0.0478,-8.56236 -0.6922,-20.37038 2.08193,-41.14704 -1.92097,-61.25014 -3.6474,-12.39776 -15.961,-20.54454 -28.53125,-20.8125 -2.94806,-0.31672 -5.91181,-0.41267 -8.875,-0.3125 z M 508.21875,481 c -21.22904,-0.53706 -42.99885,14.61971 -46.24818,36.31994 -4.33373,19.11172 1.94638,42.06046 20.49818,51.46131 14.97123,7.91873 33.53316,7.00006 49.125,1.59375 1.12011,-4.8457 -0.43152,-10.19976 0.46875,-15.21875 -15.10828,8.58155 -38.95095,5.0717 -46.0625,-12.28125 -7.04319,-15.96876 -1.65905,-38.89969 16.15625,-44.9375 9.58943,-3.38737 20.57584,-2.76983 29.6875,1.71875 -0.33622,-5.1653 0.95192,-11.26878 -0.5625,-15.96875 -7.21986,-2.74261 -15.34162,-2.78521 -23.0625,-2.6875 z m 94.8125,23.75 c -4.24486,7.1742 -10.18191,14.52767 -13.40625,21.59375 4.26044,6.84397 8.45365,13.80969 13.0957,20.55817 5.39518,8.38686 10.79037,16.77372 16.18555,25.16058 8.59375,0 17.1875,0 25.78125,0 -11.4673,-15.76898 -22.82604,-31.5958 -34.28125,-47.375 10.52222,-13.80103 21.04143,-27.60434 31.5625,-41.40625 -8.375,0 -16.75,0 -25.125,0 -4.60417,7.15625 -9.20833,14.3125 -13.8125,21.46875 z m -441,-16.6875 c 9.51042,0 19.02083,0 28.53125,0 -2.40245,10.4729 -4.78346,20.95082 -7.125,31.4375 -10,0 -20,0 -30,0 2.38883,-10.46667 4.68092,-20.9552 7,-31.4375 l 1,0 0.59375,0 z m 252.65625,39.90625 c 1.47367,11.69401 -1.49235,26.18726 -13.34375,31.34375 -9.73405,5.08267 -25.36666,0.72871 -26.65625,-11.40625 -2.10877,-10.95104 8.74915,-19.76425 18.99123,-19.47591 7.03196,-1.00323 13.99037,-1.68722 21.00877,-2.77409 0,0.77083 0,1.54167 0,2.3125 z"
       id="path3057"
       inkscape:connector-curvature="0" />
    <path
       style="font-size:90.35211945px;font-style:normal;font-variant:normal;font-weight:bold;font-stretch:normal;line-height:125%;letter-spacing:0px;word-spacing:0px;fill:none;stroke:#000000;font-family:Segoe UI;-inkscape-font-specification:Segoe UI Bold"
       d="m 558.4375,684.59375 c 7.76672,1.45422 12.04023,-0.58477 9.9375,-9 0,-17.95833 0,-35.91667 0,-53.875 -7.76672,-1.45422 -12.04023,0.58477 -9.9375,9 0,17.95833 0,35.91667 0,53.875 z m -159.9375,0 c 6.98094,0.8976 12.789,0.62233 10.25,-8 0.66094,-5.58906 -1.32772,-13.82772 1,-17.75 9.73958,0 19.47917,0 29.21875,0 0,8.58333 0,17.16667 0,25.75 6.98137,0.88762 12.82374,0.63624 10.28125,-8 0,-17.08333 0,-34.16667 0,-51.25 -6.98137,-0.88762 -12.82374,-0.63624 -10.28125,8 -0.68256,5.39035 1.36135,13.50718 -1,17.21875 -9.73958,0 -19.47917,0 -29.21875,0 0,-8.40625 0,-16.8125 0,-25.21875 -6.98094,-0.8976 -12.789,-0.62233 -10.25,8 0,17.08333 0,34.16667 0,51.25 z m 83.09375,-42.25 c -4.85355,0.19125 -9.69687,1.26978 -14.15625,3.03125 -0.55071,4.33566 -0.22466,6.73949 3.875,4.03125 6.25452,-2.284 17.15947,-3.41205 19.1875,4.96875 0.79534,2.87211 0.49184,5.85161 -3.41996,5.07683 -8.08846,1.36648 -20.76829,0.60803 -23.61129,10.45442 -2.64203,7.31184 2.65707,16.34681 10.90625,15.78125 5.44616,0.49446 10.69934,-2.68732 13.0625,-7.5625 5.92722,-0.34389 0.86852,10.29815 10.28125,6.46875 4.98596,-1.07654 0.82223,-11.30277 2.1875,-16 0.24885,-8.60278 1.21118,-21.26881 -8.625,-24.84375 -3.04297,-1.19761 -6.39236,-1.49294 -9.6875,-1.40625 z m 52.78125,0 c -11.71074,-0.49832 -22.47709,9.47566 -22,21.375 -1.46315,12.12629 9.33525,22.95657 21.25,21.96875 3.98797,-0.0223 7.94837,-0.27553 11.625,-1.96875 -0.0323,-3.44598 1.15264,-8.09051 -3.125,-5.375 -8.39358,2.89903 -19.14548,-2.26694 -19.5,-11.8125 -1.71509,-8.70389 4.97645,-17.93095 14.15625,-17.53125 2.92462,-0.15608 5.81855,0.49728 8.46875,1.6875 0.31712,-3.90949 0.90669,-8.73095 -4.40625,-8.0625 -2.14061,-0.27579 -4.30987,-0.3683 -6.46875,-0.28125 z m 91.34375,0 c -12.64656,-4e-4 -21.31316,12.97873 -19.40625,24.90625 -0.0792,9.81174 8.42983,18.52893 18.4375,18.34375 5.70157,0.31928 11.54921,-0.13846 16.78125,-2.5 0.54534,-3.98639 0.51574,-6.7415 -3.5625,-4.21875 -7.66716,2.23831 -19.5243,1.29539 -21.53125,-8.125 -1.87168,-4.63004 1.03429,-5.70413 5.59375,-4.78125 7.82292,0 15.64583,0 23.46875,0 1.16594,-9.52529 -2.87168,-21.45851 -13.46875,-23.15625 -2.07333,-0.40222 -4.17198,-0.56292 -6.3125,-0.46875 z m 82,0 C 699.47091,641.7628 688.7548,647.45989 691,657.0625 c 1.52796,8.99848 12.80584,8.79027 18.96875,12.90625 4.76657,3.25408 0.9135,10.13576 -4.15625,9.96875 -5.11244,0.86548 -10.35562,-0.29204 -14.96875,-2.46875 -0.84683,4.44099 -0.1268,8.04599 4.96875,7.6875 8.67881,1.26791 21.32461,1.02337 25.1875,-8.625 2.24848,-6.17457 -1.73258,-12.61193 -7.875,-14.25 -4.67924,-1.90688 -14.4213,-3.32855 -12.3125,-10.53125 3.67718,-6.00301 12.47823,-4.02063 17.96875,-2.0625 1.94523,-5.76411 -1.77727,-7.43342 -6.7778,-7.20805 -1.42404,-0.11354 -2.85572,-0.2193 -4.2847,-0.1357 z m 51.375,0 c -5.19607,0.0883 -9.94678,3.34971 -12.375,7.875 -6.06957,0.37166 -0.71573,-10.68011 -10.28125,-6.8125 -6.14807,0.16443 -1.48371,11.14129 -2.9375,16 0,15.32292 0,30.64583 0,45.96875 7.76672,1.45422 12.04023,-0.58477 9.9375,-9 0.69186,-5.31855 -1.37547,-13.39631 1,-17.03125 3.85878,-0.37792 4.72492,5.21918 8.8125,5.625 10.74216,3.74989 21.76612,-5.22886 22.71875,-16.03125 2.02308,-10.06222 -0.81336,-24.96684 -12.9375,-26.40625 -1.2987,-0.18936 -2.62583,-0.27136 -3.9375,-0.1875 z m 45.78125,0 c -4.8504,0.20265 -9.69402,1.26993 -14.15625,3.03125 -0.57477,4.38255 -0.2025,6.6494 3.84375,4.0625 6.13294,-2.16986 16.56091,-3.54652 19.09375,4.375 0.8367,2.92768 0.96074,6.52898 -3.29496,5.63933 -8.36355,1.31189 -21.5208,0.72449 -23.79879,11.23567 -4.24047,12.59006 13.30786,20.01137 21.3125,11.34375 1.8836,-1.89554 2.74661,-5.08837 6.125,-3.90625 -4.09051,7.40616 8.0956,8.91048 9.1875,4.46875 -0.98276,-10.92543 2.18876,-22.6683 -2.0625,-33.0625 -2.99073,-6.00336 -10.15894,-7.41898 -16.25,-7.1875 z m 52.78125,0 c -11.7727,-0.49439 -22.51068,9.60504 -22,21.4375 -1.46633,12.08448 9.39936,22.89505 21.25,21.90625 4.02859,-0.0157 8.00804,-0.30615 11.65625,-1.9375 -0.0357,-3.4558 1.15662,-8.13559 -3.15625,-5.40625 -8.42039,2.92936 -19.12054,-2.32288 -19.5,-11.8125 -1.67726,-8.67439 4.93076,-17.92247 14.15625,-17.53125 2.93146,-0.14397 5.84908,0.46998 8.5,1.71875 -0.002,-3.51128 1.37163,-8.54335 -3.6875,-8 -2.38754,-0.34241 -4.80644,-0.47359 -7.21875,-0.375 z m 40.875,0 c -12.72949,0.0258 -21.23419,12.95017 -19.40625,24.90625 -0.0313,9.78395 8.41391,18.49389 18.4375,18.34375 5.70373,0.34056 11.55941,-0.17511 16.78125,-2.46875 0.53178,-3.97709 0.53428,-6.78902 -3.5625,-4.25 -7.66481,2.23911 -19.50157,1.28489 -21.53125,-8.125 -1.87168,-4.63004 1.03429,-5.70413 5.59375,-4.78125 7.82292,0 15.64583,0 23.46875,0 1.15593,-9.52269 -2.82311,-21.45778 -13.46875,-23.15625 -2.0587,-0.39785 -4.17691,-0.56466 -6.3125,-0.46875 z M 681,642.65625 c -5.10977,1.7e-4 -8.48505,4.61588 -9.71875,9.15625 -7.6671,2.01085 0.82619,-12.13869 -8.5625,-8.40625 -8.53892,-2.22642 -3.6765,8.9485 -4.9375,14 0,9.0625 0,18.125 0,27.1875 7.76672,1.45422 12.04023,-0.58477 9.9375,-9 0.0811,-8.08955 -1.93317,-20.25204 7.4375,-24.25 2.58142,-0.92486 5.45777,-0.92127 8.09375,-0.25 -1.06542,-2.38073 2.4215,-9.73966 -2.25,-8.4375 z M 572.34375,663.25 c 4.57292,7.11458 9.14583,14.22917 13.71875,21.34375 6.17769,-0.0263 15.80708,1.71132 7.58657,-5.67295 -3.92338,-5.43288 -7.8573,-10.85816 -11.77407,-16.2958 4.88631,-6.40557 9.77069,-12.81261 14.65625,-19.21875 -6.1571,-0.0206 -13.22795,-1.71447 -15.2214,5.88915 -2.9887,4.65154 -5.9774,9.30307 -8.9661,13.9546 z M 626.25,647.71875 c 7.01053,-0.8745 11.29835,6.42993 10.3125,12.6875 -4.01824,2.31509 -12.3197,0.34697 -18,1 -4.87648,1.24391 -2.06527,-5.02465 -0.96875,-7.5625 1.65519,-3.26638 4.82058,-6.00324 8.65625,-6.125 z m 272.8125,0 c 7.01572,-0.90672 11.31131,6.43855 10.3125,12.6875 -4.01824,2.31509 -12.3197,0.34697 -18,1 -5.07457,1.30616 -1.93708,-4.99238 -0.9375,-7.6875 1.70018,-3.09522 4.778,-5.89782 8.625,-6 z M 754.34375,649 c 7.36917,-0.92715 12.45626,6.42164 11.84375,13.1875 0.84612,7.63297 -3.62273,17.67322 -12.625,16.8125 -8.35843,-0.15865 -11.62534,-9.87711 -10.34375,-16.9375 -0.0288,-6.30142 4.28707,-12.9204 11.125,-13.0625 z M 490.8125,665.1875 c 1.42246,7.16594 -3.8516,15.61339 -11.75,14.59375 -7.42329,0.26394 -9.97221,-10.88564 -3.5,-14.03125 4.6862,-2.32485 10.21008,-1.77781 15.25,-2.84375 0,0.76042 0,1.52083 0,2.28125 z m 323.28125,0 c 1.4536,7.16962 -3.86057,15.6286 -11.75,14.59375 -7.42478,0.2521 -9.93226,-10.85101 -3.5,-14.03125 4.67479,-2.32037 10.21082,-1.77785 15.25,-2.84375 0,0.76042 0,1.52083 0,2.28125 z M 653.375,733.625 c -9.2471,-0.56478 -17.21345,7.95603 -15.71875,17.1875 3.65235,9.69402 -10.7451,1.33823 -7.5625,10.5625 4.70653,1.23097 10.07155,1.80345 7.5625,10.25 0,8.63542 0,17.27083 0,25.90625 7.76848,1.46639 11.99952,-0.60465 9.90625,-9 0,-8.63542 0,-17.27083 0,-25.90625 5.66432,1.25619 14.3032,-0.20465 9.34375,-6.25 -6.0201,0.61385 -11.57913,0.76663 -9.34375,-6.875 -0.70919,-6.02131 5.2595,-10.65996 10.96875,-9.0625 1.89899,-0.32619 2.07461,-8.4819 -2.25,-6.78125 -0.96875,-0.0141 -1.93745,-0.11362 -2.90625,-0.0312 z M 583.5,797.53125 c 7.76672,1.45422 12.04023,-0.58477 9.9375,-9 0,-17.95833 0,-35.91667 0,-53.875 -7.76672,-1.45422 -12.04023,0.58477 -9.9375,9 0,17.95833 0,35.91667 0,53.875 z m -185,0 c 6.98094,0.8976 12.789,0.62233 10.25,-8 1.16654,-5.02096 -2.43985,-14.81485 2,-16.5625 6.17708,0 12.35417,0 18.53125,0 2.76319,-8.95069 -4.3915,-7.9835 -11,-7.5625 -7.75321,1.57612 -11.45551,-0.89865 -9.53125,-9 -0.81166,-6.98875 -0.66596,-13.02013 8,-10.53125 4.60688,-1.5077 15.91994,3.69077 14.34375,-4 0.96891,-7.16683 -10.33611,-2.05972 -15,-3.59375 -5.50412,0.6938 -13.76793,-1.37209 -17.59375,1 0,19.41667 0,38.83333 0,58.25 z m 509.71875,0 c 5.27182,-1.13836 14.5666,3.36652 14.88041,-4.72671 6.26903,-18.17443 12.53806,-36.34886 18.80709,-54.52329 -6.76253,-0.74428 -12.98179,-0.75895 -12.91808,7.66432 -3.64424,14.30098 -9.69538,28.11295 -11.80067,42.67943 -5.23227,1.60476 -3.80784,-3.57713 -5.09375,-6.9375 -4.25531,-14.40521 -8.65689,-28.94803 -12.96875,-43.40625 -6.161,-0.10037 -14.6004,-1.83229 -8.80805,6.62703 5.96726,17.54099 11.93453,35.08198 17.9018,52.62297 z M 762.53125,746.125 c 0.58032,6.4449 0.99501,12.72418 -7.34375,10.25 -4.20606,10.07064 9.23668,2.49248 7.34375,10.25 1.0897,9.21533 -2.44816,19.66911 2.4375,28 4.16127,5.09991 11.82122,4.49202 17.59375,3.09375 -0.29237,-2.72262 1.44169,-7.29619 -2.625,-5.75 -6.81858,0.36101 -8.43503,-7.79366 -7.53125,-13.0625 1.16905,-4.9247 -2.44556,-14.63306 2,-16.28125 6.49264,3.77356 12.62342,-5.58657 5.15625,-6.25 -8.68291,2.63083 -7.42517,-4.679 -7.15625,-11 1.56326,-4.84914 -7.84877,1.22598 -9.875,0.75 z m -267.09375,9.15625 c -4.91612,0.21722 -9.75051,1.2467 -14.25,3.03125 -0.60604,4.41191 -0.16851,6.70211 3.90625,4.03125 6.13472,-2.1416 16.51364,-3.4857 19.03125,4.40625 0.82246,2.91533 0.97203,6.53576 -3.29496,5.63933 -8.13482,1.35 -20.90173,0.65608 -23.64254,10.57942 -2.41266,7.00766 2.41204,15.86551 10.3125,15.625 5.64982,0.69348 11.26108,-2.35877 13.6875,-7.53125 5.92896,-0.34562 0.86728,10.29938 10.28125,6.46875 5.03652,-1.0364 0.84841,-11.29742 2.21875,-16 0.17253,-8.61859 1.31918,-21.18921 -8.75,-24.90625 -3.03159,-1.11982 -6.26736,-1.43004 -9.5,-1.34375 z m 59.5,0 C 549.39395,755.10669 544.47008,758.70013 542,763.5 c -6.56246,1.09371 0.19671,-11.13421 -9.28125,-7.125 -7.56506,-1.25256 -2.44557,10.17943 -3.9375,15 0,8.71875 0,17.4375 0,26.15625 7.76672,1.45422 12.04023,-0.58477 9.9375,-9 0.92027,-8.16529 -3.05938,-19.76657 5.28125,-25.21875 5.94664,-3.97579 14.41145,0.70003 14.34375,7.875 0.48499,8.76194 0.0291,17.56713 0.1875,26.34375 7.76848,1.46639 11.99952,-0.60465 9.90625,-9 -1.09889,-9.89446 2.89117,-22.03635 -4.21875,-30.34375 -2.46555,-2.36291 -5.95736,-3.01379 -9.28125,-2.90625 z m 281.1875,0 c -12.18473,-0.003 -20.93902,12.10797 -19.53125,23.6875 -0.52671,10.22103 7.99021,19.77449 18.5,19.5625 5.72464,0.30963 11.62431,-0.1269 16.78125,-2.5 0.54534,-3.98639 0.51574,-6.7415 -3.5625,-4.21875 -7.71143,2.23953 -19.465,1.31379 -21.53125,-8.125 -1.88858,-4.63247 1.0442,-5.7022 5.59375,-4.78125 7.82292,0 15.64583,0 23.46875,0 1.14555,-9.49098 -2.79275,-21.42941 -13.40625,-23.125 -2.04154,-0.43421 -4.15877,-0.59074 -6.3125,-0.5 z m -368.8125,0.3125 c -4.98067,-0.0431 -8.56564,4.60299 -9.75,9.15625 -7.61242,1.977 0.84179,-12.11262 -8.53125,-8.375 -8.53892,-2.22642 -3.6765,8.9485 -4.9375,14 0,9.05208 0,18.10417 0,27.15625 7.76672,1.45422 12.04023,-0.58477 9.9375,-9 0.14089,-7.9272 -1.93909,-19.6415 6.84375,-23.96875 2.70221,-1.23555 5.84992,-1.23184 8.6875,-0.53125 -1.09464,-2.29499 2.45856,-9.90319 -2.25,-8.4375 z m 279.15625,0 c -5.15043,0.0555 -8.43582,4.55736 -9.71875,9.15625 -7.65913,2.0133 0.81978,-12.11144 -8.5625,-8.375 -8.53892,-2.22642 -3.6765,8.9485 -4.9375,14 0,9.05208 0,18.10417 0,27.15625 7.76672,1.45422 12.04023,-0.58477 9.9375,-9 0.12917,-8.02225 -1.96061,-20.20448 7.34375,-24.15625 2.56709,-1.06681 5.52425,-0.99692 8.1875,-0.34375 -1.10915,-2.28517 2.48278,-9.92498 -2.25,-8.4375 z m -149.0625,20.59375 c 4.57292,7.11458 9.14583,14.22917 13.71875,21.34375 6.17766,-0.0263 15.80877,1.7101 7.58097,-5.6689 -3.93154,-5.4345 -7.87679,-10.85913 -11.79972,-16.29985 4.88432,-6.39667 9.77102,-12.79153 14.65625,-19.1875 -6.14987,-0.0265 -13.20179,-1.70617 -15.19437,5.88644 -2.98729,4.64202 -5.97459,9.28404 -8.96188,13.92606 z m 70.4375,5.375 c -0.66651,7.5567 3.27288,17.15317 12.03125,17 5.9955,0.87345 11.66403,-2.72506 14.4375,-7.90625 6.09384,-0.37509 0.68875,10.74875 10.28125,6.875 6.05504,-0.23662 1.42619,-11.15714 2.875,-16 0,-8.38542 0,-16.77083 0,-25.15625 -7.77025,-1.47858 -11.9588,0.62453 -9.875,9 -1.07804,8.04485 3.0956,19.34181 -4.75,25.03125 -5.69366,3.99219 -14.7589,0.2456 -14.90625,-7.03125 -0.49949,-8.97829 -0.0184,-18.00557 -0.1875,-27 -7.76848,-1.46639 -11.99952,0.60465 -9.90625,9 0,5.39583 0,10.79167 0,16.1875 z m 168.75,-20.90625 c 7.00045,-0.87422 11.33621,6.43604 10.3125,12.71875 -4.01824,2.31509 -12.3197,0.34697 -18,1 -5.08146,1.32475 -1.94637,-5.04306 -0.9375,-7.71875 1.69132,-3.11958 4.80518,-5.88744 8.625,-6 z M 504.5625,778.125 c 1.46722,7.17023 -3.87312,15.63593 -11.75,14.59375 -7.78776,0.28035 -9.94229,-11.69158 -2.84375,-14.34375 4.58257,-1.9135 9.76697,-1.55426 14.59375,-2.53125 0,0.76042 0,1.52083 0,2.28125 z m 367.3125,10 c -5.52543,-0.42554 -7.72076,7.70427 -2.5625,9.875 4.54679,2.61552 11.70853,-1.85736 8.78125,-7.15625 -1.24954,-2.13365 -3.82257,-2.99736 -6.21875,-2.71875 z m 84.875,0 c -5.38452,-0.39469 -7.73128,7.49083 -2.71875,9.75 4.72503,3.11062 12.48896,-2.28687 8.5625,-7.59375 -1.35342,-1.76531 -3.69618,-2.38051 -5.84375,-2.15625 z"
       id="text3061"
       inkscape:connector-curvature="0" />
    <path
       transform="translate(0,308.2677)"
       style="color:#000000;fill:none;stroke:#000000;stroke-width:1;stroke-linecap:butt;stroke-linejoin:miter;stroke-miterlimit:4;stroke-dashoffset:0;stroke-opacity:1;marker:none;visibility:visible;display:inline;overflow:visible;enable-background:accumulate"
       d="m 581.60712,218.11234 1.69643,0 0,0.89285 -1.69643,0 z"
       id="rect3073" />
  </g>
</svg>
