<?xml version="1.0" standalone="no"?>
<!-- Optimiert mit SVG2BMP.EXE 1.A.0 von jb: -->
<!-- Original-Datei : 1278 Moves + 0 Linien + 3250 Kurven + 3062 Flaechenraender = 7590 Befehle -->
<!-- Ohne Flaechen  : 641 Moves + 0 Linien + 3250 Kurven = 3891 Befehle -->
<!-- Nach Begradigung: 641 Moves + 3942 Linien = 4583 Befehle -->
<!-- Nach Verkettung: 641 Moves + 3677 Linien = 4318 Befehle -->
<!-- Nach Ecken-Zus.: 638 Moves + 3677 Linien = 4315 Befehle -->
<!-- Nach Optimierung: 662 Moves + 3383 Linien = 4045 Befehle -->
<!-- Nach Sortierung: 652 Moves + 3383 Linien = 4035 Befehle -->
<!DOCTYPE svg PUBLIC "-//W3C//DTD SVG 1.1//EN" "http://www.w3.org/Graphics/SVG/1.1/DTD/svg11.dtd">
<svg version="1.1" width="1359.0" height="1397.0" viewBox="0.0 0.0 1359.0 1397.0" xmlns="http://www.w3.org/2000/svg">
<path fill="none" stroke="black" stroke-width="0.7" d="
	M420.2,342.8M260.4,18.1l-1.9,4.9l-13.3-4l1.8-4.9l13.5,4M368.1,16l-9.6,0.6M281.8,17.5l1.8,0.2l0.2,0.4l-1.5,0l-0.1-0.5l-0.5-0.1
	M344.2,17.5l7.5-0.3M325,18.4l5.4-0.3M323.8,18.7l-2.1,0M288.1,19l6.9,2.4M299.7,22.5l0.7-3.1l0.6-0.3l13.1,0.2l-14.4,3.2
	l-0.4-0.1l16.2-1.2l5.4-0.3l-2.1,0.6l2.1,0.6l-2.4,83.3l-16,2.7l0.2,33.4l13.2-0.4l-0.6,13.8l-16.8,2.4l0-7.5l-0.6,7.8l1.5-132.2
	l0.6,7.2l0.6-8.7l-0.3-0.3l-0.7,0.8l0.3-1.8M299.5,44.2l0.3,3.6M416.4,53.2l0,3.6l-6,0.6l0-4.2l6,0M411.3,54.1l-0.9,3.3l5.1-1.2
	l-0.6-2.4l-3.6,0.3M403,58.9l-4.8,0.3l-0.4-4.2l6.1,0.3l-0.9,3.6M403.9,55.3l-5.2,1.4l-0.4,2.5M191.3,60.7l-1.8-0.3l1.2-0.6
	l0.6,0.9M284.8,64l1.5,11.4M182.9,64.6l-5.1,1.2M272.1,65.3l0,4.6l-7.9,0.6l-0.6-4.5l8.5-0.7M228.2,66.4l-4.5,1.5l-1.3-0.3
	l2.5-0.3l0.2-0.1l-0.2-0.2l3.3-0.6M187.4,66.7l2.1,0l1.2-0.2l-3.3,0.2M252.4,67l0.4,4.2l-8.7,0.5l-0.1-4.5l8.5-0.1
	M222.5,68.2l-3,0.6M414.4,69.5l-0.6,18.3l-14.8,1.9l0.6-18.1l14.8-2.1M224,69.4l-2.4,0.9M204.8,72.4l2.7,0.6M286,76l3.6,36.9
	M383.4,77.6l-0.4,16.5l-13.5,1.3l0.2-16.6l13.8-1.2M268.3,79.7l0.1,25l-19.2,1l-0.1-24.7l19.2-1.3M121.5,89.1l0,2.4l-8.7-2.1
	l3.4-1.9l5.3,1.6M116.1,89.1l3.9,0.6l-0.2-0.1l0.2-0.4l-3.9,0M298.3,99l0.3,3M298,106.5l0,7.8M198.7,110l1.3,19.8l-14.4,6.3
	l-9-17.5l22-8.5M155.7,117.5l-1.3,13.6l-5.8-6M155.7,117.5l-7.5,1.9l-0.3,5.4M169.3,122.1l-10.9,15.6l-1.5-8.2l1.8-12l10.6,4.6
	M158.7,117.5l-0.3,20.2M298,118.2l0.3,12.3M144.4,120.3l1.2,3.3l-5.2-0.3l0-1.8l4-1.2l-2.8,2.1l4,1.2M290.2,120.6l3,27.9
	M427.5,120.9l1.2,4.5l-1,3.6l-9.9,1.6l0.5-7.8l9.3-1.9M427.6,129l-0.2-6.6l-9.3,0.4M171.7,125.9l7.2,13l-17.5,7.2l-0.9-6.3
	l11.2-13.9M128.1,133.8l-1.4,1.4l-0.3-0.3l1.8-1.2M125.7,135.9l-3.9,4.8M282.9,138.6l-0.2,5.7l-14.8,1l-0.8-5.8l15.7-0.9
	l-14.2,0.9l-0.7,5.8M298,138l0.3,4.2M62.2,142.2l0,3.6l-7.5-2.2l-1.5-2.5l9,1.2M54.4,141.6l0.3,2l4.8-1.4l-5.1-0.6
	M58.3,144.3l-3.6-1.2M59.8,144.9l1.2,0l-0.3-1.2l-1,0.6l0.1,0.6M122.1,141.9l-1.2,1.2M99.6,144.3l1.5-1.8M406.5,144l6.6,4.7
	l-0.2,13.2l-5.7,12.3l-7.2,4.8l-7.9-2.1l-3-10.2l1.3-15.2l10.6-7.5l5.7,0M390.3,156.6l19.2-9.3l-6.5-4.6l-7.7,5.8l-4.9,8.1
	M390,157.8l20.4-9M410.1,168.3l3.5-13l-2.6-4.4l-19.2,9l-1.3,11l4.6,4.6l15-7.2M393.9,176l-5-9.4l1.7-7.1l-0.9-0.6l0.8,11.9
	l3.4,5.2M407.7,170.1l-12.6,8.1l8.1,0.4l5.3-8.5l-0.9,0M297.7,145.8l0.3,3M104.4,147.6l-0.3,2.7M118.8,147.6l-1.8,9.3
	M287.5,153.4l-19.6,1.5l-0.2-5.1l19.8-1.2l0,4.8M87,150.3l0.3,3.9l-8.1-1.2l0-3.9l7.8,1.2M80.1,150l4.2,0.6M83.7,152.7l-3.9-1.2
	M84.9,152.1l0.2,0.8l0.7,0.4l0-1.5l-0.9,0.3M86.4,161.8l-12.7,9.6l-34.2-11.8l7.8-10.5l39.1,12.7M360,149.4l-0.3,0.7l-1.3,0.1
	l-0.2-0.5l1.8-0.3M93.3,151.8l-0.6,6.6M96.9,151.8l0,4.5M409.2,152.1l1.2,0l-1.5,0.9l0.3-0.9M375,155.4l-18,3l0.6-2.7l16.8-2.7
	l0.6,2.4M370.2,154.8l-11.7,2.7l15.3-3l-3.6,0.3M354.3,156.9l-5.1,20.4l-4.3,0.4l5.5-21.1l3.9,0.3l-6.3,18.9M346.8,174.1l1.2,1.7
	M350.7,161.1l-3.9,13M354.3,156.9l-2.5,0.9l-1.1,3.3M344.9,177.7l2.2-0.4l-1.2-1.8l-1,2.2M400.5,156.6l-8.1,5.4l-0.5-0.3l-0.1-1.8
	l8.7-3.3M347.8,157.8l-6.3,21.3l-3.3-0.4l6.6-21.1l3,0.3l-6.6,19.2M340,175.2l1.2,1.8M342.1,168l-2.1,7.2M347.8,157.8l-2.4,0.6
	l-3.3,9.6M338.2,178.6l2.1-0.4l-1.2-1.8l-0.9,2.2M340.4,159l-6.4,21l-3.3-0.4l6.9-21.1l2.8,0.6l-6.4,18.6M332.9,176l1,1.5
	M338.2,159.3l-5.2,16.8M340.4,159l-2.2,0.3M330.7,179.5l2.4-0.4l-1.2-1.8l-1.2,2.2M135.9,159.9l4.2,0.9l-3.3-0.6l-0.9-0.3
	l-0.3,0.9l-1.5-1.5l0.3,2.4l-7.5,15.6l2.4-13.5l-3.9,15.3l-6.6-11.1l4.5,9.3l-6.8-12l0.2-15.6l0.2,17.1l1.2-3l-0.9,0.3l0.4,1.5
	l-0.7,1.2l-3.3,1.2l3,3.3l-5.1-1.5l-3-10.5l2.1-0.9l-10.2,0.6l0.6-11.4l-1.8,11.7l0-9.3l-1.2,9.3l-2.7,0.3l0.3-8.7l17.1-17.4
	l32.7-20.7l1.8,4.2l10.3-3.1l-9.1,1.9l50.3-27.6l3.3,44.1l-18.6,7.2l-10.6-18.6l-15.3-7M253.1,169.2l-0.6,3l-0.3-0.4l0.2-0.9
	l-0.2-0.1l-3.3,5.7l0.8,0.1l0.1,0.8l-0.7-0l-0.5-0.6l0,5.1l4.2,6.9l-5.4-5.7l14.7,20.1l-3.6-6.9l4.5,6.3l7.2-5.2l-7.5,7l-6.9-0.7
	M244.4,183.2l11.4,20.2l-8.5-6.2M244.4,185.9l2.9,11.3l9.1,6.1l-12-17.4M145.2,164.8l-0.8-1l-0.4-0.9l1.2,1.9l-10.5-3.7l1.2-1.2
	M365.7,162.9l2.1,2.4l-12.3,2.1l0-2.1l10.1-2.4M141.9,162.9l0.3-1.2l0.9,1.2l-1.2,0M372.9,164.1l-0.3,3.3M242,164.4l2.4,0.9
	M303.4,164.4l-6.6,0.3M242,166.8l0.5-0.4l1.3,0.7l-1.5,0.3l-0.3-0.6M370.5,166.5l0.6,3.6M392.1,166.8l0.9,3.3M89,168.3l-1.5,20.4
	l-12.1-1l0.9-11.2l12.7-8.1M147.9,168.3l-4.5,5.1l-0.9-1.2l5.4-3.9M328.6,168.3l0.9,2.7l-14.1,1.8l0-2.4l13.2-2.1
	M316,171.9l12.3-2.1M361.2,171.6l-1.3,1.9l-7.3,1.7l0.6-3.3l8.1-0.3M353.4,173.7l0.3,0.6l6.1-0.8l0.1-1.6l-6.6,1.8
	M393,171l1.2,2.1M251,172.8l0.9,0l-1.8,2.7l0.9-2.7M364.2,172.8l0.6,4.5M163.8,175.7l0,1.2l-1.8-0.6l0,0.7l2.4-0.6l-1.6,1.7
	l-0.8,0.6l-1-1.2l1.3-2.1l1.6,0.3M326.5,176.3l0,0.7l0.6,0.8l-5.2,1.8l-5.6,0.3l0.9-2.7l9.3-0.9M317.5,178.7l4.4,0.9l4-2.1
	l-8.4,1.2M56.2,186.8l1.8,0.9M196.1,187.4l0.9,1.5M390.3,198.8l2.4,15M81.3,200.3l-1.5,0.3l-0.1-0.5l-1.1-0.4l2.7,0.6
	M95.1,200.3l0,2.7M93.3,200.6l-0.3,3.6M89.7,202.1l0,2.7M320.3,201.5l3.1,0.9l0.3,0.6l-0.4,0.4l-3-1.9l-0.2-1.8l6.7,2.1l-8.5-1.6
	l1.3-2.3l11.2,3.1l-10.5-4.8l17.4,6.6l-13.2,29.4l-5.3-6.1l-7-0.2l-6.6,0.6l4.8-10.5l-7.8,12.6l17.1-33l-1.3,4.6l3.7,2.5l-1.6-1.2
	M99.9,215.9l1.5,0l-0.4,0.8l-1,0l-0.1-0.8M204.8,216.8l0.9,0l0.3,1.8l-1.2-1.8M89.4,219.8l-2.4,0.9M207.5,242.9l1.8,0.9l-1.9-2.2
	l0.1,1.3M411.3,251.6l0.6,0.3l-0.6,2.1l-0.6-0.4l0.6-2M410.4,255.2l0.9,1.2l-1.2,0l0.3-1.2M410.1,257.3l-1.5,7.5
	M407.7,267.1l0.9,0l-0.9,1.5l0-1.5M299.5,269.8l0.9-0.7l-2.4,1.9l1.5-1.2M407.1,271.6l-0.6,4.5M404.4,286l1.5,6.6
	M182.3,319.3l0.9-6.3M181.4,321.1l0.2,1.7l-0.5,0.1l0.3-1.8M180.2,328l-2.7,12.9M308.2,329.2l1.5,0l-0.2,0.5l0.2,0.1l-4.2,0.3
	l2.7-0.9M316.3,334.9l1.2,4.8M390.9,335.5l-1.5,7.2M192.8,337l2.4-1.6l0,2.8l-2.4-1.2M176.3,342.7l0.9,0l-0.9,1.2l0-1.2
	M401.7,346.3l4.2,0l-0.8,0.8l-3.3-0.8M426.9,346.3l-1.5,0.9l-0.3-0.6l1.8-0.3M229.4,346.9l-3.3,0.6M329.8,346.9l0.5,0.4l-1.7,0.8
	l1.2-1.2M423.9,347.2l-0.2,0.5l0.2,0.1l-1.8,0.3l1.8-0.9M414.6,348.4l6.3-0.6M282.1,348.1l0.7,0l-1.3-0l1,0.9l-0.4-0.9
	M284.5,349.3l0.6-0.4l1.5,0.7l-2.1-0.3M174.8,349.6l0.4,0.3l-0.7,1.2l0.3-1.5M288.1,350.8l2.2-0.3l-2.8-0.3M290.3,350.5l1.7,1.2
	l-3.9-0.9M295.3,351.7l3.9,0l-0.1,0.2l-0.2,0.1l0.1,0.2l0.2,0.1l-3.9-0.6M307,352.9l7.5,0.3M232.7,354.4l0.9,3M328,354.7l0.3,3
	M370.5,357.4l-0.3,2.7M378,359.7l8.1,3.6M328.3,362.7l0.3,2.7M441,365.7l-7.5,2.4M445.4,368.1l1.8-1.3l-1.5,4.3l-0.3-3
	M250.1,375l0.6,2.7M445.7,375l0.6,0.1l0,2l-0.6-2.1M247.7,378l0.6,4.2M446,379.2l0.6,2.1l-1.4,2.1l0.8-4.2M250.4,379.5l0.6,3.6
	M248,383.1l0.6,2.7M151.8,395.4l-0.6,2.4M198.5,407.1l-1.2,1.2l-2.7,0l3.9-1.2M199.1,408l0.6,0.4l-0.3,1.9l-0.3-2.4
	M179.9,409.2l-4.2-0.6M204.2,418.8l-1.2-4.2M188,436.5l4.2-0.3M110.1,217.7l-0.6,2.7l0.4-0.5l0.8-2.2l-2.1-1.8l-40.8,13.5
	l-2.8,4.7l-13.3,0.7l-1.3-5.5l5.1-5.6l8.2-1.9l2.4,1.2l16.5-5.4l-6.6-3.3l-9,0.8l-21.5-8.3l-13.6,4.2l-7.6,7.5l-10.6-0.8l-2.9-3.9
	l1.4-2.8l9.2-6l5.8,1l12.6-4.5l-7.6-4.2l1-18.9l-1.8-1.2l0.9-15.6l15.3-18.9l-5.1-0.3l-40.1,25.3l-1.4-0.9l-0.2-3.7l38.7-24.9
	l0.9-3.3l9.3-7.8l-12.8,5.7l-3.9-3.3l5.7-2.1l0.9-1.8l17.1-9.9l8.4-8.7l1.8-5.4l16.6-17.5l3.4,0.4l31.2-20.7l3.2,1.5l-0.2,1.2
	l49.4,12.3l6.3-36l55.4-19l3.3-1.6l8.1-18.6l89-3.6l56.6,15.3l0.3,16.8l48.2,20.1l-3.9,79.9l-26.7,7.3l6,9.2l5.9,61.8l-2.5,2.1
	l2.1,30.3l4.4,8.3l-0.8,15.1l3.6,26.7l11.7,20.4l-2.4,5.7l3.9,9.9l1.6,9.2l-2.5,3.7l-6.3,1.5l0,2.4l14,7.3l3.6,5.6l0.5,25.8
	l-1.1,2.7l3.6,6l-10.6,1.8l-8.2-1.8l-39.9-3.6l-8.7-2.7l-11.2-0.4l-8.2-4.3l3.9-3.6l-2.8-5.6l3.7-22.9l5.8-5.3l10-1.9l3.6,3.3
	l6.3-15.6l8.1-8.4l-5.1-3.9l-9.7,9.4l-4.1,14.2l0.6-8.9l10.2-14.7l2.6-12.3l1.3-1.8l-3.9-26.4l-5.5-6.7l-10.4-87.4l-29.4-0.9
	l-9,21l-3.6-0.3l-13.8,30.6l-1.1,9.3l-2.5,7.8l-2,32.1l2.3,1.7l2.7,19.8l6.7,11.3l0.2,5.2l-3.7,3.4l-6.8,2.6l12.5,10l2.5,10
	l0.2,12l-1.8,9l-3,2.4l3.6,3l-3,3.6l-4.5-0.4l-7.8-1.7l-26.8-1.4l-21.5-6.7l-10.2,0.5l-6.3-2.6l-0.5,16.6l-2,4.3l-5,4.5l3.3,7.2
	l-8.8,1.2l-7.6-3.3l-15.1,0.8l-1.9,8.8l6.3,8.4l2.4,7.2l6.5,5.6l0.6,3.7l-4.8,3l-0.5,10.9l-6.6,9.1l-7,4.3l2.1,5.7l-10.5,0.9
	l-8.1-2.4l-24.3,0l-17.9-5.4l-7.3-4.5l-12.2-1.9l-4.9-1.9l-1.2-4.3l9.3-3.6l5.4-21l-1.8-10.5l2.4-3.9l1.8-9.3l5.9-13.4l6.4-6.7
	l7.2-24.3l4.8-0.9l9.3-38.7l-1.5-4.5l1.6-13.2l26.6-52.1l-5.7-20.7l-2.4-1.3l-11.5-44.4l-27.1,19l-1.3,14.7l-4,6.1l-6.1,4.3
	l-4.5-0.4l-2.7-2.7l-23.4,6.3l-4.7,6.5l-5.8,3.4l-0.4-3.6l6.1-6.6l-10,0.5l-9.8,2.5l-0.6-2.1l14.1-6l3.3,0.9M343.6,4.3l-17.7-3
	l-78.8,3.9l22,7.2l85.2-5.1l-10.8-3M258.1,10.3l-14.1-3.9l-6.6,15.3M244.1,6.4l53.2,16.3l-1.9,134.7M297.3,22.8l-25.9-9.4
	l-0.3,0.2l1.2,0.4l-14.1-3.6M251,26.2l25.8,8.1l-2.4-0.9l5.1,1.8l-1.2,0.3l2.8,0.6l1.9-2.1l-1.3,1.9l-0.6,0.2l13.3-11.4l-50-16.5
	l-5.4,12.9l4.5,1.8l-4.2-0.3l11.7,3.6M295.9,19.9l89.9-3.9l-24.9-7.5l-82.4,3.6l6.3,2.7l-10.2-2.1l23.4,6.6l-2.1,0.6
	M379.8,18.4l5.1-0.6l-17.7,0.9l0.6,0.5l-0.9,1.3l-2.1,79.4l18-1.3l-0.9,32.2l-12.6,2.4l-0.3,13.5l16.8-3l2.4-126.2l-8.4,0.9
	M345.1,19.3l-2.4,83.3l21.3-2.7l2.1-80.3l-0.9-0.3l0.9-0.7l-21,0.7M321.4,21.1l5.1,0.6l-5.1,0.3l-1.8,83.3l21.9-2.7l2.4-83
	l-22.5,1.5M283,25.6l-2.2,4.8l-14.5-4.6l2.1-4.8l14.7,4.6M212.6,54.5l-25.2-10l10.9-4.6l26.8,9.9l-12.6,4.8M255,39.8l0.7,1.1
	l-22.3,7.2l-6.3-2.5l20.5-8.1l7.4,2.3M294.7,27.1l-2.7,2.1M311.8,22l5.7-0.3M338.5,20.8l4.8-0.3M233.4,48.1l20.2-8.1l-6-2.5
	M358.8,19.9l3.9-0.3M179.3,43l54.2-20.4M236,22.6l-1.5,1.5l-53.6,20.7l31.2,12.6l1.5-1.5l17.7-5.7l-7.2-3.3l-1.8,0l-18.9-8.4
	l28.8-14.5l7.7,2.3l39.3,11.5l2.1,39.7l3-0.3l-5.1-39.4l-43.2-15.1M236,25.6l-32.7,12.9l29.1,11.1l37.8-12l-34.2-12
	M292.9,151.2l0.9,6.3l1.8-131.6l-13.8,12l5.4-3.9l-3.9,3.9l1.2,18.9l-2.4-18l10.5,112.4l0.5-1.4l0.4,0.2l-0.2,1.2l-0.4-0
	M390.3,33.4l-0.9,0.9l-2.7,109.7l47-11.8l0-13.6l-16.2,2.1l-6.9,10.8l-21.1,3.6l1.1-101.6l-0.3,0M395.4,35.2l-3.3-0.9l45,17.1
	l-41.7-16.2M392.1,36.1l-2.5,98.9M417.6,120.6l15.6-4.6l4.5-63.7l-45.5-17.1l0,0.9M265,40.6l-49.7,16.8l60.8-18.9l-11.1,2.1
	M215.8,77.4l4.6-2.4l-5.1,2.4l0.5,0.5l2.2-0.2l-2.2-0.3l-0.5,2.4l2.1,1.2l-2.4,0.9M217.4,81.1l-2.1,1.8l-1.5,73.1l49.9-3.4
	l0.4-4.5l24.6-3.1l-12-105.2l-61.2,21.3l0.3,0.9l30.9-9.3l-30,9l-0.1,0.5l-1.2-1.1l0,2.1l4.5,0l-4.5,2.4l22.8-6l-22.8,7.8l8.7-1.5
	l-8.4,2.8l-0.3,1.1l3.9-0.3l-4.2,1.5l0.9,0.9l4.2-0.6l-5.1,2.7l6.6-0.9l-6.6,2.7l0.9,0.5l-0.4,1.2M176.6,45.1l-3.9,34.2l5.7-30.6
	l33.3,11.1l-2.4,99.9l-5.1-0.7l6.9,3.3l0.6-102.5l-35.1-14.7M178.1,52.3l4.5-1.2M184.7,55.6l0-1.8l-6.9,1.2l-0.3,1.8l7.2-1.2
	M181.4,57.7l3-0.8l-0.3-1l-6.9,2.4l4.2-0.6M176.9,61l2.7,0.3l-3,1.4l-0,0.4l7.2-1.8l0.4-1.9l-4.9,1l5.1-1.2l-0.2-0.2l0.1,0.3
	l-6.4-0.1l0.1,0.1l-1.1,0.9l0.1,0.8M179.9,54.4l-0.6-0.3l5.7-1.2l-7.2,1.5l2.1,0M182.6,77.8l1.2,4l-0,0.2l4.3-23.8l4.9,1.3
	l-1.2,24.3l1.5-0.3l2.1-22l6.3,1l0.8,23.9l0.1,0l1.5-23.4l5.7,1.8l0-3.3l-24-9.3l-3.3,25.5M213.5,58.6l-1.2,104.3l9.9-0.6l0.3-6
	l-8.7-0.3l0.6-98.3l-0.9,0l0,0.9M188,61.3l3.6,0.9l-0.1-2.1l-3.4-1.9l-0.2,3.1M200.6,63.4l-4.8-1.8M190.7,66.5l0.6-1.3l-3.4-1.5
	l3.7,0l-3.6-2.1l-1.2,6.6l1.5,0.3l-0.3,0.2l-1.3,0.7l0.1-0.3l0.1,0.5l0.8,0.7l-1-0.9l-2.9,12.4l6.6,1.4l0.9-18M187.9,63.7l2.8,2.8
	M176.7,62.7l-2.4,17.1l7.2,1.2l0-8.4l1-0.3l0.4-2.4l-1.9,0.9l2.1-1.3l-0.1,0.4l-2.2-1.5l2.4-1l0.3-0.1l-4.2,0l3.9,0.1l0.6-4.9
	l-6.9,0.2M195.8,64l4.8,2.2l-5.1-4.8l0.3,2.5M196.1,64.6l-0.7,4.2l4.3,0.9l-4.2-0.9l-0.1,0l2.5,2.3l-2.7-0.3l1.2,2.1l-1.2,0
	l-0.9,11.1l5.7,0.6l2.7-16.7l-6.6-1.6l4.5-0.1l-4.2-1.6l0.2-0.1l-0.5,0.1M204.8,64.9l5.4,1.5M88.5,84.9l30.3-20.1
	M204.8,65.8l5.4,2.1M116.7,69.7l3.3-2.1M204.5,72.8l0,1.6l2.4,0.6l-2.4-2.2l-1.9,13.6l7.2,7.5l0.3-22.8l-2.7-1.2l2.7,0.3l-5.7-2.4
	l-1.8,0.1l1.8,1.1l3.3,0.6l-3.3,0l4.5,2.4l-4.5,0.8M138.3,72.1l-16.5-4.2l-12.6,7.2l21.4,6.5l13.1-8.3l-5.4-1.2
	M148.6,74.3l-18,7.3l-2.8,0.4l-8.4,1.8l-2.5-1.3l1.9-2.2l-11.4-3l0-1.5l-5.7,3.9l44.5,12.4l3.8,5.3l-7.8,5.4l5.4,6.9l27.6-15
	l-22.6-5.1l2.1,1.8l-5.5-0.6l1.5-2.4l-15.6-4.6l13.8-9.1l-0.1-0.2l-13.6,9.3l17.4,4.3l14.7-9l-18.4-4.6M117.3,78.7l1.2-0.2
	l-3.3-0.7l0.3-0.1l0-0.2l-7.2-0.9l9,2.1M281.8,82.8l3,0l-0.6-5.1l-2.4,0.5l-0,4.6M185.3,82.8l-17.1-3.6l-13.2,8.1l23.4,6l14.4-8.1
	l-7.5-2.4M100.2,80.2l-7.9,7.9l3.4-1l11.7-5.4l-7.2-1.5M116.9,82.4l7.4,0.9l1.4-1.6l-6.6-0.5l-2.3,1.3M116.4,84.6l-8.1-0.9
	l15.3,4.6l1.3,4.3l8.1,3.6l10.3-4.8l-27-6.9M108,83.7l-11.1,3.6l36.1,9l0.7-0.9l-8.8-2.7M123.6,88.4l-15.6-4.6
	M282.1,83.7l2.1,23.4l2.7-2.1l-1.8-21.3l-3,0M133.2,99l-34.5-9.9l1.5,1.8l25.3,7.6l-5.6,4.3l-32.7-9.3l8.1-5.1l-12-4.3l-15.4,18.4
	l44.1,13.5l9-5.4l0-1.2l15.3-9.9l-3-0.6M167.3,103.8l-0.3-0.1l-0-0.2l31.8-16.5l-3-2.4l-49.7,27.3l2.4,1.5l18.9-9.6
	M203.9,143.4l5.4-5.7l0.6-39.3l-4.7-8.6l-5.5-3.7l4.2,57.2M156.3,89.1l-0.2-0.8l-1.9-0.1l2.1,0.9M258.2,164.4l-1.5-0.6l-9.5,7.7
	l7-7.3l6.8-2.6l3.6,2.5l-5.3-0.5l14.4,19.2l-1.2-12.6l-7.9-6l4.6,2.5l4.2,8.7l0.7,11.7l-2.4-5.3l-11.5-15.7l-2.2-0.1l-5,3.4
	M150.7,90.6l3.9,0.6M93.6,91.5l-1.5-0.2l0.3-0.4l-1.5,0.3l2.7,0.3M94.5,93l-4.5-1.2l-2.8,1.8M125.5,98.6l-27.4-7.3l-2.4,1.8
	l-1.2-1.8l0,1.8M145.5,92.1l-12.6,5.4l8.7,4.8l8.4-5.1l-4.5-5.1M382.8,98.6l-4.2,0.4l-0.9,31.8l4.2,0M370.5,99.9l-0.9,32.4
	l6.9-0.9l0.9-32.1l-6.9,0.6M302.5,141.4l12.9-1.3l1.3-3.3l51.7-7.8l0.6-29.1l-66.7,8.1M137.7,100.2l-23.7,16.5l-1.8,16.5
	l34.5-23.1l-9-9.9M62.2,117.9l47.3,15.3l1.2-6l0,6l1.5-16.2l-36.3-10.8l-0.3,0.2l0.2,0.7l-0.5-0l-8.4-3.6l-4.8,14.4
	M284.4,108l-0.2-0.9l3.3,1.2l-0.3-2.1l-2.8,1.8l2.8,29.4l2.7-0.3l-2.7-27.6l-2.8-1.5M43.6,142.2l4.5-2.1l16.2-31.2l-0.6-0.3
	l-0.9,0.3l-14.4,21.6l-7.5,6.3l2.7,0l0,5.4M252.8,167.7l5.4-3.3M92.3,88.1l3.4,2.8l-0.4-2.4l-1.9-0l-1-0.4M161.4,89.7l-1.2-0.6
	l-3.4-0.1l3,0.7l-0.2,0.3l1.8-0.3M115.4,140.4l8.7-10.4l10.5-4l2.7,0l10.6,3.9l5.6,4.5l5.1,13.2l0.6,8.7l3.9,0.3l22.6-9.3
	l-1.6-7.5l-24.6,9.6l22.5-9.3l-9.1-19.2M244.7,182.3l8.1-14.7M247.2,171.4l-2.5,10.9M42.1,125.1l1.2,3.6l9.1-5.7l2.6-5.1
	l-12.9,7.2M108.9,133.8l-47.6-15l-10.8,16.8l12.3,4.6l2.8-5.4l-5.5-1l5.4-8.2l29.8,10.5l-4.3,7.6l-6-1.5l-2.7,4.2l11.7,3l3.3-3
	l-2.7,3.9l14.4-14.7l-2.7,1.2l2.7-3M65.5,125.6l-4.2,6.7l4.3,2.5l-0.8,2.8l3.3,1.5l4.8-3.6l-2.7,1.8l9,0.6l-2.4,3.6l3.9,1.5
	l3.9-3.6l5.4,1.8l5.2-5.2M356.7,166.5l9.6-2.4M260.2,203l-15.9-19.8M255.7,203.5l4.5-0.5M274.2,186.8l-4,10.3
	M241.8,182.6l5.4-11.2M247.3,197.2l-5.4-14.6l2.1-12.4l8.6-9.1l8.5,0.4l7.1,0.3l4.4,8.2l4.4,14.8l-0.8-15.1l-1.3-0.4l-0.8-9.2
	l-0.3,6.3l-6.6-6l2.7-0.3l0,1.8l1.5-2.1l4.2,0l0,9.3l1.2-9.9l1.5,16.2l0.6-16.2l1.2,7.5l1.7-7.5l1.4,5.7l1.2-4.8l0.6,1.5l1.5-2.4
	l-4.7-0l-0.5,0l0.4,17.2l4.7,8.3l6.6,5.7l-2.4,1.2l4.8-0.3l-23.1,8.4l10.5-4.5l-8.7,2.4l2.9-12.7l-6.5,16.3l-9.9,5.4l-8.4-1
	l-9.9-11.1l-0.4-12M188.9,138l-3,1.2l-0.1,8.1l-22.9,10.5l12.8,8.6l2.6,10.9l-6.4,2.6l-5.4-1.7l-8.1,4.2l-7.3,7.3l-6.2,1.1
	l-0.6,2.7l-6.9,7.8l21.6-7.8l34.5-24.6l0-4.2l-2.4-1.2l0.3-14.7l9.8-5.7l1.3,1.2l-4.5,2.7l3.7,1.3l-0.7,4.8l-4,0.8l0.6-6.6
	l-6.3,1.5l2.4,14.4l9.9-4.5l-2.1-25.8l-9,3.9l2.4,2.6l-2.7,4.5l-1.9,0l-1.5-6M48.1,144.9l46.2,14.7l0-8.1l-12.9-4.2l-1.2-3.6
	l-5.1-2.4l-0.3-1.2l-5.1-1.8l-1.5,0.9l-3.9-0.6l-1.5,1.6l-13.2-3.4l-1.5,8.1M92.7,139.8l1.5-2.4M31.6,145.2l0.9,1.5l9.6-5.4
	l1.7-2.2l-0.8-1.4l-11.4,7.5M189.8,140.4l1.2-2.7M191,142.8l2.5-1.1l0.5-3.1l-1.7-0.4l-1.3,4.6M287.8,144l0.9,0.9l1.2-6.9l-2.7,0
	l0.6,6M75.6,139.5l0.6,0.9l0.9-1.5l-0.6-0.3l0,0.5l-0.9,0.2l-0,0.2M203.6,144.9l0.9,12.6l4.8,2.2l-0.3-19.6l-5.4,4.8
	M396.9,142.2l-6.7,9.3l-5.1,11.6l1.3,12.7l8.3,6.9l8.4-4.1l8.9-8.8l1.4-14.5l-2-10.9l-8.7-1.7l-6.1-0.5M81.3,144l2.7-2.7
	M391.2,144l3.6-1.2M191.9,148.5l9-4.5M389.1,144.6l3,1.2l-1-1.6l-2,0.4M286.9,146.7l-22.8,1.3M263.7,152.5l-12.7,1.3l-0.6,6.3
	l41.7-2.7l-1.2-12.6l-3.9,1.8M382.2,151.2l-0.9,0.3l3,0.6l-1.5-0.9l4.5,1.5l3.9-6.3l-3.3-1.3l-5.7,6.1M369,147.6l-63.5,9.8
	l49.7-6.8l-58.1,8.4l4.4-0.8l-5,1.4l47.6-5.4l-47.6,8.6l-0-0.2l30.6-3.9l-30.5,4.1l-0.3,2.5l13.6,0.6l6.7,20.4l41.4-7.2l26.1-33.6
	l-15,2.1M47.2,146.1l-12.9,15l39.3,13.2l18.6-13.8l-45-14.4M30.4,146.4l-21.6,14.1l22.8-13.5l-1.2-0.6M198.8,152.7l1.9-0.9
	l-0.7-3.3l-1.2,4.2M192.5,162.9l-0.9-13.5l-0.9,0l1.8,13.5M140.7,153.3l12.9,4.2l-0.3-0.4l-13.2-6.7l0.6,3M143.7,166.5l9.6-9.4
	l-13.6-5.7l-0.7,2.1l-0.5,0.8l-0.4-0l-0.3-1.2l1.8,0l-0.6-2.4l-9.5,13.2l9.2-15.3l0.4,0.2l0.4,0.7l0.2,1.9l18.1,4l-1.6-13.8
	l-6.9-9.6l-4.1-2.3l-12.9,0l-8.5,6.5l-7,13.5l4.2-14l-7.9,12.6l-2.4,10.2l4.7-18M379.2,155.1l-1.2,11.1l8.7,55.7l5.1,2.1
	l-7.7-57.6l1.7-10.8l-6.3-2.4l4.2,3.3l-4.5-1.5M249.5,160.2l0-5.7l-25.5,1.5l-0.6,6l26.1-1.8M361.8,181.1l0.3-0.1l0.1-1.1l0.2-0
	l3.3,2.4l0.9-1.2l2,0.6l0.1,0.6l10.8-1.2l-1.2-25.5l-7.5,9.9l-0.9-0.6l-0.6,8.7l-0.9-6.3l-0.6,6.9l-0.6-5.7l-1.2,8.1l0-5.7
	l-3.6,7.5l0-3l-0.6,5.7M154.2,157.5l-0.6,1.8l-12.6,11.4l-5.1,7.6l1.5,0.7l-1.5,0.3l2.4,1.5l0.3-1.2l1.3,1.6l10-13l0.3,0.9
	l-1.8,2.1l5.1,0.3l-2.7-4.2l3.9,4.5l-0.6,1.2l-5.1-1.2l-7.2,10.2l3.3,0.9l-4.2,0.6l1.2,3.3l2.1-1.2l1.8,4.2l2.1-0.6l-0.3-4.5
	l2.7,1.5l-0.9,1.5l2.7-1.5l-0.8,1.6l0.2,0.2l6.3-6.3l1.1-6.8l5.5-2.8l-0.4-6.6l-4.9-4.3l-3.7,6.7l1.2,2.1l-4.2-4.5l2.7,1.5
	l3.3-4.2l-0.6-2.4l-5.1,4.5M158.1,160.5l1.2,1.8l5,3.3l2.5,11.7l7.5,1.8l1.8-2.7l-0.5-10l-16.3-6.5l0.1,1.3l16.6,5.4l1.2,4.3
	M176,166.6l-12.3-7.9l-7.5-2.2l-2.1,1M284.8,169.2l-2.4,8.9l2.7,0.6l2.2-12.5l5.2-7.3l-4.8,0l-3,10.3l9-10l1.8,0l-3.4,11.8
	l0.1,7.6l6.6,5.7l5.7-0.5l8.1-6.7l1.5,6.3l-6.3,6l-12.5,0.6l-9-5.4l-0.3-10.1l-1.2-5.3M92.4,213.8l-0.3,3.9l2.7-10.8l-0.9,9.9
	l6.3-2.1l0.6-3l0,2.4l27-9.3l11.7-15l-0.7,1.2l3.6,1.9l1-0.7l-4.6-1.2l2.5-3.3l-1.5-4.2l-9.9-0.6l-7.5-2.1l-10.5-9l-3.9-12.6
	l-7.5,0.9l-0.9,2.1l-0-1.9l-0.6-0.2l-1.5,8.1l0.3-7.8l-2.1,10.2l0-9.9l-4.5,56.9l1.2-3.9M316.6,139.5l51.8-7.8l-0.4-1.5l-0.5-0
	l-50.8,6.6l-0.2,2.7M309.8,165.9l-6.9-2l29.9-4.3l0,2.7l-26.1,3.3l1.8-1l1.4,1.3M386.1,155.4l0.6-2.4l-1.8,0l0.9,0.9l-5.4-1.2
	l5.7,2.7M271,159.9l0.3,0l0.6,3.3l-0.9-3.3M332.2,160.8l-22.8,3.6l22.2-2.5l0.6-1.1M35.2,133.8l2.4-1.5l-2.1-1.8l-1.8,0l1.5,3.3
	M39.7,127.8l0,1.8l1.5,0l-1.5-1.8M152.5,89.4l-1.8,1.2M392.1,162.9l0.3,2.4M145.2,164.8l-1.5,1.6M202.7,163.2l0.9-3l-1.2,0l0.3,3
	M36.1,129l0.7,3.9l0.8-0.7l0.7-3.6l-2.2,0.3M121,135.6l9.5-6.7l11.1-1.1M368.4,133.2l-51.6,7.5l-0.9,14.1l51.8-8.1l0.6-13.5
	M301.6,157.8l2.4-0.3M3.4,162.9l-0.6,1.8l-1.2-0.9l-0.7,3.1l2.5-0.5l0.3-1.8l0.8,0.1l0.7,0.8l3.6-3.6l-0.3-0.9l-5.1,1.8
	M199.7,162l1.2,3l0.6-3.9l-1.8,0.9M194.9,170.7l0.9,8.2l4.8,7.4l7.9,2l4.6-1.7l-7.5-24.9l-0.9-0.3l-3,4.6l-6.9,4.7
	M247.1,164.4l0.3-0.6l0.3-0l-5.4-2.1l-5.1,9l4.2,0.7l4.8-6.4l-2.1-1.8l3,1.2M248.6,162.6l-2.4-0.6M33.2,176.2l37,12.7l1.2-13
	l-37.3-12.6l-0.9,12.9M89.7,193l-2.4,0.7l0.8,0.1l0.1,0.8l-6.9-1.8l8.1,3.6l-13.5-3.9l13.2,5.1l-54.8-18.9l-2.2,18.6l10.6,3.6
	l3.3-2.5l0.6-0.4l0.2,0.9l0.4-0.1l29.1,11.1l0.3,0.6l-0.3,3.3l13.2,4.8l3.4-55.7l0.4-0.9l-3.6,31l-17.4-2.2l1.2-15.6l17.7-12
	l1.6-0.3l-3.1,30.1M234.8,170.1l1.5,0l4.2-8.1l-32.4,1.3l0.3-0.4l1.2,8.5l6,12.9l9.5,8.7l0.6-1l-7.4-1.7l-6.2-10.3l8.7,8.1
	l4.8,3.9l9.1-21.9M142.4,165.9l0.4-0.6l-6.3-2.4l5.1,2.7l-6.9-3l-8.1,17.4l13.3,1.3l7.6-8.8l-7.8,8l-3.3,1.3l-0.6-3.4l7.2-10.9
	l-0.7-1.5M198.8,165.9l-0.3-3.9M208.1,163.3l3.9,16.7M196.4,168.3l-0.9-4.5M408.9,176.6l0,9l1.5,1.8l1.5,21l-0.9,1.8l0.9,3.6
	l7-3.3l-3.7-46.5l-0.6-0.3l-5.7,12.9M194.3,169.2l-0.3-4.8M295.3,166.5l-2.7,8.9l3.1,6.8l3.2,1.4l7.9-1.7l3.3-7.6l0.1-6l-4.2-0.6
	l4,6.6l-8.8,4.2l-3.4-2.1l0.5-5.5l3.5-3.8l-6.6-0.6M298,175.1l3.3,3.3l5-3.4l0.9-3.2l-2.4-3.4l-3,0.1l-3.5,2.3l-0.4,4.3
	M113.7,172.8l4.5,0.9l-6-2.7l1.5,1.8M199.4,200.3l6.6,19.2l9.6-3l9.4-23.5l-10.6-5.5l-9.4,1.2l-7.5-5l-3.5-12.7l-1.8,0l3.6,14.7
	l-0.4-0.2l-0.4-0.7l-0.4,0l3.3,9.6l0-1.8l6.9,23.7l-5.4-15.9M230.6,182.6l2.1,1.8l-2.7-0.9l-0.3,1.5l4.5-0.6l0.7-2.1l-2.4-1.5
	l1.6,3.6M232.5,180.8l3.1-0.3l3.3-8.1l-3.3-1.5l-5.1,11.7M177.5,176.3l-0.6-3.6M239.9,172.8l0,0.9l-26.7,65l25.5-57.2l2.1-8.7
	l-0.9,0M164.3,176.5l-2.7-2.8l-2.7,7.2l6.1-2.7l-0.7-1.7M119.4,176l-4.2-2.1M198.8,205.1l-11.8-30.1l-0.8,0.5l12.3,43.9l4.2,0.8
	l-1.2-5.1l0.9-0.2l-0.6-2.4l-1.3,0.1l-0.2-0.4l0.3-1.5l0.6,0.9l-2.1-3.9l0.4-0.3l0.8,0.5l0.1-0.5l-1.5-4.2l0,2.1
	M193.1,178.1l-1.5-4.5M197.6,199.1l-6.9-23.7M121.5,177.8l-2-0.9l-0.4,0.3l1.1,0.2l1,0.7l0.4-0.3M398.4,183.8l10.2-5.7l-1.2-0.6
	l-9,6.3M354,180.8l6.3,0l-0.6-2.7l-5.7,2.7M285.7,181.4l-2.7-3M194.6,182.3l-1.2-2.4M399.6,185l0.3,3.9l7.6-3l0.8-5.7l-8.7,4.8
	M389.4,191.9l-2.1-10.2l6,42.6l6.9-3.9l0-5.7l-1.2-1.8l-0.1-20.8l0.1-1.6l-2-1.6l-0.4-5.3l-8.4-3l1.2,11.4M286,182l-2.7-0.9
	l2.2,1.5l0.5-0.6M320.5,186.2l-2.4,6.6l22.8,9.6l8.7-21l-29.1,4.8M214.7,239.3l5.4,3.6l-17.7,38.7l0.4,0.3l40.1-83.6l-3.6-16.5
	l-24.6,57.5M288.1,186.5l-2.1-1.2M398.4,188.9l-0.6-3.9M233,186.8l-3.9-1.5M310.9,191l4.2,1.5l2.4-5.4l-2.1,0l-1.1-1.4l-3.4,5.3
	M399.6,191.6l9.3-4.8M141.9,188.9l0.4,4l3.1-4.3l-1.8-1.8l-1.8,2.1M232.1,189.2l-3.6-2.1M316.6,193.4l2.1-6.3
	M297.4,191.6l-26.1,9.3l-29.1,52.7l-2.4,0l-3.9,46.4l3,6.1l1.2,13.7l6.9,12.3l0.4,7.9l-4.9,3.8l8.7,8.3l2.4,6.7l4.8-2.1l-0.7-7.5
	l7.6-19.1l6.6-6l3.3-11.1l10.5-25.2l4.2-1.5l3-28.8l-3.5-8.5l2.4-13.1l20-45.2l-1.6-0M311.9,190.7l-1.3-2.4l-13.2,3.3
	M408.9,188.6l-10,3.4l3.4,21.1l7.9-3l-1.3-21.6M231.5,190.1l-3.6-1.2M230.3,193.1l0.3-0.4l-3.3-2.5l3,3M228.8,194.6l-3.4,0.1
	l0.1,0.2l1.8,0.6l-0,0.6l-1.9-1.4l-16.9,41.8l3.6,0.9l15.3-36.9l-0.5-0.1l-0.4-0.8l1.5,0l2.7-7l-3.9-0.7l-0.5,0.9l2.5,1.8
	M400.8,212.9l-2.1-20.1M317.5,194.9l-3.9-1.5M133.8,198.2l2.4,2.4l3.6-5.1l-2.7-1.8l-3.3,4.5M199.4,198.8l-1.5-4.2
	M312.7,195.2l3,0.6M154.2,198.8l2.7-3.9M147,209.9l-3.6,4.8l4.8,3.6l6.4-3.5l4.6-12.4l-0.8-7.1l-11.4,14.7M314.9,205.6l-0.1,1.7
	l-0.9,1.7l-0.4-0.6l1.4-2.8l3.1,0.1l-3.3,0.6l0.2-0.7M315.7,210.8l1.8-0.3l-0.2,0.5l0.2,0.1l-0.5,0.4l-1.3-0.7
	M307.6,213.5l1.5-3.3M96.3,207.2l-0.9,8.4M319.9,203.9l-3.6-0.9M392.7,215.6l0.6,2.1M97.8,210.8l0,3.9M149.4,205.4l5.1-9.3
	M315.4,198.8l-0.5,0.3l-2.8-3l3.3,2.7M147,206.9l4.8-9.9l-3,3.5l-1.8,6.4M310.9,198.8l3.6,0.6l-3-1.8l-0.6,1.2
	M142.5,206.9l3.6-8.1l-9,17.1l5.7-8.4l-3.6,7.5l5.5-3.3l4.1-13.2l-0.6-0.6l-5.7,9M44,201.1l29.5,8.2l-27.6-10.9l-1.9,2.7l0.4-0.2
	l27,10.8l-27.4-10.6M312.4,202.4l-3-0.9l0.9,2.1l-2.2,0.7l-0.1-0.2l0.1,0.6l0.8,0.6l-0.7-1l-9.5,20.5l0.8,0.4l1.1,0.2l-1.9-0.5
	l0.7-0.8l2.4,0.6l-1.5-0.9l0.9-1.5l1.5,1.8M301,222.2l2.4-0.6l1.8-3l0.6,0.6l1.1-3.4l0.7,0.1l7.8-16.5l-2.7,3l2.3-3.3l-4.3,0.3
	l-0.3,1.8l2.1,1.2M134.4,200.9l-1.2-1.2l-19.5,23.4l0.6,0.3l0,0.3l20.1-22.8M243.5,199.7l-2.5,8.7l0.2-0.3l3.2-7.1l-0.8-1.3
	M142.7,200.5l-0.5-0.2l-2.7,0.9l-3.6,12l6.6-12.6l0.2-0.1M240.9,208.4l8.1,6l4.3-7.5l-8.1-5.4l-4.3,6.9M28,206.6l1.5,4.5l3.3-0.6
	l0.2-0.5l0.5-0.1l-1.7,1.2l9.7-7.2l0.6,2.6l-0.7-1.1l0.2-1.5l-13.5,2.7M128.4,218.5l5.7-1.6l3.6-14.7l-9.3,16.3
	M134.7,203l-6.3,15.4l0.3,0.1l7.2-15.6l-1.2,0M42.7,203.9l-1.3,1.5l28.3,9.6l0-1.8l-27-9.3M27.4,215.9l1.5-3.9l-1.8-5.1l-5.8-1.8
	l-7.4,6l5.7,1.8l0.3,3l-3.3,0.9l6.1,0.7l4.7-1.6M254.3,207.8l-3.8,6.7l-2.2,0.8l1.2,1.5l-12,24.9l-11.4-3.9l10.8,6.3l-2.4,6l7.2,3
	l25.2-47l-0.3-0.9l-12.3,2.7M126.9,215.9l4.8-10.2M124.8,207.8l1.5-1.3l-0.3-0.5l-1.2,1.8M121.2,207.8l-0.9,5.4l3.3-6l-2.4,0.6
	M114.9,209.9l-1.8,4.6l-2.7,0.5l1.2,5.4l3.3,0l4.8-8.1l0.3-3.6l-5.1,1.2M238.7,211.1l10.3,3.3l-1.3-0.6l-7.9-2.8l-1.1,0.1
	M70.9,215l3.9-1.2l0-3.3l-3.9,4.5M401.4,215.9l8.8-5.7l-0.4,0.3l-8.4,5.4M107.7,213.2l5.7-2.1M122.4,220.4l1.5-1.7l3-7.3l-4.5,9
	M11.8,212.3l1.7,4.2l1.9,0.2l-2-4.7l-1.6,0.2M104.7,214.7l0.2-0.5l1.6-0.4l-3.9,1.2l1.2,0.3l-0.8,0.6l-1.3-0.9l-3.9,2.4l-0.7-0.7
	l-0.5,0.1l-1.7,1l1.1,0.2l-1.3-0.3l0.2,0.1l-0.1,0.8l-4.5,1.2l-5.7-1.8l-18,5.7l1.8,3.6l7.8-2.4l-8.4,3.3l45.6-15.6l-8.7,2.1
	M237.8,212.3l-10.2,24.3l10.8-24.3l-0.6,0M405.9,216.8l3,0.9l0.4-2l1.6-2l-0.5-0.8l-4.5,2.8l0,1.1M229.1,237.5l8.4,4.2
	M249.5,216.8l-9.7-5.8l-10.6,26.5M411.9,214.4l1.8,18.6l3-1.2l-1.8-18.6l-3,1.2M16.6,215.9l1.8-1.5l-1.8-0.3l0,1.8
	M118.8,221.3l5.1-2.6l-0.6-3.1l-4.5,5.7M402,220.1l-0.9-3M108.9,217.7l-1.2,0l-12.3,5.4l14.5-3.2l-1-2.2M402.9,220.4l3.9-2.1
	l-3.9-0.6l0,2.7M411.6,220.4l-0.6-2.4l0.2,2.4l0.4,0M208.7,220.7l2.1,5.4l3.3-7.8l-5.4,2.4M404.4,221.3l-0.3,0.4l-3.3-0.4
	l-0.6,1.8l3.9-1.4l-3.6,2.6l9.6-4.8l-6.6,2.4l0.8-0.1l-0-0.4l0.2-0.1M210.2,228.5l-2.4-7.8M207.4,241.5l0-2.4l0.4-1.1l0.3-0
	l1.2-7.5l-1.5-0.9l0-1l0.6-0.3l-0-0.4l-4.1-6.2l-2.8-0.6l5.9,20.5M400.8,226.4l9.6-4.5M65,234.1l1.8-5.7l-3.7-6.2l-7.6,1.5
	l-2.6,4.2l3,3l3.3-0.6l-0.7,2.8l-2.9,1.4l9.4-0.3M94.8,224l-1.2-1.5M402,247.7l-3.3-25.2l-3.9,3l3.4,29.1l3.7-6.9
	M391.8,257l3.9,1.5l-3-32.8l-5.4-2.5l4.5,33.9M409.8,223.1l-8.2,4.8l-0.5,1.2l9.3-4.2l-0.1-1.6l-0.5-0.2M411.6,224.3l0.3,1.5
	l-0.6-2.4l0.3,0.9M108.6,227.9l0.6,0.9l-2.1,0.9l2.4,1.5l3.6-6.9l-4.5,3.6M303.4,229.1l-5.9,11.8l-1.4,12l5,8
	M297.5,240.9l8.7-10.3l5.9-4.8l7.5,3.2l3.2,3.3l-3.8-6.4l-8.1-0.6l-7.6,3.7M289.9,246.8l2.1,1.5l-2.1,0l4.2,2.7l3.6-17.4l1.2-0.6
	l1.5-7.6l-2.7-0.2l-7.8,21.6M396,251.6l2.5,22.4l-0.4-0.8l1,3.5l3.8,3.1l3.9,0l-8.3-5.8l-0.7-9.2l4.4-10.6l9.1-8.4l4.1-1l2.4,0.6
	l-5.7-2.4l-8.2,4.4l-5.8,7.2l-5.5-28.9l0.3,0.1l3,25.8M401.1,231.2l9.6-5.4M402,239l0.3,4.8l9.6-3.9l-1.2-12l-9.3,5.7l6.6-2.4
	l-6.3,4.5l3.9-1.8l0,0.9l-3.9,2.1l0.2,0.1l-0.2,0.5l2.4,0l-0.3,0.6l0.9,0.6l-1.2,0.6l0.3-0.9l-1.8,0.6M316.6,228.5l-7.7,1.3
	l-6.7,6.1l0.5,0.9l-0.2,0.1l-4.4,7.7l0.1,10.5l3.4,4l2.1-14.7l4.8-6.4l4.8-2l4.6,3.2l-0.1,14.8l5.5-10.8l-1.1-10.1l-5.6-4.5
	M51.4,231.8l3.3,2.1l-0.2-3.7l-2.5-0.9l-0.6,2.5M56.2,231.2l0,1.8l1.7-0.4l-0.5-2l-0.1,0.5l-1.1,0.1M412.2,233.3l0.6,7.8l5.1,1.8
	l-1.5-9.9l-4.2,0.3M308.5,238l4.3-0.7l-2.2-0.1l-2.7,1.2l-4.5,11.4l-0.3,10.2l0.6-15.6M208.4,239.6l4.5,2.4l0.3-0.7l-4.2-3.1
	l-0.6,1.5M310.9,238.7l-4.5,5l-5.1,46.2l13.8-5.4l2.1-44.9l-6.3-0.9M225.5,244.1l-0.6-0.1l1.5-4.7l-0.9,0l0,4.8l3.1-1l-0.4-1.1
	l-2.7,2.1M190.4,279.4l4.7-0.2l-2.6-0.7l3,1.2l0.2-1.1l-1.4-1.6l0.8,2.2l-0.2-2.5l1.8,0.3l16.5-35.8l-5.4-0.1l3.9,2.1l-4.2-1.2
	l-17.1,37.5M192.8,319.6l0.5-0.2l-0.7-1.2l-4.8-8.9l1-13.4l4.3-9.1l3.3-2.6l19.2-43.5l-21.6,44.4l-6.3-2.1l-7.7,10.5l-0.7,6.6
	l1.2,1.2l-1,0.1l-0.5,1.1l4.2,2.7l-3.9-1.8l1.8,3.2l3.3,0.7l0-3.3l3.8,11.8l4.6,3.7M404.1,245.6l7.8-3.9M216.5,242l-18.9,41.4
	l5.2-1.5l15.8-39.2l-2.1-0.6M227,241.4l1.5-0.6l-0.8-0.2l-0.7,0.8M229.4,244.7l3.7,0.3l-2.8,3.3l2.1-1.8l2.1,0.6l-1.4-2.1
	l-3.3-1.7l-0.4,1.5M223.8,246.3l4,0.4l-2.1-3l-1.9,2.5l5.8,3.4l-6.6-4.2l0.7,0.7M422.1,248.3l-3-3.6M419.7,247.4l-2.4-0.3l3.9,3.3
	l-4.8,23.4l5.5-8.6l1-14l-3.2-3.8M229.1,251.9l-7.2-4.5M232.1,249.2l0.5,0l0.3,0.6l0.4-0l0.7-0.2l-0.9-1.8l-1,1.4
	M398.7,269.5l3.8,7.4l7,1.6l-6.9-3.6l6.3-27l-6.7,6.2l-3.5,15.4M409.5,250.1l3-2.1M411,250.7l-5.7,25.8l9.9-1.2l4.8-24l-5.5-2.5
	l-3.5,1.9M227.3,254l-7.2-3l0.8,1.7l3.7,2.2l-5.7-0.7l3.6,1.6M218.9,254.1l0.9,2.5l-2.1-0.3l-11.7,25.8l6.9,3.6l15.6-33l-7.5-3.6
	l6.3,4.8M213.2,286.9l2.4,3l18.4-40.3l-3.1,0.4l-17.7,36.9M294.4,252.5l-3.9-2.4M222,283.2l-5.9,8.8l1,4.3l21-43.8l-2.7-1.5
	l-13.3,32.2l-1.9,8.8l-0.9,14.7l13.8-4l1.5-40.6l-12.4,21.1M316,269.8l1.8,0.3l-0.2,0.5l-1.9,1.3l-0,1.7l2.7-2.8l1.5-17.4
	l-0.6-0.3l-2.6,7.8l-0.7,9M233.9,280.6l1.8,0.6l-1.8,0.6l0,0.6l2.1,0l3-29.1l-3.5,10.7l-1.6,16.5M295.6,257.3l-3-1.8
	M290.8,288.7l2.4,1.2l1.2-10.2l1.2,0l0-6l-0.3,0.6l-0.3,0l1.4-4.5l0.1,0.6l0-5.1l-0.5,0.5l-0.1-0.2l0.6-6l-2.4-1.5l-3.3,30.6
	M390.9,269.8l2.4,1.2l-2.1-0.9l5.1,3.3l0-12.6l-5.4-2.7l0,11.7M298,263.6l0.6-0l0.5-0.2l0.1,0.2l1-0.2l-1.9,3.7l2.4-1.5l-2.8,1.5
	l3.1-2.7l0-2.7l-0.7-0.2l-2.2,1.9M408.6,251.9l-4.5,23.4l5.4-24.3l-0.9,0l-0,0.9M294.7,254.9l-3.6-2.7M300.4,284.2l-0.1-20.8
	l2.4-0.9l-2.4-0.9l0.1,22.6M297.9,267.1l2.5,1.9l0.1-1.5l0.2-0.5l-2.8,0M417.3,274.9l1.8,15.3l-2.2,8.1l-3.8,1.2l-4.5-18.6l-4.2,0
	l0,4.8l-0.9-2.4l2.7,16.2l-0.1-1.9l0.4-0.2l2.1,11.1l17.1-12.1l-4.5-27.7l-3.9,6.3M295.3,290.8l3-0.6l2.1-21l-4,0.6l-1,21
	M315.7,273.4l2.4-1.2l-2.4-0.3l-0,1.5M394.8,273.4l-1.5,0l2.7,0.7l-1.2-0.7M315.4,274.3l1.5-0l-0.2-0.4l-1.3,0.4
	M393.9,275.2l4.2,1.5M315.7,273.6l-0.9,10.3l0.3,0.5l2.7-9.2l-2.1-1.7M417.9,293.5l-2.1-17.1M409.8,281.5l4.5-2.1l-4.3,5.4
	l3.7-2.7M409.9,284.8l3.1,0l-2.4,3.6l2.4-0.9l-2.1,1.8l1.2,8.4l3.9-3l-1.2-16.8l-5.1,3.6M397.2,278.5l4,29.1l3.2,0.9l-2.1-19.2
	l0.9,2.1l-2.1-11.7l0.3,5.4l-0.9-5.4l-3.3-1.2M189.5,280l4.8,2.1M193.4,283.9l-4.5-2.1M205.1,282.4l-8.1,2.1l-8.2,11.4
	M192.6,318.2l6.2,0.8l6.1,0.5l8.6-11l-5.7,7.2l-9,3.3l-4.6-4.3l-3.8-7.7l3.2-12.9l5.8-6.9l9.7-0.3l4.7,8.7l0.1,4.8l1.8,2.7
	l-1.3-12.7l-5.5-6.9l-3.7-1.2M233.9,283.3l0,1.5l2.4-0.6l0.3-0.9l-2.7,0M314.5,285.1l0,1.8l-19.2,6.1l-5.7-5.2l-1.8,0l7.5,5.2
	l24.6-7.9l-5.4-0M233.3,286.9l3-1.8l-2.6,0.7l-0.4,1.1M299.5,288.7l0.3-3.6M198.5,289.3l14.4,10.2l-1.2-7.7l-6.2-4.7l-7,2.2
	M295.6,295l-2.4,18l29.7-9.3l-2.4-16.8l-24.9,8.1M233,289.6l-0.6,12.6l0.6,0.5l2.7-13.9l-2.7,0.9M280.9,304l6.3-8.4l6.4,1.5
	l-3.4,15l1.8,0.9l1.6-15.9l-7.3-8.1l-5.4,15M191.3,304.3l2.2-10.2l4.6-3.9l0.3,0.1l-5.4,7.8l-1.7,6.1M206.6,314.5l1.1,0.3l0.1-0.3
	l-6.6-5.1l7.6,4.2l1.1-0.6l4.3-9.5l-0.4-2.2l-15.3-10.9M193.1,298.2l0.1,5.8l3,2.4l-3-1.5l13.5,9.6M404.4,299.2l-0.9-4.2
	M425.7,296.4l-19.2,14.8l-6.6-5.1l1.3,1.5l5.3,3.6l21-15l-1.2-1.2l-0.6,1.3M215.6,306.7l2.7-1.5l0.3-9.9l-3,11.4
	M286.3,299.5l3-1.8l-2.1-0.9l-0.9,2.7M424.8,300.7l4.8-0.3l-1.5-2.4l-3.3,2.7M279.7,314.2l-0.2,0.1l0.1,0.4l11.3-11.6l0-4.5
	l-10.5,7.9l-8.1,19.6l1.5,10.6l1.7-2.2l0.4,0.2l-0,0.2l-1.2,1.1l0.4,0.8l8.7-3.6l-0.4-0.2l-1.2-0l-0.2-0.4l2.1-0.3l3.8-13.5l4-4.2
	l-2.7-3l0.9-4.8l-3.3,1.5l3.6-3.6l-9.1,9.3l-2.3,6l2.1-3.6l-3.3,6l0.6,1.5l-3,5.4l3.6-14.1l-3.3,8.1l3.9-9.6l0.3,0.1l0,0.2
	M406.8,304l-0.6-3M422.1,309.7l2.5,5.7l4.6,0.4l3.2-4.8l-0.7-7.5l-3.3-1.9l-5.4,3.9l-0.6-0.9l-1.5,4.5l0.1,0.2l-0.8,1l1.9-0.5
	M232.1,303.1l-0.9,1.8l-13.5,3.3l-1.4-0.8l-1.6,2.3l22.8-6.3l-1.2-1.2l-4.2,0.9M407.7,312.7l0.3,2.1l4.5-4.5l7.5,0.6l2.1-8.7
	l-14.4,10.5M237.2,304.9l-23.7,6.3l-3,16.5l28.8-7.5l-2.1-15.3M293.5,314.5l5.5,5.2l10.4-3.1l12-11.1l-27.9,9M205.1,314.8l-13.5-9
	l-0.6,0.3l3.2,8.6l6.5,2.1l4.4-2M322.9,305.8l-4.5,5.1l3,12.9l8.1-3l-0.1-0.3l-1.4-0.3l1.5,0l-1.5-6l0,4.8l-3-11.2l-2.1-2
	M185.6,312.3l-1-1.5l-4.6-4l5.7,5.5l-9,43l9.3-41.4l-0.3-1.6M408.6,330.7l-2.1-17.4l-7.5-4.5l-0.9,8.7l7.5,3.9l1.5,8.7l1.5,0.6
	M414,326l-4.8-1.1l1.2,6.6l25.8-18.3l-2.4-3.9l-4.6,6.4l-4.7,0.8l-3-2.7l-1.6,8.2l-5.9,3.9M420.2,310.2l-6.6,1.3l-3.8,2.4
	l-1.2,5.1l3.6,5.7l3.9,0l4.2-6.5l-0.1-7.9M184.6,310.8l-3.4,1l-9.6,40.5l3.6,2.1l9.4-43.6M319.6,322.9l-1.5-10.5l-5.4,4.2l6.2,4.3
	l0.7,1.9M204.2,320.5l-6.6,26.1l-6.3,2.3l-1.7-6.1l4.4-21.2l-6.6-5.1l-9,39.3l25.8-1.8l7.5-39.6l-7.5,6M434.4,315.7l-23.4,17.1
	l5.4,3l15.6-11.1l3.3-9.3l-0.9,0.3M292.3,315.7l-5.1,7.2l15.1,4.5l8.2-0l7.5-3.1l0.5-1.4l-7.8-6l-11.9,2.8l-6.7-4
	M430.2,328l0.6,11.1l4.2-0.6l-3.9,1.5l8.4-1.8l0.3-1.8l-1.1-0.6l-1.9-12.1l-2.4-2.9l-4.2,7.2M196.3,344.7l-2.6,3.3l3.9-1.4
	l5.1-25.2l-0.6-0.3l-5.8,23.7l-5,2.4l0.6-11.7l2.4,0l-1.9-0.7l-0.2-0.5l3-0.6l-0,1.7l-2.7-2.6l5.4-0.9l-4.8-0.9l0.7-2.5l5.6-0.8
	l-6,0.9l0.4-0.1l4.7,1.3l-2.2,15M213.6,336.8l15.1-4l9.3-10.8l-27.9,6.6l0.7,4.6l2.7,3.7l16.3-3.7l3.9,5.4l-3.8,5.3l-10.2,3.4
	l-12.7-3.6l2.1-10.8l4.3,4M402.6,326l-0.3-0.4l2.4-2.7l-8.7,7.5l-2.4,6.9l3.3-5.4l-3.7,11.7l-1.1-1.8l0.3,2.4l0.3-0.6l0.3-0l0.2-0
	l-0.8,1.8l-0.2-0.1l0.2-0.8l-0.6-0l-2.1,2.7l0,6l9.9-3.3l-2.4,0.5l-0.3-0.5l2.6,0.7l3.2-16.7l2.9-3.7l-0.6-5.4l-2.4,1.3
	M291.3,341.4l18.2,1.4l10.2-3.6l-2.5-12.4l-12,1.9l-9.6-0.4l1.2,0.3l-4.2-1.2l-0.5-0.8l-2.8-0.1M194,325.3l0.3-0l5.7,0.3l-6-0.3
	M319.9,338.2l-1.5-12.3M273.7,336.8l-0.2-3.7l-4-4.8l-0.7,1.9l4.9,6.7M239.9,321.1l-5.4,6.9l3,13.8l-0.9,1.8l-0-0.9l9.9-3.3
	l-2.7,0.6l3-1.2l0-4.2l-0.6,0.2l0.1,0.8l-0.7-0l-3.9-12.3l-1.8-2.1M291.3,341.4l-11-4.1l-10.2,1.8l-0.6-10.8l-4.4,5.5l1.7,4.4
	l-0.6,0.9l8.1,6.6l0.3-0.4l-0.8-0.7l0.2-0.1l7.5,3.6l-3.1-0.4l-0.2,0.4l21.8,5.2l16-0.1l9.6-3.3l-3,1.8l9.5-4.5l1.6-2.7l-0.9-7.4
	l-12.3-7.9l-0.7,10M422.7,332.8l6.9,3.6l-0.9-7.2l-6,3.6M230.6,332.5l4.8,4.8l-2.1-8.1l-2.7,3.3M194.3,325.3l5.6-1.3l0.4-1.1
	l-5.7,0l-0.3,2.4M406.5,331l-4.8,12l20.4,2.4l7.2-2.7l0.6-3.8l-8.6-5.5l-4.8,2.4l-9.9-4.8M286.3,324.7l-0.7,10.1l-3.5,2.4l9.2,4.1
	M194.9,322l5.7-0.3M285.1,333.7l0-2.7M321.4,325l6.3-2.1M292.2,326.6l-5.8-1.9M439.5,335.5l-0.6-1.8l-0.2,2.1l0.8-0.3
	M274.3,338.2l8.1-2.7M259,356.2l6.9,2.1l5.3,4.5l-0.3,3.9l21.2,7l24.7,0.5l0-2.7l11.4-3l0.6-2.1l0,3.3l3-1.2l-0.3-15l1.5,13.8
	l-0.9-19.5l-0.9,5.1l-0.3-3.9l-3,2.7l-1.5-0.3l-17.7,3.3l-16.5-1.2l-18.1-6l-10.7-10.1l-5.1,14.7l1.8-3.3l-1.2,7.5
	M431.4,341.5l7.2-2.4M234.5,345.4l1.1,7.9l-0.4,2l-0.2,0l-1.5-12l-13.7,3.9l-13-2.4l-1.5,7.5l3.4,4.9l-0.1,2.6l10.8,2.3l14.6-4.4
	l1.4-4.4l-0.8-11.8l-0.3,3.9M236.3,343.9l8.7-2.4M382.5,343.6l-9.8,4.7l-1.3,6.4l8.1,7.1l14.9,4.9l-2.1-0.9l6.6,1.5l-2.4,0.6
	l35.7,1.8l11.8-3.9l3.9-5.8l-0.2-2.8l-16.2-9.9l-0.7,9.3l-5,3.3l-16.2,0l-17.3-4.8l-7.7,1.1l-1.6-1.5l0-11.1l-0.6,0
	M388.8,346.3l-3-2.7l-2.1,1.5l0,9.3l3.6,0.9l1.5-9M430.5,353.5l-0.9-9.9M221.9,373.8l16.9-2.4l10.7-5.6l2.6-5.8l-0.9-7.9l-10.2-8
	l-4.5-0.6l-0.2,11.5l-5.9,5.9l-5,1.5l-16.5-1.5l0.3,11.4l6.9,1.5l-6.3-0.3l12,0.3M393.6,354.7l16.1,5.1l18-1.8l0-6.9l0.9,6.6
	l0-12.9l-14.3,2l-12.7-2l-2.2,5.8l-5.9,4.1M278.2,347.2l-3-0.9M334.3,350.5l-0.6-4.2M334,353.8l0.3,4.2l-0.3-7.2l0,3
	M166.7,352l11.4,5.5l29.3-1.3l-1.2-1.8l-2.1,0.9l-26,2.2l-8.7-6.4l-2.7,0.9M388.8,354.7l9-3M166.1,353.5l-6.9,20.4l12.3-6l0.9-1.9
	l-5.7-3.9l-3.9,9.1M172.4,365.9l-1.8,14.7l5.7,11.8M170.6,380.6l5.7-21.1l-10.2-6M366.9,372.3l1.2-3.6l-1.6,4l4.3,5l3.4-0.4
	l11.6,5.8l-0.3,2.7l25.7,6.3l21.1,0l1.2-3.6l9.6-1.8l1.2-2.1l1-1.2l0.8,2.4l0.6-4.2l0.9,4.2l-1.2-20.4l-0.9,2.4l-0.6-0.9
	l-17.9,4.6l-14.4-0l-24.9-5l-17.4-10.9l-3.3,16.8M254,359.7l6.6,7.6l9.3-4.3l-8.4-6.6l-7.5,3.3M185,359.2l5.1,2.7l2.3,5.7
	l-3.6,7.2l-5.6,3.4l-5.6-2.5l-2.5-3.1l-1.5,9l34.8-3.3l0-7.8l-6.6,6.3l-6.2-0.7l-2.7-6.2l3-8.4l7.7-2.7l4.5,2.4l-0.3-4.2
	l-29.7,2.1l-0.9,5.1l7.8-5.1M176.9,372.3l1.8-4.8l-0.2,7.2l4.7,3.4M188.8,374.8l2.5-9.5l-4.2-3.8l-6,1.5l3.6-2.1l-5.5,2.4l-2.3,9
	M201.8,375.9l5.7-6.4l-0.9-7.7l-5.6-1l-3.1,1.6l-0.6-0.9l-3,5.7l0.8-1.5l0.7,0l-0.4,7.6l6.4,2.6M253.7,380.1l-1.5-17.7
	M260.2,367.2l-6.3-4.8M261.4,367.2l8.4-1.2l0-1.8l-8.4,3M448.4,378l-1.2-11.2l0.6-2.6l0.6,13.8M249.5,365.8l-15.8,8.2l-24.1,1
	l0.3,5.1l7.8,14.1l-1.5-0.6l-0.2,2.4l-0.4,0l-3.6-11.7l-3.6-3.9l-6,6.3l5.1,17.1l9.9-2.1l1.1-5.5l14.5-1.3l0.3-3l12-3.3l0.5,0.1
	l0.7,0.8l5.3-3.6M253.8,381.5l-3.2-16.9l-1.1,1.3M164.9,371.4l-12.7,10.3l-3.5,6.8l-3.3,16.8l3.9,3.9l6.8-18.8l12.9-13.2l1.9-7.5
	l-6,1.8M320.2,372l6.6,4.7l5.1-3.8l-5-2.9l-6.6,2M318.4,374.1l6.9,2.4l-7.2-4.2l0.3,1.8M326.5,376.2l0.3,1.5l6-3.3l-6.3,1.8
	M368.1,380.1l5.5,6.1l9.4-3.4l-8.9-5.5l-6.1,2.8M153,399.9l-3.1,11.9l0.8,2.8l-0.9,1.5l11.4-2.4l4-17.8l7.7-7.4l-4.2-9l-12.4,10.9
	l-3.2,9.5M173.6,382.8l5.1,10.8l16.5-1.5l12-12.6l-33.6,3.3M366.6,382.8l6.3,2.7l-6.3-4.2l0,1.5M377.4,384.9l-3.5,0.9l-0.1,0.9
	l9.5-1.1l1-1.3l-6.9,0.6M436.2,389.7l5.5,5.1l8.8-4.8l-4.8-2.9l-9.5,2.6M199.7,390l5.4,5.7l-3.9-8.1l-1.5,2.4
	M178.4,394.8l-3.6-1.8l-2.1-3.3l-8.1,9.6l10,7.2l15.8,1.3l12.9-6.7l0.4-5.7l-4.9-4.8l-8,2.8l-12.4,1.4M244.7,389.7l-9.3,2.7
	l5.9,6.3l7.6-4.2l-4.2-4.8M433.8,392.1l7.2,3.3l-3.2-3.5l-4-1.5l0,1.8M442.1,394.8l8.7-3M233.9,394.8l6,3.6l-5.7-5.1l-0.3,1.5
	M241.1,398.7l7.8-2.1M205.1,418.2l-1.8-12.9l-0.1-0.2l-1.4,0.5l-0.2-0.3l2.7-2.2l0.3,7M204.2,403.1l-13.8,4.8M174.6,406.5l-10-6.3
	l-1.2,6.9l1,5.1l-2.5,4.8l12.1,7.3l13.6,1.2l17.5-7.3M206.9,405l9-2.4M153.3,429.9l0.5-0.2l-0.6-0.6l0.1-0.4l3.3,3.6l6.9,1.5
	l-1.2,0.6l8.7,0.9l2.2,1.5l0.2-0.6M173.2,436.8l23.7,0.3l17.2-6.5l7.2-6.7l-0.3-2.1l1.8-0.3l-0-8.1l-8.4-8.4l-7.8,1.8l-0.1,9.5
	l-5.9,6.4l-13,2.8M174.1,424.3l-9.8-4.1l-3.5-3.8l-14.7,2.7l2.8,6.8l4.4,4M145.2,406.5l-0.9,10.5l2.1,0.9l2.1-5.7l-3.3-5.7
	M161.7,415.5l1.5-6.3M205.4,416.4l-0.6-6M152.7,416.4l-3.9,1.2l11.1-2.7l-7.2,1.5M140.7,437.1l4.5-12.9l-4.5,17.1l0.1,0.3l1.1,0.1
	l0,0.2l5.4,8.7l16.1,7.8l22.1,3l11.2-0.9l0-2.7l18.7-2.5l4.6-4.4l0.1,0.5l1.1,0.1l0.3-8.1l1.5,6l0.6-9.9l1.2,6.6l-2.4-22.2
	l-0.9,4.5l-0.3-2.1l-13.7,8.4l-10.7,2.4l-25.6,0.3l-14.7-5.1l-11.4-11.1l-0.6-0.3l-3.9,16.2M227,441.6l-3.3-19.8
	M226.4,429l4.2-0.9l-5.1-5.4l0.9,6.3M227,431.7l5.4-1.8l-0.9-0.9l-4.5,2.7M138.6,440.7l-7.5,2.7l4.3,6.2l9.2-2l-6-6.9
	M134.4,449.7l-3.9-4.8M135.6,450l0.6,0.9l9.5-1.8l-10.2,0.9M210.8,455.9l-11.4,3l5.7,4.8l9-3.3l-3.3-4.5M197.9,460.7l6.3,3
	l-6.3-4.5l0,1.5M205.4,463.7l8.2-1l0.8-1.4l-9,2.4M273.1,32.5l-0.3,0.6l-4.8-1.5l5.1,0.9M271.9,14.5l2.7,0M274.6,15.4l2.7,0
	M243.8,23.5l2.4,0l-0.3,0.6l2,0.5l-4.1-1.1M261.7,29.2l4.3,1l-0.5,0.1M266.1,30.2l0.5,0.5l1.3,0.2l-3.1-0.2l-3-1.5
	M225.8,57.1l27.3-8.4M242.6,55.3l1.5-0.3l-18.6,5.7l17.1-5.4M225.5,61l-2.7,0.6M227.3,64.6l-0.6-0.3l5.7-1.5l-8.4,2.4l3.3-0.6
	M100.2,101.7l-2.7,4.2l-6-0.6l2.6-4.1l6,0.5M93.3,105.3l5.7-2.4M104.1,143.1l-1.5,9.3l-0.6-7.2l2.1-2.1M101.4,146.4l-3.6,3.9
	M68.8,186.2l0.6-9l-33.9-11.7l-0.6,9.9l33.9,10.8M155.4,183.2l-1.8,1.5M59.8,188.9l0.2-0.5l-0.2-0.1l3,0.6l-0.1,0.2l-0.2,0.1
	l0.9,0.3l-3.6-0.6M67.9,190.7l-2,0.1M89.1,198.5l-18.9-6l-0.1-0.5l-2.4-0.6l1-0.1l6.9,2.1l0.2,0.7l2.2,0.2l-1.8,1.6l12.9,2.5
	M70,193.7l3.6,0.6M73.5,195.2l14.1,4.5M76.2,196l-1.3,0.7l8.5,3.1l-7.2-3.7M286,309.4l-4.2,4.5M221.3,348.1l-0.6,0.3l0.6,0.3l-3,0
	l1.8-0l1.2-0.6M301,352.6l3.6,0M248,364.8l-4.8,3.6M161.7,385.8l0.2,0.1l-0.1,0.4l0.2,0.1l-2.4,2.4l2.1-3M153.9,391.2l-0.9,2.1
	M219.8,424.2l-3.6,3l0.3-0.9l3.3-2.1M206,433.2l-4.2,1.2M142.8,437.1l-0.3,3M380.1,15.4l-10.8,0.9M136.8,75.1l-4.5,3.3l-4.5-1.8
	l4.7-3.7l4.3,2.2M132.3,74.8l0.5,1.3l1.9-2.2l-1.8-0.6l-0.6,1.5M129.6,76l3.1,0.1l-1.1-0.1l-2.1,0M433.2,116l-18,1.3l1-25.6
	l16.3-1.3l0.6,25.6M427.2,114l1-5.5l3.7-0.1l0.3-7.5l-7.5,0.3l0.6-10.2l-9.1,0.7M415.2,117.3l14.1-3l-2.1-0.3M426.3,91.8l-1.5,9.3
	l6.3-1.2l1.5-9.6l-6.3,1.5M428.4,113.4l2.1-0.6l0-3.9l-2.2-0.4l0.1,4.9M419.1,369.6l0.9-0.7l1.2,0.4l0.6-0.6l9-0.3l0.3,0.2l-5.7,1
	l-0.3-0.6l-6,0.6M193.7,408.9l-7.5,1.2
"/>
</svg>
