<?xml version="1.0" encoding="utf-8"?>
<!-- Generator: Adobe Illustrator 16.0.0, SVG Export Plug-In . SVG Version: 6.00 Build 0)  -->
<!DOCTYPE svg PUBLIC "-//W3C//DTD SVG 1.1//EN" "http://www.w3.org/Graphics/SVG/1.1/DTD/svg11.dtd">
<svg version="1.1"
	 id="Ebene_1" inkscape:export-ydpi="635" inkscape:export-xdpi="635" inkscape:export-filename="C:\Users\Inte\Documents\My Dropbox\RaumZeitLabor\Grafiken\RaumZeitLabor - Logo - Weiß.png" sodipodi:docname="RaumZeitLabor - Logo - Schwarz.svg" inkscape:version="0.48.0 r9654" xmlns:dc="http://purl.org/dc/elements/1.1/" xmlns:cc="http://creativecommons.org/ns#" xmlns:rdf="http://www.w3.org/1999/02/22-rdf-syntax-ns#" xmlns:svg="http://www.w3.org/2000/svg" xmlns:sodipodi="http://sodipodi.sourceforge.net/DTD/sodipodi-0.dtd" xmlns:inkscape="http://www.inkscape.org/namespaces/inkscape"
	 xmlns="http://www.w3.org/2000/svg" xmlns:xlink="http://www.w3.org/1999/xlink" x="0px" y="0px" width="226.77px"
	 height="113.391px" viewBox="0 0 226.77 113.391" enable-background="new 0 0 226.77 113.391" xml:space="preserve">
<sodipodi:namedview  inkscape:current-layer="Ebene_1" inkscape:window-maximized="1" inkscape:window-y="-8" inkscape:window-x="-8" inkscape:window-height="698" inkscape:window-width="1280" inkscape:pageshadow="2" inkscape:pageopacity="0" inkscape:cy="56.695" inkscape:cx="100.30333" inkscape:zoom="4.9389248" showgrid="false" guidetolerance="10" gridtolerance="10" objecttolerance="10" borderopacity="1" pagecolor="#ffffff" bordercolor="#666666" id="namedview6">
	</sodipodi:namedview>
<g id="text2987">
	<path id="path2991" d="M139.75,75.906v-1.105c-0.023-0.94-0.347-1.723-0.969-2.345c-0.622-0.623-1.405-0.946-2.346-0.969h-2.366
		c-0.273,0.006-0.497,0.097-0.674,0.272c-0.177,0.177-0.269,0.402-0.274,0.674v11.363c0.006,0.272,0.098,0.497,0.274,0.673
		c0.177,0.177,0.4,0.268,0.674,0.273c0.271-0.006,0.496-0.097,0.672-0.273c0.177-0.176,0.269-0.4,0.274-0.673v-4.577h1.064
		l1.835,4.912c0.115,0.25,0.285,0.426,0.509,0.528c0.223,0.102,0.461,0.109,0.715,0.024c0.252-0.099,0.433-0.263,0.543-0.494
		c0.108-0.23,0.111-0.474,0.01-0.729l-1.716-4.616c0.548-0.283,0.979-0.683,1.294-1.195
		C139.584,77.135,139.744,76.554,139.75,75.906L139.75,75.906z M135.016,77.326v-3.945h1.42c0.404,0.01,0.74,0.147,1.007,0.414
		c0.266,0.267,0.404,0.603,0.414,1.006v1.105c-0.01,0.404-0.148,0.739-0.414,1.006c-0.267,0.266-0.603,0.404-1.007,0.414H135.016z"
		/>
	<path id="path2993" d="M144.544,78.885h-1.085c-0.81,0.021-1.483,0.3-2.022,0.838c-0.538,0.538-0.817,1.213-0.838,2.022
		c0.021,0.809,0.3,1.483,0.838,2.021c0.539,0.539,1.213,0.818,2.022,0.838h1.974c0.252-0.006,0.462-0.092,0.628-0.258
		c0.167-0.167,0.253-0.376,0.259-0.629v-5.879c-0.005-0.589-0.161-1.112-0.471-1.568c-0.309-0.456-0.736-0.802-1.285-1.035
		c-0.534-0.224-1.073-0.279-1.617-0.168c-0.545,0.112-1.024,0.371-1.439,0.778c-0.181,0.182-0.273,0.392-0.277,0.632
		c0.004,0.24,0.097,0.45,0.277,0.631c0.173,0.175,0.378,0.26,0.611,0.257c0.128,0,0.242-0.021,0.345-0.062s0.198-0.105,0.286-0.195
		c0.152-0.157,0.331-0.256,0.535-0.295c0.204-0.04,0.407-0.021,0.608,0.059c0.2,0.083,0.357,0.213,0.475,0.388
		c0.116,0.175,0.175,0.367,0.177,0.579V78.885z M143.459,80.66h1.085v2.17h-1.085c-0.313-0.007-0.569-0.112-0.771-0.313
		c-0.202-0.202-0.307-0.459-0.313-0.771c0.007-0.313,0.111-0.57,0.313-0.771C142.89,80.771,143.147,80.667,143.459,80.66z"/>
	<path id="path2995" d="M151.027,84.604h1.972c0.254-0.006,0.463-0.092,0.63-0.258c0.166-0.167,0.252-0.376,0.259-0.629v-7.812
		c-0.007-0.254-0.093-0.463-0.259-0.63c-0.167-0.166-0.376-0.252-0.63-0.259c-0.252,0.007-0.462,0.093-0.628,0.259
		c-0.167,0.167-0.253,0.376-0.259,0.63v6.924h-1.085c-0.313-0.007-0.57-0.112-0.771-0.313c-0.203-0.202-0.307-0.459-0.313-0.771
		v-5.839c-0.007-0.254-0.094-0.463-0.26-0.63c-0.166-0.166-0.376-0.252-0.629-0.259c-0.252,0.007-0.462,0.093-0.628,0.259
		c-0.167,0.167-0.254,0.376-0.26,0.63v5.839c0.021,0.809,0.301,1.483,0.839,2.021C149.543,84.305,150.216,84.585,151.027,84.604z"/>
	<path id="path2997" d="M157.843,76.872h2.171v6.925c0.006,0.252,0.093,0.463,0.258,0.628c0.167,0.167,0.376,0.254,0.63,0.26
		c0.243-0.006,0.45-0.093,0.621-0.26c0.17-0.165,0.26-0.376,0.267-0.628v-6.925h1.084c0.313,0.008,0.57,0.111,0.772,0.313
		s0.306,0.459,0.313,0.772v5.839c0.007,0.252,0.094,0.463,0.26,0.628c0.167,0.167,0.376,0.254,0.629,0.26
		c0.243-0.006,0.45-0.093,0.621-0.26c0.17-0.165,0.259-0.376,0.267-0.628v-5.839c-0.021-0.811-0.304-1.484-0.847-2.022
		c-0.542-0.539-1.213-0.818-2.015-0.839h-5.917c-0.254,0.006-0.463,0.093-0.63,0.26c-0.166,0.166-0.252,0.376-0.258,0.628v7.813
		c0.006,0.252,0.092,0.463,0.258,0.628c0.167,0.167,0.376,0.254,0.63,0.26c0.244-0.006,0.451-0.093,0.621-0.26
		c0.17-0.165,0.259-0.376,0.266-0.628V76.872z"/>
	<path id="path2999" d="M167.131,72.433c0.006,0.272,0.098,0.497,0.274,0.674c0.176,0.176,0.4,0.267,0.672,0.273h3.314
		c-0.223,0.558-0.561,1.369-1.013,2.436c-0.453,1.066-0.924,2.175-1.413,3.324c-0.556,1.302-1.142,2.703-1.756,4.202
		c-0.029,0.05-0.051,0.107-0.063,0.173c-0.012,0.064-0.018,0.132-0.017,0.202c0.003,0.178,0.057,0.355,0.158,0.532
		c0.193,0.276,0.457,0.415,0.788,0.415h4.735c0.272-0.007,0.496-0.098,0.673-0.274c0.176-0.177,0.268-0.4,0.274-0.673
		c-0.007-0.272-0.099-0.497-0.274-0.674c-0.177-0.176-0.4-0.267-0.673-0.272h-3.314c0.23-0.55,0.568-1.359,1.011-2.428
		c0.443-1.067,0.908-2.172,1.396-3.313c0.532-1.299,1.124-2.706,1.774-4.222c0.03-0.05,0.051-0.108,0.063-0.173
		s0.018-0.133,0.018-0.202c-0.004-0.178-0.056-0.355-0.158-0.532c-0.194-0.276-0.457-0.414-0.789-0.414h-4.735
		c-0.271,0.006-0.496,0.097-0.672,0.272C167.229,71.936,167.137,72.162,167.131,72.433L167.131,72.433z"/>
	<path id="path3001" d="M176.872,84.468c0.552,0.224,1.101,0.278,1.647,0.168c0.546-0.112,1.036-0.372,1.469-0.78
		c0.174-0.181,0.26-0.392,0.257-0.631c0.003-0.24-0.083-0.45-0.257-0.631c-0.178-0.181-0.395-0.273-0.65-0.277
		c-0.233,0.004-0.438,0.097-0.611,0.277c-0.162,0.157-0.347,0.256-0.555,0.295c-0.209,0.039-0.419,0.02-0.63-0.059
		c-0.209-0.092-0.373-0.225-0.49-0.399c-0.118-0.175-0.178-0.377-0.18-0.607v-1.084h3.058c0.252-0.006,0.462-0.093,0.628-0.26
		c0.167-0.166,0.253-0.376,0.26-0.628v-1.974c-0.021-0.81-0.301-1.483-0.839-2.021c-0.539-0.539-1.212-0.818-2.022-0.839
		c-0.81,0.021-1.482,0.3-2.021,0.839c-0.538,0.538-0.818,1.212-0.839,2.021v3.945c0.005,0.601,0.163,1.133,0.475,1.596
		C175.88,83.884,176.315,84.232,176.872,84.468L176.872,84.468z M177.956,76.793c0.313,0.007,0.571,0.111,0.772,0.313
		c0.202,0.202,0.306,0.46,0.313,0.771v1.085h-2.169v-1.085c0.007-0.312,0.11-0.569,0.313-0.771
		C177.386,76.904,177.644,76.8,177.956,76.793z"/>
	<path id="path3003" d="M183.464,74.032c0.313-0.007,0.57-0.112,0.772-0.313c0.201-0.202,0.306-0.46,0.313-0.771
		c-0.008-0.313-0.112-0.57-0.313-0.772c-0.202-0.202-0.459-0.307-0.772-0.313c-0.313,0.008-0.569,0.111-0.771,0.313
		c-0.201,0.202-0.307,0.459-0.313,0.772c0.007,0.312,0.112,0.569,0.313,0.771C182.895,73.92,183.152,74.025,183.464,74.032z
		 M184.353,83.797v-7.891c-0.007-0.254-0.094-0.463-0.26-0.63c-0.166-0.166-0.376-0.252-0.629-0.259
		c-0.252,0.007-0.462,0.093-0.628,0.259c-0.167,0.167-0.254,0.376-0.26,0.63v7.891c0.006,0.252,0.093,0.463,0.26,0.628
		c0.166,0.167,0.376,0.254,0.628,0.26c0.253-0.006,0.463-0.093,0.629-0.26C184.259,84.26,184.346,84.049,184.353,83.797z"/>
	<path id="path3005" d="M186.527,76.872h0.69v4.951c0.021,0.811,0.3,1.483,0.839,2.022c0.538,0.538,1.212,0.818,2.021,0.839
		c0.253-0.006,0.462-0.093,0.629-0.26c0.167-0.165,0.252-0.376,0.259-0.628c-0.006-0.253-0.092-0.462-0.259-0.629
		c-0.167-0.166-0.376-0.253-0.629-0.26c-0.313-0.007-0.569-0.11-0.772-0.313c-0.201-0.201-0.306-0.459-0.313-0.772v-4.951h1.085
		c0.253-0.006,0.462-0.093,0.629-0.259s0.252-0.376,0.259-0.629c-0.006-0.252-0.092-0.462-0.259-0.628
		c-0.167-0.167-0.376-0.254-0.629-0.26h-1.085V71.96c-0.006-0.253-0.093-0.462-0.259-0.629c-0.166-0.166-0.377-0.252-0.629-0.258
		c-0.252,0.006-0.462,0.092-0.629,0.258c-0.166,0.167-0.253,0.376-0.259,0.629v3.137h-0.69c-0.253,0.006-0.463,0.093-0.629,0.26
		c-0.167,0.166-0.253,0.376-0.259,0.628c0.006,0.253,0.092,0.463,0.259,0.629C186.064,76.779,186.274,76.866,186.527,76.872
		L186.527,76.872z"/>
	<path id="path3007" d="M193.251,84.665h3.945c0.272-0.007,0.497-0.098,0.674-0.274c0.175-0.177,0.267-0.4,0.273-0.673
		c-0.006-0.272-0.099-0.497-0.273-0.674c-0.177-0.176-0.401-0.267-0.674-0.272h-2.998V72.355c-0.006-0.273-0.098-0.497-0.274-0.674
		s-0.4-0.269-0.673-0.274c-0.272,0.006-0.497,0.098-0.673,0.274c-0.177,0.177-0.268,0.4-0.273,0.674v11.362
		c0.006,0.272,0.097,0.496,0.273,0.673C192.754,84.567,192.979,84.658,193.251,84.665z"/>
	<path id="path3009" d="M202.378,78.885h-1.085c-0.81,0.021-1.483,0.3-2.022,0.838c-0.538,0.538-0.817,1.213-0.838,2.022
		c0.021,0.809,0.3,1.483,0.838,2.021c0.539,0.539,1.213,0.818,2.022,0.838h1.973c0.253-0.006,0.462-0.092,0.629-0.258
		c0.167-0.167,0.252-0.376,0.259-0.629v-5.879c-0.005-0.589-0.163-1.112-0.471-1.568c-0.309-0.456-0.737-0.802-1.285-1.035
		c-0.534-0.224-1.073-0.279-1.617-0.168c-0.545,0.112-1.024,0.371-1.44,0.778c-0.182,0.182-0.272,0.392-0.276,0.632
		c0.003,0.24,0.095,0.45,0.276,0.631c0.174,0.175,0.378,0.26,0.612,0.257c0.126,0,0.242-0.021,0.345-0.062s0.198-0.105,0.286-0.195
		c0.152-0.157,0.331-0.256,0.535-0.295c0.204-0.04,0.407-0.021,0.608,0.059c0.2,0.083,0.357,0.213,0.474,0.388
		c0.115,0.175,0.176,0.367,0.178,0.579V78.885z M201.293,80.66h1.085v2.17h-1.085c-0.313-0.007-0.57-0.112-0.771-0.313
		c-0.202-0.202-0.307-0.459-0.313-0.771c0.007-0.313,0.111-0.57,0.313-0.771C200.723,80.771,200.98,80.667,201.293,80.66z"/>
	<path id="path3011" d="M207.045,84.604h1.972c0.811-0.02,1.484-0.299,2.022-0.838c0.539-0.538,0.818-1.213,0.839-2.021v-3.787
		c-0.021-0.811-0.3-1.484-0.839-2.022c-0.538-0.539-1.212-0.818-2.022-0.839h-1.084V71.96c-0.006-0.253-0.093-0.462-0.26-0.629
		c-0.166-0.166-0.376-0.252-0.628-0.258c-0.253,0.006-0.463,0.092-0.63,0.258c-0.165,0.167-0.252,0.376-0.258,0.629v11.758
		c0.006,0.253,0.093,0.462,0.258,0.629C206.582,84.512,206.792,84.598,207.045,84.604L207.045,84.604z M207.933,76.872h1.084
		c0.313,0.008,0.571,0.111,0.773,0.313c0.201,0.202,0.305,0.459,0.313,0.772v3.787c-0.008,0.313-0.111,0.569-0.313,0.771
		c-0.202,0.201-0.46,0.307-0.773,0.313h-1.084V76.872z"/>
	<path id="path3013" d="M216.448,84.684c0.81-0.021,1.483-0.301,2.021-0.839c0.539-0.539,0.818-1.212,0.839-2.022v-3.945
		c-0.021-0.81-0.3-1.483-0.839-2.022c-0.538-0.538-1.212-0.817-2.021-0.838c-0.81,0.021-1.484,0.3-2.021,0.838
		c-0.539,0.539-0.818,1.213-0.839,2.022v3.945c0.021,0.811,0.3,1.483,0.839,2.022C214.964,84.384,215.639,84.664,216.448,84.684z
		 M216.448,76.793c0.313,0.007,0.569,0.111,0.772,0.313c0.201,0.202,0.306,0.46,0.313,0.771v3.945
		c-0.007,0.313-0.111,0.571-0.313,0.772c-0.203,0.202-0.46,0.306-0.772,0.313c-0.313-0.007-0.57-0.11-0.772-0.313
		c-0.201-0.201-0.306-0.459-0.313-0.772v-3.945c0.008-0.312,0.111-0.569,0.313-0.771C215.878,76.904,216.136,76.8,216.448,76.793z"
		/>
	<path id="path3015" d="M222.149,84.684c0.253-0.006,0.463-0.093,0.629-0.26c0.166-0.165,0.253-0.376,0.259-0.628v-6.925h1.085
		c0.178-0.003,0.355,0.043,0.533,0.139c0.233,0.124,0.462,0.155,0.685,0.093c0.224-0.062,0.403-0.198,0.538-0.408
		c0.118-0.233,0.148-0.463,0.092-0.687c-0.058-0.223-0.199-0.402-0.428-0.537c-0.453-0.253-0.927-0.378-1.419-0.375h-1.974
		c-0.252,0.006-0.462,0.093-0.628,0.26c-0.167,0.166-0.254,0.376-0.26,0.628v7.813c0.006,0.252,0.093,0.463,0.26,0.628
		C221.687,84.592,221.897,84.678,222.149,84.684L222.149,84.684z"/>
</g>
<path d="M216.143,59.321c-2.138,1.815-4.345,3.692-6.533,4.271c-2.279,0.602-7.689-2.025-9.638-3.623
	c-0.169-0.139-0.337-0.277-0.504-0.416c-2.45-2.037-5.231-4.346-11.978-3.915c-4.654,0.299-7.555,1.481-10.626,2.735
	c-0.517,0.212-1.043,0.427-1.592,0.644c-3.192,1.259-12.03,3.966-16.483,4.801c-4.997,0.937-14.002,1.016-17.309-0.98
	c-2.975-1.797-5.68-3.854-7.977-6.031c2.592-4.372,5.203-8.857,7.114-13.227c1.382-3.159,3.346-12.84,3.75-15.972
	c0.917-7.094,1.528-15.78-1.903-20.036c-3.205-3.974-7.438-5.48-11.918-4.241c-2.658,0.735-5.203,3.957-7.781,9.849
	c-1.533,3.502-2.303,7.805-2.907,11.931c-1.135,7.748,0.073,16.323,3.403,24.148c1.298,3.049,3.262,5.784,5.419,8.14
	c-0.798,1.345-1.563,2.646-2.305,3.947c-0.874,1.533-1.858,3.019-2.811,4.456c-1.079,1.629-2.185,3.297-3.175,5.095
	c-1.705-1.477-3.551-2.561-6.314-3.269c0.932-2.125,1.735-4.467,2.25-7.508c0.856-5.046,1.072-12.175-2.75-17.486
	c-2.99-4.155-9.048-6.206-13.489-6.078c-5.228,0.147-8.481,1.065-13.216,2.559c-1.979,0.624-3.651,1.293-5.186,2.277
	c-2.064-2.184-4.703-4.174-6.481-5.068c-5.275-2.654-14.957-2.421-19.53,1.852c-1.045,0.976-1.883,2.068-2.693,3.126
	c-0.415,0.542-0.806,1.054-1.217,1.539c-0.289,0.341-0.582,0.681-0.875,1.02c-1.047,1.21-2.128,2.461-3.06,3.874
	c-1.476,2.236-3.05,4.473-4.572,6.637l-0.751,1.068c-0.334,0.475-0.664,0.954-0.995,1.434c-1.339,1.945-2.604,3.781-4.129,5.391
	c-0.857,0.904-2.069,1.577-3.507,1.946c-3.085,0.792-6.472,0.306-9.377-0.272c-0.964-0.191-1.983-0.429-3.102-0.716l0.364-0.9
	l-1.077-0.436l-0.108,0.266l-0.006,0.017l-8.605-7.235l0.413-1.018l-4.311-1.743l-0.848,2.097L3.982,52.96L3.48,54.203l3.237,1.308
	L4.232,61.66l-3.237-1.309l-0.501,1.242l3.237,1.309l-1.027,2.542l4.311,1.743l0.41-1.021l11.213,0.782l-0.11,0.271l1.077,0.437
	l0.339-0.838c1.392,0.367,2.627,0.655,3.805,0.891c3.136,0.624,7.23,1.213,11.083,0.224c2.139-0.55,3.987-1.596,5.34-3.024
	c1.732-1.827,3.142-3.874,4.505-5.855c0.323-0.468,0.646-0.938,0.974-1.404l0.75-1.067c1.539-2.185,3.129-4.446,4.637-6.729
	c0.795-1.206,1.75-2.309,2.76-3.478c0.302-0.351,0.604-0.699,0.902-1.052c0.47-0.557,0.909-1.129,1.333-1.684
	c0.747-0.976,1.454-1.897,2.265-2.655c3.32-3.102,11.122-3.267,15.18-1.226c1.409,0.708,3.597,2.389,5.271,4.111
	c-0.588,0.631-1.171,1.348-1.761,2.168c-2.45,3.408-2.956,4.167-4.357,7.911c-1.143,3.055-1.595,5.251-1.729,8.391
	c-0.002,0.056-0.23,5.696,1.131,8.404c1.197,2.39,3.599,3.638,5.354,3.638c3.248,0,5.668-1.948,7.196-5.791
	c0.898-2.259,1.949-5.274,2.102-8.578c0.189-4.102-0.294-10.119-2.225-14.717c-0.115-0.275-0.254-0.554-0.415-0.837
	c1.149-0.694,2.425-1.186,3.986-1.679c4.401-1.388,7.343-2.247,12.167-2.383c3.348-0.095,8.076,1.443,10.261,4.481
	c3.046,4.233,2.813,10.275,2.082,14.598c-0.519,3.062-1.362,5.307-2.377,7.476c-2.258-0.214-3.868,0.025-6.221,0.845
	c-1.896,0.661-3.836,1.476-6.721,4.146l-0.064,0.061c-4.683,4.3-3.579,7.608-2.504,9.197c0.814,1.205,2.062,1.966,3.608,2.201
	c2.435,0.371,5.243-0.665,6.759-1.878c3.474-2.78,5.041-5.649,6.235-8.121c0.351-0.725,0.708-1.433,1.055-2.117
	c0.019-0.035,0.038-0.072,0.056-0.108c3.248,0.693,4.77,1.87,6.26,3.31c-0.444,0.857-0.954,1.685-1.481,2.547
	c-0.396,0.643-0.803,1.308-1.201,2.013c-0.729,1.289-1.463,2.478-2.172,3.625c-1.132,1.833-2.201,3.564-3.088,5.453
	c-1.221,2.596-4.458,9.486-2.339,14.976c1.926,4.985,5.109,8.339,8.514,8.972c0.507,0.095,1.005,0.141,1.498,0.141v0.001
	c3.896,0,7.314-2.902,9.335-8.031c2.11-5.359,2.772-13.291,1.574-18.858c-0.712-3.306-1.294-4.486-2.872-7.41
	c-0.818-1.518-1.938-2.909-3.142-4.206c1.017-2.004,2.239-3.85,3.521-5.782c0.987-1.489,2.008-3.031,2.944-4.674
	c0.576-1.009,1.168-2.023,1.78-3.061c3.102,2.811,6.188,4.843,7.997,5.936c4.931,2.979,15.803,2.256,20.005,1.469
	c4.731-0.888,13.782-3.663,17.184-5.004c0.564-0.221,1.106-0.442,1.634-0.659c3.013-1.229,5.392-2.199,9.42-2.459
	c5.223-0.333,7.011,1.153,9.277,3.037c0.173,0.143,0.348,0.287,0.523,0.432c1.589,1.305,8.609,5.544,13.057,4.368
	c3.03-0.802,5.577-2.965,8.039-5.059c3.27-2.778,5.398-4.417,7.43-3.746l1.205-3.65C223.039,53.458,219.533,56.439,216.143,59.321z
	 M82.841,59.833c-0.126,2.733-1.045,5.357-1.833,7.337c-1.186,2.985-2.56,3.369-3.624,3.369c-0.319,0-1.391-0.469-1.917-1.519
	c-0.597-1.19-0.808-4.609-0.727-6.516c0.119-2.758,0.481-4.511,1.49-7.21c1.265-3.381,1.613-3.865,3.878-7.014
	c0.312-0.435,0.621-0.833,0.928-1.196C82.618,51.067,83.001,56.407,82.841,59.833z M107.793,71.729
	c-1.059,2.188-2.329,4.514-5.176,6.792c-0.838,0.671-2.558,1.268-3.78,1.079c-0.626-0.095-0.872-0.361-1.001-0.552
	c-0.844-1.251,0.579-2.982,1.92-4.216l0.076-0.07c2.348-2.173,3.764-2.774,5.374-3.335c1.213-0.424,2.109-0.643,3.077-0.692
	C108.119,71.061,107.956,71.392,107.793,71.729z M125.51,86.133c1.038,4.83,0.439,11.983-1.396,16.64
	c-0.581,1.473-2.767,6.224-6.555,5.521c-1.992-0.37-4.254-3.013-5.631-6.578c-1.527-3.956,1.204-9.766,2.232-11.954
	c0.794-1.691,1.808-3.33,2.88-5.068c0.729-1.18,1.482-2.399,2.249-3.757c0.362-0.644,0.752-1.277,1.129-1.89
	c0.328-0.533,0.66-1.073,0.981-1.633c0.618,0.741,1.178,1.52,1.613,2.326C124.49,82.477,124.902,83.308,125.51,86.133z
	 M130.753,53.91c-1.738-2.042-3.089-4.13-3.952-6.157c-3.057-7.185-4.169-15.028-3.136-22.087c0.564-3.862,1.273-7.86,2.625-10.947
	c2.949-6.739,4.919-7.583,5.282-7.685c0.705-0.194,1.386-0.292,2.044-0.292c2.179,0,4.109,1.073,5.859,3.241
	c1.886,2.339,2.25,8.102,1.082,17.129c-0.402,3.111-2.337,12.359-3.459,14.924C135.411,45.896,133.1,49.938,130.753,53.91z"/>
</svg>
