<?xml version="1.0" encoding="UTF-8" standalone="no"?>
<!-- Created with Inkscape (http://www.inkscape.org/) -->

<svg
   xmlns:dc="http://purl.org/dc/elements/1.1/"
   xmlns:cc="http://creativecommons.org/ns#"
   xmlns:rdf="http://www.w3.org/1999/02/22-rdf-syntax-ns#"
   xmlns:svg="http://www.w3.org/2000/svg"
   xmlns="http://www.w3.org/2000/svg"
   xmlns:sodipodi="http://sodipodi.sourceforge.net/DTD/sodipodi-0.dtd"
   xmlns:inkscape="http://www.inkscape.org/namespaces/inkscape"
   width="767.19318"
   height="753.51379"
   id="svg2"
   version="1.1"
   inkscape:version="0.48.4 r9939"
   sodipodi:docname="Dog-1.svg">
  <defs
     id="defs4" />
  <sodipodi:namedview
     id="base"
     pagecolor="#ffffff"
     bordercolor="#666666"
     borderopacity="1.0"
     inkscape:pageopacity="0.0"
     inkscape:pageshadow="2"
     inkscape:zoom="0.91732193"
     inkscape:cx="581.75124"
     inkscape:cy="376.7569"
     inkscape:document-units="px"
     inkscape:current-layer="layer1"
     showgrid="false"
     inkscape:window-width="1600"
     inkscape:window-height="881"
     inkscape:window-x="-4"
     inkscape:window-y="-4"
     inkscape:window-maximized="1"
     inkscape:snap-global="false"
     width="0px"
     height="0px"
     fit-margin-top="0"
     fit-margin-left="0"
     fit-margin-right="0"
     fit-margin-bottom="0" />
  <metadata
     id="metadata7">
    <rdf:RDF>
      <cc:Work
         rdf:about="">
        <dc:format>image/svg+xml</dc:format>
        <dc:type
           rdf:resource="http://purl.org/dc/dcmitype/StillImage" />
        <dc:title></dc:title>
      </cc:Work>
    </rdf:RDF>
  </metadata>
  <g
     inkscape:label="Layer 1"
     inkscape:groupmode="layer"
     id="layer1"
     transform="translate(270.59746,-37.254649)">
    <g
       style="fill:none;stroke:#000000;stroke-width:0.37855774;stroke-miterlimit:4;stroke-opacity:1;stroke-dasharray:none"
       id="g920"
       transform="matrix(2.641605,0,0,2.641605,422.14674,-1836.303)" />
    <g
       style="fill:none;stroke:#000000;stroke-width:0.37855774;stroke-miterlimit:4;stroke-opacity:1;stroke-dasharray:none"
       id="g56"
       transform="matrix(2.641605,0,0,2.641605,-250.33178,-1870.5367)">
      <g
         style="fill:none;stroke:#000000;stroke-width:0.37855774;stroke-miterlimit:4;stroke-opacity:1;stroke-dasharray:none"
         transform="translate(12.267081,0.93167702)"
         id="g46" />
      <g
         style="fill:none;stroke:#000000;stroke-width:0.37855774;stroke-miterlimit:4;stroke-opacity:1;stroke-dasharray:none"
         id="g50"
         transform="matrix(0.98904714,-0.14759999,0.14759999,0.98904714,-93.464685,45.608652)" />
    </g>
    <path
       id="path785"
       style="fill:none;stroke:#000000;stroke-width:1;stroke-linecap:round;stroke-linejoin:miter;stroke-miterlimit:4;stroke-opacity:1;stroke-dasharray:none"
       d="m -180.32748,695.60351 c -16.13611,11.14855 -10.91155,13.16497 -18.21754,23.93165 m 81.66416,-150.82492 c -28.00083,46.1621 -71.83271,26.7061 -111.8968,89.97888 m 95.74677,79.59668 c -5.95632,6.11019 -10.16841,14.93413 -9.89754,29.84837 m 249.84118,-44.84484 c 7.67653,6.55089 14.54745,19.22198 16.0716,31.92528 m -46.035989,-8.88237 c 13.480718,6.52576 13.691359,22.1867 15.367933,34.61456 M -51.410185,663.30342 c -3.077892,-14.61196 -4.907494,-26.91676 7.204555,-41.5287 M -75.352134,357.60598 c 6.414979,-6.74103 15.674492,-14.87382 16.150033,-39.22157 m -1.153562,42.68228 c 6.124957,-5.0537 10.793941,-13.01938 13.842908,-24.22507 m -88.825315,254.94013 c 18.51173,-0.7327 32.08491,-5.91135 46.143028,-20.76436 M 397.61371,62.290709 c 16.21494,-9.130682 27.07577,-20.201278 72.67524,-11.535784 m -55.37161,25.378692 c 9.00596,-3.794692 17.35953,-8.567967 32.30011,-3.46074 M 295.86724,442.52386 c -23.3952,32.15565 -84.62516,33.64861 -115.95579,7.57232 -31.33063,-26.07629 -50.21541,-92.64122 -20.28055,-118.81802 52.30983,-45.74277 161.22787,76.89596 136.23634,111.2457 z M 66.05322,471.74899 c 1.826511,0.42866 6.421741,0.24145 8.252902,0.48276 M 16.336074,437.89664 c 5.060919,9.63623 15.28673,16.31981 28.608793,24.38487 M 397.23308,254.91702 c 140.26768,0.56068 126.90228,242.75951 -20.1444,186.46514 6.65045,-11.98718 11.5606,-25.45921 14.95277,-38.72044 M 71.350007,630.02245 c 4.960459,25.76362 15.798066,39.86124 42.483503,48.83265 m 20.99345,-142.73722 c 15.16923,30.03397 -21.49532,88.65646 -90.882521,101.77261 -0.593965,-2.62739 -0.07397,-5.25481 0.973008,-7.8822 -10.153273,8.43065 -20.881517,15.90307 -26.278105,32.2615 -13.4515282,-11.1705 -22.9399884,-13.04792 -25.0088406,-35.71104 -3.254563,0.8646 -3.8806494,5.23381 -4.7518514,9.27621 -35.806665,-39.37323 -47.841157,-79.02946 -14.677523,-119.22375 -7.064418,2.30781 -10.283531,4.89989 -13.494613,9.66822 -3.537585,-23.39738 11.228169,-60.01834 50.696627,-56.0809 C 8.7103677,468.05151 7.9142672,464.64001 0.6514384,465.53969 37.048027,452.0227 59.418115,466.79477 74.991883,477.7098 m -45.954471,75.30923 c 27.46453,-6.37456 43.181683,-16.90107 57.986453,-39.46302 -3.719248,20.4418 -8.318388,27.92314 -20.939554,37.85227 M -149.03791,653.02494 c 6.3249,12.57179 16.49886,16.09321 28.88368,18.46799 m -29.76862,-8.69141 c 8.31216,9.94728 14.64548,10.92311 19.93918,12.22556 m 191.648814,24.526 c 13.677332,3.31429 27.837999,-6.35586 37.663476,-14.26052 m -30.783046,21.26223 c 12.962646,0.10091 21.299499,-6.19234 25.718323,-9.38509 M -202.69485,584.46554 c 3.85888,4.11678 8.26305,7.50649 8.58448,16.33988 m -12.56047,-8.36083 c 3.90593,1.45375 7.81189,3.13009 11.71782,8.20271 m 125.083854,-182.29222 3.053881,15.26937 -9.161641,-4.58081 1.526953,10.68857 m 216.125663,59.31347 c 0.54982,-5.18909 -2.0356,-22.59614 -16.08854,-26.01509 -0.43497,-11.70091 -6.4946,-21.43863 -19.90589,-27.542 M 66.023845,351.17388 c 21.110096,-19.61103 49.849335,-17.40717 48.708475,-1.89374 -14.6029,198.5713 172.67296,177.75057 200.66441,134.69174 5.7275,-8.81051 17.71925,25.38784 7.15291,35.16531 M 113.92951,371.98049 c -1.57876,36.24781 -16.010107,89.63845 -4.38792,113.18231 13.28363,25.33788 59.44594,8.59108 59.44594,8.59108 m 76.17689,-174.17053 c -5.39762,-3.86282 -2.8593,-16.09437 5.66952,-27.31995 8.52884,-11.22558 19.81843,-17.19421 25.21604,-13.33136 7.02342,8.3643 -21.56902,41.91809 -30.88556,40.65131 z M 259.31225,301.332 c -3.15416,-2.25728 -1.67087,-9.40493 3.31304,-15.96475 4.98397,-6.55979 11.58117,-10.04763 14.73533,-7.79036 4.10423,4.88779 -12.60413,24.49537 -18.04837,23.75511 z m 24.37686,43.95686 c -5.90865,-3.02382 -5.20351,-15.49605 1.575,-27.85754 6.77853,-12.36147 17.06349,-19.93107 22.97215,-16.90723 8.18106,7.23602 -15.14567,44.64257 -24.54715,44.76477 z m 11.29897,-20.13965 c -3.45278,-1.76702 -3.04074,-9.05531 0.92036,-16.27891 3.96116,-7.22358 9.97129,-11.64697 13.42408,-9.87995 4.78071,4.22847 -8.85056,26.08744 -14.34444,26.15886 z m -27.66562,-68.70682 c 11.31522,-5.41762 20.53396,-4.54578 27.81484,2.13959 m 19.25644,23.53565 c 10.45264,-0.37297 18.37876,4.4711 14.97722,21.39605 m 49.48201,-41.16704 c 37.47698,36.35969 65.76902,82.73531 70.95112,125.25046 m -45.61144,-74.57106 c 12.5489,14.96472 18.87888,21.76149 26.06368,50.67938 m -6.51592,53.57532 c 25.36184,22.61319 27.90671,55.39823 14.47982,84.70694 M 423.4552,433.90864 c 17.46508,20.44145 15.95363,46.4172 2.29209,67.95919 M 74.155286,460.05572 c -1.279382,34.79329 12.133183,67.1115 61.065354,76.03543 15.89696,1.415 26.25082,-0.54787 43.17745,-7.06424 39.09893,23.90642 61.57103,58.28049 25.76743,102.33272 29.8652,-3.74004 63.89697,2.93641 79.54298,-36.35155 4.24049,8.13709 3.83743,16.27416 -4.4813,24.41126 31.67483,-6.42146 60.2473,-43.92239 48.35081,-77.47926 9.19098,0.60459 19.10445,18.7507 19.10445,18.7507 12.79604,-26.65919 7.33561,-72.30551 -19.57617,-90.68725 23.68408,-0.3702 27.25276,16.02244 37.02965,27.24155 -9.4343,-24.52918 -15.28583,-39.8105 -46.93566,-55.78032 -23.51172,-11.8635 16.23588,-107.58935 49.29425,-135.02846 24.09841,20.92906 31.22245,50.36172 25.4726,96.22991 49.8624,-65.99442 31.07132,-174.21231 -66.98358,-188.68609 50.36233,-36.51765 107.55108,6.06491 107.55108,6.06491 0,0 -30.93941,-61.46433 -145.28828,-19.27291 21.86126,-95.35021 109.15725,-31.69004 138.68426,-94.34307 9.26802,-19.665667 4.6893,-68.030444 -50.16368,-67.812511 -54.85298,0.217932 -146.08976,80.466911 -144.34483,192.459781 -17.17368,33.77174 -41.53506,62.15266 -72.89638,85.28364 -34.98132,-26.5066 -117.986495,-30.3596 -140.545458,27.36861 6.934477,-4.71225 13.566754,-10.33102 22.203112,-9.93761 -17.894443,24.76045 -28.968553,56.34124 -23.827198,104.13754 -23.0634567,-5.06581 -46.126914,-3.09282 -69.190397,6.07294 66.499051,-162.28763 -137.512919,-102.94303 -46.508811,6.74003 -37.687198,20.89076 -56.629278,54.5623 -55.181178,102.13623 l -27.82983,16.74664 c -55.18923,-36.62324 -113.53407,17.98233 -73.86015,30.08875 -16.07356,30.79063 14.81174,51.15154 26.19186,59.25725 -4.98661,33.09723 0.94876,48.83417 31.52871,60.59148 21.30201,80.57254 161.091735,62.89183 147.112757,-56.2673 17.499022,12.20886 38.996562,23.14083 64.884027,-0.11517 -4.9007587,10.46173 -7.7608509,22.1479 -3.8279237,37.90985 -9.44154532,8.69825 -18.0215048,54.56449 -0.4923687,69.9309 28.7978794,25.24502 78.0191694,28.74277 113.7919984,-15.84298 46.35129,-13.09525 12.34181,-59.94734 -9.20547,-76.29771 23.44205,-4.37799 26.47768,-24.69964 14.38029,-40.17107 8.53825,-0.29024 7.14539,0.91436 13.91611,7.69422 -0.78281,-27.38964 -4.92562,-41.1421 -20.66596,-51.08127" />
  </g>
</svg>
