<?xml version="1.0" encoding="UTF-8" standalone="no"?>
<!-- Created with Inkscape (http://www.inkscape.org/) -->

<svg
   xmlns:dc="http://purl.org/dc/elements/1.1/"
   xmlns:cc="http://creativecommons.org/ns#"
   xmlns:rdf="http://www.w3.org/1999/02/22-rdf-syntax-ns#"
   xmlns:svg="http://www.w3.org/2000/svg"
   xmlns="http://www.w3.org/2000/svg"
   xmlns:sodipodi="http://sodipodi.sourceforge.net/DTD/sodipodi-0.dtd"
   xmlns:inkscape="http://www.inkscape.org/namespaces/inkscape"
   width="745.08813"
   height="347.89539"
   id="svg2"
   version="1.1"
   inkscape:version="0.48.4 r9939"
   sodipodi:docname="Drawbot_Logo.svg">
  <defs
     id="defs4" />
  <sodipodi:namedview
     id="base"
     pagecolor="#ffffff"
     bordercolor="#666666"
     borderopacity="1.0"
     inkscape:pageopacity="0.0"
     inkscape:pageshadow="2"
     inkscape:zoom="1.2439088"
     inkscape:cx="350.14165"
     inkscape:cy="170.605"
     inkscape:document-units="px"
     inkscape:current-layer="layer1"
     showgrid="false"
     fit-margin-top="0"
     fit-margin-left="0"
     fit-margin-right="0"
     fit-margin-bottom="0"
     inkscape:window-width="1600"
     inkscape:window-height="881"
     inkscape:window-x="-4"
     inkscape:window-y="-4"
     inkscape:window-maximized="1"
     showguides="true"
     inkscape:guide-bbox="true" />
  <metadata
     id="metadata7">
    <rdf:RDF>
      <cc:Work
         rdf:about="">
        <dc:format>image/svg+xml</dc:format>
        <dc:type
           rdf:resource="http://purl.org/dc/dcmitype/StillImage" />
        <dc:title />
      </cc:Work>
    </rdf:RDF>
  </metadata>
  <g
     inkscape:label="Layer 1"
     inkscape:groupmode="layer"
     id="layer1"
     transform="translate(-250.99117,421.38143)">
    <path
       id="path4313"
       style="fill:none;stroke:#000000;stroke-width:1;stroke-miterlimit:4;stroke-opacity:1;stroke-dasharray:none"
       d="m 976.25599,-183.76784 c 7.59957,2.74144 13.01263,9.99503 13.01263,18.54151 0,6.17635 -2.82832,11.69641 -7.27482,15.31126 7.46336,4.24485 12.55161,12.25013 12.55161,21.4487 0,13.63028 -11.11151,24.67896 -24.74447,24.67896 -13.63295,0 -24.69319,-11.04868 -24.69319,-24.67896 0,-9.09212 4.97436,-17.0377 12.29535,-21.31948 -4.57485,-3.61048 -7.53094,-9.16109 -7.53094,-15.44048 0,-8.42052 5.26773,-15.57978 12.7052,-18.4123 l 0.0697,-13.95518 0.0512,-166.87135 c -1.74865,-47.26466 -65.32475,-59.00005 -81.17394,-10.49862 L 815.8077,-202.1291 c 22.05071,10.98257 37.12581,33.74961 37.12581,60.1651 0,37.13291 -29.92285,66.944067 -67.06711,66.944067 -37.14429,0 -67.06711,-29.811157 -67.06711,-66.944067 0,-15.84456 5.35974,-30.47247 14.45916,-41.93413 -103.43555,-58.16415 -231.97958,-147.95706 -355.21235,-218.07009 -25.99815,-13.29596 -61.57338,1.45397 -61.52153,37.17294 l -10e-5,0 c 0.0638,81.9872 0.14603,156.36566 0.14849,234.88584 -10e-5,5.78968 0.26382,10.14522 0.67107,12.84622 0.62444,3.9934 1.46632,6.97731 2.91694,11.77764 -4.3468,-0.0479 -6.18629,0.28223 -11.0738,0.14603 -1.72417,-2.3241 -3.26096,-5.3988 -3.93056,-8.54625 -2.89151,2.25268 -8.23073,6.34494 -11.59182,7.55135 -4.99704,1.79358 -7.8013,2.1453 -12.4487,2.1453 -9.06341,0 -16.83002,-5.62528 -21.02649,-11.07969 -4.03324,-5.24223 -7.35832,-13.22162 -7.65068,-26.42662 -0.25002,-11.29532 2.87973,-20.06116 9.29447,-27.78748 6.44422,-7.76177 14.50536,-11.1112 25.15348,-11.11126 5.63482,6e-5 11.56473,1.51284 16.18624,3.41628 0.0383,-58.9267 0.22211,-125.37035 -0.23283,-186.6128 -1.85505,-43.81316 41.38026,-67.94404 79.97367,-50.59876 77.90561,41.63125 241.92987,151.03311 359.56702,220.82616 11.67302,-9.91272 26.81022,-15.79084 43.38542,-15.79084 5.97722,0 11.76745,0.77617 17.27348,2.22259 l 64.93516,-171.68379 c 19.1353,-62.24427 107.51448,-51.67788 108.02087,17.5377 l 0.0966,163.46884 z m -689.05495,15.16582 c -6.61782,0.14633 -11.98023,2.51653 -15.68475,8.28551 -3.58394,5.58114 -5.07635,10.54437 -5.07632,17.71202 -3e-5,7.62046 1.41982,13.15657 5.02603,18.53397 3.60152,5.37044 7.36728,8.04817 12.73631,8.04817 5.79336,0.21075 13.28335,-2.67383 19.14537,-6.21733 0,-16.11854 0,-30.68826 0,-44.49994 -5.73148,-1.47439 -11.28004,-1.84025 -16.14664,-1.8624 z m 498.82406,-34.69684 c 33.90946,0 61.22641,27.36374 61.22641,61.33876 0,33.89906 -27.31695,61.114069 -61.22641,61.114069 -33.9095,0 -61.22641,-27.215009 -61.22641,-61.114069 0,-33.97502 27.31691,-61.33876 61.22641,-61.33876 z m 92.13291,5.93994 0,18.11893 -10.35368,0 0,11.72021 10.35368,0 0,44.17046 c 0.32036,8.84369 2.70735,13.37381 6.57475,16.04875 3.49595,2.418 8.87888,3.55442 13.65206,3.34085 4.43033,-0.16996 12.76505,-1.70378 12.76505,-1.70378 l -0.97916,-11.4326 -10.14387,1.70377 c -1.73019,0.10675 -4.17668,0.25647 -5.9813,-2.12973 -0.58869,-0.37936 -2.11874,-3.10831 -2.44156,-8.08442 l -0.0534,-41.9133 16.18094,0 1.20262,-11.72021 -17.33018,0.0534 0,-18.17231 -13.44581,0 z m -478.54537,17.69466 -2.62711,13.21203 c -1.73119,-0.21843 -4.53652,-0.48572 -6.0594,-0.48578 -4.84364,-0.0512 -9.91019,1.03966 -13.74685,3.6236 -3.35523,2.08039 -6.07661,4.69725 -6.96589,7.17747 l 0,50.93736 -13.40766,0.0245 c 0,0 0.0435,-52.14368 -0.0739,-67.66367 -0.0215,-3.01941 -0.38991,-6.09789 -0.36681,-6.44244 l 12.55298,1.6e-4 c 0.79583,2.94636 1.12259,5.64537 1.17572,10.90716 l 0.58443,0.0899 c 0.876,-2.21675 5.95443,-7.08433 11.00598,-9.2903 4.74078,-2.07024 6.89901,-2.47209 12.04127,-2.88141 3.00588,-0.10738 4.90663,0.46893 5.88742,0.79264 z m 265.67018,10.94529 c 8.62377,-0.55774 12.97796,2.92585 16.02893,7.06302 3.2459,4.64436 4.60158,10.93188 4.60163,19.53737 -5e-5,7.21014 -1.48826,13.45719 -5.00703,18.88268 -3.96673,6.11612 -9.90661,8.5209 -17.4531,8.55013 -5.36683,0.0215 -10.57036,-0.76055 -13.14859,-2.24823 l -0.0276,-46.80042 c 3.61268,-2.47607 8.60426,-4.37096 15.00562,-4.98455 z m -28.41539,62.90402 c 3.06101,0.31294 16.36718,1.74945 24.57149,1.77473 14.02719,0 24.00427,-3.77887 29.7032,-10.74019 6.20193,-7.57572 8.90395,-17.6032 8.78603,-28.78848 -9e-5,-11.59008 -2.7149,-20.68361 -7.67712,-26.8614 -5.37223,-7.12663 -13.59025,-10.13631 -22.94015,-9.95934 -4.99047,0.0644 -15.14846,1.98017 -18.4385,6.3547 l -0.60858,-0.0736 0.0307,-37.33716 -13.45536,0.0123 c 0.0684,0.0307 0.0277,105.61842 0.0277,105.61842 z m -106.33066,-73.42565 12.96804,54.19551 0.57582,7e-5 13.01489,-54.17429 9.05705,-0.0215 13.92676,54.0568 0.54615,-0.0123 12.39254,-54.02247 13.9751,-0.003 -21.86319,74.09362 -9.67248,0.003 -13.4284,-55.13115 -0.55198,-0.003 -12.95347,55.13335 -9.61938,0.0153 -22.22908,-74.0918 z m -83.88575,41.00095 c -6.10523,3.21102 -8.67558,8.12761 -8.56185,12.808 0.11043,7.08378 3.35799,9.53731 10.28449,9.55026 4.40959,0 8.11685,-0.97893 12.25997,-2.96217 3.3327,-1.61573 4.33453,-2.1235 7.63756,-4.70934 0,-7.51265 -0.0402,-12.93182 -0.0402,-19.37502 -9.60067,0.21045 -16.19686,1.77577 -21.57998,4.68827 z m -6.80361,-39.07148 c -3.96783,1.58397 -8.68665,3.95347 -12.4729,8.03881 l 6.80909,8.58053 c 7.28004,-4.86484 12.78319,-9.0742 22.1195,-8.75025 3.63348,9e-5 6.62301,1.10191 8.84357,2.92612 3.33075,3.10782 3.09193,9.24321 3.09193,15.0758 -9.214,0.18009 -15.38673,1.06047 -21.96255,2.83532 -7.13529,1.9259 -12.88804,5.16717 -16.65208,9.283 -4.29252,4.80263 -5.84515,9.05629 -5.95393,15.91312 -0.10891,6.8568 2.31106,11.99237 6.40999,15.0482 4.3824,3.26716 8.08681,4.36664 14.67825,4.36664 5.38698,0 10.6375,-1.3261 15.03503,-3.62008 2.85695,-1.2493 6.55657,-4.55088 9.82517,-7.33899 0.74119,4.12556 1.95609,6.47533 4.37852,8.61371 2.3541,2.01727 5.84066,2.5894 8.24161,2.35508 3.60235,-0.35153 4.73937,-0.69711 7.42888,-1.79518 1.8801,-0.97647 2.59209,-1.52416 4.14518,-2.96634 l -2.12719,-6.60463 c -2.19169,0.34767 -3.58541,0.34834 -5.69731,0.44374 -4.69728,0.14266 -4.30298,-5.63841 -4.45769,-11.57957 l 0,-31.57131 c 0,-7.24414 -1.87394,-12.19316 -6.88165,-16.43618 -9.15559,-7.90536 -24.57257,-6.75118 -34.80142,-2.81754 z m 481.9558,-223.8018 c 0.14633,0.0123 0.29174,0.0374 0.43467,0.0724 19.53663,0.39568 35.35327,16.37602 35.35327,36.0053 0,19.87654 -16.20121,36.04152 -36.07772,36.04152 -19.87651,0 -36.04152,-16.16498 -36.04152,-36.04152 0,-19.69078 15.87686,-35.74297 35.49819,-36.0415 0.0245,-3.6e-4 0.0479,3.2e-4 0.0724,0 0.15553,-0.0245 0.31331,-0.0368 0.4709,-0.0362 0.0966,-0.006 0.19326,-0.006 0.2899,0 z m -0.28991,5.79563 c -16.73724,0 -30.24588,13.54484 -30.24588,30.28209 0,16.73725 13.50864,30.24592 30.24588,30.24592 16.73725,0 30.28213,-13.50867 30.28213,-30.24592 0,-16.73725 -13.54488,-30.28209 -30.28213,-30.28209 z m -564.0934,-6.12575 c -0.14633,0.0123 -0.29174,0.0374 -0.43467,0.0724 -19.53663,0.39568 -35.35327,16.37602 -35.35327,36.0053 0,19.87653 16.20121,36.04152 36.07772,36.04152 19.87651,0 36.04153,-16.16499 36.04153,-36.04152 0,-19.69079 -15.87687,-35.74297 -35.4982,-36.04149 -0.0245,-3.7e-4 -0.0479,3e-4 -0.0724,0 -0.15554,-0.0245 -0.31331,-0.0368 -0.4709,-0.0362 -0.0966,-0.006 -0.19327,-0.006 -0.2899,0 z m 0.2899,5.79563 c 16.73724,0 30.24589,13.54484 30.24589,30.28209 0,16.73724 -13.50865,30.24592 -30.24589,30.24592 -16.73724,0 -30.28211,-13.50868 -30.28211,-30.24592 0,-16.73725 13.54487,-30.28209 30.28211,-30.28209 z m 428.1301,221.02741 c 17.83881,0 32.11556,14.29019 32.11556,32.11556 0,17.82538 -14.29019,32.11557 -32.11556,32.11557 -17.82538,0 -32.11556,-14.29019 -32.11556,-32.11557 0,-17.82537 14.27674,-32.11556 32.11556,-32.11556 z m 0,-13.33632 c 25.43843,0 45.93123,20.5279 45.93123,46.01549 0,25.43065 -20.4928,45.846961 -45.93123,45.846961 -25.43847,0 -45.93124,-20.416311 -45.93124,-45.846961 0,-25.48759 20.49277,-46.01549 45.93124,-46.01549 z m 0,13.33632 c 17.83881,0 32.11556,14.29019 32.11556,32.11556 0,17.82538 -14.29019,32.11557 -32.11556,32.11557 -17.82538,0 -32.11556,-14.29019 -32.11556,-32.11557 0,-17.82537 14.27674,-32.11556 32.11556,-32.11556 z"
       inkscape:connector-curvature="0"
       sodipodi:nodetypes="cscssscscccccssscccccccccssssscccccsccccccsssccccsssssccccccscccccccccccccccccccccccccsccccccscccccccscccccccccccccccccccccccccccccccccccccccsccsscccscccccsccccssscccccsssssccssscccccssssssssssssssssssss" />
  </g>
</svg>
