<?xml version="1.0" encoding="UTF-8" standalone="no"?>
<!-- Created with Inkscape (http://www.inkscape.org/) -->

<svg
   xmlns:dc="http://purl.org/dc/elements/1.1/"
   xmlns:cc="http://creativecommons.org/ns#"
   xmlns:rdf="http://www.w3.org/1999/02/22-rdf-syntax-ns#"
   xmlns:svg="http://www.w3.org/2000/svg"
   xmlns="http://www.w3.org/2000/svg"
   xmlns:sodipodi="http://sodipodi.sourceforge.net/DTD/sodipodi-0.dtd"
   xmlns:inkscape="http://www.inkscape.org/namespaces/inkscape"
   width="327.51086"
   height="423.50043"
   id="svg2"
   version="1.1"
   inkscape:version="0.48.2 r9819"
   sodipodi:docname="brain_dist_nocol.svg">
  <sodipodi:namedview
     id="base"
     pagecolor="#ffffff"
     bordercolor="#666666"
     borderopacity="1.0"
     inkscape:pageopacity="0.0"
     inkscape:pageshadow="2"
     inkscape:zoom="1"
     inkscape:cx="113.01191"
     inkscape:cy="183.44242"
     inkscape:document-units="px"
     inkscape:current-layer="svg2"
     showgrid="false"
     inkscape:window-width="1024"
     inkscape:window-height="721"
     inkscape:window-x="-4"
     inkscape:window-y="-4"
     inkscape:window-maximized="1"
     fit-margin-top="5"
     fit-margin-left="5"
     fit-margin-right="5"
     fit-margin-bottom="5"
     showguides="true"
     inkscape:guide-bbox="true" />
  <defs
     id="defs4" />
  <metadata
     id="metadata7">
    <rdf:RDF>
      <cc:Work
         rdf:about="">
        <dc:format>image/svg+xml</dc:format>
        <dc:type
           rdf:resource="http://purl.org/dc/dcmitype/StillImage" />
        <dc:title></dc:title>
      </cc:Work>
    </rdf:RDF>
  </metadata>
  <g
     inkscape:groupmode="layer"
     id="layer2"
     inkscape:label="Brain"
     style="display:inline"
     transform="translate(-554.30529,-226.05226)"
     sodipodi:insensitive="true">
    <g
       inkscape:groupmode="layer"
       id="layer6"
       inkscape:label="Feet"
       style="display:inline"
       sodipodi:insensitive="true">
      <path
         style="fill:#ffffff;fill-opacity:1;stroke:#000000;stroke-width:1px;stroke-linecap:butt;stroke-linejoin:miter;stroke-opacity:1"
         d="m 621.01653,637.49814 -4.94975,1.59099 c -9.23924,1.24992 1.01412,-21.75958 8.66206,-25.8094 5.82032,-1.2163 9.64518,1.03354 14.84924,3.35876 l 8.66206,4.06586 c 6.71066,-2.84585 13.93089,-1.48246 21.03643,-1.23744 0.15255,-2.40895 -0.6079,-3.87673 1.76776,-4.24264 4.03472,-17.08833 13.66266,0.4923 13.08148,6.36396 -0.71593,18.37601 -35.81001,26.20766 -43.94417,18.14366 -7.79323,1.36165 -15.11636,1.89848 -19.16511,-2.23375 z"
         id="path3836"
         inkscape:connector-curvature="0"
         sodipodi:nodetypes="cccccccccc" />
      <path
         style="fill:#ffffff;fill-opacity:1;stroke:#000000;stroke-width:1px;stroke-linecap:butt;stroke-linejoin:miter;stroke-opacity:1"
         d="m 692.25754,618.58303 c 3.94215,-8.79975 11.61976,-14.44935 14.93763,-7.33624 1.83959,3.94386 -0.53009,9.47567 3.62392,9.98789 12.24285,0.13326 27.21048,-10.67546 33.85274,-9.45755 10.01436,1.75144 12.72674,8.99268 12.1092,14.05374 4.8448,7.05304 4.62111,15.97279 -5.65685,16.44024 l -8.83884,-0.70711 c -4.91446,3.17281 -9.8816,3.13582 -15.37957,0.88388 -6.56205,-2.68778 -14.17605,-4.98633 -21.33338,-6.99928 -30.99917,-5.50225 -20.74739,-36.23775 -13.31485,-16.86557 z"
         id="path3828"
         inkscape:connector-curvature="0"
         sodipodi:nodetypes="cscccccscc" />
      <path
         style="fill:#ffffff;stroke:#000000;stroke-width:1px;stroke-linecap:butt;stroke-linejoin:miter;stroke-opacity:1"
         d="m 734.68762,622.77757 c 6.98227,5.469 11.92656,11.6344 7.47641,18.81048"
         id="path3830"
         inkscape:connector-curvature="0"
         sodipodi:nodetypes="cc" />
      <path
         style="fill:#ffffff;stroke:#000000;stroke-width:1px;stroke-linecap:butt;stroke-linejoin:miter;stroke-opacity:1"
         d="m 748.03058,618.84819 c 4.07299,3.50961 9.77829,7.40334 11.13694,11.75565"
         id="path3832"
         inkscape:connector-curvature="0"
         sodipodi:nodetypes="cc" />
      <path
         style="fill:#ffffff;stroke:#000000;stroke-width:1px;stroke-linecap:butt;stroke-linejoin:miter;stroke-opacity:1"
         d="m 621.39153,638.04991 c -0.23961,-22.72411 5.93452,-21.30201 20.68287,-20.23649"
         id="path3838"
         inkscape:connector-curvature="0"
         sodipodi:nodetypes="cc" />
      <path
         style="fill:#ffffff;stroke:#000000;stroke-width:1px;stroke-linecap:butt;stroke-linejoin:miter;stroke-opacity:1"
         d="m 640.32808,639.83913 c -1.69374,-12.48752 1.41911,-15.10652 8.08884,-19.208"
         id="path3840"
         inkscape:connector-curvature="0"
         sodipodi:nodetypes="cc" />
    </g>
    <g
       inkscape:groupmode="layer"
       id="layer5"
       inkscape:label="Tail"
       style="display:inline"
       sodipodi:insensitive="true">
      <path
         style="fill:#ffffff;fill-opacity:1;stroke:#000000;stroke-width:1px;stroke-linecap:butt;stroke-linejoin:miter;stroke-opacity:1"
         d="m 715.08492,593.77189 c 4.36703,-9.73965 7.70249,-21.05232 11.35454,-31.51158 16.22824,11.4725 31.54036,26.64828 41.78033,17.67498 8.88574,-7.78659 -7.20288,-61.45084 -8.21429,-77.32143 -1.24651,-19.55972 10.28265,-15.04037 19.10715,-8.57143 11.83776,9.23551 34.19215,28.20294 34.10714,21.96429 -0.22076,-16.20031 -5.90072,-34.87789 -7.67857,-54.10714 0.41684,-8.91923 2.01479,-12.61563 10.89286,-10.71429 16.82717,9.31579 33.27823,35.89335 36.25,35 2.97177,-0.89335 1.78331,-7.50358 3.03571,-8.92857 3.28392,5.20539 8.51225,19.66802 0.89286,16.78572 -17.2157,-6.51244 -31.1915,-30.66768 -38.57143,-26.25001 -2.79971,1.67592 -0.0599,10.72953 0.71428,16.07143 3.71726,14.02786 7.10724,34.06923 8.06425,43.35894 -3.45291,9.39885 -35.28523,-9.03725 -51.37329,-13.88411 -4.34279,-1.30836 10.38126,43.98328 11.75805,52.67895 3.6033,14.75451 5.84438,29.42062 -1.84186,32.31051 -21.69431,8.15668 -51.66033,-1.24351 -70.27773,-4.55626 z"
         inkscape:connector-curvature="0"
         sodipodi:nodetypes="ccsscscczcssccscsc"
         id="path3769" />
      <path
         style="fill:#ffffff;stroke:#000000;stroke-width:1px;stroke-linecap:butt;stroke-linejoin:miter;stroke-opacity:1"
         d="m 773.66321,502.26396 c -0.36072,3.95534 0.71539,7.85312 1.5026,11.57888"
         id="path3824"
         inkscape:connector-curvature="0"
         sodipodi:nodetypes="cc" />
    </g>
    <g
       inkscape:groupmode="layer"
       id="layer4"
       inkscape:label="Body"
       style="display:inline"
       sodipodi:insensitive="true">
      <path
         style="fill:#ffffff;stroke:#000000;stroke-width:1px;stroke-linecap:butt;stroke-linejoin:miter;stroke-opacity:1"
         d="m 675.53649,481.40398 c -14.53387,13.22384 -21.74939,17.91802 -30.69332,23.06689 -13.60796,7.83388 -13.98319,20.00561 -2.52552,29.78934 -6.54016,20.24624 -10.26567,26.77938 6.29702,46.11727 10.05904,11.82995 13.20143,24.40924 20.83819,35.02323 l 1.76777,-0.53033 c 3.26285,-12.02427 7.99168,-7.39411 13.08147,3.53553 0.69785,-10.24447 5.58268,-5.9427 8.04335,0.17678 5.42682,-10.6485 13.34535,-14.84688 15.54484,-4.86136 -1.41194,-2.18882 16.97874,-40.80642 20.25244,-58.24792 7.86678,-4.18295 27.49661,-10.0097 26.23778,-29.12782 -1.0472,-12.4722 -22.45499,-20.85185 -29.49299,-44.50596 -13.88923,0.50618 -17.06635,0.21239 -27.15039,-14.5778 -3.36628,13.55082 -7.90186,18.47898 -22.20064,14.14215 z"
         id="path3932"
         inkscape:connector-curvature="0"
         sodipodi:nodetypes="cscccccccccccc" />
      <path
         style="fill:#ffffff;stroke:#000000;stroke-width:1px;stroke-linecap:butt;stroke-linejoin:miter;stroke-opacity:1"
         d="m 667.86235,588.17744 c 10.93745,5.92452 13.46753,14.80348 13.92117,25.27906"
         id="path3934"
         inkscape:connector-curvature="0"
         sodipodi:nodetypes="cc" />
      <path
         style="fill:#ffffff;stroke:#000000;stroke-width:1px;stroke-linecap:butt;stroke-linejoin:miter;stroke-opacity:1"
         d="m 659.46545,517.9087 c 11.16505,-1.2993 20.40312,2.31254 29.25655,6.0988"
         id="path3936"
         inkscape:connector-curvature="0"
         sodipodi:nodetypes="cc" />
      <path
         style="fill:#ffffff;stroke:#000000;stroke-width:1px;stroke-linecap:butt;stroke-linejoin:miter;stroke-opacity:1"
         d="m 666.18298,514.1964 c 8.56254,-0.3162 14.11535,0.66049 19.18027,2.2097"
         id="path3938"
         inkscape:connector-curvature="0"
         sodipodi:nodetypes="cc" />
      <path
         style="fill:#ffffff;stroke:#000000;stroke-width:1px;stroke-linecap:butt;stroke-linejoin:miter;stroke-opacity:1"
         d="m 642.33957,534.26055 c 10.56129,-19.08114 28.41856,-34.5919 36.51327,-52.44186"
         id="path3940"
         inkscape:connector-curvature="0"
         sodipodi:nodetypes="cc" />
      <path
         style="fill:#ffffff;stroke:#000000;stroke-width:1px;stroke-linecap:butt;stroke-linejoin:miter;stroke-opacity:1"
         d="m 706.2229,515.87577 c 11.92245,5.46212 25.69262,7.62473 34.64823,18.38478"
         id="path3942"
         inkscape:connector-curvature="0"
         sodipodi:nodetypes="cc" />
      <path
         style="fill:#ffffff;stroke:#000000;stroke-width:1px;stroke-linecap:butt;stroke-linejoin:miter;stroke-opacity:1"
         d="m 726.48658,523.66781 c 0.95663,10.10266 2.32713,21.73349 1.60929,32.03449"
         id="path3944"
         inkscape:connector-curvature="0"
         sodipodi:nodetypes="cc" />
    </g>
    <g
       inkscape:groupmode="layer"
       id="layer3"
       inkscape:label="Head"
       style="display:inline"
       sodipodi:insensitive="true">
      <path
         style="fill:#ffffff;stroke:#000000;stroke-width:1px;stroke-linecap:butt;stroke-linejoin:miter;stroke-opacity:1"
         d="m 583.92011,340.03223 c 1.6386,-1.65803 -26.93525,-55.0643 -4.76041,-65.96803 24.01357,-11.80787 45.77176,25.04744 52.84367,35.83389 55.92312,-17.12729 93.82781,-19.30448 124.45079,-8.2264 20.96802,-27.64964 71.33944,-79.69314 99.70206,-68.58936 45.89703,20.22809 8.40193,210.97834 -61.87184,168.95563 -13.26281,26.48832 -29.25109,38.12218 -44.48707,46.19418 5.26279,29.46973 -12.57008,32.26013 -24.872,33.53091 -12.56148,1.2976 -19.25054,-1.58348 -27.51456,-14.56771 -3.46195,17.83409 -12.06903,19.24857 -30.40559,10.54594 -7.4355,1.74538 -6.27936,2.27132 -6.98897,-4.82475 -12.6788,26.28945 -35.54494,21.46301 -44.48962,9.09022 -8.15923,-11.28632 4.78543,-36.5074 3.4483,-50.16477 -31.4822,2.09993 -51.25908,-10.96624 -57.24313,-28.92971 -5.95098,-17.8642 2.00686,-40.79427 22.18833,-62.88004 z"
         id="path3950"
         inkscape:connector-curvature="0"
         sodipodi:nodetypes="cscccccscccscscc" />
      <path
         style="fill:#ffffff;stroke:#000000;stroke-width:1px;stroke-linecap:butt;stroke-linejoin:miter;stroke-opacity:1"
         d="m 576.23148,421.91786 c -4.42654,-12.12765 10.70094,-3.41872 17.14733,-1.59099 l -6.23138,-5.87782 c 48.03436,6.82985 79.70058,16.89336 107.87798,-14.62828 10.72008,-14.60102 15.58832,-22.70401 30.4056,-28.99137 11.89277,-13.46996 22.05758,-16.51768 29.31179,-15.82657 20.83329,3.08658 12.73204,25.95882 8.03713,37.91728 -3.6997,10.35737 -10.15892,23.01368 -18.43382,32.35651 l -1.76777,-4.77297 c 2.73651,8.62133 5.46074,16.73632 7.33623,27.53297"
         id="path3952"
         inkscape:connector-curvature="0"
         sodipodi:nodetypes="cccccccccc" />
      <path
         style="fill:#ffffff;stroke:#000000;stroke-width:1px;stroke-linecap:butt;stroke-linejoin:miter;stroke-opacity:1"
         d="m 711.09375,387.56323 c 6.8785,-4.61594 11.67934,-12.97809 17.0625,-19.6875"
         id="path3972"
         inkscape:connector-curvature="0"
         sodipodi:nodetypes="cc" />
      <path
         style="fill:#ffffff;stroke:#000000;stroke-width:1px;stroke-linecap:butt;stroke-linejoin:miter;stroke-opacity:1"
         d="m 747.9422,392.13208 c -25.49525,16.68094 -55.45056,29.37706 -82.99666,36.23922"
         id="path3974"
         inkscape:connector-curvature="0"
         sodipodi:nodetypes="cc" />
      <path
         style="fill:#ffffff;stroke:#000000;stroke-width:1px;stroke-linecap:butt;stroke-linejoin:miter;stroke-opacity:1"
         d="m 654.78088,448.8774 c -0.76167,9.07844 1.86235,16.60755 5.56846,23.33453 5.921,-8.52086 14.50672,-9.06028 21.21321,-5.03813"
         id="path3976"
         inkscape:connector-curvature="0"
         sodipodi:nodetypes="ccc" />
      <path
         style="fill:#ffffff;stroke:#000000;stroke-width:1px;stroke-linecap:butt;stroke-linejoin:miter;stroke-opacity:1"
         d="m 666.45258,477.89467 c 6.64183,-1.79024 8.83964,-2.73206 9.92538,-3.16682"
         id="path3978"
         inkscape:connector-curvature="0"
         sodipodi:nodetypes="cc" />
      <path
         style="fill:#ffffff;stroke:#000000;stroke-width:1px;stroke-linecap:butt;stroke-linejoin:miter;stroke-opacity:1"
         d="m 681.65094,442.69022 c 13.47605,9.14436 14.46528,21.29973 16.17506,26.25134"
         id="path3980"
         inkscape:connector-curvature="0"
         sodipodi:nodetypes="cc" />
      <path
         style="fill:#ffffff;fill-opacity:1;stroke:#000000;stroke-width:1px;stroke-linecap:butt;stroke-linejoin:miter;stroke-opacity:1"
         d="m 720.19898,407.96169 c -14.43035,7.33274 -30.2432,13.26688 -46.41461,18.046 22.11443,21.32657 67.52997,5.80608 46.41461,-18.046 z"
         id="path3982"
         inkscape:connector-curvature="0"
         sodipodi:nodetypes="ccc" />
      <path
         style="fill:#000000;stroke:#000000;stroke-width:1px;stroke-linecap:butt;stroke-linejoin:miter;stroke-opacity:1"
         d="m 691.63882,420.23958 15.02602,-6.08689 c 0.24207,11.15379 -8.64704,14.06159 -15.02602,6.08689 z"
         id="path3984"
         inkscape:connector-curvature="0"
         sodipodi:nodetypes="ccc" />
      <path
         style="fill:#ffffff;fill-opacity:1;stroke:#000000;stroke-width:1px;stroke-linecap:butt;stroke-linejoin:miter;stroke-opacity:1"
         d="m 650.71501,446.57931 c -9.2867,-7.52999 -2.0315,-16.23397 3.71231,-17.76606 5.74381,-1.53209 20.59425,-0.69008 25.89779,6.01041 5.30354,6.70049 -0.74281,11.81211 -7.95495,13.52341 -7.21214,1.7113 -12.36845,5.76223 -21.65515,-1.76776 z"
         id="path3986"
         inkscape:connector-curvature="0"
         sodipodi:nodetypes="zzzzz" />
      <path
         style="fill:#ffffff;fill-opacity:1;stroke:#000000;stroke-width:1px;stroke-linecap:butt;stroke-linejoin:miter;stroke-opacity:1"
         d="m 619.24659,431.84169 c 2.21393,8.14692 9.49873,13.04929 15.21875,13.7427 5.72002,0.69341 9.83172,-0.69478 12.5625,-3.5 -1.81956,-3.53606 -1.00724,-8.97809 4.75,-12.1875 z"
         id="path3988"
         inkscape:connector-curvature="0"
         sodipodi:nodetypes="czccc" />
      <path
         style="fill:#000000;stroke:#000000;stroke-width:1px;stroke-linecap:butt;stroke-linejoin:miter;stroke-opacity:1"
         d="m 638.55909,430.67814 c -2.27083,5.74938 2.01036,5.84434 6.7832,6.70044 0.0724,-2.69471 3.969,-6.29182 5.68907,-7.03347 z"
         id="path3990"
         inkscape:connector-curvature="0"
         sodipodi:nodetypes="cccc" />
      <path
         style="fill:#ffffff;fill-opacity:1;stroke:#000000;stroke-width:1.04406095px;stroke-linecap:butt;stroke-linejoin:miter;stroke-opacity:1"
         d="m 583.36775,340.42626 c -8.40808,-19.31532 -19.62234,-55.47022 -7.66961,-64.38329 11.95273,-8.91306 35.56591,22.20987 44.71382,38.61115 -13.17302,6.49516 -24.44364,14.0698 -37.04421,25.77214 z"
         id="path4136"
         inkscape:connector-curvature="0"
         sodipodi:nodetypes="czcc" />
      <path
         style="fill:#ffffff;stroke:#000000;stroke-width:1px;stroke-linecap:butt;stroke-linejoin:miter;stroke-opacity:1"
         d="m 855.27034,232.94466 c -29.58301,5.65932 -75.20604,67.43185 -78.48886,109.42478 -5.15437,40.13874 40.88822,-16.66476 38.63015,-18.5205 -15.08083,4.21116 -29.92646,68.89411 -30.67519,80.39234"
         id="path4073"
         inkscape:connector-curvature="0"
         sodipodi:nodetypes="cccc" />
      <path
         style="fill:#ffffff;stroke:#000000;stroke-width:1px;stroke-linecap:butt;stroke-linejoin:miter;stroke-opacity:1"
         d="m 738.48843,324.86632 17.93656,-23.16847"
         id="path4071"
         inkscape:connector-curvature="0"
         sodipodi:nodetypes="cc" />
      <path
         style="fill:#ffffff;stroke:#000000;stroke-width:1px;stroke-linecap:butt;stroke-linejoin:miter;stroke-opacity:1"
         d="m 786.03758,395.22567 c 2.16589,2.32972 5.15572,4.68245 8.97141,7.24785"
         id="path4117"
         inkscape:connector-curvature="0"
         sodipodi:nodetypes="cc" />
      <path
         style="fill:#000000;stroke:#000000;stroke-width:1px;stroke-linecap:butt;stroke-linejoin:miter;stroke-opacity:1"
         d="m 803.09653,340.02716 c 3.03018,-6.99982 6.04271,-10.38461 11.49048,-15.60055 -3.23014,5.40518 -7.45698,10.80156 -11.49048,15.60055 z"
         id="path4119"
         inkscape:connector-curvature="0"
         sodipodi:nodetypes="ccc" />
      <path
         style="fill:#ffffff;stroke:#000000;stroke-width:1px;stroke-linecap:butt;stroke-linejoin:miter;stroke-opacity:1"
         d="M 583.82778,340.1283 C 596.656,328.33387 610.86196,316.98557 632.25,309.80029"
         id="path4134"
         inkscape:connector-curvature="0"
         sodipodi:nodetypes="cc" />
    </g>
  </g>
</svg>
