<?xml version="1.0" encoding="UTF-8" standalone="no"?>
<!-- Created with Inkscape (http://www.inkscape.org/) -->

<svg
   xmlns:dc="http://purl.org/dc/elements/1.1/"
   xmlns:cc="http://creativecommons.org/ns#"
   xmlns:rdf="http://www.w3.org/1999/02/22-rdf-syntax-ns#"
   xmlns:svg="http://www.w3.org/2000/svg"
   xmlns="http://www.w3.org/2000/svg"
   xmlns:sodipodi="http://sodipodi.sourceforge.net/DTD/sodipodi-0.dtd"
   xmlns:inkscape="http://www.inkscape.org/namespaces/inkscape"
   width="327.51086"
   height="423.50043"
   id="svg2"
   version="1.1"
   inkscape:version="0.48.4 r9939"
   sodipodi:docname="brain_nocol_2.svg">
  <sodipodi:namedview
     id="base"
     pagecolor="#ffffff"
     bordercolor="#666666"
     borderopacity="1.0"
     inkscape:pageopacity="0.0"
     inkscape:pageshadow="2"
     inkscape:zoom="4"
     inkscape:cx="75.991674"
     inkscape:cy="264.82027"
     inkscape:document-units="px"
     inkscape:current-layer="layer3"
     showgrid="false"
     inkscape:window-width="2560"
     inkscape:window-height="1378"
     inkscape:window-x="-8"
     inkscape:window-y="-8"
     inkscape:window-maximized="1"
     fit-margin-top="5"
     fit-margin-left="5"
     fit-margin-right="5"
     fit-margin-bottom="5"
     showguides="true"
     inkscape:guide-bbox="true" />
  <defs
     id="defs4" />
  <metadata
     id="metadata7">
    <rdf:RDF>
      <cc:Work
         rdf:about="">
        <dc:format>image/svg+xml</dc:format>
        <dc:type
           rdf:resource="http://purl.org/dc/dcmitype/StillImage" />
        <dc:title></dc:title>
      </cc:Work>
    </rdf:RDF>
  </metadata>
  <g
     inkscape:groupmode="layer"
     id="layer2"
     inkscape:label="Brain"
     style="display:inline"
     transform="translate(-554.30529,-226.05226)">
    <g
       inkscape:groupmode="layer"
       id="layer6"
       inkscape:label="Feet"
       style="display:inline">
      <path
         style="fill:none;stroke:#000000;stroke-width:1px;stroke-linecap:butt;stroke-linejoin:miter;stroke-opacity:1"
         d="m 426.92819,1036.8895 -14.84925,4.773 c -27.71772,3.7497 3.04236,-65.27879 25.98618,-77.42825 17.46096,-3.6489 28.93554,3.10062 44.54772,10.07628 l 25.98618,12.19758 c 20.13198,-8.53755 41.79267,-4.44738 63.10929,-3.71232 0.45765,-7.22685 -1.8237,-11.63019 5.30328,-12.72792 12.10416,-51.26499 40.98798,1.4769 39.24444,19.09188 -2.14779,55.12805 -107.43003,78.62295 -131.83251,54.43095 -23.37969,4.085 -45.34908,5.6955 -57.49533,-6.7012 z"
         id="path3836"
         inkscape:connector-curvature="0"
         sodipodi:nodetypes="cccccccccc" />
      <path
         style="fill:none;stroke:#000000;stroke-width:1px;stroke-linecap:butt;stroke-linejoin:miter;stroke-opacity:1"
         d="m 640.65122,980.14415 c 11.82645,-26.39925 34.85928,-43.34805 44.81289,-22.00872 5.51877,11.83158 -1.59027,28.42701 10.87176,29.96367 36.72855,0.39978 81.63144,-32.02638 101.55822,-28.37265 30.04308,5.25432 38.18022,26.97804 36.3276,42.16125 14.5344,21.1591 13.86333,47.9183 -16.97055,49.3207 l -26.51652,-2.1213 c -14.74338,9.5184 -29.6448,9.4074 -46.13871,2.6516 -19.68615,-8.0633 -42.52815,-14.959 -64.00014,-20.9978 -92.99751,-16.5068 -62.24217,-108.71329 -39.94455,-50.59675 z"
         id="path3828"
         inkscape:connector-curvature="0"
         sodipodi:nodetypes="cscccccscc" />
      <path
         style="fill:none;stroke:#000000;stroke-width:1px;stroke-linecap:butt;stroke-linejoin:miter;stroke-opacity:1"
         d="m 767.94146,992.72777 c 20.94681,16.40703 35.77968,34.90323 22.42923,56.43143"
         id="path3830"
         inkscape:connector-curvature="0"
         sodipodi:nodetypes="cc" />
      <path
         style="fill:none;stroke:#000000;stroke-width:1px;stroke-linecap:butt;stroke-linejoin:miter;stroke-opacity:1"
         d="m 807.97034,980.93963 c 12.21897,10.52883 29.33487,22.20997 33.41082,35.26697"
         id="path3832"
         inkscape:connector-curvature="0"
         sodipodi:nodetypes="cc" />
      <path
         style="fill:none;stroke:#000000;stroke-width:1px;stroke-linecap:butt;stroke-linejoin:miter;stroke-opacity:1"
         d="m 428.05319,1038.5448 c -0.71883,-68.17234 17.80356,-63.90604 62.04861,-60.70948"
         id="path3838"
         inkscape:connector-curvature="0"
         sodipodi:nodetypes="cc" />
      <path
         style="fill:none;stroke:#000000;stroke-width:1px;stroke-linecap:butt;stroke-linejoin:miter;stroke-opacity:1"
         d="m 484.86284,1043.9124 c -5.08122,-37.4625 4.25733,-45.31951 24.26652,-57.62395"
         id="path3840"
         inkscape:connector-curvature="0"
         sodipodi:nodetypes="cc" />
    </g>
    <g
       inkscape:groupmode="layer"
       id="layer5"
       inkscape:label="Tail"
       style="display:inline">
      <path
         style="fill:none;stroke:#000000;stroke-width:1px;stroke-linecap:butt;stroke-linejoin:miter;stroke-opacity:1"
         d="m 709.13336,905.71073 c 13.10109,-29.21895 23.10747,-63.15696 34.06362,-94.53474 48.68472,34.4175 94.62108,79.94484 125.34099,53.02494 26.65722,-23.35977 -21.60864,-184.35252 -24.64287,-231.96429 -3.73953,-58.67916 30.84795,-45.12111 57.32145,-25.71429 35.51328,27.70653 102.57645,84.60882 102.32145,65.89287 -0.6623,-48.60093 -17.70219,-104.63367 -23.03574,-162.32142 1.25052,-26.75769 6.04437,-37.84689 32.67854,-32.14287 50.4816,27.94737 99.8347,107.68005 108.75,105 8.9154,-2.68005 5.35,-22.51074 9.1072,-26.78571 9.8517,15.61617 25.5367,59.00406 2.6786,50.35716 -51.6471,-19.53732 -93.5745,-92.00304 -115.7143,-78.75003 -8.3992,5.02776 -0.1797,32.18859 2.1428,48.21429 11.1518,42.08358 21.3217,102.20769 24.1928,130.07682 -10.3588,28.19655 -105.85574,-27.11175 -154.11992,-41.65233 -13.02837,-3.92508 31.14378,131.94984 35.27415,158.03685 10.8099,44.26353 17.53314,88.26186 -5.52558,96.93153 -65.08293,24.47004 -154.98099,-3.73053 -210.83319,-13.66878 z"
         inkscape:connector-curvature="0"
         sodipodi:nodetypes="ccsscscczcssccscsc"
         id="path3769" />
      <path
         style="fill:none;stroke:#000000;stroke-width:1px;stroke-linecap:butt;stroke-linejoin:miter;stroke-opacity:1"
         d="m 884.86823,631.18694 c -1.08216,11.86602 2.14617,23.55936 4.5078,34.73664"
         id="path3824"
         inkscape:connector-curvature="0"
         sodipodi:nodetypes="cc" />
    </g>
    <g
       inkscape:groupmode="layer"
       id="layer4"
       inkscape:label="Body"
       style="display:inline">
      <path
         style="fill:none;stroke:#000000;stroke-width:1px;stroke-linecap:butt;stroke-linejoin:miter;stroke-opacity:1"
         d="m 590.48807,568.607 c -43.60161,39.67152 -65.24817,53.75406 -92.07996,69.20067 -40.82388,23.50164 -41.94957,60.01683 -7.57656,89.36802 -19.62048,60.73872 -30.79701,80.33814 18.89106,138.35181 30.17712,35.48985 39.60429,73.22772 62.51457,105.06969 l 5.30331,-1.59099 c 9.78855,-36.07281 23.97504,-22.18233 39.24441,10.60659 2.09355,-30.73341 16.74804,-17.8281 24.13005,0.53034 16.28046,-31.9455 40.03605,-44.54064 46.63452,-14.58408 -4.23582,-6.56646 50.93622,-122.41926 60.75732,-174.74376 23.60034,-12.54885 82.48983,-30.0291 78.71334,-87.38346 -3.1416,-37.4166 -67.36497,-62.55555 -88.47897,-133.51788 -41.66769,1.51854 -51.19905,0.63717 -81.45117,-43.7334 -10.09884,40.65246 -23.70558,55.43694 -66.60192,42.42645 z"
         id="path3932"
         inkscape:connector-curvature="0"
         sodipodi:nodetypes="cscccccccccccc" />
      <path
         style="fill:none;stroke:#000000;stroke-width:1px;stroke-linecap:butt;stroke-linejoin:miter;stroke-opacity:1"
         d="m 567.46565,888.92738 c 32.81235,17.77356 40.40259,44.41044 41.76351,75.83718"
         id="path3934"
         inkscape:connector-curvature="0"
         sodipodi:nodetypes="cc" />
      <path
         style="fill:none;stroke:#000000;stroke-width:1px;stroke-linecap:butt;stroke-linejoin:miter;stroke-opacity:1"
         d="m 542.27495,678.12116 c 33.49515,-3.8979 61.20936,6.93762 87.76965,18.2964"
         id="path3936"
         inkscape:connector-curvature="0"
         sodipodi:nodetypes="cc" />
      <path
         style="fill:none;stroke:#000000;stroke-width:1px;stroke-linecap:butt;stroke-linejoin:miter;stroke-opacity:1"
         d="m 562.42754,666.98426 c 25.68762,-0.9486 42.34605,1.98147 57.54081,6.6291"
         id="path3938"
         inkscape:connector-curvature="0"
         sodipodi:nodetypes="cc" />
      <path
         style="fill:none;stroke:#000000;stroke-width:1px;stroke-linecap:butt;stroke-linejoin:miter;stroke-opacity:1"
         d="m 490.89731,727.17671 c 31.68387,-57.24342 85.25568,-103.7757 109.53981,-157.32558"
         id="path3940"
         inkscape:connector-curvature="0"
         sodipodi:nodetypes="cc" />
      <path
         style="fill:none;stroke:#000000;stroke-width:1px;stroke-linecap:butt;stroke-linejoin:miter;stroke-opacity:1"
         d="m 682.5473,672.02237 c 35.76735,16.38636 77.07786,22.87419 103.94469,55.15434"
         id="path3942"
         inkscape:connector-curvature="0"
         sodipodi:nodetypes="cc" />
      <path
         style="fill:none;stroke:#000000;stroke-width:1px;stroke-linecap:butt;stroke-linejoin:miter;stroke-opacity:1"
         d="m 743.33834,695.39849 c 2.86989,30.30798 6.98139,65.20047 4.82787,96.10347"
         id="path3944"
         inkscape:connector-curvature="0"
         sodipodi:nodetypes="cc" />
    </g>
    <g
       inkscape:groupmode="layer"
       id="layer3"
       inkscape:label="Head"
       style="display:inline">
      <path
         style="fill:none;stroke:#000000;stroke-width:1px;stroke-linecap:butt;stroke-linejoin:miter;stroke-opacity:1"
         d="m 315.63893,144.49175 c 4.9158,-4.97409 -80.80575,-165.1929 -14.28123,-197.90409 72.04071,-35.42361 137.31528,75.14232 158.53101,107.50167 167.76936,-51.38187 281.48343,-57.91344 373.35237,-24.6792 62.90406,-82.94892 214.01832,-239.07942 299.10622,-205.76808 137.691,60.68427 25.2058,632.93502 -185.61556,506.86689 -39.78843,79.46496 -87.75327,114.36654 -133.46121,138.58254 15.78837,88.40919 -37.71024,96.78039 -74.616,100.59273 -37.68444,3.8928 -57.75162,-4.75044 -82.54368,-43.70313 -10.38585,53.50227 -36.20709,57.74571 -91.21677,31.63782 -22.3065,5.23614 -18.83808,6.81396 -20.96691,-14.47425 -38.0364,78.86835 -106.63482,64.38903 -133.46886,27.27066 -24.47769,-33.85896 14.35629,-109.5222 10.3449,-150.49431 -94.4466,6.29979 -153.77724,-32.89872 -171.72939,-86.78913 -17.85294,-53.5926 6.02058,-122.38281 66.56499,-188.64012 z"
         id="path3950"
         inkscape:connector-curvature="0"
         sodipodi:nodetypes="cscccccscccscscc" />
      <path
         style="fill:none;stroke:#000000;stroke-width:1px;stroke-linecap:butt;stroke-linejoin:miter;stroke-opacity:1"
         d="m 292.57304,390.14864 c -13.27962,-36.38295 32.10282,-10.25616 51.44199,-4.77297 l -18.69414,-17.63346 c 144.10308,20.48955 239.10174,50.68008 323.63394,-43.88484 32.16024,-43.80306 46.76496,-68.11203 91.2168,-86.97411 35.67831,-40.40988 66.17274,-49.55304 87.93537,-47.47971 62.49987,9.25974 38.19612,77.87646 24.11139,113.75184 -11.0991,31.07211 -30.47676,69.04104 -55.30146,97.06953 l -5.30331,-14.31891 c 8.20953,25.86399 16.38222,50.20896 22.00869,82.59891"
         id="path3952"
         inkscape:connector-curvature="0"
         sodipodi:nodetypes="cccccccccc" />
      <path
         style="fill:none;stroke:#000000;stroke-width:1px;stroke-linecap:butt;stroke-linejoin:miter;stroke-opacity:1"
         d="m 697.15985,287.08475 c 20.6355,-13.84782 35.03802,-38.93427 51.1875,-59.0625"
         id="path3972"
         inkscape:connector-curvature="0"
         sodipodi:nodetypes="cc" />
      <path
         style="fill:none;stroke:#000000;stroke-width:1px;stroke-linecap:butt;stroke-linejoin:miter;stroke-opacity:1"
         d="M 807.7052,300.7913 C 731.21945,350.83412 641.35352,388.92248 558.71522,409.50896"
         id="path3974"
         inkscape:connector-curvature="0"
         sodipodi:nodetypes="cc" />
      <path
         style="fill:none;stroke:#000000;stroke-width:1px;stroke-linecap:butt;stroke-linejoin:miter;stroke-opacity:1"
         d="m 528.22124,471.02726 c -2.28501,27.23532 5.58705,49.82265 16.70538,70.00359 17.763,-25.56258 43.52016,-27.18084 63.63963,-15.11439"
         id="path3976"
         inkscape:connector-curvature="0"
         sodipodi:nodetypes="ccc" />
      <path
         style="fill:none;stroke:#000000;stroke-width:1px;stroke-linecap:butt;stroke-linejoin:miter;stroke-opacity:1"
         d="m 563.23634,558.07907 c 19.92549,-5.37072 26.51892,-8.19618 29.77614,-9.50046"
         id="path3978"
         inkscape:connector-curvature="0"
         sodipodi:nodetypes="cc" />
      <path
         style="fill:none;stroke:#000000;stroke-width:1px;stroke-linecap:butt;stroke-linejoin:miter;stroke-opacity:1"
         d="m 608.83142,452.46572 c 40.42815,27.43308 43.39584,63.89919 48.52518,78.75402"
         id="path3980"
         inkscape:connector-curvature="0"
         sodipodi:nodetypes="cc" />
      <path
         style="fill:none;stroke:#000000;stroke-width:1px;stroke-linecap:butt;stroke-linejoin:miter;stroke-opacity:1"
         d="m 724.47554,348.28013 c -43.29105,21.99822 -90.7296,39.80064 -139.24383,54.138 66.34329,63.97971 202.58991,17.41824 139.24383,-54.138 z"
         id="path3982"
         inkscape:connector-curvature="0"
         sodipodi:nodetypes="ccc" />
      <path
         style="fill:none;stroke:#000000;stroke-width:1px;stroke-linecap:butt;stroke-linejoin:miter;stroke-opacity:1"
         d="m 638.79506,385.1138 45.07806,-18.26067 c 0.72621,33.46137 -25.94112,42.18477 -45.07806,18.26067 z"
         id="path3984"
         inkscape:connector-curvature="0"
         sodipodi:nodetypes="ccc" />
      <path
         style="fill:none;stroke:#000000;stroke-width:1px;stroke-linecap:butt;stroke-linejoin:miter;stroke-opacity:1"
         d="m 516.02363,464.13299 c -27.8601,-22.58997 -6.0945,-48.70191 11.13693,-53.29818 17.23143,-4.59627 61.78275,-2.07024 77.69337,18.03123 15.91062,20.10147 -2.22843,35.43633 -23.86485,40.57023 -21.63642,5.1339 -37.10535,17.28669 -64.96545,-5.30328 z"
         id="path3986"
         inkscape:connector-curvature="0"
         sodipodi:nodetypes="zzzzz" />
      <path
         style="fill:none;stroke:#000000;stroke-width:1px;stroke-linecap:butt;stroke-linejoin:miter;stroke-opacity:1"
         d="m 421.61837,419.92013 c 6.64179,24.44076 28.49619,39.14787 45.65625,41.2281 17.16006,2.08023 29.49516,-2.08434 37.6875,-10.5 -5.45868,-10.60818 -3.02172,-26.93427 14.25,-36.5625 z"
         id="path3988"
         inkscape:connector-curvature="0"
         sodipodi:nodetypes="czccc" />
      <path
         style="fill:none;stroke:#000000;stroke-width:1px;stroke-linecap:butt;stroke-linejoin:miter;stroke-opacity:1"
         d="m 479.55587,416.42948 c -6.81249,17.24814 6.03108,17.53302 20.3496,20.10132 0.2172,-8.08413 11.907,-18.87546 17.06721,-21.10041 z"
         id="path3990"
         inkscape:connector-curvature="0"
         sodipodi:nodetypes="cccc" />
      <path
         style="fill:none;stroke:#000000;stroke-width:1.04406095px;stroke-linecap:butt;stroke-linejoin:miter;stroke-opacity:1"
         d="M 313.98185,145.67384 C 288.75761,87.72788 255.11483,-20.73682 290.97302,-47.47603 326.83121,-74.21521 397.67075,19.15358 425.11448,68.35742 385.59542,87.8429 351.78356,110.56682 313.98185,145.67384 z"
         id="path4136"
         inkscape:connector-curvature="0"
         sodipodi:nodetypes="czcc" />
      <path
         style="fill:none;stroke:#000000;stroke-width:1px;stroke-linecap:butt;stroke-linejoin:miter;stroke-opacity:1"
         d="M 1129.6896,-176.77096 C 1040.9406,-159.793 904.0715,25.52459 894.22304,151.50338 878.75993,271.9196 1016.8877,101.5091 1010.1135,95.94188 964.871,108.57536 920.33411,302.62421 918.08792,337.1189"
         id="path4073"
         inkscape:connector-curvature="0"
         sodipodi:nodetypes="cccc" />
      <path
         style="fill:none;stroke:#000000;stroke-width:1px;stroke-linecap:butt;stroke-linejoin:miter;stroke-opacity:1"
         d="M 779.34389,98.99402 833.15357,29.48861"
         id="path4071"
         inkscape:connector-curvature="0"
         sodipodi:nodetypes="cc" />
      <path
         style="fill:none;stroke:#000000;stroke-width:1px;stroke-linecap:butt;stroke-linejoin:miter;stroke-opacity:1"
         d="m 921.99134,310.07207 c 6.49767,6.98916 15.46716,14.04735 26.91423,21.74355"
         id="path4117"
         inkscape:connector-curvature="0"
         sodipodi:nodetypes="cc" />
      <path
         style="fill:none;stroke:#000000;stroke-width:1px;stroke-linecap:butt;stroke-linejoin:miter;stroke-opacity:1"
         d="m 973.16819,144.47654 c 9.09054,-20.99946 18.12813,-31.15383 34.47141,-46.80165 -9.69039,16.21554 -22.37091,32.40468 -34.47141,46.80165 z"
         id="path4119"
         inkscape:connector-curvature="0"
         sodipodi:nodetypes="ccc" />
      <path
         style="fill:none;stroke:#000000;stroke-width:1px;stroke-linecap:butt;stroke-linejoin:miter;stroke-opacity:1"
         d="M 315.36194,144.77996 C 353.8466,109.39667 396.46448,75.35177 460.6286,53.79593"
         id="path4134"
         inkscape:connector-curvature="0"
         sodipodi:nodetypes="cc" />
      <path
         sodipodi:nodetypes="cccc"
         inkscape:connector-curvature="0"
         id="path3019"
         d="m 479.55587,416.42948 c -6.81249,17.24814 6.03108,17.53302 20.3496,20.10132 0.2172,-8.08413 11.907,-18.87546 17.06721,-21.10041 z"
         style="fill:none;stroke:#000000;stroke-width:1px;stroke-linecap:butt;stroke-linejoin:miter;stroke-opacity:1" />
      <path
         style="fill:none;stroke:#000000;stroke-width:1px;stroke-linecap:butt;stroke-linejoin:miter;stroke-opacity:1"
         d="m 480.9375,418.40625 c -2.2546,4.64215 -1.79159,11.72043 4.25,13 4.10328,1.17508 9.69288,2.97125 13.15625,2.15625 1.98047,-6.47364 6.80854,-11.67148 11.78125,-15.9375 -9.72917,0.26042 -19.45833,0.52083 -29.1875,0.78125 z"
         id="path3051"
         inkscape:connector-curvature="0" />
      <path
         style="fill:none;stroke:#000000;stroke-width:1px;stroke-linecap:butt;stroke-linejoin:miter;stroke-opacity:1"
         d="m 482.28125,420.375 c -1.79992,4.00814 0.13258,9.49306 5.03125,9.5625 2.87164,0.18028 7.65684,3.27745 9.8125,1.0625 1.71533,-4.26241 4.53126,-8.01477 7.78125,-11.21875 -7.54167,0.19792 -15.08333,0.39583 -22.625,0.59375 z"
         id="path3055"
         inkscape:connector-curvature="0" />
      <path
         style="fill:none;stroke:#000000;stroke-width:1px;stroke-linecap:butt;stroke-linejoin:miter;stroke-opacity:1"
         d="m 483.75,422.34375 c -1.13535,3.79936 2.55743,6.29291 5.96875,6.03125 2.14772,0.4112 6.2878,3.284 6.71875,-0.65625 0.6681,-2.58033 6.41352,-6.96782 0.81355,-5.73298 -4.50035,0.11933 -9.0007,0.23865 -13.50105,0.35798 z"
         id="path3059"
         inkscape:connector-curvature="0" />
      <path
         style="fill:none;stroke:#000000;stroke-width:1px;stroke-linecap:butt;stroke-linejoin:miter;stroke-opacity:1"
         d="m 485.65625,424.3125 c 1.41818,3.09116 6.29832,1.81977 8.75,3.34375 0.41867,-2.33376 3.62393,-4.71924 -1.12395,-3.54562 -2.54202,0.0673 -5.08403,0.13458 -7.62605,0.20187 z m 0.46875,0.84375 c -0.10364,0.0325 0.0429,0.0577 0,0 z"
         id="path3063"
         inkscape:connector-curvature="0" />
      <path
         style="fill:none;stroke:#000000;stroke-width:1px;stroke-linecap:butt;stroke-linejoin:miter;stroke-opacity:1"
         d="m 642.125,385.9375 c 7.19622,9.0018 21.85012,15.38121 31.5,6.25 6.01082,-5.76332 8.01188,-14.36321 8.25,-22.375 -13.25,5.375 -26.5,10.75 -39.75,16.125 z"
         id="path3067"
         inkscape:connector-curvature="0" />
      <path
         style="fill:none;stroke:#000000;stroke-width:1px;stroke-linecap:butt;stroke-linejoin:miter;stroke-opacity:1"
         d="m 645.5,386.71875 c 6.70434,7.3866 20.35422,11.7598 27.75,2.96875 4.13586,-4.60658 5.91809,-10.77327 6.40625,-16.84375 -11.38542,4.625 -22.77083,9.25 -34.15625,13.875 z"
         id="path3071"
         inkscape:connector-curvature="0" />
      <path
         style="fill:none;stroke:#000000;stroke-width:1px;stroke-linecap:butt;stroke-linejoin:miter;stroke-opacity:1"
         d="m 649.125,387.40625 c 6.59942,6.10473 19.36412,7.83959 24.28125,-1.1875 2.07731,-3.06842 3.20466,-6.59846 3.84375,-10.25 -9.375,3.8125 -18.75,7.625 -28.125,11.4375 z"
         id="path3075"
         inkscape:connector-curvature="0" />
      <path
         style="fill:none;stroke:#000000;stroke-width:1px;stroke-linecap:butt;stroke-linejoin:miter;stroke-opacity:1"
         d="m 653.15625,387.90625 c 6.28887,4.34534 16.71664,3.38303 19.53125,-4.40625 1.76102,-2.7973 2.51679,-5.89437 -1.95711,-2.71631 -5.85805,2.37419 -11.71609,4.74837 -17.57414,7.12256 z"
         id="path3079"
         inkscape:connector-curvature="0" />
      <path
         style="fill:none;stroke:#000000;stroke-width:1px;stroke-linecap:butt;stroke-linejoin:miter;stroke-opacity:1"
         d="m 658.1875,388 c 4.56004,1.398 10.86811,-0.0999 12.5625,-5.09375 -4.1875,1.69792 -8.375,3.39583 -12.5625,5.09375 z"
         id="path3083"
         inkscape:connector-curvature="0" />
    </g>
  </g>
</svg>
