<?xml version="1.0" encoding="UTF-8" standalone="no"?>
<!-- Created with Inkscape (http://www.inkscape.org/) -->

<svg
   xmlns:dc="http://purl.org/dc/elements/1.1/"
   xmlns:cc="http://creativecommons.org/ns#"
   xmlns:rdf="http://www.w3.org/1999/02/22-rdf-syntax-ns#"
   xmlns:svg="http://www.w3.org/2000/svg"
   xmlns="http://www.w3.org/2000/svg"
   xmlns:sodipodi="http://sodipodi.sourceforge.net/DTD/sodipodi-0.dtd"
   xmlns:inkscape="http://www.inkscape.org/namespaces/inkscape"
   width="48"
   height="48"
   id="svg4160"
   version="1.1"
   inkscape:version="0.48.2 r9819"
   sodipodi:docname="ChristmasTree-01.svg">
  <defs
     id="defs4162" />
  <sodipodi:namedview
     id="base"
     pagecolor="#ffffff"
     bordercolor="#666666"
     borderopacity="1.0"
     inkscape:pageopacity="0.0"
     inkscape:pageshadow="2"
     inkscape:zoom="11.2"
     inkscape:cx="6.8482146"
     inkscape:cy="15.458561"
     inkscape:document-units="px"
     inkscape:current-layer="layer1"
     showgrid="false"
     fit-margin-top="0"
     fit-margin-left="0"
     fit-margin-right="0"
     fit-margin-bottom="0"
     inkscape:window-width="1585"
     inkscape:window-height="1092"
     inkscape:window-x="2"
     inkscape:window-y="2"
     inkscape:window-maximized="0" />
  <metadata
     id="metadata4165">
    <rdf:RDF>
      <cc:Work
         rdf:about="">
        <dc:format>image/svg+xml</dc:format>
        <dc:type
           rdf:resource="http://purl.org/dc/dcmitype/StillImage" />
        <dc:title />
      </cc:Work>
    </rdf:RDF>
  </metadata>
  <g
     inkscape:label="Layer 1"
     inkscape:groupmode="layer"
     id="layer1"
     transform="translate(-91.528107,-104.27354)">
    <path
       inkscape:connector-curvature="0"
       style="fill:none;stroke:#000000;stroke-width:0.1;stroke-miterlimit:4;stroke-opacity:1;stroke-dasharray:none"
       d="m 115.33431,104.29783 c -0.0264,-0.005 -0.0561,0.0707 -0.10847,0.25643 -0.0516,0.18348 -0.23182,0.81398 -0.40031,1.40111 -0.16849,0.58711 -0.35102,1.24169 -0.40657,1.45529 l -0.10013,0.3899 -1.64085,-0.0167 c -0.98103,-0.01 -1.64269,0.007 -1.64504,0.0437 -0.003,0.0648 0.53597,0.45982 0.85274,0.62339 0.10029,0.0517 0.23541,0.14435 0.30024,0.20434 0.0648,0.0601 0.42658,0.31103 0.80271,0.55876 0.37612,0.24772 0.68387,0.48942 0.68387,0.53583 0,0.0464 -0.13116,0.54684 -0.2919,1.11336 -0.1607,0.56652 -0.3142,1.12797 -0.33985,1.24682 -0.0257,0.11881 -0.0746,0.23342 -0.10847,0.25436 -0.0339,0.0209 -0.0604,0.10246 -0.0604,0.18139 0,0.12716 0.0322,0.11281 0.28355,-0.12515 0.15603,-0.14752 0.52375,-0.42974 0.81732,-0.62548 0.0831,-0.0539 0.52421,-0.33897 0.85065,-0.5692 0.0566,0.0644 0.12382,0.14334 0.0729,0.30023 -0.0446,0.13751 -0.75928,1.95438 -0.82147,2.03493 -0.0284,0.0367 -0.25076,0.51706 -0.49622,1.06749 -0.4744,1.0638 -1.44419,2.90999 -2.00991,3.82589 -0.28318,0.45851 -0.75722,1.15602 -1.05915,1.56164 -0.31882,0.4283 -1.35616,1.48291 -1.8723,1.90356 -0.10296,0.0839 -0.17063,0.16923 -0.15219,0.18765 0.0936,0.0936 2.54125,-1.53944 2.80635,-1.87229 0.14635,-0.18377 -0.0689,0.31992 -0.31274,0.73183 -0.15202,0.25687 -0.31711,0.54444 -0.36487,0.63799 -0.0477,0.0936 -0.23774,0.37153 -0.42326,0.61923 -0.18549,0.24771 -0.3234,0.46471 -0.30648,0.48162 0.0559,0.0559 0.57767,-0.1597 1.04665,-0.43367 0.25413,-0.14835 0.48186,-0.27104 0.50456,-0.27104 0.0227,0 0.21216,-0.12766 0.42116,-0.28355 0.51004,-0.38061 1.23678,-0.85027 1.26765,-0.8194 0.0541,0.0541 -1.47773,2.86517 -1.69507,3.11076 -0.0512,0.0579 -0.0918,0.12315 -0.0918,0.14601 0,0.0482 -1.13751,1.79973 -1.20094,1.84936 -0.0235,0.0184 -0.23212,0.28856 -0.46494,0.60046 -0.61033,0.81763 -1.62647,1.89245 -2.19132,2.31848 -0.2976,0.22448 -0.46491,0.392 -0.42741,0.4295 0.0604,0.0604 0.57703,-0.16471 0.6505,-0.28355 0.0192,-0.031 0.32718,-0.27423 0.68389,-0.54001 0.3567,-0.26578 0.72348,-0.5549 0.81522,-0.64424 0.22351,-0.21769 0.46176,-0.37223 0.50665,-0.32734 0.0576,0.0576 -0.34535,0.74909 -0.89653,1.53869 -0.60373,0.86485 -1.30731,1.64504 -1.48451,1.64504 -0.0699,0 -0.12716,0.0464 -0.12716,0.10212 0,0.0763 0.0454,0.0899 0.18348,0.0584 0.40791,-0.0933 1.76235,-0.61999 2.70212,-1.05082 0.21099,-0.0968 0.38378,-0.15219 0.38364,-0.12515 -2.6e-4,0.0531 -0.23153,0.44311 -0.33777,0.57127 -0.0357,0.043 -0.18266,0.25974 -0.32734,0.48163 -0.14468,0.22189 -0.33248,0.47721 -0.41698,0.56919 -0.0844,0.0919 -0.19586,0.24888 -0.24811,0.34818 -0.18429,0.35019 -1.69548,1.81395 -2.25595,2.18505 -0.30192,0.19991 -0.5375,0.3928 -0.5254,0.4295 0.0269,0.0813 0.45879,0.0539 1.04039,-0.0668 0.2381,-0.0494 0.439,-0.0843 0.44617,-0.0771 0.0262,0.0262 -0.64121,0.85304 -1.02161,1.26557 -0.50209,0.54448 -1.39345,1.21616 -2.00781,1.51368 -0.26521,0.12849 -0.47249,0.26354 -0.46077,0.30024 0.0249,0.0779 0.4047,0.0849 0.87777,0.015 l 0.3336,-0.0501 -0.23353,0.20641 c -0.12849,0.11364 -0.39864,0.31285 -0.60046,0.4441 -0.20183,0.13133 -0.47756,0.3121 -0.61089,0.40031 -0.13333,0.0883 -0.3196,0.18091 -0.41492,0.20641 -0.26404,0.0706 -0.177,0.18026 0.1335,0.16888 0.58551,-0.0215 2.28494,-0.57957 3.24835,-1.0675 0.17722,-0.0898 0.35139,-0.15535 0.38573,-0.14384 0.0984,0.0329 -1.10684,1.69435 -1.28852,1.77637 -0.0259,0.0117 -0.15953,0.17694 -0.29605,0.36695 -0.92458,1.28697 -3.80492,4.22308 -4.82667,4.91842 -0.12849,0.0874 -0.24852,0.17729 -0.26686,0.20017 -0.0945,0.11764 -0.89765,0.60602 -1.35315,0.82355 -0.53539,0.2557 -0.62517,0.41213 -0.19389,0.33775 0.23479,-0.0405 1.21738,-0.37182 1.90773,-0.64216 0.27408,-0.1073 0.31331,-0.10947 0.23977,-0.0209 -0.12549,0.15119 -1.17771,0.83417 -1.48032,0.96118 -0.16687,0.0701 -0.25392,0.15102 -0.25437,0.2335 -6e-4,0.11665 0.0365,0.12232 0.51291,0.0793 0.2829,-0.0257 0.75268,-0.0931 1.04247,-0.14802 0.51651,-0.0979 2.23025,-0.64154 2.82512,-0.89653 0.57287,-0.24555 0.46677,-0.12699 -0.39405,0.4441 -0.85333,0.56611 -0.83716,0.55316 -0.72348,0.62339 0.15953,0.0986 0.29308,0.0452 2.23299,-0.89235 0.80361,-0.38844 1.47169,-0.69665 1.48447,-0.68387 0.0134,0.0134 -0.13383,0.2019 -0.32734,0.41907 -0.19357,0.21719 -0.43751,0.49914 -0.54209,0.62758 -0.24832,0.30494 -1.60756,1.77153 -1.90772,2.05785 -0.12849,0.12249 -0.50372,0.48192 -0.83398,0.80063 -0.9292,0.89671 -1.71516,1.54351 -2.40188,1.97445 -0.22017,0.13817 -0.50029,0.32083 -0.6213,0.40657 -0.12099,0.0858 -0.25614,0.16976 -0.30024,0.18556 -0.0441,0.015 -0.0597,0.0489 -0.0354,0.0751 0.0416,0.0449 1.08077,-0.26318 1.22387,-0.36279 0.0367,-0.0255 0.38195,-0.15786 0.76726,-0.29607 0.3853,-0.13817 1.05425,-0.40149 1.48865,-0.58379 0.43443,-0.18229 0.80318,-0.32061 0.81732,-0.30648 0.0324,0.0324 -0.27885,0.4936 -0.44619,0.66092 -0.0692,0.0693 -0.12515,0.20185 -0.12515,0.29607 0,0.14652 0.0217,0.16587 0.15018,0.12716 0.0826,-0.0249 0.36028,-0.19741 0.61715,-0.38363 0.25687,-0.18623 0.59579,-0.42791 0.75475,-0.53583 0.15904,-0.10797 0.39488,-0.29306 0.52334,-0.41074 0.12849,-0.11765 0.31939,-0.26478 0.42531,-0.32734 l 0.19391,-0.11264 -0.098,0.27312 c -0.0531,0.15052 -0.22778,0.52801 -0.38987,0.84024 -0.20805,0.4008 -0.27016,0.5776 -0.21057,0.60048 0.21398,0.0821 2.93739,-1.35419 4.96011,-2.61663 0.26885,-0.16779 0.50328,-0.29109 0.52123,-0.27312 0.0384,0.0384 -0.36305,1.62398 -0.4566,1.80349 -0.11347,0.21775 -0.005,0.19569 0.40658,-0.0834 0.22145,-0.15035 0.4705,-0.30414 0.55458,-0.33985 0.21661,-0.0919 1.20989,-0.80036 1.27392,-0.90905 0.0859,-0.14601 0.24687,-0.1078 0.24393,0.0584 -10e-4,0.0826 -0.0399,0.36215 -0.0854,0.62132 -0.0456,0.25917 -0.0644,0.54254 -0.0437,0.62966 l 0.0375,0.15853 0.13967,-0.17932 c 0.0776,-0.0986 0.15953,-0.17931 0.18139,-0.17931 0.0219,0 0.22357,-0.14267 0.44826,-0.31691 0.22471,-0.17429 0.4795,-0.37264 0.56712,-0.43992 l 0.16053,-0.12099 -0.0396,3.02529 c -0.36677,0.49104 1.8228,0.70869 1.7472,-0.0668 l -0.0729,-2.56033 0.50039,0.42742 c 0.54472,0.4634 0.80139,0.65259 0.88194,0.65259 0.0718,0 0.0646,-0.17732 -0.0134,-0.31693 -0.0876,-0.15853 -0.53583,-1.21405 -0.53583,-1.26139 0,-0.021 0.12766,0.0641 0.28355,0.18973 0.15603,0.12566 0.52375,0.39931 0.8173,0.60881 0.29356,0.20951 0.61483,0.44585 0.71515,0.52541 0.26872,0.21313 0.279,0.12182 0.027,-0.25019 -0.79749,-1.17794 -1.33479,-2.09453 -1.17176,-1.99739 0.13584,0.0809 1.05239,0.79083 1.3302,1.02996 0.1285,0.11047 0.25879,0.20126 0.28981,0.20225 0.031,9.8e-4 0.14952,0.0696 0.2648,0.15219 0.11531,0.0826 0.28387,0.18865 0.37321,0.23559 0.22548,0.11848 0.32158,0.01 0.20849,-0.23351 -0.15953,-0.34342 -0.32478,-0.87406 -0.28564,-0.91321 0.0384,-0.0384 0.55633,0.23509 0.75059,0.39614 0.0551,0.0455 0.88069,0.49374 1.83476,0.99662 0.95408,0.50285 1.81516,0.96363 1.91399,1.0237 0.29032,0.17649 0.29341,0.0425 0.008,-0.36904 -0.28941,-0.41792 -0.48001,-0.81938 -0.38988,-0.81938 0.0484,0 0.96311,0.35333 1.20302,0.46494 0.24746,0.11514 1.356,0.51264 2.13498,0.76518 0.18348,0.0594 0.37864,0.12749 0.43367,0.15019 0.0551,0.0227 0.14752,0.0507 0.20643,0.0626 0.0589,0.0117 0.41923,0.12382 0.80062,0.2481 0.38138,0.12432 0.9645,0.29599 1.29476,0.38156 0.33024,0.0856 0.61548,0.17125 0.63382,0.1918 0.0183,0.0205 0.0634,0.0384 0.10012,0.0395 0.1577,0.005 0.7102,0.12516 1.26766,0.27314 0.67789,0.17993 0.70055,0.18265 0.70055,0.098 0,-0.0621 -1.36738,-0.8736 -1.47199,-0.8736 -0.0312,0 -0.0811,-0.0384 -0.11047,-0.0854 -0.0294,-0.0471 -0.41253,-0.30972 -0.85276,-0.58379 -0.44023,-0.27408 -0.98063,-0.633 -1.20094,-0.79854 -0.22027,-0.16554 -0.53046,-0.3896 -0.68802,-0.49622 -0.15753,-0.10663 -0.29929,-0.21253 -0.31484,-0.23769 -0.015,-0.0252 0.52744,0.0641 1.20511,0.20016 0.8698,0.17477 1.23221,0.22363 1.23221,0.16671 0,-0.0442 -0.12766,-0.135 -0.28355,-0.20224 -0.15603,-0.0673 -0.53413,-0.27474 -0.84024,-0.46078 -0.30611,-0.18605 -0.60906,-0.36779 -0.67135,-0.40447 -0.52015,-0.30635 -0.82135,-0.53488 -0.72974,-0.55252 0.0581,-0.0117 0.46057,0.0404 0.89444,0.11464 0.43388,0.0743 0.80025,0.12132 0.81522,0.1063 -1.53508,-1.00727 -3.31103,-2.13441 -4.712,-3.4527 l -0.15019,-0.18139 0.319,0.14184 c 0.17602,0.0776 0.38114,0.17864 0.45453,0.22518 0.0734,0.0466 0.55375,0.25412 1.06749,0.46079 0.51374,0.20666 0.99412,0.40285 1.06749,0.43574 0.48686,0.21827 1.18936,0.46115 1.24056,0.42952 0.0956,-0.0591 -0.0414,-0.25597 -0.25228,-0.36487 -0.29762,-0.15369 -1.53939,-1.02566 -2.08913,-1.46574 -0.2752,-0.22031 -0.57544,-0.45156 -0.66719,-0.51497 -0.56408,-0.38998 -2.86889,-2.59444 -2.86889,-2.74382 0,-0.10213 0.21451,-0.0678 0.5671,0.0896 0.11014,0.0491 0.45537,0.18034 0.76727,0.2919 0.51512,0.18424 0.82199,0.28378 2.11414,0.68177 0.80917,0.24925 0.84099,0.0941 0.0834,-0.40446 -0.29499,-0.19414 -0.52583,-0.36237 -0.5129,-0.3753 0.0134,-0.0134 0.26338,0.0492 0.55461,0.13967 0.29122,0.0905 0.58212,0.16621 0.64633,0.16687 0.18603,0.002 0.13567,-0.12098 -0.10012,-0.24185 -0.11932,-0.0611 -0.35072,-0.20281 -0.51291,-0.31692 -0.1622,-0.11414 -0.51233,-0.35861 -0.77976,-0.54207 -0.65944,-0.4524 -1.06841,-0.80368 -1.89524,-1.63253 -0.75805,-0.75992 -1.14899,-1.24084 -1.60334,-1.97029 -0.16003,-0.25687 -0.32133,-0.48737 -0.35861,-0.51289 -0.0372,-0.0255 -0.0494,-0.0652 -0.027,-0.0876 0.0224,-0.0224 0.62753,0.15636 1.3448,0.39614 1.25618,0.41991 3.3818,0.9216 3.3818,0.79853 0,-0.0519 -0.5628,-0.5592 -1.04039,-0.93823 -0.6044,-0.47965 -0.89445,-0.74533 -0.89445,-0.8173 0,-0.0354 -0.0647,-0.0833 -0.14384,-0.10847 -0.19514,-0.0619 -1.73377,-1.61453 -2.21215,-2.23298 -0.48959,-0.63296 -1.00261,-1.40134 -0.96324,-1.44071 0.0167,-0.0167 0.22171,0.0866 0.4566,0.22935 0.23489,0.14268 0.69795,0.40369 1.02789,0.57962 0.32993,0.17592 0.6605,0.37118 0.73389,0.43366 0.12349,0.10513 0.5107,0.26479 0.64218,0.26479 0.13517,0 0.015,-0.14935 -0.67136,-0.8319 -0.40053,-0.39827 -0.76298,-0.79156 -0.80687,-0.8736 -0.0439,-0.0821 -0.24584,-0.32385 -0.44827,-0.53791 -0.70084,-0.74112 -1.88396,-2.47858 -2.2184,-3.25878 l -0.14185,-0.3336 0.48789,0.46703 c 1.0859,1.03949 2.63537,2.29971 2.82928,2.29971 0.1607,0 0.10446,-0.1003 -0.28981,-0.51082 -0.91682,-0.95439 -2.04123,-2.3402 -2.44982,-3.01901 -0.0618,-0.10263 0.45277,0.23799 0.78811,0.52124 0.11597,0.098 0.34569,0.26625 0.51081,0.37529 0.16521,0.10896 0.33907,0.23535 0.38782,0.28146 0.17598,0.16654 0.35697,0.23306 0.43158,0.15853 0.0501,-0.0501 -0.0427,-0.21375 -0.31275,-0.55667 -0.7407,-0.94052 -1.49382,-1.95933 -1.83893,-2.48735 -0.29932,-0.45801 -0.91694,-1.65759 -1.25097,-2.43107 -0.0956,-0.22139 -0.0956,-0.22837 0.0229,-0.1355 0.0679,0.0532 0.32025,0.2848 0.55878,0.5129 0.23851,0.22808 0.55791,0.49809 0.71096,0.60046 0.15303,0.10246 0.36482,0.26063 0.46912,0.35236 0.31008,0.27274 0.9439,0.73391 1.00912,0.73391 0.0334,0 0.14117,0.0642 0.23976,0.14184 0.0986,0.0776 0.19566,0.12549 0.21477,0.1063 0.0305,-0.0305 -0.39835,-0.69528 -0.50456,-0.78185 -0.0476,-0.0387 -0.82818,-1.10905 -1.09461,-1.50118 -0.65711,-0.96714 -0.91564,-1.37052 -1.05082,-1.6346 -0.0846,-0.1652 -0.17323,-0.31526 -0.19599,-0.33359 -0.0663,-0.0534 -0.46495,-0.65248 -0.46495,-0.69847 0,-0.0808 0.28951,0.16137 0.89238,0.74849 0.69471,0.67653 1.8198,1.63807 1.9932,1.70342 0.19858,0.0748 0.13033,-0.0781 -0.21058,-0.47329 -0.17994,-0.20853 -0.5177,-0.59934 -0.75058,-0.86943 -0.23287,-0.27007 -0.62546,-0.76545 -0.87151,-1.10085 -0.24606,-0.3354 -0.48624,-0.6568 -0.53375,-0.71305 -0.13299,-0.15753 -0.42179,-0.55347 -0.4858,-0.66511 -0.0315,-0.0551 0.34531,0.31251 0.83816,0.81732 0.49286,0.50479 0.91905,0.9176 0.94657,0.91737 0.11781,-10e-4 0.0302,-0.16973 -0.25019,-0.48163 -0.16521,-0.18366 -0.30024,-0.37425 -0.30024,-0.42533 0,-0.0511 -0.0264,-0.0938 -0.0584,-0.0938 -0.032,0 -0.24548,-0.28486 -0.47328,-0.63382 -0.22782,-0.34899 -0.451,-0.67174 -0.49622,-0.71723 -0.0741,-0.0746 -0.70494,-1.06864 -1.11129,-1.75137 -0.0874,-0.14685 -0.1952,-0.30444 -0.23977,-0.35027 -0.0446,-0.0459 -0.26866,-0.42112 -0.4983,-0.83398 -0.22965,-0.41286 -0.50296,-0.9007 -0.60672,-1.08418 -0.37665,-0.66599 -1.20229,-2.40563 -1.21137,-2.55198 -0.10713,-0.76195 2.08973,0.98671 2.24342,1.10293 0.0644,0.0564 0.136,0.0849 0.15853,0.0626 0.0344,-0.0344 -0.14785,-0.6335 -0.88195,-2.91268 -0.0908,-0.28173 -0.0868,-0.30261 0.0562,-0.4566 0.0826,-0.0889 0.43534,-0.35898 0.78394,-0.60048 0.3486,-0.24149 0.72964,-0.52136 0.84648,-0.6213 0.11681,-0.1 0.27448,-0.20112 0.35029,-0.22518 0.33838,-0.10746 0.0424,-0.13333 -1.28226,-0.11264 l -1.41984,0.0209 -0.14185,-0.45453 c -0.38067,-1.22245 -0.76548,-2.3952 -0.84857,-2.58325 -0.0507,-0.11498 -0.11631,-0.26855 -0.14384,-0.34194 -0.0134,-0.0337 -0.0235,-0.0537 -0.0354,-0.0562 z m 1.75135,14.62804 c -0.21236,0.0117 -0.43183,0.0796 -0.64216,0.21892 -0.91548,0.60641 -0.7036,2.01826 0.34403,2.29138 0.59358,0.15469 1.21397,-0.0851 1.48449,-0.57336 0.53198,-0.96013 -0.26608,-1.98473 -1.18636,-1.93694 z m -2.72503,8.01458 c -0.11263,0.007 -0.23397,0.0302 -0.37321,0.0688 -0.77449,0.21508 -1.1401,1.20775 -0.70471,1.91608 0.17058,0.27752 0.52891,0.55113 0.80687,0.61714 0.30521,0.0724 0.29255,0.0724 0.62132,-0.01 0.39875,-0.10046 0.8695,-0.56819 0.92989,-0.92571 0.0841,-0.49734 -0.0217,-0.84732 -0.36278,-1.20303 -0.33075,-0.34496 -0.57929,-0.48133 -0.91738,-0.46286 z m 5.19989,5.55849 c -0.0676,-0.001 -0.1355,0.005 -0.20225,0.0167 -0.89636,0.1622 -1.32715,1.05509 -0.92156,1.90982 0.13633,0.28737 0.54769,0.58978 0.89235,0.65676 0.13617,0.0265 0.2498,0.0501 0.2523,0.0542 0.003,0.003 0.15202,-0.0357 0.33358,-0.0896 0.55294,-0.16421 0.96325,-0.70498 0.96325,-1.27183 0,-0.65156 -0.66378,-1.26302 -1.31769,-1.27599 z m -10.16418,4.13657 c -0.30356,0.003 -0.68184,0.1903 -0.86108,0.44199 -0.39199,0.55049 -0.14585,1.29831 0.50039,1.52411 0.27714,0.0968 0.40256,0.0928 0.65468,-0.0117 0.44693,-0.18673 0.71498,-0.70406 0.61089,-1.17799 -0.0657,-0.29916 -0.48439,-0.70977 -0.77977,-0.76519 -0.0396,-0.007 -0.0818,-0.0117 -0.12516,-0.01 z m 6.12979,4.37215 c -0.14134,0.003 -0.28188,0.0457 -0.43993,0.12716 -0.34746,0.17927 -0.54656,0.49808 -0.54626,0.87567 4e-4,0.50211 0.26274,0.82456 0.76727,0.94449 0.2403,0.0571 0.38539,0.0255 0.71514,-0.15636 0.59745,-0.32968 0.56353,-1.38734 -0.0542,-1.68047 -0.15936,-0.0756 -0.30074,-0.11314 -0.442,-0.11047 z m -6.42584,1.6763 c -0.2307,0.003 -0.46591,0.0714 -0.68178,0.21475 -0.86363,0.57319 -0.67585,1.95799 0.31691,2.34557 0.0551,0.0215 0.27253,0.0294 0.4837,0.0187 0.707,-0.0355 1.17273,-0.5264 1.19886,-1.26348 0.0274,-0.77167 -0.62559,-1.32753 -1.31769,-1.3156 z m 11.79669,0.35235 c -0.11198,-10e-4 -0.22583,0.0134 -0.33986,0.0437 -0.28991,0.0781 -0.88436,0.52427 -0.85065,0.63801 0.0117,0.0367 -0.0134,0.12682 -0.0521,0.20015 -0.18908,0.35814 -0.0167,1.04603 0.35235,1.399 0.1033,0.099 0.30445,0.22052 0.44619,0.27105 0.32195,0.11481 0.52444,0.11548 0.83607,0.003 0.93207,-0.33291 1.23588,-1.47855 0.56293,-2.12248 -0.29641,-0.28365 -0.6191,-0.4303 -0.9549,-0.43367 z"
       id="path3047"
       sodipodi:nodetypes="csscccssssssssssccssssssssssssssssssssssssssssssssssssssssssscccssssssssssssssssssssssssssssssssssssssssscccsssssssssscccssccccccssssssssssssssssssssssssssssssssssssssssssccccsssssssssssssssssssssssssssssssssssscccssssssssssssssssssssssssssssssssssssssssccsssssscccssccsssccssssssccssssssccsssssccsssssccssssccsssssssc" />
  </g>
</svg>
