<?xml version="1.0" encoding="UTF-8" standalone="no"?>
<!-- Created with Inkscape (http://www.inkscape.org/) -->

<svg
   xmlns:dc="http://purl.org/dc/elements/1.1/"
   xmlns:cc="http://creativecommons.org/ns#"
   xmlns:rdf="http://www.w3.org/1999/02/22-rdf-syntax-ns#"
   xmlns:svg="http://www.w3.org/2000/svg"
   xmlns="http://www.w3.org/2000/svg"
   xmlns:sodipodi="http://sodipodi.sourceforge.net/DTD/sodipodi-0.dtd"
   xmlns:inkscape="http://www.inkscape.org/namespaces/inkscape"
   width="48"
   height="48"
   id="svg4160"
   version="1.1"
   inkscape:version="0.48.2 r9819"
   sodipodi:docname="ChristmasTree-01.hpgl">
  <defs
     id="defs4162" />
  <sodipodi:namedview
     id="base"
     pagecolor="#ffffff"
     bordercolor="#666666"
     borderopacity="1.0"
     inkscape:pageopacity="0.0"
     inkscape:pageshadow="2"
     inkscape:zoom="11.2"
     inkscape:cx="34.0887"
     inkscape:cy="15.458561"
     inkscape:document-units="px"
     inkscape:current-layer="layer1"
     showgrid="false"
     fit-margin-top="0"
     fit-margin-left="0"
     fit-margin-right="0"
     fit-margin-bottom="0"
     inkscape:window-width="1585"
     inkscape:window-height="1092"
     inkscape:window-x="2"
     inkscape:window-y="2"
     inkscape:window-maximized="0" />
  <metadata
     id="metadata4165">
    <rdf:RDF>
      <cc:Work
         rdf:about="">
        <dc:format>image/svg+xml</dc:format>
        <dc:type
           rdf:resource="http://purl.org/dc/dcmitype/StillImage" />
        <dc:title></dc:title>
      </cc:Work>
    </rdf:RDF>
  </metadata>
  <g
     inkscape:label="Layer 1"
     inkscape:groupmode="layer"
     id="layer1"
     transform="translate(-91.528107,-104.27354)">
    <path
       id="www.ABC-color.com"
       stroke-miterlimit="10"
       d="m 112.24235,145.75948 c 0.10729,-0.12826 0.1899,-0.25669 0.23936,-0.38502 9e-5,0 -0.0908,0.14667 -0.23936,0.38502 z m -7.47245,-15.82247 c 0.033,-0.0184 0.0662,-0.0458 0.0908,-0.0642 -0.0165,0.009 -0.0412,0.0276 -0.0908,0.0642 z m 4.54127,-0.44001 c 0.0412,-0.0735 0.0662,-0.12834 0.0825,-0.17418 -0.0165,0.0184 -0.0412,0.0825 -0.0825,0.17418 z m 1.04861,4.07937 c -0.008,0.009 -0.033,0.0275 -0.0743,0.055 0.0247,-0.0184 0.0496,-0.0366 0.0743,-0.055 z m -5.58988,-3.63936 c -0.83394,0.48587 -4.59083,0.88006 -5.565149,0.98089 1.312859,-0.23844 5.556889,-2.39271 5.556889,-2.39271 -0.70182,0.0734 -1.18899,-0.85255 -1.18899,-0.85255 0.38807,-0.1925 6.5642,-0.38501 6.5642,-0.38501 5.14402,-0.39418 4.26055,-2.40179 4.26055,-2.40179 0.0496,0.59587 -1.26331,0.66004 -1.96515,0.73338 -0.4789,0.055 -0.0825,-1.21007 0.14036,-1.79676 0.0412,-0.0642 0.0742,-0.11918 0.0907,-0.18335 0.0743,-0.22 0.009,-0.0916 -0.0907,0.18335 -0.45411,0.65086 -2.07254,1.32924 -2.71651,1.3934 -0.69348,0.0734 1.3046,-1.88842 1.35415,-1.94343 -0.75964,0.60502 -3.45962,1.10922 -3.60008,0.67836 -0.14028,-0.44001 1.7588,-0.78837 1.7588,-0.78837 l -1.32944,-0.0825 c -0.70183,0.0734 -0.34678,-0.48587 -0.34678,-0.48587 1.32109,0.009 5.72207,-0.7517 5.72207,-0.7517 1.11467,-0.0366 0.73478,-2.10845 0.73478,-2.10845 -0.48708,0.20168 -1.23018,1.03589 -1.92384,1.25591 -0.69366,0.22 -0.20643,-1.25591 -0.20643,-1.25591 -0.57797,0.35752 -1.57705,0.54087 -1.98164,0.5867 -0.40459,0.0458 0.71009,-1.20089 0.42109,-1.01754 -0.28898,0.18333 -0.96597,0.55002 -1.88254,0.57752 -0.90827,0.0184 0.0247,-0.90754 0.0247,-0.90754 1.97339,-0.66003 3.12117,-0.33002 3.12117,-0.33002 0.61926,0.0826 2.53477,-0.0366 2.53477,-0.0366 0.50374,-0.055 0.0663,-1.5859 0.0663,-1.5859 -0.38807,0.1925 -1.4698,0.67836 -1.86613,0.72419 -0.40451,0.0458 0.7266,-1.05421 0.43761,-0.79754 -0.28064,0.25669 -1.67614,0.62338 -2.17973,0.67837 -0.49541,0.055 0.0247,-0.65086 0.0412,-0.67837 -0.48714,0.27502 -1.78355,-0.71503 -1.78355,-0.71503 0.13219,-0.84337 3.1376,-0.10084 3.1376,-0.10084 0.52027,0.17427 2.29549,-0.46743 2.29549,-0.46743 -0.0496,-0.59586 -0.74313,-0.37585 -0.85872,-0.5867 -0.12385,-0.21084 -1.00733,0.11001 -1.61008,0.17418 -0.60273,0.0642 -1.1477,-0.40335 -1.1477,-0.40335 0.46246,-0.49502 3.54219,-0.14667 3.54219,-0.14667 -0.0412,-0.52253 -1.60183,-0.96256 -1.60183,-0.96256 -1.23019,-0.10083 0.26422,-0.47669 -2.01459,0.21084 -0.7266,0.22002 0.7266,-0.98087 0.7266,-0.98087 1.08165,-0.41253 2.93119,-0.15585 2.93119,-0.15585 0.77614,-0.45836 0.4211,-1.01754 0.4211,-1.01754 -0.17341,0.32085 -0.99083,0.25667 -0.99083,0.25667 -0.50367,0.055 -1.28807,-0.84337 -1.28807,-0.84337 1.56055,0.44002 2.06422,-0.81587 2.06422,-0.81587 0,0 -0.38808,-0.25669 -1.0321,-0.19252 -0.50368,0.055 1.65962,-0.97171 1.24678,-0.88004 -1.99808,0.43085 -0.099,-1.19173 -0.099,-1.19173 0,0 -0.61926,-0.165 -1.12301,-0.0366 -0.48707,0.12834 1.41201,-1.82425 1.46146,-1.87926 -0.0578,0.0366 -2.75779,1.8426 -0.54495,-0.46752 0.73477,-0.77004 0.69349,-1.42091 0.69349,-1.42091 0,0 0.74311,0.92589 0.90826,1.10923 2.46879,2.75013 -0.0991,2.42011 -0.0991,2.42011 1.16432,0.55003 1.51929,2.31928 1.21376,2.35597 -0.3055,0.0274 -0.85863,-0.51337 -0.85863,-0.51337 l 0.0164,1.43007 c 1.36237,0.53168 2.27063,0.44002 2.27063,0.44002 0,0 -0.91651,1.1459 -1.04037,0.8617 -0.12384,-0.28416 -0.5532,-0.54084 -0.7266,-0.14665 -0.16514,0.39417 -0.0331,0.8342 -0.0331,0.8342 1.23852,0.24752 1.34586,0.31168 1.34586,0.31168 0.90826,-0.0185 1.51926,1.19173 1.55237,1.49424 0.0248,0.29334 -1.77522,-0.57752 -1.87431,-0.62336 0.74312,0.44919 0.48706,0.99921 0.48706,0.99921 -0.48706,0.20168 -1.35402,-0.38502 -1.35402,-0.38502 -1.20559,0.12834 -0.8257,0.99006 -0.8257,0.99006 1.11469,-0.0458 4.27706,1.35671 4.50826,1.63174 0.71015,0.8617 -2.56788,-0.33001 -2.56788,-0.33001 0.1321,0.36668 -0.66056,0.59586 -0.66056,0.59586 -0.60276,0.0642 -1.20558,-1.07255 -1.47797,-0.66921 -0.27239,0.40335 -0.18991,1.37507 -0.18991,1.37507 0.0248,0.30253 2.91467,0.82504 2.91467,0.82504 4.48346,0.71504 4.50832,1.61342 4.50832,1.63176 -0.34679,0.71502 -3.40183,-0.62338 -3.70732,-0.5867 -0.94954,0.10084 -0.009,1.05421 -0.009,1.05421 -0.5945,0.21085 -1.52752,-1.19171 -1.52752,-1.19171 l -0.3799,0.33918 c -0.17339,0.39417 -1.39532,-0.90755 -1.67614,-0.57754 -0.28074,0.33003 0.0907,1.11838 0.21468,1.32924 0.64413,1.14588 2.84036,1.20089 2.84036,1.20089 5.40824,-0.87088 6.2009,0.10083 6.2009,0.10083 0.0412,0.52253 -2.89815,0.5317 -2.89815,0.5317 -0.27249,0.40334 1.59356,0.88004 1.59356,0.88004 -0.0496,0.60503 -4.17796,-0.16501 -4.17796,-0.16501 0.0412,0.4492 0.8009,1.04505 0.8009,1.04505 -0.57797,0.35753 -2.86512,-1.43007 -2.86512,-1.43007 0.17339,0.88004 -0.93303,0.9259 -0.93303,0.9259 0.099,2.3926 6.57246,3.21765 6.57246,3.21765 1.61011,-0.16501 6.57246,-0.31169 6.57246,-0.31169 0.0663,0.74254 -5.88713,1.21923 -5.88713,1.21923 2.69998,0.6967 1.42018,1.2009 1.42018,1.2009 -0.37983,0.26585 -3.76513,-1.25582 -3.76513,-1.25582 1.76688,1.69584 0.94121,1.54917 0.94121,1.54917 -2.99726,-2.00761 -3.57524,-1.65008 -3.57524,-1.65008 0.0412,0.52251 0.7844,0.81587 0.7844,0.81587 -0.25594,0.55002 -2.5431,-0.66921 -2.6009,-0.70587 1.84128,3.71268 5.09448,2.62178 5.09448,2.62178 7.53024,-2.21842 6.21741,-0.88004 6.21741,-0.88004 -0.24771,0.62337 -3.75687,1.21923 -4.1532,1.3384 -0.77613,0.22919 2.13845,0.0735 2.46871,0.33918 0.56156,0.45837 -2.67512,0.80671 -2.67512,0.80671 2.65045,1.30173 6.71282,0.19262 6.71282,0.19262 6.15134,-2.89691 5.66419,-1.42091 5.66419,-1.42091 0.0578,0.66919 -4.89631,2.09009 -4.89631,2.09009 0,0 0,0 0.30549,-0.0275 0.29726,-0.0274 3.22019,-0.33918 2.98899,0.51336 -0.23119,0.8343 -3.12108,0.35751 -3.22017,0.33918 1.99816,0.84338 1.75046,1.46674 1.75046,1.46674 -0.76798,0.5317 -5.37529,-1.09088 -5.37529,-1.09088 1.08172,0.78827 0.83401,1.49415 0.83401,1.49415 -0.95779,0.10084 -3.97154,-1.61342 -4.76419,-2.07178 -0.0662,-0.055 -0.12386,-0.0916 -0.18991,-0.10999 0,0 0.0661,0.0458 0.18991,0.10999 0.42108,0.35753 0.71834,1.32924 0.56145,1.61351 -0.35504,0.6417 -2.20458,-2.02602 -2.96419,-1.4209 -0.75956,0.60503 -0.43763,0.87087 -0.43763,0.87087 -4.91283,-1.65933 -2.60916,0.34836 -2.60916,0.34836 0.0824,0.97172 1.31275,1.13663 1.31275,1.13663 0.6689,0.67837 9.44584,0.0642 9.19813,0.68753 -0.2477,0.62346 -4.23576,0.36669 -4.23576,0.36669 2.36973,0.35751 2.46055,1.46674 2.46055,1.46674 -1.06514,0.6417 -6.86144,-0.70578 -6.86144,-0.70578 0.66054,0.60503 6.05226,1.91583 6.05226,1.91583 3.04669,1.18255 3.22843,-0.1925 4.22751,-0.44002 0.99082,-0.25667 0.48708,0.92588 0.48708,0.92588 0.56971,-0.51336 3.66604,-1.06338 3.39364,-0.65994 -0.27255,0.40326 -1.51108,1.2834 -1.51108,1.2834 0,0 -4.85503,1.41164 0.13218,0.36668 4.98707,-1.05421 6.17615,-0.20168 6.17615,-0.20168 -0.83396,0.44003 -3.68257,0.81578 -4.9211,0.96256 -0.20642,-0.009 -0.39641,0.009 -0.57798,0.0642 0,0 0.22285,-0.0276 0.57798,-0.0642 1.17238,0.0275 2.63386,0.85254 2.63386,0.85254 -1.80817,0.1925 -3.55046,0 -3.55046,0 0.0578,0.6692 5.75503,2.02594 5.75503,2.02594 -1.33761,0.96254 -4.40091,-0.36669 -4.40091,-0.36669 -0.59448,0.1375 -3.55043,-1.12756 -3.55043,-1.12756 -0.0165,0.98088 -0.0909,1.35673 -0.0909,1.35673 -0.79266,0.0825 -2.28707,-1.14589 -2.33669,-1.18245 0,0 0.0412,0.10082 0.99082,2.07177 0.52845,1.1093 -3.83943,-3.35518 -5.25135,-3.2085 -1.41194,0.14677 0.8587,1.71425 0.8587,1.71425 0.31378,1.32006 -1.54402,0.91671 -1.57715,0.54086 -0.033,-0.37595 -2.51832,-0.93504 -2.56787,-0.33012 -0.0496,0.60513 0.80092,1.04505 0.34681,1.69592 -0.45415,0.65096 -2.48541,-0.56835 -2.48541,-0.56835 0.0496,0.59586 2.41099,4.48273 1.43668,4.95951 -0.9743,0.47678 -3.17063,-3.8777 -3.43493,-3.39185 -0.26414,0.47669 -0.033,3.16266 -0.94954,4.30855 -0.9165,1.1459 -0.85045,-4.04279 -0.85045,-4.04279 -3.1954,1.83342 -1.59357,-2.01677 -1.76688,-1.69593 -0.17348,0.32086 -2.44411,2.28262 -2.94769,2.33762 -0.39635,0.0458 0.85863,-2.0626 1.40365,-2.94264 -1.22199,1.48507 -5.92841,3.49268 -5.92841,3.49268 -0.87531,0.46761 -1.23852,-0.24753 -1.23852,-0.24753 0,0 0.72659,-1.0542 0.009,-1.0542 -0.71009,0 -2.54312,2.29178 -3.04678,2.42012 -0.48716,0.12833 0.90826,-1.99844 0.94128,-2.05336 -1.40325,1.09071 -10.667466,1.90659 -10.667466,1.90659 -1.436688,-0.14677 -0.165133,-0.73337 -0.165133,-0.73337 7.356859,-0.62337 8.760529,-2.04427 8.760529,-2.04427 -0.69358,0.14667 -3.492659,0.6692 -3.492659,0.6692 -5.771535,-1.04506 -3.674296,-1.4209 -3.674296,-1.4209 3.566956,0.15583 8.785315,-0.55004 8.785315,-0.55004 -0.90825,0.0916 -3.930277,-0.86171 -3.930277,-0.86171 -0.627525,-0.23833 3.971557,0.18334 3.971557,0.18334 2.84028,1.12757 7.65411,-0.73336 7.65411,-0.73336 l -1.71743,0.10084 c 1.45321,-0.0916 3.68254,-2.02594 4.23576,-2.48429 0.0577,-0.0274 0.099,-0.055 0.11552,-0.0824 0.0247,-0.0366 -0.0165,0 -0.11552,0.0824 -0.57798,0.28427 -2.94769,0.84337 -2.94769,0.84337 0,0 -0.0743,-0.89837 -0.44588,-0.4767 -0.37156,0.41253 -2.62567,1.40258 -3.02199,1.44842 -0.39634,0.0458 1.30458,-1.88843 1.35412,-1.94344 -0.67706,0.4492 -4.73944,1.54925 -4.73944,1.54925 0,0 0.7266,-0.98088 0.4376,-0.87088 -0.29724,0.11001 -2.80734,0.36668 -3.723855,0.39419 -0.916501,0.0184 -0.569722,-0.68754 -0.569722,-0.68754 3.600017,0.59587 11.402737,-2.02593 11.402737,-2.02593 l -1.33753,-0.165 c 2.43569,-0.0274 4.0788,-3.35516 4.0788,-3.35516 l -1.37063,0.59585 c -0.0662,0.45835 -3.35235,2.38345 -3.75687,2.42012 -0.40458,0.0458 0.31377,-1.08172 0.31377,-1.08172 l 0.16513,-0.39419 c -0.18166,0.39419 -3.79815,1.89751 -4.49999,1.97094 -0.611,0.0642 1.52752,-1.56758 2.43578,-2.09011 0.28074,-0.11917 0.41283,-0.17408 0.31376,-0.15575 -0.0662,0.0183 -0.17338,0.0734 -0.31376,0.15575 -1.09816,0.44919 -4.42568,1.69591 -4.90456,1.75101 -0.52847,0.055 0.33853,-0.84337 0.56145,-1.06347 -0.72661,0.66003 -3.178911,1.48507 -3.682567,1.3934 -1.023864,-0.19251 2.584387,-2.27345 3.434857,-2.7593 0.0662,-0.0275 0.12386,-0.0642 0.17341,-0.10094 -0.0165,0.009 -0.0743,0.0458 -0.17341,0.10094 -0.95781,0.44909 -3.51744,0.5866 -3.51744,0.5866 -0.957785,0.62346 -2.939433,0.0825 -3.31099,-0.70578 -0.330283,-0.69679 4.54127,-0.76096 5.68897,-0.77003 0.0743,0 0.15689,0 0.23945,0 0,0 -0.0827,0 -0.23945,0 -1.304579,-0.0642 -1.49449,-1.24673 -1.49449,-1.24673 0.9578,0.50419 6.93579,0.39418 6.93579,0.39418 0.91649,-0.0916 3.58346,-2.04426 4.07887,-2.41095 -0.68539,0.43075 -2.97245,0.18334 -3.65786,0.18334 -0.71009,0 0.56155,-0.58669 0.56155,-0.58669 0.43761,0.40335 5.46594,-1.40257 5.46594,-1.40257 1.40366,-0.22002 1.6266,-3.55685 1.6266,-3.55685 -0.73478,0.90745 -2.55962,2.14502 -3.26972,2.14502 -0.40458,0 -0.25603,-0.45836 -0.0412,-0.84338 0.1899,-0.21992 0.32193,-0.40326 0.33026,-0.54076 0,0 -0.18164,0.24751 -0.33026,0.54076 -0.57791,0.65096 -1.75037,1.52183 -2.11366,1.67768 -0.40452,0.16501 0.22291,-1.2559 0.46246,-1.7601 -0.45414,0.76995 -2.46055,2.86931 -3.10468,2.93349 -0.70181,0.0734 0.9413,-2.05343 0.9413,-2.05343 0,0 0.90824,-1.29257 -0.22294,-0.20168 -1.12293,1.09089 -4.68163,2.21844 -4.68163,2.21844 -0.13212,-0.49502 2.03944,-2.0901 2.5266,-2.43846 z"
       inkscape:connector-curvature="0"
       style="fill:none;stroke:#000000;stroke-width:0.10671525;stroke-linecap:round;stroke-linejoin:round;stroke-miterlimit:4;stroke-opacity:1;stroke-dasharray:none" />
  </g>
</svg>
