<?xml version="1.0" encoding="UTF-8" standalone="no"?>
<!-- Created with Inkscape (http://www.inkscape.org/) -->

<svg
   xmlns:dc="http://purl.org/dc/elements/1.1/"
   xmlns:cc="http://creativecommons.org/ns#"
   xmlns:rdf="http://www.w3.org/1999/02/22-rdf-syntax-ns#"
   xmlns:svg="http://www.w3.org/2000/svg"
   xmlns="http://www.w3.org/2000/svg"
   xmlns:sodipodi="http://sodipodi.sourceforge.net/DTD/sodipodi-0.dtd"
   xmlns:inkscape="http://www.inkscape.org/namespaces/inkscape"
   width="48"
   height="48"
   id="svg4160"
   version="1.1"
   inkscape:version="0.48.2 r9819"
   sodipodi:docname="Snowflake-01.svg">
  <defs
     id="defs4162" />
  <sodipodi:namedview
     id="base"
     pagecolor="#ffffff"
     bordercolor="#666666"
     borderopacity="1.0"
     inkscape:pageopacity="0.0"
     inkscape:pageshadow="2"
     inkscape:zoom="11.2"
     inkscape:cx="21.401786"
     inkscape:cy="15.458561"
     inkscape:document-units="px"
     inkscape:current-layer="layer1"
     showgrid="false"
     fit-margin-top="0"
     fit-margin-left="0"
     fit-margin-right="0"
     fit-margin-bottom="0"
     inkscape:window-width="1585"
     inkscape:window-height="1092"
     inkscape:window-x="2"
     inkscape:window-y="2"
     inkscape:window-maximized="0" />
  <metadata
     id="metadata4165">
    <rdf:RDF>
      <cc:Work
         rdf:about="">
        <dc:format>image/svg+xml</dc:format>
        <dc:type
           rdf:resource="http://purl.org/dc/dcmitype/StillImage" />
        <dc:title></dc:title>
      </cc:Work>
    </rdf:RDF>
  </metadata>
  <g
     inkscape:label="Layer 1"
     inkscape:groupmode="layer"
     id="layer1"
     transform="translate(-91.528107,-104.27354)">
    <g
       transform="matrix(0.09208291,0,0,0.09208291,89.228952,93.905602)"
       id="g15445"
       style="fill:none;stroke:#000000;stroke-width:1.08597784;stroke-miterlimit:4;stroke-opacity:1;stroke-dasharray:none;display:inline">
      <path
         inkscape:connector-curvature="0"
         id="path15415"
         d="m 282.07807,112.5377 c 4.44624,-0.17911 7.23518,1.76017 9.75,4.875 2.67584,3.31427 4.70572,7.96916 6.84375,12.1875 0.0207,0.0522 0.0418,0.10405 0.0625,0.15625 4.20076,10.59263 9.09133,20.96997 14.65625,31 5.51689,9.94349 11.71175,19.56745 18.59375,28.78125 6.78069,9.07817 14.21444,17.73728 22.34375,25.9375 0.0297,0.0428 0.0609,0.0845 0.0937,0.125 2.89238,2.4982 4.33567,6.25062 4.53125,10.375 0.19286,4.0671 -0.90458,8.3821 -2.8125,11.6875 -8.07856,9.2608 -19.98469,11.36899 -29.625,3.8125 -0.0222,-0.0193 -0.0403,-0.0433 -0.0625,-0.0625 -0.007,-0.006 -0.0243,0.006 -0.0312,0 -4.80402,-4.13059 -11.2623,-5.36137 -18.4375,-4.9375 -7.10984,0.42001 -15.06676,2.42959 -23.46875,4.96875 -8.42244,0.39891 -11.70841,-1.94594 -15.8125,-4.65625 -4.12739,-2.7257 -9.10968,-5.79182 -18.75,-5.28125 -0.10561,0.0129 -0.21008,0.0337 -0.3125,0.0625 -8.04048,1.71924 -11.81508,3.18262 -14.75,5.0625 -2.90032,1.85772 -4.72364,3.81433 -9.375,6.6875 -10.9166,4.9091 -20.76871,4.9697 -24.90625,2.4375 -2.07485,-1.26982 -2.89974,-2.76965 -2.5625,-5.375 0.33724,-2.60535 2.23494,-6.40362 6.5625,-10.9375 0.0213,-0.0204 0.0421,-0.0412 0.0625,-0.0625 4.90652,-5.58236 9.15507,-10.68223 13.375,-15.78125 4.24368,-5.12773 8.45859,-10.25445 13.34375,-15.8125 6.95437,-7.90001 12.63661,-16.90076 17.46875,-26.03125 5.16467,-9.75882 9.35907,-19.66571 13.125,-28.53125 3.64469,-8.58012 6.8974,-16.18125 10.09375,-21.65625 3.19635,-5.475 6.29564,-8.52094 9.09375,-8.96875 0.31161,-0.0311 0.60983,-0.0506 0.90625,-0.0625 z"
         style="fill:none;stroke:#000000;stroke-width:1.08597784;stroke-linecap:square;stroke-linejoin:round;stroke-miterlimit:4;stroke-opacity:1;stroke-dasharray:none" />
      <path
         inkscape:connector-curvature="0"
         id="path15413"
         d="m 247.92182,239.63145 c 8.73329,-0.11096 13.00064,2.76655 17.1875,5.6875 4.55628,3.17869 9.0057,6.40726 18.9375,5.875 8.01237,-2.5717 15.61175,-4.6152 22.40625,-5.4375 8.95105,-1.0833 16.50956,-0.0361 21.8125,4.84375 5.83583,4.88048 12.50819,6.60284 18.90625,5.59375 1.85763,-0.29298 3.68374,-0.82094 5.46875,-1.5625 3.51794,6.75043 6.95843,12.9883 10.75,19.09375 4.98707,8.03052 10.60556,15.85609 18.03125,24.40625 5.79728,6.67518 12.69215,13.78094 21.1875,21.78125 1.22244,1.58692 1.76632,2.91987 1.90625,3.875 0.14299,0.97606 -0.008,1.62077 -0.5,2.34375 -0.98473,1.44595 -3.81345,2.99645 -7.78125,3.78125 -7.9356,1.56961 -19.87502,0.2832 -28.03125,-4 -0.0102,-0.0104 -0.0208,-0.0209 -0.0312,-0.0312 -9.10715,-4.58598 -19.20284,-6.06605 -28.96875,-4.8125 -9.75757,1.25247 -19.1859,5.23389 -27.03125,11.5625 -8.54724,4.81262 -17.94013,5.75352 -27.375,4.53125 -9.18036,-1.18929 -18.40021,-4.42636 -26.9375,-8.15625 -0.0208,-2.8e-4 -0.0417,-2.8e-4 -0.0625,0 -9.61407,-3.91463 -18.23628,-10.70987 -27.96875,-14.1875 -9.73247,-3.47763 -20.78052,-3.11544 -33.53125,7.03125 -0.0545,0.0496 -0.10665,0.10175 -0.15625,0.15625 -4.65452,4.51963 -13.75934,7.96266 -21.15625,7.625 -3.69845,-0.16883 -6.91123,-1.22315 -9.125,-3.1875 -2.07407,-1.8404 -3.41742,-4.56272 -3.59375,-8.78125 6.78848,-7.37251 13.07254,-15.2082 18.875,-23.40625 5.78336,-8.17106 11.09609,-16.69774 15.9375,-25.5 1.87081,-3.40135 3.35407,-7.01084 4.84375,-10.625 5.34607,-0.23825 11.6727,-1.84452 18.34375,-5.03125 10.78929,-6.9941 8.47398,-9.48158 25.84375,-13.40625 0.62305,-0.0349 1.23028,-0.0555 1.8125,-0.0625 z"
         style="fill:none;stroke:#000000;stroke-width:1.08597784;stroke-linecap:square;stroke-linejoin:round;stroke-miterlimit:4;stroke-opacity:1;stroke-dasharray:none" />
      <path
         inkscape:connector-curvature="0"
         id="path15411"
         d="m 216.89057,320.06895 c 0.43956,-0.0108 0.87745,-0.01 1.3125,0 3.164,0.0727 6.23589,0.68833 9.21875,1.65625 10.34645,3.35737 19.9338,11.03695 31.125,15.59375 9.3946,4.10444 19.69472,7.72866 30.0625,9 10.41853,1.27757 20.90046,0.17272 30.53125,-5.25 8.05751,-6.59566 17.81168,-10.76447 27.875,-12.09375 10.09654,-1.33367 20.49531,0.18303 29.875,4.90625 4.04587,2.12467 8.78953,3.59063 13.59375,4.4375 1.41204,3.10007 2.44258,6.14731 3.625,9.46875 1.96252,5.51274 4.29584,11.67847 9.21875,19.375 3.15167,4.92736 7.36675,10.47308 13.21875,16.90625 0.0501,0.0541 0.10215,0.10615 0.15625,0.15625 7.6533,7.10107 15.05306,12.21554 18.03125,15.4375 0.74455,0.80549 1.17011,1.47824 1.3125,1.8125 0.0503,0.11815 0.0513,0.13545 0.0625,0.15625 -0.0646,0.0245 -1.14614,1.11287 -4.25,2.1875 -6.96862,1.52886 -12.06071,-0.70402 -17.65625,-3.5625 -5.62196,-2.87197 -11.69363,-6.50886 -19.40625,-5.59375 -0.13673,0.0111 -0.2725,0.032 -0.40625,0.0625 -4.44659,1.19055 -7.45937,3.78451 -9.28125,6.71875 -1.82188,2.93424 -2.6342,6.06648 -3.4375,8.84375 -0.8033,2.77727 -1.61917,5.16248 -2.90625,6.78125 -1.2439,1.56446 -2.93857,2.65704 -6.375,3.125 -9.59653,-1.30251 -18.36925,-4.49623 -26.96875,-8.3125 -8.53675,-3.78842 -16.90298,-8.19033 -25.6875,-11.96875 -0.0806,-0.0434 -0.1691,-0.0819 -0.25,-0.125 -7.92686,-4.22834 -17.35705,-7.00697 -26.90625,-7.59375 -9.41952,-0.57881 -18.95482,0.97489 -27.28125,5.40625 -0.0966,0.0468 -0.19045,0.099 -0.28125,0.15625 -5.60203,3.88168 -12.70612,5.05398 -20.0625,4.625 -6.95629,-0.40564 -14.13978,-2.24445 -20.4375,-4.53125 l 0,0.0312 c -11.27954,-5.20491 -24.72322,-7.27773 -37.53125,-4.4375 -0.042,0.009 -0.083,0.0223 -0.125,0.0312 -11.1359,1.977 -21.09602,6.47852 -30.0625,11.4375 -4.77405,1.55343 -11.33638,0.32722 -15.53125,-2.375 -2.1147,-1.36223 -3.56874,-3.02714 -4.15625,-4.5625 -0.56273,-1.47061 -0.49598,-2.85839 0.59375,-4.6875 8.68456,-6.98219 15.88933,-14.78703 22,-23.09375 6.4322,-8.7438 11.65536,-18.03561 16.09375,-27.5625 0.78295,-1.68058 1.54424,-3.3704 2.28125,-5.0625 6.50694,-1.27271 12.87838,-4.33975 16.9375,-8.28125 8.16435,-6.49697 15.28163,-9.05616 21.875,-9.21875 z"
         style="fill:none;stroke:#000000;stroke-width:1.08597784;stroke-linecap:square;stroke-linejoin:round;stroke-miterlimit:4;stroke-opacity:1;stroke-dasharray:none" />
      <path
         inkscape:connector-curvature="0"
         id="path15409"
         d="m 291.45307,398.9752 c 1.18917,0.01 2.37318,0.0467 3.5625,0.125 9.55648,0.62902 19.02221,3.43631 26.90625,7.6875 9.31502,3.98932 18.29067,8.80806 27.625,12.9375 9.1348,4.04117 18.61535,7.42755 29.09375,8.78125 17.86097,-2.11237 7.77948,-22.61349 23.8125,-26.90625 7.12585,-0.8455 12.90049,2.6532 19.0625,5.78125 3.41243,7.43094 6.93246,14.73798 10.875,21.84375 4.78567,8.62539 10.18327,16.98551 16.75,25.03125 6.00411,7.35642 12.97326,14.43511 21.34375,21.21875 2.64586,3.64887 3.37893,6.33683 3.25,7.78125 -0.13189,1.47759 -0.72863,2.29628 -2.65625,3.25 -3.82961,1.89476 -12.82318,2.03932 -22.5625,-1.375 -0.0202,-0.008 -0.0423,-0.0232 -0.0625,-0.0312 -8.18925,-3.36191 -17.09279,-8.65577 -26.65625,-12.25 -9.58706,-3.6031 -20.19819,-5.43487 -31,-1.0625 -0.0848,0.0386 -0.1682,0.0803 -0.25,0.125 -8.09306,3.98615 -14.99124,10.10522 -21.90625,14.59375 -6.82021,4.427 -13.28277,7.19205 -21.03125,6 -9.01056,-3.58413 -17.47509,-8.74729 -26.25,-13.84375 -0.20838,-0.12469 -0.42811,-0.2293 -0.65625,-0.3125 -8.76824,-3.09525 -17.81954,-9.18872 -28.3125,-11.8125 -0.0325,-0.009 -0.0613,-0.0222 -0.0937,-0.0312 -11.30277,-3.10659 -21.33255,0.59143 -30.125,5.34375 -8.7135,4.70965 -16.68131,10.39055 -24.59375,12.96875 -7.77714,1.2177 -14.278,-1.5604 -21.125,-6 -6.92293,-4.48883 -13.81416,-10.60807 -21.90625,-14.59375 -0.0818,-0.0447 -0.1652,-0.0864 -0.25,-0.125 -10.80181,-4.37237 -21.41294,-2.5406 -31,1.0625 -9.56346,3.59423 -18.467,8.88808 -26.65625,12.25 -0.0202,0.008 -0.0423,0.0233 -0.0625,0.0312 -9.73772,3.41366 -18.732,3.27559 -22.5625,1.375 -1.92807,-0.95665 -2.5241,-1.79923 -2.65625,-3.28125 -0.12919,-1.44876 0.60443,-4.13275 3.25,-7.78125 8.35927,-6.77452 15.34359,-13.84566 21.34375,-21.1875 6.56379,-8.0315 11.96498,-16.39007 16.75,-25 2.24111,-4.03254 4.3171,-8.13873 6.34375,-12.28125 7.8829,-3.98766 16.38308,-7.34529 25.625,-8.96875 12.81948,-2.87573 26.46046,-0.79802 37.8125,4.5 6.93203,2.51713 14.92778,4.60467 22.8125,5 8.02358,0.40228 15.93447,-0.95312 22.40625,-5.4375 7.18634,-3.82459 15.42581,-5.47485 23.75,-5.40625 z"
         style="fill:none;stroke:#000000;stroke-width:1.08597784;stroke-linecap:square;stroke-linejoin:round;stroke-miterlimit:4;stroke-opacity:1;stroke-dasharray:none" />
      <path
         inkscape:connector-curvature="0"
         id="path15407"
         d="m 176.29682,470.50645 c 4.31951,-0.0983 8.69982,0.56298 13.125,2.34375 7.69641,3.76867 14.72443,9.92915 22.21875,14.78125 7.57155,4.90211 15.61844,8.46867 25.1875,6.875 9.16567,-2.88223 17.64213,-9.01101 26.4375,-13.75 8.88927,-4.78959 18.10399,-8.15917 28.625,-5.25 9.99554,2.46226 19.36245,8.70817 29.1875,12.15625 9.22917,5.32902 18.33929,10.92797 28.34375,14.8125 9.56906,1.59367 17.58469,-1.97289 25.15625,-6.875 7.49431,-4.8521 14.55358,-11.01258 22.25,-14.78125 10.11469,-4.07034 19.94122,-2.3782 29.5,1.21875 7.46924,2.81065 14.7526,6.75903 21.875,10.09375 4.70745,5.29787 9.97774,11.06011 15.1875,18.84375 7.5255,9.56633 15.6672,18.62966 24.4375,27.0625 0.0102,0.0104 0.0207,0.0209 0.0312,0.0312 5.50109,5.22057 10.23843,11.78144 11.28125,16.5625 0.52141,2.39053 0.28528,4.11409 -0.84375,5.65625 -1.10458,1.50877 -3.42431,3.00889 -7.625,4.03125 -7.08691,0.0887 -14.10367,-2.21567 -21.40625,-4.65625 -6.75022,-2.25597 -13.74389,-4.62643 -21.28125,-5.375 -0.0868,-0.0163 -0.1634,-0.0155 -0.25,-0.0312 -10.26157,-1.85512 -19.04706,1.86421 -26.9375,6.40625 -7.957,4.58036 -15.31086,9.98803 -23.03125,12.40625 -0.12852,0.0432 -0.25383,0.0955 -0.375,0.15625 -8.39375,4.06976 -16.62183,3.28208 -25.5,1.21875 -8.87817,-2.06333 -18.16454,-5.48499 -28.03125,-5.875 l 0,0.0312 c -8.61591,-1.56415 -16.44165,0.0852 -23.8125,2.75 -7.8464,2.83669 -15.17672,6.8258 -22.375,9.375 -12.22085,2.68851 -24.13879,-0.36464 -36.53125,-3.9375 -12.43437,-3.58494 -25.30501,-7.66903 -39.09375,-5.71875 -0.19121,0.0228 -0.37965,0.0646 -0.5625,0.125 -9.20479,3.32428 -19.07477,6.10054 -28.78125,6.75 -9.98532,0.66811 -19.79674,-0.91372 -28.46875,-6.40625 -0.012,-0.008 -0.0191,-0.0232 -0.0312,-0.0312 -7.97269,-7.10803 -17.75096,-11.87895 -28.03125,-13.8125 -10.29034,-1.93543 -21.08367,-1.02795 -31.03125,3.1875 -0.20004,0.0927 -0.38878,0.20801 -0.5625,0.34375 -5.36268,3.93108 -15.338372,6.2015 -22.9375,4.84375 -3.799564,-0.67887 -6.925781,-2.18842 -8.90625,-4.4375 -1.829615,-2.07776 -2.828646,-4.88262 -2.5,-9.0625 8.064894,-6.65082 15.64513,-13.8447 22.78125,-21.46875 7.13002,-7.61753 13.83151,-15.66866 20.0625,-24.0625 4.43773,-5.9781 8.63107,-12.11914 12.625,-18.40625 2.16748,-0.49632 4.42176,-1.16884 6.6875,-1.96875 8.89318,-3.62075 18.05028,-9.03785 27.5,-12.59375 5.37681,-2.02328 10.8526,-3.43609 16.40625,-3.5625 z"
         style="fill:none;stroke:#000000;stroke-width:1.08597784;stroke-linecap:square;stroke-linejoin:round;stroke-miterlimit:4;stroke-opacity:1;stroke-dasharray:none" />
      <path
         sodipodi:nodetypes="cscsccccccccccccscc"
         inkscape:connector-curvature="0"
         id="path3560"
         d="m 239.48432,611.4127 c -1.56114,-0.0658 -3.12595,-0.125 -4.71875,-0.125 -20.09072,0 -37.84869,5.32331 -48.625,13.5 11.48203,-5.54233 27.09252,-8.9375 44.3125,-8.9375 18.27415,0 34.74457,3.84387 46.375,10 -7.27469,1.55848 -13.92511,2.92628 -21.21875,3.53125 -5.39142,-0.0532 -11.27398,0.71769 -16.15625,-2.0625 l -5,3.15625 c -1.86372,6.81146 32.80699,0.28777 36.78125,-0.65625 7.32259,-1.08731 14.41748,-3.20058 21.53125,-5.1875 11.35511,-3.07989 21.27394,-5.96013 36.09375,-4.90625 10.69118,0.97877 13.74806,2.35194 26.03125,5.03125 -4.15927,-2.37778 -8.64225,-4.15812 -13.1875,-5.65625 -6.21666,-2.35432 -12.86513,-3.34418 -19.5,-3.0625 -3.00123,-10.99772 -2.9542,-21.11206 -3.31263,-31.52497 -5.44268,2.37383 -14.86146,6.51603 -20.34362,8.39997 -9.17487,2.0069 -18.08074,1.16662 -26.875,-0.71875 -8.03979,-1.72362 -19.22003,-4.95352 -27.22177,-7.10373 -0.9692,9.21429 -2.7752,18.01677 -4.96573,26.32248 z"
         style="fill:none;stroke:#000000;stroke-width:1.08597784;stroke-linecap:square;stroke-linejoin:round;stroke-miterlimit:4;stroke-opacity:1;stroke-dasharray:none" />
    </g>
  </g>
</svg>
