<?xml version="1.0" encoding="UTF-8" standalone="no"?>
<!-- Created with Inkscape (http://www.inkscape.org/) -->

<svg
   xmlns:dc="http://purl.org/dc/elements/1.1/"
   xmlns:cc="http://creativecommons.org/ns#"
   xmlns:rdf="http://www.w3.org/1999/02/22-rdf-syntax-ns#"
   xmlns:svg="http://www.w3.org/2000/svg"
   xmlns="http://www.w3.org/2000/svg"
   xmlns:sodipodi="http://sodipodi.sourceforge.net/DTD/sodipodi-0.dtd"
   xmlns:inkscape="http://www.inkscape.org/namespaces/inkscape"
   width="48"
   height="48"
   id="svg4160"
   version="1.1"
   inkscape:version="0.48.2 r9819"
   sodipodi:docname="Snowflake-04.svg">
  <defs
     id="defs4162" />
  <sodipodi:namedview
     id="base"
     pagecolor="#ffffff"
     bordercolor="#666666"
     borderopacity="1.0"
     inkscape:pageopacity="0.0"
     inkscape:pageshadow="2"
     inkscape:zoom="11.2"
     inkscape:cx="34.645318"
     inkscape:cy="15.458561"
     inkscape:document-units="px"
     inkscape:current-layer="layer1"
     showgrid="false"
     fit-margin-top="0"
     fit-margin-left="0"
     fit-margin-right="0"
     fit-margin-bottom="0"
     inkscape:window-width="1585"
     inkscape:window-height="1092"
     inkscape:window-x="2"
     inkscape:window-y="2"
     inkscape:window-maximized="0" />
  <metadata
     id="metadata4165">
    <rdf:RDF>
      <cc:Work
         rdf:about="">
        <dc:format>image/svg+xml</dc:format>
        <dc:type
           rdf:resource="http://purl.org/dc/dcmitype/StillImage" />
        <dc:title />
      </cc:Work>
    </rdf:RDF>
  </metadata>
  <g
     inkscape:label="Layer 1"
     inkscape:groupmode="layer"
     id="layer1"
     transform="translate(-91.528107,-104.27354)">
    <g
       id="g184"
       style="fill:none;stroke:#000000;stroke-opacity:1;stroke-width:0.2285706;stroke-miterlimit:4;stroke-dasharray:none"
       transform="matrix(0.4685794,0,0,0.40848496,77.309287,31.5627)">
      <path
         style="fill:none;stroke:#000000;stroke-width:0.2285706;stroke-miterlimit:4;stroke-opacity:1;stroke-dasharray:none"
         inkscape:connector-curvature="0"
         id="path186"
         d="m 81.46,178.011 c 0.233,0 0.467,0 0.701,0 0.489,2.639 0.806,5.738 0.85,8.557 0.067,-0.05 0.133,-0.1 0.201,-0.15 0.296,-0.861 2.914,-4.916 3.552,-5.455 0.083,0.067 0.167,0.133 0.25,0.2 -1.234,2.919 -2.469,5.838 -3.703,8.757 0.118,1.401 0.234,2.803 0.351,4.204 0.195,1.136 -0.168,2.711 0.301,3.653 0.016,-0.034 0.033,-0.067 0.049,-0.101 1.861,-2.224 2.839,-5.239 4.803,-7.356 0.05,0.017 0.101,0.034 0.15,0.05 0.033,0.05 0.066,0.1 0.101,0.15 -1.201,2.885 -2.402,5.772 -3.603,8.657 -0.434,0.934 -0.867,1.868 -1.301,2.802 0.117,1.718 0.234,3.437 0.35,5.154 0.083,1.518 0.167,3.036 0.25,4.554 0.033,-0.017 0.067,-0.034 0.101,-0.05 0.784,-1.268 1.567,-2.536 2.352,-3.803 0.417,-0.796 0.496,-1.825 0.95,-2.552 0.083,0.017 0.167,0.033 0.251,0.05 0.033,0.117 0.066,0.233 0.099,0.351 0.034,-0.017 0.067,-0.034 0.101,-0.05 0.717,-1.118 1.434,-2.235 2.152,-3.353 0.099,0.017 0.2,0.033 0.3,0.05 0,0.083 0,0.167 0,0.25 -1.134,2.719 -2.268,5.438 -3.402,8.157 -0.13,0.52 -0.545,3.153 -0.45,3.302 0.801,-1.817 1.602,-3.637 2.401,-5.454 1.939,-4.072 3.868,-8.163 5.654,-12.21 0.483,-1.096 2.294,-5.41 3.052,-5.855 0.083,0.017 0.167,0.034 0.25,0.05 0.294,0.843 -0.361,2.05 -0.601,2.802 -0.65,2.118 -1.301,4.237 -1.952,6.355 -1.786,5.492 -3.359,10.907 -5.303,16.263 -1.034,2.902 -2.068,5.805 -3.102,8.707 0.017,0 0.033,0 0.05,0 0,-0.033 0,-0.067 0,-0.1 1.017,-1.451 2.035,-2.902 3.052,-4.354 2.327,-3.3 4.877,-6.469 7.255,-9.708 1.214,-1.653 2.387,-3.594 3.902,-4.954 0.1,0.017 0.201,0.034 0.301,0.05 0.005,1.273 -1.144,2.471 -1.652,3.403 -1.484,2.729 -2.898,5.445 -4.503,8.057 0.704,-0.347 2.718,-2.876 3.303,-3.603 2.884,-3.069 5.771,-6.139 8.656,-9.208 1.064,-1.078 2.16,-2.877 3.602,-3.503 0.083,0.067 0.167,0.134 0.25,0.2 -0.086,0.833 -0.709,1.347 -1.101,1.901 -1.185,1.702 -2.369,3.403 -3.553,5.104 -2.685,3.736 -5.371,7.473 -8.056,11.209 -1.567,2.068 -3.135,4.137 -4.703,6.205 2.843,-0.964 3.929,-3.196 5.504,-5.405 2.185,-2.885 4.37,-5.771 6.555,-8.657 0.1,0.034 0.201,0.066 0.3,0.1 -0.101,0.822 -0.755,1.628 -1.101,2.302 -1.384,2.652 -2.768,5.305 -4.153,7.957 1.234,-0.617 2.469,-1.234 3.703,-1.852 1.601,-0.767 3.203,-1.534 4.803,-2.302 2.602,-3.469 5.204,-6.939 7.805,-10.408 0.101,0.033 0.2,0.066 0.3,0.1 -0.112,0.8 -0.716,1.545 -1.051,2.202 -1.067,2.051 -2.135,4.104 -3.202,6.155 0.016,0.017 0.033,0.033 0.049,0.05 2.268,-1.068 4.537,-2.136 6.805,-3.203 0.417,-0.567 0.834,-1.134 1.25,-1.701 1.684,-2.168 3.369,-4.337 5.053,-6.505 0.083,0.033 0.167,0.066 0.251,0.1 0,0.017 0,0.034 0,0.05 -1.085,2.168 -2.169,4.337 -3.253,6.505 1.951,-0.867 3.903,-1.735 5.854,-2.603 0.753,-0.33 1.534,-0.963 2.502,-1 0.083,0.15 0.167,0.3 0.25,0.45 -0.017,0.067 -0.033,0.133 -0.05,0.2 -0.364,0.663 -1.486,1.116 -2.102,1.551 -1.568,1.118 -3.135,2.235 -4.703,3.353 0.017,0.033 0.033,0.066 0.05,0.1 2.201,0.116 4.403,0.233 6.604,0.35 0.017,0.083 0.033,0.167 0.049,0.25 -0.033,0.034 -0.066,0.067 -0.099,0.101 -2.218,0.283 -4.437,0.567 -6.655,0.851 -0.9,0.1 -1.801,0.2 -2.702,0.3 -2.185,1.484 -4.37,2.969 -6.555,4.454 0.131,0.089 0.081,0.08 0.25,0.05 0.551,0.017 1.101,0.034 1.651,0.05 2.335,0.15 4.671,0.3 7.005,0.45 0,0.084 0,0.167 0,0.25 -0.05,0.017 -0.1,0.034 -0.149,0.05 -3.236,0.417 -6.472,0.834 -9.707,1.251 -0.834,0.067 -1.668,0.133 -2.502,0.2 -1.568,1.051 -3.135,2.102 -4.703,3.152 -0.67,0.423 -3.19,1.709 -3.452,2.302 2.494,-0.016 4.706,-0.102 6.854,0.25 1.45,0.083 2.902,0.167 4.353,0.25 0,0.067 0,0.134 0,0.2 -0.033,0.05 -0.066,0.1 -0.1,0.15 -1.434,0.2 -2.869,0.4 -4.303,0.6 -1.834,0.2 -3.669,0.4 -5.504,0.601 -0.834,0.317 -1.668,0.634 -2.502,0.951 -0.483,0.184 -0.967,0.367 -1.451,0.551 2.886,-0.317 5.772,-0.634 8.656,-0.951 1.668,-0.133 3.336,-0.267 5.004,-0.4 1.818,-0.15 3.636,-0.3 5.454,-0.45 1.13,0.029 5.849,-0.868 6.855,-0.25 0,0.017 0,0.033 0,0.05 0,0.067 0,0.134 0,0.2 -1.634,1.111 -6.005,1.499 -8.256,2.102 -5.957,1.598 -12.245,2.327 -18.263,3.854 -2.102,0.383 -4.203,0.767 -6.305,1.151 -0.588,0.137 -1.906,0.113 -2.151,0.449 2.168,0.201 4.336,0.401 6.504,0.602 3.851,0.666 8.064,0.64 11.858,1.351 1.288,0.241 4.816,0.271 5.404,0.951 -0.017,0.067 -0.034,0.133 -0.05,0.201 -0.034,0.016 -0.067,0.033 -0.1,0.05 -0.902,0.236 -2.376,0.177 -3.253,0.15 -3.185,0.05 -6.371,0.1 -9.556,0.15 0.017,0.033 0.033,0.066 0.05,0.1 1.768,0.384 3.536,0.768 5.304,1.151 3.717,1.053 7.51,1.506 11.107,2.552 1.252,0.365 4.76,0.752 5.405,1.551 -0.034,0.101 -0.067,0.2 -0.101,0.3 -1.501,0.433 -4.824,-0.234 -6.555,-0.4 -4.373,-0.42 -9.101,-0.526 -13.86,-1.401 -2.118,-0.25 -4.236,-0.501 -6.354,-0.751 0,0.017 0,0.033 0,0.05 0.033,0.05 0.066,0.1 0.1,0.15 0.417,0.25 0.834,0.5 1.251,0.75 1.017,0.084 2.034,0.167 3.052,0.25 2.417,0.283 4.836,0.567 7.255,0.851 1.607,0.3 4.09,0.114 5.403,0.75 0,0.017 0,0.034 0,0.05 -0.016,0.083 -0.033,0.167 -0.05,0.25 -3.819,0.184 -7.639,0.367 -11.458,0.551 0.033,0.017 0.066,0.033 0.1,0.05 2.635,1.751 5.271,3.503 7.905,5.254 0.967,0.083 1.935,0.167 2.902,0.251 3.302,0.434 6.605,0.867 9.907,1.301 0,0.101 0,0.2 0,0.3 -0.033,0 -0.066,0 -0.1,0 -3.085,0.184 -6.171,0.367 -9.256,0.551 0.034,0 0.067,0 0.1,0 2.051,1.434 4.103,2.868 6.154,4.303 0.684,0.066 1.368,0.133 2.051,0.2 2.001,0.267 4.003,0.534 6.004,0.801 0.753,0.144 1.561,0.059 2.151,0.35 -0.033,0.099 -0.066,0.2 -0.099,0.3 -2.385,0.133 -4.771,0.267 -7.155,0.4 0.016,0.033 0.033,0.066 0.049,0.1 1.501,1.084 3.002,2.168 4.503,3.252 0.838,0.587 2.038,1.146 2.652,1.952 -0.037,0.322 -0.156,0.494 -0.35,0.65 -0.702,-0.073 -1.199,-0.51 -1.751,-0.75 -2.001,-0.9 -4.003,-1.801 -6.004,-2.702 0.984,2.001 1.968,4.003 2.953,6.004 -0.034,0.033 -0.067,0.067 -0.101,0.1 -0.067,0 -0.133,0 -0.2,0 -1.384,-1.784 -2.768,-3.569 -4.152,-5.354 -0.534,-0.75 -1.068,-1.501 -1.602,-2.252 -2.368,-1.117 -4.737,-2.235 -7.104,-3.353 0,0.017 0,0.034 0,0.05 1.351,2.618 2.702,5.238 4.052,7.856 -0.192,0.145 -0.224,0.159 -0.45,0.05 -1.167,-1.518 -2.334,-3.036 -3.502,-4.553 -1.302,-1.785 -2.602,-3.57 -3.903,-5.354 -2.886,-1.434 -5.771,-2.869 -8.656,-4.303 0,0.016 0,0.033 0,0.05 1.579,3.332 3.479,6.56 5.153,9.907 -0.017,0.033 -0.033,0.067 -0.05,0.101 -0.033,0.016 -0.066,0.033 -0.1,0.05 -0.067,0 -0.133,0 -0.201,0 -1.965,-3.062 -4.504,-5.52 -7.305,-7.757 -0.951,-0.834 -1.901,-1.668 -2.852,-2.502 3.5,5.262 7.199,10.385 10.557,15.813 0.768,1.242 3.501,4.651 3.602,6.055 -0.066,0.05 -0.132,0.1 -0.2,0.15 -0.895,-0.35 -1.442,-1.256 -2.001,-1.952 -1.451,-1.651 -2.902,-3.303 -4.353,-4.954 -3.52,-4.388 -7.477,-8.471 -10.958,-12.91 -1.951,-2.452 -3.902,-4.904 -5.854,-7.355 -0.016,0 -0.033,0 -0.049,0 0.783,1.817 1.568,3.636 2.352,5.454 1.484,3.719 2.969,7.44 4.453,11.159 0.533,1.418 1.067,2.836 1.601,4.254 0.161,0.397 0.504,1.125 0.101,1.451 -0.795,-0.487 -1.169,-1.746 -1.651,-2.552 -1.618,-2.869 -3.236,-5.738 -4.854,-8.607 0,0.05 0,0.1 0,0.15 1.639,4.951 2.807,10.074 4.252,15.212 0.376,1.335 1.705,5.05 1.451,6.405 -0.101,0.017 -0.2,0.033 -0.3,0.05 -0.083,-0.067 -0.167,-0.134 -0.25,-0.201 -1.035,-2.301 -2.068,-4.604 -3.102,-6.905 -0.417,-1.018 -0.834,-2.036 -1.251,-3.053 -0.883,-1.334 -1.768,-2.668 -2.651,-4.003 -0.817,-1.317 -1.635,-2.635 -2.452,-3.953 -0.016,0 -0.033,0 -0.05,0 -0.167,3.286 -0.333,6.573 -0.5,9.858 0.617,1.334 1.234,2.668 1.851,4.003 1,2.417 2.002,4.837 3.003,7.256 -0.067,0.066 -0.134,0.133 -0.201,0.2 -0.033,0 -0.066,0 -0.1,0 -1.179,-1.76 -2.308,-3.533 -3.452,-5.354 -0.434,-0.684 -0.868,-1.368 -1.302,-2.051 -0.033,0 -0.066,0 -0.1,0 -0.201,2.618 -0.4,5.237 -0.601,7.856 0.284,0.6 0.568,1.2 0.851,1.801 0.951,2.334 1.902,4.671 2.852,7.005 -0.034,0.033 -0.067,0.067 -0.1,0.101 -0.083,0 -0.167,0 -0.25,0 -0.834,-1.268 -1.668,-2.536 -2.502,-3.803 -0.3,-0.477 -0.633,-1.467 -1.151,-1.702 0.023,2.678 -0.394,6.261 -0.85,8.757 -0.382,0.017 -0.604,-0.015 -0.801,-0.15 -0.316,-3.035 -0.634,-6.072 -0.95,-9.107 -0.05,0.033 -0.101,0.066 -0.15,0.1 -1.268,1.968 -2.536,3.937 -3.803,5.905 -0.101,-0.033 -0.2,-0.067 -0.3,-0.101 0,-0.016 0,-0.033 0,-0.05 0.967,-2.367 1.935,-4.737 2.902,-7.105 0.333,-0.716 0.667,-1.434 1.001,-2.151 -0.117,-1.451 -0.233,-2.903 -0.351,-4.354 -0.083,-1.117 -0.167,-2.235 -0.25,-3.352 -0.049,0.033 -0.1,0.066 -0.15,0.1 -0.367,0.584 -0.733,1.168 -1.101,1.751 -0.866,1.351 -1.734,2.703 -2.601,4.053 -0.417,0.617 -0.834,1.234 -1.251,1.852 -0.067,-0.017 -0.134,-0.033 -0.2,-0.05 -0.017,-0.033 -0.033,-0.066 -0.05,-0.101 0.4,-0.967 0.801,-1.935 1.201,-2.902 0.801,-1.934 1.602,-3.87 2.402,-5.804 0.483,-1.018 0.967,-2.036 1.451,-3.053 -0.2,-3.218 -0.4,-6.439 -0.601,-9.658 -0.05,0.033 -0.1,0.066 -0.15,0.101 -0.35,0.567 -0.7,1.134 -1.05,1.701 -0.973,1.556 -1.944,3.083 -2.902,4.604 -0.64,1.015 -1.25,2.488 -2.151,3.252 -0.05,-0.017 -0.1,-0.033 -0.15,-0.05 -0.017,-0.1 -0.034,-0.2 -0.05,-0.3 0.65,-1.551 1.301,-3.103 1.952,-4.654 0.251,-1.13 0.156,-2.328 0.4,-3.502 0.5,-2.853 1.001,-5.706 1.501,-8.558 -0.034,-0.016 -0.067,-0.033 -0.1,-0.049 -0.734,1.717 -1.468,3.436 -2.202,5.153 -1.827,3.904 -3.327,7.921 -5.153,11.76 -0.839,1.764 -1.958,5.472 -3.202,6.655 -0.084,-0.017 -0.167,-0.033 -0.25,-0.05 -0.017,-0.05 -0.033,-0.1 -0.05,-0.15 -0.259,-0.646 1.391,-5.173 1.651,-6.005 1.751,-5.52 3.503,-11.042 5.253,-16.563 -0.017,0 -0.033,0 -0.049,0 -2.352,3.286 -4.704,6.573 -7.056,9.858 -0.772,1.087 -2.075,3.519 -3.202,4.104 -0.11,-0.076 -0.124,-0.091 -0.2,-0.201 0.14,-0.971 0.818,-1.76 1.251,-2.502 1.218,-2.218 2.436,-4.437 3.653,-6.655 -0.017,0 -0.034,0 -0.05,0 -3.068,3.418 -6.138,6.838 -9.206,10.258 -0.571,0.708 -2.31,3.055 -3.252,3.152 -0.05,-0.066 -0.1,-0.133 -0.15,-0.2 0.133,-0.755 0.633,-1.179 1.001,-1.701 1.051,-1.501 2.101,-3.003 3.152,-4.504 2.602,-3.669 5.205,-7.339 7.806,-11.009 1.218,-1.635 2.436,-3.27 3.653,-4.904 -0.634,0.617 -1.268,1.234 -1.901,1.852 -1.417,1.334 -2.835,2.669 -4.253,4.003 -0.832,0.672 -1.421,1.683 -2.401,2.202 -0.083,-0.033 -0.167,-0.066 -0.25,-0.1 0,-0.016 0,-0.033 0,-0.05 0.363,-1.167 1.598,-2.094 2.301,-3.002 1.868,-2.268 3.736,-4.537 5.604,-6.805 -0.017,-0.017 -0.034,-0.034 -0.05,-0.05 -0.734,0.383 -1.468,0.767 -2.202,1.151 -0.617,0.9 -1.234,1.802 -1.851,2.702 -1.718,2.286 -3.436,4.571 -5.154,6.856 -0.75,0.967 -1.501,1.935 -2.251,2.902 -0.067,-0.017 -0.133,-0.033 -0.2,-0.05 -0.017,-0.017 -0.033,-0.033 -0.05,-0.05 1.217,-2.435 2.436,-4.871 3.653,-7.306 0.41,-0.701 1.426,-1.994 1.451,-2.753 -2.935,1.501 -5.871,3.003 -8.806,4.504 -0.701,1 -1.401,2.001 -2.102,3.002 -1.067,1.385 -2.135,2.769 -3.202,4.154 -0.701,0.9 -1.401,1.801 -2.102,2.702 -0.034,0 -0.067,0 -0.1,0 -0.05,-0.066 -0.1,-0.133 -0.15,-0.2 0.884,-1.718 1.768,-3.437 2.652,-5.154 0.466,-0.884 0.934,-1.769 1.401,-2.652 -0.017,-0.034 -0.034,-0.067 -0.05,-0.1 -1.734,0.85 -3.469,1.701 -5.204,2.552 -0.629,0.313 -1.633,0.522 -2.051,1.051 -1.361,1.718 -2.646,3.521 -3.953,5.254 -0.514,0.682 -0.997,1.671 -1.701,2.152 -0.067,-0.05 -0.134,-0.1 -0.2,-0.149 0.984,-1.968 1.968,-3.937 2.952,-5.905 0,-0.017 0,-0.033 0,-0.05 -2.118,0.951 -4.236,1.902 -6.354,2.853 -0.535,0.243 -0.99,0.642 -1.701,0.7 -0.127,-0.19 -0.317,-0.419 -0.25,-0.65 0.242,-0.459 0.886,-0.705 1.301,-1 2.018,-1.484 4.036,-2.97 6.054,-4.454 0,-0.016 0,-0.033 0,-0.05 -1.701,-0.083 -3.403,-0.167 -5.104,-0.25 -0.7,-0.05 -1.401,-0.101 -2.101,-0.15 0.033,-0.117 0.066,-0.233 0.1,-0.35 3.335,-0.4 6.671,-0.801 10.007,-1.201 2.084,-1.451 4.169,-2.902 6.254,-4.354 -0.114,-0.076 -0.06,-0.091 -0.2,-0.05 -2.318,-0.116 -4.637,-0.234 -6.955,-0.35 -0.753,-0.124 -1.576,0.069 -2.151,-0.2 0,-0.017 0,-0.034 0,-0.05 0.017,-0.034 0.034,-0.067 0.05,-0.101 0.034,-0.05 0.067,-0.1 0.101,-0.15 2.585,-0.333 5.17,-0.667 7.755,-1 1.634,-0.149 3.269,-0.3 4.903,-0.451 2.668,-1.785 5.337,-3.569 8.005,-5.354 0,-0.017 0,-0.033 0,-0.05 -3.901,0.029 -7.697,-0.004 -11.458,-0.5 -0.017,-0.083 -0.033,-0.167 -0.05,-0.25 0.034,-0.034 0.067,-0.067 0.101,-0.1 4.088,-0.306 6.994,-1.924 10.307,-3.152 1.467,-0.534 2.936,-1.068 4.403,-1.602 0,-0.017 0,-0.033 0,-0.05 -6.337,0.733 -12.676,1.468 -19.013,2.202 -1.701,0.167 -3.402,0.334 -5.104,0.501 -0.437,0.069 -1.348,0.18 -1.601,-0.201 0,-0.05 0,-0.1 0,-0.15 0.401,-0.719 4.715,-1.296 5.854,-1.602 3.986,-0.9 7.973,-1.801 11.958,-2.702 0.903,-0.219 4.807,-0.751 5.204,-1.151 -4.203,-0.4 -8.406,-0.801 -12.609,-1.202 -0.958,-0.122 -4.432,-0.18 -4.603,-0.85 0.05,-0.034 0.1,-0.067 0.15,-0.1 0.707,-0.463 6.338,-0.215 7.255,-0.301 0.773,-0.072 2.362,0.287 2.902,-0.1 -4.436,-0.934 -8.874,-1.868 -13.309,-2.803 -1.462,-0.434 -3.293,-0.371 -4.403,-1.151 0.033,-0.117 0.067,-0.233 0.1,-0.35 0.975,-0.235 2.003,-0.051 2.902,0.1 1.868,0.167 3.736,0.333 5.604,0.5 2.802,0.25 5.604,0.5 8.406,0.75 3.269,0.367 6.539,0.734 9.807,1.101 -0.017,-0.033 -0.033,-0.066 -0.05,-0.1 -1.734,-0.5 -3.469,-1.001 -5.204,-1.501 -1.962,-0.614 -3.984,-1.033 -5.804,-1.751 0,-0.1 0,-0.2 0,-0.3 0.034,0 0.067,0 0.101,0 0.667,-0.28 3.323,0.384 4.052,0.55 3.886,0.667 7.772,1.335 11.659,2.002 0,-0.033 0,-0.067 0,-0.1 -1.201,-0.75 -2.402,-1.501 -3.603,-2.252 -0.884,-0.067 -1.768,-0.133 -2.651,-0.2 -2.302,-0.267 -4.604,-0.534 -6.905,-0.8 -1.074,-0.2 -5.387,-0.312 -5.904,-0.901 0.017,-0.05 0.034,-0.1 0.05,-0.15 2.67,-0.73 6,-0.073 8.856,-0.5 0.784,-0.034 1.568,-0.067 2.352,-0.1 0,-0.017 0,-0.033 0,-0.05 -2.718,-1.768 -5.438,-3.536 -8.156,-5.304 -3.035,-0.35 -6.071,-0.7 -9.106,-1.051 -0.98,-0.188 -2.61,-0.013 -3.302,-0.55 0,-0.017 0,-0.034 0,-0.05 0.034,-0.066 0.066,-0.133 0.1,-0.2 2.935,-0.133 5.871,-0.267 8.806,-0.4 0,-0.017 0,-0.033 0,-0.05 -0.033,-0.05 -0.066,-0.1 -0.1,-0.15 -2.118,-1.435 -4.236,-2.869 -6.354,-4.303 -0.867,-0.084 -1.735,-0.167 -2.602,-0.25 -2.301,-0.317 -4.603,-0.634 -6.904,-0.951 0,-0.066 0,-0.133 0,-0.2 0.033,-0.05 0.066,-0.1 0.1,-0.15 2.184,-0.117 4.37,-0.233 6.555,-0.35 0,-0.017 0,-0.034 0,-0.05 -0.05,-0.05 -0.101,-0.1 -0.15,-0.15 -0.567,-0.401 -1.134,-0.801 -1.702,-1.201 -1.2,-0.851 -2.401,-1.702 -3.602,-2.552 -0.541,-0.384 -1.206,-0.673 -1.601,-1.201 0.1,-0.2 0.2,-0.4 0.3,-0.601 0.698,0.022 1.133,0.432 1.651,0.65 1.851,0.801 3.703,1.602 5.554,2.402 0.411,0.174 0.944,0.59 1.351,0.601 0,-0.017 0,-0.034 0,-0.05 -0.4,-0.768 -0.8,-1.535 -1.201,-2.302 -0.684,-1.368 -1.368,-2.736 -2.051,-4.104 0.066,-0.05 0.133,-0.1 0.2,-0.15 0.75,0.578 1.288,1.584 1.851,2.352 1.361,1.855 2.743,3.797 4.203,5.604 0.446,0.552 1.583,0.781 2.251,1.101 1.601,0.767 3.202,1.535 4.803,2.302 -1.401,-2.735 -2.802,-5.471 -4.203,-8.207 0.075,-0.11 0.091,-0.124 0.2,-0.2 0.083,0.033 0.167,0.067 0.25,0.101 1.101,1.434 2.202,2.869 3.302,4.303 1.435,1.968 2.869,3.937 4.303,5.905 2.852,1.401 5.705,2.802 8.556,4.203 -1.751,-3.386 -3.502,-6.772 -5.254,-10.158 0.147,-0.163 0.138,-0.153 0.351,-0.15 1.834,2.402 3.669,4.804 5.503,7.206 2.204,3.073 3.646,6.091 7.656,7.406 -2.852,-3.135 -5.705,-6.272 -8.556,-9.407 -0.862,-0.925 -2.014,-1.836 -2.602,-3.003 0.017,-0.066 0.034,-0.133 0.05,-0.2 0.1,0.017 0.2,0.033 0.3,0.05 0.756,0.322 1.289,1.112 1.902,1.602 1.734,1.484 3.469,2.969 5.204,4.454 0.65,0.567 1.301,1.134 1.951,1.701 -0.034,-0.033 -0.066,-0.066 -0.1,-0.1 -3.602,-5.221 -7.206,-10.442 -10.808,-15.663 -0.855,-1.282 -3.299,-4.113 -3.552,-5.604 0.152,-0.105 0.127,-0.125 0.4,-0.15 1.082,0.579 2.972,3.12 3.803,4.153 2.651,3.036 5.304,6.072 7.955,9.107 0.601,0.761 3.093,4.121 3.752,4.403 0,-0.017 0,-0.033 0,-0.05 -1.684,-3.969 -3.369,-7.94 -5.053,-11.91 -0.253,-0.595 -1.617,-3.63 -1.351,-4.053 0.098,-0.104 0.018,-0.052 0.2,-0.1 1.21,1.201 1.869,3.143 2.752,4.653 0.817,1.451 1.634,2.902 2.451,4.354 0.017,0 0.034,0 0.05,0 -1.301,-4.353 -2.602,-8.708 -3.903,-13.06 -0.233,-0.764 -1.379,-4.161 -0.9,-4.654 0.1,0.017 0.2,0.034 0.3,0.05 2.244,4.18 3.825,8.849 5.754,13.311 1.581,3.658 3.415,7.45 4.653,11.309 0.033,-0.033 0.067,-0.066 0.1,-0.1 -0.6,-2.735 -1.201,-5.472 -1.801,-8.207 -0.213,-0.856 -0.748,-2.238 -0.5,-3.102 0.101,0.017 0.2,0.033 0.301,0.05 1.281,3.537 2.539,7.252 3.803,10.859 0.33,0.943 0.982,3.945 1.501,4.503 0.066,-1.434 0.133,-2.869 0.2,-4.303 -0.717,-1.551 -1.435,-3.103 -2.152,-4.654 -1.384,-3.302 -2.769,-6.605 -4.153,-9.908 0.1,-0.05 0.2,-0.1 0.3,-0.15 1.451,2.218 2.902,4.437 4.353,6.655 0.617,1 1.234,2.002 1.851,3.002 0.017,0 0.034,0 0.05,0 0.184,-3.219 0.367,-6.439 0.55,-9.658 -0.517,-1.101 -1.034,-2.202 -1.551,-3.303 -0.8,-1.935 -1.601,-3.87 -2.401,-5.805 -0.367,-0.9 -0.734,-1.801 -1.101,-2.702 0.034,-0.033 0.067,-0.066 0.1,-0.1 0.05,-0.017 0.1,-0.033 0.15,-0.05 1.371,1.69 2.431,3.682 3.603,5.555 0.483,0.767 0.967,1.535 1.451,2.302 0.033,0 0.066,0 0.1,0 0.2,-2.552 0.4,-5.105 0.601,-7.657 -0.317,-0.684 -0.634,-1.368 -0.951,-2.051 -1,-2.452 -2.002,-4.905 -3.002,-7.356 0.066,-0.05 0.133,-0.1 0.2,-0.15 0.034,0 0.067,0 0.101,0 1.317,2.018 2.635,4.037 3.953,6.055 0.017,0 0.033,0 0.05,0 0.216,-2.118 0.434,-4.237 0.65,-6.355 0.147,-0.9 0.037,-1.932 0.349,-2.653 z"
         clip-rule="evenodd" />
      <path
         style="fill:none;stroke:#000000;stroke-opacity:1;stroke-width:0.2285706;stroke-miterlimit:4;stroke-dasharray:none"
         inkscape:connector-curvature="0"
         id="path188"
         d="m 52.54,235.007 c 0.033,0.017 0.067,0.033 0.1,0.05 -0.034,-0.017 -0.067,-0.033 -0.1,-0.05 z"
         clip-rule="evenodd" />
      <path
         style="fill:none;stroke:#000000;stroke-width:0.2285706;stroke-miterlimit:4;stroke-opacity:1;stroke-dasharray:none"
         inkscape:connector-curvature="0"
         id="path190"
         d="m 65.949,241.662 c -3.502,0.917 -7.005,1.835 -10.507,2.753 2.501,-0.234 5.003,-0.468 7.505,-0.701 1.051,-0.65 2.102,-1.301 3.152,-1.952 -0.017,-0.033 -0.033,-0.066 -0.05,-0.101 -0.033,0.001 -0.067,0.001 -0.1,0.001 z"
         clip-rule="evenodd" />
      <path
         style="fill:none;stroke:#000000;stroke-width:0.2285706;stroke-miterlimit:4;stroke-opacity:1;stroke-dasharray:none"
         inkscape:connector-curvature="0"
         id="path192"
         d="m 96.57,249.318 c 0.734,0.834 1.467,1.668 2.201,2.502 -0.327,-0.837 -1.278,-2.242 -2.201,-2.502 z"
         clip-rule="evenodd" />
      <path
         style="fill:none;stroke:#000000;stroke-width:0.2285706;stroke-miterlimit:4;stroke-opacity:1;stroke-dasharray:none"
         inkscape:connector-curvature="0"
         id="path194"
         d="m 78.158,252.972 c -0.884,3.168 -1.768,6.339 -2.652,9.508 0.017,0 0.034,0 0.05,0 0.494,-2.961 3.312,-4.583 2.651,-8.457 -0.016,-0.351 -0.033,-0.701 -0.049,-1.051 z"
         clip-rule="evenodd" />
    </g>
  </g>
</svg>
