<?xml version="1.0" encoding="UTF-8" standalone="no"?>
<!-- Created with Inkscape (http://www.inkscape.org/) -->

<svg
   xmlns:dc="http://purl.org/dc/elements/1.1/"
   xmlns:cc="http://creativecommons.org/ns#"
   xmlns:rdf="http://www.w3.org/1999/02/22-rdf-syntax-ns#"
   xmlns:svg="http://www.w3.org/2000/svg"
   xmlns="http://www.w3.org/2000/svg"
   xmlns:sodipodi="http://sodipodi.sourceforge.net/DTD/sodipodi-0.dtd"
   xmlns:inkscape="http://www.inkscape.org/namespaces/inkscape"
   width="48"
   height="48"
   id="svg4160"
   version="1.1"
   inkscape:version="0.48.2 r9819"
   sodipodi:docname="Snowflake-01.svg">
  <defs
     id="defs4162" />
  <sodipodi:namedview
     id="base"
     pagecolor="#ffffff"
     bordercolor="#666666"
     borderopacity="1.0"
     inkscape:pageopacity="0.0"
     inkscape:pageshadow="2"
     inkscape:zoom="11.2"
     inkscape:cx="11.382664"
     inkscape:cy="15.458561"
     inkscape:document-units="px"
     inkscape:current-layer="layer1"
     showgrid="false"
     fit-margin-top="0"
     fit-margin-left="0"
     fit-margin-right="0"
     fit-margin-bottom="0"
     inkscape:window-width="1585"
     inkscape:window-height="1092"
     inkscape:window-x="2"
     inkscape:window-y="2"
     inkscape:window-maximized="0" />
  <metadata
     id="metadata4165">
    <rdf:RDF>
      <cc:Work
         rdf:about="">
        <dc:format>image/svg+xml</dc:format>
        <dc:type
           rdf:resource="http://purl.org/dc/dcmitype/StillImage" />
        <dc:title />
      </cc:Work>
    </rdf:RDF>
  </metadata>
  <g
     inkscape:label="Layer 1"
     inkscape:groupmode="layer"
     id="layer1"
     transform="translate(-91.528107,-104.27354)">
    <g
       transform="matrix(0.31879482,0,0,0.31879482,87.304195,100.57545)"
       id="g178"
       style="fill:none;stroke:#000000;stroke-opacity:1;stroke-width:0.31368138;stroke-miterlimit:4;stroke-dasharray:none">
      <path
         style="fill:none;stroke:#000000;stroke-width:0.31368139;stroke-miterlimit:4;stroke-opacity:1;stroke-dasharray:none"
         inkscape:connector-curvature="0"
         id="path180"
         d="m 88.183927,11.671927 c 0.501,-0.023 0.66,-0.035 0.855,0.257 0.144,2.167 0.287,4.335 0.427,6.5 0.029,0 0.058,0 0.085,0 0.087,-0.086 0.172,-0.171 0.259,-0.255 2.121,-1.022 3.279,-3.535 5.046,-4.962 0.056,0.028 0.116,0.057 0.172,0.085 1.478,1.08 0.3,2.87 -0.257,3.936 -0.855,1.539 -1.712,3.079 -2.567,4.619 -0.77,0.969 -1.54,1.938 -2.311,2.907 -0.24,0.45 -0.064,1.891 0.174,2.225 2.95,-1.646 5.169,-4.323 7.441,-6.673 0.547,0.031 0.55,0.126 0.857,0.342 0.761,1.881 -0.351,3.107 -1.195,4.534 -1.945,3.271 -4.261,6.104 -6.845,8.725 0.055,0.969 0.113,1.939 0.168,2.909 3.27,-0.769 7.526,-5.65 9.841003,-7.784 0.913,0.049 1.024,0.528 1.454,1.026 -0.009,2.716 -6.781003,10.03 -8.556003,11.805 -0.799,0.684 -1.599,1.368 -2.395,2.053 0.057,0.769 0.113,1.539 0.169,2.308 3.399,-0.729 9.347003,-6.088 11.637003,-8.382 1.023,-1.024 1.608,-3.076 3.421,-3.251 0.399,0.342 0.799,0.685 1.2,1.026 0.023,2.464 -2.061,4.279 -3.08,5.903 -3.392,5.388 -7.939003,10.454 -12.664003,14.542 0.399,6.844 0.799,13.687 1.2,20.53 5.132,-4.59 10.266003,-9.181 15.398003,-13.771 -0.706,-6.979 -0.069,-15.483 1.624,-20.958 0.476,-1.532 0.514,-3.904 1.884,-4.534 0.537,-0.164 1.282,0.022 1.54,0.428 0.703,1.11 -0.434,6.109 -0.087,8.382 0.424,2.76 0.551,4.988 1.2,7.444 0.314,0.94 0.626,1.882 0.939,2.822 0.116,-0.057 0.23,-0.114 0.343,-0.171 0.514,-0.485 1.026,-0.969 1.54,-1.454 -1.142,-4.056 -0.08,-10.318 0.771,-13.772 0.323,-1.317 0.175,-3.06 1.282,-3.593 0.513,-0.266 1.264,-0.25 1.54,0.258 0,1.254 0,2.508 0,3.762 0.018,2.852 0.34,6.97 1.626,8.812 0.682,-0.628 1.369,-1.255 2.052,-1.883 -0.087,-4.298 0.777,-12.453 2.566,-14.542 0.601,-0.229 1.2,-0.457 1.796,-0.684 0.219,0.14 0.207,0.105 0.344,0.342 -0.058,1.711 -0.113,3.421 -0.171,5.133 0.2,1.682 0.399,3.365 0.6,5.047 0.114,0 0.227,0 0.34,0 0.431,-0.428 0.858,-0.856 1.284,-1.283 0.087,-0.856 0.174,-1.712 0.256,-2.567 0.455,-2.088 1.778,-8.148 3.08,-9.066 0.573,-0.2 1.144,-0.4 1.714,-0.6 0.719,1.14 -0.816,5.744 0,7.785 0.199,-0.199 0.399,-0.398 0.599,-0.599 1.785,-0.857 2.815,-3.401 4.788,-3.936 0.145,0.172 0.287,0.343 0.432,0.514 0,0.029 0,0.058 0,0.086 -1.458,1.71 -2.91,3.421 -4.366,5.132 1.21,0.054 7.347,0.013 7.615,0.342 -1.947,4.918 -11.223,2.313 -13.347,5.987 0,0.029 0,0.057 0,0.086 1,0.171 1.996,0.343 2.996,0.513 2.11,0.343 5.801,-0.579 7.355,0.257 -0.058,0.456 -0.111,0.912 -0.17,1.369 -1.482,1.945 -8.347,2.479 -11.547,2.908 -1.087,0 -2.169,0 -3.253,0 -0.656,0.741 -1.312,1.482 -1.968,2.224 0,0.03 0,0.059 0,0.086 2.293,0.379 5.107,0.89 7.701,1.368 1.596,0 3.195,0 4.793,0 0.113,0.143 0.226,0.287 0.34,0.429 -0.058,0.484 -0.114,0.97 -0.171,1.454 -3.317,2.307 -12.312,1.899 -17.451,1.883 -0.485,0.626 -0.971,1.254 -1.458,1.882 2.4,0.413 5.173,1.365 7.788,1.88 1.767,0.087 3.537,0.172 5.307,0.259 1.789,0.279 4.286,-0.993 5.472,0 0.363,0.224 0.616,1.077 0.343,1.624 -0.747,1.509 -3.773,1.497 -5.561,1.968 -6.057,1.599 -12.767,1.492 -19.934,1.455 -4.561,5.101 -9.127,10.207 -13.688003,15.311 0,0.028 0,0.057 0,0.087 6.814003,0.37 13.634003,0.74 20.448003,1.111 1.595,-1.596 3.192,-3.194 4.792,-4.79 2.906,-2.907 6.101,-5.63 9.664,-7.869 1.289,-0.808 4.351,-3.239 6.162,-2.909 0.284,0.314 0.57,0.627 0.857,0.94 -0.03,0.229 -0.056,0.457 -0.087,0.686 -0.578,1.332 -2.482,1.959 -3.422,2.992 -2.536,2.797 -7.272,7.57 -8.214,11.636 0.77,0.027 1.543,0.057 2.313,0.085 2.558,-3.5 5.909,-6.318 9.582,-8.724 0.878,-0.577 2.833,-2.706 4.192,-2.225 0.497,0.165 1.226,0.691 0.938,1.368 -0.433,0.9 -1.52,1.478 -2.221,2.14 -1.703,1.604 -4.895,5.369 -5.476,7.87 0.883,0.057 1.767,0.113 2.654,0.169 0.939,-0.939 1.878,-1.881 2.822,-2.823 1.853,-1.283 3.706,-2.565 5.559,-3.849 1.845,-1.1 3.727,-2.453 5.73,-0.854 0,0.027 0,0.057 0,0.084 -0.909,0.827 -1.822,1.655 -2.735,2.479 -1.649,1.461 -3.016,3.381 -4.279,5.221 0.03,0.057 0.056,0.114 0.087,0.17 0.811,0.04 1.542,0.236 1.965,-0.084 3.058,-1.404 8.28,-7.291 12.239,-4.876 0,0.085 0,0.17 0,0.257 -1.383,0.868 -5.075,3.698 -5.562,5.217 2.308,0.144 4.618,0.285 6.927,0.427 0,0.287 0,0.572 0,0.856 -2.253,0.172 -4.506,0.342 -6.758,0.514 1.506,2.015 3.697,3.366 5.219,5.304 -0.084,0.17 -0.171,0.343 -0.258,0.513 -5.033,1.59 -8.641,-5.975 -13.517,-5.389 0,0.029 0,0.057 0,0.085 1.243,1.823 2.631,3.464 4.107,5.047 0.855,0.827 1.712,1.654 2.564,2.481 0.148,0.731 -0.694,1.04 -1.282,1.283 -3.162,-0.436 -7.339,-4.134 -9.582,-5.901 -0.939,-0.885 -1.881,-1.769 -2.822,-2.653 -0.944,0.086 -1.883,0.171 -2.824,0.256 1.264,2.551 3.013,4.621 4.707,6.758 0.954,1.209 2.312,1.89 3.167,3.251 -0.061,0.171 -0.118,0.341 -0.174,0.513 -0.465,0.349 -0.686,0.695 -1.453,0.770003 -4.177,-1.716003 -7.267,-5.248003 -10.525,-7.957003 -0.913,-0.996 -1.822,-1.994 -2.739,-2.994 -0.796,0.059 -1.595,0.115 -2.391,0.172 0,0.027 0,0.057 0,0.084 2.633,4.194 4.92,7.915 8.296,11.294003 0.788,0.787 3.642,2.22 3.337,3.592 -0.156,0.604 -0.552,0.838 -0.941,1.197 -2.57,10e-4 -4.3,-2.021 -5.988,-3.08 -3.374,-2.117 -6.551,-4.700003 -9.329,-7.441003 -1.652,-1.683 -3.303,-3.366 -4.958,-5.047 -0.939,-0.599 -4.779,0.351 -6.332,0.253 -4.763,0.259 -9.525,0.516 -14.286003,0.77 0.569,1.77 2.976003,3.306 4.105003,4.707 3.167,3.564 6.332,7.130003 9.495,10.691003 7.394,-0.096 21.383,-0.198 25.58,3.423 -0.058,0.513 -0.114,1.026 -0.171,1.539 -1.829,0.674 -4.755,-0.081 -7.357,0 -3.658,0.115 -9.397,0.731 -11.634,2.31 0.54,0.569 1.083,1.142 1.626,1.711 4.572,-0.281 9.44,-0.257 13.259,0.685 1.339,0.33 3.499,0.221 4.105,1.283 0.21,0.381 0.192,1.062 0.087,1.54 -1.03,0.422 -2.655,0.07 -4.023,0.087 -2.203,0.022 -7.754,0.641 -8.812,1.71 0.601,0.655 1.199,1.311 1.798,1.967 4.648,-0.119 8.625,0.464 12.15,1.711 1.343,0.474 3.857,1.026 2.906,3.077 -3.4,-0.045 -7.219,-0.201 -10.35,0.431 0,0.026 0,0.056 0,0.084 2,3.343 13.149,1.511 13.516,6.671 -0.056,0 -0.114,0 -0.169,0 -1.031,0.318 -6.793,-1.087 -7.53,0 1.511,1.712 3.023,3.422 4.533,5.134 -0.144,0.17 -0.282,0.339 -0.427,0.512 -0.113,0 -0.226,0 -0.343,0 -1.625,-1.453 -3.249,-2.908 -4.875,-4.363 -0.057,0.03 -0.114,0.057 -0.169,0.087 -0.058,1.396 -0.117,2.794 -0.173,4.19 0.146,0.962 0.315,2.604 0.087,3.338 -3.016,-0.272 -3.684,-6.14 -4.28,-8.983 -0.113,-0.999 -0.227,-1.997 -0.344,-2.994 -0.509,-0.455 -1.021,-0.914 -1.535,-1.37 -0.057,0.031 -0.116,0.058 -0.174,0.087 -0.07,2.256 -0.558,4.761 -0.595,7.357 -0.02,1.125 0.425,2.47 -0.261,2.909 -0.453,-0.057 -0.91,-0.115 -1.366,-0.171 -1.884,-2.67 -2.11,-7.236 -2.74,-11.123 -0.416,-2.567 0.562,-3.01 -1.027,-4.532 -0.395,-0.379 -0.686,-0.842 -1.284,-1.026 -0.776,2.345 -1.014,5.362 -1.452,8.126 0.026,1.397 0.057,2.793 0.083,4.191 -0.113,0.142 -0.226,0.283 -0.343,0.426 -2.591,0.008 -2.052,-1.528 -2.565,-3.507 -1.05,-4.063 -0.997,-9.335 -0.853,-14.028 -0.601,-0.513 -1.198,-1.026 -1.797,-1.54 -0.056,0.028 -0.114,0.057 -0.17,0.085 -0.285,0.941 -0.572,1.881 -0.857,2.822 -0.341,2.083 -0.686,4.164 -1.026,6.246 -0.32,2.803 0.507,7.63 -0.172,9.581 -0.366,0.187 -1.165,0.42 -1.71,0.171 -1.369,-0.676 -1.394,-3.399 -1.797,-5.049 -0.779,-3.179 -0.887,-7.111 -1.54,-10.692 0,-1.74 0,-3.479 0,-5.217 -0.201,-1.225 -0.356,-3.071 0,-4.277 -0.221,-0.877 -2.838,-2.698 -3.592,-3.335 -2.713,-2.301 -5.427003,-4.754 -8.043003,-7.187 -1.12,-1.044003 -2.317,-2.695003 -3.764,-3.336003 -0.029,0.057 -0.057,0.113 -0.084,0.172 -0.345,6.756003 -0.686,13.514003 -1.027,20.272003 1.196,1.167 2.396,2.338 3.593,3.505 1.142,1.17 2.28,2.339 3.422,3.508 1.826003,2.286 3.604003,4.488 5.305003,6.93 1.198,1.722 3.255,3.973 3.249,6.671 -0.476,0.372 -0.683,0.749 -1.453,0.857 -1.192,-0.806 -1.86,-1.972 -2.739,-3.08 -1.569,-1.483 -3.136,-2.966 -4.703003,-4.448 -2.232,-1.678 -4.734,-2.806 -7.187,-4.277 -0.058,0.027 -0.113,0.058 -0.172,0.084 -0.028,0.772 -0.057,1.541 -0.085,2.311 3.537,2.475 9.584003,9.057 11.036003,13.43 -0.232,0.68 -0.564,1.257 -1.369,1.369 -1.029003,-0.863 -1.730003,-2.051 -2.740003,-2.908 -2.239,-1.907 -4.604,-3.342 -7.184,-4.961 -0.056,0.084 -0.114,0.171 -0.172,0.257 -0.027,0.826 -0.058,1.654 -0.085,2.48 0.971,0.998 1.939,1.996 2.91,2.994 1.626,2.091 4.901,6.128 5.476,8.896 0.195,0.954 -0.531,1.622 -0.858,2.137 -0.114,0 -0.227,0 -0.343,0 -1.906,-1.924 -4.912,-6.211 -7.697,-6.928 -0.137,4.754 7.753,9.556 4.962,14.199 -0.143,-0.027 -0.287,-0.056 -0.43,-0.084 -0.967,-2.296 -3.439,-3.609 -4.875,-5.475 -0.058,0.028 -0.113,0.056 -0.172,0.087 -0.14,2.281 -0.285,4.56 -0.428,6.841 -0.371,0.111 -0.654,0.06 -0.939,-0.085 -0.144,-2.196 -0.285,-4.39 -0.429,-6.586 -0.029,0 -0.056,0 -0.085,0 -1.236,0.93 -4.532,4.932 -5.475,5.218 -1.756,-2.655 2.322,-7.93 3.85,-10.009 0.456,-0.541 0.913,-1.083 1.369,-1.625 -0.029,-0.713 -0.057,-1.426 -0.087,-2.14 -2.612,0.772 -5.755,4.819 -7.612,6.674 -0.387,-0.019 -0.464,-0.062 -0.686,-0.171 -1.759,-3.889 5.807,-10.768 7.871,-13.43 -0.057,-0.97 -0.111,-1.94 -0.171,-2.91 -0.029,0 -0.058,0 -0.085,0 -2.546,1.004 -4.894,3.08 -6.845,4.792 -0.983,0.862 -1.761,2.732 -3.25,2.992 -0.543,-0.287 -0.735,-0.677 -1.111,-1.111 0.085,-2.71 6.683,-9.727 8.469,-11.548 0.799,-0.712 1.598,-1.426 2.393,-2.138 -0.027,-0.798 -0.055,-1.598 -0.083,-2.396 -3.575,0.934 -8.948,5.782 -11.379,8.211 -0.765,0.766 -2.274,3.839 -3.764,3.338 -0.526,-0.235 -0.771,-0.611 -1.11,-1.027 0.39,-2.062 1.622,-3.498 2.652,-5.134 3.679,-5.841 8.414,-10.399 13.088,-15.226 -0.399,-6.812 -0.799,-13.629 -1.198,-20.445003 -0.057,0.059 -0.115,0.115 -0.169,0.172 -5.051,4.475003 -10.099,8.955003 -15.145,13.430003 0.09,7.181 0.185,14.86 -1.54,20.529 -0.504,1.655 -0.545,4.944 -2.482,5.132 -1.744,-0.536 -1.34,-2.374 -1.026,-4.362 0.886,-5.625 -1.064,-10.717 -2.14,-14.798 -0.698,0.206 -1.403,1 -1.795,1.54 0.127,5.308 0.516,13.673 -1.797,17.366 -0.386,0.119 -1.059,0.32 -1.453,0.169 -0.172,-0.144 -0.342,-0.284 -0.515,-0.426 0.062,-2.543 -0.012,-11.784 -1.712,-12.403 -0.509,0.65 -1.418,1.035 -1.795,1.795 -0.028,1.51 -0.057,3.023 -0.085,4.534 -0.551,3.123 -1.152,11.051 -4.621,10.608 -0.436,-1.417 0.038,-5.007 0.087,-6.761 -0.2,-1.224 -0.4,-2.451 -0.6,-3.677 -0.519,0.144 -1.319,0.775 -1.54,1.199 -0.169,1.226 -0.342,2.452 -0.513,3.677 -0.481,2.074 -1.141,3.898 -1.796,5.732 -0.453,1.268 -1.306,3.424 -2.997,2.737 0.089,-2.346 0.91,-5.128 0.259,-7.613 -0.085,0.028 -0.172,0.057 -0.259,0.084 -1.653,1.483 -3.305,2.966 -4.96,4.45 -0.057,0 -0.115,0 -0.171,0 -0.144,-0.172 -0.285,-0.343 -0.426,-0.513 0.569,-2.167 3.578,-3.115 4.275,-5.219 -1.431,-0.049 -6.766,0.165 -7.527,-0.17 0.466,-5.022 12.088,-2.468 13.26,-6.245 -0.057,0 -0.113,0 -0.17,0 -1.853,-0.754 -4.666,-0.599 -7.102,-0.599 -1.004,0 -2.588,0.307 -2.993,-0.257 -0.169,-0.422 0.053,-1.024 0.17,-1.453 2.803,-1.935 7.988,-2.251 11.89,-2.737 0.943,0 1.882,0 2.825,0 0.579,-0.203 1.778,-1.692 1.967,-2.31 -2.335,-0.515 -5.112,-0.908 -7.785,-1.371 -1.54,0 -3.08,0 -4.621,0 -0.114,-0.141 -0.228,-0.284 -0.341,-0.426 -0.147,-0.582 0.081,-1.298 0.341,-1.711 5.176,-1.586 10.856,-1.632 17.198,-1.626 0.455,-0.604 1.227,-1.087 1.454,-1.881 -2.975,-0.751 -6.338,-1.486 -9.668,-1.967 -3.163,-0.458 -6.066,0.605 -8.725,0 -0.174,-0.17 -0.344,-0.342 -0.515,-0.514 -0.067,-2.966 3.179,-2.664 5.647,-3.249 3.186,-0.758 7.079,-1.01 10.694,-1.457 3.08,-0.027 6.157,-0.057 9.239,-0.085 4.534,-5.075 9.069,-10.149003 13.602,-15.226003 0,-0.028 0,-0.056 0,-0.084 -6.815,-0.372 -13.631,-0.742 -20.446,-1.113 -1.198,1.226 -2.396,2.451 -3.594,3.677 -3.636,2.927 -6.686,6.239 -10.694,8.897003 -1.263,0.84 -4.516,3.329 -6.33,2.994 -0.458,-0.328 -0.798,-0.714 -0.856,-1.455 0.806,-1.169 1.984,-1.861 3.079,-2.738 2.265,-1.807003 8.121,-8.869003 8.641,-12.062003 -0.369,-0.028 -0.739,-0.057 -1.113,-0.084 -0.369,0.027 -0.74,0.057 -1.109,0.084 -0.913,1.028 -1.826,2.055 -2.739,3.081 -2.468,1.993 -4.491,4.046 -7.272,5.816 -1.06,0.676 -2.313,2.243003 -3.935,1.967003 -0.469,-0.310003 -0.868,-0.555003 -0.94,-1.281003 2.242,-2.65 7.11,-6.219 7.784,-10.094 -0.228,0 -0.456,0 -0.684,0 -0.629,-0.059 -1.254,-0.115 -1.88,-0.172 -0.806,0.187 -1.518,1.639 -2.14,2.139 -2.111,1.7 -4.388,3.673 -6.846,4.962 -1.415,0.743 -3.879,2.23 -5.132,0.428 0.26,-0.953 1.689,-1.739 2.397,-2.312 1.708,-1.377 3.42,-3.528 4.533,-5.473 -0.029,-0.056 -0.059,-0.113 -0.084,-0.171 -0.601,-0.029 -1.201,-0.056 -1.799,-0.085 -0.885,0.686 -1.768,1.369 -2.65,2.053 -1.555,1.039 -3.215,1.765 -4.963,2.651 -1.467,0.747 -3.239,1.785 -4.705,0.343 0,-0.084 0,-0.17 0,-0.256 1.776,-1.257 4.514,-3.125 5.475,-5.131 -0.058,0 -0.117,0 -0.172,0 -2.253,-0.172 -4.507,-0.344 -6.761,-0.516 0,-0.228 0,-0.457 0,-0.683 0.059,-0.086 0.115,-0.172 0.174,-0.258 2.194,-0.142 4.392,-0.283 6.587,-0.427 0,-0.028 0,-0.056 0,-0.084 -0.686,-0.8 -1.368,-1.599 -2.055,-2.396 -1.053,-0.939 -2.11,-1.881 -3.165,-2.823 0.351,-0.998 2.078,-1.125 2.994,-0.6 3.068,1.757 5.89,3.58 8.643,5.563 0.712,-0.029 1.424,-0.057 2.138,-0.087 -0.765,-2.414 -6.644,-6.694 -6.675,-8.126 0.447,-0.24 0.917,-0.864 1.626,-0.77 2.274,0.302 7.864,4.726 9.581,6.159 0.799,0.771 1.598,1.541 2.396,2.311 0.941,-0.03 1.883,-0.057 2.823,-0.087 0.03,-0.056 0.056,-0.113 0.086,-0.169 -1.356,-2.553 -3.07,-4.802 -4.877,-6.93 -0.846,-0.999 -2.759,-1.628 -2.907,-3.25 0.325,-0.476 0.723,-0.78 1.283,-1.027 1.289,0.164 2.002,1.054 2.909,1.627 3.204,2.016 5.834,4.44 8.555,6.927 0.684,0.798 1.368,1.598 2.053,2.395 0.746,0.032 1.955,0.082 2.396,-0.255 -2.3,-4.428 -5.114,-8.194 -8.472,-11.549 -0.751,-0.752 -3.637,-1.938 -3.079,-3.507 0.287,-0.341 0.568,-0.685 0.856,-1.027 2.519,-0.026 4.26,1.959 5.902,2.994 3.328,2.099 6.513,4.631 9.241,7.357 1.709,1.739 3.422,3.479 5.132,5.217 1.968,-0.057 3.935,-0.113 5.903,-0.17 4.904,-0.284 9.811,-0.569 14.715,-0.856 -0.476,-1.521 -2.395,-2.672 -3.336,-3.849 -3.421,-3.85 -6.845,-7.699 -10.268,-11.548 -7.106,0.089 -13.336,0.342 -19.592,-1.283 -2.14,-0.557 -4.682,-0.821 -5.988,-2.224 -0.014,-0.774 0.14,-1.198 0.428,-1.626 2.127,-0.548 4.908,0.534 7.614,0.171 4.021,-0.538 7.764,-1.026 11.124,-2.225 0,-0.056 0,-0.113 0,-0.171 -0.513,-0.541 -1.026,-1.083 -1.54,-1.625 -4.533,0.265 -9.747,0.215 -13.69,-0.77 -1.329,-0.332 -3.227,-0.168 -3.763,-1.283 -0.157,-0.272 -0.252,-0.852 -0.085,-1.198 0.137,-0.291 0.14,-0.286 0.426,-0.427 1.399,0.029 2.796,0.057 4.192,0.086 2.958,-0.473 5.729,-0.932 8.215,-1.54 -0.231,-0.772 -1.196,-1.696 -1.798,-2.139 -4.848,0.107 -14.855,-0.677 -15.228,-4.534 0.086,-0.086 0.17,-0.171 0.257,-0.257 2.532,0.064 8.626,0.709 10.268,-0.513 -0.4,-0.485 -0.801,-0.97 -1.2,-1.455 -2.895,-0.026 -10.056,-1.876 -11.55,-3.166 -0.408,-0.352 -0.667,-1.341 -0.769,-1.967 0.458,-0.197 6.198,0.157 7.7,0.172 -0.498,-1.616 -3.37,-3.802 -4.449,-5.219 0,-0.085 0,-0.17 0,-0.257 0.171,-0.142 0.343,-0.285 0.513,-0.428 1.445,0.542 3.902,3.241 5.048,4.363 0.057,-0.03 0.114,-0.058 0.169,-0.085 -0.002,-1.419 -0.104,-6.921 0.172,-7.529 2.998,0.38 3.686,6.378 4.278,9.325 0.087,0.854 0.169,1.711 0.256,2.567 0.513,0.485 1.026,0.968 1.54,1.454 0.057,-0.029 0.113,-0.057 0.171,-0.086 0.161,-1.761 0.298,-3.753 0.599,-5.73 0,-1.483 0,-2.965 0,-4.448 2.026,-0.755 2.38,1.367 2.822,2.822 0.739,2.422 1.064,5.433 1.542,8.212 0.057,1.283 0.114,2.567 0.171,3.851 0.655,0.626 1.312,1.254 1.967,1.881 1.022,-0.598 1.357,-6.263 1.625,-7.955 0.25,-1.559 -0.479,-3.484 0.169,-4.706 0.464,-0.105 0.951,-0.123 1.54,0 1.725,1.713 2.967,13.484 1.971,17.194 0.376,0.782 1.194,1.23 1.795,1.796 0.057,-0.029 0.115,-0.057 0.169,-0.085 0.604,-2.63 1.56,-5.737 1.884,-8.553 0.355,-3.074 -0.471,-7.469 0.087,-9.923 0.169,-0.114 0.341,-0.229 0.514,-0.343 0.425,0 0.854,0 1.282,0 1.355,0.681 1.39,3.245 1.796,4.877 0.963,3.867 0.91,8.338 1.626,12.83 0,2.594 0,5.189 0,7.785 5.104,4.561 10.21,9.125 15.314,13.687 0,-0.059 0,-0.116 0,-0.171 0.399,-6.815 0.799,-13.63 1.197,-20.445 -1.386,-0.968 -2.415,-2.327 -3.595,-3.507 -3.354,-3.361 -6.5,-6.779 -9.153,-10.864 -0.932,-1.436 -3.23,-3.99 -2.822,-6.158 0.341,-0.285 0.683,-0.571 1.026,-0.856 1.822,0.32 2.444,2.531 3.593,3.593 3.276,3.021 6.912,6.664 11.55,8.211 0,-0.056 0,-0.113 0,-0.17 0.031,-0.685 0.055,-1.368 0.085,-2.054 -0.506,-1.005 -1.877,-1.538 -2.653,-2.31 -2.357,-2.345 -4.383,-4.836 -6.244,-7.698 -0.547,-0.84 -2.47,-2.585 -1.968,-3.936 0.177,-0.462 0.666,-1.098 1.198,-0.94 1.331,0.43 2.042,2.266 3.08,3.08 2.208,1.73 4.305,3.358 6.929,4.706 0.06,-0.029 0.114,-0.059 0.172,-0.086 0.027,-0.914 0.057,-1.826 0.085,-2.738 -2.922,-2.185 -5.56,-5.976 -7.272,-9.323 -0.674,-1.315 -1.933,-3.417 -0.259,-4.534 0.773,-0.108 1.56,1.436 2.055,1.967 1.468,1.573 3.682,4.221 5.904,4.876 0,-0.058 0,-0.114 0,-0.172 0.799,-1.898 -1.155,-3.279 -1.796,-4.191 -1.549,-2.196 -4.816,-7.017 -3.167,-9.837 0.169,0.057 0.343,0.114 0.514,0.171 0.806,1.83 3.259,4.414 4.96,5.39 0.171,-2.34 0.341,-4.677 0.513,-7.015 z"
         clip-rule="evenodd" />
    </g>
  </g>
</svg>
