<?xml version="1.0" encoding="UTF-8" standalone="no"?>
<!-- Created with Inkscape (http://www.inkscape.org/) -->

<svg
   xmlns:dc="http://purl.org/dc/elements/1.1/"
   xmlns:cc="http://creativecommons.org/ns#"
   xmlns:rdf="http://www.w3.org/1999/02/22-rdf-syntax-ns#"
   xmlns:svg="http://www.w3.org/2000/svg"
   xmlns="http://www.w3.org/2000/svg"
   xmlns:sodipodi="http://sodipodi.sourceforge.net/DTD/sodipodi-0.dtd"
   xmlns:inkscape="http://www.inkscape.org/namespaces/inkscape"
   width="48"
   height="48"
   id="svg4160"
   version="1.1"
   inkscape:version="0.48.2 r9819"
   sodipodi:docname="Snowflake-02.svg">
  <defs
     id="defs4162" />
  <sodipodi:namedview
     id="base"
     pagecolor="#ffffff"
     bordercolor="#666666"
     borderopacity="1.0"
     inkscape:pageopacity="0.0"
     inkscape:pageshadow="2"
     inkscape:zoom="11.2"
     inkscape:cx="11.382664"
     inkscape:cy="15.458561"
     inkscape:document-units="px"
     inkscape:current-layer="layer1"
     showgrid="false"
     fit-margin-top="0"
     fit-margin-left="0"
     fit-margin-right="0"
     fit-margin-bottom="0"
     inkscape:window-width="1585"
     inkscape:window-height="1092"
     inkscape:window-x="2"
     inkscape:window-y="2"
     inkscape:window-maximized="0" />
  <metadata
     id="metadata4165">
    <rdf:RDF>
      <cc:Work
         rdf:about="">
        <dc:format>image/svg+xml</dc:format>
        <dc:type
           rdf:resource="http://purl.org/dc/dcmitype/StillImage" />
        <dc:title />
      </cc:Work>
    </rdf:RDF>
  </metadata>
  <g
     inkscape:label="Layer 1"
     inkscape:groupmode="layer"
     id="layer1"
     transform="translate(-91.528107,-104.27354)">
    <g
       transform="matrix(0.26187542,0,0,0.2612913,24.59581,97.4336)"
       id="g22"
       style="fill:none;stroke:#000000;stroke-width:0.38335609;stroke-miterlimit:4;stroke-opacity:1;stroke-dasharray:none">
      <path
         style="fill:none;stroke:#000000;stroke-width:0.38335609;stroke-miterlimit:4;stroke-opacity:1;stroke-dasharray:none"
         inkscape:connector-curvature="0"
         id="path24"
         d="m 355.337,123.962 c -0.266,0.315 0.267,-0.313 0,0 0.238,4.004 1.438,10.537 1.428,15.642 -0.004,2.443 5.387,3.61 7.134,4.658 2.474,1.992 4.949,3.978 7.423,5.969 2.861,2.04 4.325,5.9 1.674,7.64 -3.717,0.012 -10.297,-5.646 -14.047,-8.366 -0.121,0.12 -0.242,0.243 -0.362,0.363 -0.026,0.119 -0.05,0.239 -0.074,0.363 1.05,2.073 0.071,3.704 2.401,5.896 4.305,4.042 8.967,6.923 13.611,11.57 2.002,2.006 4.943,5.344 1.819,7.207 -4.205,2.503 -10.419,-8.108 -14.483,-7.933 -0.097,0.097 -0.193,0.192 -0.291,0.292 2.645,7.169 5.777,13.938 7.423,21.104 0.845,3.674 0.858,7.331 1.093,10.99 0.137,2.152 0.61,9.418 -3.203,10.335 -4.525,-1.717 -6.781,-6.832 -8.006,-10.626 -3.392,-10.507 -2.699,-21.078 -2.912,-31.585 -0.022,-0.025 -0.048,-0.048 -0.07,-0.074 -0.172,0.026 -0.341,0.049 -0.51,0.074 -4.512,0.674 -8.498,14.055 -13.684,9.898 -1.388,-5.845 4.572,-10.675 8.516,-16.521 1.026,-1.522 2.476,-2.836 2.764,-4.371 -0.097,-1.062 -0.193,-2.133 -0.29,-3.199 -0.119,-0.775 0.067,-1.385 -0.582,-2.185 -0.097,0 -0.195,0.004 -0.292,0 -2.574,1.859 -10.632,14.585 -13.172,8.516 -1.449,-3.693 4.318,-10.125 7.205,-14.047 1.164,-1.261 2.328,-2.522 3.493,-3.783 0.618,-1.209 0.741,-3.162 0.488,-4.416 -0.677,-3.338 -0.411,-6.731 -1.197,-10.537 -0.023,0.023 -1.168,-2.417 -1.19,-2.395 -5.143,16.64 -10.572,35.932 -15.715,52.572 -1.26,4.075 -2.521,8.15 -3.783,12.225 -0.229,1.239 1.812,2.773 -0.51,3.862 -1.689,0.789 -3.734,-1.34 -2.693,-2.986 0.545,-0.861 1.411,-0.891 1.82,-1.239 6.524,-21.32 13.053,-42.649 19.578,-63.974 -3.004,2.911 -5.978,5.968 -8.08,8.954 -1.066,1.164 -2.135,2.327 -3.201,3.492 -1.025,2.196 -0.177,5.519 0.072,7.786 0.367,3.331 -0.459,7.297 -0.873,10.628 -0.242,1.949 -1.477,8.217 -5.168,5.896 -1.423,-0.898 -1.313,-3.185 -1.455,-4.221 -0.41,-3 1.225,-9.855 0,-12.083 -0.049,0.049 -0.099,0.097 -0.145,0.146 -1.485,0.565 -3.673,3.154 -3.932,4.367 -0.326,1.53 0.172,3.132 0.002,4.655 -0.535,4.61 -1.068,9.22 -1.603,13.829 -0.228,1.621 -1.166,7.02 -4.294,5.897 -2.045,-0.558 -2.385,-3.29 -2.548,-4.587 -0.333,-2.653 -0.278,-5.575 0.073,-8.224 0.176,-1.336 0.762,-2.74 0.437,-4.076 -0.074,-0.021 -0.146,-0.048 -0.218,-0.07 -1.336,1.867 -2.67,3.734 -4.006,5.604 -4.546,7.541 -19.73,26.04 -27.8,23.723 -3.092,-1.441 0.011,-6.971 1.018,-9.021 3.183,-6.488 11.592,-14.283 18.05,-18.634 2.019,-1.362 7.703,-4.311 8.808,-6.043 -0.146,-0.19 -0.292,-0.385 -0.437,-0.58 -1.869,-0.362 -3.736,-0.729 -5.604,-1.092 -2.398,-0.375 -4.875,0.213 -7.28,-0.581 -1.983,-0.655 -3.572,-2.458 -2.546,-4.295 1.505,-2.698 5.705,-1.96 7.643,-1.964 3.467,0.025 6.938,0.048 10.406,0.07 1.633,0.176 4.098,0.539 5.677,0 1.343,-0.457 2.802,-2.911 3.421,-3.857 -0.098,-0.143 -0.193,-0.289 -0.291,-0.435 -2.618,0.558 -9.341,-0.33 -11.937,-1.455 -2.189,-0.955 -4.407,-3.469 -1.455,-5.385 2.337,-1.522 11.771,-1.478 14.483,-1.093 1.498,0.21 4.104,1.4 5.533,0.872 1.235,-1.142 2.473,-2.278 3.71,-3.42 2.208,-2.018 4.416,-4.026 6.622,-6.04 1.537,-1.138 3.348,-2.702 4.367,-4.224 -0.023,-0.023 -0.048,-0.049 -0.072,-0.071 -0.049,0.048 -0.097,0.097 -0.146,0.146 -17.684,5.602 -35.373,11.207 -53.058,16.813 -4.27,1.358 -8.539,2.715 -12.811,4.074 -0.568,0.367 -0.469,1.504 -1.454,1.894 -1.067,0.423 -2.073,-0.232 -2.765,-1.31 -0.063,-1.216 0.611,-3.098 2.327,-2.766 0.486,0.095 0.976,0.686 1.458,0.727 21.297,-6.792 42.603,-13.586 63.9,-20.379 -4.292,-0.654 -8.589,-1.31 -12.882,-1.965 -1.218,-0.185 -3.439,-0.917 -4.584,-0.365 -1.383,1.288 -2.768,2.574 -4.149,3.857 -3.288,2.32 -6.588,5.018 -9.826,6.334 -1.393,0.565 -4.215,1.513 -5.238,-1.021 -1.388,-3.431 8.081,-8.611 10.116,-11.862 -0.146,-0.192 -0.291,-0.389 -0.438,-0.582 -1.828,0.249 -3.703,-1.034 -5.531,-0.292 -5.55,2.253 -15.739,14.873 -20.67,10.772 -2.016,-6.49 8.332,-8.106 10.408,-13.61 -0.049,-0.098 -0.098,-0.195 -0.146,-0.292 -2.329,0.097 -4.659,0.194 -6.987,0.292 -8.439,-0.897 -16.893,-0.502 -25.329,-3.349 -3.309,-1.115 -9.889,-4.238 -9.825,-8.515 2.636,-2.811 5.078,-2.286 7.86,-2.621 5.999,-0.718 11.598,1.253 17.612,2.767 2.062,0.46 4.125,0.92 6.187,1.383 2.399,0.866 9.057,4.756 11.062,4.077 0.025,-0.074 0.05,-0.146 0.072,-0.22 -2.914,-3.433 -6.825,-7.933 -7.713,-11.5 -0.316,-1.269 -0.779,-3.67 1.382,-4.002 2.33,-0.357 6.369,3.103 8.37,5.894 1.044,1.19 2.088,2.378 3.129,3.567 1.545,2.198 4.003,7.014 6.843,8.589 1.626,0.363 3.252,0.726 4.877,1.091 0.096,-0.146 0.193,-0.292 0.291,-0.436 -2.342,-4.01 -6.411,-7.527 -7.642,-11.428 -0.455,-1.439 -0.58,-3.637 1.528,-4.15 3.834,1.68 6.5,4.494 9.242,8.371 0.873,0.97 1.748,1.94 2.621,2.911 1.175,1.794 1.989,5.032 4.295,6.477 4.082,2.562 8.613,2.219 12.736,3.13 2.104,0.466 4.375,1.682 6.477,1.385 -13.004,-13.003 -26.008,-26.01 -39.011,-39.013 -3.372,-3.371 -6.745,-6.744 -10.118,-10.116 -1.154,-1.128 -3.271,-0.188 -3.565,-2.402 -0.325,-2.443 4.057,-3.412 4.076,0.728 16.521,16.521 33.045,33.046 49.563,49.564 0.026,-0.122 0.049,-0.241 0.072,-0.363 -0.532,-1.602 -1.066,-3.203 -1.6,-4.804 -1.334,-2.887 -2.67,-5.773 -4.004,-8.661 -0.388,-1.212 -0.775,-2.426 -1.162,-3.64 -1.014,-1.632 -3.01,-1.093 -4.15,-1.528 -3.693,-1.408 -7.4,-3 -10.99,-5.021 -2.129,-1.2 -4.893,-3.621 -3.493,-5.679 2.589,-3.809 12.115,2.442 15.356,2.403 0.072,-0.074 0.146,-0.147 0.219,-0.219 0.006,-0.802 -1.066,-4.898 -2.039,-5.53 -1.551,-0.583 -3.104,-1.166 -4.657,-1.748 -3.009,-1.357 -6.017,-2.716 -9.024,-4.076 -2.212,-0.896 -6.117,-2.485 -6.549,-5.676 -0.31,-2.272 2.316,-2.524 3.71,-2.254 4.095,0.788 9.212,3.977 13.32,3.418 0.253,-1.044 -4.63,-7.989 -5.459,-9.535 -4.401,-8.18 -7.417,-16.045 -8.443,-24.161 -0.194,-1.536 -0.812,-7.449 2.038,-8.443 2.916,-1.018 7.842,6.15 9.098,8.517 1.546,2.913 2.357,6.015 3.13,8.95 1.29,4.908 2.979,9.546 3.93,14.411 0.251,1.279 0.362,7.392 1.31,7.715 0.097,0.048 0.193,0.097 0.292,0.146 1.646,-2.41 3.818,-16.961 10.042,-13.828 1.721,5.267 -0.783,9.938 -2.836,15.21 -0.391,1.407 -0.777,2.814 -1.166,4.222 -1.654,4.027 -2.609,4.031 -0.945,8.224 0.311,0.785 0.027,1.169 0.945,2.111 0.074,-0.023 0.145,-0.048 0.219,-0.072 1.15,-2.644 3.805,-12.539 7.133,-13.83 1.049,-0.406 1.906,0.085 2.984,0.655 1.047,6.174 -1.977,12.053 -4.659,18.197 -0.823,1.504 -1.648,3.007 -2.474,4.512 -0.525,1.627 0.596,3.958 1.238,5.604 1.273,3.27 1.676,8.299 3.855,11.135 6.647,-21.493 13.296,-42.991 19.942,-64.484 0.025,-1.437 -0.853,-0.827 -0.218,-2.984 1.637,-1.498 4.403,-0.123 3.566,1.966 -0.268,1.039 -1.362,1.243 -2.039,1.599 -6.646,21.59 -13.295,43.187 -19.939,64.777 0.023,0.025 0.049,0.047 0.072,0.072 3.557,-2.562 6.686,-6.416 9.241,-9.97 1.46,-2.028 4.005,-3.689 4.659,-5.823 0.604,-1.966 -0.216,-4.548 -0.438,-6.549 -0.354,-3.198 -0.151,-6.998 0.291,-10.189 0.26,-1.875 1.227,-9.544 5.096,-7.134 1.704,1.062 1.458,3.202 1.6,4.367 0.382,3.128 -1.09,8.932 0.584,11.646 0.047,0 0.098,-0.002 0.145,0 1.141,-1.334 2.28,-2.668 3.421,-4.004 0.05,-1.796 0.097,-3.589 0.146,-5.384 0.44,-3.926 0.346,-7.794 0.947,-11.719 0.234,-1.538 0.348,-6.787 2.692,-7.787 1.333,-0.571 3.669,0.821 4.075,2.62 1.011,4.479 -0.519,9.102 0,13.538 0.121,0.073 0.243,0.146 0.365,0.217 2.087,-1.175 3.469,-4.659 4.439,-6.478 3.72,-6.978 11.737,-17.018 19.504,-21.397 2.048,-1.154 5.618,-3.375 7.569,-1.602 3.808,7.921 -12.604,23.097 -21.033,29.187 -2.38,1.719 -4.872,2.756 -6.549,5.094 0.146,0.146 0.29,0.29 0.437,0.436 1.89,0.292 3.783,0.584 5.676,0.874 2.56,0.277 5.125,-0.402 7.715,0.292 2.098,0.563 3.218,2.892 2.329,4.512 -1.199,2.188 -4.685,1.872 -6.114,2.037 -5.28,0.62 -10.802,-0.691 -16.012,0.147 -0.444,0.071 -5.209,3.244 -4.804,4.22 0.282,0.682 3.788,0.417 4.368,0.437 3.187,0.109 7.878,-0.326 10.698,3.277 0.071,3.573 -3.402,3.662 -5.677,3.93 -3.184,0.374 -6.431,0.82 -9.607,0.438 -1.59,-0.192 -4.553,-1.102 -6.043,-0.365 -2.424,2.378 -4.852,4.756 -7.275,7.132 -1.75,1.75 -7.263,6.376 -7.207,7.935 17.029,-5.435 34.065,-10.871 51.094,-16.304 4.002,-1.284 8.007,-2.571 12.007,-3.857 1.14,-0.393 1.553,-2.146 2.986,-2.113 1.919,0.047 2.104,2.156 1.601,3.35 -1.687,1.624 -1.969,0.211 -3.565,0.072 -21.082,6.721 -42.168,13.442 -63.247,20.161 2.473,2.008 13.666,5.298 16.012,4.366 1.502,-0.873 3.008,-1.747 4.511,-2.619 1.838,-0.979 3.763,-1.21 5.532,-1.893 4.012,-1.55 7.928,-4.098 11.938,-2.04 2.303,6.345 -10.283,7.46 -13.393,10.045 0.049,0.098 0.098,0.191 0.146,0.292 0.417,0.759 1.078,0.509 1.674,0.655 0.632,0.336 1.262,0.678 1.893,1.018 1.544,0.336 3.329,-0.733 4.877,-1.239 5.554,-1.808 16.055,-7.18 21.251,-4.51 1.971,4.663 -8.06,8.069 -10.771,8.877 -0.836,0.25 -2.538,0.322 -3.059,1.021 -0.048,0.146 -0.097,0.292 -0.145,0.434 2.549,1.325 5.712,0.693 8.37,1.239 4.472,0.92 8.743,2.451 13.245,3.637 3.011,0.796 6.281,1.571 9.242,3.132 2.531,1.333 9.941,6.242 8.736,9.317 -2.007,3.428 -8.344,2.114 -10.846,1.672 -10.241,-1.815 -20.523,-7.518 -30.786,-13.9 -0.098,0.097 -0.194,0.194 -0.292,0.292 -1.44,4.367 5.815,13.01 2.693,16.666 -3.725,1.107 -5.797,-2.499 -7.351,-5.751 -1.571,-3.289 -2.655,-6.323 -4.149,-9.825 -0.567,-1.328 -0.835,-3.042 -1.746,-4.363 -0.645,-0.939 -4.749,-1.957 -5.532,-1.893 -0.268,1.044 0.872,2.383 1.238,3.42 0.964,2.739 1.626,5.563 2.039,8.296 0.201,1.343 -0.05,4.13 -2.402,4.295 -2.911,0.202 -5.541,-6.795 -6.551,-8.733 -0.703,-1.53 -1.408,-3.058 -2.109,-4.588 -0.457,-1.589 -0.5,-3.64 -1.529,-5.167 -1.033,-1.531 -8.268,-3.433 -9.971,-4.147 -2.322,-0.98 -1.006,0.337 -4.775,0.172 12.881,12.883 23.553,23.555 36.434,36.438 3.324,3.322 6.647,6.645 9.972,9.968 1.209,1.197 3.284,0.426 3.567,2.548 0.445,3.356 -5.578,2.515 -3.931,-0.726 -16.469,-16.471 -31.023,-30.54 -47.496,-47.012 z"
         clip-rule="evenodd" />
    </g>
  </g>
</svg>
