<?xml version="1.0" encoding="UTF-8" standalone="no"?>
<!-- Created with Inkscape (http://www.inkscape.org/) -->

<svg
   xmlns:dc="http://purl.org/dc/elements/1.1/"
   xmlns:cc="http://creativecommons.org/ns#"
   xmlns:rdf="http://www.w3.org/1999/02/22-rdf-syntax-ns#"
   xmlns:svg="http://www.w3.org/2000/svg"
   xmlns="http://www.w3.org/2000/svg"
   xmlns:sodipodi="http://sodipodi.sourceforge.net/DTD/sodipodi-0.dtd"
   xmlns:inkscape="http://www.inkscape.org/namespaces/inkscape"
   width="48"
   height="48"
   id="svg4160"
   version="1.1"
   inkscape:version="0.48.2 r9819"
   sodipodi:docname="Snowflake-03.svg">
  <defs
     id="defs4162" />
  <sodipodi:namedview
     id="base"
     pagecolor="#ffffff"
     bordercolor="#666666"
     borderopacity="1.0"
     inkscape:pageopacity="0.0"
     inkscape:pageshadow="2"
     inkscape:zoom="11.2"
     inkscape:cx="25.936235"
     inkscape:cy="15.458561"
     inkscape:document-units="px"
     inkscape:current-layer="layer1"
     showgrid="false"
     fit-margin-top="0"
     fit-margin-left="0"
     fit-margin-right="0"
     fit-margin-bottom="0"
     inkscape:window-width="1585"
     inkscape:window-height="1092"
     inkscape:window-x="2"
     inkscape:window-y="2"
     inkscape:window-maximized="0" />
  <metadata
     id="metadata4165">
    <rdf:RDF>
      <cc:Work
         rdf:about="">
        <dc:format>image/svg+xml</dc:format>
        <dc:type
           rdf:resource="http://purl.org/dc/dcmitype/StillImage" />
        <dc:title />
      </cc:Work>
    </rdf:RDF>
  </metadata>
  <g
     inkscape:label="Layer 1"
     inkscape:groupmode="layer"
     id="layer1"
     transform="translate(-91.528107,-104.27354)">
    <g
       id="g172"
       style="fill:none;stroke:#000000;stroke-width:0.30243167;stroke-miterlimit:4;stroke-opacity:1;stroke-dasharray:none"
       transform="matrix(0.34753057,0,0,0.31703046,-62.861792,99.817497)">
      <path
         style="fill:none;stroke:#000000;stroke-width:0.30243167;stroke-miterlimit:4;stroke-opacity:1;stroke-dasharray:none"
         inkscape:connector-curvature="0"
         id="path174"
         d="m 511.921,14.041 c 7.456,-0.03 6.397,7.142 6.397,14.512 0.033,1.45 0.064,2.901 0.098,4.352 2.681,-2.901 5.362,-5.804 8.046,-8.706 0.817,-1.01 1.746,-2.356 2.908,-2.998 2.761,-1.526 5.872,0.32 6.592,2.612 1.209,3.848 -4.316,7.582 -6.011,9.672 -3.877,4.288 -7.755,8.577 -11.633,12.866 0,3.062 0,6.126 0,9.189 1.934,-1.513 3.134,-4.343 5.524,-5.32 3.276,-1.338 5.98,1.38 6.205,4.159 0.2,2.45 -2.072,3.86 -3.198,5.126 -2.843,3.159 -5.688,6.32 -8.531,9.48 0.033,3.448 0.064,6.899 0.098,10.348 2.745,-1.61 5.49,-3.223 8.239,-4.835 0.324,-1.126 0.646,-2.255 0.97,-3.385 0.89,-2.817 3.633,-13.098 5.331,-14.413 2.947,-2.284 8.329,-0.159 7.37,4.354 -0.712,2.288 -1.424,4.578 -2.135,6.868 2.877,-1.645 5.756,-3.289 8.631,-4.934 -0.289,-1.239 1.472,-5.258 1.939,-6.578 1.646,-5.158 3.292,-10.319 4.945,-15.478 0.799,-2.523 1.97,-5.656 5.72,-4.739 1.746,0.428 3.082,1.818 3.489,3.579 0.466,2.04 -0.771,4.025 -1.264,5.418 -1.163,3.74 -2.327,7.48 -3.49,11.22 4.093,-2.136 16.233,-12.222 19.877,-4.159 3.733,8.264 -9.985,10.756 -13.571,14.316 0.063,0 0.128,0 0.191,0 4.248,1.905 12.546,1.501 15.995,3.965 1.807,1.291 2.179,4.965 0.488,6.676 -2.761,2.785 -9.294,0.209 -12.802,-0.677 -5.232,-1.097 -10.469,-2.192 -15.704,-3.29 -2.617,1.547 -5.234,3.095 -7.85,4.643 2.623,0.349 6.861,1.001 8.145,2.805 1.855,2.622 0.392,6.222 -2.137,7.061 -2.332,0.777 -12.19,-1.963 -14.929,-2.611 -0.938,-0.194 -1.876,-0.388 -2.812,-0.579 -2.973,1.708 -5.944,3.417 -8.919,5.125 0.064,0.033 0.13,0.064 0.198,0.098 2.611,1.547 5.23,3.093 7.85,4.642 1.228,-0.258 2.457,-0.516 3.684,-0.773 2.778,-0.705 13.758,-3.557 15.9,-2.322 2.289,1.32 3.088,5.609 0.675,7.447 -1.879,1.439 -5.805,1.787 -8.432,2.323 0.03,0.064 0.067,0.13 0.099,0.194 2.81,1.612 5.62,3.222 8.436,4.835 1.855,-1.19 5.146,-1.167 7.462,-1.74 5.753,-1.291 11.505,-2.58 17.257,-3.871 2.205,-0.409 4.039,1.252 4.655,2.516 0.956,1.969 0.012,4.415 -1.165,5.417 -1.72,1.465 -13.616,3.708 -16.774,4.16 0.033,0.065 0.064,0.129 0.101,0.195 1.84,1.064 3.683,2.129 5.524,3.192 3.906,2.317 12.875,5.812 7.271,12.575 -4.606,5.561 -14.528,-3.901 -18.611,-5.418 0,0.032 0,0.064 0,0.099 1.547,4.803 3.104,9.606 4.652,14.411 0.712,3.505 -2.983,6.446 -6.208,5.032 -3.243,-1.428 -4.813,-10.121 -6.008,-13.93 -1.291,-4.064 -2.586,-8.127 -3.878,-12.188 -2.714,-1.58 -5.431,-3.16 -8.145,-4.742 0.427,2.311 2.441,4.711 1.842,7.549 -0.636,2.994 -4.715,4.968 -7.466,2.609 -1.786,-1.532 -4.136,-11.093 -5.136,-14.026 -0.293,-0.968 -0.586,-1.935 -0.873,-2.901 -2.91,-1.645 -5.82,-3.289 -8.727,-4.934 0,2.449 0,4.902 0,7.352 3.49,3.772 6.98,7.546 10.47,11.318 0.785,0.99 1.625,2.709 1.068,4.451 -0.411,1.275 -1.363,2.145 -2.524,2.708 -4.405,2.133 -6.749,-3.379 -9.014,-5.128 0,3.063 0,6.126 0,9.189 3.878,4.29 7.756,8.579 11.633,12.866 1.681,2.08 7.235,5.841 6.011,9.672 -0.728,2.282 -3.829,4.149 -6.592,2.613 -1.162,-0.646 -2.091,-1.987 -2.908,-3 -2.715,-2.901 -5.429,-5.802 -8.144,-8.703 0,4.028 0,8.061 0,12.091 0,1.857 0.233,4.183 -0.29,5.609 -0.731,1.989 -2.534,3.453 -4.848,3.869 -4.406,0.796 -6.458,-2.715 -6.688,-6.384 0,-5.158 0,-10.317 0,-15.477 -0.031,0 -0.063,0 -0.099,0 -0.289,0.258 -0.582,0.519 -0.873,0.773 -3.359,3.677 -6.72,7.354 -10.081,11.029 -2.827,1.829 -6.342,0.002 -6.981,-2.71 -0.683,-2.895 1.386,-4.105 2.521,-5.513 3.684,-4.094 7.371,-8.188 11.055,-12.283 0.531,-0.664 4.41,-4.5 4.36,-4.74 0.343,-1.236 0.182,-9.292 -0.097,-9.674 -0.667,1.428 -4.814,5.707 -6.396,6.191 -3.036,0.931 -6.334,-1.558 -5.82,-4.74 0.415,-2.55 2.274,-3.501 3.587,-5.128 2.943,-3.286 5.884,-6.576 8.825,-9.865 -0.031,-2.192 -0.063,-4.387 -0.099,-6.576 -2.261,1.353 -4.523,2.708 -6.786,4.06 -2.001,3.98 -3.257,14.998 -6.397,17.025 -3.319,2.142 -6.769,-0.637 -6.981,-3.967 -0.108,-1.729 1.258,-4.799 1.94,-6.48 -0.031,-0.032 -0.063,-0.064 -0.095,-0.096 -2.652,1.515 -5.303,3.031 -7.953,4.546 -2.066,6.416 -4.136,12.833 -6.204,19.249 -1.043,3.264 -1.334,6.631 -4.941,7.352 -2.833,0.565 -5.741,-2.13 -5.045,-5.417 1.52,-4.804 3.038,-9.608 4.556,-14.414 -4.778,2.741 -9.565,5.483 -14.347,8.222 -3.325,1.36 -6.637,-0.775 -7.658,-2.999 -1.712,-3.721 0.741,-6.565 3.007,-7.931 4.425,-2.611 8.854,-5.223 13.279,-7.836 -2.945,-0.392 -15.175,-2.808 -16.674,-4.16 -1.355,-1.221 -2.206,-4.019 -0.874,-5.997 1.307,-1.932 3.898,-2.131 6.596,-1.451 5.297,1.193 10.599,2.387 15.896,3.579 2.105,0.522 4.888,0.518 6.594,1.549 2.845,-1.679 5.688,-3.353 8.531,-5.032 -2.876,-0.381 -7.806,-1.103 -9.21,-3.095 -1.59,-2.251 -0.569,-5.609 1.454,-6.673 2.339,-1.23 12.502,1.511 15.415,2.226 1.389,0.29 2.78,0.582 4.169,0.869 1.873,-1.097 3.749,-2.192 5.624,-3.287 -0.033,-0.065 -0.065,-0.129 -0.099,-0.193 -1.57,-0.552 -5.51,-3.894 -6.979,-3.678 -4.136,0.904 -8.274,1.807 -12.408,2.709 -1.641,0.387 -3.874,1.117 -5.527,0.194 -2.336,-1.302 -3.168,-5.554 -0.775,-7.449 1.657,-1.314 5.099,-1.648 7.466,-2.129 -2.619,-1.546 -5.236,-3.095 -7.854,-4.641 -5.493,1.158 -10.987,2.32 -16.481,3.481 -3.199,0.755 -8.713,3.013 -11.536,0.872 -2.102,-1.596 -1.952,-5.532 0.097,-7.062 1.171,-0.875 2.778,-0.938 4.458,-1.355 3.879,-0.869 7.757,-1.74 11.636,-2.61 -0.063,-0.098 -0.13,-0.194 -0.193,-0.292 -1.456,-0.838 -2.908,-1.676 -4.364,-2.515 -2.997,-1.781 -9.149,-4.162 -10.956,-6.867 -1.293,-1.943 -1.124,-5.201 0.196,-6.965 1.209,-1.622 4.302,-3.106 7.076,-1.934 4.847,2.803 9.695,5.61 14.541,8.415 0,-0.099 0,-0.194 0,-0.29 -1.16,-3.709 -2.327,-7.417 -3.49,-11.125 -0.52,-1.616 -1.615,-3.476 -1.163,-5.418 0.449,-1.922 2.017,-3.141 4.075,-3.482 3.967,-0.66 4.684,3.527 5.523,6.19 2.196,6.932 4.396,13.866 6.592,20.797 2.845,1.612 5.688,3.224 8.53,4.837 0,-0.032 0,-0.064 0,-0.097 -0.74,-2.386 -1.482,-4.771 -2.229,-7.158 -0.565,-3.617 3.795,-6.246 6.883,-4.354 2.711,1.658 4.754,11.702 6.015,15.286 0.288,0.999 0.581,1.998 0.87,2.996 2.068,1.193 4.138,2.389 6.204,3.582 0,-0.226 0,-0.455 0,-0.681 0,-2.933 0,-5.866 0,-8.802 0.177,-1.025 -2.096,-2.523 -2.713,-3.287 -2.392,-2.678 -4.784,-5.354 -7.175,-8.03 -0.983,-1.051 -2.804,-2.341 -2.426,-4.643 0.514,-3.103 3.897,-5.456 7.079,-3.385 1.712,1.869 3.426,3.741 5.138,5.61 0.156,-0.274 0.164,-0.371 0.097,-0.678 0.035,-3.062 0.067,-6.125 0.099,-9.188 -1.739,-0.936 -4.146,-4.215 -5.429,-5.805 -3.945,-4.255 -7.887,-8.51 -11.828,-12.767 -1.136,-1.498 -1.008,-4.188 0.097,-5.61 1.194,-1.542 4.167,-2.131 6.107,-0.871 3.65,3.934 7.304,7.868 10.954,11.801 0.035,0 0.067,0 0.099,0 -0.173,-3.057 -0.812,-14.361 1.261,-17.025 1.046,-1.347 2.402,-1.418 4.165,-2.129 z"
         clip-rule="evenodd" />
    </g>
  </g>
</svg>
