<?xml version="1.0" encoding="UTF-8" standalone="no"?>
<!-- Created with Inkscape (http://www.inkscape.org/) -->

<svg
   xmlns:dc="http://purl.org/dc/elements/1.1/"
   xmlns:cc="http://creativecommons.org/ns#"
   xmlns:rdf="http://www.w3.org/1999/02/22-rdf-syntax-ns#"
   xmlns:svg="http://www.w3.org/2000/svg"
   xmlns="http://www.w3.org/2000/svg"
   xmlns:sodipodi="http://sodipodi.sourceforge.net/DTD/sodipodi-0.dtd"
   xmlns:inkscape="http://www.inkscape.org/namespaces/inkscape"
   width="48"
   height="48"
   id="svg4160"
   version="1.1"
   inkscape:version="0.48.2 r9819"
   sodipodi:docname="Snowflake-19.svg">
  <defs
     id="defs4162" />
  <sodipodi:namedview
     id="base"
     pagecolor="#ffffff"
     bordercolor="#666666"
     borderopacity="1.0"
     inkscape:pageopacity="0.0"
     inkscape:pageshadow="2"
     inkscape:zoom="11.2"
     inkscape:cx="6.1785716"
     inkscape:cy="15.458561"
     inkscape:document-units="px"
     inkscape:current-layer="layer1"
     showgrid="false"
     fit-margin-top="0"
     fit-margin-left="0"
     fit-margin-right="0"
     fit-margin-bottom="0"
     inkscape:window-width="1600"
     inkscape:window-height="1181"
     inkscape:window-x="-4"
     inkscape:window-y="-4"
     inkscape:window-maximized="1" />
  <metadata
     id="metadata4165">
    <rdf:RDF>
      <cc:Work
         rdf:about="">
        <dc:format>image/svg+xml</dc:format>
        <dc:type
           rdf:resource="http://purl.org/dc/dcmitype/StillImage" />
        <dc:title />
      </cc:Work>
    </rdf:RDF>
  </metadata>
  <g
     inkscape:label="Layer 1"
     inkscape:groupmode="layer"
     id="layer1"
     transform="translate(-91.528107,-104.27354)">
    <g
       transform="matrix(0.66022319,0,0,0.66375322,-139.43069,-246.96716)"
       id="g248"
       style="fill:none;stroke:#000000;stroke-width:0.15106063;stroke-miterlimit:4;stroke-opacity:1;stroke-dasharray:none">
      <path
         style="fill:none;stroke:#000000;stroke-width:0.15106063;stroke-miterlimit:4;stroke-opacity:1;stroke-dasharray:none"
         inkscape:connector-curvature="0"
         id="path250"
         d="m 385.827,529.276 c 2.68,-0.043 5.13,2.333 4.014,5.199 -0.51,1.311 -1.388,1.776 -2.57,2.424 0.013,8.652 0.022,17.307 0.034,25.958 6.116,-6.088 12.23,-12.177 18.345,-18.265 0,-0.012 0,-0.023 0,-0.035 -0.212,-0.863 -0.734,-1.754 -0.423,-2.951 0.695,-2.656 3.94,-3.868 6.338,-2.002 2.171,1.688 1.446,5.265 -0.704,6.394 -0.739,0.387 -1.777,0.586 -2.747,0.351 -0.303,-0.105 -0.609,-0.21 -0.914,-0.315 -6.126,6.122 -12.254,12.248 -18.379,18.371 6.149,0 12.3,0 18.448,0 1.75,0 3.498,0 5.247,0 0.652,0 1.742,0.157 2.253,-0.07 0.207,-1.957 2.977,-3.523 5.176,-2.636 1.298,0.525 2.148,1.616 2.429,3.162 0.512,2.812 -2.486,4.903 -4.928,4.216 -1.315,-0.37 -2.157,-1.319 -2.643,-2.53 -8.647,0.012 -17.298,0.025 -25.948,0.037 6.079,6.064 12.16,12.131 18.239,18.195 3.982,-2.161 7.729,2.694 4.895,5.937 -2.808,3.208 -8.467,-0.153 -6.374,-4.356 -6.102,-6.089 -12.207,-12.178 -18.31,-18.267 -0.012,0 -0.021,0 -0.034,0 0,8.582 0,17.167 0,25.749 0.34,0.151 0.682,0.305 1.021,0.457 0.648,0.427 1.204,1.103 1.514,1.861 0.705,1.719 -0.156,3.637 -1.161,4.426 -2.777,2.184 -7.329,-0.217 -6.232,-4.074 0.269,-0.942 0.932,-1.788 1.691,-2.25 0.352,-0.162 0.703,-0.326 1.057,-0.49 0,-6.287 0,-12.576 0,-18.863 0,-1.651 0,-3.302 0,-4.954 0,-0.479 0.156,-1.537 -0.072,-1.861 -0.012,0 -0.023,0 -0.035,0 -6.078,6.089 -12.158,12.178 -18.237,18.267 1.812,4.608 -3.842,7.549 -6.373,4.356 -1.861,-2.348 -0.817,-5.454 1.725,-6.323 0.753,-0.258 1.77,-0.219 2.431,0.035 0.268,0.103 0.554,0.305 0.81,0.315 6.055,-6.054 12.112,-12.106 18.168,-18.159 0,-0.012 0,-0.025 0,-0.037 -8.65,0 -17.301,0 -25.95,0 -0.562,1.283 -1.36,2.141 -2.78,2.565 -2.323,0.692 -5.199,-1.585 -4.824,-3.97 0.381,-2.419 2.793,-4.842 5.667,-3.303 1.104,0.591 1.472,1.43 2.045,2.565 8.612,0 17.229,0 25.843,0 0,-0.012 0,-0.023 0,-0.035 -6.114,-6.111 -12.23,-12.226 -18.345,-18.336 -0.012,0 -0.023,0 -0.034,0 -0.353,0.117 -0.705,0.233 -1.057,0.351 -1.543,0.331 -2.911,-0.439 -3.626,-1.195 -1.449,-1.527 -1.192,-4.367 0.351,-5.584 2.314,-1.824 5.577,-0.677 6.304,1.896 0.393,1.396 -0.207,2.024 -0.388,3.092 6.103,6.088 12.205,12.177 18.308,18.265 0.025,-0.012 0.047,-0.022 0.072,-0.034 -0.014,-8.652 -0.025,-17.307 -0.035,-25.959 -2.013,-0.334 -3.53,-2.947 -2.536,-5.27 0.434,-1.014 1.366,-1.828 2.464,-2.178 0.254,-0.047 0.512,-0.095 0.77,-0.142 z"
         clip-rule="evenodd" />
    </g>
  </g>
</svg>
