<?xml version="1.0" encoding="UTF-8" standalone="no"?>
<!-- Created with Inkscape (http://www.inkscape.org/) -->

<svg
   xmlns:dc="http://purl.org/dc/elements/1.1/"
   xmlns:cc="http://creativecommons.org/ns#"
   xmlns:rdf="http://www.w3.org/1999/02/22-rdf-syntax-ns#"
   xmlns:svg="http://www.w3.org/2000/svg"
   xmlns="http://www.w3.org/2000/svg"
   xmlns:sodipodi="http://sodipodi.sourceforge.net/DTD/sodipodi-0.dtd"
   xmlns:inkscape="http://www.inkscape.org/namespaces/inkscape"
   width="48"
   height="48"
   id="svg4160"
   version="1.1"
   inkscape:version="0.48.2 r9819"
   sodipodi:docname="Snowflake-12.svg">
  <defs
     id="defs4162" />
  <sodipodi:namedview
     id="base"
     pagecolor="#ffffff"
     bordercolor="#666666"
     borderopacity="1.0"
     inkscape:pageopacity="0.0"
     inkscape:pageshadow="2"
     inkscape:zoom="11.2"
     inkscape:cx="37.571429"
     inkscape:cy="15.458561"
     inkscape:document-units="px"
     inkscape:current-layer="g198"
     showgrid="false"
     fit-margin-top="0"
     fit-margin-left="0"
     fit-margin-right="0"
     fit-margin-bottom="0"
     inkscape:window-width="1585"
     inkscape:window-height="1092"
     inkscape:window-x="2"
     inkscape:window-y="2"
     inkscape:window-maximized="0" />
  <metadata
     id="metadata4165">
    <rdf:RDF>
      <cc:Work
         rdf:about="">
        <dc:format>image/svg+xml</dc:format>
        <dc:type
           rdf:resource="http://purl.org/dc/dcmitype/StillImage" />
        <dc:title />
      </cc:Work>
    </rdf:RDF>
  </metadata>
  <g
     inkscape:label="Layer 1"
     inkscape:groupmode="layer"
     id="layer1"
     transform="translate(-91.528107,-104.27354)">
    <g
       id="g198"
       style="fill:none;stroke:#000000;stroke-width:0.28859234;stroke-miterlimit:4;stroke-opacity:1;stroke-dasharray:none"
       transform="matrix(0.29235908,0,0,0.26301072,21.763738,20.045528)">
      <g
         id="g10911"
         style="stroke-width:0.3606243;stroke-miterlimit:4;stroke-dasharray:none">
        <path
           style="fill:none;stroke:#000000;stroke-width:0.3606243;stroke-miterlimit:4;stroke-opacity:1;stroke-dasharray:none"
           inkscape:connector-curvature="0"
           id="path232"
           d="m 344.24621,384.16394 c -0.0287,-3.84436 -0.0585,-7.68984 -0.0837,-11.53085 -0.11006,-0.0268 -0.21668,-0.0537 -0.32904,-0.0805 -4.60992,2.53569 -9.22328,5.07138 -13.83435,7.60707 -0.51935,1.12747 -0.0825,3.21575 -0.0825,4.64522 0.0287,3.73699 0.055,7.47397 0.0825,11.20984 1.58097,-0.0917 3.17685,-1.55811 4.36687,-2.24376 3.23646,-1.76056 6.47636,-3.52335 9.71741,-5.2839 0.61221,-1.03911 0.0275,-2.90816 0.1628,-4.32309 z m -2.88221,2.482 c -2.77443,1.54804 -5.54543,3.09719 -8.31987,4.64522 -0.0275,0 -0.0539,0 -0.0802,0 -0.0264,-3.12179 -0.0573,-6.24694 -0.0837,-9.36986 2.74577,-1.54803 5.49155,-3.09719 8.23618,-4.64299 0.38636,0.52347 0.26598,7.99744 0.24763,9.36763 z"
           clip-rule="evenodd" />
        <path
           style="fill:none;stroke:#000000;stroke-width:0.3606243;stroke-miterlimit:4;stroke-opacity:1;stroke-dasharray:none"
           inkscape:connector-curvature="0"
           id="path234"
           d="m 311.96529,392.89177 c 0.21897,-1.63975 0.34508,-11.86081 0,-12.49166 -0.66495,-0.96417 -2.58298,-1.48092 -3.62511,-2.08157 -3.42907,-1.8959 -6.86272,-3.79179 -10.29293,-5.68545 -0.0837,0.0537 -0.1651,0.10626 -0.24879,0.15995 -0.0252,3.76383 -0.055,7.52654 -0.0837,11.29036 0,1.42724 -0.19031,3.35557 0.0837,4.40475 4.63973,2.56253 9.27832,5.12507 13.91805,7.68537 0.63972,-0.59058 0.1135,-2.29298 0.24878,-3.28175 z m -2.8031,-1.84109 c -0.0791,0.0537 -0.16394,0.10514 -0.24878,0.15995 -0.0791,0.0269 -0.1628,0.0537 -0.2442,0.0805 -2.63571,-1.52119 -5.27143,-3.0435 -7.906,-4.5658 -0.42763,-0.58164 -0.1433,-8.04554 -0.16394,-9.04885 0.0803,-0.0794 0.16394,-0.15995 0.24534,-0.24048 2.69304,1.46862 5.38035,2.93612 8.0688,4.40697 0.728,1.29078 0.18802,7.51536 0.24878,9.20768 z"
           clip-rule="evenodd" />
        <path
           style="fill:none;stroke:#000000;stroke-width:0.3606243;stroke-miterlimit:4;stroke-opacity:1;stroke-dasharray:none"
           inkscape:connector-curvature="0"
           id="path236"
           d="m 357.09346,405.54338 c -1.18315,-0.62861 -2.51649,-2.11401 -4.11809,-2.15987 -4.53197,2.61399 -9.06164,5.23021 -13.58787,7.84644 0,0.10738 0,0.21364 0,0.32101 4.66381,2.64419 9.33106,5.28502 13.99715,7.92809 4.52967,-2.58938 9.05934,-5.17876 13.59016,-7.76926 0.055,-0.15883 0.10777,-0.31877 0.16509,-0.47984 -3.34996,-1.89366 -6.69992,-3.79067 -10.04644,-5.68657 z m -3.62511,10.57116 c -1.78275,-0.29194 -6.76642,-3.5927 -8.40013,-4.64187 0,-0.0548 0,-0.1085 0,-0.16107 2.6896,-1.55027 5.38035,-3.09831 8.07109,-4.64522 2.40642,0.29081 5.80568,3.68665 8.31643,4.48527 0.0264,0.0514 0.055,0.10514 0.0837,0.15995 -1.15793,1.62745 -6.26542,3.27503 -8.07109,4.80294 z"
           clip-rule="evenodd" />
        <path
           style="fill:none;stroke:#000000;stroke-width:0.3606243;stroke-miterlimit:4;stroke-opacity:1;stroke-dasharray:none"
           inkscape:connector-curvature="0"
           id="path238"
           d="m 299.52847,409.62822 c -2.28833,-1.3165 -4.6982,-2.59944 -7.00029,-4.00207 -1.08455,-0.66328 -2.44196,-1.89925 -3.86931,-2.08157 -3.29493,1.9205 -6.58757,3.84212 -9.8802,5.76487 -1.02723,0.55031 -3.31557,1.27958 -3.7925,2.32205 4.55948,2.64195 9.11322,5.2839 13.6727,7.92809 1.10404,-0.0805 1.78733,-0.83666 2.55432,-1.28183 3.78447,-2.10842 7.57582,-4.21683 11.36258,-6.32636 0.0814,-0.13423 0.16624,-0.26733 0.24649,-0.40044 -0.87705,-0.86461 -2.18172,-1.28294 -3.29379,-1.92274 z m -2.55317,2.00328 c -2.69074,1.54691 -5.38263,3.09719 -8.07109,4.64299 -1.73345,-0.3076 -6.55202,-3.54125 -8.23388,-4.56581 0,-0.0515 0,-0.10515 0,-0.15883 1.12812,-1.40039 6.31241,-3.57145 8.15249,-4.72464 2.71826,1.52119 5.43537,3.0435 8.15134,4.56357 0.001,0.0839 0.001,0.16218 0.001,0.24272 z"
           clip-rule="evenodd" />
        <path
           style="fill:none;stroke:#000000;stroke-width:0.3606243;stroke-miterlimit:4;stroke-opacity:1;stroke-dasharray:none"
           inkscape:connector-curvature="0"
           id="path240"
           d="m 396.53632,447.18821 c -2.15191,-0.32437 -3.38435,1.14425 -4.93895,1.52008 -1.00316,-0.85679 -3.15048,-1.24045 -3.87046,-2.32206 -0.0585,-0.0548 -0.11006,-0.10738 -0.16509,-0.16107 1.46862,-1.18339 10.42592,-2.94171 7.40844,-6.32971 -2.2849,-2.5659 -9.43882,3.49985 -12.0218,3.76718 -0.88392,0.0917 -5.11781,-2.75828 -6.0923,-3.28622 0,-0.0515 0,-0.10514 0,-0.15995 3.6767,-1.68002 7.35685,-3.36116 11.03584,-5.04342 1.25996,-0.57939 3.62282,-1.30308 2.30554,-3.44281 -1.1843,-1.91938 -3.67556,-0.69348 -5.18774,0 -3.32016,1.46638 -6.64489,2.935 -9.9639,4.40362 -1.03182,0.43846 -2.01777,1.33105 -3.37862,1.36348 -1.26914,-0.79415 -3.18143,-5.31074 -3.62053,-6.96727 -2.33419,0.23936 -4.66839,0.48096 -7.00029,0.72032 0.0264,-2.32205 0.0573,-4.64634 0.0814,-6.96727 0.6936,-1.19906 4.06993,-2.65314 5.35168,-3.52223 4.8587,-3.09719 9.7197,-6.19326 14.57726,-9.28821 0.32903,-0.87692 -3.33277,-2.6386 -4.19834,-3.20345 -5.10749,-3.25826 -10.21383,-6.5154 -15.31673,-9.7703 -0.63629,-1.25162 -0.27401,-5.09151 -0.0837,-6.96727 1.55574,-0.66105 4.68673,0.44964 6.42477,0.48096 0.76698,-1.7874 1.53855,-3.57815 2.30553,-5.36555 0.65922,-0.39931 1.31499,-0.80198 1.9765,-1.20129 4.3107,1.92274 8.61795,3.84548 12.9275,5.76598 1.52709,0.6521 3.97135,1.88247 5.10749,-0.0805 0.52966,-0.91607 0.0642,-2.397 -0.57782,-2.88356 -1.23474,-0.45412 -2.46948,-0.90824 -3.70307,-1.36124 -2.88335,-1.30755 -5.76441,-2.6151 -8.64776,-3.92377 -0.0287,-0.0537 -0.0562,-0.10738 -0.0825,-0.16107 0.91143,-1.29301 4.42992,-2.39811 5.8481,-3.44505 2.70679,0.59505 10.02236,6.17312 12.02179,3.2851 0.54457,-0.78297 0.29579,-2.34219 -0.32903,-2.88131 -0.57438,-0.18904 -1.1522,-0.37359 -1.72772,-0.56262 -1.67727,-0.7729 -3.35225,-1.54468 -5.02265,-2.31982 0,-0.0805 0,-0.16106 0,-0.24048 1.36888,-0.74605 2.74349,-1.49435 4.11351,-2.24376 6.6082,3.61059 13.82288,-2.64307 9.47436,-8.96831 -1.64288,-2.38581 -6.07969,-3.61954 -9.14304,-1.68002 -2.27458,1.43618 -2.69877,3.47189 -2.96589,6.72567 -1.33678,0.67336 -2.72285,1.96301 -4.28089,2.24152 0.17656,-2.68892 2.0407,-9.90563 -1.64861,-9.44816 -3.26054,0.40603 -2.43853,8.75132 -3.045,12.17289 -1.97765,1.12075 -3.9553,2.24151 -5.92836,3.36451 -0.0287,0 -0.0573,0 -0.0837,0 -0.83921,-3.59829 3.35226,-14.70857 -0.41272,-15.5374 -1.25653,-0.27627 -2.52337,0.82883 -2.79737,1.52119 -0.49527,5.47294 -0.98596,10.94475 -1.48352,16.41768 -0.24764,0.42392 -0.58126,0.69572 -1.0708,0.87916 -2.43967,-0.26509 -4.88392,-0.53354 -7.33162,-0.79975 -0.87704,2.08269 -1.75294,4.16426 -2.63457,6.24695 -0.92405,0.12863 -5.39295,-2.7963 -6.33649,-3.44505 -0.4712,-7.81959 -0.93551,-15.64142 -1.40327,-23.46325 -0.0826,-0.0268 -0.1628,-0.0537 -0.24764,-0.0805 -7.02666,3.46966 -14.05447,6.94155 -21.07884,10.41121 -0.19604,0.0414 -5.95472,-3.22023 -6.17828,-3.52335 -0.0287,-0.028 -0.0562,-0.0537 -0.0837,-0.0805 0.16509,-1.1476 2.80539,-4.19782 3.62396,-5.04454 -0.20865,-0.95633 -2.85698,-4.09715 -3.62396,-4.72352 0,-0.74829 0,-1.49658 0,-2.24152 3.76039,-2.67103 7.52308,-5.33871 11.28462,-8.00974 1.16939,-0.7729 3.90256,-1.89925 2.79737,-4.24479 -0.33592,-0.71474 -1.82288,-1.64087 -2.96246,-1.04023 -0.79794,0.64092 -1.59244,1.28183 -2.38923,1.92274 -2.79736,1.94735 -5.60046,3.89917 -8.40127,5.84652 -0.11006,0 -0.21668,0 -0.32903,0 0,-2.24152 0,-4.48527 0,-6.72903 2.52795,-1.76056 5.05016,-3.52335 7.57582,-5.2839 0.85526,-0.55479 2.12554,-1.63528 1.31843,-3.20457 -1.61307,-3.13969 -7.2915,2.11401 -8.73031,3.12403 -0.41846,-0.54919 -0.39897,-3.92377 -0.0802,-4.64522 0.30611,-0.42951 0.96532,-0.5738 1.39983,-0.88028 0.91717,-0.65098 1.77931,-1.79411 2.22414,-2.88355 1.8114,-4.4383 -2.3342,-9.71884 -7.41188,-8.72783 -6.30898,1.23149 -7.65148,10.60471 -1.23703,12.41336 0.50903,1.07602 0.18687,3.4842 0.16509,4.88459 -0.055,0.0246 -0.10777,0.0514 -0.16509,0.0794 -2.11293,-1.49659 -4.22701,-2.98981 -6.34108,-4.48528 -2.38005,-0.0481 -4.03784,1.72141 -2.55202,3.6833 0.65692,0.40043 1.31613,0.80198 1.9765,1.20129 1.20378,0.78632 6.46031,4.06247 6.99914,4.96512 0.0264,2.21468 0.055,4.43159 0.0814,6.6485 -0.055,0.0268 -0.10776,0.0514 -0.16509,0.0783 -3.81542,-2.66768 -7.63085,-5.33871 -11.44627,-8.00751 -2.21726,-0.95857 -3.60791,1.68674 -2.63342,3.52447 4.71883,3.25602 9.44111,6.51315 14.16338,9.77029 0.0264,0.42616 0.055,0.85232 0.0814,1.28183 -1.45371,1.89366 -2.90972,3.78844 -4.36343,5.68433 1.45371,1.84109 2.90972,3.68553 4.36343,5.5255 0,0.0246 0,0.0514 0,0.0805 -2.02923,1.14536 -4.0642,2.2952 -6.09229,3.44281 -1.81715,-0.16107 -3.55977,-1.59837 -5.0238,-2.32205 -5.5718,-2.69564 -11.14475,-5.3924 -16.7177,-8.08804 -0.0241,0 -0.055,0 -0.0837,0 -0.70049,1.27288 -0.14904,3.64303 -0.40814,5.28614 -0.27515,4.0826 -0.55145,8.16857 -0.82431,12.25341 -0.26369,1.6666 0.37031,4.3175 -0.41043,5.6038 -0.33936,0.54696 -5.00431,3.05804 -5.84925,3.20233 -0.82545,-1.89254 -1.64747,-3.78844 -2.47062,-5.68433 -2.3342,-1.00443 -5.90314,1.63975 -8.56407,0 -0.4391,-4.21795 -0.87934,-8.4359 -1.31843,-12.65161 -0.41617,-2.50437 0.15362,-5.11053 -2.22185,-5.68657 -1.33104,-0.32325 -2.85698,0.98542 -2.71826,2.00104 0.3256,2.39364 0.57553,5.33535 0.98596,7.84979 0.16509,1.70686 0.32903,3.41597 0.49412,5.12283 -0.0275,0.34898 -0.0482,0.37247 -0.16509,0.56262 -1.89166,-1.04246 -3.7879,-2.08269 -5.68071,-3.12403 -1.79651,-2.70347 0.49412,-11.02976 -2.63572,-12.2523 -1.36314,-0.53354 -2.76297,0.52011 -3.04615,1.52007 0.24649,2.40371 0.49413,4.80517 0.74062,7.21 0,0.18567 0,0.37247 0,0.55814 -1.63715,-0.27627 -2.58298,-1.68002 -4.11695,-2.08157 -0.62138,-1.18563 -0.1754,-3.37682 -1.07079,-4.80405 -2.43279,-3.87233 -8.8289,-4.12735 -11.36487,-0.16107 -3.91173,6.12279 4.1284,13.20304 9.55231,8.72783 1.31843,0.67 2.63457,1.33664 3.953,2.00327 0.0814,0.13311 0.16509,0.26733 0.24879,0.40044 -1.53512,1.2986 -9.06278,2.46634 -7.16768,5.76486 0.30725,0.53242 1.66581,1.40375 2.7194,1.12076 3.01978,-1.41493 6.04071,-2.82762 9.05705,-4.24256 2.3491,0.25503 3.96332,2.44398 6.0923,3.12292 0.0298,0.0805 0.0573,0.16107 0.0848,0.24048 -0.45515,0.7248 -2.27458,1.09504 -3.1287,1.44178 -2.49699,1.1476 -4.99742,2.29744 -7.49442,3.44505 -1.37804,0.57156 -3.55403,1.30531 -2.38808,3.44281 1.05131,1.92498 3.47722,0.76171 4.9424,0.16107 4.227,-1.92274 8.45286,-3.84548 12.68216,-5.76599 3.25709,0.19798 3.94612,4.44054 5.10634,6.7268 2.31126,-0.10179 5.18659,-1.35118 6.75266,-0.24048 0,2.18894 0,4.37901 0,6.56684 -0.2935,0.90153 -4.21554,2.78512 -5.19004,3.44281 -4.96647,3.17773 -9.93638,6.35433 -14.904,9.53094 -0.0275,0.10626 -0.055,0.21363 -0.0802,0.31877 5.1029,3.31195 10.21039,6.62166 15.31673,9.93249 1.28174,0.83777 3.81198,1.70351 4.52738,3.04014 -0.0264,2.00439 -0.0562,4.00543 -0.0814,6.0087 -0.0252,0.0783 -0.055,0.15995 -0.0825,0.23825 -2.19662,-0.23825 -4.39209,-0.48097 -6.58986,-0.72033 -0.93093,2.16099 -1.86415,4.32309 -2.79507,6.48631 -0.33248,0.21364 -0.66151,0.42616 -0.99055,0.64203 -1.55345,-0.0749 -2.43967,-0.98765 -3.62282,-1.44177 -3.12754,-1.39032 -6.25738,-2.77953 -9.38837,-4.16426 -1.5718,-0.61407 -4.01835,-2.24376 -5.43537,-0.40267 -0.66266,0.86574 -0.42649,2.6084 0.41272,3.12515 2.36057,0.9597 4.72113,1.92274 7.0817,2.88355 1.63829,0.72816 3.66753,2.27955 5.60161,2.48089 0.0252,0.10849 0.055,0.21364 0.0803,0.32101 -1.94669,1.12076 -3.89682,2.24376 -5.84695,3.36452 -2.66094,-0.61854 -10.25281,-6.1172 -12.35198,-3.68441 -2.58298,2.99204 5.589,5.33311 7.24678,6.087 0.0825,0.0537 0.16509,0.10514 0.24534,0.16106 -0.321,0.39596 -3.55517,2.40371 -4.03325,2.482 -0.23044,0.0358 -2.98768,-1.36012 -4.03669,-1.52007 -3.79937,-0.5861 -7.81428,3.37682 -7.16424,7.12611 0.77157,4.46067 5.81027,7.74018 10.45917,4.72352 2.12898,-1.38249 2.45458,-3.34103 2.88221,-6.24695 1.18314,-0.72144 2.73087,-1.9809 4.20063,-2.24152 -0.19031,2.62518 -1.91803,9.27703 1.47894,8.97055 3.50817,-0.31766 2.65979,-8.30391 3.21353,-11.69527 1.48467,-0.94851 4.35655,-2.98645 6.09459,-3.36116 -0.36802,4.31191 -0.81514,8.83633 -1.39983,12.89097 -0.18573,1.28519 1.22901,2.58379 2.71826,2.24376 2.09115,-0.47761 1.65434,-2.36456 2.05675,-4.56357 0.44024,-4.35217 0.88048,-8.70323 1.31843,-13.05428 1.4434,-2.88019 5.59588,-0.54919 8.48153,-0.96081 1.3448,-1.47533 1.11092,-4.73135 2.96245,-5.68545 1.08685,0.15659 5.64633,2.85447 6.25968,3.60724 0.46891,7.73682 0.93208,15.47923 1.40098,23.22052 0.055,0.0537 0.11006,0.1085 0.16509,0.15995 2.03726,-0.25838 4.13414,-1.96189 5.84695,-2.80078 5.10634,-2.48424 10.21383,-4.96624 15.31673,-7.44712 2.21153,0.24831 3.67097,2.331 5.68186,2.96185 -0.21897,1.26169 -2.97048,4.41592 -3.86816,5.36331 1.4262,1.84109 2.8524,3.68442 4.28089,5.52662 0,0.50446 0,1.01562 0,1.52231 -0.66839,1.11741 -2.76183,1.9865 -3.87045,2.7236 -3.32016,2.29521 -6.6449,4.59042 -9.96505,6.88451 -0.32101,0.25614 -0.24305,0.53354 -0.41043,0.96081 -0.81857,2.09947 0.69131,3.00435 2.71711,2.96185 1.56148,-1.41158 3.41073,-2.47753 5.18774,-3.68218 2.08542,-1.4675 4.17312,-2.93947 6.25854,-4.40698 0.4047,0.54808 0.26712,5.98186 0.0825,6.8901 -2.99226,2.00104 -5.98453,4.00431 -8.97565,6.00535 -1.46861,1.90485 0.14102,3.72916 2.46948,3.6833 2.14044,-1.49435 4.28203,-2.99093 6.42363,-4.48528 0.58698,0.78409 0.19031,3.6352 0.16509,4.80406 -1.33105,0.73598 -2.54859,1.35229 -3.37633,2.56477 -2.91202,4.26045 0.33591,9.17971 4.44941,10.00966 8.17886,1.65205 10.30784,-9.79379 3.78791,-12.33395 -0.0287,-1.57264 -0.0562,-3.14752 -0.0837,-4.72576 0.055,-0.0235 0.11235,-0.0503 0.16509,-0.0783 1.4411,1.03128 7.10462,6.2436 8.73031,3.12404 0.32674,-0.63085 0.17311,-1.96189 -0.16509,-2.482 -2.90972,-1.97755 -5.82059,-3.95174 -8.73031,-5.92706 0,-0.0257 0,-0.0526 0,-0.0805 0,-2.24152 0,-4.48304 0,-6.72679 0.0837,0 0.16509,0 0.24878,0 3.67441,2.58826 7.3557,5.17987 11.03584,7.76814 2.24134,0.96975 3.70078,-1.86123 2.55432,-3.60388 -4.47464,-3.06811 -8.95272,-6.13958 -13.42507,-9.2088 -2.17369,-2.96856 2.60133,-5.93936 3.21124,-7.84979 -0.44024,-0.74494 -3.91746,-4.50653 -3.62396,-5.20337 2.05904,-1.1476 4.11923,-2.29521 6.17828,-3.44281 1.91574,0.17337 3.79593,1.7091 5.35283,2.48088 3.87045,1.87129 7.74091,3.73698 11.61136,5.60827 1.39181,0.69013 3.25481,2.20237 4.93896,2.31982 0.4689,-7.68537 0.93436,-15.37521 1.40097,-23.06058 1.14417,-0.84113 4.62827,-3.19227 6.25968,-3.20457 0.79794,1.78964 1.59359,3.57592 2.38923,5.36555 1.4755,0.81988 4.44025,-0.76283 6.0923,-0.56261 0.65921,0.34898 1.31499,0.69684 1.9765,1.04246 0.28203,0.53242 0.0699,1.1353 0.24878,2.00104 0.41273,3.76383 0.82431,7.52877 1.23359,11.2926 0.44139,2.24935 -0.16967,4.17545 2.06134,4.72464 1.52709,0.37582 2.98195,-1.03687 2.71597,-2.4037 -0.74635,-3.82759 -1.3276,-8.51644 -1.40098,-12.65161 1.79651,0.23712 4.52738,2.43166 6.09688,3.28286 0.61107,3.42604 -0.2889,11.40446 3.1287,11.69527 3.47951,0.29417 1.83204,-6.31853 1.56492,-8.80948 0.0802,-0.0537 0.16509,-0.10514 0.24534,-0.16107 1.1178,0.74158 3.2078,1.31762 3.95185,2.40259 0.0275,0.61407 0.055,1.22925 0.0803,1.84444 0.26598,1.21024 0.9229,2.63748 1.73345,3.36004 3.63313,3.25267 9.14876,2.19678 11.03354,-1.92274 2.17255,-4.76826 -1.7965,-8.45826 -5.77358,-9.05444 z M 287.50438,390.08875 c 1.61881,-0.90712 3.2399,-1.81648 4.85871,-2.72136 0.72915,-1.25499 0.22585,-3.49315 0.49298,-5.20673 0.33132,-5.14967 0.66151,-10.30159 0.99054,-15.45462 0.0837,-0.10514 0.16394,-0.21252 0.24764,-0.31878 6.39267,3.1218 12.79107,6.24583 19.18603,9.36874 2.02694,-0.33443 3.40385,-2.04801 5.18774,-2.72472 0.0275,0 0.0573,0 0.0825,0 0,8.19542 0,16.39307 0,24.58625 -0.74634,0.63644 -4.44941,-0.17785 -5.60046,0.23824 -0.59845,0.33892 -2.63457,3.92937 -2.88106,4.72576 -1.409,0.0749 -4.80482,-2.47081 -6.09459,-3.20345 -5.4904,-3.06922 -10.98081,-6.13957 -16.47121,-9.20879 0.001,-0.0257 0.001,-0.0526 0.001,-0.0805 z M 285.2,428.8478 c -0.0298,-0.0257 -0.0573,-0.0537 -0.0837,-0.0783 0.2293,-1.62857 0.44598,-3.81752 0,-5.36891 -0.67985,-1.29413 -3.28461,-2.15092 -4.52852,-2.96185 -3.10118,-2.02788 -6.20465,-4.05688 -9.30583,-6.08364 -1.1499,-0.77849 -3.10805,-1.43283 -3.8716,-2.56365 0.70508,-1.1051 4.01491,-2.67104 5.27143,-3.44282 4.17198,-2.66879 8.34624,-5.3387 12.51936,-8.00862 0.81055,-1.30084 -0.0172,-4.08372 0.41044,-5.76598 7.24449,4.00431 14.49356,8.00862 21.74264,12.01181 0.0264,0.0537 0.0527,0.10514 0.0791,0.16107 -0.87819,1.52231 -1.75409,3.0435 -2.63343,4.56581 0.18,1.29077 2.90972,4.20788 2.71712,5.04454 -7.32933,4.16537 -14.66095,8.32852 -21.98914,12.49166 -0.11006,-0.001 -0.21897,-0.001 -0.32788,-0.001 z m 28.57555,18.81802 c -1.77816,0.22818 -3.61135,1.66325 -5.10519,2.40259 -4.66839,2.26836 -9.33449,4.53673 -14.00059,6.80621 -0.15477,-0.11185 -0.13643,-0.0761 -0.24878,-0.23825 -0.43795,-6.9147 -0.87819,-13.82941 -1.31614,-20.73964 -0.44941,-0.78856 -3.9381,-2.58938 -4.94125,-2.96521 0,-0.10514 0,-0.2114 0,-0.32101 7.22042,-4.05688 14.43854,-8.11265 21.65895,-12.17065 0.67068,0.25503 2.55661,3.83877 2.96475,4.64523 1.92147,0.0268 3.84294,0.0515 5.76441,0.0783 0.0264,8.35537 0.055,16.71073 0.0814,25.06498 -0.27171,0.0783 -4.13643,-2.10618 -4.85756,-2.56254 z m 9.71741,-75.11326 c 1.6188,0.90824 3.23646,1.81648 4.8587,2.72248 2.03383,-0.25614 4.02179,-1.92833 5.76327,-2.72248 4.39095,-2.16211 8.78189,-4.32533 13.17628,-6.48632 0.0837,0 0.16509,0 0.24878,0 0.0252,0 0.0516,0 0.0803,0 0.80711,1.727 0.16051,5.2112 0.49528,7.36883 0.27515,4.53561 0.54915,9.07569 0.8243,13.61242 1.42391,1.04694 3.32016,2.3791 5.1029,2.96185 0.0264,0.0548 0.0585,0.10849 0.0837,0.16106 0,0.0548 0,0.1085 0,0.15995 -7.32818,4.08373 -14.6598,8.17081 -21.98798,12.25342 -0.96303,-1.57488 -1.92147,-3.15088 -2.88221,-4.72576 -1.92605,-0.0246 -3.84294,-0.0537 -5.76441,-0.0805 -0.0287,-8.38109 -0.0562,-16.7633 -0.0837,-25.14327 0.0298,-0.028 0.0562,-0.0548 0.0848,-0.0816 z m 26.10493,63.1831 c -0.43795,6.85878 -0.87933,13.72092 -1.31614,20.5797 -0.32559,0.36352 -4.01147,-1.53909 -4.7796,-1.92274 -4.88507,-2.40147 -9.77014,-4.80518 -14.65636,-7.20441 -2.03038,0.34563 -3.50129,2.06927 -5.27143,2.80078 -0.0252,0 -0.0527,0 -0.0803,0 0,-8.22226 0,-16.44452 0,-24.66566 0.74864,-0.63867 4.44598,0.17673 5.60046,-0.23936 0.61336,-0.34786 2.49356,-3.70455 2.79737,-4.48528 2.137,0.41498 4.34394,2.32429 6.09459,3.36452 5.3792,2.98645 10.76069,5.9785 16.14103,8.9672 0.0264,0.0548 0.055,0.10849 0.0802,0.16106 -1.53396,0.8814 -3.07137,1.76279 -4.60992,2.64419 z m 7.32818,-13.13369 c -0.75895,1.21359 -0.35769,4.44612 -0.32903,6.24583 -0.0241,0.0246 -0.0527,0.0559 -0.0791,0.0805 -5.24391,-2.9652 -10.48783,-5.92705 -15.73174,-8.8889 -1.60505,-0.85343 -5.33907,-2.32317 -6.33994,-3.605 0.93437,-1.6006 1.86644,-3.20233 2.80196,-4.80405 -0.11924,-0.90712 -2.09917,-4.18439 -2.71826,-4.72464 0,-0.10738 0,-0.21587 0,-0.32102 7.40843,-4.16426 14.82374,-8.32852 22.23218,-12.49277 0.39897,0.4474 0.18458,4.26268 0.16509,5.44608 2.11522,2.03124 5.23016,3.35221 7.74435,4.96624 3.34652,2.16099 6.69648,4.32309 10.04644,6.48631 0,0.0783 0,0.16107 0,0.23825 -5.93294,3.79291 -11.86014,7.58135 -17.79194,11.37314 z"
           clip-rule="evenodd" />
        <path
           style="fill:none;stroke:#000000;stroke-width:0.3606243;stroke-miterlimit:4;stroke-opacity:1;stroke-dasharray:none"
           inkscape:connector-curvature="0"
           id="path242"
           d="m 344.4113,438.37649 c 0,-1.3165 0.39438,-3.05916 -0.0837,-3.84324 -0.71654,-0.99101 -2.69533,-1.53126 -3.78677,-2.16211 -3.40499,-1.86905 -6.80883,-3.73698 -10.21382,-5.60603 -0.54228,1.16662 0.0459,2.82091 -0.16509,4.16426 -0.0264,3.89693 -0.0527,7.79498 -0.0791,11.69192 4.66381,2.56253 9.33105,5.12507 13.99944,7.68984 0.53426,-0.5011 0.12038,-1.8959 0.24535,-2.96521 0.0252,-2.98869 0.055,-5.98074 0.0837,-8.96943 z m -2.88221,6.96728 c -0.0573,0.0268 -0.11006,0.0514 -0.16509,0.0816 -0.85182,-0.1085 -7.77301,-3.98641 -8.31987,-4.56693 -0.23617,-1.21024 -0.20865,-8.48735 0.1628,-9.20879 2.77673,1.52342 5.54773,3.0435 8.32216,4.56692 0,3.04015 0,6.08365 0,9.12715 z"
           clip-rule="evenodd" />
        <path
           style="fill:none;stroke:#000000;stroke-width:0.3606243;stroke-miterlimit:4;stroke-opacity:1;stroke-dasharray:none"
           inkscape:connector-curvature="0"
           id="path244"
           d="m 312.21063,438.85746 c -0.0252,-3.89694 -0.055,-7.79387 -0.0825,-11.68968 -0.17885,-0.25838 -0.14102,-0.21923 -0.57553,-0.24272 -0.86901,0.89482 -2.33763,1.27735 -3.46002,1.92274 -3.40499,1.94846 -6.80769,3.89581 -10.20924,5.8454 0,5.15191 0,10.30383 0,15.45686 0.16509,0.0783 0.32904,0.15995 0.49298,0.23825 4.55604,-2.56142 9.11437,-5.12396 13.67041,-7.68649 0.61335,-0.69125 0.16509,-2.77841 0.16394,-3.84436 z m -3.04844,2.32205 c -2.63342,1.46638 -5.27143,2.93836 -7.90485,4.40698 -0.11236,0 -0.21898,0 -0.32904,0 -0.24305,-1.0145 -0.4196,-8.4963 0,-9.29157 0.74864,-1.24939 6.32389,-3.2974 7.82231,-4.56357 0.1628,0.0514 0.33133,0.10626 0.49527,0.15995 -0.0264,3.09607 -0.055,6.19102 -0.0837,9.28821 z"
           clip-rule="evenodd" />
      </g>
    </g>
  </g>
</svg>
