<?xml version="1.0" encoding="UTF-8" standalone="no"?>
<!-- Created with Inkscape (http://www.inkscape.org/) -->

<svg
   xmlns:dc="http://purl.org/dc/elements/1.1/"
   xmlns:cc="http://creativecommons.org/ns#"
   xmlns:rdf="http://www.w3.org/1999/02/22-rdf-syntax-ns#"
   xmlns:svg="http://www.w3.org/2000/svg"
   xmlns="http://www.w3.org/2000/svg"
   xmlns:sodipodi="http://sodipodi.sourceforge.net/DTD/sodipodi-0.dtd"
   xmlns:inkscape="http://www.inkscape.org/namespaces/inkscape"
   width="48"
   height="48"
   id="svg4160"
   version="1.1"
   inkscape:version="0.48.2 r9819"
   sodipodi:docname="Snowflake-15.svg">
  <defs
     id="defs4162" />
  <sodipodi:namedview
     id="base"
     pagecolor="#ffffff"
     bordercolor="#666666"
     borderopacity="1.0"
     inkscape:pageopacity="0.0"
     inkscape:pageshadow="2"
     inkscape:zoom="11.2"
     inkscape:cx="32.279692"
     inkscape:cy="15.458561"
     inkscape:document-units="px"
     inkscape:current-layer="g198"
     showgrid="false"
     fit-margin-top="0"
     fit-margin-left="0"
     fit-margin-right="0"
     fit-margin-bottom="0"
     inkscape:window-width="1585"
     inkscape:window-height="1092"
     inkscape:window-x="2"
     inkscape:window-y="2"
     inkscape:window-maximized="0" />
  <metadata
     id="metadata4165">
    <rdf:RDF>
      <cc:Work
         rdf:about="">
        <dc:format>image/svg+xml</dc:format>
        <dc:type
           rdf:resource="http://purl.org/dc/dcmitype/StillImage" />
        <dc:title />
      </cc:Work>
    </rdf:RDF>
  </metadata>
  <g
     inkscape:label="Layer 1"
     inkscape:groupmode="layer"
     id="layer1"
     transform="translate(-91.528107,-104.27354)">
    <g
       id="g198"
       style="fill:none;stroke:#000000;stroke-width:0.28859234;stroke-miterlimit:4;stroke-opacity:1;stroke-dasharray:none"
       transform="matrix(0.29235908,0,0,0.26301072,21.763738,20.045528)">
      <path
         style="fill:none;stroke:#000000;stroke-width:0.3606243;stroke-miterlimit:4;stroke-opacity:1;stroke-dasharray:none"
         inkscape:connector-curvature="0"
         id="path252"
         d="m 397.32754,410.33152 c -1.60568,0.0362 -3.21135,0.0726 -4.81533,0.10658 0,-0.0362 0,-0.0726 0,-0.10658 1.32213,-2.152 2.64424,-4.3061 3.96971,-6.45809 -0.50838,-0.32418 -1.01339,-0.64622 -1.52011,-0.96829 -1.46474,2.43777 -2.93115,4.8777 -4.39588,7.31973 -0.60736,0.36683 -1.90097,0.2453 -2.78518,0.21533 1.7164,-3.0499 3.4345,-6.09765 5.15259,-9.14965 -0.5067,-0.32207 -1.01341,-0.64625 -1.51842,-0.96828 -2.03016,3.30153 -4.05865,6.6031 -6.08714,9.90464 -0.57549,0.66543 -3.2516,0.24962 -4.22474,0.21533 0,-0.0362 0,-0.0726 0,-0.10659 2.33721,-4.05443 4.67607,-8.10885 7.01329,-12.16328 0.0588,-0.0726 0.11244,-0.14273 0.17122,-0.21533 -0.5067,-0.35831 -1.01339,-0.71662 -1.52009,-1.07493 -2.70296,4.44684 -5.41098,8.89798 -8.11226,13.34696 -0.45804,0.52041 -5.19118,0.24314 -6.25491,0.21533 3.2969,-5.63055 6.59383,-11.2675 9.88739,-16.90019 -0.53521,-0.35831 -1.06877,-0.71663 -1.60399,-1.07707 -3.5486,5.92062 -7.09887,11.84335 -10.64913,17.76184 -1.5587,0.90217 -6.8371,0.23881 -8.95619,0.21533 0,-0.0362 0,-0.0726 0,-0.10658 4.44957,-7.57139 8.89915,-15.14278 13.35041,-22.71205 -0.56376,-0.32417 -1.12749,-0.64834 -1.68957,-0.97042 -4.7046,7.8572 -9.40922,15.71649 -14.11382,23.57369 -1.43286,0.819 -5.91599,0.21533 -7.85721,0.21533 -6.28009,0 -12.56184,0 -18.84359,0 0,-0.17919 0,-0.35831 0,-0.53747 7.51998,-0.97042 15.04165,-1.9387 22.56163,-2.90698 6.53677,-11.58955 13.07022,-23.18127 19.60364,-34.76869 -11.15246,1.39911 -22.30829,2.79825 -33.46075,4.19735 -4.3657,7.78465 -8.73138,15.57357 -13.09705,23.35826 -0.0554,0.0362 -0.11066,0.0726 -0.16944,0.10874 -0.0838,-0.0726 -0.17122,-0.14304 -0.25325,-0.21533 0.1679,-2.06027 2.86572,-6.59671 3.80193,-8.61218 3.10061,-6.85264 6.19788,-13.70741 9.29681,-20.56005 0.5889,-0.77208 3.91601,-0.75502 4.81533,-0.97041 6.0821,-1.0408 12.16922,-2.08159 18.25133,-3.12242 0.23485,-0.31352 0.17454,-1.3543 0.25325,-1.82992 0,-0.28578 0,-0.57584 0,-0.86165 -7.29514,1.21996 -14.5903,2.44204 -21.88378,3.65986 1.40769,-3.1949 2.81538,-6.38768 4.22476,-9.58261 5.85893,-1.00239 11.71619,-2.00908 17.57681,-3.0136 0.0286,-0.78913 0.0554,-1.57826 0.0838,-2.36739 -5.40592,0.82537 -10.81522,1.65077 -16.22449,2.47614 1.01338,-2.29699 2.02846,-4.59186 3.04188,-6.88888 4.3925,-0.71662 8.78841,-1.43537 13.18092,-2.15199 0.0302,-0.79127 0.057,-1.57826 0.0856,-2.36952 -3.99991,0.60997 -8.00152,1.21994 -11.9981,1.83205 0.67282,-1.54412 1.35234,-3.08825 2.02515,-4.63026 3.2667,-0.53747 6.53677,-1.07707 9.80516,-1.61453 0,-0.75286 0,-1.50786 0,-2.26288 -2.82039,0.35831 -5.63243,0.71876 -8.4495,1.07707 0.42114,-0.97042 0.84395,-1.93871 1.26678,-2.90699 2.36404,-0.39458 4.73311,-0.78913 7.09716,-1.18372 0.26174,-0.33909 0.20623,-1.79791 0.25326,-2.04531 -0.0286,-0.0727 -0.0554,-0.14521 -0.0856,-0.21534 -2.05533,0.39458 -4.11232,0.78913 -6.16932,1.18372 0.70636,-1.6508 1.40937,-3.30157 2.11405,-4.95234 0.66105,-0.34552 1.62077,-0.13223 2.28014,-0.64625 1.66105,-1.29245 1.55704,-4.92033 -0.0856,-6.13601 -3.06872,-2.27567 -4.99821,2.79608 -3.38081,5.59855 -0.72985,1.68703 -1.46305,3.37195 -2.19793,5.05898 -0.0536,0.0362 -0.10912,0.0726 -0.16789,0.10659 -0.78858,-2.51244 -1.57716,-5.02271 -2.36739,-7.53729 -0.47315,0.0321 -0.89428,0.68678 -1.43456,0.97042 -0.23332,2.27143 2.41104,6.39198 2.70297,9.04087 -0.39428,0.86167 -0.78856,1.72331 -1.18454,2.58282 0,0.0726 0,0.14489 0,0.21533 -1.20969,-3.40822 -2.41774,-6.8164 -3.62911,-10.22671 -0.50838,0.43295 -1.01508,0.86163 -1.5218,1.29245 1.26844,3.80277 2.53519,7.60767 3.80028,11.4104 -0.18119,1.46525 -1.29192,3.78571 -2.02515,4.73694 -0.0302,0.0726 -0.057,0.14304 -0.0871,0.21533 -1.60567,-4.77105 -3.20965,-9.54419 -4.81365,-14.31738 -0.45302,0.36045 -0.90268,0.71876 -1.35399,1.07493 -0.26343,1.00239 0.82882,3.11386 1.18116,4.19945 1.26676,3.90938 2.53519,7.82092 3.80532,11.73244 -0.98656,2.2245 -1.97146,4.449 -2.95632,6.6735 -0.0588,0.0362 -0.11399,0.0726 -0.17123,0.10876 -2.14089,-6.42395 -4.28346,-12.84791 -6.421,-19.26969 -0.0588,-0.0362 -0.11398,-0.0726 -0.17122,-0.10875 -0.47819,0.43082 -0.95636,0.86164 -1.43453,1.29032 2.25162,6.92515 4.50661,13.85243 6.75824,20.77548 -1.4077,3.22902 -2.81705,6.45805 -4.22474,9.68708 -0.0554,0.0362 -0.11245,0.0704 -0.16943,0.10658 -2.87411,-8.64628 -5.74485,-17.29474 -8.62065,-25.94319 -0.40769,-0.0309 -1.2164,0.70809 -1.52008,1.18371 -0.2735,0.53533 1.76672,5.96752 2.11068,6.99765 2.22647,6.96142 4.45294,13.92284 6.67604,20.88425 -4.33548,9.61457 -8.67433,19.23345 -13.01148,28.84806 -0.0554,0.0361 -0.11399,0.0704 -0.17123,0.10875 -0.11244,-0.0383 -0.22489,-0.0726 -0.33724,-0.10875 3.09727,-8.75297 6.19788,-17.51017 9.29346,-26.26528 -4.58885,-12.95238 -9.18103,-25.90906 -13.77323,-38.86147 0,-0.0704 0,-0.14273 0,-0.21317 -4.61904,12.91614 -9.23974,25.83442 -13.85877,38.75056 0.31541,3.14587 2.18619,6.30664 3.12575,9.043 2.0285,5.77558 4.0553,11.55332 6.0838,17.33102 -0.0286,0.0704 -0.0536,0.14273 -0.0838,0.21534 -0.11066,0.0361 -0.22489,0.0704 -0.33724,0.10875 -4.42105,-9.72336 -8.84379,-19.44885 -13.26485,-29.17224 2.98316,-9.18589 5.97137,-18.37394 8.95619,-27.5577 -0.59395,-0.43081 -1.18285,-0.86167 -1.77513,-1.29248 -2.79021,8.61218 -5.57705,17.22436 -8.3656,25.83442 -0.0554,0.0362 -0.11066,0.0704 -0.1679,0.10658 -1.4379,-3.15652 -2.87411,-6.31517 -4.30863,-9.47382 2.2231,-6.99552 4.44957,-13.99321 6.67267,-20.98873 -0.47649,-0.35831 -0.95469,-0.71663 -1.43286,-1.07494 -2.14258,6.31304 -4.28346,12.63035 -6.42436,18.94552 -0.0521,0.0361 -0.10912,0.0726 -0.1679,0.10875 -1.01339,-2.22448 -2.02846,-4.44898 -3.04019,-6.67348 1.68955,-5.20188 3.3808,-10.40584 5.06869,-15.60771 -0.50839,-0.46709 -1.01342,-0.93418 -1.5218,-1.3991 -1.57547,4.6985 -3.15428,9.40131 -4.72977,14.09982 -0.70636,-1.46948 -1.40935,-2.9411 -2.11405,-4.41274 1.23823,-3.91151 2.47814,-7.82092 3.71807,-11.73243 -0.53356,-0.35832 -1.07047,-0.71876 -1.60402,-1.07707 -1.09895,3.22903 -2.19793,6.45809 -3.29691,9.68711 -0.057,0.0362 -0.11244,0.0726 -0.16943,0.10875 -0.42282,-0.93418 -0.84395,-1.86619 -1.26844,-2.79821 0.9312,-2.90485 1.85903,-5.81184 2.78855,-8.71669 -0.47817,-0.35831 -0.95804,-0.71876 -1.43455,-1.07707 -0.76172,2.4399 -1.52177,4.87983 -2.28183,7.31973 -0.0554,0.0362 -0.11065,0.0726 -0.16943,0.10658 -0.76006,-1.7233 -1.52177,-3.44445 -2.28014,-5.16562 1.67947,-2.91979 -0.57887,-7.80385 -3.55027,-5.381 -2.60902,2.12638 -1.02852,6.75878 2.28183,6.45806 0.76005,1.75741 1.52011,3.51696 2.28183,5.27437 -2.13923,-0.39668 -4.28181,-0.78912 -6.42269,-1.18367 0.0286,0.71658 0.0554,1.43534 0.0856,2.15196 2.47983,0.43082 4.95796,0.86164 7.4361,1.29032 0.4228,0.93418 0.84562,1.8662 1.26676,2.79825 0,0.0362 0,0.0704 0,0.10658 -2.90095,-0.39455 -5.80192,-0.78913 -8.70286,-1.18367 -0.0302,0.0362 -0.057,0.0726 -0.0856,0.10658 0.0286,0.68248 0.0554,1.36283 0.0856,2.04532 3.32042,0.57373 6.64753,1.14744 9.96961,1.7233 0.70301,1.50575 1.40937,3.0136 2.11236,4.52149 0,0.0343 0,0.0683 0,0.10658 -3.99654,-0.5737 -7.99983,-1.14744 -11.99976,-1.72114 -0.19626,0.32417 -0.19626,1.62945 0,2.15197 0.61243,0.70809 2.354,0.42868 3.29693,0.64624 3.26839,0.5737 6.53678,1.14957 9.80516,1.72327 0.63256,0.46496 2.76003,5.3725 3.04023,6.4581 0.0554,0.0704 0.11397,0.14303 0.17122,0.21532 -5.46297,-0.78912 -10.93099,-1.57826 -16.39396,-2.36952 -0.0302,0.0362 -0.057,0.0727 -0.0856,0.10875 0.0554,0.75499 0.11244,1.50575 0.1679,2.26075 5.86061,0.96828 11.72122,1.93869 17.5785,2.90485 1.46307,3.22903 2.92949,6.46022 4.39422,9.68925 0,0.0362 0,0.0704 0,0.10658 -7.35052,-1.1837 -14.70441,-2.36739 -22.05493,-3.55109 -0.0302,0.0726 -0.057,0.14303 -0.0856,0.21532 0.0554,0.75286 0.11245,1.50789 0.16791,2.26075 7.74648,1.29032 15.49633,2.58281 23.24115,3.87527 4.39254,9.61461 8.78505,19.23345 13.17926,28.84806 0,0.14273 0,0.28793 0,0.43295 -0.0838,0.034 -0.17122,0.0704 -0.25325,0.10659 -4.33548,-7.71431 -8.67431,-15.42859 -13.01316,-23.14287 -2.05701,-1.28606 -6.47472,-0.74859 -9.04009,-1.29032 -8.19951,-1.04079 -16.39398,-2.08162 -24.59011,-3.12242 6.53676,11.58956 13.07188,23.18127 19.60529,34.76869 7.49316,0.93414 14.9863,1.86616 22.47607,2.79821 0,0.21533 0,0.43081 0,0.64621 -8.81525,0.0362 -17.6305,0.0726 -26.44744,0.10874 -4.73145,-7.85929 -9.46625,-15.71861 -14.19603,-23.5758 -0.6208,0.43297 -1.23991,0.86167 -1.86072,1.29248 4.36736,7.28346 8.73473,14.56905 13.09874,21.85251 0.0856,0.10874 0.17123,0.21533 0.25326,0.32204 0,0.0362 0,0.0726 0,0.10874 -2.9278,0 -5.85895,0 -8.78506,0 -3.52175,-5.84808 -7.0435,-11.70045 -10.56356,-17.54854 -0.15435,-0.21749 0.002,-0.0809 -0.25325,-0.21533 -0.47818,0.35831 -0.95636,0.71662 -1.43453,1.07707 3.1241,5.38102 6.25323,10.76417 9.37901,16.14517 0.11066,0.14303 0.22643,0.28793 0.33892,0.43082 0,0.0362 0,0.0726 0,0.10875 -2.03184,0 -4.06033,0 -6.08545,0 -2.67613,-4.44898 -5.35057,-8.90012 -8.03005,-13.3491 -0.59059,0.35831 -1.1795,0.71662 -1.77176,1.07707 2.31035,3.94564 4.61903,7.89342 6.9277,11.83908 0.0856,0.10874 0.17122,0.21533 0.25326,0.32203 0,0.0362 0,0.0727 0,0.10876 -1.35234,0 -2.70297,0 -4.0553,0 -1.97312,-3.26531 -3.94455,-6.53061 -5.91431,-9.79587 -0.0872,-0.0726 -0.16943,-0.14304 -0.25326,-0.21534 -0.39427,0.35831 -0.79024,0.71876 -1.18285,1.07707 -0.057,0 -0.11245,0 -0.16944,0 1.54864,2.83448 3.09893,5.67106 4.64925,8.5034 0.0856,0.10875 0.16944,0.21534 0.25172,0.32205 0,0.0362 0,0.0726 0,0.10874 -0.87413,0 -1.7483,0 -2.61909,0 -1.40935,-2.40363 -2.82041,-4.80942 -4.22811,-7.21308 -0.10912,-0.0362 -0.22489,-0.0726 -0.33889,-0.10658 -0.44965,0.28794 -0.89764,0.57586 -1.34899,0.86167 -0.0302,0.0704 -0.0554,0.14273 -0.0856,0.21317 1.18287,1.90247 2.36573,3.8049 3.54691,5.70519 0.11245,0.14304 0.22643,0.28794 0.33893,0.43082 0,0.0362 0,0.0727 0,0.10876 -1.55032,0 -3.09727,0 -4.64924,0 -1.1812,-3.86675 -6.20961,-2.74915 -5.40762,1.72117 0.60233,3.34846 4.7348,3.74941 5.40762,0.21533 1.57883,0 3.1543,0 4.73145,0 0,0.0383 0,0.0726 0,0.10875 -1.32382,2.1861 -2.64592,4.37647 -3.96974,6.5647 0.56042,0.28794 1.12584,0.578 1.68957,0.86164 1.40938,-2.43776 2.81707,-4.87979 4.22642,-7.31969 0.61074,-0.36471 1.90266,-0.2453 2.78855,-0.21534 0,0.0383 0,0.0726 0,0.10875 -1.63419,2.90273 -3.26672,5.81184 -4.90091,8.7167 -0.0554,0.14489 -0.11398,0.28794 -0.17123,0.43082 0.53525,0.28794 1.07046,0.5737 1.60402,0.86164 1.88921,-3.22903 3.77507,-6.46022 5.66263,-9.68925 0.86575,-0.73794 3.06875,-0.47135 4.48147,-0.43082 0,0.0383 0,0.0726 0,0.10874 -2.31204,4.01817 -4.62241,8.03633 -6.92941,12.05452 -0.0856,0.10658 -0.17276,0.21533 -0.25671,0.32204 0.5369,0.35831 1.07214,0.71875 1.60736,1.07493 2.62075,-4.41274 5.23815,-8.82761 7.8589,-13.23822 1.25165,-0.93414 4.65593,-0.35831 6.42103,-0.32417 0,0.0383 0,0.0726 0,0.10874 -3.29693,5.59643 -6.59049,11.19498 -9.88574,16.79142 0.53355,0.36045 1.07046,0.71876 1.60402,1.07707 3.60562,-5.99313 7.21294,-11.98413 10.81522,-17.97726 2.92946,0 5.85893,0 8.79008,0 0,0.0383 0,0.0726 0,0.10874 -4.45124,7.533 -8.90585,15.07024 -13.35207,22.60327 0.56373,0.35831 1.12749,0.71872 1.68957,1.07703 4.76163,-7.85929 9.5233,-15.71649 14.28159,-23.57578 0.52514,-0.58013 5.66767,-0.21533 6.84382,-0.21533 6.53342,0 13.07188,0 19.60364,0 0,0.17919 0,0.35831 0,0.53746 -7.46294,0.93415 -14.92757,1.86833 -22.39219,2.80034 -4.58883,8.14297 -9.18269,16.29023 -13.77489,24.43533 -1.29359,2.29701 -2.58886,4.59402 -3.88416,6.8889 -0.59729,1.06425 -1.65934,2.17758 -1.94625,3.5532 11.12728,-1.43747 22.25625,-2.87071 33.38188,-4.30822 4.36233,-7.78465 8.72969,-15.57147 13.09539,-23.36039 0.1679,0.14489 0.33723,0.28793 0.50669,0.43295 -4.41936,9.72123 -8.84379,19.44888 -13.26485,29.17224 -7.68775,1.25621 -15.37887,2.51243 -23.06832,3.76649 -0.0286,0.0726 -0.057,0.14303 -0.0856,0.21533 0,0.8595 0,1.72328 0,2.58494 7.29516,-1.21997 14.59201,-2.44206 21.88715,-3.65987 -1.41104,3.15652 -2.81705,6.31517 -4.22642,9.47169 -1.29192,0.86167 -3.36067,0.59505 -4.98648,0.96828 -4.22642,0.71876 -8.45118,1.43751 -12.67592,2.15414 -0.0268,0.75499 -0.0554,1.50574 -0.0856,2.26074 5.40928,-0.78701 10.81857,-1.57827 16.22618,-2.36526 -0.95804,2.22237 -1.91776,4.44901 -2.87579,6.67348 -4.41937,0.78913 -8.84377,1.57826 -13.26483,2.36953 -0.0554,0.68038 -0.11066,1.36286 -0.17123,2.04321 0,0.11091 0,0.21749 0,0.32204 4.00161,-0.60571 8.00488,-1.21782 11.99977,-1.82779 0,0.0361 0,0.0726 0,0.10875 -0.64595,1.47161 -1.29359,2.94112 -1.94291,4.4106 -3.29525,0.57584 -6.59383,1.14957 -9.8874,1.72541 0,0.71662 0,1.43324 0,2.152 2.81874,-0.32207 5.63581,-0.64412 8.4495,-0.96828 0,0.0362 0,0.0726 0,0.10874 -0.36575,0.85951 -0.73154,1.72328 -1.09729,2.58279 -2.42276,0.46708 -4.84553,0.93417 -7.26664,1.40123 -0.057,0 -0.11066,0 -0.17123,0 0,0.75289 0,1.50575 0,2.25861 2.08385,-0.39455 4.1677,-0.78483 6.25492,-1.17941 -0.76175,1.72114 -1.5218,3.44445 -2.28185,5.1656 -3.05027,-0.27712 -4.96635,4.26558 -2.19793,6.45808 2.9865,2.361 5.25325,-2.53589 3.4647,-5.4898 0.76004,-1.72328 1.52009,-3.44658 2.28014,-5.1656 0.0302,0 0.0554,0 0.0856,0 0.81544,2.54441 1.63588,5.09096 2.44963,7.64177 0.47818,-0.39668 0.95804,-0.78913 1.4379,-1.18584 -0.9312,-2.97737 -1.86072,-5.95473 -2.78855,-8.93209 0.39261,-0.89791 0.79027,-1.7958 1.18288,-2.69371 0.0268,0 0.0554,0 0.0838,0 1.18288,3.33569 2.36741,6.67562 3.55027,10.0113 0.50672,-0.32204 1.01341,-0.64411 1.52011,-0.97042 -1.26844,-3.98405 -2.53688,-7.96381 -3.80529,-11.94999 0.64933,-1.46948 1.29527,-2.94112 1.9446,-4.41061 0.057,-0.0362 0.11244,-0.0726 0.1679,-0.10875 1.60736,4.70068 3.21303,9.39918 4.81701,14.10199 0.0554,0.0362 0.11245,0.0704 0.17123,0.10659 0.44965,-0.39458 0.90097,-0.78913 1.35062,-1.18372 -1.68954,-5.31064 -3.37911,-10.62126 -5.06869,-15.93191 0.9849,-2.22447 1.97145,-4.44898 2.95633,-6.67348 0.032,0 0.057,0 0.0838,0 2.14089,6.38772 4.2818,12.77539 6.42437,19.16095 0.0554,0.0362 0.10913,0.0726 0.16944,0.10874 0.50669,-0.39455 1.01339,-0.78913 1.51842,-1.18368 -2.28017,-6.96355 -4.56199,-13.92496 -6.84216,-20.88424 1.43455,-3.22904 2.87077,-6.45806 4.30864,-9.68713 0.0286,0 0.0554,0 0.0838,0 2.90094,8.68043 5.80357,17.36516 8.70452,26.04985 0.50838,-0.39671 1.01341,-0.79126 1.5201,-1.18584 0.17966,-1.46095 -1.70298,-5.69454 -2.19626,-7.21094 -2.22479,-6.81637 -4.45123,-13.63701 -6.67605,-20.45127 4.3657,-9.7575 8.73306,-19.52139 13.09874,-29.27888 0.0537,-0.0362 0.11245,-0.0704 0.17123,-0.10659 0.0554,0.0362 0.11065,0.0704 0.16789,0.10659 0.12574,1.41189 -1.77513,5.31278 -2.28013,6.78226 -2.28186,6.45808 -4.56369,12.91828 -6.84552,19.37423 0.19806,2.69583 2.29359,6.61163 3.12579,9.04087 3.52174,10.04753 7.04347,20.09723 10.56355,30.14052 0.0286,0 0.057,0 0.0838,0 4.62241,-13.02066 9.24145,-26.04985 13.8588,-39.07264 -3.09559,-8.75507 -6.1962,-17.51227 -9.29346,-26.26524 0.16944,-0.0362 0.33726,-0.0704 0.50838,-0.10659 4.39254,9.68712 8.78677,19.37637 13.1793,29.06349 -2.98485,9.18802 -5.97307,18.37181 -8.95622,27.5577 0.61911,0.50123 1.23823,1.00455 1.85734,1.50788 2.76004,-8.61219 5.52172,-17.22437 8.28341,-25.83442 0.0554,-0.0362 0.11245,-0.0726 0.16944,-0.10659 1.46136,3.19066 2.92946,6.38771 4.39251,9.58047 -2.25331,6.95929 -4.50662,13.92283 -6.75993,20.87999 0.47987,0.36044 0.95804,0.71875 1.4379,1.08133 2.16775,-6.35358 4.33716,-12.70502 6.50322,-19.05646 1.04359,2.22451 2.08722,4.44901 3.12747,6.67348 -1.68958,5.24027 -3.3808,10.47838 -5.06869,15.71439 0.53522,0.43295 1.06877,0.86377 1.60567,1.29459 1.5486,-4.66654 3.09892,-9.32881 4.64922,-13.99321 0.0554,-0.0362 0.11244,-0.0726 0.1679,-0.10875 0.67616,1.54202 1.35231,3.08614 2.03015,4.6303 -1.26843,3.87527 -2.53853,7.75051 -3.80528,11.62366 0.5369,0.32207 1.07211,0.64623 1.60733,0.96828 1.1275,-3.26101 2.25331,-6.53057 3.37746,-9.79587 0.0302,0 0.0588,0 0.0889,0 0.42114,0.89791 0.84227,1.79579 1.26675,2.69369 -0.93286,2.90486 -1.86072,5.81185 -2.78855,8.71884 0.47652,0.39458 0.95638,0.78913 1.43287,1.18371 0.79026,-2.40153 1.57715,-4.80732 2.36572,-7.21308 0,-0.0704 0,-0.14088 0,-0.21101 0.79361,1.71901 1.57884,3.44232 2.36739,5.1656 -1.68451,3.20345 0.81713,7.774 3.71807,5.27225 2.5553,-2.19889 0.69126,-6.63082 -2.44963,-6.35358 -0.76006,-1.71901 -1.52177,-3.44229 -2.28182,-5.1656 0,-0.0383 0,-0.0704 0,-0.10658 2.1694,0.39458 4.33884,0.78913 6.50824,1.18584 -0.0554,-0.75499 -0.11398,-1.51001 -0.17122,-2.265 -2.47815,-0.39458 -4.95795,-0.787 -7.43611,-1.18372 -0.42279,-0.96615 -0.84561,-1.9387 -1.26675,-2.90485 2.9278,0.39671 5.85896,0.787 8.78673,1.18371 -0.0302,-0.75502 -0.057,-1.50788 -0.0856,-2.26077 -3.32208,-0.53531 -6.64584,-1.07491 -9.96792,-1.61664 -0.67784,-1.57612 -1.35568,-3.15438 -2.0285,-4.73477 4.0251,0.60784 8.05523,1.21994 12.08198,1.82991 -0.0302,-0.75502 -0.057,-1.50788 -0.0856,-2.265 -4.44789,-0.75289 -8.90084,-1.50575 -13.35041,-2.25864 -1.01339,-2.26074 -2.02847,-4.52362 -3.04189,-6.78439 5.49151,0.82753 10.98469,1.65293 16.47786,2.47616 -0.0302,-0.78699 -0.057,-1.57826 -0.0856,-2.36525 -5.85726,-0.97042 -11.71622,-1.93871 -17.57684,-2.90699 -1.49324,-3.22903 -2.9865,-6.46232 -4.4764,-9.68925 0,-0.0362 0,-0.0726 0,-0.10658 7.34883,1.18581 14.70103,2.36739 22.05324,3.5532 -0.0286,-0.86164 -0.057,-1.72328 -0.0838,-2.58279 -7.7448,-1.25622 -15.49297,-2.51244 -23.23778,-3.76862 -4.42441,-9.79377 -8.84546,-19.59393 -13.26652,-29.38553 0.14107,-0.0362 0.28188,-0.0726 0.4228,-0.10875 4.30866,7.71428 8.62064,15.43072 12.92927,23.14499 0.6594,0.40309 1.5755,0.22831 2.44963,0.43083 2.81539,0.35618 5.63243,0.71662 8.4495,1.07493 7.5485,0.96828 15.09868,1.93657 22.64718,2.90698 0,-0.0343 0,-0.0704 0,-0.10658 -6.45121,-11.48077 -12.90241,-22.9637 -19.35194,-34.44447 -1.96976,-1.22209 -4.96971,-0.52681 -7.43779,-1.07707 -5.09552,-0.64411 -10.19611,-1.29032 -15.29332,-1.93871 0,-0.17702 0,-0.35831 0,-0.53746 8.87063,-0.0361 17.7463,-0.0704 26.61693,-0.10875 4.7046,7.86146 9.40921,15.71865 14.11213,23.57369 0.59396,-0.39455 1.18119,-0.78914 1.77513,-1.18581 0.057,0 0.11245,0 0.16943,0 -4.47809,-7.46049 -8.95618,-14.92526 -13.43597,-22.39001 2.90097,0 5.80192,0 8.70455,0 3.57709,5.92062 7.15588,11.84338 10.73132,17.76397 0.5067,-0.28793 1.01339,-0.57584 1.51842,-0.86377 0.0286,-0.0704 0.0588,-0.14087 0.0856,-0.21534 -3.20797,-5.52393 -6.42268,-11.05211 -9.63235,-16.57602 2.02847,-0.0362 4.05697,-0.0704 6.08546,-0.10875 2.67276,4.44901 5.35055,8.90012 8.02668,13.3491 0.53355,-0.28793 1.07045,-0.57584 1.60567,-0.86163 0.0268,-0.0726 0.0554,-0.14088 0.0838,-0.21534 -2.39425,-4.0907 -4.7885,-8.1835 -7.18108,-12.27206 1.37917,0 2.76169,0 4.1392,0 1.97311,3.30157 3.94623,6.6031 5.91599,9.90467 0.0554,0.0362 0.11066,0.0726 0.17123,0.10875 0.41945,-0.32204 0.84227,-0.64622 1.26508,-0.97042 0.18452,-0.81684 -4.09892,-7.62468 -4.81701,-9.043 0.84728,0 1.69289,0 2.53685,0 1.49325,2.43993 2.98484,4.88196 4.47978,7.32185 0.50838,-0.28792 1.0134,-0.5737 1.51842,-0.86163 0.0286,-0.0704 0.057,-0.14304 0.0856,-0.21534 -1.29358,-2.08158 -2.59223,-4.16104 -3.8875,-6.24479 1.57715,0 3.15765,0 4.73311,0 0.51846,3.55962 4.72643,2.843 5.32374,-0.21317 0.92949,-4.76252 -4.76669,-5.63269 -5.32374,-1.82139 z m -87.20633,-38.21314 c 3.52175,-10.01128 7.04349,-20.02471 10.56355,-30.03174 0.93455,0.87233 2.22479,6.00167 2.78855,7.64178 2.62074,7.3901 5.23815,14.78447 7.8589,22.17457 0.14439,1.12612 -1.75834,5.18478 -2.19627,6.46018 -2.19961,6.27681 -4.39419,12.55788 -6.59214,18.83677 -1.18455,0 -2.36573,0 -3.55027,0 -2.95464,-8.36052 -5.91431,-16.72317 -8.87232,-25.08156 z m -10.73132,70.72317 c -8.56192,1.1133 -17.12384,2.22451 -25.68741,3.33568 -0.0268,0 -0.0554,0 -0.0823,0 0,-0.0383 0,-0.0727 0,-0.10875 4.92608,-8.79134 9.85718,-17.58055 14.78494,-26.37189 1.13421,-0.88509 3.18113,-0.52894 4.73145,-0.86164 5.65929,-0.75499 11.32192,-1.50788 16.98289,-2.26074 0.61912,1.29033 1.23989,2.58492 1.85901,3.87527 -4.19118,7.46475 -8.39077,14.92949 -12.58867,22.39211 z m 10.90247,-36.70735 c -7.20958,-0.89578 -14.42085,-1.79369 -21.63214,-2.6916 -5.01331,-8.93209 -10.02664,-17.8706 -15.03996,-26.8027 8.58709,1.1133 17.18088,2.2245 25.76794,3.3378 4.19793,7.46262 8.39749,14.92736 12.59204,22.38784 -0.62918,1.12187 -1.38083,2.25651 -1.68788,3.76866 z m 21.03985,44.56454 c 0.161,1.25193 -2.12078,6.18934 -2.62075,7.64178 -2.61741,7.42634 -5.23815,14.85484 -7.8589,22.28118 0,0.0726 0,0.1449 0,0.2175 -3.57544,-10.04756 -7.15591,-20.09512 -10.73135,-30.14051 2.98484,-8.36053 5.97472,-16.72318 8.95788,-25.08157 1.15435,0 2.31037,0 3.46471,0 2.92946,8.35839 5.85895,16.72104 8.78841,25.08157 z m -2.95632,-34.87746 c -1.17447,3.49992 -3.6828,5.55166 -7.09885,6.24267 -5.32874,1.0792 -10.22966,-6.62868 -8.62064,-13.56236 0.71978,-3.08828 2.48318,-5.64764 4.64924,-6.88891 0.92952,-0.28793 1.85903,-0.57587 2.78853,-0.86163 6.1509,-0.0961 10.9763,7.04031 8.28172,15.07023 z m 24.59011,3.55111 c 4.95628,8.79134 9.91423,17.58481 14.87053,26.37189 0.0286,0.10875 0.057,0.21749 0.0856,0.32417 -8.5636,-1.07707 -17.12549,-2.15197 -25.69076,-3.22903 -4.22307,-7.49888 -8.44783,-14.99986 -12.67256,-22.49875 0.62077,-1.19863 1.20467,-2.34394 1.68954,-3.76649 7.23978,0.93414 14.4796,1.86616 21.7177,2.79821 z m -21.71769,-13.13157 c -0.51508,-1.40976 -1.08554,-2.54868 -1.68954,-3.7665 4.19621,-7.42634 8.39242,-14.85698 12.59035,-22.28332 0.56205,-0.73154 4.48983,-0.66329 5.40761,-0.85953 6.53508,-0.86165 13.0702,-1.72328 19.6053,-2.58279 0.25326,0 0.50839,0 0.76006,0 -5.04186,8.89585 -10.08538,17.79807 -15.12721,26.69606 -7.1794,0.92992 -14.36548,1.86193 -21.54657,2.79608 z"
         clip-rule="evenodd" />
    </g>
  </g>
</svg>
