<?xml version="1.0" encoding="UTF-8" standalone="no"?>
<!-- Created with Inkscape (http://www.inkscape.org/) -->

<svg
   xmlns:dc="http://purl.org/dc/elements/1.1/"
   xmlns:cc="http://creativecommons.org/ns#"
   xmlns:rdf="http://www.w3.org/1999/02/22-rdf-syntax-ns#"
   xmlns:svg="http://www.w3.org/2000/svg"
   xmlns="http://www.w3.org/2000/svg"
   xmlns:sodipodi="http://sodipodi.sourceforge.net/DTD/sodipodi-0.dtd"
   xmlns:inkscape="http://www.inkscape.org/namespaces/inkscape"
   width="48"
   height="48"
   id="svg4160"
   version="1.1"
   inkscape:version="0.48.2 r9819"
   sodipodi:docname="Snowflake-13.svg">
  <defs
     id="defs4162" />
  <sodipodi:namedview
     id="base"
     pagecolor="#ffffff"
     bordercolor="#666666"
     borderopacity="1.0"
     inkscape:pageopacity="0.0"
     inkscape:pageshadow="2"
     inkscape:zoom="11.2"
     inkscape:cx="37.428407"
     inkscape:cy="15.458561"
     inkscape:document-units="px"
     inkscape:current-layer="g198"
     showgrid="false"
     fit-margin-top="0"
     fit-margin-left="0"
     fit-margin-right="0"
     fit-margin-bottom="0"
     inkscape:window-width="1585"
     inkscape:window-height="1092"
     inkscape:window-x="2"
     inkscape:window-y="2"
     inkscape:window-maximized="0" />
  <metadata
     id="metadata4165">
    <rdf:RDF>
      <cc:Work
         rdf:about="">
        <dc:format>image/svg+xml</dc:format>
        <dc:type
           rdf:resource="http://purl.org/dc/dcmitype/StillImage" />
        <dc:title />
      </cc:Work>
    </rdf:RDF>
  </metadata>
  <g
     inkscape:label="Layer 1"
     inkscape:groupmode="layer"
     id="layer1"
     transform="translate(-91.528107,-104.27354)">
    <g
       id="g198"
       style="fill:none;stroke:#000000;stroke-width:0.28859234;stroke-miterlimit:4;stroke-opacity:1;stroke-dasharray:none"
       transform="matrix(0.29235908,0,0,0.26301072,21.763738,20.045528)">
      <path
         style="fill:none;stroke:#000000;stroke-width:0.3606243;stroke-miterlimit:4;stroke-opacity:1;stroke-dasharray:none"
         inkscape:connector-curvature="0"
         id="path246"
         d="m 395.04665,387.17227 c -4.87356,-0.0761 -9.75234,-0.1565 -14.62721,-0.23395 -9.54307,0.20813 -19.07324,1.64665 -28.61502,4.20488 -3.26801,0.87713 -9.78851,2.31417 -12.69999,4.44317 -0.0736,-0.0284 -0.14334,-0.0516 -0.21444,-0.079 2.23335,-2.80373 4.47057,-5.60602 6.7065,-8.40834 4.28199,-5.65624 8.56529,-11.31539 12.84467,-16.97308 -0.0226,-0.13193 -0.0465,-0.26543 -0.0722,-0.39623 -0.0227,-0.0774 -0.0453,-0.1565 -0.0711,-0.23678 -0.0255,-0.0284 -0.0465,-0.0517 -0.0711,-0.0774 -2.36508,0.91017 -4.52611,4.27522 -6.77882,6.10418 -2.09385,2.00982 -4.1864,4.01967 -6.28025,6.02808 -3.423,3.38228 -6.85118,6.76887 -10.27418,10.15115 0.45079,-1.45284 0.9016,-2.9071 1.35499,-4.36281 0.92874,-3.56746 1.85617,-7.13637 2.7823,-10.70528 2.38965,-11.40729 3.26414,-22.92511 3.35714,-34.341 0.0226,-3.0205 0.61744,-9.44912 -0.21303,-12.13371 -0.003,-0.37038 0,-0.74077 0,-1.1097 0.71302,-0.36896 1.42604,-0.73934 2.13905,-1.10974 1.50224,-2.02275 2.25659,-5.68498 -0.85641,-7.2957 -3.70073,-1.91942 -7.68431,3.55023 -4.2781,7.29713 -2.16618,3.93932 -4.33106,7.87861 -6.49467,11.81502 -3.48501,7.36893 -6.70909,14.68618 -9.28086,22.04937 -1.76705,5.06623 -3.22798,10.3909 -4.28071,15.54183 -0.52183,2.90999 -1.04757,5.8185 -1.56812,8.72558 -2.29147,-7.44934 -4.39822,-14.89578 -6.99325,-22.36235 -0.89128,-2.5683 -1.64693,-7.23687 -3.20988,-9.44052 -0.16657,0.0802 -0.33325,0.15933 -0.49989,0.23962 -0.30744,3.03484 1.21806,7.79532 1.70893,10.94358 0.87446,5.60172 1.85617,11.1891 2.99932,16.81376 0.35652,1.87923 0.71303,3.75553 1.06952,5.63043 -0.0255,0.0803 -0.049,0.15807 -0.0722,0.23836 -1.42603,-1.84908 -2.85465,-3.701 -4.28069,-5.55149 -1.45056,-1.61218 -2.90243,-3.22721 -4.35173,-4.83654 -5.7106,-6.34534 -11.46384,-11.53359 -17.41211,-15.70117 -3.78081,-2.61707 -7.56292,-5.23419 -11.34373,-7.85416 -2.56788,-1.53033 -5.13838,-3.06503 -7.70629,-4.59681 0.0711,-0.81973 0.13937,-1.64088 0.21303,-2.45776 -0.70141,-4.2436 -4.8839,-4.43311 -7.27873,-1.58631 -1.14703,4.73173 0.42625,6.59657 4.70954,6.50184 6.86926,16.5252 18.40671,35.07172 34.53488,49.80242 -3.30804,-0.76661 -6.61477,-1.53178 -9.91896,-2.29981 -6.58766,-1.34806 -13.17922,-2.69464 -19.76817,-4.04124 -0.35134,0.48811 -0.29968,0.41059 -0.21301,0.87143 5.06604,2.08734 10.13468,4.17327 15.20073,6.26209 4.54162,1.66529 9.08581,3.33202 13.62873,4.99587 -1.78255,0.39623 -3.56898,0.79392 -5.35282,1.1887 -3.06907,0.87427 -6.13686,1.74567 -9.20595,2.61997 -8.62725,2.52952 -16.98586,7.39191 -25.54596,12.37201 -3.89704,2.26537 -8.64276,4.69586 -12.27373,8.09246 -0.9933,-0.66179 -1.68436,-1.50306 -2.64024,-1.66529 -2.77584,-0.48522 -5.22104,2.87839 -4.42535,5.7094 1.33949,4.75902 6.57216,3.24015 7.63523,-0.55701 4.04302,0.10612 8.08733,0.21097 12.13295,0.31726 7.45954,-0.12217 15.1891,-0.669 22.62026,-2.14048 4.75473,-0.9432 9.43587,-2.34148 14.19966,-3.73114 2.44904,-0.92597 4.902,-1.85049 7.34847,-2.77642 -4.99243,6.34533 -9.99001,12.69212 -14.98502,19.03605 -1.64304,2.19361 -3.28348,4.38719 -4.92396,6.58221 0.049,0.10769 0.0944,0.21254 0.14079,0.3173 1.29689,0.0904 4.72377,-4.14459 6.21051,-5.31175 2.95023,-2.80228 5.89918,-5.60457 8.84944,-8.40687 2.83012,-2.77788 5.66281,-5.55434 8.49294,-8.32937 0.0255,0.0284 0.0465,0.0517 0.0722,0.079 -0.54639,1.71696 -1.09664,3.43968 -1.64176,5.15667 -0.90418,3.54019 -1.80838,7.08613 -2.71385,10.62774 -1.65595,7.97049 -2.21138,15.98974 -2.99674,23.95015 -0.0479,2.4319 -0.0969,4.86668 -0.14335,7.29571 -0.35909,3.7498 -0.60194,11.91264 0.21303,15.46432 -1.66889,1.03076 -3.75112,2.11892 -3.56898,4.60253 0.23258,3.12242 3.36618,5.04612 5.63826,3.88472 2.08092,-1.06234 2.61055,-3.87468 2.06673,-5.47106 -0.37718,-0.68911 -0.75953,-1.37817 -1.14057,-2.0644 1.18967,-2.11319 2.38061,-4.22783 3.56897,-6.34392 6.04128,-11.88102 11.82292,-23.35149 14.63237,-35.2928 0.83315,-3.6766 1.66501,-7.35174 2.49686,-11.02399 0.30742,-1.87779 0.61871,-3.75555 0.92743,-5.63187 2.35996,7.66324 4.39825,15.40975 7.06432,23.0773 0.95069,2.96164 1.90396,5.92329 2.85465,8.88348 0.0255,0.0252 0.049,0.0532 0.0711,0.0803 0.16799,-0.0284 0.33456,-0.0517 0.4999,-0.0803 0.39785,-2.00267 -0.61874,-4.7145 -0.92615,-6.74303 -1.02432,-6.31375 -2.04478,-12.63614 -3.0691,-18.95279 -0.32292,-1.79593 -1.75153,-6.28076 -1.35499,-7.8513 1.90269,3.59043 8.3586,10.9005 11.70152,13.64107 1.78772,1.71699 3.56897,3.4354 5.35281,5.15526 3.85314,3.06498 7.70757,6.13287 11.56072,9.19789 3.56766,2.37878 7.13534,4.75757 10.70301,7.1378 1.90268,1.10973 3.80665,2.22089 5.70933,3.32917 -1.23357,3.70958 2.5059,7.55127 5.70672,5.39354 4.19028,-2.82095 0.31001,-9.67163 -3.0678,-7.85131 -1.03335,-0.50101 -1.68693,-2.89558 -2.21137,-4.04407 -1.87812,-3.62202 -3.75885,-7.24404 -5.63698,-10.86462 -3.25251,-6.07117 -7.45439,-11.60255 -11.41605,-17.76414 -1.35756,-1.66528 -2.71386,-3.33059 -4.06627,-4.99444 -1.57974,-2.41327 -4.06627,-5.15239 -6.2105,-6.90096 -1.83034,-1.77008 -3.66198,-3.54447 -5.49231,-5.31313 0.0711,-0.0803 0.14079,-0.1565 0.21303,-0.23678 1.99695,0.47516 3.9978,0.95178 5.99479,1.42696 4.90457,1.09251 9.76264,2.15485 14.62978,3.08942 2.51107,0.48666 6.82145,2.11032 9.20207,1.66673 0.0504,-0.1061 0.0943,-0.21096 0.14475,-0.32013 -0.74531,-1.21739 -6.33577,-2.8827 -7.7786,-3.40812 -7.08758,-2.69461 -14.17771,-5.3921 -21.26397,-8.08818 4.92911,-1.23175 10.01067,-2.15197 14.98887,-3.80721 10.6772,-3.55741 20.72146,-9.56684 31.46712,-16.26248 1.99696,-1.37243 3.99523,-2.74775 5.99607,-4.12304 0.47404,0.42204 0.95069,0.84555 1.42603,1.2705 1.57974,0.8958 4.33497,0.55555 5.42256,-2.06439 2.22429,-5.35768 -6.09294,-9.03282 -7.42728,-2.69749 z m -64.07607,-33.93619 c 1.5242,-3.27745 3.04584,-6.55781 4.56616,-9.83817 0.8112,-1.53178 1.6211,-3.06357 2.42839,-4.59966 0.0255,-0.0252 0.0479,-0.0488 0.0722,-0.0774 0.0929,0 0.18867,0 0.283,0 0.50633,3.76126 0.22606,8.12119 -0.14079,11.89539 -0.0479,1.53322 -0.0944,3.06787 -0.14221,4.59966 -0.48179,1.77011 -4.39309,5.58593 -5.28177,6.50328 -0.6846,-1.46289 -2.03829,-7.0976 -1.78512,-8.48297 z m -52.59157,15.30925 c -1.92592,-3.5416 -4.06627,-6.70423 -5.49618,-10.23297 1.34853,-0.16782 3.61675,2.1132 4.92395,2.9358 1.42089,0.89583 7.25547,4.32979 8.13385,5.8702 0.47404,1.63802 0.9507,3.2746 1.42732,4.91549 0.28806,1.00491 0.72465,1.86772 0.71301,2.85541 0.0363,0.26417 0.0388,0.0516 0,0.31726 -2.40126,-0.81971 -4.80513,-1.63802 -7.20638,-2.45773 -0.83186,-1.40259 -1.66241,-2.80374 -2.49557,-4.20346 z m 10.41885,15.86197 c -1.92591,-2.72191 -3.85313,-5.44813 -5.78034,-8.16713 0.0226,-0.0284 0.0465,-0.0545 0.0696,-0.0818 2.0357,-0.092 4.18641,0.87999 6.2092,0.0818 0.25183,-1.89644 0.21841,-4.98299 -0.42625,-6.82054 1.45833,0.25126 4.26003,3.62775 5.77907,4.83509 6.07745,4.83081 12.78395,12.8472 16.83858,19.35045 1.39374,2.23956 4.72116,6.37123 4.06758,8.32938 -0.0255,0.0774 -2.76296,2.87549 -3.14012,3.33057 -1.26071,-0.34308 -2.52012,-0.68764 -3.78211,-1.03076 -1.4764,-1.2705 -2.95023,-2.54101 -4.42277,-3.8072 -4.62947,-3.55886 -11.68086,-10.31047 -15.41258,-16.01986 z m -18.19876,46.23638 c -2.43228,0.95901 -8.27851,0.24277 -11.06082,0.3991 -1.11346,0.0604 -2.94509,0.44791 -3.99652,-0.16089 2.70998,-2.60131 6.47657,-4.25945 9.41906,-5.86731 1.21163,-0.71349 2.42582,-1.42699 3.63744,-2.14335 1.16768,-0.27426 6.51146,1.12409 7.70756,1.90217 -1.32527,1.55476 -4.02105,5.2055 -5.70672,5.87016 z m 31.46582,-7.85271 c -5.75454,2.53814 -11.54004,4.67 -17.3398,5.78977 -3.13883,0.52974 -6.27764,1.05659 -9.41647,1.58491 -0.21559,-0.0252 -0.43014,-0.0533 -0.64455,-0.079 0.62517,-1.9108 2.33151,-4.09719 3.14139,-5.71081 -1.1367,-1.84905 -4.00685,-2.21083 -5.56851,-3.32916 9.01349,-5.26291 18.99446,-7.62161 28.12032,-9.2022 3.44495,-0.59722 7.04621,-1.82754 10.48731,0.079 0.18725,1.43705 0.26488,3.01909 1.14315,4.44321 -2.24496,4.42882 -6.97131,5.12365 -9.92284,6.42432 z m 8.70476,46.63262 c -0.52312,1.10829 -1.04626,2.22088 -1.5707,3.33058 -1.56682,3.62633 -3.28221,7.76806 -5.56592,11.26085 -0.0737,-0.0774 -0.14335,-0.15649 -0.217,-0.23678 -0.27762,-2.17925 -0.283,-15.08389 0.43144,-16.65585 0.78406,-1.03076 1.5707,-2.06439 2.35476,-3.09228 0.92744,-1.03077 1.85617,-2.06298 2.78233,-3.09228 0.77115,1.31785 2.02407,7.18229 1.78513,8.48582 z m 9.84922,-35.69048 c -1.13671,8.29347 -2.78619,16.39456 -5.70932,24.74403 -0.72981,2.09165 -1.22712,4.7748 -2.49686,6.74012 -0.92744,-1.63944 -1.38083,-4.61975 -2.92828,-5.78833 -0.0696,-0.079 -0.14333,-0.15933 -0.21303,-0.23678 -1.59911,1.23892 -3.35325,2.2496 -4.99627,3.80723 -0.0227,-0.0284 -0.0465,-0.0545 -0.0696,-0.0802 -0.22606,-2.61135 0.59677,-5.63902 0.99718,-8.24751 1.03981,-6.73012 2.36381,-13.7502 4.71083,-20.46163 1.33175,-3.48993 2.66349,-6.97846 3.99525,-10.46984 0.80859,-0.847 1.61849,-1.69545 2.42839,-2.53813 0.61871,0.28148 4.21222,1.30207 4.28069,1.42554 1.77478,3.10377 0.44304,7.88862 0.002,11.10581 z m 1.00106,-33.30881 c -2.16746,-3.77277 -0.92358,-8.45715 -0.35393,-12.29161 0.95071,-6.42721 2.10419,-12.8917 3.99781,-19.3519 1.28267,-3.701 2.56661,-7.40054 3.85185,-11.10295 0.0954,-0.10485 0.1898,-0.2097 0.28546,-0.31584 0.0255,0.0252 0.049,0.0504 0.0722,0.0774 0.60322,1.8749 1.34983,4.22068 2.927,5.94914 1.6624,-0.78671 3.57024,-2.21084 5.13707,-3.8072 0.0255,0.0284 0.0465,0.0545 0.0711,0.0803 -0.28545,2.32422 -0.57091,4.65278 -0.85638,6.9799 -1.13022,7.54408 -2.62474,14.90583 -5.28304,22.52171 -1.47125,4.22638 -1.99311,8.15419 -5.99479,12.37344 -1.30205,-0.42927 -2.55628,-1.22029 -3.85444,-1.1126 z m 41.38737,52.97368 c 2.06285,3.78281 3.95259,7.33735 5.91986,10.86318 -0.0255,0.0284 -0.0465,0.0532 -0.0722,0.0819 -1.09405,-0.0847 -2.27984,-1.34084 -3.35195,-1.98255 -1.62883,-0.97764 -8.6376,-5.09351 -9.63478,-6.74016 -0.75953,-2.64438 -1.52164,-5.28875 -2.28114,-7.92882 1.01528,-0.49816 2.80814,0.57712 3.85056,0.95179 1.14056,0.42208 2.28629,0.84559 3.42299,1.26764 0.7169,1.1614 1.43121,2.32425 2.14681,3.4871 z m -4.28456,-6.97703 c -1.98147,0.25128 -4.33497,-1.04512 -6.27768,0 -0.2235,1.7414 -0.17054,4.65565 0.42756,6.34248 -0.0227,0.13193 -0.0479,0.26544 -0.0711,0.39624 -2.772,-1.10829 -5.13451,-4.62839 -7.77861,-6.73872 -5.0428,-4.02975 -10.69788,-11.09146 -13.98397,-16.33713 -1.26325,-1.82465 -2.5214,-3.64643 -3.78338,-5.47252 -0.30872,-1.40115 -0.62002,-2.80084 -0.92613,-4.20343 1.11474,-0.8341 1.94271,-2.03568 2.85208,-3.17267 1.26325,0.34307 2.52139,0.68764 3.78465,1.03217 1.64048,1.39973 3.28223,2.80229 4.92269,4.20202 7.89875,6.02521 15.28985,15.79736 20.83383,23.95156 z M 341.24218,410.8123 c -3.2977,0.57282 -7.38334,2.00985 -10.63328,-0.23679 0.0672,-1.13699 -0.24278,-2.78937 -0.92614,-3.88616 0.3268,-0.96184 1.86651,-1.99119 2.28374,-3.01476 2.33924,-2.26824 5.67572,-2.94156 8.20746,-4.04553 5.80103,-2.5281 11.58268,-4.54799 17.41081,-5.71081 3.06909,-0.50389 6.13946,-1.00636 9.20595,-1.50883 0.12011,0.0284 0.23909,0.0544 0.35651,0.079 -0.6226,1.95098 -3.19309,3.96515 -3.06779,6.10706 1.88588,0.90871 3.61548,2.11464 5.42256,2.85685 0.0226,0.0252 0.0479,0.0531 0.0711,0.079 -9.07938,5.35478 -19.13526,7.67903 -28.33087,9.28116 z m 34.68087,-12.69358 c -0.92617,0.55702 -1.85361,1.11115 -2.78234,1.66674 -0.91324,0.25977 -6.6742,-1.23751 -7.63266,-1.98259 0.11756,-0.18672 0.23767,-0.37179 0.35524,-0.55701 1.75798,-1.74425 3.52117,-3.48992 5.28047,-5.23418 1.08759,-0.5039 12.77749,-0.83696 13.91549,-0.39623 0.3552,-0.0252 0.71301,-0.0516 1.06952,-0.079 0.0255,0.079 0.0479,0.15648 0.0737,0.23678 -3.03422,2.75206 -7.02041,4.61978 -10.27936,6.34537 z"
         clip-rule="evenodd" />
    </g>
  </g>
</svg>
