<?xml version="1.0" encoding="UTF-8" standalone="no"?>
<!-- Created with Inkscape (http://www.inkscape.org/) -->

<svg
   xmlns:dc="http://purl.org/dc/elements/1.1/"
   xmlns:cc="http://creativecommons.org/ns#"
   xmlns:rdf="http://www.w3.org/1999/02/22-rdf-syntax-ns#"
   xmlns:svg="http://www.w3.org/2000/svg"
   xmlns="http://www.w3.org/2000/svg"
   xmlns:sodipodi="http://sodipodi.sourceforge.net/DTD/sodipodi-0.dtd"
   xmlns:inkscape="http://www.inkscape.org/namespaces/inkscape"
   width="48"
   height="48"
   id="svg4160"
   version="1.1"
   inkscape:version="0.48.2 r9819"
   sodipodi:docname="Snowflake-09.svg">
  <defs
     id="defs4162" />
  <sodipodi:namedview
     id="base"
     pagecolor="#ffffff"
     bordercolor="#666666"
     borderopacity="1.0"
     inkscape:pageopacity="0.0"
     inkscape:pageshadow="2"
     inkscape:zoom="11.2"
     inkscape:cx="31.583919"
     inkscape:cy="15.458561"
     inkscape:document-units="px"
     inkscape:current-layer="g198"
     showgrid="false"
     fit-margin-top="0"
     fit-margin-left="0"
     fit-margin-right="0"
     fit-margin-bottom="0"
     inkscape:window-width="1585"
     inkscape:window-height="1092"
     inkscape:window-x="2"
     inkscape:window-y="2"
     inkscape:window-maximized="0" />
  <metadata
     id="metadata4165">
    <rdf:RDF>
      <cc:Work
         rdf:about="">
        <dc:format>image/svg+xml</dc:format>
        <dc:type
           rdf:resource="http://purl.org/dc/dcmitype/StillImage" />
        <dc:title />
      </cc:Work>
    </rdf:RDF>
  </metadata>
  <g
     inkscape:label="Layer 1"
     inkscape:groupmode="layer"
     id="layer1"
     transform="translate(-91.528107,-104.27354)">
    <g
       id="g198"
       style="fill:none;stroke:#000000;stroke-width:0.28859234;stroke-miterlimit:4;stroke-opacity:1;stroke-dasharray:none"
       transform="matrix(0.29235908,0,0,0.26301072,21.763738,20.045528)">
      <path
         style="fill:none;stroke:#000000;stroke-width:0.3606243;stroke-miterlimit:4;stroke-opacity:1;stroke-dasharray:none"
         inkscape:connector-curvature="0"
         id="path176"
         d="m 399.53346,418.25743 c 1.0815,-2.35191 2.16467,-4.70385 3.2445,-7.05579 -0.98197,-2.1782 -1.9656,-4.36488 -2.95089,-6.54729 -0.89076,-0.51702 -2.7104,-0.25221 -3.93288,-0.25221 -3.47673,0 -6.95179,0 -10.42851,0 1.63884,-3.81604 3.27932,-7.63848 4.91817,-11.45878 -0.98364,-2.1443 -1.96727,-4.28225 -2.95257,-6.42229 -0.48933,-0.56574 -4.99447,-0.28601 -6.09587,-0.25219 -2.52461,5.75273 -5.05419,11.5012 -7.57714,17.25603 -1.83622,0.0417 -3.67079,0.0827 -5.50702,0.12484 0.32346,-2.08495 2.72366,-7.03252 3.73549,-8.69158 -0.35,-2.57863 -2.08007,-4.32458 -2.75351,-6.6744 -1.36681,-0.80307 -4.42885,-0.28393 -6.19541,-0.24802 -1.18268,2.6846 -2.36205,5.37134 -3.54307,8.06016 -0.0332,0 -0.0663,0 -0.0995,0 -3.01725,-6.63414 -6.03284,-13.26833 -9.04843,-19.90034 2.42342,0 4.85182,0 7.27856,0 1.01349,-2.22693 2.03195,-4.45386 3.0471,-6.67445 -0.98363,-2.14216 -1.96892,-4.2822 -2.94924,-6.42436 -0.65354,-0.74161 -7.13093,-0.41337 -8.65864,-0.37704 0.88744,-2.0574 1.77155,-4.11272 2.65732,-6.17013 5.41081,0.0426 10.81996,0.0827 16.23244,0.12694 1.01349,-2.18242 2.03196,-4.36909 3.04877,-6.54938 -0.98364,-2.26718 -1.96893,-4.53649 -2.94924,-6.80154 -3.37886,-0.0447 -6.75772,-0.0848 -10.1316,-0.12944 2.32722,-5.28867 4.65609,-10.57738 6.9833,-15.86604 -1.01846,-2.30957 -2.03195,-4.61913 -3.05043,-6.92869 -2.09664,0 -4.19495,0 -6.29492,0 -2.32721,5.25054 -4.65608,10.49684 -6.98496,15.74316 -0.0298,0 -0.0631,0 -0.0962,0 -1.67201,-3.60844 -3.34568,-7.21897 -5.01769,-10.82949 -1.3668,-0.80522 -4.42718,-0.28603 -6.1954,-0.25429 -1.01515,2.22692 -2.03196,4.45172 -3.04877,6.67652 2.59095,5.6701 5.18025,11.33807 7.77121,17.00178 -0.88577,1.97264 -1.77154,3.94746 -2.65731,5.9201 -0.0663,0.0422 -0.13103,0.0827 -0.19739,0.12484 -1.27888,-2.76724 -2.55778,-5.54082 -3.83501,-8.31228 -0.49265,-0.56361 -4.99613,-0.28393 -6.10085,-0.25221 -0.98363,2.18242 -1.96893,4.3691 -2.95256,6.54943 1.21585,2.72695 2.42674,5.45819 3.63927,8.18727 0,0.0447 0,0.0827 0,0.12485 -6.03118,0 -12.06568,0 -18.09853,0 1.17936,-2.64223 2.3604,-5.28868 3.54142,-7.93089 0.31515,-0.75858 -2.28077,-5.33319 -2.65731,-6.67658 -1.36846,-0.80303 -4.42884,-0.28393 -6.19706,-0.2522 -1.40993,3.10625 -2.81986,6.21464 -4.22813,9.32302 -0.0663,0.0417 -0.13104,0.0806 -0.19739,0.12484 -0.91894,-2.05744 -1.83622,-4.11484 -2.75517,-6.17015 2.722,-5.87771 5.44399,-11.75755 8.16433,-17.63317 -0.95046,-2.26296 -1.90092,-4.53437 -2.85138,-6.80367 -2.03361,0 -4.06558,0 -6.09919,0 -1.70353,3.69742 -3.41037,7.39058 -5.11556,11.08379 -0.97368,-0.61873 -1.5078,-3.07875 -2.06514,-4.28225 -1.73836,-3.8203 -3.47672,-7.63848 -5.21508,-11.46092 -2.09831,0 -4.19662,0 -6.29492,0 -0.98364,2.2248 -1.96893,4.4496 -2.95091,6.6744 0.17582,1.73747 5.8736,14.20277 6.88545,15.61815 0,0.12734 0,0.2522 0,0.37913 -2.92769,1.02977 -6.8473,0.27976 -10.1316,0.25012 -0.98199,2.2248 -1.96728,4.45172 -2.95091,6.67438 0.98363,2.14218 1.96892,4.28225 2.95091,6.42016 0.64524,0.72253 3.25444,0.25429 4.32766,0.25429 3.93618,-0.0447 7.87072,-0.0848 11.80526,-0.12694 0.88577,1.97477 1.76987,3.94745 2.65731,5.92009 0,0.0422 0,0.0827 0,0.12485 -2.81987,0.0848 -5.63973,0.16953 -8.46125,0.2522 -0.98197,2.22693 -1.96727,4.4496 -2.9509,6.6744 1.01681,2.2227 2.03528,4.44963 3.05043,6.67443 2.42508,-0.0447 4.85181,-0.0827 7.28021,-0.12693 -2.94924,6.6723 -5.9018,13.35096 -8.8527,20.0254 -0.64691,-0.37914 -3.43692,-6.87783 -3.7388,-8.06017 -2.00045,0 -4.00089,0 -5.99967,0 -1.01682,2.18029 -2.03363,4.36488 -3.05043,6.54729 1.24571,2.98124 2.49143,5.96035 3.7388,8.94371 -1.83623,-0.0422 -3.67245,-0.0848 -5.50868,-0.13153 -2.52295,-5.70609 -5.04921,-11.41431 -7.57382,-17.12466 -2.03361,0 -4.06558,0 -6.09753,0 -0.98363,2.22692 -1.96893,4.45385 -2.95091,6.67443 1.63884,3.69317 3.27934,7.3885 4.91817,11.08165 0,0.12486 0,0.25221 0,0.37705 -4.68925,0 -9.37852,0 -14.06612,0 -1.08317,2.2248 -2.16466,4.45173 -3.24616,6.67653 1.0168,2.34769 2.03361,4.70176 3.04876,7.05157 4.68761,0 9.37853,0 14.06614,0 0.0995,0.0426 0.19738,0.0827 0.29525,0.12736 -1.67367,3.77366 -3.34568,7.55584 -5.01604,11.33168 0.98198,2.14429 1.96727,4.28433 2.9509,6.42437 0.49099,0.56574 4.99613,0.28601 6.09753,0.2501 2.62413,-5.95825 5.24827,-11.92071 7.87073,-17.88319 1.83624,-0.0806 3.67246,-0.16534 5.50869,-0.24803 0.0332,0.0827 0.0663,0.16745 0.0979,0.24803 -1.37676,3.19523 -2.75351,6.38203 -4.13192,9.57304 0.91894,2.10192 1.83788,4.19957 2.75516,6.30148 1.36847,0.80517 4.42884,0.28603 6.19707,0.25012 1.18102,-2.68883 2.36204,-5.37135 3.5414,-8.06017 0.0332,0 0.0663,0 0.0995,0 0.88411,1.9303 1.76987,3.86268 2.65564,5.79512 2.13149,4.73774 4.26131,9.48401 6.3928,14.22815 -2.39357,-0.0426 -4.78879,-0.0848 -7.1807,-0.12693 -1.04998,2.26718 -2.0983,4.53436 -3.14829,6.80154 1.01681,2.22483 2.03528,4.45172 3.05042,6.67443 2.52461,0 5.04922,0 7.57382,0 -0.88411,2.0574 -1.76988,4.11485 -2.65564,6.17226 -5.08073,-0.0447 -10.16477,-0.0827 -15.2455,-0.12945 -1.01681,2.18247 -2.03362,4.36701 -3.04876,6.54943 0.91893,2.14003 1.83621,4.28224 2.75516,6.4244 1.60235,1.20773 7.80936,0.54032 10.32733,0.50429 0.0332,0.0827 0.0663,0.16534 0.0995,0.2501 -2.32721,5.24629 -4.65608,10.49262 -6.9833,15.74316 0.98363,2.22693 1.96893,4.4496 2.9509,6.6744 1.39003,0.8179 4.50183,0.28602 6.29493,0.25221 2.32887,-5.25056 4.65774,-10.49684 6.98496,-15.7453 0.0663,-0.0417 0.13271,-0.0848 0.19572,-0.12484 1.67201,3.64869 3.34568,7.30373 5.01604,10.95455 1.3469,0.79456 4.3542,0.28811 6.09919,0.25429 0.98364,-2.18456 1.96893,-4.36696 2.95091,-6.55151 0.14763,-1.22894 -1.38837,-3.31817 -1.86775,-4.40727 -2.06679,-4.48985 -4.13358,-8.98395 -6.19872,-13.47384 0.85259,-2.01715 1.70519,-4.03009 2.55778,-6.04511 0.0995,-0.0848 0.19739,-0.16953 0.29525,-0.2522 1.40828,3.06179 2.81986,6.12987 4.22814,9.19165 0.49431,0.57209 5.08238,0.28602 6.19705,0.25221 0.9853,-2.22689 1.96727,-4.45382 2.95091,-6.6744 -1.21254,-2.68674 -2.42674,-5.37131 -3.63928,-8.06017 5.99967,0 12.001,0 18.00067,0 -1.21254,2.72698 -2.42342,5.45819 -3.63929,8.18518 0.91729,2.09557 1.8379,4.19957 2.75518,6.29726 1.3668,0.80517 4.42884,0.28811 6.1954,0.2522 1.37842,-2.98123 2.75683,-5.96033 4.13193,-8.94158 0.79951,0.46403 2.45162,4.85221 2.95255,6.04724 -2.69047,5.87349 -5.37929,11.75546 -8.06645,17.62895 0.95211,2.10192 1.90257,4.19748 2.85303,6.29726 1.3469,0.79456 4.35586,0.28811 6.09753,0.25429 1.70519,-3.69742 3.41038,-7.38845 5.11556,-11.08378 0.0663,-0.0417 0.13104,-0.0848 0.19739,-0.12485 2.39191,5.28871 4.78879,10.57738 7.18236,15.86817 1.99878,0 3.99922,0 5.99967,0 1.0815,-2.35194 2.16134,-4.70597 3.24616,-7.05369 -2.36205,-5.2463 -4.72244,-10.49471 -7.08449,-15.74317 3.37886,-0.0827 6.75605,-0.16743 10.13325,-0.2522 1.01349,-2.14216 2.03197,-4.28011 3.04877,-6.42227 -0.91728,-2.18034 -1.83788,-4.36697 -2.75351,-6.55151 -1.03008,-0.75857 -3.00896,-0.25012 -4.42884,-0.24803 -3.96605,0.0417 -7.93376,0.0848 -11.90147,0.12485 -0.98862,-1.09332 -2.55114,-4.55131 -2.85304,-6.29726 2.85304,0 5.70607,0 8.56076,0 1.01349,-2.18242 2.03196,-4.3691 3.04712,-6.54938 -0.95046,-2.22693 -1.90258,-4.45173 -2.85304,-6.67445 -2.4566,-0.0422 -4.91817,-0.0848 -7.37642,-0.12693 -0.0298,-0.0848 -0.0663,-0.16744 -0.0962,-0.25011 2.91441,-6.50492 5.83711,-13.01618 8.75318,-19.52322 0.0995,-0.0827 0.1974,-0.16535 0.29525,-0.25011 1.18269,2.68883 2.36039,5.3713 3.54307,8.06016 2.03197,0 4.06392,0 6.0992,0 0.98198,-2.14216 1.96727,-4.28224 2.94924,-6.42227 -0.37155,-2.75455 -3.01227,-7.26561 -4.12861,-9.70019 1.80141,-0.0806 3.60446,-0.16534 5.40751,-0.24803 2.69048,6.04515 5.37764,12.09026 8.06977,18.13323 1.99878,0 3.99923,0 5.99636,0 1.01847,-2.14004 2.03362,-4.28007 3.05043,-6.42015 -1.6405,-3.82031 -3.281,-7.63848 -4.91818,-11.46304 0.0663,-0.0806 0.13271,-0.16536 0.19739,-0.24803 4.6196,0.0447 9.24417,0.0848 13.86542,0.12945 z M 340.1223,380.5989 c 3.44023,7.5961 6.88378,15.19645 10.32568,22.7926 -6.8191,0.0447 -13.63985,0.089 -20.45728,0.13153 3.37388,-7.64061 6.75274,-15.28122 10.1316,-22.92397 z m -9.93586,-6.04515 c -3.24782,7.21688 -6.49398,14.4422 -9.74014,21.66329 -0.13767,0.24176 -0.007,0.0764 -0.19738,0.25221 -2.36039,-5.33106 -4.72078,-10.6621 -7.08117,-15.99741 -0.65852,-1.4175 -2.71038,-4.40934 -2.55778,-6.04511 6.52549,0.0447 13.05264,0.0848 19.57647,0.12694 z m -29.11756,7.30587 c 3.21464,7.21683 6.42763,14.44006 9.64061,21.66325 -6.32644,-0.0422 -12.65786,-0.0848 -18.98431,-0.13154 -0.16421,0 -0.32676,0 -0.49098,0 3.27602,-7.17658 6.55535,-14.35317 9.83468,-21.53189 z m -0.19739,57.93395 c -0.0979,0.0848 -0.19739,0.16744 -0.29358,0.2522 -3.34569,-7.51564 -6.68971,-15.03336 -10.03374,-22.5447 6.75441,0 13.51046,0 20.2632,0 0,0.0417 0,0.0806 0,0.12276 -3.31085,7.38845 -6.62336,14.77908 -9.93587,22.16966 z m 30.00332,8.31228 c -7.04965,0 -14.0993,0 -21.14895,0 3.50824,-7.808 7.01814,-15.61814 10.52471,-23.42824 3.54142,7.76776 7.08449,15.53547 10.62424,23.29902 0,0.0468 0,0.0827 0,0.12901 z m 9.73516,-6.92868 c -1.27723,-0.80938 -2.10992,-4.45807 -2.84972,-6.0451 -2.65564,-5.87562 -5.31129,-11.75546 -7.96859,-17.63104 6.9833,0.0417 13.96827,0.0806 20.95323,0.12276 0.13104,0 0.26041,0 0.3898,0 -3.50492,7.85038 -7.01482,15.70286 -10.52472,23.55325 z"
         clip-rule="evenodd" />
    </g>
  </g>
</svg>
