<?xml version="1.0" encoding="UTF-8" standalone="no"?>
<!-- Created with Inkscape (http://www.inkscape.org/) -->

<svg
   xmlns:dc="http://purl.org/dc/elements/1.1/"
   xmlns:cc="http://creativecommons.org/ns#"
   xmlns:rdf="http://www.w3.org/1999/02/22-rdf-syntax-ns#"
   xmlns:svg="http://www.w3.org/2000/svg"
   xmlns="http://www.w3.org/2000/svg"
   xmlns:sodipodi="http://sodipodi.sourceforge.net/DTD/sodipodi-0.dtd"
   xmlns:inkscape="http://www.inkscape.org/namespaces/inkscape"
   width="48"
   height="48"
   id="svg4160"
   version="1.1"
   inkscape:version="0.48.2 r9819"
   sodipodi:docname="Snowflake-18.svg">
  <defs
     id="defs4162" />
  <sodipodi:namedview
     id="base"
     pagecolor="#ffffff"
     bordercolor="#666666"
     borderopacity="1.0"
     inkscape:pageopacity="0.0"
     inkscape:pageshadow="2"
     inkscape:zoom="11.2"
     inkscape:cx="6.1785716"
     inkscape:cy="15.458561"
     inkscape:document-units="px"
     inkscape:current-layer="layer1"
     showgrid="false"
     fit-margin-top="0"
     fit-margin-left="0"
     fit-margin-right="0"
     fit-margin-bottom="0"
     inkscape:window-width="1600"
     inkscape:window-height="1181"
     inkscape:window-x="-4"
     inkscape:window-y="-4"
     inkscape:window-maximized="1" />
  <metadata
     id="metadata4165">
    <rdf:RDF>
      <cc:Work
         rdf:about="">
        <dc:format>image/svg+xml</dc:format>
        <dc:type
           rdf:resource="http://purl.org/dc/dcmitype/StillImage" />
        <dc:title />
      </cc:Work>
    </rdf:RDF>
  </metadata>
  <g
     inkscape:label="Layer 1"
     inkscape:groupmode="layer"
     id="layer1"
     transform="translate(-91.528107,-104.27354)">
    <g
       id="g34"
       style="fill:none;stroke:#000000;stroke-width:0.12586391;stroke-miterlimit:4;stroke-opacity:1;stroke-dasharray:none"
       transform="matrix(0.84293874,0,0,0.74886161,-61.41929,-0.91100758)">
      <path
         style="fill:none;stroke:#000000;stroke-width:0.12586391;stroke-miterlimit:4;stroke-opacity:1;stroke-dasharray:none"
         inkscape:connector-curvature="0"
         id="path36"
         d="m 237.889,184.394 c -0.787,-0.13 -2.348,0.461 -3.132,0.687 -0.268,0.063 -0.535,0.127 -0.803,0.191 -0.446,-0.254 -0.892,-0.509 -1.337,-0.764 0,-0.051 0,-0.101 0,-0.152 0.013,-0.025 0.025,-0.051 0.038,-0.077 1.009,-0.223 5.001,-0.827 4.24,-2.329 -0.332,-0.655 -1.217,-0.482 -1.91,-0.267 -1.668,0.445 -3.337,0.89 -5.004,1.335 -1.171,-0.687 -2.344,-1.373 -3.516,-2.061 -0.677,-0.743 -0.969,-1.774 -1.757,-2.405 -2.855,-2.283 -6.432,-5.017 -10.507,-5.992 0.014,-0.077 0.025,-0.153 0.039,-0.229 4.044,-0.957 7.417,-3.38 10.239,-5.649 0.812,-0.652 1.23,-1.529 1.834,-2.404 0.177,-0.258 3.321,-2.144 3.706,-2.252 0.412,-0.116 1.049,0.247 1.375,0.344 1.235,0.331 2.47,0.662 3.706,0.992 0.769,0.231 1.641,0.283 1.911,-0.458 0.166,-0.46 -0.154,-0.943 -0.421,-1.106 -1.286,-0.344 -2.572,-0.688 -3.858,-1.031 -0.026,-0.077 -0.051,-0.153 -0.077,-0.229 1.429,-1.371 2.99,-0.218 4.775,0.114 0.607,0.113 0.983,-0.314 0.84,-0.84 -0.237,-0.513 -1.673,-0.824 -2.33,-0.878 -0.026,-0.076 -0.051,-0.152 -0.077,-0.229 0.496,-0.497 2.526,-0.961 1.833,-2.175 -0.669,-1.173 -2.135,0.25 -2.827,0.496 -0.051,-0.051 -0.102,-0.102 -0.153,-0.153 0.225,-0.577 1.112,-3.109 -0.344,-2.671 -0.561,0.273 -0.572,1.305 -0.765,1.947 -0.427,1.433 -0.232,1.714 -1.451,2.442 -0.272,0.163 -0.354,0.326 -0.649,0.191 0.197,-1.107 1.729,-4.421 0.305,-4.848 -0.984,-0.294 -1.124,0.712 -1.298,1.297 -0.484,1.731 -0.968,3.461 -1.453,5.191 -1.221,0.687 -2.445,1.375 -3.667,2.061 -0.509,0.013 -1.019,0.025 -1.529,0.039 -0.738,0.191 -1.476,0.381 -2.215,0.572 -3.017,0.956 -5.702,2.789 -7.984,4.542 -0.497,0.407 -0.993,0.814 -1.49,1.221 -0.039,0 -0.077,0 -0.115,0 -0.207,-0.515 0.243,-1.629 0.344,-2.252 0.279,-1.725 0.402,-3.919 0.229,-5.916 -0.147,-1.696 -0.238,-3.412 -0.765,-4.771 -0.25,-0.647 -0.802,-1.292 -0.955,-1.909 0,-1.386 0,-2.773 0,-4.16 1.159,-1.183 2.317,-2.366 3.477,-3.549 0.35,-0.35 1.238,-0.874 0.955,-1.679 -0.173,-0.493 -0.854,-0.83 -1.414,-0.496 -0.929,0.928 -1.859,1.857 -2.789,2.786 -0.051,0 -0.102,0 -0.153,0 -1.094,-2.452 2.964,-3.283 2.598,-4.848 -0.091,-0.237 -0.237,-0.384 -0.535,-0.42 -0.375,-0.093 -1.679,1.286 -1.91,1.603 -0.039,0 -0.077,0 -0.115,0 -0.026,-0.038 -0.052,-0.077 -0.076,-0.114 -0.455,-1.267 0.503,-2.625 -1.261,-2.596 -0.867,0.549 -0.719,1.222 -0.688,2.596 -0.039,0.025 -0.076,0.051 -0.115,0.076 -0.025,0.012 -0.051,0.025 -0.077,0.038 -0.416,-0.326 -1.486,-1.869 -2.178,-1.488 -1.355,0.626 2.056,2.939 2.331,3.512 0.013,0.521 0.026,1.043 0.039,1.565 -0.039,0.025 -0.076,0.051 -0.115,0.076 -0.025,0.013 -0.051,0.025 -0.077,0.038 -0.724,-0.558 -2.863,-3.621 -4.011,-2.672 -0.718,0.594 0.037,1.411 0.421,1.794 1.26,1.26 2.521,2.52 3.782,3.778 0,0.7 0,1.4 0,2.099 0,0.726 0,1.452 0,2.176 -0.229,0.419 -0.459,0.839 -0.688,1.26 -0.352,0.851 -0.572,1.896 -0.765,2.862 -0.378,1.907 -0.455,6.042 -0.114,7.9 0.141,0.84 0.28,1.68 0.42,2.52 -0.026,0.026 -0.051,0.051 -0.077,0.077 -0.663,-0.176 -1.599,-1.304 -2.178,-1.717 -1.524,-1.091 -3.346,-2.303 -5.12,-3.054 -1.208,-0.511 -2.429,-1.027 -3.821,-1.335 -0.7,-0.064 -1.4,-0.127 -2.101,-0.191 -1.196,-0.674 -2.394,-1.349 -3.591,-2.023 -0.364,-0.264 -0.397,-1.042 -0.535,-1.526 -0.344,-1.234 -0.688,-2.468 -1.032,-3.703 -0.188,-0.636 -0.421,-1.656 -1.413,-1.297 -1.557,0.562 0.609,3.724 0.344,4.886 -0.038,0.012 -0.077,0.024 -0.115,0.038 -0.402,-0.212 -1.222,-0.541 -1.413,-0.955 -0.507,-1.095 -0.329,-3.286 -1.414,-3.779 -0.358,0.011 -0.448,0.119 -0.648,0.268 -0.199,0.833 0.317,1.686 0.458,2.48 -0.026,0.038 -0.051,0.077 -0.077,0.114 -0.559,-0.054 -2.773,-2.016 -2.98,-0.076 -0.219,0.665 1.383,1.507 1.873,1.68 0.058,0.121 0.074,0.157 0.039,0.305 -0.854,0.187 -2.093,0.315 -2.407,1.069 0.024,0.36 0.15,0.469 0.344,0.648 1.991,0.341 3.512,-1.876 5.311,-0.076 -0.257,0.953 -5.091,0.471 -4.318,2.442 0.275,0.702 1.147,0.601 1.872,0.382 1.236,-0.331 2.47,-0.662 3.706,-0.993 0.328,-0.099 0.952,-0.459 1.375,-0.343 0.385,0.105 3.489,1.956 3.667,2.214 0.623,0.899 1.036,1.736 1.834,2.442 2.19,1.938 4.809,3.523 7.716,4.733 0.777,0.323 1.659,0.821 2.599,0.954 0,0.077 0,0.153 0,0.229 -3.709,0.98 -7.04,3.14 -9.703,5.267 -1.018,0.811 -1.573,1.864 -2.408,2.862 -1.247,0.738 -2.496,1.476 -3.744,2.214 -0.375,0.139 -1.028,-0.207 -1.375,-0.306 -1.235,-0.331 -2.47,-0.661 -3.706,-0.992 -0.714,-0.205 -1.602,-0.328 -1.909,0.343 -0.856,1.863 3.704,1.563 4.316,2.405 -0.839,1.249 -2.512,0.58 -3.821,0.191 -0.727,-0.216 -1.479,-0.459 -1.834,0.229 0.013,0.114 0.026,0.229 0.039,0.344 0.201,0.545 1.714,0.857 2.369,0.916 0.013,0.038 0.026,0.077 0.039,0.114 -0.259,0.792 -2.232,0.695 -1.949,1.984 0.345,1.571 2.272,0.167 2.903,-0.229 0.472,0.393 -1.23,3.294 0.498,2.863 0.708,-0.303 0.937,-2.843 1.26,-3.703 0.166,-0.443 1.045,-0.774 1.452,-0.992 0.274,0.219 0.024,0.829 -0.077,1.183 -0.274,0.966 -1.41,3.435 0.039,3.779 0.995,0.236 1.072,-0.855 1.261,-1.488 0.344,-1.221 0.688,-2.443 1.032,-3.665 0.117,-0.396 0.129,-1.143 0.42,-1.374 1.171,-0.662 2.343,-1.323 3.515,-1.984 0.509,0 1.019,0 1.528,0 0.941,-0.166 1.767,-0.354 2.598,-0.648 2.855,-1.012 7.421,-3.691 9.208,-5.764 0.051,0 0.102,0 0.153,0 0.072,0.845 -0.274,1.941 -0.42,2.787 -0.236,1.364 -0.299,3.669 -0.076,5.153 0,0.356 0,0.713 0,1.068 0.186,1.179 0.249,2.336 0.573,3.396 0.234,0.768 0.713,1.461 0.955,2.138 0.013,1.475 0.025,2.952 0.039,4.427 -1.21,1.234 -2.42,2.468 -3.63,3.703 -0.39,0.389 -1.237,1.105 -0.649,1.87 0.265,0.345 0.914,0.431 1.298,0.152 0.917,-0.915 1.834,-1.832 2.751,-2.748 0.051,0 0.102,0 0.153,0 1.031,2.345 -2.95,3.493 -2.636,4.809 0.357,1.499 2.195,-0.891 2.521,-1.146 0.039,0.014 0.077,0.026 0.115,0.039 0.403,0.94 -0.285,2.229 0.649,2.633 1.498,0.649 1.428,-1.616 1.298,-2.557 0.077,-0.039 0.154,-0.076 0.23,-0.115 0.442,0.347 1.452,1.799 2.101,1.527 0.293,-0.122 0.434,-0.33 0.42,-0.763 -0.903,-0.954 -1.808,-1.909 -2.712,-2.863 0,-0.497 0,-0.992 0,-1.488 0.077,-0.119 0.018,-0.083 0.191,-0.115 0.665,0.513 2.844,3.506 3.896,2.749 0.773,-0.556 0.159,-1.407 -0.267,-1.833 -1.273,-1.271 -2.547,-2.544 -3.821,-3.816 0,-0.496 0,-0.993 0,-1.488 0,-0.84 0,-1.68 0,-2.519 0.153,-0.242 0.306,-0.484 0.458,-0.726 0.356,-0.587 0.598,-1.361 0.803,-2.061 0.89,-3.034 0.813,-9.273 -0.153,-12.137 0.014,-0.167 0.022,-0.177 0.076,-0.268 0.574,0.509 1.147,1.019 1.72,1.528 1.982,1.457 4.204,2.988 6.61,3.969 1.017,0.415 2.042,0.778 3.209,1.03 0.624,0.038 1.248,0.077 1.871,0.114 1.185,0.674 2.37,1.35 3.554,2.024 0.321,0.243 0.329,0.98 0.458,1.411 0.331,1.184 0.662,2.367 0.993,3.55 0.191,0.681 0.305,1.821 1.375,1.565 1.34,-0.322 0.05,-3.755 -0.305,-4.771 0.038,-0.05 0.076,-0.102 0.115,-0.152 1.487,0.269 1.614,1.587 2.024,2.938 0.205,0.675 0.167,1.622 0.917,1.756 0.243,0.081 0.455,-0.142 0.611,-0.267 0.196,-0.839 -0.364,-1.649 -0.458,-2.482 0.039,-0.038 0.076,-0.076 0.115,-0.114 0.706,0.196 2.059,1.625 2.789,0.573 0.748,-1.078 -1.094,-1.966 -1.758,-2.175 -0.025,-0.039 -0.051,-0.077 -0.077,-0.115 0.4,-0.632 3.661,-0.424 2.105,-1.904 z m -32.016,-8.13 c -1.312,1.63 -4.349,3.327 -6.532,4.083 -0.802,0.279 -2.484,0.696 -3.133,0 0.118,-1.163 0.992,-1.974 1.719,-2.557 1.45,-1.161 3.063,-2.315 4.928,-3.053 0.625,-0.217 1.248,-0.433 1.873,-0.649 0.343,-0.063 0.687,-0.128 1.031,-0.191 2.37,-0.056 0.674,1.671 0.114,2.367 z m 1.223,-5.534 c -0.97,0.7 -2.88,-0.029 -3.744,-0.344 -2.652,-0.969 -6.31,-2.923 -7.183,-5.611 0.064,-0.102 0.128,-0.203 0.191,-0.306 0.178,-0.051 0.356,-0.102 0.535,-0.152 3.603,0.005 5.982,1.971 8.062,3.588 0.854,0.664 1.964,1.475 2.178,2.749 -0.014,0.024 -0.026,0.05 -0.039,0.076 z m 3.019,17.596 c -1.054,-0.082 -1.328,-1.752 -1.568,-2.71 -0.711,-2.852 -0.376,-8.337 1.3,-9.733 0.858,0.148 1.134,1.529 1.375,2.329 0.801,2.661 0.848,8.836 -1.107,10.114 z m 1.221,-22.023 c -0.221,0.952 -0.508,2.505 -1.375,2.786 -0.723,0.129 -1.212,-1.999 -1.375,-2.749 -0.7,-3.211 -0.54,-7.915 1.299,-9.656 0.089,0 0.179,0 0.268,0 1.721,1.881 1.926,6.415 1.183,9.619 z m 8.52,-1.374 c 0.713,-0.204 1.426,-0.408 2.14,-0.611 0.781,-0.024 1.552,-0.068 1.795,0.458 -0.927,2.858 -5.15,5.046 -8.099,5.955 -0.782,0.24 -1.723,0.292 -2.636,0.19 -0.076,-0.103 -0.153,-0.204 -0.229,-0.306 0.789,-2.493 4.644,-4.69 7.029,-5.686 z m 0.306,15.267 c -2.134,-0.904 -6.878,-3.55 -7.259,-5.917 0.141,-0.273 0.25,-0.252 0.535,-0.381 3.417,0.004 6.467,2.177 8.443,3.74 0.791,0.625 1.729,1.463 1.872,2.709 -0.756,0.783 -2.762,0.2 -3.591,-0.151 z"
         clip-rule="evenodd" />
    </g>
  </g>
</svg>
