<?xml version="1.0" encoding="UTF-8" standalone="no"?>
<!-- Created with Inkscape (http://www.inkscape.org/) -->

<svg
   xmlns:dc="http://purl.org/dc/elements/1.1/"
   xmlns:cc="http://creativecommons.org/ns#"
   xmlns:rdf="http://www.w3.org/1999/02/22-rdf-syntax-ns#"
   xmlns:svg="http://www.w3.org/2000/svg"
   xmlns="http://www.w3.org/2000/svg"
   xmlns:sodipodi="http://sodipodi.sourceforge.net/DTD/sodipodi-0.dtd"
   xmlns:inkscape="http://www.inkscape.org/namespaces/inkscape"
   width="48"
   height="48"
   id="svg4160"
   version="1.1"
   inkscape:version="0.48.2 r9819"
   sodipodi:docname="Snowflake-11.svg">
  <defs
     id="defs4162" />
  <sodipodi:namedview
     id="base"
     pagecolor="#ffffff"
     bordercolor="#666666"
     borderopacity="1.0"
     inkscape:pageopacity="0.0"
     inkscape:pageshadow="2"
     inkscape:zoom="11.2"
     inkscape:cx="37.010944"
     inkscape:cy="15.458561"
     inkscape:document-units="px"
     inkscape:current-layer="g198"
     showgrid="false"
     fit-margin-top="0"
     fit-margin-left="0"
     fit-margin-right="0"
     fit-margin-bottom="0"
     inkscape:window-width="1585"
     inkscape:window-height="1092"
     inkscape:window-x="2"
     inkscape:window-y="2"
     inkscape:window-maximized="0" />
  <metadata
     id="metadata4165">
    <rdf:RDF>
      <cc:Work
         rdf:about="">
        <dc:format>image/svg+xml</dc:format>
        <dc:type
           rdf:resource="http://purl.org/dc/dcmitype/StillImage" />
        <dc:title />
      </cc:Work>
    </rdf:RDF>
  </metadata>
  <g
     inkscape:label="Layer 1"
     inkscape:groupmode="layer"
     id="layer1"
     transform="translate(-91.528107,-104.27354)">
    <g
       id="g198"
       style="fill:none;stroke:#000000;stroke-width:0.28859234;stroke-miterlimit:4;stroke-opacity:1;stroke-dasharray:none"
       transform="matrix(0.29235908,0,0,0.26301072,21.763738,20.045528)">
      <path
         style="fill:none;stroke:#000000;stroke-width:0.3606243;stroke-miterlimit:4;stroke-opacity:1;stroke-dasharray:none"
         inkscape:connector-curvature="0"
         id="path182"
         d="m 402.69221,410.3562 c -0.30177,-0.30468 -0.60705,-0.61415 -0.91059,-0.92073 -1.49599,-0.10746 -2.98931,-0.21454 -4.48616,-0.32198 -0.0289,-0.069 -0.0616,-0.13578 -0.091,-0.20665 1.3158,-1.18249 2.63248,-2.36396 3.95093,-3.54546 0.002,-0.67931 0.004,-1.3587 0.007,-2.03607 -2.51633,-3.82549 -7.77896,-0.58592 -10.25993,1.0777 -0.0299,-1.2e-4 -0.0599,-2.4e-4 -0.0917,-3.8e-4 0.85661,-0.88005 1.71675,-1.75806 2.57337,-2.63612 0.002,-0.71275 0.005,-1.42547 0.007,-2.13821 -4.40879,-6.53507 -13.06433,4.93905 -16.04563,6.54953 1.13622,-1.58963 2.27064,-3.1793 3.40507,-4.76897 0.97413,-0.907 2.4625,-1.94149 3.03186,-3.24682 0.0316,-0.74304 0.0641,-1.491 0.0992,-2.23696 -0.55925,-0.66795 -1.21935,-1.78002 -2.09862,-2.04484 -2.11301,-0.63705 -3.38704,0.98147 -4.40119,1.71359 -1.43616,1.01115 -2.87499,2.02424 -4.31119,3.03535 -1.47053,1.52153 -2.93932,3.04107 -4.40987,4.56257 1.53199,-3.25207 4.27638,-6.34497 6.80235,-8.52479 1.31207,-1.12845 3.30666,-2.01655 2.58248,-5.07964 -1.56559,-4.08756 -6.12992,-1.11019 -8.2409,0.27214 -4.95012,3.23986 -9.07914,7.49824 -13.04167,11.85551 -1.28569,1.41529 -2.76144,2.6383 -3.85799,4.25856 -0.27546,-10e-4 -0.55088,-0.002 -0.82541,-0.003 -1.99873,-4.9592 -3.99481,-9.92428 -5.9909,-14.88936 0.30684,-0.40223 0.61276,-0.80838 0.9187,-1.21452 8.0729,0.0708 15.79874,-0.083 22.16287,-1.94441 2.27453,-0.66406 5.46702,-0.75489 6.14239,-3.13185 0.52078,-1.81997 -0.33323,-3.81351 -1.08168,-4.38111 -1.36927,-1.03451 -4.03361,-0.22295 -5.58447,-0.0231 -3.21564,0.41474 -6.74323,-0.65229 -9.42644,-1.05608 1.28028,-0.0636 2.56315,-0.12681 3.84429,-0.18626 4.34508,-0.77628 13.90961,0.16574 12.28937,-6.56609 -0.39386,-0.47778 -0.78951,-0.95654 -1.18517,-1.42942 -3.48818,-0.71835 -7.49858,0.56195 -10.52444,-0.85939 -0.0628,-2.6e-4 -0.12359,-5.1e-4 -0.18439,-7.7e-4 0.95315,-0.45748 2.454,0.0416 3.66332,-0.18796 3.97335,-0.75714 10.38249,-0.77285 12.37282,-3.81784 0.48985,-0.74996 0.37762,-2.29374 0.37922,-3.56215 -0.36587,-0.40892 -0.7326,-0.81589 -1.09494,-1.22482 -1.52724,-0.006 -3.05178,-0.0126 -4.57988,-0.019 4.00994,-1.92628 8.84411,-0.60939 8.8133,-7.19211 -0.33522,-0.34106 -0.66777,-0.68112 -1.00295,-1.02121 -1.05773,-0.48644 -4.09388,-0.16033 -5.21883,0.18151 -0.0306,-0.0667 -0.0603,-0.13577 -0.0892,-0.20348 0.94658,-1.11727 1.89753,-2.23249 2.84765,-3.34875 0.002,-0.71271 0.005,-1.42449 0.007,-2.1372 -0.39566,-0.47583 -0.78954,-0.95264 -1.18696,-1.4304 -2.9237,-0.0341 -3.41507,1.96507 -5.13639,3.23811 0.12791,-2.03755 0.2575,-4.07315 0.38689,-6.10779 -0.27443,-0.30739 -0.54703,-0.61585 -0.82142,-0.92033 -4.25814,-0.13838 -4.69615,2.00785 -5.78535,5.37268 -0.37046,1.21777 -0.74181,2.43852 -1.11138,3.66023 -0.0609,0.0322 -0.12127,0.0652 -0.1822,0.10057 0.0348,-1.45873 0.0705,-2.91842 0.10578,-4.3791 -0.30495,-0.40673 -0.60728,-0.81539 -0.91047,-1.22409 -1.40792,-0.0382 -2.763,-0.0438 -3.57378,0.59684 -2.5793,2.0343 -3.80587,11.86236 -3.72052,17.18866 -1.53648,-2.2359 -0.0994,-8.45224 -0.7837,-11.60941 -0.20589,-0.50842 -0.63492,-0.99908 -1.09498,-1.22583 -0.94632,-0.004 -1.89267,-0.008 -2.83902,-0.0117 -2.81215,1.45704 -3.42832,12.20359 -3.35396,17.39242 -0.0612,0.034 -0.12214,0.0693 -0.18304,0.10149 -0.21067,-1.18881 -0.41753,-2.37658 -0.6298,-3.56634 -0.0556,-1.52783 -0.11163,-3.0517 -0.16815,-4.57955 0.13153,-2.61089 0.26306,-5.2257 0.3945,-7.83662 -1.10425,-1.3466 -1.70422,-1.71134 -4.20628,-1.6461 -4.88126,4.81683 -4.75171,21.15945 -4.68351,31.33258 -0.27639,0.27084 -0.55093,0.54158 -0.82729,0.81237 -4.5095,-1.78286 -9.01987,-3.56572 -13.53111,-5.35056 -0.0277,-0.67749 -0.0553,-1.35599 -0.0842,-2.0345 2.29596,-2.56954 4.59634,-5.13905 6.88966,-7.70857 2.81823,-3.52065 5.51736,-7.31864 7.82183,-11.36959 1.32052,-2.32322 4.02909,-7.09508 0.12146,-8.85578 -1.74621,-0.77593 -3.06792,0.59104 -3.75926,1.40894 -2.76709,3.27343 -5.1702,6.73495 -8.82032,9.02396 1.47312,-1.75906 2.94272,-3.51912 4.41318,-5.27724 0.85842,-1.41898 1.71952,-2.8419 2.57622,-4.26383 0.82477,-1.38281 2.31532,-2.8149 1.66752,-5.49087 -0.4298,-1.09052 -2.0361,-3.04201 -3.93125,-2.05141 -0.76315,0.91278 -1.53161,1.82558 -2.29564,2.73742 -1.7142,1.52048 -3.42929,3.03999 -5.14172,4.56148 2.40039,-3.43697 4.90081,-6.42778 6.99212,-10.35592 0.58903,-1.10497 1.89726,-2.9266 1.29747,-5.1851 -0.54479,-0.74935 -1.09138,-1.49776 -1.63971,-2.24713 -3.05162,-0.0639 -2.99085,1.55545 -4.58804,2.93406 0.80273,-2.44609 5.54235,-8.45636 1.59365,-11.09001 -0.3486,-0.29197 -1.3456,-0.19014 -1.82984,-0.31382 -1.22392,1.42239 -2.44962,2.84182 -3.6753,4.26125 -0.086,-1.69779 -0.17213,-3.39359 -0.2575,-5.09138 -0.30518,-0.34095 -0.6077,-0.67991 -0.91291,-1.02088 -0.76273,-0.003 -1.52454,-0.006 -2.28814,-0.009 -0.30748,0.33844 -0.61141,0.67488 -0.91976,1.01329 -0.0969,1.72942 -0.19348,3.45982 -0.29293,5.18926 -1.12317,-1.49688 -2.2481,-2.9938 -3.37128,-4.49267 -0.57999,-0.002 -1.15818,-0.005 -1.73995,-0.007 -4.06851,3.32307 -0.0167,8.33982 0.96966,11.71129 -0.77906,-0.91819 -1.49624,-2.39474 -2.55455,-2.96266 -0.57899,-0.0367 -1.1571,-0.0737 -1.73963,-0.10938 -4.31929,4.65425 1.41458,11.97626 3.79284,15.38586 0.69981,0.85212 1.40055,1.70421 2.09861,2.55531 -1.46019,-1.29506 -2.92129,-2.59109 -4.38058,-3.88619 -0.79714,-1.05964 -1.67812,-2.64586 -2.82896,-3.26813 -0.69993,-0.0372 -1.40075,-0.0747 -2.10421,-0.11153 -0.55127,0.64368 -1.10251,1.28544 -1.65553,1.92913 -0.8964,5.09643 6.17136,11.88008 8.18987,14.89746 -2.02583,-0.84188 -5.46077,-4.51506 -6.75233,-6.34252 -0.81272,-1.14513 -1.88058,-3.60976 -3.19082,-4.0825 -0.76449,-0.003 -1.5272,-0.006 -2.28995,-0.009 -3.35037,3.46737 -1.43757,5.89922 0.42725,9.46968 2.83316,5.42602 6.7154,9.96892 10.57191,14.29378 1.27172,1.42973 2.375,3.06692 3.83014,4.29229 -0.0342,0.745 -0.067,1.49297 -0.0986,2.23896 -4.18857,2.01684 -8.37627,4.03562 -12.56306,6.0554 -0.64064,-0.6123 -1.27861,-1.22658 -1.91658,-1.8379 0.20635,-8.62964 -0.20231,-17.80276 -1.74734,-24.84924 -0.58345,-2.65312 -0.66004,-5.33753 -2.63295,-6.42363 -1.6985,-0.7846 -3.71139,0.30173 -4.21622,1.30593 -0.71452,1.41861 0.0328,4.22261 0.0719,5.70226 0.10818,4.07957 -0.69967,7.50056 -0.86202,10.89083 -0.0308,-1.4e-4 -0.0607,-2.6e-4 -0.0902,-3.8e-4 -0.56761,-5.26548 0.0452,-15.86675 -2.96239,-17.93102 -0.62799,-0.43065 -2.17447,-0.22 -3.11112,-0.21507 -0.42809,0.50679 -0.85795,1.0116 -1.28693,1.52034 0.024,1.79863 0.0486,3.59727 0.0726,5.39496 -0.283,2.23915 -0.56415,4.47735 -0.84624,6.71552 -0.0251,-1.42264 -0.0532,-2.84826 -0.0773,-4.27483 -0.62379,-4.0454 -1.05583,-12.59815 -3.70634,-14.06407 -1.03706,-0.07 -2.07585,-0.1441 -3.11199,-0.216 -1.2605,1.79237 -0.98008,2.93724 -0.93478,6.00145 -1.57271,-2.22621 -0.75854,-7.02163 -3.17472,-8.86942 -0.86114,-0.65743 -2.06714,-0.36693 -3.29299,-0.72639 -0.33583,0.37068 -0.67345,0.74235 -1.01103,1.11696 0.0553,1.96568 0.10952,3.93526 0.16368,5.90585 -0.0325,-1.4e-4 -0.062,-2.6e-4 -0.0936,-3.9e-4 -1.00467,-1.02515 -2.00765,-2.0464 -3.00971,-3.06764 -0.64003,-0.003 -1.2818,-0.005 -1.92446,-0.008 -0.42786,0.44001 -0.85573,0.87807 -1.28537,1.31907 -0.002,0.64499 -0.004,1.28901 -0.006,1.93301 0.69874,0.91985 1.39657,1.84066 2.09707,2.75758 0.27443,0.30646 0.54791,0.61388 0.82142,0.92032 -1.79953,-0.14297 -3.60081,-0.285 -5.40299,-0.42977 -0.30481,0.33939 -0.60965,0.67683 -0.91799,1.01525 -0.14289,5.74063 4.43499,6.87289 8.48842,7.77226 -2.19326,0.90196 -3.00239,-1.05114 -5.31302,0.89297 -0.0333,1.4931 -0.0836,3.07348 0.44479,3.97397 1.65198,2.81069 10.77053,4.32795 15.36491,4.23503 -1.42984,1.22615 -7.68925,0.83016 -10.25536,0.77239 -0.0291,-1.1e-4 -0.0607,-2.5e-4 -0.0911,-3.8e-4 -5.41766,7.6067 8.70278,8.33665 14.52878,8.20565 -1.1376,0.94957 -7.21708,1.38385 -9.52687,0.97767 -1.19369,-0.2112 -3.40445,-0.92711 -4.75801,-0.32501 -0.42976,0.47238 -0.85776,0.94481 -1.28572,1.41919 -0.44125,2.31899 -0.0111,3.91907 1.2645,4.89135 1.1587,0.37886 2.31738,0.75868 3.47612,1.13554 4.44736,1.62749 9.87607,2.28024 15.73864,2.30451 2.4718,0.0102 4.94268,0.0205 7.41448,0.0307 0.51704,0.61376 1.03226,1.22556 1.55105,1.83837 -1.9678,4.74151 -3.93826,9.48595 -5.90783,14.22648 -0.45825,0.0323 -0.91477,0.066 -1.37307,0.0956 -2.33951,-2.58479 -4.68258,-5.17353 -7.02386,-7.76227 -2.73375,-2.70424 -5.61459,-5.24316 -8.76309,-7.47101 -1.80456,-1.27293 -4.2392,-4.45305 -7.58857,-3.38801 -0.6579,0.33306 -1.4565,1.27909 -1.74504,2.02892 -0.71825,1.99585 0.5135,3.49812 1.26743,4.27977 2.94701,3.07227 6.05336,5.75352 8.11431,9.80487 -3.525,-2.88622 -7.82832,-9.79683 -13.6082,-9.72357 -0.50609,0.59776 -1.5922,1.2049 -1.83773,2.02461 0.0281,0.81497 0.0552,1.63092 0.0845,2.4439 0.84982,0.88711 1.70226,1.77517 2.55207,2.65835 1.33733,1.86788 2.67465,3.74267 4.01018,5.61642 -3.03153,-2.62005 -5.6706,-5.39455 -9.13052,-7.67575 -1.0614,-0.70041 -2.73697,-2.26734 -4.93756,-1.54704 -0.64461,0.57461 -1.28569,1.1512 -1.93028,1.72381 -0.003,0.77951 -0.005,1.56293 -0.008,2.34144 0.88133,0.95495 1.76359,1.90892 2.64583,2.86189 -3.76863,-1.57948 -5.80607,-5.53354 -10.24802,-1.67208 -0.002,0.64697 -0.004,1.29098 -0.006,1.93301 1.09529,1.12571 2.19147,2.24944 3.28412,3.37215 0.15381,0.20691 0.30495,0.41065 0.4561,0.61745 -1.1e-4,0.0324 -2.1e-4,0.0657 -3.4e-4,0.10128 -2.43724,-0.0443 -3.92323,0.0291 -5.4053,1.30004 -0.003,0.84722 -0.006,1.69838 -0.008,2.54658 1.2607,1.03213 3.16227,1.28152 5.48769,1.24206 -1.2e-4,0.0362 -2.4e-4,0.0717 -3.5e-4,0.10218 -1.31516,1.25314 -2.63209,2.50334 -3.94723,3.74962 -0.002,0.64697 -0.004,1.29196 -0.006,1.93305 2.67267,4.06369 7.89037,0.27415 10.53126,-1.17575 -1.22581,1.71985 -2.79844,1.56803 -2.76277,4.87862 5.13532,5.4768 12.59135,-3.69223 16.04384,-6.55151 -1.28773,1.75688 -2.57634,3.51771 -3.86407,5.27462 -0.85572,0.87806 -1.715,1.75907 -2.57073,2.63808 -0.003,0.81188 -0.005,1.63066 -0.008,2.44452 0.52756,0.62557 1.18521,1.69054 2.00622,1.93939 2.27176,0.69072 3.59497,-1.12296 4.67728,-1.91172 1.28301,-0.87826 2.5678,-1.75749 3.85254,-2.62986 1.53083,-1.59389 3.06337,-3.176 4.59421,-4.77186 -1.37346,4.15099 -5.41204,6.72312 -8.08843,9.53654 -0.69192,0.72752 -2.18553,2.54542 -1.20473,4.3765 1.9669,3.66808 6.17533,0.7285 8.33408,-0.67726 3.3496,-2.18816 6.20603,-4.97923 9.18011,-7.59994 1.19456,-1.35087 2.39,-2.70463 3.58278,-4.05745 1.40519,-1.24493 2.89065,-2.7369 3.95279,-4.35828 0.48809,0.0353 0.97526,0.068 1.46334,0.10734 0.82877,0.57282 1.15085,2.71532 1.54456,3.77232 1.33145,3.60359 2.6621,7.20325 3.99358,10.80686 -0.36883,0.47265 -0.73677,0.94827 -1.10562,1.42386 -7.64509,0.5574 -15.63666,0.19059 -22.06932,1.94283 -2.39722,0.65472 -5.06784,0.71728 -6.05252,2.928 -0.004,1.08385 -0.007,2.16966 -0.0109,3.25545 0.2329,0.54876 0.93448,1.43033 1.4608,1.63572 1.6919,0.65299 3.83304,-0.24417 5.40187,-0.2839 3.151,-0.0882 6.41178,0.50466 9.06099,1.05654 -1.22112,0.0638 -2.44313,0.12541 -3.66335,0.18703 -3.6578,0.63965 -10.75115,0.41198 -12.27862,3.10942 -0.39962,0.70028 -0.19563,2.49867 -0.19382,3.558 0.3992,0.47484 0.82563,1.24234 1.45886,1.43249 1.52556,-0.0279 3.05288,-0.0562 4.57753,-0.0832 1.95271,0.27723 3.90628,0.55807 5.85716,0.8381 -0.83346,0.55516 -2.52203,-0.0262 -3.66333,0.18606 -4.26398,0.8129 -14.21316,0.85127 -12.65932,7.37642 0.75564,1.8449 3.36431,1.31279 5.67214,1.24972 -3.95071,1.899 -8.93421,0.63256 -8.90562,7.08761 0.3669,0.37362 0.73109,0.75015 1.09532,1.12571 1.74007,-0.027 3.47835,-0.0523 5.2202,-0.0806 -1.17196,1.73089 -2.89648,2.37465 -2.85837,5.48399 0.42553,0.51325 0.852,1.02256 1.27753,1.53189 0.5491,0.002 1.09909,0.004 1.64817,0.007 1.01043,-0.94515 2.02089,-1.88936 3.02956,-2.83549 0.1232,-0.13501 0.24557,-0.27096 0.36949,-0.40589 0.03,1.2e-4 0.0611,2.6e-4 0.0908,3.8e-4 -0.1585,1.96773 -0.3169,3.93643 -0.478,5.90321 0.30507,0.37531 0.60835,0.7496 0.91254,1.12685 5.76765,0.15343 5.03842,-4.82697 6.89552,-8.93377 0.0318,-0.0688 0.0624,-0.13525 0.0926,-0.1999 -0.0358,1.48815 -0.0707,2.98125 -0.10692,4.47629 0.30504,0.37529 0.60749,0.74962 0.91342,1.12593 1.13341,0.0299 2.39994,0.11401 3.20463,-0.29393 2.86428,-1.45293 4.16867,-12.1014 4.08667,-17.38843 0.0607,2.5e-4 0.12274,5.1e-4 0.18354,7.6e-4 0.2355,2.1363 0.47381,4.27649 0.70941,6.41372 0.062,1.51609 -0.45567,3.44701 -0.10752,4.98486 0.36472,0.48159 0.73038,0.95432 1.09426,1.43297 0.93835,0.0227 2.58664,0.2434 3.20517,-0.19206 2.72636,-1.92273 2.82342,-12.66948 3.07977,-17.49367 1.26786,3.09869 1.10558,9.35175 0.50527,13.03079 -0.34343,2.10344 0.20999,3.99851 1.26728,4.58801 1.00715,0.0356 2.01427,0.0741 3.02141,0.1138 4.72957,-5.64899 4.75283,-20.70098 4.59052,-31.23575 0.36859,-0.40199 0.73631,-0.80787 1.10492,-1.21575 4.32676,1.78507 8.65441,3.56324 12.98026,5.34926 0.47376,0.35636 0.41361,1.43899 0.35846,2.34488 -1.92997,2.1617 -3.85822,4.32532 -5.78821,6.48697 -2.5764,3.53442 -5.39087,6.7213 -7.63404,10.65862 -1.54696,2.71398 -3.38479,4.24967 -3.32697,8.84547 0.60783,0.64164 1.21567,1.29307 1.82439,1.93864 3.34429,0.70496 4.25236,-2.08533 5.59693,-3.94211 1.77917,-2.46465 4.63573,-4.77759 7.0709,-6.48949 -1.37742,1.65444 -2.75576,3.31671 -4.13494,4.9711 -1.35075,2.1307 -2.70154,4.26335 -4.0497,6.395 -1.22632,2.14593 -0.30428,4.9104 1.35356,5.70856 0.52359,0.23485 1.8753,0.1892 2.28765,-0.0918 0.82969,-1.01758 1.65763,-2.02928 2.48378,-3.0449 1.59194,-1.38553 3.18209,-2.77302 4.77579,-4.1536 -2.33504,3.42639 -4.83885,6.37206 -6.90175,10.2542 -0.60409,1.12943 -2.11555,3.26829 -1.30117,5.49433 0.51681,0.67757 1.03272,1.35906 1.54953,2.0386 0.67266,0.003 1.34359,0.005 2.01625,0.008 0.89483,-0.9584 1.68682,-2.30501 2.75661,-3.04375 -1.17213,2.03324 -5.60523,9.29646 -1.50554,11.39768 0.52073,0.0345 1.03882,0.075 1.55778,0.10927 1.19276,-1.35379 2.38908,-2.70757 3.58188,-4.05548 0.0327,-0.0688 0.0612,-0.13715 0.0935,-0.20588 0.0854,1.66147 0.17067,3.32688 0.25785,4.98835 0.33521,0.34204 0.66777,0.68209 1.00559,1.02321 0.70084,0.0363 1.40077,0.0715 2.10334,0.10999 0.0317,1.3e-4 0.0607,2.5e-4 0.0911,3.7e-4 0.99432,-1.40271 1.21886,-3.5989 1.21263,-6.20251 1.32739,1.15019 1.91964,3.54319 3.46342,4.39194 0.54898,0.0356 1.09798,0.0721 1.64872,0.10872 3.97643,-3.24585 0.18645,-8.43535 -0.9679,-11.71521 0.81945,0.99005 1.64067,1.97816 2.46186,2.96425 0.60812,0.0368 1.22067,0.0717 1.82877,0.10976 5.15091,-5.45484 -3.35359,-14.20889 -5.88969,-17.94019 1.61236,1.46061 3.22559,2.93009 4.83618,4.39563 0.66339,0.9197 1.38821,2.22447 2.37427,2.75674 0.70079,0.0372 1.40338,0.0766 2.10418,0.1109 0.58229,-0.67402 1.16456,-1.3539 1.74682,-2.02695 0.71802,-2.45335 -0.8459,-4.13959 -1.53889,-5.19587 -0.85202,-1.53307 -1.69966,-3.05927 -2.54906,-4.59332 -1.39715,-1.66592 -2.79606,-3.33968 -4.19409,-5.00557 2.12719,0.88842 5.58842,4.62454 6.93615,6.54746 0.81707,1.16282 1.65117,3.0512 2.82372,3.77571 1.84384,1.13761 3.79082,-0.81782 4.21792,-1.81352 1.01306,-2.77904 -1.73031,-6.56321 -2.53833,-8.05588 -2.36176,-4.36872 -5.23609,-8.31835 -8.38113,-11.84211 -1.85558,-2.11353 -3.70941,-4.22309 -5.56415,-6.33071 0.0323,-0.68122 0.0683,-1.36043 0.0979,-2.03967 4.3127,-1.91518 8.621,-3.83042 12.92843,-5.74661 0.49009,0.4762 0.97492,0.95338 1.46237,1.42858 -0.046,8.65685 0.0987,17.64432 1.65762,24.2353 0.67282,2.8469 0.56551,5.87805 2.72271,7.03466 1.60239,0.74392 3.57861,-0.19145 4.1237,-1.10017 0.7191,-1.2026 0.19994,-4.28449 0.0189,-5.60173 -0.54199,-3.94885 0.75414,-7.68197 0.86239,-10.98901 0.0592,-0.0322 0.12013,-0.0661 0.18219,-0.10056 -0.0485,5.00667 0.36866,16.1129 2.87092,17.82462 0.62797,0.43258 2.17357,0.22502 3.11109,0.21821 0.42798,-0.47534 0.85686,-0.94482 1.28664,-1.42311 -0.025,-1.72599 -0.0491,-3.45692 -0.0742,-5.18684 0.28239,-2.30788 0.56462,-4.61282 0.84779,-6.91776 0.0267,1.21549 0.0526,2.43888 0.0801,3.66027 0.64377,4.40183 0.92793,12.56618 3.61228,14.47206 0.66402,0.47594 2.06023,0.31982 3.11166,0.3201 2.08738,-1.71336 0.28573,-3.30242 1.1159,-5.80045 0.0327,-0.0665 0.0633,-0.13619 0.0932,-0.20178 0.24006,2.87455 1.36638,7.66029 3.17438,8.97154 0.77584,0.56181 1.93577,0.31616 3.02055,0.62609 1.75165,-1.1021 1.01361,-4.50594 0.93644,-7.02341 0.03,1.2e-4 0.0628,2.6e-4 0.0911,3.8e-4 1.53155,1.33754 2.12552,3.22005 4.93385,3.17571 0.42963,-0.43805 0.85838,-0.88003 1.28802,-1.31906 0.002,-0.67637 0.004,-1.35673 0.007,-2.03215 -0.973,-1.26165 -1.94517,-2.52131 -2.91641,-3.78394 1.79853,0.18006 3.5971,0.35752 5.39562,0.53775 0.27809,-0.27271 0.55535,-0.54454 0.82813,-0.81535 2.00009,-4.6275 -5.29833,-7.66775 -8.21174,-7.87221 -0.0314,-0.0649 -0.0614,-0.13766 -0.091,-0.20445 1.40426,0.0724 2.80853,0.15093 4.21283,0.22151 0.36498,-0.37156 0.73431,-0.74405 1.10282,-1.11755 0.0301,-1.4136 0.0485,-2.88414 -0.44548,-3.76585 -1.63754,-2.90686 -10.78963,-4.43009 -15.45903,-4.34047 1.1e-4,-0.0333 2.2e-4,-0.0639 3.5e-4,-0.10128 2.10546,-0.26328 4.21357,-0.52546 6.32169,-0.78573 1.34171,0.0339 2.68518,0.0777 4.02776,0.11887 0.36598,-0.40792 0.73459,-0.8138 1.10055,-1.21871 0.004,-1.12017 0.007,-2.23934 0.0113,-3.35948 -1.09321,-2.79855 -11.19548,-3.70726 -15.64236,-3.62945 1.1e-4,-0.0333 2.2e-4,-0.0657 3.4e-4,-0.10128 2.81604,-0.50182 5.5924,-1.01949 9.06745,-0.87747 1.47761,0.0593 3.64784,1.00962 5.218,0.32691 0.59852,-0.26258 1.31952,-1.24431 1.47048,-2.03008 0.84742,-4.4379 -2.46634,-4.51346 -4.92455,-5.41505 -4.68451,-1.71485 -10.35192,-2.27829 -16.56579,-2.30988 -2.19461,-0.009 -4.3936,-0.0182 -6.58997,-0.0273 -0.45365,-0.54673 -0.91266,-1.08958 -1.36636,-1.63435 1.9089,-4.80953 3.81777,-9.62003 5.72402,-14.43444 0.45827,-0.0264 0.91656,-0.0619 1.37397,-0.0956 2.00707,2.21428 4.01239,4.42955 6.02036,6.64185 3.14383,2.83357 5.98753,5.91722 9.49271,8.38806 2.40259,1.69362 3.8125,3.76406 7.86034,3.69737 0.87613,-0.90939 2.52982,-2.01977 1.84538,-4.57022 -0.42629,-1.60103 -2.55856,-2.80955 -3.64821,-3.78596 -2.25139,-2.01701 -4.19618,-5.1627 -5.83266,-7.8624 3.92488,2.63554 7.39489,9.79894 13.60823,9.72747 0.5864,-0.59446 1.38788,-1.08889 1.74734,-1.92679 0.22009,-0.60484 0.18328,-2.27491 -0.0827,-2.74531 -0.85079,-0.8527 -1.70511,-1.70448 -2.55592,-2.55524 -1.2766,-1.80777 -2.5506,-3.60865 -3.82634,-5.4125 3.46801,3.03027 6.63676,6.58357 10.86409,8.79823 2.0374,1.06673 4.39477,-0.0743 5.04259,-1.60984 0.9699,-2.53571 -1.66223,-3.68939 -2.45655,-4.7932 2.46407,-0.0555 4.01097,4.32547 7.862,3.1908 0.94994,-0.28283 1.43145,-1.18589 2.20096,-1.62056 0.002,-0.67642 0.004,-1.35874 0.007,-2.03416 -1.12342,-1.15918 -2.24774,-2.3213 -3.3738,-3.47656 -0.12216,-0.17219 -0.24266,-0.33874 -0.36552,-0.513 2.27282,-0.67879 3.62674,0.1955 5.4053,-1.30004 0.005,-0.8894 0.008,-1.77396 0.0109,-2.65656 z m -70.69067,4.49142 c 0.23756,0.76573 -1.95587,4.86918 -2.49189,5.18307 -0.98558,0.37783 -4.58914,-2.50965 -5.57418,-3.07628 -0.0382,2.16949 -0.0753,4.34094 -0.11298,6.51634 -0.12245,0.16645 -0.24295,0.33572 -0.36541,0.50313 -1.02745,0.22841 -4.83844,0.48553 -5.31243,-0.32543 -0.0215,-2.24139 -0.0441,-4.47887 -0.0682,-6.71833 -1.60542,0.93287 -3.53705,3.0602 -5.59507,3.1312 -0.66844,-0.74596 -0.94943,-1.71024 -1.45478,-2.65182 -0.2974,-0.55396 -1.37782,-1.63443 -1.09102,-2.65229 1.68294,-1.14559 3.36408,-2.29316 5.04788,-3.43776 0.062,2.6e-4 0.12445,5.1e-4 0.18185,7.5e-4 -1.39572,-1.5599 -4.01467,-1.91436 -5.2049,-3.68543 0.0588,-1.14347 2.02931,-4.91602 2.76379,-5.18099 0.86667,-0.19483 4.41056,2.58553 5.39112,3.17861 -0.0274,-2.13244 -0.42203,-6.01885 0.57307,-7.12603 1.58547,0.006 3.17446,0.0131 4.76084,0.0197 0.15481,0.13615 0.30628,0.27325 0.4568,0.4093 0.0225,2.24043 0.0448,4.48182 0.0682,6.72127 1.52725,-1.04708 3.53202,-2.87268 5.4136,-3.23696 1.00885,0.84651 2.6548,3.6071 2.72941,5.30779 -1.12373,1.28732 -3.5117,2.8708 -5.13972,3.43739 -0.0301,0.0678 -0.0596,0.13717 -0.0918,0.20496 0.94952,0.37697 4.70782,2.65939 5.11558,3.47789 z"
         clip-rule="evenodd" />
    </g>
  </g>
</svg>
