<?xml version="1.0" encoding="UTF-8" standalone="no"?>
<!-- Created with Inkscape (http://www.inkscape.org/) -->

<svg
   xmlns:dc="http://purl.org/dc/elements/1.1/"
   xmlns:cc="http://creativecommons.org/ns#"
   xmlns:rdf="http://www.w3.org/1999/02/22-rdf-syntax-ns#"
   xmlns:svg="http://www.w3.org/2000/svg"
   xmlns="http://www.w3.org/2000/svg"
   xmlns:sodipodi="http://sodipodi.sourceforge.net/DTD/sodipodi-0.dtd"
   xmlns:inkscape="http://www.inkscape.org/namespaces/inkscape"
   width="48"
   height="48"
   id="svg4160"
   version="1.1"
   inkscape:version="0.48.2 r9819"
   sodipodi:docname="Snowflake-14.svg">
  <defs
     id="defs4162" />
  <sodipodi:namedview
     id="base"
     pagecolor="#ffffff"
     bordercolor="#666666"
     borderopacity="1.0"
     inkscape:pageopacity="0.0"
     inkscape:pageshadow="2"
     inkscape:zoom="11.2"
     inkscape:cx="6.8482146"
     inkscape:cy="15.458561"
     inkscape:document-units="px"
     inkscape:current-layer="g198"
     showgrid="false"
     fit-margin-top="0"
     fit-margin-left="0"
     fit-margin-right="0"
     fit-margin-bottom="0"
     inkscape:window-width="1585"
     inkscape:window-height="1092"
     inkscape:window-x="2"
     inkscape:window-y="2"
     inkscape:window-maximized="0" />
  <metadata
     id="metadata4165">
    <rdf:RDF>
      <cc:Work
         rdf:about="">
        <dc:format>image/svg+xml</dc:format>
        <dc:type
           rdf:resource="http://purl.org/dc/dcmitype/StillImage" />
        <dc:title />
      </cc:Work>
    </rdf:RDF>
  </metadata>
  <g
     inkscape:label="Layer 1"
     inkscape:groupmode="layer"
     id="layer1"
     transform="translate(-91.528107,-104.27354)">
    <g
       id="g198"
       style="fill:none;stroke:#000000;stroke-width:0.28859234;stroke-miterlimit:4;stroke-opacity:1;stroke-dasharray:none"
       transform="matrix(0.29235908,0,0,0.26301072,21.763738,20.045528)">
      <g
         id="g166"
         style="fill:none;stroke:#000000;stroke-width:0.12584608;stroke-miterlimit:4;stroke-opacity:1;stroke-dasharray:none"
         transform="matrix(2.8859124,0,0,2.8454269,-635.58296,-1836.2046)">
        <path
           style="fill:none;stroke:#000000;stroke-width:0.12584608;stroke-miterlimit:4;stroke-opacity:1;stroke-dasharray:none"
           inkscape:connector-curvature="0"
           id="path168"
           d="m 359.314,801.771 c -0.787,-0.131 -2.348,0.461 -3.133,0.687 -0.268,0.063 -0.535,0.127 -0.803,0.19 -0.445,-0.254 -0.892,-0.509 -1.336,-0.764 0,-0.051 0,-0.101 0,-0.152 0.012,-0.025 0.025,-0.051 0.037,-0.076 1.01,-0.223 5.002,-0.826 4.24,-2.328 -0.332,-0.655 -1.217,-0.482 -1.909,-0.268 -1.669,0.445 -3.337,0.891 -5.005,1.336 -1.171,-0.687 -2.344,-1.373 -3.516,-2.061 -0.677,-0.742 -0.969,-1.774 -1.756,-2.404 -2.855,-2.283 -6.433,-5.018 -10.508,-5.992 0.014,-0.076 0.025,-0.152 0.039,-0.229 4.044,-0.956 7.418,-3.38 10.238,-5.649 0.812,-0.652 1.23,-1.529 1.835,-2.404 0.177,-0.258 3.321,-2.144 3.706,-2.252 0.412,-0.115 1.049,0.246 1.375,0.344 1.234,0.331 2.471,0.662 3.705,0.992 0.77,0.23 1.642,0.283 1.911,-0.458 0.166,-0.46 -0.153,-0.943 -0.421,-1.106 -1.285,-0.344 -2.572,-0.688 -3.858,-1.031 -0.026,-0.076 -0.052,-0.152 -0.077,-0.229 1.43,-1.371 2.99,-0.218 4.775,0.114 0.607,0.112 0.983,-0.313 0.841,-0.84 -0.237,-0.513 -1.673,-0.823 -2.33,-0.878 -0.026,-0.076 -0.052,-0.152 -0.077,-0.229 0.496,-0.497 2.527,-0.962 1.834,-2.176 -0.669,-1.173 -2.135,0.25 -2.826,0.496 -0.052,-0.051 -0.102,-0.102 -0.153,-0.152 0.226,-0.578 1.112,-3.109 -0.344,-2.672 -0.561,0.273 -0.572,1.305 -0.765,1.947 -0.427,1.432 -0.232,1.714 -1.451,2.441 -0.271,0.163 -0.354,0.326 -0.649,0.191 0.197,-1.107 1.729,-4.42 0.306,-4.848 -0.984,-0.294 -1.124,0.713 -1.299,1.297 -0.484,1.731 -0.969,3.461 -1.453,5.191 -1.221,0.688 -2.444,1.375 -3.666,2.062 -0.51,0.013 -1.02,0.025 -1.529,0.038 -0.738,0.191 -1.477,0.382 -2.215,0.572 -3.018,0.957 -5.702,2.789 -7.984,4.543 -0.497,0.406 -0.994,0.814 -1.49,1.221 -0.039,0 -0.076,0 -0.115,0 -0.207,-0.515 0.243,-1.629 0.344,-2.252 0.279,-1.726 0.402,-3.92 0.229,-5.916 -0.147,-1.695 -0.238,-3.412 -0.765,-4.771 -0.25,-0.646 -0.802,-1.291 -0.955,-1.908 0,-1.387 0,-2.773 0,-4.16 1.159,-1.183 2.318,-2.365 3.478,-3.549 0.351,-0.35 1.238,-0.874 0.954,-1.68 -0.172,-0.492 -0.854,-0.83 -1.413,-0.496 -0.929,0.928 -1.859,1.857 -2.788,2.786 -0.052,0 -0.103,0 -0.154,0 -1.094,-2.452 2.965,-3.283 2.598,-4.848 -0.091,-0.237 -0.236,-0.384 -0.534,-0.42 -0.376,-0.093 -1.679,1.286 -1.909,1.603 -0.039,0 -0.077,0 -0.115,0 -0.025,-0.037 -0.052,-0.076 -0.076,-0.113 -0.455,-1.268 0.503,-2.625 -1.262,-2.596 -0.866,0.549 -0.719,1.223 -0.688,2.596 -0.038,0.025 -0.076,0.051 -0.114,0.076 -0.025,0.012 -0.052,0.025 -0.077,0.037 -0.416,-0.326 -1.486,-1.869 -2.178,-1.488 -1.355,0.627 2.057,2.939 2.331,3.512 0.013,0.521 0.026,1.044 0.038,1.565 -0.038,0.025 -0.076,0.051 -0.114,0.076 -0.025,0.013 -0.052,0.025 -0.077,0.038 -0.724,-0.558 -2.863,-3.621 -4.011,-2.672 -0.718,0.594 0.036,1.41 0.421,1.794 1.26,1.26 2.521,2.52 3.781,3.778 0,0.7 0,1.4 0,2.1 0,0.725 0,1.451 0,2.176 -0.229,0.42 -0.459,0.84 -0.688,1.26 -0.352,0.851 -0.572,1.896 -0.765,2.862 -0.378,1.907 -0.454,6.042 -0.114,7.899 0.141,0.841 0.281,1.681 0.421,2.52 -0.026,0.026 -0.052,0.051 -0.077,0.077 -0.662,-0.177 -1.598,-1.304 -2.178,-1.718 -1.523,-1.09 -3.346,-2.303 -5.119,-3.054 -1.208,-0.511 -2.429,-1.026 -3.82,-1.335 -0.7,-0.064 -1.4,-0.128 -2.102,-0.191 -1.196,-0.674 -2.395,-1.349 -3.591,-2.023 -0.364,-0.264 -0.397,-1.042 -0.534,-1.525 -0.345,-1.234 -0.688,-2.469 -1.032,-3.703 -0.188,-0.636 -0.421,-1.656 -1.413,-1.297 -1.557,0.562 0.609,3.723 0.344,4.885 -0.038,0.013 -0.077,0.025 -0.115,0.039 -0.402,-0.213 -1.222,-0.541 -1.413,-0.955 -0.507,-1.095 -0.329,-3.285 -1.414,-3.779 -0.358,0.012 -0.448,0.119 -0.648,0.268 -0.199,0.833 0.317,1.686 0.458,2.48 -0.025,0.039 -0.051,0.077 -0.077,0.115 -0.56,-0.055 -2.773,-2.016 -2.979,-0.076 -0.219,0.664 1.383,1.506 1.872,1.68 0.058,0.12 0.073,0.156 0.038,0.305 -0.854,0.188 -2.093,0.315 -2.406,1.069 0.023,0.36 0.15,0.47 0.344,0.647 1.99,0.342 3.512,-1.875 5.311,-0.075 -0.258,0.952 -5.091,0.472 -4.318,2.442 0.275,0.702 1.148,0.601 1.873,0.382 1.235,-0.331 2.47,-0.661 3.705,-0.993 0.328,-0.098 0.952,-0.459 1.375,-0.343 0.385,0.104 3.489,1.956 3.668,2.214 0.623,0.898 1.036,1.736 1.834,2.442 2.191,1.938 4.81,3.523 7.717,4.733 0.777,0.323 1.658,0.821 2.599,0.954 0,0.077 0,0.153 0,0.229 -3.71,0.98 -7.04,3.14 -9.703,5.267 -1.018,0.812 -1.573,1.864 -2.408,2.862 -1.247,0.738 -2.495,1.477 -3.743,2.214 -0.376,0.14 -1.029,-0.206 -1.376,-0.306 -1.235,-0.33 -2.47,-0.661 -3.706,-0.992 -0.714,-0.205 -1.602,-0.328 -1.909,0.344 -0.856,1.862 3.704,1.562 4.316,2.404 -0.839,1.25 -2.512,0.58 -3.821,0.191 -0.727,-0.217 -1.479,-0.459 -1.834,0.229 0.014,0.114 0.027,0.229 0.039,0.344 0.201,0.545 1.715,0.857 2.369,0.916 0.013,0.038 0.025,0.076 0.038,0.114 -0.259,0.792 -2.232,0.694 -1.948,1.984 0.345,1.571 2.271,0.167 2.902,-0.229 0.473,0.393 -1.23,3.294 0.498,2.862 0.709,-0.303 0.938,-2.842 1.26,-3.702 0.166,-0.443 1.045,-0.774 1.453,-0.992 0.273,0.22 0.023,0.829 -0.078,1.183 -0.273,0.967 -1.409,3.436 0.039,3.779 0.995,0.236 1.072,-0.855 1.261,-1.488 0.344,-1.221 0.688,-2.443 1.032,-3.664 0.117,-0.396 0.129,-1.143 0.42,-1.375 1.171,-0.661 2.344,-1.322 3.515,-1.984 0.509,0 1.019,0 1.528,0 0.941,-0.165 1.767,-0.354 2.598,-0.648 2.855,-1.012 7.421,-3.69 9.207,-5.764 0.052,0 0.102,0 0.153,0 0.071,0.845 -0.274,1.941 -0.421,2.787 -0.236,1.363 -0.299,3.669 -0.076,5.152 0,0.356 0,0.713 0,1.068 0.187,1.18 0.249,2.336 0.573,3.396 0.234,0.768 0.714,1.461 0.955,2.139 0.013,1.475 0.024,2.951 0.038,4.426 -1.209,1.234 -2.42,2.469 -3.629,3.704 -0.391,0.389 -1.238,1.105 -0.649,1.869 0.265,0.346 0.913,0.432 1.298,0.152 0.918,-0.915 1.834,-1.832 2.752,-2.748 0.051,0 0.102,0 0.152,0 1.031,2.346 -2.949,3.494 -2.636,4.81 0.356,1.499 2.194,-0.892 2.521,-1.146 0.039,0.014 0.076,0.026 0.115,0.039 0.403,0.94 -0.285,2.229 0.649,2.633 1.498,0.648 1.429,-1.615 1.298,-2.557 0.077,-0.039 0.154,-0.076 0.23,-0.115 0.442,0.348 1.452,1.799 2.102,1.527 0.293,-0.121 0.434,-0.33 0.42,-0.764 -0.904,-0.953 -1.809,-1.908 -2.713,-2.862 0,-0.497 0,-0.992 0,-1.488 0.077,-0.119 0.018,-0.083 0.191,-0.115 0.665,0.513 2.844,3.506 3.896,2.749 0.773,-0.557 0.159,-1.407 -0.268,-1.833 -1.272,-1.271 -2.547,-2.544 -3.82,-3.816 0,-0.496 0,-0.992 0,-1.488 0,-0.84 0,-1.68 0,-2.52 0.152,-0.242 0.307,-0.483 0.458,-0.725 0.356,-0.588 0.598,-1.361 0.804,-2.061 0.889,-3.035 0.812,-9.273 -0.154,-12.138 0.014,-0.167 0.023,-0.177 0.076,-0.269 0.574,0.51 1.147,1.02 1.721,1.528 1.982,1.457 4.203,2.988 6.609,3.969 1.018,0.415 2.041,0.778 3.209,1.03 0.623,0.038 1.248,0.076 1.871,0.114 1.185,0.675 2.369,1.35 3.555,2.024 0.32,0.242 0.328,0.979 0.457,1.41 0.332,1.184 0.662,2.367 0.994,3.551 0.19,0.682 0.305,1.821 1.375,1.564 1.34,-0.321 0.049,-3.754 -0.306,-4.771 0.038,-0.05 0.076,-0.102 0.114,-0.152 1.487,0.27 1.615,1.588 2.025,2.939 0.204,0.674 0.166,1.621 0.916,1.756 0.244,0.08 0.455,-0.143 0.611,-0.268 0.196,-0.838 -0.363,-1.648 -0.458,-2.481 0.038,-0.038 0.076,-0.075 0.114,-0.114 0.707,0.196 2.06,1.625 2.789,0.572 0.748,-1.077 -1.094,-1.965 -1.758,-2.175 -0.025,-0.038 -0.051,-0.077 -0.076,-0.115 0.395,-0.632 3.657,-0.425 2.1,-1.903 z m -32.015,-8.131 c -1.312,1.631 -4.35,3.327 -6.532,4.084 -0.802,0.279 -2.484,0.696 -3.134,0 0.118,-1.162 0.992,-1.974 1.72,-2.557 1.45,-1.16 3.063,-2.315 4.929,-3.053 0.624,-0.217 1.248,-0.434 1.872,-0.649 0.343,-0.063 0.687,-0.128 1.031,-0.19 2.37,-0.057 0.674,1.669 0.114,2.365 z m 1.222,-5.534 c -0.97,0.699 -2.881,-0.029 -3.744,-0.344 -2.652,-0.969 -6.31,-2.923 -7.183,-5.611 0.063,-0.102 0.128,-0.203 0.191,-0.306 0.179,-0.051 0.356,-0.102 0.534,-0.152 3.604,0.005 5.982,1.971 8.062,3.588 0.854,0.664 1.963,1.475 2.178,2.749 -0.012,0.024 -0.024,0.05 -0.038,0.076 z m 3.02,17.596 c -1.055,-0.082 -1.328,-1.752 -1.568,-2.711 -0.711,-2.852 -0.376,-8.337 1.3,-9.733 0.858,0.148 1.134,1.528 1.376,2.329 0.8,2.662 0.847,8.837 -1.108,10.115 z m 1.221,-22.023 c -0.221,0.952 -0.508,2.506 -1.375,2.786 -0.723,0.13 -1.212,-1.999 -1.375,-2.749 -0.7,-3.211 -0.54,-7.914 1.299,-9.656 0.089,0 0.179,0 0.268,0 1.72,1.881 1.925,6.416 1.183,9.619 z m 8.52,-1.374 c 0.713,-0.204 1.427,-0.407 2.14,-0.611 0.781,-0.024 1.552,-0.068 1.795,0.458 -0.927,2.858 -5.15,5.046 -8.1,5.955 -0.781,0.24 -1.723,0.291 -2.636,0.19 -0.076,-0.103 -0.153,-0.204 -0.229,-0.306 0.79,-2.493 4.644,-4.69 7.03,-5.686 z m 0.306,15.266 c -2.135,-0.904 -6.879,-3.55 -7.26,-5.916 0.142,-0.273 0.25,-0.253 0.535,-0.381 3.417,0.004 6.468,2.176 8.443,3.74 0.791,0.625 1.729,1.463 1.872,2.709 -0.755,0.783 -2.762,0.2 -3.59,-0.152 z"
           clip-rule="evenodd" />
      </g>
    </g>
  </g>
</svg>
