<?xml version="1.0" encoding="UTF-8" standalone="no"?>
<!-- Created with Inkscape (http://www.inkscape.org/) -->

<svg
   xmlns:dc="http://purl.org/dc/elements/1.1/"
   xmlns:cc="http://creativecommons.org/ns#"
   xmlns:rdf="http://www.w3.org/1999/02/22-rdf-syntax-ns#"
   xmlns:svg="http://www.w3.org/2000/svg"
   xmlns="http://www.w3.org/2000/svg"
   xmlns:sodipodi="http://sodipodi.sourceforge.net/DTD/sodipodi-0.dtd"
   xmlns:inkscape="http://www.inkscape.org/namespaces/inkscape"
   width="48"
   height="48"
   id="svg4160"
   version="1.1"
   inkscape:version="0.48.2 r9819"
   sodipodi:docname="Snowflake-16.svg">
  <defs
     id="defs4162" />
  <sodipodi:namedview
     id="base"
     pagecolor="#ffffff"
     bordercolor="#666666"
     borderopacity="1.0"
     inkscape:pageopacity="0.0"
     inkscape:pageshadow="2"
     inkscape:zoom="11.2"
     inkscape:cx="21.401786"
     inkscape:cy="15.458561"
     inkscape:document-units="px"
     inkscape:current-layer="g198"
     showgrid="false"
     fit-margin-top="0"
     fit-margin-left="0"
     fit-margin-right="0"
     fit-margin-bottom="0"
     inkscape:window-width="1585"
     inkscape:window-height="1092"
     inkscape:window-x="2"
     inkscape:window-y="2"
     inkscape:window-maximized="0" />
  <metadata
     id="metadata4165">
    <rdf:RDF>
      <cc:Work
         rdf:about="">
        <dc:format>image/svg+xml</dc:format>
        <dc:type
           rdf:resource="http://purl.org/dc/dcmitype/StillImage" />
        <dc:title />
      </cc:Work>
    </rdf:RDF>
  </metadata>
  <g
     inkscape:label="Layer 1"
     inkscape:groupmode="layer"
     id="layer1"
     transform="translate(-91.528107,-104.27354)">
    <g
       id="g198"
       style="fill:none;stroke:#000000;stroke-width:0.28859234;stroke-miterlimit:4;stroke-opacity:1;stroke-dasharray:none"
       transform="matrix(0.29235908,0,0,0.26301072,21.763738,20.045528)">
      <g
         id="g18"
         style="fill:none;stroke:#000000;stroke-width:0.28386321;stroke-miterlimit:4;stroke-opacity:1;stroke-dasharray:none"
         transform="matrix(1.1594497,0,0,1.3920019,-243.96317,-527.6005)">
        <path
           style="stroke:#000000;stroke-width:0.28386321;stroke-miterlimit:4;stroke-dasharray:none"
           d="m 537.372,701.608 -11.08,-19.603 -35.797,-0.852 -3.409,2.557 13.211,23.864 25.144,3.836 0,8.95 -21.308,-2.131 10.643,17.899 -7.852,3.919 -10.889,-16.704 -11.507,14.915 -7.244,-5.114 11.933,-20.456 -9.803,-25.995 -4.686,-1.704 -20.883,17.473 7.245,22.159 -7.245,3.836 -8.524,-17.898 -20.029,16.62 -6.393,-8.098 18.751,-14.915 -18.751,-6.394 2.131,-7.244 23.866,5.54 23.864,-17.047 -0.426,-4.26 -24.717,-13.212 -18.325,9.802 -8.95,-8.098 16.621,-7.244 -16.621,-10.229 5.967,-9.801 18.752,11.933 -1.279,-22.587 9.375,0 1.704,26.848 22.161,13.638 5.966,-2.558 8.098,-24.291 -15.342,-18.751 7.67,-7.244 12.786,14.062 6.393,-17.898 10.226,4.688 -6.818,18.325 22.161,-2.983 0,8.523 -23.439,2.984 -10.655,26.849 2.132,3.834 31.962,0 8.524,-26.422 9.8,2.983 -7.67,23.439 22.995,0 0,8.096 -20.439,2.558 10.229,15.767 z"
           id="polygon20" />
      </g>
    </g>
  </g>
</svg>
