<?xml version="1.0" encoding="UTF-8" standalone="no"?>
<!-- Created with Inkscape (http://www.inkscape.org/) -->

<svg
   xmlns:dc="http://purl.org/dc/elements/1.1/"
   xmlns:cc="http://creativecommons.org/ns#"
   xmlns:rdf="http://www.w3.org/1999/02/22-rdf-syntax-ns#"
   xmlns:svg="http://www.w3.org/2000/svg"
   xmlns="http://www.w3.org/2000/svg"
   xmlns:sodipodi="http://sodipodi.sourceforge.net/DTD/sodipodi-0.dtd"
   xmlns:inkscape="http://www.inkscape.org/namespaces/inkscape"
   width="48"
   height="48"
   id="svg4160"
   version="1.1"
   inkscape:version="0.48.2 r9819"
   sodipodi:docname="Snowflake-20.svg">
  <defs
     id="defs4162" />
  <sodipodi:namedview
     id="base"
     pagecolor="#ffffff"
     bordercolor="#666666"
     borderopacity="1.0"
     inkscape:pageopacity="0.0"
     inkscape:pageshadow="2"
     inkscape:zoom="11.2"
     inkscape:cx="50.950245"
     inkscape:cy="15.458561"
     inkscape:document-units="px"
     inkscape:current-layer="layer1"
     showgrid="false"
     fit-margin-top="0"
     fit-margin-left="0"
     fit-margin-right="0"
     fit-margin-bottom="0"
     inkscape:window-width="1600"
     inkscape:window-height="1181"
     inkscape:window-x="-4"
     inkscape:window-y="-4"
     inkscape:window-maximized="1" />
  <metadata
     id="metadata4165">
    <rdf:RDF>
      <cc:Work
         rdf:about="">
        <dc:format>image/svg+xml</dc:format>
        <dc:type
           rdf:resource="http://purl.org/dc/dcmitype/StillImage" />
        <dc:title />
      </cc:Work>
    </rdf:RDF>
  </metadata>
  <g
     inkscape:label="Layer 1"
     inkscape:groupmode="layer"
     id="layer1"
     transform="translate(-91.528107,-104.27354)">
    <g
       transform="matrix(0.66022319,0,0,0.66375322,-139.43069,-246.96716)"
       id="g248"
       style="fill:none;stroke:#000000;stroke-width:0.27822271;stroke-miterlimit:4;stroke-opacity:1;stroke-dasharray:none" />
    <path
       style="fill:none;stroke:#000000;stroke-width:0.1;stroke-miterlimit:4;stroke-opacity:1;stroke-dasharray:none"
       inkscape:connector-curvature="0"
       id="path254"
       d="m 135.31033,135.25471 c -0.73214,0.11505 -1.39003,0.37024 -1.88412,0.70824 -0.2943,0.20103 -0.44369,0.56729 -0.80099,0.70903 -0.86307,-0.4443 -1.72751,-0.88938 -2.59103,-1.33407 0.32848,-1.3269 0.036,-2.40099 -1.08314,-3.00095 -1.11507,-0.59715 -3.00099,-0.20103 -3.43927,0.66724 -0.69028,-0.33361 -1.38147,-0.66724 -2.07175,-1.00005 -0.10933,-0.2548 0.0994,-0.61348 0,-1.04185 -0.12201,-0.52391 -0.5256,-0.74726 -0.84824,-1.08365 0.95038,-0.0195 1.69151,-0.60552 1.74236,-1.41688 0.83248,-0.0147 1.66497,-0.0283 2.49744,-0.0415 0.26235,2.85205 4.74741,2.81661 5.2757,0.0415 0.54449,-2.86398 -4.62455,-3.53201 -5.2757,-0.4594 -0.44053,0.0147 -0.87927,0.0287 -1.31981,0.0421 -0.39195,-0.0131 -0.78478,-0.0275 -1.17763,-0.0421 -0.0307,-0.13848 -0.0625,-0.27709 -0.0936,-0.41642 -0.26055,-0.52193 -0.81719,-0.93158 -1.64878,-0.95826 0.45539,-0.49006 1.18077,-1.09798 0.70694,-2.04229 0.67453,-0.34755 1.34998,-0.69391 2.02496,-1.04186 0.032,-0.027 0.0634,-0.0554 0.0945,-0.0828 0.5499,0.4614 0.95353,0.85194 1.88412,0.99965 1.84181,0.2938 3.74842,-1.79827 2.68509,-3.29197 0.89458,-0.45821 1.78961,-0.91765 2.68463,-1.37586 0.80685,0.68354 1.34774,1.24806 2.73235,1.45866 2.96814,0.45187 5.15285,-2.76367 3.67418,-4.95884 -2.2549,-3.3465 -8.32213,-1.29624 -6.64231,3.12595 -0.89414,0.44429 -1.79052,0.88859 -2.68464,1.33367 -2.21666,-1.84882 -5.30315,-0.78189 -4.56965,2.37552 -0.70604,0.34715 -1.41343,0.69429 -2.11946,1.04185 -0.62775,-0.43753 -1.38328,-0.82728 -2.35526,-0.41642 0.5418,-1.17323 -0.0949,-1.36273 -0.51793,-2.12551 0.39284,-0.61189 0.78568,-1.22259 1.17762,-1.83449 1.00618,0.0354 1.90526,0.31769 2.82549,-0.29141 1.48541,-0.98054 1.05388,-3.18925 -0.37574,-3.91699 -3.11259,-1.58369 -5.37604,2.91734 -2.82685,3.91699 -0.37617,0.62542 -0.75372,1.25085 -1.12992,1.87628 -0.21329,0.0657 -0.3303,-0.0275 -0.66013,-0.0421 -0.91124,-0.0395 -1.29238,0.34197 -1.69512,0.75044 -0.37483,-0.79303 -0.50624,-1.44473 -1.64922,-1.54227 0,-0.7349 0,-1.47181 0,-2.20871 3.14993,-0.22891 3.11934,-4.544 0,-4.62602 0,-0.91606 0,-1.83288 0,-2.74974 4.54627,-0.72775 4.67496,-5.94257 0.14131,-6.62692 -2.45381,-0.36984 -4.7438,1.99214 -4.00448,4.2096 0.54854,1.6438 1.58397,1.80901 3.29843,2.41732 0.21555,0.2134 0.1053,2.26324 0.0945,2.74974 -3.12113,0.0875 -3.14994,4.40188 0,4.62602 0,0.7369 0,1.47381 0,2.20871 -0.20474,0.0423 -0.40858,0.0844 -0.61288,0.12586 -0.53144,0.22016 -0.95174,0.75003 -0.98954,1.41646 -0.68938,-0.50839 -1.06513,-0.80696 -2.30844,-0.66682 -0.40769,-0.62465 -0.81629,-1.24967 -1.22443,-1.8751 2.587,-1.6613 0.0274,-5.50385 -2.96815,-3.87639 -1.89535,1.0311 -1.30136,3.71595 0.7065,4.25141 0.69298,0.18471 1.28067,-0.0429 1.88457,-0.12537 0.39327,0.6119 0.78522,1.2226 1.17761,1.83449 -0.45854,0.51516 -0.99223,1.20468 -0.51793,2.08331 0,0.0131 0,0.027 0,0.0418 -1.04038,-0.29461 -1.69827,-0.039 -2.35526,0.41642 -0.67453,-0.33402 -1.34996,-0.66724 -2.02585,-0.99965 -0.0886,-0.23211 0.086,-0.57686 0.14174,-0.91724 0.0985,-0.60393 -0.28755,-1.25524 -0.56564,-1.58369 -0.59443,-0.70304 -2.13565,-1.15171 -3.29618,-0.62463 -0.33119,0.23568 -0.6606,0.47177 -0.98998,0.70744 -0.84823,-0.43076 -1.696458,-0.86191 -2.543344,-1.29185 -0.125608,-0.70186 0.553034,-1.65574 0.04681,-2.75094 -1.141633,-2.4631 -5.14519,-2.77522 -6.73636,-0.45744 -1.52187,2.21668 0.600742,5.48835 3.72143,5.00026 0.737974,-0.11471 1.388224,-0.36825 1.8841,-0.70744 0.309136,-0.2114 0.475192,-0.60194 0.847795,-0.75044 0.86397,0.45823 1.727499,0.91685 2.591939,1.37507 -1.495321,2.83414 3.41902,4.49266 4.5215,2.29231 0.69119,0.33362 1.38147,0.66643 2.07175,0.99965 0.27585,0.62822 -0.35954,1.56736 0.65924,2.00011 0.0477,0.0565 0.0945,0.11193 0.14217,0.16719 -0.96479,0.0215 -1.61231,0.61707 -1.74371,1.37467 -0.83159,0 -1.66407,0 -2.49654,0 -0.3051,-3.03478 -5.913327,-2.53316 -5.228895,0.66724 0.547632,2.55744 5.069145,2.51285 5.228895,-0.20743 0.76858,0 1.53851,0 2.30844,0 0.3384,0.0366 0.57914,1.36632 1.93137,1.41688 0,0.0267 0,0.0554 0,0.0832 -0.6714,0.26435 -1.03994,1.18518 -0.70695,1.95869 -0.72223,0.3611 -1.44401,0.72258 -2.16624,1.08366 -1.70592,-2.0817 -5.945279,-0.3384 -4.52152,2.33372 -0.86397,0.44429 -1.727508,0.88937 -2.591939,1.33406 -0.04681,0.0131 -0.09449,0.027 -0.140445,0.0415 -1.639309,-3.34212 -9.052913,-0.48608 -6.312462,3.54237 2.267506,3.33258 8.780666,0.90491 6.595065,-3.16774 0.878375,-0.45744 1.758541,-0.91645 2.637381,-1.37547 0.3897,0.28028 0.67049,0.64852 1.17672,0.83444 1.74192,0.63497 3.31239,-0.47415 3.62739,-1.66768 0.15839,-0.59716 -0.0977,-1.06694 -0.18809,-1.54148 0.72222,-0.34754 1.44536,-0.6943 2.16759,-1.04185 0.3267,0.64096 1.53267,0.79422 2.30757,0.45822 -0.29025,0.78985 -0.17866,1.62389 0.47113,2.04191 -0.39284,0.63856 -0.78479,1.27792 -1.17762,1.91728 -0.61738,-0.10914 -1.28607,-0.29739 -1.97907,-0.0836 -1.9174,0.59199 -2.37278,3.21313 -0.56519,4.2092 2.99244,1.64778 5.58258,-2.26245 2.96815,-3.87598 0.39284,-0.6107 0.78569,-1.2222 1.17762,-1.8329 0.1773,-0.11389 0.63853,0.12308 1.08313,0.041 0.61919,-0.11307 0.87614,-0.45504 1.27212,-0.75004 0.0459,0.83364 0.69523,1.47141 1.60242,1.54188 0,0.73649 0,1.4722 0,2.20949 -3.13599,0.24325 -3.09999,4.54602 0,4.62602 0,0.91606 0,1.8329 0,2.74975 -1.46878,0.33998 -2.4106,0.68197 -3.06264,1.70869 -1.49532,2.35161 0.62998,4.56948 2.92044,4.91783 2.6788,0.40686 4.90804,-2.28514 3.90997,-4.50141 -0.65384,-1.45191 -1.57227,-1.54508 -3.20304,-2.12511 -0.21644,-0.21459 -0.10616,-2.26404 -0.0945,-2.74975 3.12114,-0.0401 3.17605,-4.40068 0,-4.62602 0,-0.73729 0,-1.473 0,-2.20949 1.09753,-0.066 1.29374,-0.7166 1.64923,-1.45827 0.0153,-0.0279 0.031,-0.0554 0.0468,-0.0836 0.29339,0.58284 1.33782,0.9467 2.21394,0.62543 0.42389,0.62504 0.84824,1.25006 1.27212,1.87549 -0.44728,0.41642 -0.90088,0.75641 -1.08402,1.41607 -0.54089,1.9575 1.90302,3.54914 3.86318,2.58413 2.12709,-1.04703 1.6096,-3.8943 -0.7542,-4.37481 -0.58317,-0.12029 -1.03137,0.0526 -1.64875,0.1664 -0.3924,-0.62504 -0.78479,-1.25086 -1.17763,-1.87549 0.49634,-0.55655 0.93778,-1.2214 0.47115,-2.0837 1.09438,0.30934 1.72931,0.0131 2.40204,-0.45823 0.67453,0.33242 1.35043,0.66683 2.02587,0.99966 0.15928,0.42717 -0.26776,1.4933 0.0945,2.12631 0.65248,1.14296 3.59452,1.98376 4.427,0.37461 0.46304,-0.15454 2.10956,1.01556 2.7319,1.20825 0.0364,0.25081 -0.15885,0.48609 -0.23535,0.75005 -0.23265,0.80418 -0.031,1.82094 0.32984,2.37551 1.47552,2.27321 5.16319,2.26403 6.64233,0 1.4593,-2.23259 -0.84734,-5.34541 -3.81457,-4.87724 z m -22.42214,-10.75172 c 0.43964,0.65329 0.87928,1.30501 1.31982,1.95791 -0.17414,0.16719 -0.34604,0.33361 -0.51884,0.50001 -0.73797,-0.37383 -1.47596,-0.74964 -2.21395,-1.12386 -0.0779,-0.0967 -0.0652,-1.0968 -0.14045,-1.37626 0.53596,0.13143 0.98819,0.16799 1.55338,0.0421 z m -1.78961,1.70828 c 0.73708,0.34715 1.47597,0.6943 2.21305,1.04185 0.0896,0.20105 -0.0292,0.4626 -0.0945,0.74964 -0.83159,0.0147 -1.66405,0.0287 -2.49564,0.0421 -0.3042,-0.24803 -0.70289,-0.89854 -0.98998,-1.20827 0.64663,-0.0192 1.09527,-0.27272 1.36707,-0.62544 z m -1.36707,3.45917 c 0.38114,-0.38576 0.74294,-0.59318 0.84868,-1.24967 0.86353,0 1.72662,0 2.59014,0 0.0634,0.18035 0.12647,0.36068 0.189,0.54103 -0.0814,0.36149 -1.8328,1.14695 -2.26075,1.33407 -0.2808,-0.34517 -0.72898,-0.60115 -1.36707,-0.62543 z m 1.60286,2.41691 c 0.12057,-0.48967 0.20295,-0.90528 0.0459,-1.41687 0.72314,-0.38895 1.44492,-0.77749 2.16715,-1.16645 0.20475,0.15208 0.40859,0.30534 0.61244,0.45782 -0.40769,0.66643 -0.81628,1.33328 -1.22443,2.0001 -0.50803,0.0582 -1.07637,-0.0944 -1.60105,0.12537 z m 2.73145,1.37547 c -0.22905,-0.465 -0.20341,-0.87147 -0.6597,-1.12545 -0.17818,-0.4658 0.86669,-1.63185 1.17763,-2.08331 0.25199,0.0418 0.50265,0.0836 0.75419,0.12504 0.0157,0.77751 0.0311,1.55542 0.0477,2.33331 -0.64799,0.19389 -0.91483,0.37265 -1.31981,0.75044 z m 0.56564,-7.20935 c -0.42345,-0.66722 -0.84914,-1.33406 -1.27213,-2.0001 0.31005,-0.34835 0.63988,-0.58879 0.65923,-1.20905 0.38701,0.30058 0.62909,0.66723 1.31894,0.70903 0.0157,0.7775 0.031,1.55581 0.0477,2.33292 -0.25155,0.0549 -0.5031,0.11193 -0.75375,0.1672 z m 5.27568,-1.83488 c -0.0631,0.23687 -0.12604,0.47294 -0.18899,0.70903 0.0477,0.23608 0.0945,0.47254 0.14217,0.70902 -0.75371,0.37424 -1.5088,0.75005 -2.26164,1.12388 -0.0163,0 -0.031,0 -0.0468,0 -0.17324,-0.15241 -0.34648,-0.30456 -0.51839,-0.45823 0.4239,-0.63856 0.84778,-1.27754 1.27213,-1.91649 0.25919,-0.17119 1.18121,0.0569 1.60151,-0.16721 z m -4.05127,-0.62384 c 0.6111,-0.16919 1.00979,-0.32367 1.31893,-0.75083 0.28754,0.5259 0.4122,0.84439 0.75373,1.25086 -0.40859,0.63857 -0.81763,1.27792 -1.22532,1.91649 -0.28664,0.0554 -0.57014,-0.0549 -0.84778,-0.12504 4.4e-4,-0.76358 4.4e-4,-1.52833 4.4e-4,-2.29151 z m 1.36573,9.66807 c -0.3717,-0.31251 -0.63089,-0.66842 -1.31893,-0.70824 -0.0157,-0.7775 -0.0307,-1.5558 -0.0468,-2.3337 0.2043,-0.056 0.40858,-0.11144 0.61288,-0.16682 0.3735,0.0616 1.33469,1.59085 1.46022,1.9587 -0.32038,0.35909 -0.66958,0.62821 -0.70738,1.25006 z m 1.13083,-1.45827 c -0.4239,-0.66683 -0.84823,-1.33446 -1.27123,-2.0005 0.1719,-0.16641 0.3447,-0.33361 0.51749,-0.49962 0.75284,0.37463 1.50793,0.74963 2.26165,1.12426 -0.0761,0.53466 -0.0652,1.0084 0.0936,1.45866 -0.51208,-0.21258 -1.00798,-0.18829 -1.60151,-0.0827 z m 1.83731,-1.75088 c -0.76949,-0.37461 -1.53852,-0.74964 -2.30846,-1.12545 0.0792,-0.23608 0.15706,-0.47217 0.23536,-0.70745 0.83248,0 1.66406,0 2.49744,0 0.2241,0.40647 0.2934,0.88421 0.75328,1.08366 0.0468,0.0554 0.0945,0.11029 0.14131,0.16601 -0.62639,0.0187 -1.04579,0.25121 -1.31893,0.58323 z m 0.51793,-2.25091 c -0.87927,0 -1.75855,0 -2.63783,0 -0.0625,-0.18033 -0.12647,-0.36068 -0.18856,-0.54103 0.18451,-0.56413 1.62717,-0.89774 2.12037,-1.25046 0.55303,0.17078 0.72223,0.58043 1.50702,0.62543 -0.33886,0.3579 -0.73395,0.55058 -0.801,1.16606 z"
       clip-rule="evenodd" />
  </g>
</svg>
