<?xml version="1.0" encoding="UTF-8" standalone="no"?>
<!-- Created with Inkscape (http://www.inkscape.org/) -->

<svg
   xmlns:dc="http://purl.org/dc/elements/1.1/"
   xmlns:cc="http://creativecommons.org/ns#"
   xmlns:rdf="http://www.w3.org/1999/02/22-rdf-syntax-ns#"
   xmlns:svg="http://www.w3.org/2000/svg"
   xmlns="http://www.w3.org/2000/svg"
   xmlns:sodipodi="http://sodipodi.sourceforge.net/DTD/sodipodi-0.dtd"
   xmlns:inkscape="http://www.inkscape.org/namespaces/inkscape"
   width="48"
   height="48"
   id="svg4160"
   version="1.1"
   inkscape:version="0.48.2 r9819"
   sodipodi:docname="Snowflake-05.svg">
  <defs
     id="defs4162" />
  <sodipodi:namedview
     id="base"
     pagecolor="#ffffff"
     bordercolor="#666666"
     borderopacity="1.0"
     inkscape:pageopacity="0.0"
     inkscape:pageshadow="2"
     inkscape:zoom="11.2"
     inkscape:cx="30.888147"
     inkscape:cy="15.458561"
     inkscape:document-units="px"
     inkscape:current-layer="layer1"
     showgrid="false"
     fit-margin-top="0"
     fit-margin-left="0"
     fit-margin-right="0"
     fit-margin-bottom="0"
     inkscape:window-width="1585"
     inkscape:window-height="1092"
     inkscape:window-x="2"
     inkscape:window-y="2"
     inkscape:window-maximized="0" />
  <metadata
     id="metadata4165">
    <rdf:RDF>
      <cc:Work
         rdf:about="">
        <dc:format>image/svg+xml</dc:format>
        <dc:type
           rdf:resource="http://purl.org/dc/dcmitype/StillImage" />
        <dc:title />
      </cc:Work>
    </rdf:RDF>
  </metadata>
  <g
     inkscape:label="Layer 1"
     inkscape:groupmode="layer"
     id="layer1"
     transform="translate(-91.528107,-104.27354)">
    <path
       style="fill:none;stroke:#000000;stroke-width:0.1;stroke-miterlimit:4;stroke-opacity:1;stroke-dasharray:none"
       inkscape:connector-curvature="0"
       id="path164"
       d="m 139.43304,116.56318 c 0.024,-0.0303 0.0479,-0.0614 0.0719,-0.0917 -0.5489,-0.27528 -1.09683,-0.55136 -1.64572,-0.82663 -0.95315,0.48909 -1.90628,0.97901 -2.85846,1.46974 0.17817,-0.78567 0.35635,-1.57133 0.53644,-2.357 -0.48951,-0.0108 -0.97805,-0.0205 -1.46658,-0.0312 -0.28548,1.12237 -0.57189,2.24476 -0.85831,3.36633 -0.28547,0.15238 -0.57189,0.3064 -0.85831,0.45878 0.14273,-1.35588 0.28642,-2.71338 0.42915,-4.07007 -0.51249,0.0819 -1.02403,0.16303 -1.53652,0.24496 -0.30558,0.1917 -0.26438,1.0126 -0.35825,1.37717 -0.26057,1.21414 -0.52304,2.42828 -0.7855,3.64242 -0.23757,0.12207 -0.4761,0.24496 -0.71463,0.36702 0.0479,-1.66226 0.0948,-3.32618 0.14274,-4.98846 -0.44065,-0.0713 -0.88226,-0.14337 -1.32291,-0.21383 -0.25098,2.04979 -0.50003,4.10121 -0.75101,6.151 -0.1092,0.25233 -0.9244,0.64475 -1.25105,0.70374 -0.0833,-2.09075 -0.16764,-4.18313 -0.25098,-6.2747 -0.4761,-0.0605 -0.95218,-0.12207 -1.42924,-0.18352 -0.0124,0.0205 -0.0239,0.041 -0.0354,0.0614 0.0824,2.39714 0.16572,4.79594 0.25002,7.19309 -1.45413,0.77501 -2.90731,1.55085 -4.36145,2.32587 -0.29217,-0.38588 -0.77401,-0.86596 -0.89375,-1.34685 1.48957,-0.70376 2.9782,-1.4075 4.46874,-2.11206 0,-1.98916 0,-3.97831 0,-5.96829 -0.024,-0.0108 -0.0479,-0.0205 -0.0719,-0.0303 -1.93023,0.98965 -3.86046,1.97932 -5.79163,2.96898 0.0124,1.58116 0.0229,3.16234 0.0364,4.74432 -0.4646,0.0102 -0.93016,0.0205 -1.39475,0.0303 -0.0124,-1.6426 -0.0229,-3.28522 -0.0354,-4.92783 2.38237,-1.17317 4.76761,-2.34553 7.14997,-3.51871 0.1801,-0.28592 -0.26246,-0.73405 -0.3573,-1.10189 -0.69832,0.10406 -1.39953,0.60461 -1.96663,0.88724 -1.59686,0.73407 -3.19373,1.46894 -4.7906,2.20381 -0.0124,-0.40799 -0.0229,-0.81598 -0.0354,-1.22479 1.86987,-0.9995 3.74166,-1.9998 5.61155,-2.9993 0.16764,-0.26871 -0.23278,-1.00277 -0.39275,-1.34687 -1.72715,0.80616 -3.45525,1.61313 -5.18336,2.41847 0,-0.23432 0,-0.46945 0,-0.70375 0.27589,-0.41946 1.02499,-0.74635 1.46563,-1.04047 1.23861,-0.86759 2.47912,-1.73518 3.71773,-2.60196 -0.25002,-0.3662 -0.50005,-0.73405 -0.75006,-1.10108 -1.16772,0.68327 -2.33543,1.36653 -3.50315,2.05061 -0.29504,0.17859 -0.57188,0.47024 -0.96559,0.55054 0,-0.33672 0,-0.67344 0,-1.00934 0.5144,-0.45221 2.72627,-2.0342 2.89486,-2.47906 -0.39275,-0.21464 -0.7855,-0.42848 -1.17921,-0.64313 -0.55177,0.33755 -1.04893,1.0757 -1.71565,1.25511 0,-1.19367 0,-2.38814 0,-3.58097 -0.54794,0.22447 -1.09683,0.44895 -1.64477,0.67342 -0.27205,0.51204 -0.0795,2.2079 -0.071,2.90755 -0.0115,0 -0.024,0 -0.0354,0 -0.58337,-0.44894 -1.16772,-0.8979 -1.75205,-1.34685 -0.0958,-0.0819 -0.18967,-0.16303 -0.28546,-0.24497 -0.26151,0.31624 -0.52494,0.63247 -0.78645,0.9487 0.0278,0.24661 2.4475,2.22347 2.85941,2.47907 0,0.29576 0,0.59151 0,0.88727 -1.26255,-0.81598 -2.52605,-1.63278 -3.78956,-2.44795 -0.27014,0.23268 -0.53357,0.92987 -0.60734,1.28542 1.44169,1.11173 2.88337,2.22428 4.32505,3.33601 0.024,0.0312 0.0479,0.0614 0.0719,0.0917 0,0.23513 0,0.46942 0,0.70374 -1.63231,-0.90692 -3.26462,-1.81547 -4.89693,-2.72321 -0.28642,0.26462 -0.57284,0.53006 -0.85831,0.79551 0,0.0312 0,0.0614 0,0.0917 1.89478,1.23462 3.78957,2.46925 5.68339,3.70387 0.15328,0.28183 0.0815,0.89626 0.0719,1.28542 -2.1563,-1.01998 -4.31355,-2.04078 -6.47081,-3.05993 -0.27396,0.28592 -0.54794,0.57101 -0.82094,0.85693 -0.0134,0.0303 -0.0239,0.0614 -0.0363,0.0917 2.44272,1.2035 4.88639,2.4078 7.32815,3.61211 0,1.67211 0,3.34503 0,5.01877 -0.38125,0 -0.76347,0 -1.14376,0 0.0354,-1.41813 0.0719,-2.83626 0.10633,-4.2544 -2.01358,-1.01998 -4.02714,-2.04077 -6.0407,-3.06075 0.0124,1.93837 0.0229,3.87755 0.0354,5.81509 1.37079,0.67343 2.73968,1.34687 4.11143,2.02029 -0.0997,0.47844 -0.54123,0.88725 -0.78742,1.28542 -1.42922,-0.73488 -2.85846,-1.46976 -4.2896,-2.20463 -0.25289,-0.48336 -0.002,-1.46073 0,-2.04977 0.0594,-1.71307 0.11878,-3.42859 0.18008,-5.14167 -0.4416,-0.0606 -0.88225,-0.12207 -1.32385,-0.18351 -0.13027,2.17267 -0.26151,4.34616 -0.39275,6.51883 -0.39275,-0.19416 -0.78646,-0.38833 -1.17921,-0.58167 -0.20595,-0.36949 0.0162,-1.02735 -0.071,-1.50007 -0.0239,-1.43861 -0.0488,-2.87722 -0.0719,-4.31503 -0.51153,-0.10243 -1.02403,-0.20481 -1.53652,-0.30639 -0.0948,1.68357 -0.19064,3.36632 -0.28642,5.0499 -0.0115,0 -0.0229,0 -0.0354,0 -0.22607,-0.11224 -0.4531,-0.22448 -0.67918,-0.33672 -0.3094,-1.89739 -0.61881,-3.7948 -0.93014,-5.69301 -0.23469,-0.18353 -1.09779,-0.0401 -1.46468,-0.0303 0.107292,1.52956 0.21458,3.06075 0.321867,4.59112 -0.357309,-0.17368 -0.715575,-0.34655 -1.072882,-0.52023 -0.308452,-1.13222 -0.618821,-2.26606 -0.929191,-3.39664 -0.429151,0.16304 -0.858304,0.32606 -1.287455,0.4891 0.142731,0.63246 0.287377,1.26493 0.429151,1.8974 -1.216568,-0.61281 -2.431221,-1.2248 -3.646833,-1.83677 -0.0479,0.53004 -0.09579,1.06093 -0.142732,1.59181 0.53165,0.47353 2.555753,1.0634 2.787573,1.591 -0.881294,0.21465 -1.762589,0.42847 -2.644841,0.64311 0.202123,0.36703 0.405203,0.73407 0.607326,1.10109 1.335352,-0.27527 2.670705,-0.55055 4.004141,-0.82581 0.250977,0.13272 0.500039,0.26544 0.751016,0.39815 0.01246,0.0197 0.02299,0.0401 0.03544,0.0614 -1.464673,0.47928 -2.932219,0.95937 -4.396891,1.43781 -0.01246,0.0312 -0.02395,0.0614 -0.03544,0.0917 0.333359,0.35719 0.665761,0.71438 1.000077,1.07158 1.906278,-0.47926 3.813514,-0.95853 5.719794,-1.43862 0.21554,0.11224 0.42916,0.22447 0.64469,0.33672 0.0115,0.0205 0.0229,0.0401 0.0345,0.0614 -1.762591,0.69308 -3.527098,1.387 -5.289688,2.08091 0.119743,0.37685 0.238525,0.75453 0.357309,1.13139 2.253048,-0.73406 4.504179,-1.46893 6.756269,-2.20298 0.54124,0.0655 0.8152,0.43912 1.28747,0.58085 0.0124,0.0205 0.0229,0.041 0.0364,0.0614 -2.14482,1.01996 -4.29058,2.04077 -6.435376,3.06075 0.142732,0.37685 0.286422,0.75453 0.428195,1.1322 2.491581,-1.14203 4.981231,-2.2849 7.472811,-3.42777 1.45318,0.75454 2.90636,1.5099 4.36049,2.26443 0.024,0.0312 0.0479,0.0614 0.0719,0.0917 -0.16765,0.2548 -0.33433,0.5104 -0.50005,0.76519 -1.16866,-0.61198 -2.33543,-1.22479 -3.50315,-1.83595 -2.03751,0.95852 -4.07502,1.91787 -6.1135,2.8764 0,0.0102 0,0.0205 0,0.0312 1.94172,0.97901 3.88537,1.95885 5.82709,2.93786 1.25106,-0.59232 2.50211,-1.18383 3.75413,-1.77533 0.29791,0.40799 0.59583,0.81597 0.89373,1.22397 -1.54896,0.65295 -3.09792,1.30589 -4.64786,1.95967 -2.29902,-1.31655 -4.59998,-2.63228 -6.899008,-3.94801 -0.238527,0.23431 -0.477052,0.46945 -0.715575,0.70374 -0.04694,0.041 -0.09484,0.0811 -0.141774,0.12289 2.061477,1.24446 4.123897,2.48891 6.184387,3.73418 0.0115,0.0205 0.0229,0.041 0.0354,0.0605 -0.41767,0.18432 -0.83436,0.36702 -1.25202,0.55054 -1.91778,-0.99867 -3.836511,-1.99899 -5.755244,-2.99848 -0.36976,0.29575 -0.738563,0.5915 -1.107365,0.88725 0.148479,0.36293 0.930149,0.61936 1.286497,0.82663 1.15622,0.68327 2.312432,1.36653 3.466752,2.05061 0.0239,0.0312 0.0488,0.0605 0.0719,0.0917 -0.22607,0.10159 -0.4531,0.20481 -0.67917,0.3064 -2.060508,-0.78485 -4.122927,-1.57052 -6.18439,-2.357 -0.261514,0.35719 -0.523987,0.71521 -0.7855,1.07159 1.560464,0.73487 3.121887,1.46975 4.683311,2.2038 -1.276919,1.07814 -3.330717,-0.3998 -4.861487,-0.6423 -0.01341,0 -0.02394,0 -0.0364,0 -0.05939,0.40799 -0.118781,0.81599 -0.179132,1.22397 0.666718,0.22448 1.335353,0.44896 2.003029,0.67425 0.02299,0.0102 0.04694,0.0197 0.07088,0.0303 -1.23956,0.53089 -2.479119,1.06094 -3.71772,1.59182 -0.01246,0.0205 -0.02395,0.041 -0.03545,0.0607 0.476091,0.29575 0.95314,0.59233 1.42923,0.88725 0.221281,0.10979 2.647714,-1.01587 3.073992,-1.19447 0.01246,0 0.02395,0 0.0364,0 -0.262472,0.75535 -0.524945,1.51071 -0.78646,2.26525 0,0.0102 0,0.0197 0,0.0303 0.487586,0.0614 0.977086,0.12207 1.464674,0.18351 0.405203,-1.08059 0.811365,-2.16201 1.216568,-3.24344 0.143689,-0.19417 0.641812,-0.33262 0.893747,-0.42848 0.01246,0 0.02299,0 0.0364,0 -0.286421,1.33622 -0.572842,2.67325 -0.858304,4.00946 0.53644,-0.041 1.072879,-0.0819 1.609322,-0.12208 0.52397,-1.62131 1.04893,-3.24425 1.57293,-4.86639 0.22605,-0.13517 0.49235,-0.30148 0.82189,-0.33672 -0.23853,1.65245 -0.47609,3.30572 -0.71557,4.95816 0.41765,0.10159 0.83435,0.20399 1.25201,0.3064 0.0125,0 0.0239,0 0.0354,0 0.46461,-2.03995 0.93014,-4.08072 1.39475,-6.12068 0.44064,-0.18433 0.88224,-0.36784 1.32289,-0.55135 -0.13219,2.10139 -0.26151,4.20361 -0.39371,6.305 0.41767,0.0811 0.83436,0.16386 1.25201,0.24496 0.0479,0 0.0958,0 0.14178,0 0.1801,-2.4078 0.35731,-4.8156 0.53741,-7.2234 1.57387,-0.67343 3.14582,-1.34686 4.71874,-2.01946 0.2414,0.19088 0.5671,0.64393 0.64277,0.94869 -1.45318,0.62182 -2.90731,1.24528 -4.36048,1.86709 -0.1073,1.97933 -0.21458,3.95865 -0.32186,5.93717 0.0229,0.0205 0.0479,0.041 0.0709,0.0614 1.95418,-0.89791 3.90835,-1.79582 5.86252,-2.69372 0.29217,-0.43174 0.28451,-4.01026 0.28642,-4.80494 0.39275,0 0.78551,0 1.17922,0 0.0124,1.71388 0.0229,3.42777 0.0354,5.14165 -2.40632,1.19366 -4.81359,2.38732 -7.22086,3.58016 0.16668,0.33671 0.33431,0.67342 0.50003,1.01014 2.23964,-1.02079 4.48119,-2.04076 6.72083,-3.06074 0,0.39817 0,0.7955 0,1.19448 -1.88233,1.01998 -3.76561,2.03995 -5.64795,3.05992 0.15422,0.42765 0.30942,0.85695 0.46364,1.2846 1.7281,-0.80533 3.45525,-1.61148 5.18335,-2.41763 0,0.24495 0,0.49074 0,0.73488 -1.7281,1.21414 -3.45525,2.42828 -5.18335,3.64242 0.23852,0.33671 0.47705,0.67343 0.71557,1.01015 0.0354,0.0205 0.071,0.0401 0.10633,0.0614 1.44263,-0.8676 2.88432,-1.73438 4.326,-2.60115 0.0125,0.34654 0.0229,0.69309 0.0354,1.04046 -0.8104,0.66278 -1.61986,1.32555 -2.43122,1.98998 -0.14178,0.13189 -0.28546,0.26462 -0.42819,0.39734 0.36976,0.21382 0.73856,0.42846 1.10831,0.6423 0.26057,0.11141 1.33823,-1.07241 1.78654,-1.19366 0,1.183 0,2.36682 0,3.54984 0.57189,-0.23431 1.14377,-0.46944 1.71565,-0.70375 0,-0.95853 0,-1.91788 0,-2.87722 0.52495,0.39816 1.04893,0.79631 1.57292,1.19447 0.16764,0.14255 0.33433,0.28592 0.501,0.42847 0.27397,-0.33753 0.54793,-0.67425 0.82189,-1.01014 0,-0.0108 0,-0.0205 0,-0.0303 -0.96558,-0.79632 -1.93117,-1.59182 -2.89581,-2.38732 0,-0.29576 0,-0.59151 0,-0.88725 0.0134,0 0.0239,0 0.0364,0 1.252,0.8168 2.50115,1.63277 3.75316,2.44876 0.0124,0 0.0229,0 0.0354,0 0.19063,-0.408 0.38126,-0.81681 0.57284,-1.22479 -0.10245,-0.30723 -0.55751,-0.52105 -0.8219,-0.70375 -1.19167,-0.9487 -2.38332,-1.89822 -3.57499,-2.84692 -0.0115,-0.0102 -0.0229,-0.0197 -0.0354,-0.0303 0,-0.21464 0,-0.42847 0,-0.64311 1.65625,0.91838 3.31252,1.83759 4.96973,2.75516 0.28642,-0.29575 0.57188,-0.59232 0.85831,-0.88727 -1.91873,-1.24443 -3.83842,-2.48972 -5.7562,-3.73335 -0.15327,-0.28182 -0.0815,-0.89709 -0.0719,-1.28623 2.1563,1.03063 4.31451,2.06126 6.47081,3.09106 0.2979,-0.30641 0.59583,-0.61198 0.89375,-0.91839 -2.43027,-1.22479 -4.86149,-2.44876 -7.29176,-3.67273 -0.20595,-0.19826 -0.0719,-1.01506 -0.0719,-1.34687 -0.0124,-1.25509 -0.0229,-2.50938 -0.0354,-3.76448 0.13794,-0.0901 0.50292,-0.0713 0.75006,-0.0606 0.0489,1.46893 0.0967,2.93787 0.14369,4.4068 0.27971,0.39733 1.36504,0.66605 1.85838,0.88807 1.41677,0.65295 2.83547,1.3059 4.25321,1.95885 0.17146,-0.21465 0.0652,-1.16253 0,-1.53038 -0.0833,-1.41814 -0.16668,-2.83627 -0.25003,-4.25441 -1.3114,-0.5915 -2.62281,-1.18382 -3.93229,-1.77532 0.16667,-0.2761 0.33431,-0.55136 0.50004,-0.82664 1.44168,0.60134 2.88432,1.2035 4.326,1.80565 0.16669,2.3865 0.33432,4.77464 0.50004,7.16195 0.42916,0.0205 0.85735,0.041 1.28746,0.0614 -0.0843,-2.1014 -0.16764,-4.20444 -0.25098,-6.30501 0,-0.0713 0,-0.14337 0,-0.21465 0.44065,0.17286 0.88226,0.34736 1.3229,0.52023 0.21553,1.90805 0.42819,3.81611 0.64276,5.72333 0.52495,0.0614 1.0499,0.12208 1.57389,0.18352 0.0124,-0.0197 0.024,-0.0402 0.0344,-0.0605 -0.0948,-1.66309 -0.18871,-3.3262 -0.28451,-4.98846 0.26152,0.10244 0.52399,0.20481 0.7855,0.3064 0.48951,1.86708 0.97806,3.73417 1.46564,5.60126 0.42724,0.0951 1.05755,-0.0385 1.50107,-0.0917 -0.26247,-1.5099 -0.52495,-3.01978 -0.78646,-4.52968 0.37072,0.14255 0.73856,0.28592 1.10832,0.42929 0.4052,1.10109 0.8104,2.2038 1.21561,3.30489 0.40521,-0.18352 0.81042,-0.36785 1.21562,-0.55054 0.20307,-0.43257 -0.43778,-1.40011 -0.53645,-1.92854 1.25202,0.53007 2.50307,1.06095 3.75317,1.59183 0.0124,-0.54154 0.0239,-1.08142 0.0364,-1.62213 -0.98859,-0.41865 -1.97812,-0.83646 -2.9667,-1.25511 0.0997,-0.16631 2.21568,-0.83809 2.57396,-0.88725 -0.22608,-0.36784 -0.45312,-0.73488 -0.68014,-1.10191 -1.28649,0.37768 -2.57491,0.75454 -3.86045,1.13222 -0.27301,-0.11224 -0.54794,-0.22448 -0.82191,-0.33671 -0.0115,-0.0205 -0.0229,-0.041 -0.0345,-0.0614 1.39282,-0.59152 2.78756,-1.18384 4.18135,-1.77452 0.0125,-0.0205 0.0229,-0.0418 0.0364,-0.0623 -0.34485,-0.33672 -0.69257,-0.67262 -1.03743,-1.00933 -1.86987,0.61198 -3.74166,1.22397 -5.61154,1.83676 -0.21458,-0.0819 -0.42915,-0.16384 -0.64373,-0.24494 -0.0239,-0.0312 -0.0489,-0.0623 -0.0719,-0.0917 1.66872,-0.81598 3.33647,-1.63279 5.00614,-2.44876 0.0422,-0.33181 -0.31803,-0.75454 -0.42916,-1.1019 -2.20515,0.90773 -4.40933,1.8163 -6.61352,2.72321 -0.4167,-0.17287 -0.83436,-0.34654 -1.25106,-0.52023 0,-0.0102 0,-0.0197 0,-0.0303 2.02505,-1.17316 4.05108,-2.34635 6.0771,-3.51952 -0.17914,-0.36785 -0.35732,-0.73405 -0.53644,-1.1019 -0.0229,-0.0108 -0.0479,-0.0205 -0.071,-0.0312 -2.32394,1.3059 -4.64883,2.6118 -6.97085,3.91769 -0.26056,0.12535 -0.87746,-0.281 -1.14378,-0.39733 -1.04892,-0.43831 -2.09689,-0.87744 -3.14583,-1.31573 0.26152,-0.42847 0.524,-0.85695 0.78646,-1.28542 0.27109,-0.002 3.26558,1.4632 3.64684,1.71308 0.52399,-0.073 0.95889,-0.46044 1.35834,-0.67263 1.54898,-0.79631 3.09794,-1.59181 4.64787,-2.38732 -0.17242,-0.31458 -0.99337,-0.51366 -1.3593,-0.67342 -1.10737,-0.49974 -2.21569,-0.9995 -3.32497,-1.50006 -0.45215,-0.19416 -0.90428,-0.38751 -1.35834,-0.58167 -1.11982,0.59232 -2.2406,1.18382 -3.35946,1.77533 -0.22703,-0.31623 -0.45406,-0.63246 -0.67916,-0.9487 1.44072,-0.77501 2.88431,-1.55085 4.32503,-2.32588 2.46572,1.12238 4.93333,2.24478 7.4,3.36716 0.25098,-0.29575 0.50099,-0.5915 0.75007,-0.88726 -2.1793,-1.0716 -4.36146,-2.14236 -6.54073,-3.21395 -0.0124,-0.0197 -0.024,-0.0401 -0.0354,-0.0614 0.3803,-0.21383 0.76252,-0.42847 1.14281,-0.64229 2.02507,0.83645 4.05108,1.67292 6.07806,2.50938 0.30846,-0.31624 0.61882,-0.63248 0.92919,-0.94871 0.0229,-0.041 0.0478,-0.0819 0.071,-0.12289 -1.70224,-0.80532 -3.40735,-1.61148 -5.11151,-2.41762 0,-0.0102 0,-0.0197 0,-0.0303 0.22607,-0.12207 0.45215,-0.24497 0.67917,-0.36703 2.09691,0.61199 4.19477,1.22398 6.29167,1.83595 0.34007,-0.0869 0.61116,-0.83318 0.75103,-1.1019 -0.31229,-0.26707 -0.93111,-0.36211 -1.35931,-0.52022 -1.16867,-0.42847 -2.33543,-0.85777 -3.50218,-1.28542 -0.0134,-0.0197 -0.025,-0.041 -0.0364,-0.0614 0.34486,-0.18352 0.69162,-0.36703 1.03649,-0.55054 1.28744,0.28592 2.5749,0.57101 3.86141,0.85695 0.0105,0 0.0229,0 0.0344,0 0.0229,-0.41865 0.0489,-0.83648 0.0719,-1.25512 -0.71463,-0.17368 -1.42924,-0.34735 -2.14385,-0.52022 0,-0.0108 0,-0.0205 0,-0.0303 1.15048,-0.61608 2.30573,-1.22807 3.46195,-1.84006 z m -19.84061,2.44796 c 0.93015,-0.49976 1.85838,-0.99949 2.78853,-1.50007 0.0354,0 0.0719,0 0.10729,0 0,0.97902 0,1.95966 0,2.93786 -0.9656,0.48991 -1.93118,0.97902 -2.89582,1.46892 0,-0.96836 0,-1.93836 0,-2.90671 z m -13.51254,10.68147 c -1.10257,-0.16221 -1.90628,-1.04537 -2.93222,-1.34686 -0.0115,-0.0205 -0.023,-0.041 -0.0354,-0.0614 0.97709,-0.46944 1.95417,-0.93887 2.93221,-1.40749 0.56039,0.0803 2.5548,1.10928 2.93127,1.43781 -0.96559,0.4596 -1.93023,0.9192 -2.89582,1.37798 z m 6.14895,-7.31515 c -0.95314,-0.48992 -1.90725,-0.97901 -2.85942,-1.46893 -0.22225,-0.21136 -0.15424,-2.38239 -0.14273,-2.87723 1.00007,0.48991 2.00206,0.97984 3.00309,1.46893 -9.4e-4,0.95935 -9.4e-4,1.91869 -9.4e-4,2.87723 z m -0.10729,14.87445 c -0.25002,0.22776 -2.57013,1.33129 -2.96767,1.4083 0.0479,-0.97 0.0958,-1.93918 0.14273,-2.90754 0.96559,-0.45879 1.93119,-0.9184 2.89486,-1.37717 0.0363,0 0.071,0 0.10729,0 -0.0585,0.95934 -0.11782,1.91787 -0.17721,2.87641 z m 10.00844,-1.77451 c 0.0594,0.94788 0.11973,1.89739 0.17913,2.8461 -0.98763,-0.43912 -1.97717,-0.87744 -2.96671,-1.31656 -0.22129,-0.32278 -0.29696,-2.50446 -0.21458,-2.93785 1.00104,0.46943 2.00208,0.93887 3.00216,1.40831 z m 0.53738,-7.2234 c 0.95314,-0.49974 1.90532,-0.9995 2.85943,-1.50006 0.98858,0.41863 1.97716,0.83646 2.96669,1.2551 0.0125,0.0197 0.024,0.041 0.0354,0.0614 -0.9771,0.51041 -1.95322,1.01998 -2.93127,1.53037 -0.97709,-0.43912 -1.95418,-0.87742 -2.93125,-1.31571 9.4e-4,-0.0108 9.4e-4,-0.0213 9.4e-4,-0.0312 z"
       clip-rule="evenodd" />
  </g>
</svg>
