<?xml version="1.0" encoding="UTF-8" standalone="no"?>
<!-- Created with Inkscape (http://www.inkscape.org/) -->

<svg
   xmlns:dc="http://purl.org/dc/elements/1.1/"
   xmlns:cc="http://creativecommons.org/ns#"
   xmlns:rdf="http://www.w3.org/1999/02/22-rdf-syntax-ns#"
   xmlns:svg="http://www.w3.org/2000/svg"
   xmlns="http://www.w3.org/2000/svg"
   xmlns:sodipodi="http://sodipodi.sourceforge.net/DTD/sodipodi-0.dtd"
   xmlns:inkscape="http://www.inkscape.org/namespaces/inkscape"
   width="48"
   height="48"
   id="svg4160"
   version="1.1"
   inkscape:version="0.48.2 r9819"
   sodipodi:docname="Snowflake-08.svg">
  <defs
     id="defs4162" />
  <sodipodi:namedview
     id="base"
     pagecolor="#ffffff"
     bordercolor="#666666"
     borderopacity="1.0"
     inkscape:pageopacity="0.0"
     inkscape:pageshadow="2"
     inkscape:zoom="11.2"
     inkscape:cx="31.723074"
     inkscape:cy="15.458561"
     inkscape:document-units="px"
     inkscape:current-layer="g198"
     showgrid="false"
     fit-margin-top="0"
     fit-margin-left="0"
     fit-margin-right="0"
     fit-margin-bottom="0"
     inkscape:window-width="1585"
     inkscape:window-height="1092"
     inkscape:window-x="2"
     inkscape:window-y="2"
     inkscape:window-maximized="0" />
  <metadata
     id="metadata4165">
    <rdf:RDF>
      <cc:Work
         rdf:about="">
        <dc:format>image/svg+xml</dc:format>
        <dc:type
           rdf:resource="http://purl.org/dc/dcmitype/StillImage" />
        <dc:title />
      </cc:Work>
    </rdf:RDF>
  </metadata>
  <g
     inkscape:label="Layer 1"
     inkscape:groupmode="layer"
     id="layer1"
     transform="translate(-91.528107,-104.27354)">
    <g
       id="g198"
       style="fill:none;stroke:#000000;stroke-width:0.28859234;stroke-miterlimit:4;stroke-opacity:1;stroke-dasharray:none"
       transform="matrix(0.29235908,0,0,0.26301072,21.763738,20.045528)">
      <path
         style="fill:none;stroke:#000000;stroke-width:0.3606243;stroke-miterlimit:4;stroke-opacity:1;stroke-dasharray:none"
         inkscape:connector-curvature="0"
         id="path170"
         d="m 399.48016,413.96778 c -4.59959,-2.89804 -10.17402,-2.58895 -15.49918,-1.5358 -1.11299,0.22348 -3.32546,0.98096 -4.36064,0.29144 -0.21515,-0.15308 -0.18415,-0.14222 -0.31119,-0.38514 0.75893,-1.20234 1.99337,-1.79522 2.72609,-2.97706 1.04868,-1.69276 1.77029,-4.09547 2.41252,-6.23875 0.55093,-1.82931 0.64937,-4.49525 -1.01216,-5.08228 -2.62527,-0.93121 -4.17011,3.88386 -4.82742,5.75513 -1.45196,4.13445 -4.50908,10.3001 -9.26664,8.63656 -0.054,-0.0935 -0.10559,-0.19021 -0.15481,-0.28758 0.55411,-1.26276 1.73219,-1.77764 2.41252,-2.87849 1.66391,-2.68549 3.4866,-6.35485 4.36063,-9.78625 0.56998,-2.24277 0.42789,-6.27777 -1.24714,-6.91161 -2.52922,-0.96536 -3.27624,2.85415 -3.73825,4.70202 -1.4853,5.94914 -2.45062,11.97633 -6.92955,14.20544 -5.76813,2.86581 -8.95942,-4.3461 -13.39626,-5.37581 -3.71365,-0.86299 -6.10235,3.23346 -8.0973,4.60641 -1.50515,1.03266 -3.47788,0.37253 -5.45219,0.5753 -0.0149,-1.84779 -0.33897,-3.23735 -0.46757,-4.79655 3.7708,-0.70795 8.40531,-0.43196 12.22771,-1.63233 9.02532,-2.83856 15.75639,-7.28701 21.57216,-14.20348 1.65439,-1.96875 4.74168,-5.57666 5.6062,-8.25237 0,-0.0315 0,-0.0651 0,-0.0977 -1.96161,-0.61335 -5.10687,-0.51681 -7.4003,-0.28968 -12.23566,1.2189 -19.55817,5.46453 -27.72293,12.38195 -2.12753,2.078 -4.25664,4.15985 -6.38496,6.23879 -0.65017,-1.48021 -1.79014,-3.38268 -2.96028,-4.22125 0,-0.0655 0,-0.12785 0,-0.19406 0.83672,-1.40514 1.83459,-2.89705 3.03807,-3.83997 2.92138,-2.2808 6.25874,-2.85221 8.10048,-6.4299 1.99416,-3.87119 0.41042,-10.75158 3.50486,-13.24203 2.55065,-2.06041 6.65725,-3.67909 9.81281,-1.82541 1.24477,1.02387 2.4927,2.04871 3.73746,3.07065 1.37654,0.97707 2.69195,0.31876 3.19208,-1.15456 2.20453,-6.44352 -4.30506,-8.21433 -8.64346,-8.15583 -1.58453,0.2564 -3.16668,0.51291 -4.75042,0.76936 -0.31675,-0.22523 -0.46996,-0.64063 -0.62238,-1.057 0.98994,-2.27007 6.78268,-5.20908 9.65801,-4.31877 2.00845,0.62409 3.23971,2.17936 5.83879,2.20766 0.80258,-0.88445 1.00423,-1.8391 0.70336,-3.3583 -0.67875,-3.38948 -2.89598,-4.46407 -5.68558,-4.89411 -1.69963,-0.26341 -2.74911,0.74403 -4.20742,0.57534 -0.231,-0.43196 -0.42471,-0.64847 -0.46678,-1.34465 1.22094,-1.66747 2.84358,-2.82689 4.28442,-4.22227 3.09365,-2.99359 5.97374,-7.47619 7.39791,-12.47755 0.58666,-2.05354 1.97352,-7.71017 0.0778,-9.11531 -2.00607,-1.48316 -4.1201,0.88343 -5.52919,2.11207 -3.57392,3.11353 -5.46885,7.73557 -7.32091,12.95536 -0.67953,1.91999 -1.18205,5.7697 -2.57049,6.81312 -0.16193,0.1394 -0.0992,0.22312 -0.3104,0.0956 -0.75178,-0.64549 -0.46202,-2.9497 -0.77877,-4.12468 -0.5295,-1.9678 -3.07459,-6.38212 -4.35984,-7.3904 -0.90261,-0.70599 -2.49825,-0.80932 -3.11508,0.28968 -0.72558,1.28423 -0.43741,3.44993 0.0778,4.70201 1.40671,3.41775 3.539,5.5279 4.51703,9.69458 0.63508,2.70688 0.14447,6.83843 -1.55833,7.5805 -0.0778,-0.0315 -0.15562,-0.0665 -0.2326,-0.0977 -0.66128,-4.94283 -3.46041,-11.83005 -6.07535,-14.301 -0.86848,-0.81909 -3.85734,-2.95166 -4.98541,-0.95657 -1.46227,2.59087 1.03281,5.29972 2.02513,6.52349 2.43077,3.00043 7.58447,8.66385 5.99755,14.78172 -1.94573,7.49374 -7.4241,5.95307 -10.35739,10.84521 -0.83593,1.38757 -1.73457,4.74877 -1.32494,7.38743 0.18496,1.19063 0.72478,2.61137 0.46678,4.22321 -0.36596,2.30126 -1.86794,3.34853 -2.17913,5.37385 -1.23761,-0.52364 -2.26645,-1.411 -3.66045,-1.82541 0.88277,-2.1745 1.76394,-4.34802 2.64671,-6.52644 2.49746,-7.2958 5.75146,-18.40718 4.44081,-29.07589 -0.45885,-3.72294 -0.95898,-7.78822 -1.87032,-11.23034 -0.75178,-2.36758 -1.50515,-4.73515 -2.25692,-7.10076 -0.10478,-0.0956 -0.208,-0.19405 -0.31357,-0.28968 -2.49349,5.25195 -5.19022,10.1002 -7.00894,16.41209 -3.1373,10.88322 -2.26247,25.2047 -0.77797,36.85044 0,0.0354 0,0.0655 0,0.0977 -1.50435,0.51484 -3.07618,0.46903 -4.36063,1.05704 -2.42205,-1.15456 -0.52394,-11.15822 -1.24636,-14.39753 -0.2564,-1.14675 -0.56283,-2.58892 -1.08995,-3.4519 -2.37362,-3.90243 -7.08831,-4.18422 -7.08673,-11.13577 0,-1.56017 0.0269,-2.97702 0.3882,-4.12573 0.59936,-1.30857 1.19475,-2.62204 1.79252,-3.93458 1.62025,-2.86974 5.44186,-2.89607 6.77633,-6.14221 -0.0325,-3.46459 -3.41674,-5.20319 -5.76417,-3.45092 -3.34292,2.48947 -5.25054,6.94768 -6.54055,11.99584 -0.21276,0.16603 -0.92087,0.42807 -1.24635,0 -0.6327,-1.01413 -0.41042,-4.79463 -0.15639,-6.14226 0.3739,-1.98433 0.64381,-3.92967 1.47894,-5.37675 1.35987,-2.34221 3.75175,-3.25199 4.9854,-5.85261 -0.0984,-2.49724 -3.13175,-3.40997 -5.06081,-2.39976 -2.47444,1.29396 -3.98197,4.5606 -4.67342,8.06322 -0.31754,0.24169 -0.64936,0.31595 -1.24634,0.28583 -1.13363,-2.11699 -0.80339,-6.48546 -1.40195,-9.11633 -1.23444,-5.4382 -2.96028,-9.69259 -5.76258,-13.14645 -0.83117,-1.02579 -3.20717,-4.39579 -5.1394,-3.45481 -2.05449,0.99949 -1.80284,6.42988 -1.24476,9.50049 0.90579,4.99453 3.45008,8.7848 5.6046,12.38003 0.96691,1.61184 3.1246,3.46556 3.19367,5.95016 -0.0516,0.0651 -0.104,0.12856 -0.15639,0.19196 -1.28604,-0.16288 -2.00289,-1.01998 -3.11508,-1.34469 -2.01321,-0.58119 -4.28998,0.18809 -6.07377,0.57628 -1.4194,0.31105 -3.62711,1.254 -2.80388,3.7454 1.37257,4.14422 6.31192,1.08043 9.65643,1.72498 3.58741,0.6904 6.20396,1.83514 7.3987,5.47235 -0.0246,0.22207 -0.05,0.44755 -0.0778,0.67085 -1.24556,0.16498 -2.72291,-0.92733 -4.12724,-1.24811 -3.28258,-0.75184 -8.52995,0.22733 -10.2804,1.53579 -0.79861,0.59576 -2.58796,1.82538 -2.10371,3.83899 0.42868,1.77081 2.63718,2.35392 4.51941,1.72597 3.90416,-1.294 9.44605,-3.61478 13.31529,-0.66893 1.4996,1.13988 3.12143,3.99988 3.50486,6.42889 0.61841,3.90631 -0.99628,8.07198 0.23418,11.42051 0.6851,1.86149 2.72848,4.12083 4.28284,4.89411 1.01216,0.44856 2.02512,0.89418 3.03807,1.34076 1.25111,1.02972 2.47444,3.58353 2.96028,5.47234 -1.24317,0.62017 -2.09576,1.87516 -3.11507,2.78199 -1.03995,-1.95021 -2.07752,-3.90242 -3.11508,-5.85162 -1.29954,-2.01754 -2.59591,-4.03112 -3.89464,-6.04866 -4.0685,-6.57906 -12.33965,-13.06357 -19.54784,-15.83579 -2.14499,-0.82301 -4.79646,-1.00925 -6.77474,-1.6304 -0.98199,-0.30615 -1.89493,-0.61726 -3.34926,-0.57534 0.72955,3.63135 3.36752,8.01835 4.98539,10.84717 5.037,8.79941 11.8173,15.3434 20.24722,19.96053 2.58161,1.41394 5.34501,3.23542 8.25448,4.22514 -0.0263,1.5612 -1.30589,3.28222 -1.40036,5.37192 -0.0263,0.0315 -0.0524,0.0655 -0.0786,0.0956 -5.6554,-0.63576 -7.12562,-5.30166 -12.30551,-6.62196 -2.3252,-0.59289 -4.15106,1.40024 -5.68558,2.11113 -3.84225,1.78832 -7.40268,0.89902 -9.57783,-2.49532 -1.04312,-1.62845 -2.07673,-3.84684 -2.41332,-6.23683 -0.48028,-3.4051 1.16856,-5.99107 -0.77797,-8.34891 -1.22967,-0.30124 -2.55065,0.1268 -3.35085,0.67086 -3.89544,2.65819 0.0961,11.84666 1.55833,14.30103 0.6081,1.0219 1.66947,1.79126 2.02511,3.07062 -0.15479,0.32085 -0.31357,0.6416 -0.46836,0.96046 -0.0508,0.0315 -0.10319,0.0655 -0.1548,0.0977 -2.8928,-0.46804 -7.01846,-5.09982 -7.78929,-8.25237 -0.57713,-2.37735 -0.0215,-6.33918 -1.63614,-7.39331 -2.03304,-1.10867 -4.4162,3.15741 -3.89225,6.24075 0.6454,3.79706 2.19262,4.70489 3.34768,7.38743 -0.13018,0.38516 -0.2588,0.76935 -0.389,1.15063 -1.72027,0.37445 -4.48843,-1.9424 -6.07217,-2.58891 -3.99229,-1.62845 -9.13805,-2.3081 -13.39628,-0.76936 -1.78299,0.64844 -4.5583,1.22374 -4.829,3.64981 -0.30404,2.73519 2.08863,3.76396 3.42706,4.60641 3.24845,2.04094 7.57495,2.8454 12.14833,1.92003 1.94256,-0.39491 6.19921,-1.55434 7.78849,-0.6738 -0.20482,1.3008 -1.30985,1.71424 -2.02511,2.39973 -1.23762,1.18478 -5.87531,11.45175 -1.79094,12.18892 2.16246,0.3881 3.22305,-2.43291 3.89385,-4.03109 1.58771,-3.78834 4.94411,-13.25181 10.04542,-10.27089 0,0.0977 0,0.19196 0,0.28757 -0.80497,0.9293 -1.60835,1.85569 -2.41331,2.78494 -1.6409,2.66205 -3.33498,6.17833 -4.28284,9.50053 -0.76289,2.67764 -0.31755,6.23875 1.32255,7.19536 3.47232,-0.035 3.55012,-4.74394 4.36223,-8.06031 1.07726,-4.39286 2.27439,-8.12266 5.1402,-10.26792 0.94944,-0.71085 2.05051,-0.95854 3.58106,-0.96046 4.56069,0 5.83562,3.19349 9.03405,4.89406 0.57872,0.30825 1.36543,0.8942 2.18152,0.86299 1.77664,-0.0645 4.11532,-0.97122 5.37358,-2.10721 0.94707,-0.86005 1.60755,-2.22228 2.80468,-2.78686 1.59009,-0.74501 3.10556,-0.16008 4.90601,-0.28758 0,1.65283 0.11986,3.23543 0.46679,4.50893 0,0.10054 0,0.19406 0,0.29144 -14.37271,-0.028 -25.93439,6.06912 -33.3315,15.35411 -1.74331,2.18914 -4.87505,5.56009 -5.84038,8.44642 -0.0516,0.12681 -0.10477,0.25361 -0.15639,0.38615 13.06841,1.90244 23.86322,-3.23346 31.85176,-9.40885 1.94812,-1.69378 3.89544,-3.38948 5.84117,-5.08227 1.21936,-1.24815 2.44109,-2.49823 3.65967,-3.74347 1.01374,1.5007 2.02511,3.00434 3.03727,4.5089 -1.04312,0.84932 -1.65042,2.54898 -2.7245,3.45193 -2.92853,2.468 -6.44291,2.90778 -8.33466,6.62585 -1.01057,1.98727 -0.7367,5.22077 -1.24476,7.86917 -0.81767,4.25929 -2.7761,6.69804 -6.15236,7.67707 -6.32225,1.83028 -7.27566,-4.03112 -11.76014,-4.03112 -0.82878,0.8971 -1.04947,1.71714 -1.40194,3.26173 -1.10583,4.86583 4.66626,6.21245 7.70831,6.43281 2.28867,0.16498 6.22698,-1.67717 6.61993,0.47491 -1.4591,1.88194 -5.98247,5.11933 -9.18963,4.32266 -1.937,-0.48367 -4.38842,-3.30759 -6.69774,-2.0175 -1.56865,4.81802 2.27201,8.25822 5.99677,7.96861 1.08202,-0.0869 2.56652,-0.97904 3.50565,-0.57923 0.36755,0.2515 0.53506,0.64848 0.54459,1.34469 -1.16856,1.60014 -2.72133,2.72447 -4.12884,4.03014 -3.19446,2.97506 -6.12219,7.66047 -7.55192,12.76324 -0.57078,2.03795 -1.92589,7.43131 -0.15639,8.92812 2.05211,1.73277 4.50908,-1.08824 5.68399,-2.11113 3.54297,-3.07745 5.40931,-7.69459 7.2447,-12.85977 0.58348,-1.646 1.48291,-6.04958 2.56891,-6.81507 0.15399,-0.15307 0.10639,-0.13241 0.39057,-0.19091 0.49061,1.08531 0.33501,2.76248 0.70018,4.12566 0.56443,2.11114 3.06745,6.36847 4.43843,7.48498 0.87562,0.71769 2.43396,0.77717 3.03569,-0.28757 0.92246,-1.61969 0.26039,-4.14811 -0.38819,-5.4665 -0.98755,-1.66547 -1.97193,-3.32902 -2.96027,-4.99257 -1.58136,-3.01208 -2.2609,-9.38835 0.31198,-11.61161 0.0263,0 0.0508,0 0.0786,0 0.46678,1.03556 0.38899,2.6211 0.77718,3.83997 1.17888,3.69373 3.26274,8.37525 5.68558,10.65409 0.85816,0.80348 3.60409,2.93409 4.74962,0.95658 1.49482,-2.57627 -0.97247,-5.23247 -1.94574,-6.42794 -2.29026,-2.81513 -7.52413,-8.39473 -6.07455,-14.7827 1.6647,-7.32406 7.44395,-6.07399 10.35898,-10.9388 0.78353,-1.31348 1.74171,-4.70688 1.40036,-7.10174 -0.18416,-1.29593 -0.79862,-2.70984 -0.54538,-4.41338 0.35485,-2.37924 1.71631,-3.38654 2.1815,-5.3777 1.21936,0.64063 2.43952,1.28223 3.65967,1.92191 -4.4289,8.86085 -8.96419,24.65571 -6.69615,39.06007 0.88117,5.60493 2.3125,10.60142 3.89226,14.87336 0.0524,0 0.104,0 0.15561,0 1.66868,-2.03993 2.73006,-5.13783 3.89464,-7.76966 2.29582,-5.19737 3.77636,-11.05877 4.90681,-17.85139 0.1294,-2.27005 0.2588,-4.54399 0.38899,-6.81405 0.0246,-2.24084 0.0516,-4.47871 0.0778,-6.71755 -0.208,-2.78297 -0.41519,-5.56693 -0.62238,-8.34891 -0.26039,-1.92098 -0.52077,-3.84001 -0.77798,-5.75709 1.46704,-0.51193 3.24686,-0.89416 4.59323,-1.05897 0.26434,1.47146 0.8653,2.70202 1.09155,4.41531 0.25088,1.91512 -0.17305,3.93262 -0.38978,5.47137 -0.33818,2.42509 0.21832,4.8941 0.77798,6.71558 1.55992,5.08617 7.6321,4.46505 7.6321,12.28546 0,1.37197 0.0516,2.6864 -0.23182,3.74147 -0.61127,2.27009 -2.10053,5.17983 -3.66125,6.33726 -1.91001,1.4139 -4.1455,1.67038 -5.06161,4.31582 0.20639,2.97314 2.91106,4.96336 5.29421,3.64694 2.61257,-1.44021 4.85758,-5.28022 5.99756,-8.54002 0.54696,-1.56407 0.34453,-3.96969 2.18071,-4.03113 0.48822,0.9956 0.38978,2.7752 0.38978,4.41339 0,3.50647 -0.9542,7.05981 -2.56969,8.63754 -1.45593,1.42073 -3.09047,2.37437 -3.97165,4.51279 0.0158,2.64744 3.00235,3.39245 4.9068,2.49143 2.52446,-1.19257 4.08358,-4.55766 4.74962,-8.06028 0.33659,-0.29249 0.51601,-0.41053 1.16776,-0.38517 1.19317,1.56214 0.85974,5.90526 1.32574,8.25433 1.24714,6.30507 3.29052,11.16404 6.61914,14.8763 0.85022,0.94684 2.50143,3.51723 4.36063,2.68643 2.09816,-0.93903 2.00528,-6.0964 1.40115,-9.30647 -1.43845,-7.65952 -6.02375,-11.97244 -8.87606,-17.94986 0,-0.22207 0,-0.44562 0,-0.67186 0.95342,-0.18741 1.7171,0.37448 2.49031,0.76743 2.44745,1.26181 11.73553,0.23188 9.57863,-4.1228 -1.89414,-3.83412 -6.42147,-0.80833 -9.96762,-1.53579 -2.40933,-0.4973 -4.29077,-1.26374 -5.68319,-2.977 -0.67636,-0.82885 -1.35272,-1.64403 -1.24794,-3.16621 1.34321,0.0634 2.09419,0.85809 3.27227,1.15064 3.60171,0.88932 9.47463,0.0175 11.37035,-1.53481 0.75734,-0.62313 2.39744,-1.97072 1.86794,-3.74152 -0.64461,-2.17061 -3.28497,-2.10622 -5.21641,-1.44221 -4.19869,1.44516 -9.97397,3.41292 -13.47248,-0.38124 -1.10266,-1.19841 -2.33631,-3.69958 -2.64829,-5.76 -0.56205,-3.69663 0.96691,-7.83308 -0.15639,-11.12893 -0.65731,-1.93074 -2.71815,-4.18713 -4.28283,-4.99257 -1.11934,-0.57631 -2.37124,-0.71572 -3.27067,-1.53579 -1.36623,-1.2423 -1.80523,-3.48508 -2.8039,-5.18274 0.89229,-1.10383 2.17754,-1.62939 2.95949,-2.88049 0.0516,0 0.10319,0 0.1556,0 1.06377,1.9863 2.12912,3.96968 3.19289,5.95209 1.24554,1.92097 2.4919,3.83805 3.73825,5.75901 5.54268,8.64049 18.18797,18.14781 29.67104,18.2346 0.0263,-0.035 0.0516,-0.0655 0.0778,-0.0977 -0.97724,-4.4553 -4.11613,-9.53173 -6.22937,-12.85976 -4.92347,-7.75313 -11.16872,-13.58331 -18.92465,-17.85042 -2.62766,-1.44805 -5.45774,-3.31245 -8.41247,-4.31877 0.36201,-1.82247 1.23444,-3.35438 1.47975,-5.47234 1.45433,0.2564 2.91343,0.46514 4.05024,1.15455 2.64272,1.5943 4.71072,5.52303 8.48945,5.56496 3.20955,0.0315 6.75728,-4.01938 9.88982,-3.35827 1.64328,0.34503 3.11825,1.54067 4.28284,2.58892 1.52023,1.37001 2.96187,4.51769 3.34927,7.20023 0.41915,2.9185 -1.29557,7.53077 0.85656,8.54101 0.62477,0.29248 1.27652,0.028 1.71472,-0.0956 2.41729,-0.68451 3.73985,-2.25835 3.11349,-6.23683 -0.84385,-5.36702 -3.14762,-7.98223 -5.14019,-11.71012 0.13018,-0.28758 0.26039,-0.57722 0.38899,-0.8649 1.14235,-0.60945 2.55779,1.04628 3.34847,1.63037 1.89969,1.41296 3.978,3.51624 4.6742,6.33823 0.13019,1.34081 0.2588,2.68643 0.38899,4.02724 0.21195,1.20913 0.63112,2.26612 0.93357,3.26561 2.56494,1.06777 4.78376,-2.56842 4.20663,-6.23875 -0.50489,-3.20033 -1.92827,-5.13884 -3.34927,-7.1973 0.0667,-0.59386 0.25087,-0.94586 0.54618,-1.24717 1.57897,-0.28967 4.44716,2.07113 5.99438,2.68448 4.21377,1.67818 9.1182,2.28956 13.23988,0.76938 1.85047,-0.67866 4.47018,-1.1906 4.9076,-3.55137 0.48901,-2.69421 -1.99099,-3.85073 -3.19923,-4.61423 z m -79.2035,-14.20057 c 1.90128,0.0245 3.20796,0.71086 4.59403,1.24427 -1.14156,2.01746 -2.28392,4.035 -3.42706,6.04858 -0.12941,0.12786 -0.25881,0.25255 -0.38899,0.38324 -0.85577,-2.36757 -1.71234,-4.73318 -2.5705,-7.09977 0.40884,-0.41347 1.26937,-0.30054 1.79252,-0.57632 z m -4.98222,2.20767 c 0.90579,2.3978 1.81554,4.79656 2.7245,7.19534 -2.10292,-0.22208 -4.20503,-0.44661 -6.30954,-0.6738 0.30802,-3.15448 2.18865,-4.68639 3.58504,-6.52154 z m -1.17014,17.56273 c -0.0245,0 -0.0508,0 -0.0778,0 -1.34876,-1.28518 -2.53954,-4.1871 -2.64829,-6.91063 2.07592,0.22208 4.15581,0.44661 6.23094,0.67187 -1.16934,2.07698 -2.33472,4.15691 -3.50486,6.23876 z m 8.79986,3.16421 c -2.26248,0.58606 -4.20186,-0.0245 -6.07456,-0.67085 1.16855,-2.04676 2.3379,-4.09547 3.50486,-6.1432 0.7486,0.68062 2.14261,5.41188 2.57049,6.71853 -7.9e-4,0.0315 -7.9e-4,0.0634 -7.9e-4,0.0956 z m 3.11587,-1.72589 c -0.83116,-2.27202 -1.66074,-4.54404 -2.4927,-6.81409 2.02592,0.22348 4.04945,0.4466 6.07457,0.67183 0.0278,0.0624 0.0516,0.1268 0.0778,0.1902 -0.88276,2.45434 -1.8346,4.67953 -3.65966,5.95209 z m 4.12645,-10.26992 c -2.07513,-0.22243 -4.15265,-0.4466 -6.22936,-0.67088 0.51759,-2.40656 2.64114,-4.2924 3.58186,-6.43085 1.73695,1.02582 2.11721,4.42991 2.6475,7.00716 0,0.0315 0,0.0634 0,0.0946 z"
         clip-rule="evenodd" />
    </g>
  </g>
</svg>
