<?xml version="1.0" encoding="UTF-8" standalone="no"?>
<!-- Created with Inkscape (http://www.inkscape.org/) -->

<svg
   xmlns:dc="http://purl.org/dc/elements/1.1/"
   xmlns:cc="http://creativecommons.org/ns#"
   xmlns:rdf="http://www.w3.org/1999/02/22-rdf-syntax-ns#"
   xmlns:svg="http://www.w3.org/2000/svg"
   xmlns="http://www.w3.org/2000/svg"
   xmlns:sodipodi="http://sodipodi.sourceforge.net/DTD/sodipodi-0.dtd"
   xmlns:inkscape="http://www.inkscape.org/namespaces/inkscape"
   width="48"
   height="48"
   id="svg4160"
   version="1.1"
   inkscape:version="0.48.2 r9819"
   sodipodi:docname="Snowflake-07.svg">
  <defs
     id="defs4162" />
  <sodipodi:namedview
     id="base"
     pagecolor="#ffffff"
     bordercolor="#666666"
     borderopacity="1.0"
     inkscape:pageopacity="0.0"
     inkscape:pageshadow="2"
     inkscape:zoom="11.2"
     inkscape:cx="35.465606"
     inkscape:cy="15.458561"
     inkscape:document-units="px"
     inkscape:current-layer="g198"
     showgrid="false"
     fit-margin-top="0"
     fit-margin-left="0"
     fit-margin-right="0"
     fit-margin-bottom="0"
     inkscape:window-width="1585"
     inkscape:window-height="1092"
     inkscape:window-x="2"
     inkscape:window-y="2"
     inkscape:window-maximized="0" />
  <metadata
     id="metadata4165">
    <rdf:RDF>
      <cc:Work
         rdf:about="">
        <dc:format>image/svg+xml</dc:format>
        <dc:type
           rdf:resource="http://purl.org/dc/dcmitype/StillImage" />
        <dc:title />
      </cc:Work>
    </rdf:RDF>
  </metadata>
  <g
     inkscape:label="Layer 1"
     inkscape:groupmode="layer"
     id="layer1"
     transform="translate(-91.528107,-104.27354)">
    <g
       id="g198"
       style="fill:none;stroke:#000000;stroke-width:0.28859234;stroke-miterlimit:4;stroke-opacity:1;stroke-dasharray:none"
       transform="matrix(0.29235908,0,0,0.26301072,21.763738,20.045528)">
      <g
         id="g10781"
         style="stroke-width:0.3606243;stroke-miterlimit:4;stroke-dasharray:none">
        <path
           clip-rule="evenodd"
           d="m 297.54321,370.72104 c 5.238,-0.184 5.46,6.132 1.174,6.943 -2.442,0.461 -4.622,-2.018 -3.833,-4.524 0.44,-1.405 1.459,-1.756 2.659,-2.419 z"
           id="path200"
           inkscape:connector-curvature="0"
           style="fill:none;stroke:#000000;stroke-width:0.3606243;stroke-miterlimit:4;stroke-opacity:1;stroke-dasharray:none" />
        <path
           clip-rule="evenodd"
           d="m 342.49731,370.1696 c 4.622,-0.115 5.002,6.112 1.096,6.943 -2.902,0.616 -4.942,-2.268 -3.99,-4.759 0.509,-1.33 1.56,-1.637 2.894,-2.184 z"
           id="path202"
           inkscape:connector-curvature="0"
           style="fill:none;stroke:#000000;stroke-width:0.3606243;stroke-miterlimit:4;stroke-opacity:1;stroke-dasharray:none" />
        <path
           clip-rule="evenodd"
           d="m 275.98921,407.47536 c 5.359,-0.189 5.495,6.144 1.172,6.942 -2.336,0.432 -4.475,-1.994 -3.833,-4.291 0.432,-1.533 1.394,-1.946 2.661,-2.651 z"
           id="path204"
           inkscape:connector-curvature="0"
           style="fill:none;stroke:#000000;stroke-width:0.3606243;stroke-miterlimit:4;stroke-opacity:1;stroke-dasharray:none" />
        <path
           clip-rule="evenodd"
           d="m 363.35391,407.81484 c 5.308,-0.187 5.457,6.167 1.096,6.942 -2.356,0.419 -4.529,-2.057 -3.755,-4.523 0.432,-1.372 1.436,-1.817 2.659,-2.419 z"
           id="path206"
           inkscape:connector-curvature="0"
           style="fill:none;stroke:#000000;stroke-width:0.3606243;stroke-miterlimit:4;stroke-opacity:1;stroke-dasharray:none" />
        <path
           clip-rule="evenodd"
           d="m 401.65966,452.63413 c -1.5996,-1.71775 -3.39747,-0.25489 -4.68727,-0.8624 -2.79853,-1.57267 -5.60016,-3.14534 -8.40075,-4.717 0,-0.10478 0,-0.20956 0,-0.31333 1.31459,-0.63269 3.46357,-1.43867 4.36199,-2.51567 -0.61857,-1.33591 -1.23817,-2.67182 -1.85777,-4.00874 -1.83402,0.20955 -5.66625,2.99825 -7.67478,3.84956 -1.2929,-0.70624 -2.58477,-1.41248 -3.8787,-2.11973 -0.0547,-0.0786 -0.1074,-0.15817 -0.16109,-0.23675 3.07011,-1.70163 6.14023,-3.40628 9.21035,-5.10791 -0.5659,-1.33491 -1.1318,-2.67183 -1.6977,-4.00875 -0.95935,-0.36571 -2.81505,1.17774 -3.63499,1.65126 -2.96272,1.57166 -5.92441,3.14231 -8.8861,4.71499 -1.77825,-0.96819 -3.55444,-1.93839 -5.33269,-2.90859 -0.0527,-0.0786 -0.10637,-0.15616 -0.16006,-0.23474 0.7652,-0.95509 2.61677,-1.41349 3.71553,-2.04216 3.44601,-1.91219 6.89305,-3.82438 10.34009,-5.73657 -0.64438,-1.38931 -1.29186,-2.77862 -1.93831,-4.16591 -5.70755,3.06373 -11.41923,6.12949 -17.12472,9.19524 -2.72107,-1.49308 -5.44215,-2.98616 -8.16013,-4.48025 -0.0547,-0.0786 -0.1074,-0.15616 -0.16213,-0.23575 6.83936,-3.74479 13.68181,-7.4916 20.52013,-11.23739 -0.16833,-1.38125 -1.1948,-3.04963 -1.85881,-4.16491 -1.82678,0.25993 -4.80293,2.4794 -6.38084,3.37908 -5.68174,3.09093 -11.36657,6.18389 -17.04727,9.27482 -0.13424,-0.0272 -0.26849,-0.0534 -0.4048,-0.0796 -0.73423,-1.59685 -0.0805,-6.22519 -0.0805,-8.25224 0.0547,-6.73095 0.10843,-13.46593 0.16213,-20.19587 0.0258,-0.0272 0.0547,-0.0534 0.0805,-0.0796 7.83484,4.21831 15.67278,8.4356 23.50969,12.65391 0.83749,-0.71934 1.72662,-3.04158 2.01886,-4.16592 -6.83832,-3.71859 -13.68077,-7.4382 -20.52012,-11.15982 0.30257,-0.77474 6.99012,-4.25961 8.1591,-4.79256 1.52938,0.27403 2.97202,1.49409 4.19986,2.19731 3.1517,1.67845 6.30339,3.35489 9.452,5.03133 1.04402,0.59341 2.3204,1.69458 3.63602,1.88499 0.61856,-1.2805 1.24023,-2.56503 1.8588,-3.84957 -0.20963,-1.11326 -2.71695,-1.75603 -3.63499,-2.27891 -3.47492,-1.9132 -6.94882,-3.82539 -10.42167,-5.73758 1.80406,-1.07296 3.6071,-2.14794 5.41117,-3.22191 4.11931,2.19933 8.24068,4.40167 12.35999,6.60099 0.0279,0 0.0547,0 0.0826,0 0.64645,-1.36211 1.29187,-2.72422 1.93832,-4.08632 -0.46057,-0.63371 -8.11573,-4.77947 -9.21036,-5.10791 0.39138,-1.06893 2.81195,-1.69457 3.71864,-2.35951 0.17142,-0.23172 0.0909,-0.0161 0,-0.31332 2.84396,1.00747 4.99397,3.04056 7.75326,4.08733 0.78586,-0.61759 1.86913,-3.07684 2.02093,-4.16592 -0.74765,-0.84023 -3.16203,-2.11368 -4.36302,-2.35749 0.26643,-0.7677 1.35899,-0.93796 2.01886,-1.33592 2.28943,-1.30972 4.57885,-2.62044 6.86724,-3.92915 0.64645,0.0252 1.2929,0.0514 1.93831,0.0796 1.05849,-0.25187 2.06947,-1.0236 2.50422,-1.88801 2.58167,-5.10892 -6.81973,-7.2095 -6.86723,-1.64924 -2.85326,1.62304 -5.70859,3.2481 -8.56184,4.87316 -0.0258,0 -0.0547,0 -0.0805,0 -0.0269,-1.62506 -0.0558,-3.25012 -0.0816,-4.87316 0,-0.0534 0,-0.10478 0,-0.15818 -1.5614,-0.12895 -3.12382,-0.26093 -4.68521,-0.3919 -0.0547,2.696 -0.1074,5.39705 -0.16213,8.09507 -0.42856,0.71329 -3.17855,1.95853 -4.03876,2.43608 -0.1074,0 -0.2148,0 -0.32219,0 0.0558,-3.43147 0.10739,-6.86394 0.16213,-10.29641 -1.50873,-0.18437 -3.01642,-0.36672 -4.52309,-0.55008 -0.0279,0 -0.0558,0 -0.0826,0 -0.30773,0.66392 -0.0227,1.78222 -0.16006,2.67182 -0.0558,3.64001 -0.1074,7.28406 -0.16213,10.92407 -1.12664,0.79994 -4.30932,2.98515 -5.73646,3.14333 0.0537,-5.21168 0.10739,-10.42739 0.16212,-15.63805 -0.34387,-0.31937 -4.18953,-0.59038 -4.68521,-0.4715 -0.10739,6.31284 -0.21582,12.62771 -0.32425,18.94055 -2.77271,1.57167 -5.54749,3.14333 -8.32123,4.71499 -0.0248,0 -0.0527,0 -0.0806,0 0.10843,-7.64876 0.21686,-15.30054 0.32322,-22.94829 -1.15452,-0.54807 -3.67732,-0.51281 -4.76679,-0.4705 -0.13321,8.72274 -0.26952,17.44748 -0.40377,26.1692 -0.0806,0.0796 -0.16109,0.15818 -0.24061,0.23878 -1.59134,-0.20855 -5.48759,-2.98818 -6.94882,-3.8536 -4.1193,-2.3575 -8.23964,-4.71499 -12.36205,-7.07349 -1.67292,-0.97423 -4.87212,-2.18421 -6.05659,-3.53524 7.69956,-4.50644 15.40326,-9.01187 23.10385,-13.51731 -0.88706,-1.25934 -1.77825,-2.51567 -2.66531,-3.773 -6.7588,3.90196 -13.51967,7.80694 -20.27744,11.7099 -0.40481,-0.5531 -0.17969,-7.96309 -0.1611,-9.3524 5.57227,-3.24811 11.14764,-6.49823 16.72094,-9.74431 0,-0.1068 0,-0.20956 0,-0.31635 -0.86124,-1.17774 -1.72352,-2.35649 -2.58476,-3.53624 -4.65733,2.67182 -9.31776,5.34466 -13.97508,8.01749 -0.474,-0.63773 -0.18072,-5.10085 -0.1611,-6.28766 3.983,-2.3051 7.97115,-4.61222 11.95518,-6.91632 -0.22512,-1.4951 -1.83711,-2.41492 -2.42367,-3.69341 -0.13528,-0.0524 -0.26952,-0.10579 -0.40377,-0.15817 -3.01745,1.75502 -6.03181,3.51105 -9.04926,5.26607 -0.2592,-1.01956 0.4203,-3.7468 -0.24267,-4.48024 0.97587,-1.06994 5.76434,-3.84252 7.271,-4.40066 0.0547,-0.0786 0.1074,-0.15717 0.1611,-0.23474 -0.88706,-1.23214 -1.77825,-2.46328 -2.66428,-3.69442 -1.54797,0.36471 -3.17958,1.70163 -4.44357,2.51466 -0.4079,-0.55612 -0.17968,-8.10212 -0.16109,-9.50856 3.84978,-3.12922 -0.3604,-8.70258 -4.36509,-5.65899 -1.10392,0.83923 -1.64917,3.10202 -0.72596,4.55782 0.29637,0.36672 0.59378,0.73344 0.88809,1.10016 -0.0258,3.11714 -0.0527,6.23427 -0.0795,9.35241 0,0.0514 0,0.10478 0,0.15716 -1.5077,-0.83822 -3.01642,-1.67644 -4.52515,-2.51466 -0.88809,1.17875 -1.77825,2.3575 -2.66428,3.53624 0,0.10478 0,0.21057 0,0.31434 1.53454,0.58534 6.84039,3.54329 7.26894,4.95074 0,1.28352 0,2.56705 0,3.85057 -0.57726,0.17228 -1.71526,-0.82411 -2.34209,-1.17875 -2.26257,-1.30972 -4.52411,-2.61943 -6.78565,-3.92915 -0.1074,0 -0.21583,0 -0.32219,0 -0.86228,1.23214 -1.72352,2.46328 -2.5858,3.69441 3.98403,2.33029 7.97116,4.6626 11.95622,6.9939 0,2.06936 0,4.13972 0,6.21009 0,0.0524 0,0.10377 0,0.15716 -4.6594,-2.67182 -9.31776,-5.34567 -13.97508,-8.01749 -0.91701,1.17874 -1.83195,2.35749 -2.74896,3.53624 0,0.0786 0,0.15817 0,0.23676 5.57537,3.2481 11.15073,6.49822 16.72404,9.74431 0,3.09194 0,6.18389 0,9.27482 0,0.0524 0,0.10377 0,0.15717 -6.78566,-3.90397 -13.57234,-7.80794 -20.358,-11.7099 -0.917,1.20394 -1.83195,2.41089 -2.74689,3.61382 0,0.0262 0,0.0534 0,0.0796 1.37241,0.81203 2.74689,1.62506 4.11931,2.43608 3.12278,1.80741 6.24763,3.61583 9.37145,5.42324 3.20436,1.8588 6.41079,3.71961 9.61413,5.58042 -0.28915,0.91982 -5.04768,2.98313 -6.13921,3.61381 -6.32715,3.51106 -12.65843,7.02312 -18.98558,10.53015 -0.10739,0 -0.21479,0 -0.32219,0 -0.13631,-8.59075 -0.27056,-17.18453 -0.40584,-25.77629 -0.0816,-0.0514 -0.16006,-0.10477 -0.24164,-0.15616 -1.45296,0.10478 -2.90696,0.20956 -4.36302,0.31333 -0.43475,0.73747 -0.30154,5.28018 -0.0816,6.68058 0.0816,5.42324 0.16213,10.84649 0.24371,16.26973 -0.0269,0.0242 -0.0558,0.0514 -0.0816,0.0756 -2.77374,-1.51625 -5.54749,-3.03653 -8.32123,-4.55681 -0.1074,-6.31285 -0.21479,-12.6267 -0.32219,-18.94056 -1.04713,-0.4584 -3.59885,0.0725 -4.68624,0.23575 -0.53079,1.14248 -0.0847,3.58359 -0.0816,5.10891 0.0816,3.53725 0.16212,7.07349 0.24164,10.61074 -0.1074,0.0252 -0.2148,0.0514 -0.32219,0.0776 -1.75141,-0.96818 -3.49971,-1.93939 -5.25111,-2.90758 -0.30154,-0.64579 -0.0578,-1.75704 -0.16213,-2.43607 -0.0816,-3.773 -0.16007,-7.545 -0.24165,-11.31799 -1.50769,0.13198 -3.01538,0.26295 -4.52308,0.39392 -0.40377,0.30728 -0.33252,1.96256 -0.24267,2.67183 0.0547,2.54085 0.10739,5.08271 0.16213,7.62256 -0.0258,0.0272 -0.0547,0.0534 -0.0816,0.0806 -1.50769,-0.81303 -3.01642,-1.62506 -4.52514,-2.43608 0.36453,-2.39376 0.16936,-5.34063 0.16213,-8.01649 -1.37138,-0.35161 -3.1579,0.20654 -4.60466,0.23575 -0.46987,0.79591 -0.2592,3.8133 -0.0795,5.02933 -0.0826,0.0252 -0.16213,0.0514 -0.24268,0.0796 -2.93587,-1.65227 -5.87174,-3.3015 -8.80555,-4.95276 -0.99032,-4.90742 -8.12295,-3.89692 -7.27204,0.62766 0.27986,1.47595 1.37965,2.65571 2.82848,2.98817 0.75384,-0.0534 1.50872,-0.10679 2.26257,-0.15817 2.96066,1.70364 5.92441,3.40426 8.8861,5.10891 0,0.0252 0,0.0514 0,0.0776 -1.25159,0.95206 -3.36236,1.40039 -4.36302,2.59425 0.61857,1.33591 1.24023,2.67183 1.8588,4.00875 0.0816,0.0252 0.1611,0.0514 0.24165,0.0786 2.17789,-1.53136 5.10757,-2.29604 7.10887,-4.00774 1.4003,0.73445 2.80163,1.46689 4.20089,2.19932 0.0547,0.0796 0.1074,0.15818 0.16213,0.23575 -0.7146,0.79792 -7.70576,4.49536 -8.96768,4.87316 -0.0795,0.10377 -0.16006,0.20956 -0.24164,0.31434 0.59275,1.36211 1.18447,2.72522 1.77825,4.08733 1.30942,-0.11082 2.48873,-1.16464 3.47079,-1.72984 2.90903,-1.57166 5.81908,-3.14332 8.72604,-4.71499 1.57998,0.13702 4.3909,2.21343 5.73646,2.98616 0,0.0796 0,0.15616 0,0.23374 -4.68624,2.54287 -9.37145,5.08272 -14.05666,7.62357 0.61857,1.3873 1.2392,2.77661 1.85777,4.16491 1.74314,-0.24683 3.52862,-1.79432 4.92789,-2.59325 4.03876,-2.17312 8.07958,-4.34826 12.11834,-6.52038 1.4003,0.18537 7.25345,3.72867 8.48129,4.63439 0,0.0272 0,0.0544 0,0.0786 -4.97951,2.72523 -9.96316,5.44944 -14.94475,8.17466 -1.82575,1.04577 -4.1348,1.77316 -5.65488,3.14232 0.64645,1.36413 1.2929,2.72724 1.94038,4.08834 7.72538,-4.16591 15.45592,-8.33283 23.1844,-12.49573 0.62786,0.86946 0.0795,6.15367 0.0795,7.54399 -0.0547,6.83673 -0.1074,13.67548 -0.16213,20.51222 -1.63058,-0.18135 -3.39025,-1.69861 -4.68315,-2.43709 -6.14023,-3.27329 -12.2815,-6.5496 -18.41864,-9.82289 -0.64645,1.3621 -1.2929,2.72522 -1.94038,4.08733 6.8125,3.71859 13.62707,7.44021 20.43751,11.15881 0.0279,0.0524 0.0547,0.10477 0.0826,0.15615 -2.72005,1.57267 -5.44112,3.14535 -8.16013,4.71701 -5.73647,-3.06575 -11.4719,-6.1315 -17.2063,-9.19524 -0.0279,0 -0.0568,0 -0.0826,0 -0.64645,1.36211 -1.2929,2.72321 -1.93832,4.08733 1.40443,1.32786 3.68869,1.99581 5.41324,2.98516 2.88114,1.57367 5.76228,3.14433 8.64342,4.717 -0.28398,0.91076 -4.36714,2.58115 -5.33269,3.29949 -3.20436,-1.67645 -6.40976,-3.35289 -9.61309,-5.02933 -0.83337,-0.47956 -1.79788,-1.37923 -2.90696,-1.49207 -0.62063,1.36211 -1.24127,2.72522 -1.8588,4.08733 1.41372,1.55555 8.59695,3.94024 9.20829,5.34466 -1.37242,0.75964 -2.74586,1.51827 -4.11931,2.27791 -2.33589,-1.04475 -5.14681,-2.42903 -7.18943,-3.92815 -0.0816,-0.0252 -0.16212,-0.0534 -0.24164,-0.0776 -0.67433,1.38629 -1.34763,2.7756 -2.0199,4.16491 1.45193,0.78382 2.90696,1.57267 4.36199,2.35649 0.0258,0.0534 0.0547,0.10477 0.0805,0.15716 0,0.0524 0,0.10478 0,0.15818 -2.93588,1.64924 -5.87175,3.29948 -8.80659,4.95074 -0.40377,-0.10478 -0.80754,-0.20956 -1.21028,-0.31434 -1.05642,-0.17127 -2.11903,0.37579 -2.66635,0.78684 -1.11941,0.83923 -1.73798,3.06676 -0.80651,4.55682 0.80548,1.29058 3.26323,2.32525 5.08898,1.17774 1.17105,-0.73445 0.99239,-2.03712 1.77825,-2.74941 0.67743,-0.61657 8.05274,-4.68476 8.88507,-4.79458 0,1.59786 0,3.19673 0,4.79458 0.22306,0.31333 4.15029,0.70322 4.68727,0.55009 0.0795,-2.74941 0.16007,-5.50284 0.24165,-8.25123 1.37448,-0.76065 2.74689,-1.52029 4.12034,-2.28093 0.0258,0 0.0547,0 0.0806,0 -0.0258,3.40628 -0.0547,6.81255 -0.0806,10.21782 0.28915,0.39191 3.85494,0.63068 4.60466,0.62968 0.33872,-0.72337 0.009,-1.95249 0.16213,-2.90859 0.0527,-3.56243 0.1074,-7.12689 0.16006,-10.68731 1.20719,-0.82512 4.25769,-2.93578 5.7375,-3.14332 -0.0816,5.23686 -0.16213,10.47775 -0.24268,15.71764 1.47981,0.18336 2.96169,0.36672 4.44357,0.55109 0.76727,-0.55714 0.40377,-3.71759 0.40377,-5.34668 0.0795,-4.58301 0.16006,-9.16904 0.24268,-13.75205 1.69564,-0.943 3.39231,-1.886 5.08691,-2.829 0.99136,-0.57728 2.07566,-1.55252 3.3128,-1.80741 -0.1074,7.62055 -0.21686,15.24715 -0.32323,22.86971 1.17311,0.56621 3.49971,0.53497 4.68728,0.54807 0.16006,-8.58974 0.32219,-17.18452 0.48329,-25.77527 8.23965,4.66159 16.48136,9.32721 24.71998,13.9888 0.0547,0.0786 0.10739,0.15616 0.16213,0.23475 -5.52064,3.2481 -11.04128,6.49822 -16.56088,9.74431 -1.46019,0.86643 -5.02599,2.29805 -5.89756,3.53725 0.88809,1.20393 1.77618,2.4119 2.66634,3.61684 2.11387,-0.45639 4.29486,-2.4119 6.05969,-3.45867 4.76473,-2.75041 9.53048,-5.50283 14.29624,-8.25325 0.0279,0 0.0547,0 0.0826,0 0,3.09195 0,6.1849 0,9.27483 -0.57726,0.96819 -3.72896,2.24466 -4.84733,2.90657 -3.95718,2.3313 -7.91746,4.66462 -11.8767,6.99592 0.37072,1.348 1.88668,2.65974 2.66841,3.773 4.68521,-2.67385 9.37042,-5.34467 14.05562,-8.01649 0,2.11973 0,4.24349 0,6.36523 -3.98506,2.3041 -7.97218,4.60921 -11.95621,6.91532 0.83439,1.23114 1.67085,2.46227 2.50422,3.69341 0.10739,0.0252 0.21582,0.0524 0.32219,0.0796 3.01538,-1.72883 6.03387,-3.46068 9.04719,-5.1875 0.0279,0 0.0547,0 0.0826,0 0.0268,1.52029 0.0537,3.03855 0.0795,4.55783 -0.83956,1.15053 -5.75402,3.44859 -7.26894,4.39965 0.83439,1.23214 1.66879,2.46428 2.50215,3.69542 0.86434,0.11787 3.75891,-1.91824 4.60466,-2.43608 0.23545,0.50676 0.4203,8.9615 0.16213,9.8229 -0.32219,0.39291 -0.64542,0.78583 -0.96864,1.17774 -0.92734,1.52733 -0.15697,3.6924 0.88912,4.48125 4.00985,3.0184 8.30265,-3.05467 4.28144,-5.65899 0,-3.24811 0,-6.49722 0,-9.74432 1.50769,0.81203 3.01539,1.62305 4.52411,2.43508 0.91495,-1.23215 1.82989,-2.46228 2.74483,-3.69341 -0.32219,-0.37176 -7.10371,-4.4329 -7.51162,-4.47924 0.0795,-0.0786 0.16007,-0.15616 0.24268,-0.23575 0,-1.44069 0,-2.88139 0,-4.32208 1.12561,0.21661 2.1655,1.19386 3.06909,1.72783 1.99304,1.15456 3.98506,2.30611 5.97707,3.46068 0.10843,0 0.21686,0 0.32323,0 0.86227,-1.17976 1.72352,-2.35851 2.5858,-3.53725 -0.26643,-0.88658 -1.98479,-1.35607 -2.74587,-1.80742 -3.01642,-1.75603 -6.03387,-3.51105 -9.04822,-5.26607 -0.66401,-1.4145 -0.18485,-4.59611 -0.1611,-6.36625 0.0537,-0.0262 0.1074,-0.0544 0.1611,-0.0776 4.63048,2.67182 9.26302,5.34264 13.89453,8.01649 0.88706,-1.15457 1.77825,-2.30612 2.66531,-3.46068 0,-0.10377 0,-0.20755 0,-0.31333 -5.5733,-3.25012 -11.14867,-6.49722 -16.72094,-9.74633 0,-3.11713 0,-6.23426 0,-9.35038 0.0537,-0.0272 0.1074,-0.0534 0.1611,-0.0806 6.73195,3.90397 13.46391,7.80794 20.19586,11.71191 0.91701,-1.23214 1.83092,-2.46429 2.7469,-3.69542 -1.02131,-1.22006 -5.46797,-3.25717 -7.10888,-4.16491 -5.2253,-3.03855 -10.44853,-6.07811 -15.67279,-9.11665 -0.0547,-0.0776 -0.10739,-0.15616 -0.16109,-0.23575 8.45444,-4.6616 16.91095,-9.32621 25.36539,-13.98781 0.16007,8.56255 0.32219,17.13315 0.48432,25.6977 1.12664,0.47856 2.91419,-0.3778 4.20089,-0.15615 0.98104,-0.43423 0.71564,-4.0823 0.5659,-5.659 -0.10739,-5.78694 -0.21479,-11.57893 -0.32322,-17.36788 0.0806,-0.0252 0.16316,-0.0534 0.24268,-0.0776 2.71901,1.51827 5.44008,3.03855 8.15806,4.55682 0.10843,6.33904 0.21686,12.6811 0.32426,19.01913 0.75282,0.24381 3.60194,0.0615 4.52308,-0.31433 0.0805,-0.0252 0.16213,-0.0514 0.24268,-0.0776 -0.0805,-5.18649 -0.16213,-10.375 -0.24268,-15.56048 0.0537,-0.0524 0.1074,-0.10477 0.16213,-0.15616 1.802,0.96819 3.60814,1.93637 5.41117,2.90557 0.35421,0.76568 0.002,2.06633 0.16213,3.06575 0.0806,3.53624 0.16213,7.07349 0.24061,10.60973 0.43063,0.36773 3.72587,-0.19142 4.60673,-0.23575 0.39345,-0.83217 0.14044,-9.4189 -0.0816,-10.21682 0.0269,-0.0524 0.0558,-0.10477 0.0816,-0.15716 0.0806,-0.0252 0.1611,-0.0514 0.24061,-0.0786 1.26605,0.70826 2.5321,1.4145 3.79815,2.12175 0.45437,2.32828 0.41926,5.7406 0.40377,8.41041 1.53661,-0.10478 3.07012,-0.20955 4.60467,-0.31433 0.47915,-0.98028 0.13424,-3.56647 0.0805,-4.95175 0.1074,-0.0242 0.2148,-0.0524 0.3222,-0.0776 2.93587,1.62405 5.87174,3.2481 8.80555,4.87115 0.83955,0.69112 0.54628,2.13484 2.18099,2.90959 2.0705,0.98027 4.22051,-0.47956 4.84734,-1.72782 0.7115,-1.41551 -0.001,-3.2471 -0.71874,-4.01883 z m -66.32613,-61.22031 c 2.69217,1.49107 5.38536,2.98717 8.07856,4.47924 0.0258,0.0514 0.0537,0.10478 0.0795,0.15616 -2.63846,1.49207 -5.27692,2.98616 -7.91539,4.48126 -0.0279,0 -0.0547,0 -0.0816,0 -0.47503,-1.71674 -0.44921,-7.48858 -0.1611,-9.11666 z m -5.49482,-3.3015 c 0.0279,0.0514 0.0547,0.10377 0.0816,0.15818 -2.26051,1.3621 -4.52412,2.72421 -6.78463,4.08632 -0.0826,0.0252 -0.16109,0.0514 -0.24267,0.0786 -0.0258,-2.7232 -0.0547,-5.44843 -0.0795,-8.17264 2.34209,1.28151 4.68315,2.56503 7.02523,3.84956 z m -11.55141,-3.92915 c 0.24165,0.10175 0.0981,-0.005 0.24268,0.15615 0,3.11714 0,6.23427 0,9.35241 -2.82744,-1.49208 -5.65695,-2.98516 -8.48233,-4.47924 -0.0558,-0.0776 -0.10739,-0.15818 -0.16212,-0.23575 2.80059,-1.59685 5.60325,-3.19773 8.40177,-4.79357 z m -21.00237,11.6303 c 2.53106,-1.41349 5.06213,-2.82899 7.59423,-4.24349 0.24061,0.10176 0.0981,-10e-4 0.24267,0.15616 0.0795,2.88239 0.16007,5.76377 0.24062,8.64616 -0.0527,0.0262 -0.1074,0.0514 -0.1611,0.0796 -2.63846,-1.46688 -5.27796,-2.93377 -7.91642,-4.40166 0,-0.0786 0,-0.15717 0,-0.23676 z m -2.10148,3.45968 c 2.63846,1.46487 5.27796,2.93377 7.91642,4.39965 0,0.0262 0,0.0514 0,0.0776 -0.90048,0.84225 -2.11077,1.24726 -3.23225,1.886 -1.53764,0.87952 -3.05979,2.15801 -4.76472,2.83101 -0.0279,0 -0.0547,0 -0.0805,0 -0.20653,-0.7536 -0.12289,-8.59277 0.1611,-9.19423 z m -0.40274,24.2832 c 0.0537,-2.98515 0.1074,-5.97232 0.16006,-8.95949 2.66428,1.3883 5.33269,2.77761 7.99904,4.16491 0.0527,0.0796 0.1074,0.15817 0.16006,0.23676 -2.72004,1.54446 -5.44009,3.08993 -8.1591,4.6364 -0.0527,-0.0252 -0.10636,-0.0514 -0.16006,-0.0786 z m 10.90393,8.09507 c -0.0806,0.0514 -0.16007,0.10478 -0.24061,0.15616 -1.32285,-1.1314 -7.82349,-3.97349 -8.24172,-5.02932 2.72108,-1.51827 5.44216,-3.03855 8.16014,-4.55782 0.0268,0 0.0547,0 0.0816,0 0.34387,0.46444 0.24784,8.72776 0.24061,9.43098 z m 13.16753,7.62257 c -0.0537,0.0252 -0.10636,0.0534 -0.16109,0.0786 -2.44846,-1.38729 -4.90001,-2.77761 -7.34949,-4.16692 -0.0826,-0.10377 -0.16213,-0.20754 -0.24268,-0.31333 2.50422,-1.49408 5.00843,-2.98716 7.51162,-4.48024 0.0279,0 0.0568,0 0.0806,0 0.59584,0.81404 0.18071,7.33946 0.16109,8.88191 z m 12.0378,-4.95074 c -2.63846,1.44069 -5.27796,2.88138 -7.91539,4.32308 -0.36763,-0.49769 -0.33562,-7.97921 -0.0816,-8.8809 2.66634,1.41248 5.33269,2.82899 7.99697,4.24349 0,0.10477 0,0.20955 0,0.31433 z m 1.2929,-4.55782 c -1.22371,1.06389 -2.67048,0.22265 -3.71657,-0.31434 -2.44949,-1.33591 -4.9,-2.67182 -7.35155,-4.00875 -3.01539,1.80943 -6.03078,3.61584 -9.0472,5.42325 -0.9325,0.539 -2.35345,0.44228 -2.98957,-0.31433 -1.12457,-1.33592 -0.62063,-9.14487 -0.56487,-11.94565 -2.66634,-1.46689 -5.33269,-2.93276 -7.99904,-4.39965 -0.85504,-0.49568 -1.91766,-0.74755 -2.42263,-1.57368 -0.57003,-0.9299 -0.064,-2.27891 0.5659,-2.7494 3.12175,-1.75603 6.24867,-3.51106 9.36835,-5.26709 1.37448,-2.32324 -0.83852,-7.73842 0.24268,-10.37398 0.36866,-0.89867 1.68634,-1.66838 2.98957,-1.17976 2.74689,1.54648 5.49379,3.09296 8.23965,4.63742 1.42508,-0.1078 2.69319,-1.40644 3.71863,-2.04216 2.15105,-1.33591 4.32584,-2.44917 6.62146,-3.61583 1.1318,-0.006 1.7514,0.29519 2.18306,0.94401 0.84162,1.26841 0.43682,9.59722 0.40377,11.70989 2.11387,1.23114 10.16867,4.5548 10.66332,6.60099 0.42133,1.74999 -1.35383,2.28798 -2.26051,2.83 -2.72107,1.57066 -5.44215,3.14333 -8.16013,4.716 -0.45128,2.4401 1.16381,9.49345 -0.48432,10.92306 z m 3.63705,1.72983 c -0.0279,-3.11814 -0.0547,-6.23628 -0.0826,-9.35341 2.82744,1.57167 5.65695,3.14434 8.48336,4.716 -0.71254,0.73546 -7.29993,4.37849 -8.40075,4.63741 z m 10.01584,-8.72474 c -0.0258,0.0272 -0.0547,0.0534 -0.0806,0.0796 -2.31627,-1.25733 -4.63255,-2.51567 -6.94778,-3.773 -0.0279,-0.0534 -0.0547,-0.10478 -0.0826,-0.15616 2.28942,-1.36412 4.58091,-2.72522 6.86827,-4.08733 0.23958,0.10175 0.0971,-0.004 0.24164,0.15716 10e-4,2.59325 10e-4,5.18649 10e-4,7.77974 z m 0.0805,-16.66064 c 0,0.81303 0,1.62305 0,2.43507 -2.86874,-0.47452 -5.39981,-3.48083 -8.24068,-4.24147 0,-0.0262 0,-0.0534 0,-0.0806 2.72108,-1.57167 5.44216,-3.14333 8.16014,-4.71499 0.29018,0.31433 0.27675,5.92799 0.0805,6.60199 z"
           id="path208"
           inkscape:connector-curvature="0"
           style="fill:none;stroke:#000000;stroke-width:0.3606243;stroke-miterlimit:4;stroke-opacity:1;stroke-dasharray:none" />
        <path
           clip-rule="evenodd"
           d="m 298.12771,444.01972 c 4.855,-0.165 5.192,6.102 1.172,6.941 -2.422,0.506 -4.67,-1.719 -4.066,-4.213 0.403,-1.667 1.479,-2.045 2.894,-2.728 z"
           id="path210"
           inkscape:connector-curvature="0"
           style="fill:none;stroke:#000000;stroke-width:0.3606243;stroke-miterlimit:4;stroke-opacity:1;stroke-dasharray:none" />
        <path
           clip-rule="evenodd"
           d="m 342.98911,445.16841 c 4.891,-0.16 5.219,6.094 1.174,6.941 -2.577,0.541 -4.774,-1.892 -4.068,-4.368 0.437,-1.532 1.503,-1.961 2.894,-2.573 z"
           id="path212"
           inkscape:connector-curvature="0"
           style="fill:none;stroke:#000000;stroke-width:0.3606243;stroke-miterlimit:4;stroke-opacity:1;stroke-dasharray:none" />
      </g>
    </g>
  </g>
</svg>
