<?xml version="1.0" encoding="UTF-8" standalone="no"?>
<!-- Created with Inkscape (http://www.inkscape.org/) -->

<svg
   xmlns:dc="http://purl.org/dc/elements/1.1/"
   xmlns:cc="http://creativecommons.org/ns#"
   xmlns:rdf="http://www.w3.org/1999/02/22-rdf-syntax-ns#"
   xmlns:svg="http://www.w3.org/2000/svg"
   xmlns="http://www.w3.org/2000/svg"
   xmlns:sodipodi="http://sodipodi.sourceforge.net/DTD/sodipodi-0.dtd"
   xmlns:inkscape="http://www.inkscape.org/namespaces/inkscape"
   width="48"
   height="48"
   id="svg4160"
   version="1.1"
   inkscape:version="0.48.2 r9819"
   sodipodi:docname="Snowflake-10.svg">
  <defs
     id="defs4162" />
  <sodipodi:namedview
     id="base"
     pagecolor="#ffffff"
     bordercolor="#666666"
     borderopacity="1.0"
     inkscape:pageopacity="0.0"
     inkscape:pageshadow="2"
     inkscape:zoom="11.2"
     inkscape:cx="6.8482146"
     inkscape:cy="15.458561"
     inkscape:document-units="px"
     inkscape:current-layer="g198"
     showgrid="false"
     fit-margin-top="0"
     fit-margin-left="0"
     fit-margin-right="0"
     fit-margin-bottom="0"
     inkscape:window-width="1585"
     inkscape:window-height="1092"
     inkscape:window-x="2"
     inkscape:window-y="2"
     inkscape:window-maximized="0" />
  <metadata
     id="metadata4165">
    <rdf:RDF>
      <cc:Work
         rdf:about="">
        <dc:format>image/svg+xml</dc:format>
        <dc:type
           rdf:resource="http://purl.org/dc/dcmitype/StillImage" />
        <dc:title />
      </cc:Work>
    </rdf:RDF>
  </metadata>
  <g
     inkscape:label="Layer 1"
     inkscape:groupmode="layer"
     id="layer1"
     transform="translate(-91.528107,-104.27354)">
    <g
       id="g198"
       style="fill:none;stroke:#000000;stroke-width:0.28859234;stroke-miterlimit:4;stroke-opacity:1;stroke-dasharray:none"
       transform="matrix(0.29235908,0,0,0.26301072,21.763738,20.045528)">
      <g
         id="g10853"
         style="stroke-width:0.3606243;stroke-miterlimit:4;stroke-dasharray:none">
        <path
           style="fill:none;stroke:#000000;stroke-width:0.3606243;stroke-opacity:1;stroke-miterlimit:4;stroke-dasharray:none"
           inkscape:connector-curvature="0"
           id="path216"
           d="m 299.69063,373.53592 c 6.29814,-0.20738 6.92783,7.10036 2.17331,8.41995 -3.62388,1.00728 -6.65887,-2.22935 -5.57668,-5.49191 0.55576,-1.67758 1.81131,-2.22319 3.40337,-2.92804 z"
           clip-rule="evenodd" />
        <path
           style="fill:none;stroke:#000000;stroke-width:0.3606243;stroke-opacity:1;stroke-miterlimit:4;stroke-dasharray:none"
           inkscape:connector-curvature="0"
           id="path218"
           d="m 339.86182,373.80996 c 6.05978,-0.17652 6.39119,7.56944 1.32439,8.60635 -3.22237,0.65918 -5.99222,-2.37132 -5.10505,-5.40304 0.58379,-1.98988 1.9171,-2.41699 3.78066,-3.20331 z"
           clip-rule="evenodd" />
        <path
           style="fill:none;stroke:#000000;stroke-width:0.3606243;stroke-opacity:1;stroke-miterlimit:4;stroke-dasharray:none"
           inkscape:connector-curvature="0"
           id="path220"
           d="m 357.82446,407.0429 c 6.14263,-0.1864 6.46767,7.58054 1.32311,8.60634 -3.1854,0.63696 -5.968,-2.41698 -5.012,-5.49191 0.59782,-1.91705 1.91837,-2.29848 3.68889,-3.11443 z"
           clip-rule="evenodd" />
        <path
           style="fill:none;stroke:#000000;stroke-width:0.3606243;stroke-opacity:1;stroke-miterlimit:4;stroke-dasharray:none"
           inkscape:connector-curvature="0"
           id="path222"
           d="m 282.48642,407.41075 c 6.54288,-0.21108 6.74938,7.63733 1.22751,8.60511 -3.14333,0.55179 -5.86858,-2.76138 -4.7252,-5.76719 0.62714,-1.64671 1.86102,-2.1306 3.49769,-2.83792 z"
           clip-rule="evenodd" />
        <path
           style="fill:none;stroke:#000000;stroke-width:0.3606243;stroke-opacity:1;stroke-miterlimit:4;stroke-dasharray:none"
           inkscape:connector-curvature="0"
           id="path224"
           d="m 395.69894,451.17202 c -2.01099,-1.06777 -4.01943,-2.13554 -6.03041,-3.20578 -0.0318,-0.0605 -0.0648,-0.12221 -0.094,-0.18146 2.13429,-1.15912 4.27238,-2.31947 6.41049,-3.47858 0.0292,-0.0605 0.061,-0.12344 0.0915,-0.1827 -0.4716,-0.85421 -0.94193,-1.70843 -1.41225,-2.56264 -0.56695,-0.28268 -7.55708,3.5045 -8.57782,4.30194 -2.57538,-1.40477 -5.15457,-2.8083 -7.73123,-4.2106 -0.033,-0.0617 -0.0623,-0.12344 -0.0953,-0.18392 5.03001,-2.92804 10.05619,-5.85854 15.08237,-8.78904 0.0318,-0.0605 0.0635,-0.12098 0.0953,-0.18146 -0.56567,-0.91594 -1.13261,-1.83064 -1.69828,-2.74658 -5.62236,3.23417 -11.24726,6.46958 -16.87216,9.70374 -2.72792,-0.48882 -4.68933,-3.02678 -7.25708,-3.8452 -0.0648,-0.0901 -0.12712,-0.18393 -0.18813,-0.27527 10.20872,-5.76596 20.4238,-11.53562 30.63633,-17.30281 2.08217,-1.62325 3.35207,-5.58449 1.98048,-8.69769 -1.58261,-3.59832 -6.4626,-5.12282 -9.80322,-7.05098 -8.23207,-4.66856 -16.46794,-9.33712 -24.7,-14.00815 -0.0623,0 -0.12458,0 -0.18686,0 2.95292,-1.70966 5.90582,-3.41686 8.86129,-5.12529 2.11648,0.46661 4.16941,2.35773 5.94015,3.38724 3.80078,2.19602 7.60156,4.39452 11.40743,6.59177 0.0279,0 0.0623,0 0.0915,0 0.59618,-0.94803 1.1949,-1.89235 1.79107,-2.83792 -5.12152,-2.96012 -10.24432,-5.92149 -15.36584,-8.87915 -0.0635,-0.0926 -0.12584,-0.18392 -0.18813,-0.27774 2.60971,-1.43439 5.21559,-2.86755 7.82529,-4.30194 2.88809,1.5566 5.78253,3.1132 8.67062,4.6698 0.53388,-0.85545 1.06777,-1.71214 1.60548,-2.56512 0.0292,-0.0889 0.061,-0.18022 0.0916,-0.27404 -2.26267,-1.2196 -4.5228,-2.44291 -6.78548,-3.66251 -0.033,-0.0889 -0.0635,-0.18146 -0.0953,-0.27404 2.01225,-1.09987 4.02196,-2.19726 6.03421,-3.29836 3.98002,2.27503 9.47399,-1.11468 6.69396,-5.58326 -2.1559,-3.46254 -8.41892,-2.34539 -8.29689,2.56388 -1.9792,1.12949 -3.95968,2.25898 -5.93761,3.38724 0,-2.19726 0,-4.39576 0,-6.59302 -0.2822,-1.12332 -2.33005,-0.82212 -3.39528,-0.82335 -0.0623,3.11196 -0.12458,6.22639 -0.18687,9.33835 -2.57538,1.46402 -5.1533,2.92803 -7.73122,4.39452 -0.70295,-0.94927 -0.0661,-3.75756 -0.18686,-5.12653 -0.0623,-4.02913 -0.12585,-8.05703 -0.18686,-12.08616 -1.13388,0 -2.26267,0 -3.39528,0 0.0635,6.40785 0.12458,12.82187 0.18941,19.22849 -2.89191,1.61709 -5.78381,3.23294 -8.67316,4.85125 -0.033,-9.18405 -0.0623,-18.3718 -0.0953,-27.55709 0,-4.28465 0.34321,-8.72855 -1.50887,-11.16899 -3.08258,-4.06246 -8.17486,-3.16874 -12.15997,-0.82459 -9.29856,5.21911 -18.60221,10.43698 -27.90333,15.65486 -0.0305,0 -0.061,0 -0.094,0 -0.0305,-2.92804 -0.0597,-5.85854 -0.0916,-8.78657 5.84355,-3.17245 11.68709,-6.34983 17.53191,-9.52352 -0.50212,-1.00481 -1.00423,-2.01333 -1.50887,-3.02061 -5.34144,2.83792 -10.68287,5.67708 -16.02304,8.515 0,-2.86755 0,-5.7388 0,-8.60758 2.79529,-1.64671 5.59313,-3.29589 8.38841,-4.94384 0.18941,-0.16417 0.0712,0.002 0.18687,-0.27651 -0.50338,-0.88384 -1.00422,-1.77015 -1.50761,-2.65275 -2.08217,0.37155 -4.89143,2.77373 -6.78801,3.75385 -0.094,0 -0.18813,0 -0.28093,0 0.0318,-2.19849 0.061,-4.39452 0.0915,-6.59178 0.69151,-1.02209 2.00463,-1.26157 2.54487,-2.56388 1.29024,-3.09715 -1.17837,-5.51907 -3.6762,-5.95111 -5.07958,-0.87767 -6.45498,6.28811 -2.45081,8.14961 0.0318,2.25774 0.0648,4.51672 0.0953,6.77447 -2.2309,-1.19121 -4.46179,-2.38119 -6.69395,-3.57116 -0.53389,0.91593 -1.06651,1.83063 -1.60167,2.74657 2.73173,1.64918 5.46855,3.29836 8.20028,4.94383 0.0318,2.87125 0.0648,5.73757 0.0953,8.60635 -5.18508,-2.7762 -10.37016,-5.55487 -15.55397,-8.33107 -0.56567,0.9468 -1.13134,1.89236 -1.69573,2.83792 5.71769,3.17245 11.43793,6.34983 17.15563,9.52228 0.0318,3.32675 0.0648,6.65474 0.0953,9.97778 -8.26257,-4.57598 -16.53022,-9.15566 -24.79279,-13.73164 -2.89572,-1.68004 -6.70031,-5.09937 -11.40617,-3.66251 -5.65414,1.72572 -5.37448,7.27812 -5.37448,14.5587 0,8.51253 0,17.02876 0,25.54129 -0.0623,0.0309 -0.12458,0.063 -0.18813,0.0913 -2.70123,-1.52574 -5.40499,-3.05271 -8.10621,-4.57722 -0.72076,-1.20108 -0.18814,-4.40809 -0.18814,-6.22762 0.0623,-4.36243 0.12585,-8.72485 0.18814,-13.08974 -1.13135,-0.0296 -2.26268,-0.0617 -3.39402,-0.0926 -0.0305,0.0309 -0.0623,0.063 -0.094,0.0926 -0.061,5.7067 -0.12584,11.4134 -0.18813,17.1201 -2.5436,-1.3739 -5.09102,-2.74657 -7.63588,-4.12047 -1.14406,-1.90841 0.31397,-6.5782 -0.375,-9.15566 0.0686,-0.72831 -2.34911,-0.43205 -3.39528,-0.36663 0.0318,2.41205 0.0635,4.8241 0.0941,7.23245 -1.96776,-0.20492 -3.92917,-2.43551 -5.93761,-3.11197 -0.4627,-1.02086 -0.35592,-2.20096 -0.94321,-3.01938 -1.72115,-2.40217 -5.86897,-2.2812 -7.44774,0.1827 -2.62623,4.09455 2.88935,8.73225 6.59861,5.6746 2.01225,1.1011 4.0245,2.1985 6.03422,3.29836 0,0.0284 0,0.0605 0,0.0914 -2.26267,1.25046 -4.52408,2.50093 -6.78675,3.75386 0.50338,0.97642 1.00549,1.95284 1.5076,2.92927 2.98596,-1.5566 5.97066,-3.1132 8.9579,-4.6698 2.48131,1.37144 4.96263,2.74658 7.4452,4.12048 0.0623,0.0901 0.12586,0.18146 0.18814,0.27528 -5.12153,2.95765 -10.24431,5.91902 -15.36711,8.87915 -0.0305,0.0913 -0.061,0.18392 -0.0916,0.2765 0.50084,0.85299 1.00421,1.7072 1.5076,2.56265 0.0953,0.0617 0.18813,0.12097 0.28092,0.18269 5.68847,-3.32674 11.37693,-6.65473 17.06285,-9.97901 2.66944,1.43192 5.34398,2.86755 8.01342,4.30194 0.0305,0.063 0.0623,0.12221 0.0953,0.18146 -7.88758,4.455 -15.77643,8.91371 -23.66273,13.36748 -3.44741,1.99729 -8.39732,3.54771 -10.17949,7.14233 -1.68302,3.39217 0.31144,7.52129 2.35547,9.06184 10.40067,5.85978 20.80261,11.72078 31.20328,17.57932 0.0318,0.0605 0.0648,0.1222 0.0953,0.18145 -2.67072,1.49612 -5.34144,2.99099 -8.01342,4.48711 -1.49743,-0.27404 -2.8525,-1.5924 -4.05375,-2.28861 -4.33467,-2.4713 -8.67189,-4.94384 -13.00783,-7.41513 -0.56439,0.85174 -1.1326,1.70843 -1.69573,2.56264 -0.0318,0.0926 -0.0648,0.1827 -0.0953,0.27528 4.99568,2.86878 9.99136,5.73633 14.98703,8.60634 0.0648,0.0914 0.12711,0.18269 0.1894,0.27404 -2.51309,1.43439 -5.02872,2.86878 -7.54054,4.30441 -1.99192,-0.32959 -6.61769,-3.41686 -8.48503,-4.4871 -0.59744,0.94679 -1.19489,1.89236 -1.79107,2.83792 2.16733,1.22084 4.33721,2.44291 6.50455,3.66251 -2.01226,1.12949 -4.02451,2.25775 -6.03422,3.38724 -3.93425,-2.36514 -8.78883,1.901 -6.22362,5.94988 2.33513,3.6872 8.37189,1.92198 8.20283,-3.01938 1.97792,-1.12949 3.95967,-2.25898 5.93761,-3.38724 0.0343,0 0.0648,0 0.0953,0 0,2.56141 0,5.1253 0,7.68918 1.13007,0 2.26268,0 3.39528,0 0.0305,-3.20578 0.061,-6.40909 0.0929,-9.6124 1.06523,-0.86779 6.59734,-4.17726 7.91808,-4.39575 0.0623,5.82891 0.12712,11.65782 0.18813,17.48673 1.06905,0.0309 2.13683,0.0605 3.20588,0.0901 0.094,-0.0296 0.18813,-0.0592 0.28221,-0.0901 -0.0928,-6.50043 -0.18814,-13.0021 -0.28221,-19.5013 2.82707,-1.58622 5.65541,-3.17368 8.48249,-4.7599 0.0318,9.3976 0.0635,18.80015 0.094,28.19775 0,3.78102 -0.44236,8.40637 1.03727,10.8036 1.62964,2.63795 5.82829,5.05123 9.80449,3.20578 10.21,-5.73633 20.42508,-11.47636 30.63507,-17.21269 0.0318,2.71572 0.0648,5.43266 0.0953,8.14961 -5.74821,3.17369 -11.50022,6.3486 -17.2497,9.52228 0.53388,0.94557 1.06777,1.89113 1.60166,2.83669 5.21559,-2.7762 10.43372,-5.5524 15.64931,-8.33107 0,2.86878 0,5.73633 0,8.60758 -2.76478,1.64671 -5.52957,3.29466 -8.29562,4.94383 0.53516,0.91471 1.06777,1.83064 1.60166,2.74781 2.2309,-1.18997 4.46179,-2.38118 6.69396,-3.5724 -0.0305,2.19726 -0.0623,4.39699 -0.0953,6.59178 -0.63685,0.96285 -1.79361,1.327 -2.26139,2.56388 -1.1466,3.03543 1.57115,6.28195 4.71219,5.76719 4.71349,-0.7678 5.25882,-6.50783 1.13135,-8.33107 -0.0305,-0.0901 -0.0597,-0.18392 -0.0916,-0.27404 0,-2.16763 0,-4.33403 0,-6.50166 2.6936,0.49253 4.36518,3.32798 7.06895,3.75509 0.50338,-0.85545 1.00422,-1.70967 1.50759,-2.56388 0,-0.12344 0,-0.24442 0,-0.36786 -2.82706,-1.64671 -5.6554,-3.29465 -8.48375,-4.9426 -0.0305,-2.86878 -0.0597,-5.73756 -0.0915,-8.60634 5.31091,2.83792 10.6193,5.67707 15.93023,8.51253 0.56439,-0.97519 1.13006,-1.95285 1.69446,-2.92927 -5.77999,-3.11196 -11.56252,-6.22516 -17.34505,-9.33959 -0.81099,-1.35415 -0.30762,-7.21639 -0.28092,-9.33465 8.29181,4.57598 16.58997,9.15566 24.88432,13.73287 2.68724,1.56154 6.51599,5.10555 11.12396,3.84521 6.46387,-1.77015 5.74948,-7.32626 5.74948,-15.19936 0,-8.78657 0,-17.57684 0,-26.36588 2.9224,1.58622 5.84608,3.17492 8.7685,4.76114 -0.0953,6.52882 -0.18941,13.06258 -0.28348,19.59141 1.16185,0.0309 2.32496,0.0605 3.48808,0.0901 0.0915,-5.85854 0.18686,-11.71831 0.27965,-17.57684 2.54615,1.3739 5.09356,2.74781 7.63589,4.12048 0.66355,1.4134 0.31271,7.75583 0.28347,9.79632 1.13388,0.0296 2.26521,0.0617 3.39656,0.0913 0,-2.56389 0,-5.12777 0,-7.68918 1.98047,1.06777 3.95967,2.13554 5.94015,3.20331 0.50083,1.24059 0.30126,2.62313 1.13006,3.66374 1.78345,2.24911 5.91219,1.56648 7.25962,-0.54808 2.42284,-3.82792 -2.658,-8.6767 -6.22997,-5.8647 z M 322.2663,365.66159 c 1.79615,-1.52698 4.3156,-2.3565 6.41047,-3.57364 5.63762,-3.2675 11.41888,-6.33996 17.15437,-9.61116 2.20675,-1.26033 6.04185,-4.12912 8.29436,-3.29589 1.72369,0.6382 3.57832,1.26405 4.62068,2.56142 2.69995,3.36872 1.60294,17.2991 1.60294,23.80446 -0.0318,3.81682 -0.0623,7.63116 -0.094,11.44427 -0.73346,1.18504 -5.87405,3.47118 -7.35369,4.30194 0.0318,-6.53006 0.0623,-13.06259 0.094,-19.59264 0,-2.80583 0,-5.61413 0,-8.42242 -1.13134,0 -2.26267,0 -3.39401,0 -0.094,9.97901 -0.18687,19.96173 -0.2822,29.94075 -0.094,0.0901 -0.18814,0.18146 -0.28347,0.2728 -8.86128,-4.91174 -17.72257,-9.82594 -26.58387,-14.73768 -0.0305,-0.063 -0.061,-0.12345 -0.094,-0.1827 8.95536,-5.12776 17.91198,-10.25676 26.86734,-15.38205 -0.53517,-0.97519 -1.06906,-1.95284 -1.60295,-2.92803 -6.22234,3.50697 -12.4447,7.01765 -18.66578,10.52586 -1.61056,0.95791 -4.82407,3.47735 -6.69141,3.75386 10e-4,-2.96013 10e-4,-5.91779 10e-4,-8.87915 z m 15.64676,39.91482 c 1.17583,0.30243 8.28036,4.2612 8.67188,5.03642 0,0.94556 0,1.89235 0,2.84039 -1.76183,1.31588 -6.91894,4.67349 -9.04942,5.2191 0.40932,-1.3739 0.81737,-2.74904 1.22668,-4.12171 0.68897,-3.13295 -0.11822,-6.64609 -0.84914,-8.9742 z m 1.31947,14.10073 c -0.0292,-0.0605 -0.0623,-0.12097 -0.094,-0.18146 2.41903,-1.40476 4.8406,-2.8083 7.25835,-4.21306 0.0953,0 0.18813,0 0.28475,0 0,2.8083 0,5.61659 0,8.42242 -2.48386,-1.34181 -4.96645,-2.68609 -7.44903,-4.0279 z m 5.74947,7.13986 c -2.88807,1.58869 -5.77998,3.17491 -8.67188,4.76114 0,-3.20454 0,-6.40662 0,-9.61239 2.86013,1.55659 5.72024,3.11196 8.58037,4.66979 0.0292,0.063 0.061,0.12221 0.0915,0.18146 z m -7.25707,-22.8873 c -0.0318,-0.0617 -0.0648,-0.12468 -0.094,-0.18146 2.95292,-1.67757 5.90584,-3.35761 8.86129,-5.03518 0.68134,0.92705 0.20974,8.30885 0.18813,10.06913 -2.98597,-1.61709 -5.97193,-3.23294 -8.95535,-4.85249 z m -1.41481,-3.47858 c 0,-3.17245 0,-6.3486 0,-9.52105 2.79656,1.5245 5.59313,3.05148 8.39096,4.57721 0.0623,0.0926 0.12584,0.1827 0.18941,0.27528 -2.86013,1.5566 -5.72024,3.11196 -8.58037,4.66856 z m -1.3182,-0.18146 c -0.0318,0 -0.0635,0 -0.0953,0 -3.18046,-2.38613 -5.99736,-6.05728 -11.49769,-6.13381 0,-0.0309 0,-0.0617 0,-0.0938 1.88641,-1.87384 6.09524,-3.38476 8.57655,-4.75867 4.36645,0.0148 3.10164,6.8473 3.01647,10.9863 z M 322.2663,383.14832 c 1.46184,0.25922 7.60156,3.8884 8.86001,4.85248 -2.89063,1.64795 -5.78125,3.29466 -8.67315,4.94384 -0.66864,-0.90977 -0.20975,-8.07308 -0.18686,-9.79632 z m -41.10311,-15.6561 c -0.60761,-1.46278 0.0686,-4.05011 -0.094,-5.40303 -0.65847,-5.51784 0.66355,-11.59116 7.07148,-11.89977 3.54529,-0.17282 6.3177,2.69967 8.95409,4.11801 4.5673,2.45772 9.5223,5.02901 14.04638,7.6003 2.51435,1.43315 5.02745,2.86878 7.54054,4.30194 0.0635,0.0913 0.12584,0.18146 0.18813,0.27527 0,2.6256 0,5.24997 0,7.8731 -2.18258,-0.44068 -5.53083,-3.0774 -7.44648,-4.21182 -5.81176,-3.29466 -11.62861,-6.59055 -17.44165,-9.8852 -0.56439,0.88384 -1.13006,1.76892 -1.69446,2.65399 0,0.0913 0,0.18146 0,0.27404 6.47023,3.72176 12.94553,7.44476 19.41958,11.16899 1.33473,0.79003 6.72065,3.17245 7.16301,4.30318 -8.79646,4.91173 -17.59545,9.82718 -26.39446,14.74015 -0.0623,-0.0321 -0.12711,-0.0617 -0.18686,-0.0913 -0.0953,-9.97901 -0.18813,-19.96049 -0.28347,-29.93828 -1.16311,-0.0309 -2.32496,-0.0605 -3.48807,-0.0926 0.0623,9.15319 0.12584,18.31256 0.18813,27.46575 0,0.15307 0,0.30737 0,0.45673 -2.48259,-1.33934 -4.96517,-2.68362 -7.44776,-4.02666 -0.75634,-1.20479 -0.28347,-10.49377 -0.28092,-12.81817 0,-0.94556 0.24787,-6.72016 0.18686,-6.86459 z m 28.84781,20.78262 c -0.0648,0 -0.12457,0 -0.18941,0 2.89064,-1.67757 5.78126,-3.35761 8.67316,-5.03641 0.12711,0 0.25169,0 0.37627,0 0,3.32675 0,6.65597 0,9.98272 -2.95292,-1.64918 -5.90711,-3.29836 -8.86002,-4.94631 z m 7.54054,5.86101 c -0.94193,0.24194 -1.88513,0.48759 -2.82834,0.73201 -2.81181,1.05542 -6.65709,3.03542 -7.91808,5.58326 -0.12712,0.0913 -0.25169,0.18393 -0.37626,0.27527 -0.53008,-1.25293 -0.17543,-8.9779 0.18685,-9.70497 0.39026,-0.77768 1.0894,-0.97025 1.88515,-1.37144 1.71225,0.006 8.06807,3.55265 9.05068,4.48587 z m -12.72562,27.92371 c 0.65464,0.89001 0.20847,7.83484 0.18813,9.51981 -2.79656,-1.52573 -5.59312,-3.05271 -8.39223,-4.57721 -0.0305,-0.0617 -0.0597,-0.12221 -0.0915,-0.18393 2.76478,-1.58746 5.5321,-3.17245 8.29562,-4.75867 z m -10.18076,1.73806 c 0,-2.96013 0,-5.92149 0,-8.88162 2.60843,1.40476 5.21558,2.80829 7.82401,4.21182 0.0623,0.0926 0.12586,0.1827 0.18941,0.27775 -1.01566,0.81718 -6.79183,4.19084 -8.01342,4.39205 z m 9.52103,-5.21788 c -0.96355,-0.24441 -8.98714,-4.85742 -9.33163,-5.4018 -0.39787,-0.63078 -0.17161,-2.14665 -0.0953,-2.92927 2.55886,-1.89482 6.72447,-3.20948 8.95536,-5.31045 0.094,0 0.1894,0 0.28474,0 -1.30802,4.50685 -1.85336,9.18281 0.18687,13.55018 0,0.0296 0,0.0605 0,0.0913 z m -9.52103,-10.16417 c 0,-3.26503 0,-6.53006 0,-9.79632 2.92114,1.58745 5.84481,3.17491 8.76595,4.76114 -0.30763,0.66411 -7.68673,4.77595 -8.76595,5.03518 z m 2.072,-12.54043 c -0.0305,-0.12344 -0.0623,-0.24565 -0.0953,-0.36786 2.73554,-1.52573 5.46982,-3.05271 8.2041,-4.57721 0.53388,0.59005 0.20847,7.9805 0.18813,9.42847 -2.76351,-1.49365 -5.53211,-2.98976 -8.29689,-4.4834 z m -18.09884,36.98679 c -8.16089,-4.57968 -16.29634,-9.19639 -24.31993,-13.91556 -1.53937,-0.85422 -3.08003,-1.70844 -4.6194,-2.56389 -1.87371,-1.75904 -2.65039,-5.06727 -1.60168,-7.59906 1.39829,-3.37489 5.40372,-4.3723 8.38842,-6.22516 7.47954,-4.24145 14.95779,-8.48413 22.43605,-12.72682 1.50507,0.29132 6.91387,3.52426 8.20283,4.4871 -8.45197,4.69942 -16.90776,9.39884 -25.361,14.09826 0.50338,0.88508 1.00676,1.77139 1.51014,2.65523 1.22413,0.17775 6.25794,-3.19837 7.54182,-3.93532 6.62913,-3.57116 13.26206,-7.14109 19.89119,-10.71349 0,9.91976 0,19.83706 0,29.75435 -0.0318,0.0309 -0.0635,0.063 -0.094,0.0913 -2.01733,-0.18516 -5.08084,-2.66387 -6.78801,-3.56993 -6.81853,-3.6909 -13.63832,-7.38674 -20.45558,-11.07888 -0.53262,0.94556 -1.06779,1.89236 -1.60422,2.83792 8.26385,4.54759 16.53023,9.09394 24.79407,13.64153 0.0635,0.0913 0.12458,0.18146 0.18813,0.27527 -2.70249,1.49364 -5.40499,2.99222 -8.10875,4.4871 z m 15.27176,29.75312 c 8.32613,-4.69942 16.65481,-9.39884 24.98094,-14.09826 0,3.23293 0,6.46957 0,9.70497 -2.2309,1.28009 -4.46179,2.56388 -6.69396,3.84397 -5.53846,3.1564 -11.0032,6.24738 -16.6853,9.15566 -3.09911,1.58623 -6.27575,4.62536 -9.99136,2.83916 -1.50506,-0.72584 -3.4563,-2.37502 -4.05247,-3.93779 -1.00295,-2.61943 -0.47287,-7.33489 -0.4716,-11.80965 0,-7.59659 0,-15.19812 0,-22.79595 2.54359,-1.43563 5.08974,-2.87002 7.63588,-4.30194 -0.0318,9.45686 -0.0623,18.91989 -0.0953,28.38045 1.09828,0 2.19784,0 3.29866,0 0.15763,-10.16171 0.31525,-20.32712 0.47288,-30.4876 2.05928,0.34811 5.37067,2.89471 7.16301,3.93532 6.37997,3.54154 12.75996,7.08061 19.13612,10.62091 0.18813,0.28885 0.25677,0.31354 0.28347,0.82582 -8.82825,5.03519 -17.6603,10.0716 -26.48853,15.10555 -0.0318,0.0901 -0.0623,0.18022 -0.0928,0.27404 0.53262,0.91717 1.06651,1.8294 1.60039,2.74534 z m 12.44471,-40.37526 c 0.72202,0.7641 1.44405,1.5245 2.16733,2.28984 2.64657,2.06394 5.81812,4.1538 10.18077,4.4871 0.0318,0.058 0.0635,0.12097 0.094,0.18146 -2.95291,1.6788 -5.9071,3.35761 -8.86002,5.03394 -1.10973,-0.16788 -2.8652,-1.1838 -3.48681,-1.92198 -0.033,-3.35391 -0.0648,-6.71275 -0.0953,-10.07036 z m 12.53623,17.12257 c -2.5131,-1.3739 -5.02746,-2.74781 -7.54182,-4.12048 -0.0292,-0.0605 -0.0635,-0.12097 -0.094,-0.18146 2.48258,-1.40476 4.96517,-2.80829 7.44648,-4.21306 0.51101,0.55673 0.21356,7.16826 0.18941,8.515 z m 3.11181,-12.17751 c -1.80888,0.28145 -3.67875,-0.20491 -4.99696,-0.54808 -7.86088,-2.05406 -15.2921,-10.60609 -11.21929,-20.69127 1.70209,-4.20565 5.18254,-7.59783 9.61636,-9.15566 1.33345,-0.47031 2.94656,-0.28515 4.43001,-0.82582 9.91254,-0.063 15.23491,5.28453 16.87089,13.27614 0.58093,2.82928 -0.004,6.21034 -0.94066,8.24219 -2.49021,5.38946 -6.78293,8.61992 -13.76035,9.7025 z m 12.72435,5.40181 c -0.91142,0.48882 -1.82285,0.97518 -2.73173,1.46401 -2.92368,-1.55536 -5.84736,-3.11196 -8.76595,-4.66732 -0.0648,-0.0901 -0.12585,-0.1827 -0.18814,-0.27528 0,-0.0321 0,-0.0605 0,-0.0901 4.88001,-0.65918 9.70535,-2.9268 11.78243,-6.31774 0.38135,0.40983 0.22373,9.49513 -0.0966,9.88644 z m -12.34936,-2.19726 c 2.67453,1.46525 5.34271,2.9305 8.01342,4.39575 -0.49321,1.03691 -6.56175,3.90693 -7.91808,4.66856 -0.40932,-0.55178 -0.36864,-8.09777 -0.0953,-9.06431 z m 37.04809,39.5519 c -1.21523,1.81953 -3.10164,2.88607 -5.08974,3.47859 -3.21478,0.95667 -7.75284,-2.74534 -9.52102,-3.75633 -7.47827,-4.08838 -14.9578,-8.17677 -22.43606,-12.26762 -0.0305,-0.0913 -0.0597,-0.18146 -0.0915,-0.27528 0,-2.92926 0,-5.85853 0,-8.7878 2.00972,0.33946 4.10841,2.24787 5.74822,3.20454 6.53632,3.69337 13.07138,7.38428 19.60771,11.07765 0.53389,-0.94556 1.06778,-1.88989 1.60293,-2.83916 -8.89306,-5.09567 -17.78612,-10.19133 -26.67792,-15.287 -0.49576,-0.95914 4.61432,-3.14652 5.75074,-3.84644 6.85031,-3.87606 13.69935,-7.75089 20.55092,-11.62572 0.0915,0 0.18686,0 0.2822,0 0.66863,1.42081 0.28347,7.95827 0.28347,10.06912 0.0635,6.80534 0.12584,13.6119 0.18686,20.416 1.10083,0.0309 2.20039,0.0617 3.29995,0.0926 0.57202,-1.24552 0.094,-6.55351 0.094,-9.15442 -0.0623,-6.40909 -0.12584,-12.81941 -0.18813,-19.22602 2.41903,1.30971 4.84059,2.62189 7.25835,3.93531 0.71439,1.13196 0.28474,9.12727 0.28474,11.26158 0,5.27712 0,10.55919 0,15.83878 -0.003,2.95272 0.11822,6.09925 -0.94575,7.69164 z m 4.24315,-36.80409 c -2.90461,-0.46291 -5.96812,-3.62919 -8.76722,-4.6698 -0.0305,-0.0605 -0.0623,-0.12344 -0.094,-0.18393 8.3274,-4.57721 16.6548,-9.15442 24.9822,-13.73163 -0.50338,-0.9468 -1.00677,-1.89113 -1.51015,-2.83669 -1.44658,-0.01 -5.61345,2.92186 -7.07022,3.75262 -6.59734,3.59956 -13.19722,7.20158 -19.79457,10.80237 -0.18813,-0.0284 -0.3788,-0.0605 -0.56567,-0.0913 -0.736,-1.59857 -0.18813,-6.63005 -0.18813,-8.78781 0,-6.98802 0,-13.97975 0,-20.96655 0.0305,-0.0284 0.0635,-0.0592 0.0953,-0.0913 9.11043,4.94383 18.22469,9.89013 27.3364,14.8315 0.64701,-0.59993 1.46946,-2.00839 1.69828,-2.92927 -8.42148,-4.57598 -16.84421,-9.15566 -25.26441,-13.73164 0.49067,-1.20849 5.68083,-3.18479 6.97489,-4.21059 3.44994,1.54179 6.53378,3.89458 9.80575,5.5845 5.71008,2.94902 10.96888,5.83261 16.30778,9.15566 1.15167,0.71596 2.42538,1.02456 3.48426,1.82693 1.9398,1.46649 3.44359,4.89076 2.35801,7.41637 -1.76946,4.12665 -5.88676,5.22405 -9.61382,7.4176 -6.72446,3.81188 -13.45146,7.62622 -20.17465,11.44304 z"
           clip-rule="evenodd" />
        <path
           style="fill:none;stroke:#000000;stroke-width:0.3606243;stroke-opacity:1;stroke-miterlimit:4;stroke-dasharray:none"
           inkscape:connector-curvature="0"
           id="path226"
           d="m 300.06793,437.62184 c 6.66652,-0.21479 6.85772,7.63609 1.32438,8.60634 -3.13823,0.55055 -5.86857,-2.76385 -4.72647,-5.76719 0.61567,-1.61832 1.84317,-2.09974 3.40209,-2.83915 z"
           clip-rule="evenodd" />
        <path
           style="fill:none;stroke:#000000;stroke-width:0.3606243;stroke-opacity:1;stroke-miterlimit:4;stroke-dasharray:none"
           inkscape:connector-curvature="0"
           id="path228"
           d="m 339.0129,438.90439 c 5.7462,-0.01 6.22165,7.58425 1.22878,8.60512 -3.59712,0.73571 -6.35805,-2.8083 -5.012,-5.94989 0.71381,-1.66029 2.02035,-1.96148 3.78322,-2.65523 z"
           clip-rule="evenodd" />
      </g>
    </g>
  </g>
</svg>
