<?xml version="1.0" encoding="UTF-8" standalone="no"?>
<!-- Created with Inkscape (http://www.inkscape.org/) -->

<svg
   xmlns:dc="http://purl.org/dc/elements/1.1/"
   xmlns:cc="http://creativecommons.org/ns#"
   xmlns:rdf="http://www.w3.org/1999/02/22-rdf-syntax-ns#"
   xmlns:svg="http://www.w3.org/2000/svg"
   xmlns="http://www.w3.org/2000/svg"
   xmlns:sodipodi="http://sodipodi.sourceforge.net/DTD/sodipodi-0.dtd"
   xmlns:inkscape="http://www.inkscape.org/namespaces/inkscape"
   width="48"
   height="48"
   id="svg4160"
   version="1.1"
   inkscape:version="0.48.2 r9819"
   sodipodi:docname="Snowflake-06.svg">
  <defs
     id="defs4162" />
  <sodipodi:namedview
     id="base"
     pagecolor="#ffffff"
     bordercolor="#666666"
     borderopacity="1.0"
     inkscape:pageopacity="0.0"
     inkscape:pageshadow="2"
     inkscape:zoom="11.2"
     inkscape:cx="6.8482146"
     inkscape:cy="15.458561"
     inkscape:document-units="px"
     inkscape:current-layer="layer1"
     showgrid="false"
     fit-margin-top="0"
     fit-margin-left="0"
     fit-margin-right="0"
     fit-margin-bottom="0"
     inkscape:window-width="1585"
     inkscape:window-height="1092"
     inkscape:window-x="2"
     inkscape:window-y="2"
     inkscape:window-maximized="0" />
  <metadata
     id="metadata4165">
    <rdf:RDF>
      <cc:Work
         rdf:about="">
        <dc:format>image/svg+xml</dc:format>
        <dc:type
           rdf:resource="http://purl.org/dc/dcmitype/StillImage" />
        <dc:title />
      </cc:Work>
    </rdf:RDF>
  </metadata>
  <g
     inkscape:label="Layer 1"
     inkscape:groupmode="layer"
     id="layer1"
     transform="translate(-91.528107,-104.27354)">
    <path
       style="fill:none;stroke:#000000;stroke-width:0.10005217;stroke-miterlimit:4;stroke-opacity:1;stroke-dasharray:none"
       inkscape:connector-curvature="0"
       id="path256"
       d="m 137.32749,137.67056 c -0.50774,-0.21425 -1.07691,0.10305 -1.40875,0.0313 -0.40903,-0.20789 -0.81911,-0.41624 -1.22813,-0.62459 -0.0125,-0.0208 -0.0241,-0.0417 -0.0361,-0.0627 0.93934,-0.46844 1.87869,-0.93689 2.81751,-1.40532 0.0125,-0.0208 0.024,-0.0418 0.0361,-0.0627 -0.50563,-0.24964 -1.01127,-0.4993 -1.51691,-0.74942 -0.9635,0.48933 -1.927,0.97865 -2.88996,1.46797 -0.7708,-0.37493 -1.54161,-0.74941 -2.31239,-1.12434 0,-0.0104 0,-0.0209 0,-0.0313 0.93934,-0.47843 1.87868,-0.95777 2.81802,-1.43665 0,-0.0104 0,-0.0204 0,-0.0309 -0.49356,-0.2601 -0.98764,-0.52065 -1.48121,-0.78074 -0.78286,0.39536 -1.56522,0.79117 -2.34811,1.18653 -0.0125,-0.78072 -0.0236,-1.56146 -0.0361,-2.3422 -0.50565,-0.2601 -1.01128,-0.52019 -1.51693,-0.78073 -0.0125,0.9573 -0.0247,1.91552 -0.0362,2.87329 -0.61433,-0.29142 -1.22865,-0.58328 -1.84246,-0.8747 0,-1.27006 0,-2.54012 0,-3.80972 0.83064,0.53063 1.66184,1.06171 2.49248,1.59234 1.3006,-0.8225 2.60119,-1.64499 3.90179,-2.46704 0.0237,0 0.0478,0 0.0719,0 -1.28851,-0.83248 -2.57703,-1.66541 -3.86502,-2.49835 -0.95825,0.21515 -1.57572,1.13117 -2.45678,1.46797 -0.0362,0.0314 -0.0719,0.0627 -0.10821,0.0935 -0.0125,-1.23873 -0.0236,-2.47748 -0.0362,-3.71621 0.61381,-0.30185 1.22813,-0.60417 1.84247,-0.90557 0.0113,0.96775 0.0241,1.93641 0.0362,2.90416 0.48097,-0.24965 0.96298,-0.49976 1.44447,-0.74942 0.17694,-0.17158 0.0809,-1.97362 0.0719,-2.37352 0.79496,0.39581 1.5899,0.79117 2.38433,1.18653 0.48149,-0.23921 0.96298,-0.47888 1.445,-0.71809 0.0125,-0.0208 0.0236,-0.0413 0.0362,-0.0627 -0.92726,-0.4789 -1.85453,-0.95777 -2.78179,-1.43665 -0.0237,0 -0.0478,0 -0.0719,0 0.75819,-0.39582 1.51691,-0.79118 2.27563,-1.18654 0.96351,0.47888 1.92648,0.95731 2.88997,1.43664 0.6243,-0.0981 1.01968,-0.54787 1.58937,-0.71809 -0.93881,-0.47888 -1.87869,-0.95776 -2.8175,-1.43665 -0.0125,-0.0205 -0.0241,-0.0417 -0.0362,-0.0621 0.45785,-0.21878 0.91518,-0.43757 1.37253,-0.6559 0.37699,0.0376 0.7918,0.23421 1.26436,0.0627 0.77919,-0.28279 1.79152,-1.88058 2.2037,-2.561 -0.34916,0 -0.69886,0 -1.04751,0 -1.3594,-0.0272 -3.16248,0.0186 -3.21499,1.34269 -0.44524,0.21833 -0.89104,0.43711 -1.3368,0.6559 -0.0113,-0.94687 -0.0237,-1.89465 -0.0362,-2.84197 -0.0236,-0.0104 -0.0477,-0.0204 -0.0719,-0.0313 -0.46992,0.24965 -0.93934,0.49977 -1.40873,0.74941 -0.25204,0.24376 -0.0141,2.49609 -0.0725,2.81066 0.0112,0.15477 -1.93225,1.103 -2.27565,1.24917 -0.0241,-0.95775 -0.0483,-1.91552 -0.0725,-2.87284 -0.50564,0.24966 -1.01179,0.49932 -1.51744,0.74942 0,0.79118 0,1.58235 0,2.37352 -0.78182,-0.39581 -1.56522,-0.79117 -2.3481,-1.18653 -0.49303,0.24966 -0.98712,0.49976 -1.48067,0.74942 -0.0246,0 -0.0483,0 -0.0725,0 0.95141,0.47888 1.90285,0.95776 2.85374,1.43664 0.0125,0.0204 0.0236,0.0418 0.0361,0.0627 -0.60173,0.30186 -1.20398,0.60372 -1.80624,0.90557 -1.27591,-0.61414 -2.55287,-1.2283 -3.82878,-1.84244 0,-0.0104 0,-0.0205 0,-0.0314 0.92728,-0.36404 1.85454,-0.72854 2.78181,-1.09302 0.13808,-0.15797 -0.0357,-0.85973 -0.0725,-1.15523 -0.13233,-1.01995 -0.26465,-2.04034 -0.39749,-3.06029 -1.48068,0.56194 -2.96242,1.12435 -4.44311,1.68629 0.1082,0.90557 0.21685,1.81113 0.32501,2.71669 -1.21605,-0.59327 -2.43211,-1.18698 -3.64868,-1.7798 -0.22368,-0.42033 -0.0819,-1.35948 -0.0719,-1.90509 0.96297,0.46844 1.92646,0.93643 2.88996,1.40533 0.0113,-0.49976 0.0236,-0.99953 0.0361,-1.49883 -0.7708,-0.39582 -1.54159,-0.79118 -2.31239,-1.18655 -0.0237,-0.0104 -0.0477,-0.0208 -0.0719,-0.0313 0.79442,-0.38537 1.58938,-0.7703 2.38433,-1.15522 0,-0.5102 0,-1.02039 0,-1.5306 -0.96297,0.46844 -1.92699,0.93688 -2.88995,1.40533 -0.0125,-0.77029 -0.0242,-1.54105 -0.0362,-2.31089 0.97505,-0.47888 1.95061,-0.95777 2.92619,-1.43665 0,-0.51019 0,-1.01995 0,-1.53016 -0.96297,0.46846 -1.92699,0.93689 -2.88996,1.40533 -0.0125,0 -0.0241,0 -0.0362,0 0,-0.44756 0,-0.89512 0,-1.34268 0.21369,-0.31365 0.597,-0.33363 0.72248,-0.87423 0.16382,-0.70539 -1.10473,-2.61593 -1.48121,-2.99767 -0.40745,0.66317 -2.40165,3.18649 -0.83066,3.80971 0.1654,0.30822 0.0819,0.98545 0.0719,1.40533 -0.96298,-0.46844 -1.92647,-0.93689 -2.88997,-1.40533 -0.0113,0.49977 -0.0242,0.99952 -0.0362,1.4993 0.95143,0.46843 1.90336,0.93687 2.85426,1.40532 0.27828,0.52653 0.0819,1.70944 0.0719,2.37352 -0.96298,-0.46843 -1.92647,-0.93689 -2.88998,-1.40532 -0.0113,0.49976 -0.0241,0.99952 -0.0361,1.49928 0.77078,0.39582 1.54211,0.79118 2.31238,1.18654 0.0241,0.0104 0.0483,0.0208 0.0719,0.0314 -0.79443,0.38538 -1.58938,0.77029 -2.38431,1.15522 0,0.51021 0,1.02041 0,1.53016 0.96348,-0.46844 1.92645,-0.93689 2.88995,-1.40533 0.0125,0.61414 0.0247,1.2283 0.0362,1.84244 -1.27643,0.63457 -2.55288,1.26961 -3.82931,1.90464 0.12022,-0.88469 0.24048,-1.76936 0.36124,-2.6545 -0.29614,-0.25646 -3.94693,-1.6391 -4.47934,-1.71762 -0.16855,1.39443 -0.33709,2.78977 -0.50565,4.18465 0.9509,0.35359 1.90285,0.70811 2.85375,1.0617 0,0.0104 0,0.0208 0,0.0314 -1.24021,0.60371 -2.4799,1.20742 -3.7201,1.81112 -0.5781,-0.28097 -1.15619,-0.56194 -1.7343,-0.84291 -0.0237,-0.0309 -0.0478,-0.0622 -0.0719,-0.0939 0.93934,-0.46799 1.87817,-0.93688 2.81751,-1.40532 0.0125,-0.0208 0.0242,-0.0413 0.0362,-0.0627 -0.50563,-0.24966 -1.01127,-0.49976 -1.51745,-0.74942 -0.78286,0.39537 -1.5652,0.79118 -2.34808,1.18654 0,-0.79117 0,-1.58236 0,-2.37353 -0.51719,-0.2501 -1.03543,-0.49976 -1.55314,-0.74941 0,0.9573 0,1.91507 0,2.87283 -0.7582,-0.37493 -1.517436,-0.74941 -2.275633,-1.12436 -0.194802,-0.18973 -0.08086,-2.44433 -0.07245,-2.90414 -0.505642,-0.2601 -1.011282,-0.52065 -1.516917,-0.78074 -0.01214,0.95777 -0.02419,1.91553 -0.03621,2.87328 -0.445256,-0.20788 -0.891035,-0.41624 -1.336295,-0.62457 -0.324488,-1.52653 -2.406902,-1.43983 -4.262491,-1.40533 0.174846,0.65183 1.61301,2.39985 2.275638,2.62318 0.493569,0.16658 0.795478,-0.0554 1.156198,-0.0939 0.457857,0.21833 0.915195,0.43711 1.372528,0.65589 -0.939348,0.4789 -1.878689,0.95732 -2.817511,1.4362 0,0.0104 0,0.0208 0,0.0314 0.505642,0.2601 1.011283,0.52019 1.516917,0.78074 0.939347,-0.48932 1.878688,-0.97864 2.817506,-1.46752 0.794953,0.37449 1.589378,0.74942 2.38433,1.12435 0,0.0208 0,0.0418 0,0.0627 -0.950901,0.46845 -1.90232,0.93688 -2.85374,1.40532 0,0.0204 0,0.0413 0,0.0621 0.48149,0.23921 0.963499,0.47889 1.444456,0.71855 0.945646,-0.15115 1.547364,-0.94913 2.456784,-1.15567 -0.0121,0.78074 -0.0246,1.56147 -0.0362,2.34221 0.51771,0.25011 1.03543,0.49977 1.55313,0.74987 0,-0.94732 0,-1.89465 0,-2.84197 0.61381,0.29187 1.22813,0.58328 1.84247,0.8747 0,1.28004 0,2.561 0,3.84104 -0.81858,-0.51021 -1.63769,-1.0204 -2.45626,-1.53016 -0.23628,-0.0985 -0.77657,0.41716 -1.01179,0.56196 -0.96298,0.59326 -1.926467,1.18653 -2.889965,1.7798 -0.02419,0.0313 -0.04775,0.0627 -0.07246,0.0939 0.372273,0.35133 3.514275,2.37217 3.973695,2.46703 0.81858,-0.52064 1.63769,-1.04083 2.45626,-1.56147 0,1.22785 0,2.45659 0,3.68489 -0.60174,0.29142 -1.20397,0.58329 -1.8057,0.8747 -0.0125,-0.91601 -0.0241,-1.83247 -0.0362,-2.74846 -0.0113,-0.0413 -0.0236,-0.0835 -0.0361,-0.1248 -0.5051,0.24966 -1.01126,0.49976 -1.5169,0.74941 0,0.79118 0,1.58235 0,2.37353 -0.78234,-0.39581 -1.565229,-0.79163 -2.348102,-1.18653 -0.493562,0.2392 -0.98765,0.47842 -1.481212,0.71809 -0.01215,0.0208 -0.02412,0.0413 -0.03621,0.0627 0.939347,0.46845 1.878688,0.93689 2.818044,1.40533 0.0115,0.0208 0.0236,0.0413 0.0357,0.0621 -0.770284,0.38493 -1.541084,0.77029 -2.311878,1.15567 -0.975049,-0.48932 -1.950619,-0.97864 -2.925672,-1.46796 -0.481483,0.2501 -0.962973,0.49976 -1.444982,0.74942 -0.02413,0 -0.0483,0 -0.07246,0 0.939346,0.48977 1.878688,0.97864 2.817508,1.46795 0.02419,0 0.0483,0 0.07246,0 -0.469936,0.22878 -0.939346,0.45847 -1.408757,0.68724 -0.313989,-0.0217 -0.776572,-0.20562 -1.192422,-0.0627 -0.810706,0.27917 -1.835105,1.85879 -2.239933,2.56099 0,0.0104 0,0.0208 0,0.0309 1.903366,0.0254 4.112842,0.16068 4.262492,-1.40533 0.445778,-0.21832 0.891037,-0.43711 1.336287,-0.65545 0.01215,0.95731 0.02411,1.91507 0.03621,2.87284 0.481483,-0.23877 0.962973,-0.47888 1.444982,-0.7181 0.194803,-0.19019 0.08033,-2.44478 0.07193,-2.9046 0.770274,-0.39536 1.541585,-0.79118 2.311865,-1.18654 0.0121,0.96819 0.0241,1.9364 0.0362,2.90369 0.49357,-0.23875 0.98763,-0.47842 1.48121,-0.71809 0.16959,-0.32819 0.0435,-1.64408 0.0362,-2.40485 0.77027,0.38584 1.54106,0.77076 2.31186,1.15567 0.62167,-0.0976 1.01915,-0.54787 1.58938,-0.71809 -0.93883,-0.48887 -1.8787,-0.97864 -2.81751,-1.46751 -0.0241,0 -0.0484,0 -0.0725,0 0.61433,-0.31229 1.22865,-0.62459 1.84245,-0.93689 1.27592,0.64502 2.55235,1.29094 3.82879,1.93641 -0.9509,0.3536 -1.90337,0.70811 -2.85425,1.06171 0.16853,1.39489 0.33709,2.78977 0.50615,4.18466 1.48069,-0.55151 2.96243,-1.10347 4.44259,-1.65498 -0.0966,-0.90557 -0.19271,-1.81158 -0.28879,-2.71669 1.20398,0.59327 2.40796,1.18699 3.61245,1.7798 0.22001,0.41307 0.0819,1.33588 0.0719,1.87376 -0.96296,-0.46843 -1.92646,-0.93687 -2.88996,-1.40531 -0.0113,0.4993 -0.0242,0.99906 -0.0362,1.49883 0.7708,0.39581 1.54211,0.79117 2.31239,1.18653 0.0241,0.0104 0.0483,0.0214 0.0719,0.0314 -0.79442,0.38493 -1.58937,0.7703 -2.38432,1.15568 0,0.50975 0,1.0204 0,1.53014 0.9635,-0.46844 1.92647,-0.93688 2.88997,-1.40531 0.0125,0.77029 0.0247,1.54058 0.0362,2.31088 -0.97505,0.47888 -1.95064,0.95821 -2.92621,1.43664 0,0.50975 0,1.0204 0,1.53016 0.9635,-0.46845 1.92647,-0.93643 2.88997,-1.40533 0.0125,0.44756 0.0247,0.89557 0.0362,1.34313 -1.69492,0.94188 0.32658,2.87329 0.72196,3.84059 0.0241,0.0104 0.0483,0.0208 0.0725,0.0313 0.59071,-1.2215 2.24467,-2.54467 0.79444,-3.87237 -0.1969,-0.18656 -0.0841,-1.02086 -0.0719,-1.34313 0.96297,0.46844 1.92647,0.93687 2.88997,1.40531 0.0113,-0.4993 0.0236,-0.99952 0.0362,-1.49882 -0.95142,-0.46845 -1.90286,-0.93689 -2.85427,-1.40532 -0.27828,-0.52655 -0.0819,-1.70945 -0.0719,-2.37354 0.96297,0.46845 1.92647,0.93689 2.88997,1.40533 0.0113,-0.49976 0.0236,-0.99952 0.0362,-1.49882 -0.77081,-0.39582 -1.5416,-0.79119 -2.3124,-1.18699 -0.0237,-0.0104 -0.0478,-0.0208 -0.0719,-0.0314 0.79443,-0.38492 1.58938,-0.76985 2.38434,-1.15521 0,-0.50976 0,-1.01995 0,-1.53016 -0.96298,0.46844 -1.927,0.93688 -2.88998,1.40533 -0.0125,-0.60371 -0.0241,-1.20788 -0.0362,-1.81158 1.27591,-0.63457 2.55234,-1.27006 3.8293,-1.90508 -0.1087,0.90555 -0.21685,1.81158 -0.32554,2.71713 1.48122,0.56196 2.96243,1.12436 4.44364,1.68631 0.18062,-1.384 0.36125,-2.76935 0.54188,-4.15334 -0.95143,-0.37493 -1.90285,-0.74941 -2.85375,-1.12435 1.23968,-0.62458 2.48094,-1.24917 3.72062,-1.87331 0.59019,0.30185 1.18036,0.60371 1.77,0.90556 -0.93882,0.47933 -1.87868,0.95822 -2.8175,1.43665 0,0.0104 0,0.0208 0,0.0314 0.48148,0.24965 0.96297,0.49975 1.44445,0.74941 0.82278,-0.14071 1.69072,-0.80207 2.38434,-1.15567 0.0112,0.79163 0.0241,1.5828 0.0357,2.37353 0.49408,0.23966 0.98764,0.47888 1.48121,0.71855 0.0237,-0.94732 0.0483,-1.89464 0.0725,-2.84197 0.78287,0.37448 1.56522,0.74941 2.34808,1.12436 -0.0125,0.96773 -0.0241,1.93594 -0.0361,2.90369 0.51772,0.24966 1.03596,0.49976 1.55315,0.74942 0,-0.94687 0,-1.89419 0,-2.84197 0.4337,0.19836 0.8674,0.39582 1.30059,0.59372 0.16381,0.30186 0.17957,0.63367 0.39748,0.87425 0.61642,0.68087 2.56704,0.581 3.93746,0.56194 -0.40325,-0.69766 -1.40035,-2.2378 -2.16483,-2.56053 z m -8.48874,-10.83635 c 0.69833,0.42669 1.39719,0.85382 2.09553,1.2805 0.0357,0.0418 0.0719,0.0835 0.1082,0.1248 -0.73404,0.44756 -1.46914,0.89558 -2.2037,1.34314 -0.69887,-0.43713 -1.39721,-0.8747 -2.09503,-1.31182 -0.0125,-0.0204 -0.0236,-0.0417 -0.0362,-0.0621 0.70989,-0.45845 1.42082,-0.91645 2.13126,-1.37446 z m -26.62299,2.81066 c -0.19427,0.0848 -1.76316,-1.09349 -2.16746,-1.24919 -0.0121,-0.0208 -0.0241,-0.0413 -0.0362,-0.0621 0.69834,-0.45799 1.39668,-0.91644 2.09501,-1.374 0.71094,0.42668 1.42135,0.85336 2.13124,1.28005 0.0242,0.0313 0.0483,0.0627 0.0725,0.0939 -0.69781,0.43712 -1.39667,0.87423 -2.09501,1.31136 z m 21.42114,-6.18325 c -0.37332,0.16659 -0.74665,0.33272 -1.11997,0.4993 -0.33762,-0.53062 -0.67471,-1.0617 -1.01127,-1.59234 0.70989,0.36406 1.42083,0.729 2.13124,1.09304 z m -0.4694,-6.83915 c 0.27303,0.25191 0.23154,1.82701 0.36124,2.27957 -0.8191,0.32273 -1.63769,0.64546 -2.45679,0.9682 -0.1082,-0.7703 -0.21686,-1.54059 -0.32502,-2.31089 0.80651,-0.3123 1.61354,-0.6246 2.42057,-0.93688 z m -6.89991,3.15426 c 0.69834,0.33317 1.39668,0.66635 2.09501,0.99953 0.0125,0.0208 0.0241,0.0418 0.0361,0.0627 -0.71041,0 -1.42135,0 -2.13124,0 0,-0.35451 0,-0.70811 0,-1.06216 z m -1.55366,0 c 0.0125,0.35405 0.0246,0.70811 0.0362,1.06171 -0.71042,0 -1.42136,0 -2.13125,0 0.69833,-0.35405 1.3972,-0.70766 2.09502,-1.06171 z m -7.2601,-0.74987 c -0.20005,-0.69313 0.20214,-1.59416 0.21632,-2.34221 0.80703,0.29141 1.61406,0.58328 2.42056,0.87425 0.24941,0.53063 -0.16487,1.69083 -0.21686,2.34221 -0.80702,-0.29096 -1.61405,-0.58237 -2.42002,-0.87425 z m 2.02255,3.34172 c 0.0299,0.46709 -0.78445,1.10349 -0.97505,1.59234 -0.34968,-0.15614 -0.69833,-0.31229 -1.0475,-0.46844 -0.0125,-0.0208 -0.0241,-0.0418 -0.0362,-0.0627 0.68626,-0.35361 1.37251,-0.70721 2.05878,-1.06126 z m -1.84194,2.68583 c 0.0667,0.15524 -0.7981,1.43165 -1.0118,1.65498 0,0.0204 0,0.0417 0,0.0621 -0.0113,-0.73897 -0.0242,-1.47794 -0.0362,-2.21693 0.34916,0.1666 0.69887,0.33318 1.04803,0.49976 z m -1.04802,4.71529 c 0.36124,0.54151 0.72249,1.08258 1.08373,1.6241 -0.34917,0.17703 -0.69782,0.3536 -1.04751,0.53108 -0.0113,-0.719 -0.0242,-1.43664 -0.0362,-2.15518 z m 0.83118,3.34172 c -0.0241,0 -0.0483,0 -0.0725,0 0.34969,-0.18746 0.69886,-0.37494 1.04751,-0.56195 0.24574,0.12624 1.01757,1.33723 1.11997,1.62366 -0.69887,-0.35405 -1.39668,-0.70811 -2.09502,-1.06171 z m 0.43318,6.80738 c -0.20164,-0.23331 -0.32554,-1.86605 -0.32501,-2.27957 0.79441,-0.32228 1.58936,-0.64546 2.38431,-0.96819 0.21581,0.19426 0.31242,1.8792 0.36125,2.27955 -0.80702,0.32274 -1.61352,0.64593 -2.42055,0.96821 z m 6.89938,-3.15337 c -0.69887,-0.33316 -1.39669,-0.66678 -2.09503,-0.99952 -0.0125,-0.0208 -0.0237,-0.0413 -0.0362,-0.0627 0.71043,0 1.42083,0 2.13126,0 0,0.35406 0,0.70767 0,1.06216 z m 1.55366,0 c -0.0125,-0.35405 -0.0241,-0.70809 -0.0362,-1.06216 0.71041,0 1.42084,0 2.13124,0 -0.69833,0.35407 -1.39667,0.70767 -2.09501,1.06216 z m 3.35937,-2.40484 c -2.75711,0.0104 -5.51529,0.0205 -8.27189,0.0314 -1.36097,-2.05079 -2.72142,-4.10158 -4.08239,-6.15238 1.36097,-2.02946 2.72142,-4.05982 4.08239,-6.08973 2.74505,0 5.49115,0 8.23619,0 1.36045,2.04034 2.72142,4.0807 4.08187,6.1206 -1.34889,2.02991 -2.69778,4.06073 -4.04617,6.09019 z m 3.97371,3.18514 c -0.0967,0.77029 -0.1927,1.54058 -0.28879,2.31088 -0.8191,-0.30186 -1.63768,-0.6037 -2.45677,-0.90556 0.0845,-0.77029 0.16907,-1.54059 0.25307,-2.31135 0.83065,0.30232 1.66183,0.60417 2.49249,0.90603 z m -2.13124,-3.3726 c 0.34916,-0.54107 0.69887,-1.08259 1.0475,-1.62366 0.36124,0.16658 0.7225,0.33318 1.08374,0.4993 0.0125,0.0208 0.0236,0.0417 0.0361,0.0627 -0.72249,0.35359 -1.44498,0.70765 -2.16747,1.0617 z m 1.84245,-2.74801 c 0.34917,-0.55197 0.69835,-1.10392 1.04751,-1.65542 0.0112,0.71854 0.0241,1.43663 0.0361,2.15518 -0.36178,-0.16704 -0.72301,-0.33362 -1.08374,-0.49976 z m 1.04751,-4.65354 c -0.36125,-0.55152 -0.72249,-1.10348 -1.08374,-1.65499 0.36125,-0.18746 0.72249,-0.37493 1.08374,-0.56195 0.0112,0.73898 0.0241,1.47796 0.0361,2.21694 -0.0125,0 -0.0246,0 -0.0361,0 z"
       clip-rule="evenodd" />
  </g>
</svg>
