<?xml version="1.0" encoding="UTF-8" standalone="no"?>
<!-- Created with Inkscape (http://www.inkscape.org/) -->

<svg
   xmlns:dc="http://purl.org/dc/elements/1.1/"
   xmlns:cc="http://creativecommons.org/ns#"
   xmlns:rdf="http://www.w3.org/1999/02/22-rdf-syntax-ns#"
   xmlns:svg="http://www.w3.org/2000/svg"
   xmlns="http://www.w3.org/2000/svg"
   xmlns:sodipodi="http://sodipodi.sourceforge.net/DTD/sodipodi-0.dtd"
   xmlns:inkscape="http://www.inkscape.org/namespaces/inkscape"
   width="48"
   height="48"
   id="svg4160"
   version="1.1"
   inkscape:version="0.48.2 r9819"
   sodipodi:docname="Snowflake-21.svg">
  <defs
     id="defs4162" />
  <sodipodi:namedview
     id="base"
     pagecolor="#ffffff"
     bordercolor="#666666"
     borderopacity="1.0"
     inkscape:pageopacity="0.0"
     inkscape:pageshadow="2"
     inkscape:zoom="11.2"
     inkscape:cx="20.579313"
     inkscape:cy="15.458561"
     inkscape:document-units="px"
     inkscape:current-layer="layer1"
     showgrid="false"
     fit-margin-top="0"
     fit-margin-left="0"
     fit-margin-right="0"
     fit-margin-bottom="0"
     inkscape:window-width="1600"
     inkscape:window-height="1181"
     inkscape:window-x="-4"
     inkscape:window-y="-4"
     inkscape:window-maximized="1" />
  <metadata
     id="metadata4165">
    <rdf:RDF>
      <cc:Work
         rdf:about="">
        <dc:format>image/svg+xml</dc:format>
        <dc:type
           rdf:resource="http://purl.org/dc/dcmitype/StillImage" />
        <dc:title />
      </cc:Work>
    </rdf:RDF>
  </metadata>
  <g
     inkscape:label="Layer 1"
     inkscape:groupmode="layer"
     id="layer1"
     transform="translate(-91.528107,-104.27354)">
    <g
       transform="matrix(0.66022319,0,0,0.66375322,-139.43069,-246.96716)"
       id="g248"
       style="fill:none;stroke:#000000;stroke-width:0.15106063;stroke-miterlimit:4;stroke-opacity:1;stroke-dasharray:none" />
    <g
       id="g8762">
      <path
         d="m 93.546815,131.42931 1.354377,-1.10862 1.841094,1.20825 1.693864,-0.49095 -2.450028,-1.62428 0.992733,-1.0321 3.356995,2.02038 1.31864,-0.38415 -3.952348,-2.61893 1.03919,-1.61232 7.182838,4.5341 -2.98177,8.06001 -1.71602,-0.5045 1.81822,-5.79256 -1.82966,0.42799 -1.97617,4.66082 -1.265038,-0.40328 1.410839,-3.95548 -1.862536,0.63042 -1.08493,2.41729 -1.265038,0 0.554615,-1.91438 -3.806548,1.20904 -0.360929,-1.81316 3.319831,-0.9819 z m 12.822625,16.88512 -0.44527,-1.57247 2.66301,-1.36605 0.55533,-2.02117 -3.21834,2.07856 -0.81334,-2.0156 4.53984,-2.2547 0.47457,-1.66173 -5.01441,2.40533 -1.26361,-1.91438 7.97189,-3.22305 4.94651,8.26085 -1.28791,1.20824 -3.62501,-6.24604 -0.43955,1.96459 2.37069,4.28145 -0.99344,1.0082 -2.05551,-3.24935 -0.42883,1.81317 1.64884,2.19173 -0.94985,1.32221 -1.25217,-1.58761 -1.02847,4.44643 -1.35509,-0.60492 0.95985,-4.36992 z m 19.70171,-1.06797 -1.62668,-0.5045 0.41882,-3.12262 -1.25432,-1.66253 -0.88052,3.98019 -1.62668,-0.70614 0.94913,-5.23864 -0.85908,-1.20904 -0.99345,5.5407 -1.62596,-0.20084 1.62596,-8.26164 9.23835,0.70534 0,1.91438 -6.77546,-0.83206 1.01346,1.25367 4.83645,1.19071 0,1.5111 -3.34342,-0.36582 1.11424,1.50791 2.67945,0.57065 -0.18011,1.61152 -1.44514,-0.28931 2.39571,2.86599 -0.9713,0.98907 -2.47575,-2.75919 z m 10.68778,-16.14073 -1.29148,0.424 -1.50089,-1.96538 -1.61596,-0.25106 1.6717,2.21644 -1.26575,0.90698 -2.8131,-3.58966 -1.54949,-0.11795 3.95664,4.81544 -1.30935,1.00819 -5.8735,-6.75054 5.42108,-5.59171 1.0835,0.85677 -3.25193,3.72674 1.52305,0.27656 3.17474,-2.69464 0.95986,0.91974 -2.13413,2.15347 1.82895,0.11318 1.51233,-1.67449 1.1757,0.5037 -1.19786,1.47364 4.26968,0.56587 0,1.48719 -3.76081,-0.39132 z m -6.35092,-18.01286 -0.0743,1.43618 -2.62513,-0.22714 -1.11852,1.66173 3.2991,0.051 0,1.20904 -4.26896,0.36502 -0.95986,0.9819 5.22882,-0.0383 0,1.5111 -8.04192,0.56746 -1.64884,-8.52544 1.37796,-0.48537 1.32436,6.09939 1.25075,-1.66013 -0.84765,-3.62633 1.05134,-0.98269 1.04919,3.42628 1.01847,-1.49995 -0.71329,-2.37982 1.2872,-0.37778 0.52031,1.58762 2.37212,-2.5193 0.98416,0.94683 -1.91185,2.27701 z m -16.65776,5.7806 4.37046,-6.58716 -1.0835,-0.70454 -3.18547,4.19298 -0.30446,-1.47284 2.26992,-3.55141 -0.94842,-0.88147 -1.76248,2.61892 -0.60965,-3.05966 1.46802,-1.67449 -0.89196,-0.66867 -0.94842,0.86952 -0.77975,-3.62633 -1.17499,0 0.63252,3.89013 -1.26361,-0.36422 -0.63252,1.10861 2.06623,0.70455 0.57606,2.7831 -2.64229,-2.17898 -0.81334,1.15883 3.96307,3.21109 0.238,1.39793 -5.11661,-3.96664 -0.71042,1.42343 z m -17.448226,-2.00285 -1.525192,0.30206 0.215843,1.31026 2.868848,-0.40328 2.202027,1.35967 -3.626445,0.10122 0.09148,1.41068 4.991545,-0.34032 1.72745,1.17079 -6.087906,0.88227 0.27159,1.71194 7.410836,-1.49356 1.08207,-0.21838 -2.07695,-7.75794 -1.35652,0 1.35652,5.5415 -1.69029,-1.33815 -0.60321,-3.4478 -1.32222,-0.25105 0.43884,2.60776 -1.929011,-1.2983 -0.473854,-2.60697 -1.152113,0 0.225134,1.69999 -2.90101,-1.69999 -0.765455,1.28316 z"
         style="fill:none;stroke:#000000;stroke-width:0.09999999;stroke-miterlimit:4;stroke-opacity:1;stroke-dasharray:none"
         id="polygon162" />
    </g>
  </g>
</svg>
