<?xml version="1.0" encoding="UTF-8" standalone="no"?>
<!-- Created with sK1/UniConvertor (http://sk1project.org/) -->

<svg
   xmlns:dc="http://purl.org/dc/elements/1.1/"
   xmlns:cc="http://creativecommons.org/ns#"
   xmlns:rdf="http://www.w3.org/1999/02/22-rdf-syntax-ns#"
   xmlns:svg="http://www.w3.org/2000/svg"
   xmlns="http://www.w3.org/2000/svg"
   xmlns:sodipodi="http://sodipodi.sourceforge.net/DTD/sodipodi-0.dtd"
   xmlns:inkscape="http://www.inkscape.org/namespaces/inkscape"
   width="595.276pt"
   height="841.89pt"
   viewBox="0 0 595.276 841.89"
   fill-rule="evenodd"
   id="svg2"
   version="1.1"
   inkscape:version="0.48.4 r9939"
   sodipodi:docname="chameleon_vector_002.svg">
  <metadata
     id="metadata26">
    <rdf:RDF>
      <cc:Work
         rdf:about="">
        <dc:format>image/svg+xml</dc:format>
        <dc:type
           rdf:resource="http://purl.org/dc/dcmitype/StillImage" />
        <dc:title></dc:title>
      </cc:Work>
    </rdf:RDF>
  </metadata>
  <defs
     id="defs24" />
  <sodipodi:namedview
     pagecolor="#ffffff"
     bordercolor="#666666"
     borderopacity="1"
     objecttolerance="10"
     gridtolerance="10"
     guidetolerance="10"
     inkscape:pageopacity="0"
     inkscape:pageshadow="2"
     inkscape:window-width="2560"
     inkscape:window-height="1378"
     id="namedview22"
     showgrid="false"
     inkscape:zoom="1.2685909"
     inkscape:cx="503.99328"
     inkscape:cy="573.0362"
     inkscape:window-x="-8"
     inkscape:window-y="-8"
     inkscape:window-maximized="1"
     inkscape:current-layer="g6" />
  <g
     id="g4"
     style="fill:none;stroke:#000000">
    <g
       id="g6"
       style="fill:none;stroke:#000000">
      <path
         style="stroke:#000000;fill:none"
         d="M 639.906 331.415C 625.287 287.013 598.464 253.356 559.292 227.241C 520.121 201.127 459.093 192.895 425.599 197.72C 392.103 202.546 362.299 220.145 354.635 225.254C 346.971 230.363 340.442 238.311 336.753 238.879C 333.062 239.447 324.263 233.486 310.922 229.228C 297.581 224.97 289.065 218.725 272.886 218.725C 256.706 218.725 243.933 224.119 234.282 231.215C 224.631 238.311 218.67 244.84 204.477 247.678C 190.285 250.517 178.931 254.775 166.725 262.155C 154.52 269.535 151.076 271.988 152.347 273.048C 154.796 275.089 163.504 280.513 175.142 291.867C 186.78 303.221 197.381 319.777 208.167 323.183C 218.954 326.589 230.024 324.886 235.133 321.48C 240.243 318.074 245.636 312.397 249.326 312.397C 253.016 312.397 256.706 318.358 261.248 318.641C 265.79 318.925 272.318 309.842 273.454 307.004C 274.589 304.165 281.685 305.3 279.13 310.126C 276.576 314.951 269.764 324.318 263.519 325.17C 257.274 326.022 253.3 318.641 249.042 318.925C 244.785 319.209 234.282 329.428 224.915 328.86C 215.548 328.292 205.759 330.838 186.124 314.229C 166.42 297.559 160.866 294.104 155.432 290.322C 151.884 287.854 147.368 286.046 145.097 288.317C 143.247 290.168 140.043 302.746 149.126 316.655C 158.21 330.564 174.502 341.769 187.73 348.446C 202.343 355.822 220.089 362.071 232.011 365.193C 243.933 368.316 255.287 369.735 260.68 368.599C 266.073 367.464 266.357 364.342 270.047 362.922C 273.737 361.503 280.266 368.599 285.659 370.302C 291.052 372.005 299.284 377.115 305.812 375.412C 312.341 373.709 330.225 361.787 330.225 361.787C 330.225 361.787 319.722 362.071 315.464 361.787C 311.205 361.503 304.961 358.948 316.315 357.529C 327.669 356.11 348.106 350.433 354.919 348.73C 361.731 347.026 380.02 341.563 385.291 341.35C 389.981 341.16 392.914 348.15 373.086 352.42C 355.178 356.277 344.701 362.071 334.481 368.316C 324.263 374.561 311.205 385.63 302.406 384.779C 293.607 383.927 283.388 378.534 279.414 375.128C 275.44 371.722 266.073 367.748 261.532 372.857C 256.99 377.966 262.951 384.779 269.764 385.347C 276.576 385.915 285.092 383.643 285.092 389.037C 285.092 394.43 277.144 400.107 266.357 400.674C 255.571 401.243 241.946 397.268 235.417 396.7C 228.889 396.132 221.792 399.539 221.509 405.5C 221.225 411.461 226.334 416.003 233.146 415.719C 239.959 415.435 245.636 411.461 255.287 410.609C 264.938 409.758 273.737 408.907 275.156 412.312C 276.576 415.719 268.912 418.273 261.532 418.84C 254.151 419.409 244.501 419.409 233.714 422.531C 222.928 425.652 222.644 432.465 224.347 437.291C 226.05 442.117 233.714 444.389 240.811 440.414C 247.907 436.44 252.081 431.199 258.409 429.061C 264.717 426.926 271.617 425.879 271.75 427.641C 271.986 428.713 264.938 433.033 259.828 434.736C 254.719 436.44 245.92 441.266 248.759 448.078C 251.597 454.891 258.409 453.756 262.383 451.201C 266.357 448.645 270.615 441.549 273.737 436.44C 276.86 431.33 287.078 425.369 295.594 421.396C 304.109 417.421 338.172 407.771 350.094 401.527C 362.015 395.282 370.834 388.167 381.322 380.863C 391.849 373.533 413.393 364.058 421.624 349.582C 429.855 335.105 426.733 325.17 411.973 322.047C 397.213 318.925 365.706 319.777 358.609 320.345C 351.513 320.912 340.727 320.345 337.889 320.345C 335.05 320.345 327.669 319.209 327.669 319.209C 327.669 319.209 368.26 313.249 388.981 313.532C 409.703 313.816 421.815 314.148 429.763 320.109C 437.711 326.07 444.735 343.084 424.015 358.696C 403.294 374.308 386.427 383.927 381.602 387.617C 376.775 391.307 371.95 399.255 371.95 399.255C 371.95 399.255 396.93 411.461 416.231 418.557C 435.533 425.652 474.421 439.279 474.421 439.279C 474.421 439.279 488.897 410.043 495.71 396.417C 502.522 382.792 514.735 374.296 530.056 375.695C 547.247 377.266 559.008 397.268 567.523 419.693C 576.04 442.117 578.774 447.365 581.148 463.406C 582.063 469.582 576.411 471.715 574.62 464.258C 570.565 447.365 560.599 417.712 547.938 400.391C 539.366 388.663 529.771 383.359 522.392 384.779C 515.011 386.198 502.522 397.268 495.71 412.596C 488.897 427.924 479.529 449.496 475.84 461.135C 472.149 472.774 462.929 483.891 458.955 487.014C 454.981 490.135 449.235 484.664 440.718 478.768C 434.222 474.272 425.978 466.527 417.733 458.781C 412.042 453.436 398.643 450.324 393.25 456.285C 387.857 462.244 391.501 473.272 403.242 477.27C 415.366 481.399 425.999 485.662 429.475 487.014C 433.972 488.762 442.345 493.494 443.48 495.481C 444.616 497.469 445.184 500.307 441.493 500.307C 437.804 500.307 416.215 502.781 401.848 498.678C 392.737 496.074 375.165 496.215 375.073 506.834C 375.008 514.264 380.765 521.59 400.206 515.918C 419.91 510.172 437.482 509.844 444.013 510.41C 450.541 510.979 451.924 513.863 447.465 517.459C 443.807 520.41 425.31 529.399 417.542 534.578C 410.13 539.52 409.199 547.238 413.083 552.848C 417.123 558.682 432.674 557.897 440.991 546.662C 449.191 535.586 453.487 530.258 459.117 524.942C 466.506 517.961 476.092 518.705 481.485 524.949C 486.878 531.195 491.778 542.375 501.387 539.479C 511.451 536.443 511.259 520.535 505.704 516.74C 498.027 511.494 489.749 512.229 483.788 510.242C 477.826 508.254 476.408 504.85 480.949 499.455C 485.49 494.063 507.347 476.178 513.309 463.973C 519.269 451.768 530.339 411.461 530.339 411.461C 530.339 411.461 532.894 416.571 532.894 424.52C 532.894 432.465 526.934 466.813 534.313 487.533C 541.693 508.254 559.292 533.234 561.279 535.787C 563.267 538.344 574.092 560.928 575.944 571.272C 580.486 596.627 578.31 616.969 568.943 638.543C 559.576 660.115 516.431 683.676 495.71 682.822C 474.988 681.971 456.538 666.643 453.132 648.762C 449.726 630.879 459.807 613.572 474.988 607.318C 487.589 602.129 501.954 604.197 507.631 614.699C 513.309 625.201 513.593 636.272 506.213 643.652C 498.832 651.033 485.82 653.608 479.548 645.858C 473.149 637.953 476.86 630.826 479.179 628.332C 481.577 625.75 487.163 626.203 488.613 630.311C 490.064 634.42 489.141 637.186 484.344 639.031C 484.897 642.352 488.008 646.348 496.336 642.906C 500.985 640.984 504.226 635.137 504.226 629.459C 504.226 623.781 502.238 617.254 495.426 614.416C 488.613 611.576 477.182 614.641 471.298 619.809C 464.296 625.957 459.186 637.311 463.728 649.234C 468.271 661.154 481.278 668.385 495.426 667.211C 511.416 665.887 530.623 651.6 533.462 630.311C 536.3 609.022 527.501 586.029 507.064 578.649C 486.626 571.27 463.634 572.973 443.765 586.029C 423.896 599.088 411.102 625.934 412.824 648.193C 414.334 667.69 421.057 690.203 446.319 705.531C 471.582 720.859 496.277 723.983 530.339 721.428C 564.402 718.873 614.211 686.533 632.242 643.369C 650.503 599.656 656.182 544.399 657.695 483.088C 659.114 425.576 657.695 385.442 639.906 331.415z"
         id="path8" />
      <path
         style="stroke:#000000;fill:none"
         d="M 178.537 302.766C 178.299 303.939 166.27 289.793 147.989 284.049C 140.591 281.725 131.387 281.639 122.739 283.166C 107.907 285.783 92.623 298.657 49.4648 303.925C 20.8374 307.124 -12.4463 311.246 -45.062 291.032C -61.0879 281.083 -75.521 266.167 -82.8994 247.052C -90.4829 228.067 -89.0625 205.168 -78.4644 186.952C -67.7676 168.584 -46.8438 156.668 -25.7119 157.187C -4.88916 157.057 16.5864 169.256 23.9668 189.067C 31.7822 208.094 26.5684 231.569 10.4194 243.461C -5.51074 255.26 -28.3633 253.349 -40.7271 239.9C -53.0767 226.401 -51.4502 205.329 -39.4121 195.046C -27.3359 184.782 -9.78223 187.498 -2.38184 197.603C 5.09863 207.732 2.36426 219.972 -3.61377 225.479C -9.68652 231.169 -16.2534 230.822 -18.8955 230.283C -31.3301 227.862 -32.3447 216.359 -30.9053 213.361C -29.54 209.549 -28.6367 209.363 -28.9453 211.225C -29.1665 212.881 -30.1099 217.922 -25.9331 222.461C -22.2202 226.954 -11.5771 228.175 -5.91357 220.45C -4.46533 218.286 -2.08105 213.414 -3.75586 207.209C -4.83936 200.86 -11.834 194.524 -21.4619 194.381C -31.0352 193.915 -41.6196 202.046 -42.7729 214.496C -44.5361 226.563 -36.0103 240.606 -21.646 243.575C -7.8335 247.346 9.38574 240.416 16.1895 225.871C 23.3784 211.539 21.1948 192.231 9.57813 179.576C -1.77783 166.846 -21.4692 162.119 -38.5327 166.303C -55.9351 170.36 -70.5386 183.853 -76.147 200.903C -82.4272 217.808 -80.0273 236.872 -71.48 252.149C -63.0493 267.619 -49.4907 279.461 -34.6738 287.282C -4.65088 303.221 26.5225 298.683 53.0127 295.336C 89.6851 289.884 103.157 281.865 117.265 277.162C 132.626 272.041 145.164 274.69 153.287 278.398C 161.974 282.365 179.098 299.986 178.537 302.766z"
         id="path10" />
      <path
         style="stroke:#000000;fill:none"
         d="M 387.893 189.887C 383.464 188.362 371.73 184.653 363.632 182.432C 355.535 180.212 352.353 184.812 350.865 189.786C 348.993 196.049 347.588 203.654 345.008 213.854C 342.428 224.051 351.353 219.697 356.213 217.538C 361.073 215.379 382.743 204.2 388.19 200.746C 393.639 197.29 392.319 191.411 387.893 189.887zM 412.854 194.303C 418.634 193.908 444.992 190.566 451.86 189.065C 458.728 187.565 459.575 181.054 455.613 177.839C 451.651 174.625 441.027 166.442 433.566 161.142C 426.11 155.842 421.133 159.362 417.752 163.898C 413.494 169.608 409.213 176.868 402.76 186.343C 396.309 195.817 407.071 194.695 412.854 194.303zM 514.673 199.768C 521.665 200.496 524.511 194.579 521.755 190.285C 519.002 185.99 511.477 174.889 506.054 167.519C 500.634 160.15 494.804 161.932 490.172 165.179C 484.339 169.268 477.999 174.82 468.901 181.796C 459.805 188.77 470.377 191.079 475.991 192.518C 481.603 193.955 507.681 199.042 514.673 199.768zM 583.271 221.433C 581.94 216.508 578.106 203.657 575.154 194.995C 572.205 186.335 566.109 186.28 560.714 187.982C 553.92 190.124 546.203 193.509 535.426 197.42C 524.652 201.332 534.039 206.718 538.959 209.78C 543.878 212.84 567.213 225.545 573.661 228.344C 580.11 231.143 584.606 226.358 583.271 221.433zM 618.935 272.355C 624.074 277.152 629.913 274.15 630.305 269.063C 630.7 263.977 631.394 250.584 631.513 241.433C 631.635 232.285 625.911 230.192 620.258 229.988C 613.138 229.731 604.732 230.335 593.269 230.41C 581.807 230.487 588.846 238.706 592.456 243.239C 596.066 247.771 613.797 267.558 618.935 272.355zM 629.497 292.088C 631.16 296.764 640.012 317.729 642.838 323.046C 645.663 328.362 651.229 327.555 652.965 323.546C 654.699 319.535 658.992 308.88 661.637 301.501C 664.282 294.125 660.229 290.835 655.707 289.096C 650.01 286.904 643.036 285.053 633.729 281.921C 624.421 278.793 627.836 287.41 629.497 292.088zM 649.22 342.254C 650.001 346.861 654.789 367.739 656.539 373.126C 658.29 378.513 663.557 378.645 665.804 375.194C 668.053 371.744 673.729 362.526 677.359 356.09C 680.989 349.658 677.78 345.96 673.887 343.628C 668.982 340.689 662.845 337.865 654.761 333.481C 646.678 329.099 648.44 337.646 649.22 342.254zM 659.836 393.43C 659.826 398.102 661.012 419.489 661.825 425.094C 662.638 430.701 667.805 431.723 670.604 428.701C 673.405 425.682 680.56 417.558 685.229 411.829C 689.894 406.105 687.357 401.917 683.915 398.959C 679.58 395.233 674.008 391.41 666.782 385.721C 659.558 380.035 659.847 388.755 659.836 393.43zM 684.655 452.227C 680.888 448.635 676.003 444.893 669.703 439.377C 663.402 433.863 663.252 441.809 663.021 446.057C 662.79 450.305 662.852 469.809 663.324 474.943C 663.798 480.082 668.446 481.256 671.137 478.641C 673.827 476.029 680.719 468.983 685.236 463.994C 689.752 459.01 687.642 455.082 684.655 452.227zM 669.653 490.5C 663.894 484.559 663.102 492.373 662.53 496.539C 661.959 500.705 660.44 519.926 660.489 525.022C 660.54 530.121 665.025 531.654 667.887 529.295C 670.749 526.942 678.108 520.557 682.962 516.008C 687.813 511.465 686.055 507.424 683.343 504.371C 679.923 500.525 675.414 496.443 669.653 490.5zM 666.077 539.123C 661.056 533.51 660.051 540.586 659.379 544.358C 658.707 548.125 656.623 565.549 656.483 570.186C 656.341 574.826 660.364 576.383 663.054 574.342C 665.741 572.307 672.668 566.77 677.249 562.809C 681.826 558.854 680.375 555.115 678.019 552.24C 675.051 548.617 671.099 544.74 666.077 539.123zM 660.549 583.803C 656.856 578.387 655.181 584.379 654.172 587.555C 653.164 590.729 649.376 605.525 648.726 609.512C 648.074 613.498 651.369 615.303 653.922 613.848C 656.473 612.397 663.083 608.41 667.486 605.514C 671.888 602.625 671.062 599.234 669.358 596.483C 667.208 593.02 664.241 589.223 660.549 583.803zM 650.357 623.779C 647.356 617.953 644.961 623.695 643.57 626.725C 642.182 629.752 636.615 643.973 635.482 647.85C 634.349 651.731 637.398 653.922 640.11 652.791C 642.819 651.662 649.865 648.512 654.591 646.176C 659.312 643.848 658.908 640.379 657.553 637.442C 655.842 633.74 653.361 629.609 650.357 623.779zM 636.052 661.713C 635.082 655.231 630.969 659.899 628.679 662.318C 626.39 664.74 616.545 676.416 614.227 679.723C 611.906 683.031 614.089 686.088 617.021 685.889C 619.948 685.692 627.634 684.973 632.859 684.281C 638.079 683.594 638.81 680.18 638.473 676.963C 638.041 672.91 637.021 668.199 636.052 661.713zM 601.875 692.924C 599.084 694.742 586.784 703.799 583.758 706.473C 580.729 709.147 582.138 712.629 585.035 713.121C 587.928 713.611 595.567 714.709 600.81 715.256C 606.047 715.807 607.557 712.656 607.977 709.449C 608.506 705.408 608.613 700.59 609.185 694.057C 609.756 687.527 604.668 691.106 601.875 692.924zM 570.449 715.654C 567.24 716.551 552.783 721.481 549.093 723.119C 545.399 724.754 545.694 728.5 548.31 729.842C 550.919 731.182 557.872 734.529 562.708 736.631C 567.535 738.733 569.923 736.184 571.291 733.252C 573.011 729.557 574.566 724.996 577.08 718.94C 579.59 712.885 573.661 714.762 570.449 715.654zM 531.851 726.563C 528.602 726.504 513.708 727.078 509.8 727.578C 505.891 728.078 505.12 731.662 507.19 733.649C 509.257 735.627 514.822 740.699 518.757 744.012C 522.685 747.326 525.627 745.608 527.725 743.25C 530.365 740.277 533.093 736.445 537.135 731.483C 541.169 726.522 535.104 726.625 531.851 726.563zM 492.513 727.012C 489.328 726.367 474.575 724.248 470.641 724.037C 466.705 723.822 465.301 727.209 466.979 729.535C 468.655 731.854 473.217 737.848 476.489 741.815C 479.756 745.781 482.96 744.623 485.447 742.682C 488.58 740.233 491.954 736.957 496.824 732.805C 501.686 728.65 495.7 727.658 492.513 727.012zM 454.111 716.66C 451.457 714.787 438.806 706.902 435.291 705.125C 431.775 703.344 429.126 705.877 429.726 708.682C 430.325 711.481 432.085 718.803 433.481 723.754C 434.872 728.699 438.272 728.932 441.332 728.156C 445.185 727.176 449.594 725.537 455.724 723.697C 461.848 721.856 456.769 718.535 454.111 716.66zM 411.634 671.365C 409.546 668.022 405.968 668.818 405.03 671.531C 404.095 674.236 401.812 681.41 400.447 686.371C 399.078 691.322 401.869 693.279 404.888 694.199C 408.691 695.356 413.312 696.233 419.511 697.83C 425.704 699.422 423.074 693.953 421.772 690.973C 420.468 687.998 413.723 674.705 411.634 671.365zM 408.354 651.697C 408.544 648.453 408.572 633.547 408.23 629.623C 407.888 625.695 404.338 624.781 402.272 626.77C 400.21 628.756 394.917 634.109 391.447 637.91C 387.978 641.697 389.575 644.709 391.849 646.9C 394.712 649.656 398.431 652.539 403.227 656.777C 408.02 661.008 408.162 654.943 408.354 651.697zM 424.002 586.582C 421.147 586.807 413.659 587.578 408.565 588.305C 403.479 589.027 402.798 592.367 403.161 595.502C 403.619 599.451 404.66 604.039 405.67 610.358C 406.682 616.672 410.647 612.08 412.857 609.695C 415.065 607.311 424.56 595.818 426.789 592.572C 429.022 589.322 426.861 586.361 424.002 586.582zM 459.731 567.018C 457.354 565.899 451.031 563.117 446.64 561.385C 442.256 559.654 440.197 562.008 439.065 564.674C 437.638 568.029 436.385 572.16 434.322 577.658C 432.264 583.152 437.511 581.289 440.355 580.393C 443.197 579.492 455.986 574.637 459.236 573.059C 462.49 571.481 462.113 568.137 459.731 567.018zM 495.169 570.918C 498.774 570.635 499.643 567.385 497.833 565.473C 496.026 563.565 491.154 558.668 487.697 555.453C 484.246 552.242 481.472 553.684 479.444 555.752C 476.893 558.358 474.219 561.746 470.293 566.113C 466.371 570.479 471.938 570.656 474.915 570.859C 477.889 571.059 491.567 571.201 495.169 570.918zM 508.951 573.955C 511.28 575.539 522.368 582.184 525.441 583.674C 528.516 585.164 530.776 582.928 530.212 580.506C 529.651 578.086 528.015 571.768 526.732 567.494C 525.45 563.229 522.498 563.08 519.858 563.797C 516.532 564.703 512.734 566.19 507.447 567.877C 502.165 569.567 506.619 572.369 508.951 573.955zM 543.529 611.738C 544.563 609.717 547.149 604.336 548.771 600.594C 550.392 596.858 548.417 595.012 546.148 593.957C 543.289 592.629 539.759 591.428 535.068 589.49C 530.381 587.555 531.842 592.139 532.535 594.623C 533.231 597.104 537.06 608.289 538.328 611.139C 539.598 613.996 542.496 613.766 543.529 611.738zM 549.463 628.123C 547.885 625.92 545.746 623.525 543.053 620.09C 540.361 616.656 539.515 620.709 538.982 622.861C 538.454 625.016 536.59 635.014 536.335 637.688C 536.075 640.363 538.346 641.418 539.977 640.336C 541.608 639.262 545.82 636.324 548.619 634.205C 551.414 632.092 550.716 629.875 549.463 628.123zM 537.559 646.34C 536.879 642.467 534.484 645.328 533.146 646.813C 531.81 648.301 526.081 655.451 524.742 657.469C 523.399 659.483 524.755 661.287 526.512 661.121C 528.264 660.959 532.859 660.416 535.982 659.922C 539.102 659.43 539.488 657.371 539.237 655.447C 538.919 653.025 538.237 650.215 537.559 646.34zM 513.873 673.942C 516.396 674.897 517.554 673.533 518.184 672C 518.974 670.07 519.656 667.699 520.794 664.537C 521.932 661.377 518.943 662.486 517.322 663.02C 515.702 663.557 508.426 666.432 506.579 667.361C 504.73 668.287 504.971 670.197 506.344 670.818C 507.711 671.442 511.348 672.984 513.873 673.942zM 497.528 669.975C 496.08 669.801 489.407 669.387 487.643 669.436C 485.876 669.483 485.369 671.047 486.206 672.025C 487.037 673.002 489.293 675.516 490.898 677.172C 492.506 678.826 493.894 678.192 494.935 677.233C 496.248 676.027 497.637 674.44 499.664 672.406C 501.69 670.375 498.975 670.147 497.528 669.975zM 472.022 663.168C 470.706 662.483 469.696 663.426 469.912 664.486C 470.125 665.545 470.758 668.313 471.263 670.184C 471.77 672.053 473.049 672.154 474.205 671.873C 475.663 671.522 477.329 670.922 479.648 670.252C 481.967 669.586 480.064 668.313 479.071 667.594C 478.076 666.877 473.341 663.852 472.022 663.168zM 330.3 213.459C 327.881 208.926 324.51 209.431 321.689 210.844C 318.136 212.627 314.18 215.175 308.588 218.288C 303.002 221.399 308.675 223.552 311.673 224.814C 314.668 226.072 328.716 231.059 332.529 232.041C 336.347 233.026 338.39 229.982 337.202 227.372C 336.017 224.767 332.728 217.994 330.3 213.459z"
         id="path12" />
      <path
         style="stroke:#000000;fill:none"
         d="M 601.791 449.229L 620.898 463.19C 623.394 465.016 626.896 464.469 628.722 461.973L 642.683 442.867C 644.508 440.371 643.963 436.869 641.467 435.043L 622.361 421.082C 619.864 419.258 616.362 419.803 614.536 422.299L 600.574 441.404C 598.75 443.902 599.296 447.402 601.791 449.229zM 647.421 494.399L 631.61 478.358C 629.543 476.262 626.171 476.238 624.072 478.303L 608.032 494.115C 605.935 496.18 605.911 499.555 607.977 501.652L 623.788 517.693C 625.856 519.789 629.227 519.813 631.325 517.748L 647.366 501.936C 649.463 499.869 649.486 496.496 647.421 494.399zM 629.963 536.135C 628.242 534.096 625.199 533.836 623.161 535.555L 607.567 548.703C 605.528 550.42 605.269 553.465 606.985 555.504L 620.135 571.098C 621.854 573.139 624.899 573.395 626.938 571.678L 642.531 558.529C 644.569 556.811 644.829 553.768 643.111 551.729L 629.963 536.135zM 620.162 589.596C 619.009 587.416 616.31 586.584 614.13 587.734L 597.451 596.545C 595.269 597.697 594.437 600.397 595.588 602.576L 604.396 619.254C 605.55 621.436 608.249 622.27 610.431 621.119L 627.109 612.311C 629.291 611.156 630.121 608.457 628.973 606.277L 620.162 589.596zM 606.493 641.024C 606.266 638.826 604.302 637.231 602.104 637.455L 585.291 639.195C 583.093 639.424 581.496 641.387 581.723 643.586L 583.461 660.397C 583.69 662.594 585.654 664.193 587.852 663.967L 604.665 662.229C 606.862 661.998 608.458 660.035 608.232 657.836L 606.493 641.024zM 573.343 674.957L 558.938 670.563C 557.054 669.988 555.063 671.049 554.487 672.932L 550.092 687.336C 549.519 689.219 550.58 691.211 552.461 691.787L 566.867 696.182C 568.75 696.756 570.741 695.697 571.315 693.815L 575.713 679.408C 576.286 677.525 575.225 675.533 573.343 674.957zM 519.831 688.445C 518.538 687.379 516.623 687.559 515.555 688.854L 507.384 698.746C 506.315 700.041 506.497 701.953 507.789 703.024L 517.684 711.195C 518.977 712.262 520.891 712.08 521.959 710.787L 530.132 700.895C 531.2 699.602 531.019 697.688 529.726 696.619L 519.831 688.445zM 479.518 689.649C 478.692 688.443 477.047 688.139 475.843 688.963L 466.638 695.283C 465.434 696.108 465.127 697.752 465.953 698.957L 472.272 708.164C 473.097 709.365 474.741 709.672 475.945 708.848L 485.151 702.529C 486.356 701.703 486.661 700.059 485.836 698.856L 479.518 689.649zM 449.951 673.887L 440.833 674.606C 439.641 674.697 438.75 675.74 438.844 676.932L 439.56 686.051C 439.654 687.242 440.696 688.133 441.889 688.041L 451.006 687.322C 452.198 687.229 453.088 686.188 452.995 684.996L 452.278 675.877C 452.185 674.684 451.144 673.795 449.951 673.887zM 439.092 648.074L 433.429 643.983C 432.69 643.447 431.656 643.613 431.122 644.352L 427.028 650.016C 426.495 650.754 426.66 651.787 427.4 652.324L 433.062 656.416C 433.801 656.951 434.835 656.785 435.37 656.047L 439.462 650.383C 439.999 649.645 439.832 648.611 439.092 648.074zM 435.318 623.4C 435.618 624.074 436.41 624.375 437.085 624.072L 442.237 621.754C 442.912 621.453 443.212 620.66 442.91 619.986L 440.592 614.832C 440.289 614.158 439.497 613.859 438.824 614.16L 433.67 616.479C 432.997 616.781 432.695 617.574 432.998 618.248L 435.318 623.4zM 456.543 597.711L 451.84 597.238C 451.226 597.176 450.679 597.623 450.616 598.238L 450.145 602.942C 450.081 603.555 450.529 604.104 451.144 604.166L 455.847 604.637C 456.46 604.699 457.008 604.252 457.071 603.637L 457.543 598.934C 457.605 598.32 457.156 597.772 456.543 597.711zM 472.772 592.84L 475.634 594.729C 476.008 594.975 476.51 594.873 476.757 594.5L 478.645 591.639C 478.892 591.266 478.788 590.764 478.414 590.516L 475.556 588.627C 475.182 588.381 474.679 588.484 474.432 588.858L 472.545 591.719C 472.297 592.092 472.4 592.596 472.772 592.84zM 498.733 589.746C 498.547 589.442 498.149 589.346 497.845 589.531L 495.509 590.957C 495.203 591.143 495.106 591.541 495.292 591.848L 496.719 594.182C 496.905 594.486 497.302 594.584 497.607 594.399L 499.943 592.973C 500.249 592.785 500.345 592.387 500.159 592.082L 498.733 589.746zM 511.643 604.654L 514.352 605.055C 514.703 605.106 515.032 604.863 515.084 604.51L 515.484 601.803C 515.537 601.447 515.293 601.119 514.94 601.068L 512.232 600.668C 511.878 600.615 511.551 600.859 511.498 601.213L 511.098 603.92C 511.046 604.274 511.288 604.604 511.643 604.654zM 518.948 619.055L 520.59 620.02C 520.803 620.145 521.079 620.074 521.205 619.859L 522.169 618.219C 522.294 618.006 522.223 617.729 522.008 617.604L 520.369 616.641C 520.154 616.514 519.879 616.586 519.753 616.801L 518.788 618.44C 518.662 618.654 518.733 618.928 518.948 619.055zM 519.703 635.486C 519.844 635.69 520.124 635.742 520.328 635.6L 521.892 634.516C 522.095 634.373 522.146 634.094 522.004 633.889L 520.921 632.326C 520.778 632.121 520.497 632.072 520.294 632.213L 518.731 633.297C 518.526 633.44 518.475 633.719 518.618 633.924L 519.703 635.486z"
         id="path14" />
      <path
         style="stroke:#000000;fill:none"
         d="M 276.68 281.523C 260.319 290.807 240.908 287.503 233.326 274.14C 225.743 260.779 232.861 242.421 249.222 233.136C 265.583 223.852 284.993 227.156 292.576 240.518C 300.158 253.88 293.04 272.238 276.68 281.523z"
         id="path16" />
      <path
         style="stroke:#000000;fill:none;color:#000000;stroke-width:1.00000004;stroke-linecap:butt;stroke-linejoin:miter;stroke-miterlimit:4;stroke-opacity:1;stroke-dasharray:none;stroke-dashoffset:0;marker:none;visibility:visible;display:inline;overflow:visible;enable-background:accumulate"
         d="M 270.084 244.828C 265.927 237.504 255.288 235.692 246.32 240.781C 237.354 245.871 233.452 255.934 237.607 263.256C 241.764 270.582 252.403 272.392 261.37 267.304C 270.338 262.215 274.24 252.152 270.084 244.828zM 248.487 259.275C 244.48 261.548 239.725 260.74 237.868 257.466C 236.011 254.193 237.754 249.696 241.761 247.422C 245.769 245.147 250.524 245.956 252.381 249.23C 254.239 252.504 252.495 257 248.487 259.275z"
         id="path20" />
      <path
         sodipodi:type="arc"
         style="color:#000000;fill:none;stroke:#000000;stroke-width:2.61296114;stroke-linecap:butt;stroke-linejoin:miter;stroke-miterlimit:4;stroke-opacity:1;stroke-dasharray:none;stroke-dashoffset:0;marker:none;visibility:visible;display:inline;overflow:visible;enable-background:accumulate"
         id="path3003"
         sodipodi:cx="150.36368"
         sodipodi:cy="477.11801"
         sodipodi:rx="17.933283"
         sodipodi:ry="17.933283"
         d="m 168.29696,477.11801 a 17.933283,17.933283 0 1 1 -35.86656,0 17.933283,17.933283 0 1 1 35.86656,0 z"
         transform="matrix(0.3740089,-0.22108688,0.16561939,0.29370643,109.77832,146.47382)" />
      <path
         style="color:#000000;fill:none;stroke:#000000;stroke-width:1.00000004;stroke-linecap:butt;stroke-linejoin:miter;stroke-miterlimit:4;stroke-opacity:1;stroke-dasharray:none;stroke-dashoffset:0;marker:none;visibility:visible;display:inline;overflow:visible;enable-background:accumulate"
         d="m 242.10279,248.87043 c -4.70728,2.78495 -4.72481,9.28521 0.005,10.17886 4.2789,1.27906 10.25618,-3.50764 9.40155,-7.67465 -0.41939,-3.77933 -5.51633,-5.11502 -9.40656,-2.50421 z"
         id="path3773"
         inkscape:connector-curvature="0" />
      <path
         style="color:#000000;fill:none;stroke:#000000;stroke-width:1.00000004;stroke-linecap:butt;stroke-linejoin:miter;stroke-miterlimit:4;stroke-opacity:1;stroke-dasharray:none;stroke-dashoffset:0;marker:none;visibility:visible;display:inline;overflow:visible;enable-background:accumulate"
         d="m 245.6875,249.5625 c -3.76972,-0.24482 -7.69266,6.64838 -2.75,7.65625 3.42189,0.5647 8.46956,-3.70077 5.84375,-7 -0.89016,-0.64601 -2.01479,-0.78818 -3.09375,-0.65625 z"
         id="path3777"
         inkscape:connector-curvature="0" />
      <path
         style="color:#000000;fill:none;stroke:#000000;stroke-width:1.00000004;stroke-linecap:butt;stroke-linejoin:miter;stroke-miterlimit:4;stroke-opacity:1;stroke-dasharray:none;stroke-dashoffset:0;marker:none;visibility:visible;display:inline;overflow:visible;enable-background:accumulate"
         d="m 245.84375,251.5625 c -3.04627,-0.39572 -4.7362,5.68882 -0.46875,3.1875 1.4283,-0.48266 3.75899,-3.80293 0.46875,-3.1875 z"
         id="path3781"
         inkscape:connector-curvature="0" />
    </g>
  </g>
</svg>
