<?xml version="1.0" encoding="UTF-8" standalone="no"?>
<!-- Created with Inkscape (http://www.inkscape.org/) -->
<svg
   xmlns:dc="http://purl.org/dc/elements/1.1/"
   xmlns:cc="http://creativecommons.org/ns#"
   xmlns:rdf="http://www.w3.org/1999/02/22-rdf-syntax-ns#"
   xmlns:svg="http://www.w3.org/2000/svg"
   xmlns="http://www.w3.org/2000/svg"
   xmlns:sodipodi="http://sodipodi.sourceforge.net/DTD/sodipodi-0.dtd"
   xmlns:inkscape="http://www.inkscape.org/namespaces/inkscape"
   width="128"
   height="128"
   id="svg2"
   sodipodi:version="0.32"
   inkscape:version="0.46"
   version="1.0"
   sodipodi:docbase="D:\Documents and Settings\Joanna\My Documents\My Pictures\graph_vector\fruits"
   sodipodi:docname="papapishu_candy.svg"
   inkscape:export-filename="C:\joanna\Gfx\drawings_vector\nature_plants\fruits\papa_bananas_2a.png"
   inkscape:export-xdpi="90"
   inkscape:export-ydpi="90"
   inkscape:output_extension="org.inkscape.output.svg.inkscape">
  <defs
     id="defs4">
    <inkscape:perspective
       sodipodi:type="inkscape:persp3d"
       inkscape:vp_x="0 : 186.64798 : 1"
       inkscape:vp_y="0 : 1000 : 0"
       inkscape:vp_z="559.62469 : 186.64798 : 1"
       inkscape:persp3d-origin="279.81235 : 124.43199 : 1"
       id="perspective4876" />
  </defs>
  <sodipodi:namedview
     id="base"
     pagecolor="#ffffff"
     bordercolor="#666666"
     borderopacity="1.0"
     gridtolerance="10000"
     guidetolerance="10"
     objecttolerance="10"
     inkscape:pageopacity="0.0"
     inkscape:pageshadow="2"
     inkscape:zoom="4.2109375"
     inkscape:cx="64"
     inkscape:cy="64"
     inkscape:document-units="px"
     inkscape:current-layer="layer1"
     inkscape:window-width="1280"
     inkscape:window-height="744"
     inkscape:window-x="-4"
     inkscape:window-y="-4"
     showgrid="false"
     borderlayer="true"
     showguides="true"
     inkscape:guide-bbox="true" />
  <metadata
     id="metadata7">
    <rdf:RDF>
      <cc:Work
         rdf:about="">
        <dc:format>image/svg+xml</dc:format>
        <dc:type
           rdf:resource="http://purl.org/dc/dcmitype/StillImage" />
      </cc:Work>
    </rdf:RDF>
  </metadata>
  <g
     inkscape:label="Layer 1"
     inkscape:groupmode="layer"
     id="layer1"
     transform="translate(-66.38047,-391.3222)">
    <path
       sodipodi:nodetypes="cssscc"
       id="path6298"
       d="M 157.30201,429.82171 C 167.34894,440.81397 162.68878,461.44737 146.89991,475.8784 C 131.11102,490.30943 110.14282,493.10032 100.09591,482.10806 C 90.048982,471.1158 94.709128,450.48239 110.498,436.05136 C 126.21994,421.68152 147.07131,418.83995 157.18014,429.68963 L 157.30201,429.82171 z"
       style="fill:#ffb600;fill-opacity:1;fill-rule:evenodd;stroke:#000000;stroke-width:5.16379451999999970;stroke-linecap:butt;stroke-linejoin:round;marker:none;marker-start:none;marker-mid:none;marker-end:none;stroke-miterlimit:4;stroke-dasharray:none;stroke-dashoffset:0;stroke-opacity:1;visibility:visible;display:inline;overflow:visible;enable-background:accumulate" />
    <path
       style="fill:#ff0000;fill-rule:evenodd;stroke:none;stroke-width:1px;stroke-linecap:butt;stroke-linejoin:miter;stroke-opacity:1"
       d="M 100.63084,448.65206 C 116.60274,454.50696 129.50572,464.82304 135.3921,485.33886 L 156.18399,463.83626 C 151.63592,445.40986 140.07498,433.79494 121.52898,428.96444 L 100.63084,448.65206 z"
       id="path6296"
       sodipodi:nodetypes="ccccc" />
    <path
       style="fill:none;fill-opacity:1;fill-rule:evenodd;stroke:#000000;stroke-width:6;stroke-linecap:butt;stroke-linejoin:round;marker:none;marker-start:none;marker-mid:none;marker-end:none;stroke-miterlimit:4;stroke-dasharray:none;stroke-dashoffset:0;stroke-opacity:1;visibility:visible;display:inline;overflow:visible;enable-background:accumulate"
       d="M 157.52376,429.78071 C 167.57068,440.77297 162.91053,461.40637 147.12166,475.8374 C 131.33276,490.26843 110.36457,493.05932 100.31766,482.06706 C 90.270731,471.0748 94.930877,450.44139 110.71975,436.01036 C 126.44169,421.64052 147.29306,418.79895 157.40189,429.64863 L 157.52376,429.78071 z"
       id="path5784"
       sodipodi:nodetypes="cssscc" />
    <path
       style="fill:#ff0000;fill-opacity:1;fill-rule:evenodd;stroke:#000000;stroke-width:6;stroke-linecap:round;stroke-linejoin:round;stroke-miterlimit:4;stroke-dasharray:none;stroke-opacity:1"
       d="M 158.24759,427.32368 C 168.25295,431.71772 183.40143,429.49745 188.45285,423.78831 C 185.87218,423.24654 183.43661,420.63509 181.93687,417.61843 C 180.36285,414.4523 181.79232,410.33026 179.11786,407.88264 C 176.06415,405.08792 171.81544,406.62271 168.57831,404.94371 C 165.72979,403.46627 164.81054,400.34568 161.85954,396.88274 C 154.78866,406.43682 155.40869,417.89005 158.24759,427.32368 z"
       id="path6310"
       sodipodi:nodetypes="ccssscc" />
    <path
       sodipodi:nodetypes="ccssscc"
       id="path6312"
       d="M 102.02676,483.87353 C 92.048507,479.41827 76.886708,481.54569 71.800416,487.22378 C 74.377717,487.78135 76.797228,490.40766 78.278459,493.43346 C 79.83306,496.60917 78.378372,500.72238 81.037779,503.18634 C 84.074306,505.99972 88.332341,504.49099 91.559125,506.18979 C 94.398534,507.68465 95.29865,510.81081 98.228378,514.29176 C 105.35765,504.78119 104.8078,493.32438 102.02676,483.87353 z"
       style="fill:#ff0000;fill-opacity:1;fill-rule:evenodd;stroke:#000000;stroke-width:6;stroke-linecap:round;stroke-linejoin:round;stroke-miterlimit:4;stroke-dasharray:none;stroke-opacity:1" />
  </g>
</svg>
