<?xml version="1.0" encoding="UTF-8" standalone="no"?>
<!-- Created with Inkscape (http://www.inkscape.org/) -->

<svg
   xmlns:dc="http://purl.org/dc/elements/1.1/"
   xmlns:cc="http://creativecommons.org/ns#"
   xmlns:rdf="http://www.w3.org/1999/02/22-rdf-syntax-ns#"
   xmlns:svg="http://www.w3.org/2000/svg"
   xmlns="http://www.w3.org/2000/svg"
   xmlns:sodipodi="http://sodipodi.sourceforge.net/DTD/sodipodi-0.dtd"
   xmlns:inkscape="http://www.inkscape.org/namespaces/inkscape"
   width="1052.3622"
   height="744.09448"
   id="svg2"
   version="1.1"
   inkscape:version="0.48.1 "
   sodipodi:docname="Projects_001.svg">
  <defs
     id="defs4" />
  <sodipodi:namedview
     id="base"
     pagecolor="#ffffff"
     bordercolor="#666666"
     borderopacity="1.0"
     inkscape:pageopacity="0.0"
     inkscape:pageshadow="2"
     inkscape:zoom="0.7"
     inkscape:cx="605.19037"
     inkscape:cy="356.03504"
     inkscape:document-units="px"
     inkscape:current-layer="layer1"
     showgrid="false"
     inkscape:window-width="1024"
     inkscape:window-height="742"
     inkscape:window-x="-4"
     inkscape:window-y="-4"
     inkscape:window-maximized="1" />
  <metadata
     id="metadata7">
    <rdf:RDF>
      <cc:Work
         rdf:about="">
        <dc:format>image/svg+xml</dc:format>
        <dc:type
           rdf:resource="http://purl.org/dc/dcmitype/StillImage" />
        <dc:title></dc:title>
      </cc:Work>
    </rdf:RDF>
  </metadata>
  <g
     inkscape:label="Ebene 1"
     inkscape:groupmode="layer"
     id="layer1"
     transform="translate(0,-308.2677)">
    <g
       transform="matrix(1.1737746,0,0,1.1737746,30.470356,671.22059)"
       style="font-size:144px;font-style:normal;font-variant:normal;font-weight:800;font-stretch:normal;text-align:start;line-height:125%;letter-spacing:0px;word-spacing:0px;writing-mode:lr-tb;text-anchor:start;fill:none;stroke:#000000;stroke-width:1.25;stroke-miterlimit:4;stroke-opacity:1;font-family:Rockwell Extra Bold;-inkscape-font-specification:'Rockwell Extra Bold, Ultra-Bold'"
       id="flowRoot2985">
      <path
         d="m 111.58594,170.74646 0,18.35157 7.38281,0 c 5.15618,5e-5 8.90618,-0.60932 11.25,-1.82813 2.24993,-1.21869 3.37492,-3.58587 3.375,-7.10156 -8e-5,-2.29681 -0.60945,-4.24212 -1.82813,-5.83594 -1.17194,-1.5468 -2.74225,-2.53117 -4.71093,-2.95312 -1.87507,-0.4218 -5.06257,-0.63274 -9.5625,-0.63282 z m 9.84375,76.35938 -57.164065,0 0,-23.41406 9.492187,0 0,-50.97657 -9.492187,0 0,-23.41406 59.976565,0 c 13.78117,1e-4 23.85928,1.33604 30.23437,4.00781 6.3749,2.71885 11.06239,6.42197 14.0625,11.10938 2.99989,4.68758 4.49989,9.82038 4.5,15.39844 -1.1e-4,6.89068 -1.78136,12.60943 -5.34375,17.15625 -3.5626,4.59379 -8.27354,7.92191 -14.13281,9.98437 -5.76571,2.01567 -14.67196,3.02348 -26.71875,3.02344 l -15.25781,0 0,13.71094 9.84375,0 z"
         style="line-height:125%;stroke:#000000;font-family:Rockwell Extra Bold;-inkscape-font-specification:'Rockwell Extra Bold, Ultra-Bold'"
         id="path3304" />
      <path
         d="m 236.25,247.10584 -54.98438,0 0,-21.44531 9.28125,0 0,-25.3125 -9.28125,0 0,-21.44532 42.32813,0 0,17.08594 c 1.5937,-4.26557 4.05464,-7.94525 7.38281,-11.03906 3.18744,-3.04681 6.42182,-5.039 9.70313,-5.97656 3.14056,-0.89056 7.75774,-1.33587 13.85156,-1.33594 l 0,30.02344 c -0.79695,-0.0468 -1.78133,-0.0703 -2.95313,-0.0703 -7.21881,4e-5 -12.58599,0.72661 -16.10156,2.17969 -3.6563,1.50004 -6.14068,3.46879 -7.45312,5.90625 -1.35943,2.53128 -2.06255,5.8594 -2.10938,9.98438 l 10.33594,0 z"
         style="line-height:125%;stroke:#000000;font-family:Rockwell Extra Bold;-inkscape-font-specification:'Rockwell Extra Bold, Ultra-Bold'"
         id="path3306" />
      <path
         d="m 296.78906,212.79334 c -4e-5,10.87502 3.89058,16.31252 11.67188,16.3125 8.24994,2e-5 12.37493,-5.48435 12.375,-16.45313 -7e-5,-5.01558 -1.00788,-8.9062 -3.02344,-11.67187 -2.06256,-2.76558 -4.96881,-4.14839 -8.71875,-4.14844 -3.70318,5e-5 -6.67974,1.35943 -8.92969,4.07813 -2.25004,2.71879 -3.37504,6.67972 -3.375,11.88281 z M 261,212.65271 c -10e-6,-10.0312 4.21874,-18.49213 12.65625,-25.38281 8.43747,-6.89056 19.82809,-10.33587 34.17187,-10.33594 14.43744,7e-5 26.17961,3.3282 35.22657,9.98438 9.04678,6.6563 13.57021,15.32817 13.57031,26.01562 -10e-5,10.31253 -4.3126,18.91408 -12.9375,25.80469 -8.62508,6.89063 -20.01569,10.33594 -34.17188,10.33594 -15.28128,0 -27.18752,-3.44531 -35.71875,-10.33594 C 265.26561,231.89492 260.99999,223.19961 261,212.65271 z"
         style="line-height:125%;stroke:#000000;font-family:Rockwell Extra Bold;-inkscape-font-specification:'Rockwell Extra Bold, Ultra-Bold'"
         id="path3308" />
      <path
         d="m 362.10937,276.1449 0,-19.26562 c 4.82813,-10e-6 8.0625,-0.44532 9.70313,-1.33594 1.68749,-0.89063 2.74218,-2.29688 3.16406,-4.21875 0.42186,-1.875 0.6328,-7.61718 0.63281,-17.22656 l 0,-33.75 -6.96093,0 0,-21.44532 42.32812,0 0,54.07032 c -5e-5,11.39062 -0.56255,19.42968 -1.6875,24.11718 -1.12504,4.78124 -3.18754,8.62499 -6.1875,11.53125 -3.00003,2.99998 -6.75003,5.10935 -11.25,6.32813 -4.50002,1.21872 -10.50002,1.82809 -18,1.82812 -4.64063,-3e-5 -8.55469,-0.21096 -11.74219,-0.63281 z m 11.32032,-116.50781 c -10e-6,-3.70303 1.87499,-6.67959 5.625,-8.92969 3.74998,-2.2499 8.3906,-3.3749 13.92187,-3.375 5.71872,1e-4 10.31246,1.17198 13.78125,3.51563 3.42183,2.39072 5.13277,5.29696 5.13281,8.71875 -4e-5,3.65633 -1.80473,6.58602 -5.41406,8.78906 -3.60941,2.2032 -8.15628,3.30476 -13.64062,3.30469 -5.53128,7e-5 -10.14846,-1.00774 -13.85157,-3.02344 -3.70313,-1.96867 -5.55469,-4.96867 -5.55468,-9 z"
         style="line-height:125%;stroke:#000000;font-family:Rockwell Extra Bold;-inkscape-font-specification:'Rockwell Extra Bold, Ultra-Bold'"
         id="path3310" />
      <path
         d="m 462.23437,207.66053 19.89844,0 c 0.0937,-1.40621 0.14057,-2.20309 0.14063,-2.39063 -6e-5,-3.70308 -0.93756,-6.77339 -2.8125,-9.21094 -1.87506,-2.39057 -4.35943,-3.58588 -7.45313,-3.58593 -3.18755,5e-5 -5.62504,1.31255 -7.3125,3.9375 -1.68754,2.67192 -2.53129,5.95317 -2.53125,9.84375 -4e-5,0.51566 0.0234,0.98441 0.0703,1.40625 z m 22.5,17.85937 29.17969,3.58594 c -1.31259,3.04689 -3.14071,5.77736 -5.48437,8.19141 -2.34384,2.41407 -5.20321,4.51172 -8.57813,6.29296 -6.79694,3.65625 -14.92975,5.48438 -24.39844,5.48438 -15.89066,0 -27.84377,-3.30469 -35.85937,-9.91406 -8.01564,-6.56249 -12.02344,-15.16404 -12.02344,-25.80469 0,-10.40621 3.96093,-19.07807 11.88281,-26.01563 7.8281,-6.93743 18.44528,-10.40618 31.85157,-10.40625 12.89056,7e-5 23.39055,3.28132 31.5,9.84375 7.96866,6.51568 12.21084,16.42974 12.72656,29.74219 l -53.71875,0 c 0.14058,11.06252 4.26558,16.59377 12.375,16.59375 4.87494,2e-5 8.39056,-2.53123 10.54687,-7.59375 z"
         style="line-height:125%;stroke:#000000;font-family:Rockwell Extra Bold;-inkscape-font-specification:'Rockwell Extra Bold, Ultra-Bold'"
         id="path3312" />
      <path
         d="m 589.78125,219.12146 26.36719,5.90625 c -2.20322,7.59377 -6.93759,13.50001 -14.20313,17.71875 -7.35945,4.21875 -16.45319,6.32813 -27.28125,6.32813 -14.34379,0 -25.64065,-3.23437 -33.89062,-9.70313 -8.25001,-6.46873 -12.37501,-15.1406 -12.375,-26.01562 -1e-5,-10.45308 3.84374,-19.0312 11.53125,-25.73438 7.6406,-6.65618 17.22652,-9.9843 28.75781,-9.98437 9.74994,7e-5 17.27337,1.94538 22.57031,5.83594 l 0,-4.57032 21.58594,0 0,29.10938 -21.58594,0 c -2.67194,-7.7812 -7.19537,-11.67182 -13.57031,-11.67188 -4.31255,6e-5 -7.64067,1.66412 -9.98438,4.99219 -2.34379,3.42192 -3.51566,7.57035 -3.51562,12.44531 -4e-5,5.29691 1.26558,9.46878 3.79687,12.51563 2.48433,3.04689 5.7187,4.57033 9.70313,4.57031 6.56244,2e-5 10.59368,-3.91404 12.09375,-11.74219 z"
         style="line-height:125%;stroke:#000000;font-family:Rockwell Extra Bold;-inkscape-font-specification:'Rockwell Extra Bold, Ultra-Bold'"
         id="path3314" />
      <path
         d="m 681.60937,222.21521 0,20.95313 c -2.29693,1.54688 -5.62505,2.90625 -9.98437,4.07812 -4.5938,1.21875 -9.00004,1.82813 -13.21875,1.82813 -5.29691,0 -9.84378,-0.86719 -13.64063,-2.60156 -3.89064,-1.78125 -6.82032,-4.17187 -8.78906,-7.17188 -1.07814,-1.73436 -1.87501,-3.31639 -2.39062,-4.74609 -0.51564,-1.42968 -0.89064,-3.03514 -1.125,-4.81641 -0.32814,-3.09373 -0.4922,-9.07028 -0.49219,-17.92969 l 0,-11.46093 -8.71875,0 0,-21.44532 8.71875,0 0,-10.47656 35.36719,-16.80469 0,27.28125 14.27343,0 0,21.44532 -14.27343,0 0,13.21875 c -5e-5,4.31253 0.39839,7.19534 1.19531,8.64843 0.74995,1.45315 2.3437,2.17971 4.78125,2.17969 2.29682,2e-5 5.06244,-0.72654 8.29687,-2.17969 z"
         style="line-height:125%;stroke:#000000;font-family:Rockwell Extra Bold;-inkscape-font-specification:'Rockwell Extra Bold, Ultra-Bold'"
         id="path3316" />
      <path
         d="m 717.46875,247.94959 -21.86719,0 0,-21.65625 20.46094,0 c 5.24997,5.53126 10.99215,8.29689 17.22656,8.29687 6.2812,2e-5 9.42182,-1.28904 9.42188,-3.86718 -6e-5,-1.31249 -0.67974,-2.3203 -2.03907,-3.02344 -1.4063,-0.74998 -5.13286,-1.85154 -11.17968,-3.30469 -4.87504,-1.31247 -10.26566,-2.83591 -16.17188,-4.57031 -5.10939,-1.4531 -9.14064,-3.28122 -12.09375,-5.48438 -3.04688,-2.20309 -5.08594,-4.35933 -6.11719,-6.46875 -1.125,-2.10933 -1.6875,-4.87495 -1.6875,-8.29687 0,-7.54682 2.67187,-13.1015 8.01563,-16.66406 5.29686,-3.51556 12.02341,-5.27337 20.17969,-5.27344 8.43745,7e-5 15.51557,1.59382 21.23437,4.78125 l 0,-3.51563 21.58594,0 0,19.82813 -19.96875,0 c -4.9688,-4.73432 -10.87505,-7.10151 -17.71875,-7.10156 -5.39066,5e-5 -8.08597,1.42974 -8.08594,4.28906 -3e-5,1.35942 0.79685,2.25005 2.39063,2.67187 1.35934,0.42193 5.85933,1.42974 13.5,3.02344 8.67182,1.82817 15.44525,3.65629 20.32031,5.48438 4.82805,1.82816 8.46086,4.24222 10.89844,7.24218 2.39054,3.00003 3.58585,6.67972 3.58593,11.03907 -8e-5,7.87501 -2.92976,13.6875 -8.78906,17.4375 -5.81257,3.70312 -12.98443,5.55468 -21.51562,5.55468 -8.48442,0 -15.67973,-1.54687 -21.58594,-4.64062 z"
         style="line-height:125%;stroke:#000000;font-family:Rockwell Extra Bold;-inkscape-font-specification:'Rockwell Extra Bold, Ultra-Bold'"
         id="path3318" />
    </g>
    <g
       id="layer1-7"
       inkscape:label="Layer 1"
       transform="matrix(1.3510845,0,0,1.3510845,249.49738,351.63667)">
      <g
         transform="translate(10.3395,8.17)"
         id="g2728"
         style="overflow:visible">
        <path
           sodipodi:nodetypes="cccccccccccccccccccccccccccccccccccccccccccccccccccccccccccccccccccccccccccccccccccccccccccccccccccccccccccc"
           style="fill:none;stroke:#000000;stroke-width:1.44000006;stroke-linecap:round;stroke-linejoin:round;stroke-miterlimit:10"
           stroke-miterlimit="10"
           d="m 11.76,72.48 0,27.3 M 0.76419417,108.96 0.72,224.7 M 9,140.7 9,256.44 m 29.581,-82.26 0,115.74 m 47.639,-91.26 0,115.74 m 143.76,2.58 0,-115.8 m -88.02,0.48 0,115.74 m 143.879,-1.92 0,-115.8 m 49.501,94.2 0,-115.8 m 32.279,83.1 0,-115.74 m 10.981,79.26 0,-115.8 m -8.22,-3.72 0,-28.02 m -29.64,-7.2 0,-26.28 m -47.64,3.36 0,-27.84 m -55.68,8.22 0,-11.22 m -88.02,0.54 0,8.82 m -55.92,-7.32 0,25.62 m -49.5,-4.02 0,26.4 m 145.561,243.96 -6.721,-0.061 m -43.92,-5.099 -6.239,-1.44 m 107.579,1.44 -6.42,1.26 m -94.68,-277.68 6.3,-1.26 m 44.34,-3.9 6.66,0.12 m 43.98,5.04 6.239,1.44 m 38.28,13.44 5.04,2.58 M 318,66.3 l 3.18,3.36 m 14.34,24.54 1.019,3.78 m -1.019,25.92 -1.38,3.78 m -16.26,24.12 -3.54,3.3 m -29.52,19.44 -5.279,2.399 m -39.301,12.421 -6.42,1.199 m -44.279,3.901 -6.721,-0.06 m -43.92,-5.1 -6.239,-1.38 m -38.281,-13.5 -5.04,-2.58 m -27.96,-20.16 -3.3,-3.42 m -14.28,-24.48 -1.021,-3.9 m 1.081,-25.8 1.261,-3.84 M 61.44,66.18 64.92,62.82 m 11.34,39.36 C 76.35,81.7 92.394,65.778 109.02,56.16 132.289,42.605 161.694,36.828 188.4,36.72 c 26.854,-0.259 56.385,5.238 80.04,18.36 16.897,9.339 33.755,25.021 34.56,45.6 0.753,20.507 -14.526,36.411 -30.899,46.44 -23.065,13.894 -51.846,19.94 -78.54,20.46 -26.882,0.566 -56.879,-4.561 -80.76,-17.34 -18.083,-9.497 -36.39,-26.079 -36.541,-48.06 m -31.139,6.78 C 45.206,82.986 65.36,62.879 86.4,50.58 115.754,33.361 152.964,25.869 186.72,25.56 c 34.367,-0.458 71.52,6.229 101.999,22.62 22.634,12.198 45.421,33.137 45.541,60.78 -0.103,26.007 -20.304,46.082 -41.341,58.44 -29.629,17.306 -66.295,24.593 -100.319,25.02 -34.612,0.357 -71.26,-6.192 -102,-22.62 C 67.889,157.391 45.288,136.789 45.121,108.96 M 94.56,43.44 99.78,40.98 m 142.2,61.2 c -0.777,21.914 -33.878,30.572 -51.42,30.18 -17.899,0.777 -51.028,-7.427 -53.22,-29.16 -0.367,-22.059 32.202,-31.273 49.68,-31.2 12.766,-0.399 27.454,1.969 38.7,8.28 8.117,4.388 16.33,11.955 16.26,21.9 m -94.8,4.62 c 0.538,-17.952 28.088,-25.088 42.48,-24.54 14.511,-0.461 41.737,6.402 42.54,24.54 -0.854,18.107 -28.021,24.972 -42.54,24.54 -9.945,-0.027 -20.052,-1.915 -28.921,-6.54 -6.595,-3.549 -13.656,-9.878 -13.559,-18"
           id="path2721"
           inkscape:connector-curvature="0" />
        <path
           style="fill:none;stroke:#000000;stroke-width:0.72000003;stroke-linecap:round;stroke-linejoin:round;stroke-miterlimit:10"
           d="m 40.68,88.440002 0,5.579995"
           id="line2607"
           inkscape:connector-curvature="0" />
        <path
           style="fill:none;stroke:#000000;stroke-width:1.44000006;stroke-linecap:round;stroke-linejoin:round;stroke-miterlimit:10"
           stroke-miterlimit="10"
           d="m 15.72,66.42 0.36,-0.3 0.659,-0.18 m 10e-4,0 c 11.914,-1.399 24.206,-0.834 35.881,1.98 m -7.5,22.38 c 0.947,-2.671 -2.298,-4.369 -4.44,-4.74 m -10e-4,0 C 30.408,83.39 20.287,79.537 12,72.96 m 0,0 -0.24,-0.36 0.06,-0.42 m 0,0 1.86,-2.88 2.04,-2.88 m 36.901,1.5 c 2.764,0.627 6.674,0.279 8.819,-1.74"
           id="path2609"
           inkscape:connector-curvature="0" />
        <path
           style="fill:none;stroke:#000000;stroke-width:0.72000003;stroke-linecap:round;stroke-linejoin:round;stroke-miterlimit:10"
           d="m 12,77.519997 0,17.700004"
           id="line2611"
           inkscape:connector-curvature="0" />
        <path
           style="fill:none;stroke:#000000;stroke-width:1.44000006;stroke-linecap:round;stroke-linejoin:round;stroke-miterlimit:10"
           stroke-miterlimit="10"
           d="m 42.78,119.94 c -0.511,-2.502 -4.827,-3.681 -7.02,-3.54 m 0,0 c -11.526,0.005 -23.627,-1.969 -34.38,-6.18 m 0,0 -0.48,-0.3 -0.12,-0.42 m 0,0 0,-3.06 0.24,-3.06 m 0,0 0.181,-0.36 0.479,-0.3 m 0,0 c 10.742,-3.959 23.446,-5.54 34.86,-5.28 m 10e-4,0 c 2.271,0.209 6.514,-0.877 7.319,-3.36 M 9,228.48 5.1,227.28 1.38,225.9 m 0,0 -0.48,-0.3 -0.12,-0.359 m 0,-0.001 -0.06,-0.601"
           id="path2613"
           inkscape:connector-curvature="0" />
        <path
           id="path2953"
           d="m 42.78,121.68 0,3.3"
           style="fill:none;stroke:#000000;stroke-width:0.72000003;stroke-linecap:round;stroke-linejoin:round;stroke-miterlimit:10"
           inkscape:connector-curvature="0" />
        <path
           id="path2951"
           d="m 35.76,119.58 0,6.3"
           style="fill:none;stroke:#000000;stroke-width:0.72000003;stroke-linecap:round;stroke-linejoin:round;stroke-miterlimit:10"
           inkscape:connector-curvature="0" />
        <path
           style="fill:none;stroke:#000000;stroke-width:1.44000006;stroke-linecap:round;stroke-linejoin:round;stroke-miterlimit:10"
           stroke-miterlimit="10"
           d="m 58.14,148.32 c -1.796,-2.147 -6.134,-2.555 -8.7,-1.98 M 38.581,263.7 c -8.524,0.759 -16.671,0.592 -25.141,-0.66 m 0,0 -0.6,-0.18 -0.36,-0.36 m 0,0 -1.8,-2.88 -1.62,-2.94 m 0,0 -0.12,-0.3"
           id="path2617"
           inkscape:connector-curvature="0" />
        <path
           style="fill:none;stroke:#000000;stroke-width:0.72000003;stroke-linecap:round;stroke-linejoin:round;stroke-miterlimit:10"
           d="m 43.799999,124.2 0,0.6"
           id="line2619"
           inkscape:connector-curvature="0" />
        <path
           style="fill:none;stroke:#000000;stroke-width:1.44000006;stroke-linecap:round;stroke-linejoin:round;stroke-miterlimit:10"
           stroke-miterlimit="10"
           d="m 49.44,146.34 c -11.671,2.451 -24.215,2.733 -36,0.96 m 0,0 -0.6,-0.18 -0.36,-0.3 m 0,0 -1.8,-2.94 -1.62,-2.94 m 0,0 -0.06,-0.36 0.3,-0.36 m 0,0 c 8.283,-6.132 19.557,-10.074 29.64,-11.82 m 0,0 c 2.102,-0.398 5.611,-1.881 4.86,-4.62"
           id="path2621"
           inkscape:connector-curvature="0" />
        <path
           style="fill:none;stroke:#000000;stroke-width:0.72000003;stroke-linecap:round;stroke-linejoin:round;stroke-miterlimit:10"
           stroke-miterlimit="10"
           d="m 49.44,150.48 0,8.04 m -36,-6.66 0,106.68 m 44.7,-107.88 0,4.62 m -45.66,-3.9 0,106.62 m -3.42,-112.5 0,106.68"
           id="path2623"
           inkscape:connector-curvature="0" />
        <path
           style="fill:none;stroke:#000000;stroke-width:1.44000006;stroke-linecap:round;stroke-linejoin:round;stroke-miterlimit:10"
           stroke-miterlimit="10"
           d="m 89.4,171.9 c -2.894,-1.422 -6.431,-1.443 -9.359,-0.121 m 0,0 c -10.362,4.97 -21.822,7.321 -33.24,8.041 m -0.001,0 -0.66,-0.061 -0.6,-0.24 m 1.26,115.981 -0.66,-0.06 -0.6,-0.181 m 10e-4,10e-4 -3.36,-2.399 -3.3,-2.46 M 38.88,290.4 38.7,290.16 38.58,289.92 m 41.461,-2.4 c -10.395,4.898 -21.803,7.358 -33.24,7.98 m 39.419,-8.82 c -2.072,-0.29 -4.303,-0.161 -6.18,0.84"
           id="path2625"
           inkscape:connector-curvature="0" />
        <path
           style="fill:none;stroke:#000000;stroke-width:0.72000003;stroke-linecap:round;stroke-linejoin:round;stroke-miterlimit:10"
           stroke-miterlimit="10"
           d="m 38.88,179.28 0,106.62 m 22.5,-133.14 0,1.98"
           id="path2627"
           inkscape:connector-curvature="0" />
        <path
           style="fill:none;stroke:#000000;stroke-width:1.44000006;stroke-linecap:round;stroke-linejoin:round;stroke-miterlimit:10"
           stroke-miterlimit="10"
           d="m 45.541,179.52 -3.36,-2.399 -3.3,-2.399 m -10e-4,-0.001 -0.24,-0.361 0.061,-0.42 m 0,-0.001 c 4.366,-7.84 12.807,-13.412 20.819,-16.979 m 0,0 c 2.243,-0.794 3.877,-3.31 1.86,-5.28"
           id="path2629"
           inkscape:connector-curvature="0" />
        <path
           style="fill:none;stroke:#000000;stroke-width:0.72000003;stroke-linecap:round;stroke-linejoin:round;stroke-miterlimit:10"
           stroke-miterlimit="10"
           d="m 80.041,176.34 0,106.68 M 46.8,184.38 46.8,291 m -1.259,-106.92 0,106.68 M 89.4,175.859 l 0,7.74"
           id="path2631"
           inkscape:connector-curvature="0" />
        <path
           style="fill:none;stroke:#000000;stroke-width:1.44000006;stroke-linecap:round;stroke-linejoin:round;stroke-miterlimit:10"
           stroke-miterlimit="10"
           d="m 132.72,187.92 c -2.879,-0.68 -6.632,-0.382 -8.88,1.74 m 0,0 c -7.15,7.014 -16.962,11.489 -26.521,14.1 m 10e-4,0 -0.659,0.061 -0.601,-0.12 m 0,-0.001 -4.62,-1.561 -4.5,-1.62 m 0,0.001 -0.479,-0.3 -0.181,-0.359 m 0.66,116.339 -0.479,-0.24 -0.181,-0.42 m 0,0 -0.06,-1.2 m 37.62,-9 c -7.24,7.137 -16.828,11.437 -26.521,14.101 m -1.259,-10e-4 -4.62,-1.561 -4.5,-1.68 m 10.38,3.241 -0.659,0.119 -0.601,-0.119 m 36.66,-15.84 c -2.785,-0.638 -6.719,-0.26 -8.88,1.74"
           id="path2633"
           inkscape:connector-curvature="0" />
        <path
           style="fill:none;stroke:#000000;stroke-width:0.72000003;stroke-linecap:round;stroke-linejoin:round;stroke-miterlimit:10"
           stroke-miterlimit="10"
           d="m 97.32,208.32 0,106.62 m -10.38,-109.86 0,106.62 m 9.12,-103.44 0,106.68 m -9.78,-110.52 0,106.62 m 8.1,-134.88 0,3.3"
           id="path2635"
           inkscape:connector-curvature="0" />
        <path
           style="fill:none;stroke:#000000;stroke-width:1.44000006;stroke-linecap:round;stroke-linejoin:round;stroke-miterlimit:10"
           stroke-miterlimit="10"
           d="m 86.28,199.86 c -0.485,-8.022 3.784,-14.886 9.54,-20.101 m 0,0.001 c 2.18,-1.965 0.838,-4.279 -1.439,-5.34"
           id="path2637"
           inkscape:connector-curvature="0" />
        <path
           style="fill:none;stroke:#000000;stroke-width:0.72000003;stroke-linecap:round;stroke-linejoin:round;stroke-miterlimit:10"
           d="m 132.72,192.48 0,106.62001"
           id="line2639"
           inkscape:connector-curvature="0" />
        <path
           style="fill:none;stroke:#000000;stroke-width:1.44000006;stroke-linecap:round;stroke-linejoin:round;stroke-miterlimit:10"
           stroke-miterlimit="10"
           d="m 182.88,310.14 c -2.336,-0.15 -6.485,0.758 -7.26,3.36"
           id="path2641"
           inkscape:connector-curvature="0" />
        <path
           style="fill:none;stroke:#000000;stroke-width:0.72000003;stroke-linecap:round;stroke-linejoin:round;stroke-miterlimit:10"
           d="m 123.84,194.22 0,106.62"
           id="line2643"
           inkscape:connector-curvature="0" />
        <path
           style="fill:none;stroke:#000000;stroke-width:1.44000006;stroke-linecap:round;stroke-linejoin:round;stroke-miterlimit:10"
           stroke-miterlimit="10"
           d="m 182.88,194.4 c -2.109,-0.246 -6.697,0.924 -7.26,3.359 m 0.001,0.001 c -2.571,8.215 -9.362,14.23 -16.561,18.48 m 0,0 -0.6,0.24 -0.66,0 m 0,0 -5.22,-0.54 -5.221,-0.66 m 0.001,0 -0.6,-0.181 -0.42,-0.3 m 0,0.001 c -4.452,-6.316 -5.651,-13.463 -2.94,-20.76 m 0,0 c 0.973,-2.661 -2.397,-4.377 -4.5,-4.74 m 3.06,116.94 -0.9,-0.48 -1.02,-0.42 -1.141,-0.3 m 18.901,27.18 -10.44,-1.2 m 11.7,0.96 -0.6,0.18 -0.66,0.06 m 17.821,-18.72 c -2.618,8.209 -9.354,14.21 -16.561,18.48 m -11.7,-0.96 -0.6,-0.18 -0.42,-0.359 m 0,-10e-4 c -2.747,-4.048 -4.38,-8.136 -4.38,-13.08"
           id="path2645"
           inkscape:connector-curvature="0" />
        <path
           style="fill:none;stroke:#000000;stroke-width:0.72000003;stroke-linecap:round;stroke-linejoin:round;stroke-miterlimit:10"
           stroke-miterlimit="10"
           d="m 147.36,219.84 0,106.68 m 10.44,-105.48 0,106.68 m 1.26,-106.92 0,106.68 m 16.561,-125.16 0,106.68 m -29.281,-89.64 0,106.62 m 36.54,-127.02 0,106.68 m -43.98,-111.78 0,106.68"
           id="path2647"
           inkscape:connector-curvature="0" />
        <path
           style="fill:none;stroke:#000000;stroke-width:1.44000006;stroke-linecap:round;stroke-linejoin:round;stroke-miterlimit:10"
           stroke-miterlimit="10"
           d="m 233.88,190.56 c -2.188,0.448 -5.407,1.839 -4.86,4.62 m -5.58,136.86 -5.28,0.479 -5.279,0.421 m -0.001,0 -0.721,-0.061 -0.539,-0.18 m 0.001,10e-4 c -6.729,-4.325 -13.292,-10.871 -15,-18.96 m 27.839,17.82 -0.42,0.301 -0.601,0.18 m 6.541,-15.061 c -0.041,5.524 -2.191,10.265 -5.52,14.579 M 196.621,313.74 c -0.742,-2.579 -4.752,-3.637 -7.08,-3.54 m 44.339,-3.9 -1.141,0.3 -1.08,0.42 -0.959,0.48 -0.721,0.6"
           id="path2649"
           inkscape:connector-curvature="0" />
        <path
           style="fill:none;stroke:#000000;stroke-width:0.72000003;stroke-linecap:round;stroke-linejoin:round;stroke-miterlimit:10"
           stroke-miterlimit="10"
           d="m 196.621,202.62 0,106.62 m -7.08,-110.22 0,106.68"
           id="path2651"
           inkscape:connector-curvature="0" />
        <path
           style="fill:none;stroke:#000000;stroke-width:1.44000006;stroke-linecap:round;stroke-linejoin:round;stroke-miterlimit:10"
           stroke-miterlimit="10"
           d="m 229.02,195.18 c 2.324,7.093 0.14,15.021 -4.56,20.641 m 0,-0.001 -0.42,0.3 -0.601,0.18 m 0.001,0 -5.28,0.48 -5.279,0.42 m -0.001,0 -0.721,0 -0.539,-0.24 m 0.001,0 c -6.724,-4.343 -13.259,-10.81 -15,-18.9 m 0,0 c -0.898,-2.827 -4.527,-3.474 -7.08,-3.6"
           id="path2653"
           inkscape:connector-curvature="0" />
        <path
           style="fill:none;stroke:#000000;stroke-width:0.72000003;stroke-linecap:round;stroke-linejoin:round;stroke-miterlimit:10"
           d="m 233.88,195.12 0,106.67999"
           id="line2655"
           inkscape:connector-curvature="0" />
        <path
           style="fill:none;stroke:#000000;stroke-width:1.44000006;stroke-linecap:round;stroke-linejoin:round;stroke-miterlimit:10"
           d="M 285.83899,315.48001 285.66,318.23999"
           id="line2657"
           inkscape:connector-curvature="0" />
        <path
           style="fill:none;stroke:#000000;stroke-width:0.72000003;stroke-linecap:round;stroke-linejoin:round;stroke-miterlimit:10"
           stroke-miterlimit="10"
           d="m 212.88,221.76 0,106.68 m 10.56,-107.58 0,106.68 m -11.819,-106.02 0,106.68 m 12.839,-107.82 0,106.68"
           id="path2659"
           inkscape:connector-curvature="0" />
        <path
           style="fill:none;stroke:#000000;stroke-width:1.44000006;stroke-linecap:round;stroke-linejoin:round;stroke-miterlimit:10"
           stroke-miterlimit="10"
           d="m 279.6,176.939 c -2.229,0.843 -3.937,3.243 -1.86,5.28 m 0,0.001 c 5.439,5.438 8.963,12.438 7.92,20.28 m 0,0 -0.239,0.42 -0.481,0.24 m -10e-4,115.74 -4.619,1.5 -4.74,1.439 m -1.32,10e-4 c -9.181,-2.895 -18.8,-7.552 -25.32,-14.82 m 26.64,14.82 -0.659,0.061 -0.66,-0.061 m 11.399,-3.6 -0.239,0.359 -0.481,0.301 m -36,-11.88 c -1.921,-2.05 -6.081,-2.576 -8.7,-1.979"
           id="path2661"
           inkscape:connector-curvature="0" />
        <path
           style="fill:none;stroke:#000000;stroke-width:0.72000003;stroke-linecap:round;stroke-linejoin:round;stroke-miterlimit:10"
           stroke-miterlimit="10"
           d="m 275.58,210.66 0,106.68 m -1.32,-106.68 0,106.68 m -25.32,-121.44 0,106.62 m -8.7,-108.6 0,106.62"
           id="path2663"
           inkscape:connector-curvature="0" />
        <path
           style="fill:none;stroke:#000000;stroke-width:1.44000006;stroke-linecap:round;stroke-linejoin:round;stroke-miterlimit:10"
           stroke-miterlimit="10"
           d="m 335.34,293.88 -0.12,0.24 -0.24,0.24 m -50.041,-91.2 -4.619,1.5 -4.74,1.439 m 0,0.001 -0.659,0.12 -0.66,-0.12 m -0.001,0 c -9.383,-2.916 -18.565,-7.46 -25.32,-14.76 m 0,0 c -1.838,-2.181 -6.075,-2.563 -8.7,-1.979"
           id="path2665"
           inkscape:connector-curvature="0" />
        <path
           style="fill:none;stroke:#000000;stroke-width:0.72000003;stroke-linecap:round;stroke-linejoin:round;stroke-miterlimit:10"
           d="m 279.60001,178.8 0,3.59999"
           id="line2667"
           inkscape:connector-curvature="0" />
        <path
           style="fill:none;stroke:#000000;stroke-width:1.44000006;stroke-linecap:round;stroke-linejoin:round;stroke-miterlimit:10"
           d="m 334.98,294.36 -3.421,2.4 -3.599,2.28"
           id="polyline2669"
           inkscape:connector-curvature="0" />
        <path
           style="fill:none;stroke:#000000;stroke-width:0.72000003;stroke-linecap:round;stroke-linejoin:round;stroke-miterlimit:10"
           stroke-miterlimit="10"
           d="m 284.939,207.72 0,106.68 m 0.721,-107.34 0,106.68"
           id="path2671"
           inkscape:connector-curvature="0" />
        <path
           style="fill:none;stroke:#000000;stroke-width:1.44000006;stroke-linecap:round;stroke-linejoin:round;stroke-miterlimit:10"
           stroke-miterlimit="10"
           d="m 314.4,155.1 c -2.17,1.806 -0.838,4.387 1.44,5.28 m 0,0 c 7.957,4.026 15.405,9.313 19.44,17.521 m 0.001,-0.001 0,0.42 -0.301,0.359 m 0,0.001 -3.421,2.34 -3.599,2.28 m 0,0 -0.602,0.24 -0.658,0 m 0.001,115.74 c -10.932,-0.872 -22.859,-3.773 -32.582,-8.94 m 33.841,8.7 -0.602,0.18 -0.658,0.061 m -32.581,-8.941 c -2.467,-1.23 -5.668,-1.386 -8.279,-0.54"
           id="path2673"
           inkscape:connector-curvature="0" />
        <path
           style="fill:none;stroke:#000000;stroke-width:0.72000003;stroke-linecap:round;stroke-linejoin:round;stroke-miterlimit:10"
           stroke-miterlimit="10"
           d="m 326.701,188.1 0,106.68 m -32.582,-115.56 0,106.62 m 33.841,-97.98 0,106.68 m 7.02,-111.3 0,106.62 m -50.16,-110.76 0,9.601"
           id="path2675"
           inkscape:connector-curvature="0" />
        <path
           style="fill:none;stroke:#000000;stroke-width:1.44000006;stroke-linecap:round;stroke-linejoin:round;stroke-miterlimit:10"
           stroke-miterlimit="10"
           d="m 363.66,267.24 -0.42,0.3 -0.6,0.18 m 4.86,-6.24 -1.859,2.88 -1.98,2.88 m 3.958,-6.06 -0.18,0.301 M 326.701,183.54 c -11.273,-0.932 -22.519,-3.611 -32.582,-8.88 m 0,0 c -2.592,-1.447 -6.65,-1.404 -9.299,-0.12"
           id="path2677"
           inkscape:connector-curvature="0" />
        <path
           style="fill:none;stroke:#000000;stroke-width:0.72000003;stroke-linecap:round;stroke-linejoin:round;stroke-miterlimit:10"
           d="m 314.39999,156.24001 0,2.15998"
           id="line2679"
           inkscape:connector-curvature="0" />
        <path
           style="fill:none;stroke:#000000;stroke-width:1.44000006;stroke-linecap:round;stroke-linejoin:round;stroke-miterlimit:10"
           stroke-miterlimit="10"
           d="m 334.201,127.68 c -1.019,2.593 2.469,4.34 4.5,4.74 m 0,0 c 10.226,2.206 20.404,5.965 28.619,12.6 m 0,0 0.299,0.36 -0.119,0.36 m 0,0 -1.859,2.94 -1.98,2.82 m -10e-4,0 -0.42,0.3 -0.6,0.18 m 0,0 c -11.898,1.492 -24.205,0.802 -35.88,-1.92 m 0,0 c -2.881,-0.66 -6.646,-0.416 -8.88,1.74 m 44.76,115.92 c -9.172,1.071 -18.154,0.988 -27.3,-0.3"
           id="path2681"
           inkscape:connector-curvature="0" />
        <path
           style="fill:none;stroke:#000000;stroke-width:0.72000003;stroke-linecap:round;stroke-linejoin:round;stroke-miterlimit:10"
           stroke-miterlimit="10"
           d="m 362.64,156.54 0,106.68 m -35.88,-108.78 0,8.58 m -8.88,-8.76 0,4.8 m 45.78,-3 0,106.68 m 3.84,-112.44 0,106.68 m -33.299,-128.82 0,0.84"
           id="path2683"
           inkscape:connector-curvature="0" />
        <path
           style="fill:none;stroke:#000000;stroke-width:1.44000006;stroke-linecap:round;stroke-linejoin:round;stroke-miterlimit:10"
           stroke-miterlimit="10"
           d="m 336.539,97.98 c 0.729,2.71 4.623,3.601 7.021,3.6 m 34.141,129.36 -3.301,1.14 -3.361,0.96 -3.42,0.84 m 10.742,-3.54 -0.242,0.36 -0.418,0.24 m 0.899,-6.24 -0.239,5.64"
           id="path2685"
           inkscape:connector-curvature="0" />
        <path
           style="fill:none;stroke:#000000;stroke-width:0.72000003;stroke-linecap:round;stroke-linejoin:round;stroke-miterlimit:10"
           stroke-miterlimit="10"
           d="m 342.781,123.78 0,6.36 m -7.261,-4.38 0,3.48"
           id="path2687"
           inkscape:connector-curvature="0" />
        <path
           style="fill:none;stroke:#000000;stroke-width:1.44000006;stroke-linecap:round;stroke-linejoin:round;stroke-miterlimit:10"
           stroke-miterlimit="10"
           d="m 343.559,101.58 c 11.726,-0.037 23.495,1.928 34.44,6.18 m 10e-4,0 0.42,0.3 0.181,0.36 m -10e-4,0 -0.062,3.06 -0.178,3.12 m 10e-4,0 -0.242,0.36 -0.418,0.3 m 0,0 c -11.566,3.978 -22.713,5.481 -34.92,5.28 m 0,0 c -2.352,-0.17 -6.449,0.781 -7.261,3.36"
           id="path2689"
           inkscape:connector-curvature="0" />
        <path
           style="fill:none;stroke:#000000;stroke-width:1.44000006;stroke-linecap:round;stroke-linejoin:round;stroke-miterlimit:10"
           stroke-miterlimit="10"
           d="m 321.179,69.66 c 2.111,2.142 5.907,2.537 8.701,1.98 m 0,0 c 12.027,-2.494 23.848,-2.728 36,-1.02 m 0,0 0.6,0.24 0.42,0.3"
           id="path2693"
           inkscape:connector-curvature="0" />
        <path
           style="fill:none;stroke:#000000;stroke-width:0.72000003;stroke-linecap:round;stroke-linejoin:round;stroke-miterlimit:10"
           stroke-miterlimit="10"
           d="m 340.38,92.52 0,5.7 m 29.64,-15.9 0,18.3"
           id="path2695"
           inkscape:connector-curvature="0" />
        <path
           style="fill:none;stroke:#000000;stroke-width:1.44000006;stroke-linecap:round;stroke-linejoin:round;stroke-miterlimit:10"
           stroke-miterlimit="10"
           d="m 289.979,46.08 c 2.693,1.361 6.586,1.449 9.302,0.12 m 0,0 c 10.2,-4.9 22.031,-7.457 33.299,-8.04 m 0,0 0.66,0.06 0.541,0.24 m 0,0 3.42,2.34 3.238,2.46 m 0,0 0.301,0.36 -0.061,0.36 m 26.221,27.18 1.74,2.88 1.62,2.94 m 0,0 0.06,0.42 -0.3,0.36 m 0,0 c -8.719,6.309 -19.138,9.865 -29.64,11.82 m 0,0 c -2.212,0.402 -5.444,1.825 -4.86,4.62"
           id="path2697"
           inkscape:connector-curvature="0" />
        <path
           style="fill:none;stroke:#000000;stroke-width:0.72000003;stroke-linecap:round;stroke-linejoin:round;stroke-miterlimit:10"
           stroke-miterlimit="10"
           d="m 319.799,62.82 0,3.54 m 20.88,-17.82 0,16.98"
           id="path2699"
           inkscape:connector-curvature="0" />
        <path
           style="fill:none;stroke:#000000;stroke-width:1.44000006;stroke-linecap:round;stroke-linejoin:round;stroke-miterlimit:10"
           stroke-miterlimit="10"
           d="m 246.66,30.06 c 2.686,0.588 6.789,0.356 8.82,-1.74 m 0,0 C 262.6,21.301 272.466,16.845 282,14.22 m 0,0 0.66,-0.06 0.66,0.06 m 0,0 4.561,1.56 4.559,1.68 m -10e-4,0 0.42,0.3 0.241,0.36 m 0,0 c 0.331,7.995 -3.731,14.838 -9.541,20.04 m 0,0 c -2.173,2.036 -0.978,4.262 1.38,5.34 m 55.74,0.48 c -4.338,7.768 -12.895,13.512 -20.88,16.98 m 0,0 c -2.369,1.184 -3.845,2.981 -1.8,5.34"
           id="path2701"
           inkscape:connector-curvature="0" />
        <path
           style="fill:none;stroke:#000000;stroke-width:0.72000003;stroke-linecap:round;stroke-linejoin:round;stroke-miterlimit:10"
           d="m 283.55899,39.360001 0,2.099998"
           id="line2703"
           inkscape:connector-curvature="0" />
        <path
           style="fill:none;stroke:#000000;stroke-width:1.44000006;stroke-linecap:round;stroke-linejoin:round;stroke-miterlimit:10"
           stroke-miterlimit="10"
           d="m 196.44,23.58 c 2.659,-0.051 6.179,-0.628 7.32,-3.42"
           id="path2705"
           inkscape:connector-curvature="0" />
        <path
           style="fill:none;stroke:#000000;stroke-width:0.72000003;stroke-linecap:round;stroke-linejoin:round;stroke-miterlimit:10"
           d="m 235.92,24.42 0,0.84"
           id="line2707"
           inkscape:connector-curvature="0" />
        <path
           style="fill:none;stroke:#000000;stroke-width:1.44000006;stroke-linecap:round;stroke-linejoin:round;stroke-miterlimit:10"
           stroke-miterlimit="10"
           d="m 155.94,1.68 5.28,-0.54 5.28,-0.42 m 0,0 0.66,0.06 0.54,0.24 m 0.001,0 c 6.795,4.244 13.239,10.848 15.06,18.9 m -0.001,0 c 0.511,2.502 4.827,3.681 7.02,3.54 m -44.34,3.9 c 2.013,-0.227 5.71,-2.007 4.86,-4.62 m 0,0 C 147.983,15.199 150.22,8.218 154.86,2.1 m 0,0 0.42,-0.3 0.66,-0.12 m 47.82,18.48 c 2.45,-8.051 9.481,-14.308 16.5,-18.48 m 0,0 0.601,-0.18 0.659,-0.06 m 0,0 5.28,0.6 5.22,0.66 m 0,0 0.601,0.18 0.359,0.3 m 0,0 c 4.32,6.045 5.797,13.77 2.94,20.76 m 0,0 c -0.917,2.652 2.407,4.295 4.5,4.68"
           id="path2709"
           inkscape:connector-curvature="0" />
        <path
           style="fill:none;stroke:#000000;stroke-width:0.72000003;stroke-linecap:round;stroke-linejoin:round;stroke-miterlimit:10"
           d="m 150.3,23.16 0,0.66"
           id="line2711"
           inkscape:connector-curvature="0" />
        <path
           style="fill:none;stroke:#000000;stroke-width:1.44000006;stroke-linecap:round;stroke-linejoin:round;stroke-miterlimit:10"
           stroke-miterlimit="10"
           d="m 105.06,11.82 c 9.133,2.855 18.863,7.572 25.32,14.82 m 0,0 c 2.25,2.194 5.807,2.546 8.76,1.98 m -44.76,-13.8 4.68,-1.56 4.68,-1.44 m 0,0 0.66,-0.06 0.66,0.06 m -5.28,29.22 c 2.301,-1.012 3.86,-3.113 1.801,-5.28 m 0,0 C 96.176,30.217 92.595,23.341 93.661,15.42 m 0,0 0.239,-0.36 0.48,-0.24"
           id="path2713"
           inkscape:connector-curvature="0" />
        <path
           style="fill:none;stroke:#000000;stroke-width:0.72000003;stroke-linecap:round;stroke-linejoin:round;stroke-miterlimit:10"
           d="m 101.581,36.84 0,1.98"
           id="line2715"
           inkscape:connector-curvature="0" />
        <path
           style="fill:none;stroke:#000000;stroke-width:1.44000006;stroke-linecap:round;stroke-linejoin:round;stroke-miterlimit:10"
           stroke-miterlimit="10"
           d="m 64.92,62.88 c 2.172,-1.979 0.895,-4.248 -1.38,-5.34 m 10e-4,0 c -7.505,-3.465 -15.9,-9.876 -19.5,-17.52 m 0,0 0,-0.36 0.3,-0.36 m -10e-4,0 3.479,-2.34 3.54,-2.28 m 10e-4,0 0.601,-0.24 0.66,-0.06 m 0,0 c 11.075,1.001 22.712,3.68 32.58,8.94 m 0,0 c 2.824,1.377 6.501,1.435 9.359,0.12"
           id="path2717"
           inkscape:connector-curvature="0" />
        <path
           style="fill:none;stroke:#000000;stroke-width:0.72000003;stroke-linecap:round;stroke-linejoin:round;stroke-miterlimit:10"
           stroke-miterlimit="10"
           d="m 63.541,59.28 0,3.24 m -19.5,-17.94 0,17.16"
           id="path2719"
           inkscape:connector-curvature="0" />
      </g>
    </g>
  </g>
</svg>
