<?xml version="1.0" encoding="UTF-8" standalone="no"?>
<!-- Created with Inkscape (http://www.inkscape.org/) -->

<svg
   xmlns:dc="http://purl.org/dc/elements/1.1/"
   xmlns:cc="http://creativecommons.org/ns#"
   xmlns:rdf="http://www.w3.org/1999/02/22-rdf-syntax-ns#"
   xmlns:svg="http://www.w3.org/2000/svg"
   xmlns="http://www.w3.org/2000/svg"
   xmlns:sodipodi="http://sodipodi.sourceforge.net/DTD/sodipodi-0.dtd"
   xmlns:inkscape="http://www.inkscape.org/namespaces/inkscape"
   width="744.09448"
   height="1052.3622"
   id="svg2"
   version="1.1"
   inkscape:version="0.48.1 "
   sodipodi:docname="Soda&amp;Candy_001.svg">
  <defs
     id="defs4">
    <inkscape:perspective
       sodipodi:type="inkscape:persp3d"
       inkscape:vp_x="0 : 0.5 : 1"
       inkscape:vp_y="0 : 1000 : 0"
       inkscape:vp_z="1 : 0.5 : 1"
       inkscape:persp3d-origin="0.5 : 0.33333333 : 1"
       id="perspective2884" />
    <inkscape:perspective
       id="perspective10"
       inkscape:persp3d-origin="372.04724 : 350.78739 : 1"
       inkscape:vp_z="744.09448 : 526.18109 : 1"
       inkscape:vp_y="0 : 1000 : 0"
       inkscape:vp_x="0 : 526.18109 : 1"
       sodipodi:type="inkscape:persp3d" />
    <inkscape:perspective
       id="perspective4876"
       inkscape:persp3d-origin="279.81235 : 124.43199 : 1"
       inkscape:vp_z="559.62469 : 186.64798 : 1"
       inkscape:vp_y="0 : 1000 : 0"
       inkscape:vp_x="0 : 186.64798 : 1"
       sodipodi:type="inkscape:persp3d" />
  </defs>
  <sodipodi:namedview
     id="base"
     pagecolor="#ffffff"
     bordercolor="#666666"
     borderopacity="1.0"
     inkscape:pageopacity="0.0"
     inkscape:pageshadow="2"
     inkscape:zoom="1.4"
     inkscape:cx="262.04672"
     inkscape:cy="306.9454"
     inkscape:document-units="px"
     inkscape:current-layer="layer1"
     showgrid="false"
     inkscape:window-width="1600"
     inkscape:window-height="1138"
     inkscape:window-x="-8"
     inkscape:window-y="-8"
     inkscape:window-maximized="1" />
  <metadata
     id="metadata7">
    <rdf:RDF>
      <cc:Work
         rdf:about="">
        <dc:format>image/svg+xml</dc:format>
        <dc:type
           rdf:resource="http://purl.org/dc/dcmitype/StillImage" />
        <dc:title></dc:title>
      </cc:Work>
    </rdf:RDF>
  </metadata>
  <g
     inkscape:label="Ebene 1"
     inkscape:groupmode="layer"
     id="layer1">
    <flowRoot
       xml:space="preserve"
       id="flowRoot2985"
       style="font-size:144px;font-style:normal;font-variant:normal;font-weight:800;font-stretch:normal;text-align:start;line-height:125%;letter-spacing:0px;word-spacing:0px;writing-mode:lr-tb;text-anchor:start;fill:none;stroke:#000000;stroke-width:1.25;stroke-miterlimit:4;stroke-opacity:1;stroke-dasharray:none;font-family:Rockwell Extra Bold;-inkscape-font-specification:'Rockwell Extra Bold, Ultra-Bold'"
       transform="matrix(0.84284184,0,0,0.84284184,1.8037286,334.58266)"><flowRegion
         id="flowRegion2987"><rect
           id="rect2989"
           width="734.42725"
           height="443.42926"
           x="57.949963"
           y="130.48546"
           style="font-size:144px;font-style:normal;font-variant:normal;font-weight:800;font-stretch:normal;text-align:start;line-height:125%;writing-mode:lr-tb;text-anchor:start;fill:none;stroke:#000000;stroke-width:1.25;stroke-miterlimit:4;stroke-opacity:1;stroke-dasharray:none;font-family:Rockwell Extra Bold;-inkscape-font-specification:'Rockwell Extra Bold, Ultra-Bold'"
           ry="0" /></flowRegion><flowPara
         id="flowPara2991"
         style="font-size:144px;font-style:normal;font-variant:normal;font-weight:800;font-stretch:normal;text-align:start;line-height:125%;writing-mode:lr-tb;text-anchor:start;fill:none;stroke:#000000;stroke-width:1.25;stroke-miterlimit:4;stroke-opacity:1;stroke-dasharray:none;font-family:Rockwell Extra Bold;-inkscape-font-specification:'Rockwell Extra Bold, Ultra-Bold'">Soda     &amp;</flowPara><flowPara
         id="flowPara2993"
         style="font-size:144px;font-style:normal;font-variant:normal;font-weight:800;font-stretch:normal;text-align:start;line-height:125%;writing-mode:lr-tb;text-anchor:start;fill:none;stroke:#000000;stroke-width:1.25;stroke-miterlimit:4;stroke-opacity:1;stroke-dasharray:none;font-family:Rockwell Extra Bold;-inkscape-font-specification:'Rockwell Extra Bold, Ultra-Bold'">Candy</flowPara></flowRoot>    <g
       transform="matrix(0.84284184,0,0,0.84284184,183.76216,-131.04082)"
       id="layer1-9"
       inkscape:label="Layer 1"
       style="fill:none;stroke:#000000;stroke-width:1.25;stroke-miterlimit:4;stroke-opacity:1;stroke-dasharray:none">
      <path
         sodipodi:nodetypes="csssssssssssssssssssssssssssssssssccsssccssscccssssccscccsccccscccccssssccsssssccsssscccsssccssccssccsssc"
         style="fill:none;stroke:#000000;stroke-width:1.25;stroke-miterlimit:4;stroke-opacity:1;stroke-dasharray:none"
         d="m 335.37626,879.8979 c -25.36981,-2.62283 -44.67857,-9.75826 -51.85038,-19.16098 -7.0787,-9.28066 -5.55722,-31.00326 4.36396,-62.30539 5.31899,-16.78185 6.39423,-25.46825 5.68577,-45.93281 -0.50631,-14.62503 -1.52945,-22.65856 -7.20174,-56.54685 -5.49771,-32.8453 -6.5114,-40.67931 -6.01692,-46.5 0.32707,-3.85 0.66234,-8.125 0.74505,-9.5 0.0827,-1.375 -0.44875,-7.9 -1.18101,-14.5 -2.28167,-20.56494 -0.23234,-49.56264 5.15907,-73 1.15826,-5.03513 2.15731,-13.18514 2.26778,-18.5 0.17119,-8.23555 0.66751,-10.6979 3.72892,-18.5 22.2655,-56.74437 24.13707,-62.16142 27.81246,-80.5 3.12171,-15.57595 5.57447,-38.99267 4.66882,-44.57355 -0.30571,-1.88385 -1.9958,-6.35018 -3.75577,-9.92518 -2.99325,-6.08015 -3.15285,-6.93601 -2.47103,-13.25063 0.78986,-7.31511 0.78828,-8.05591 -0.041,-19.27536 -0.49165,-6.65142 -0.30946,-7.8384 1.56987,-10.22757 2.87749,-3.65814 9.53552,-5.47128 24.86453,-6.77119 19.26828,-1.63397 42.51408,0.59395 48.73642,4.67098 4.31198,2.82532 5.75892,12.20084 2.92846,18.97508 -1.17462,2.81127 -1.23976,4.01174 -0.31026,5.71788 0.64708,1.18775 1.18378,5.15145 1.19265,8.80823 0.0135,5.56249 -0.5076,7.64786 -3.18974,12.76462 -2.87104,5.47709 -3.20591,6.99691 -3.20591,14.55009 0,10.33683 2.23545,27.88366 5.55588,43.61005 2.47702,11.7318 11.65504,37.9174 22.96678,65.52596 6.70842,16.37326 8.92844,25.1073 7.60245,29.90965 -0.70663,2.55919 -0.46444,5.27241 0.97066,10.87442 5.91965,23.10773 8.68186,53.65316 6.75057,74.64986 -0.68127,7.40666 -1.15673,15.71666 -1.05658,18.46666 0.65387,17.95402 0.25994,21.92448 -5.6057,56.5 -10.12175,59.66356 -10.28832,75.97106 -1.066,104.3629 7.19431,22.1484 10.12994,47.32112 6.5248,55.94944 -4.21254,10.08202 -19.13985,17.90459 -41.56732,21.78312 -13.4885,2.33266 -41.79533,3.27523 -55.57554,1.85057 z m -2.5,-15.94603 c 1.1,-1.1 2,-2.38788 2,-2.86195 0,-0.78569 -9.49533,-3.13805 -12.66678,-3.13805 -1.80255,0 -1.68443,3.05357 0.22348,5.77749 2.03506,2.90545 7.64092,3.02489 10.4433,0.22251 z m 0.61047,-34.76531 c 2.84641,-1.8832 6.14418,-11.73755 8.94678,-26.73469 2.85636,-15.28481 2.25934,-32.5715 -3.98376,-115.34982 -1.34189,-17.79241 -2.58238,-32.48552 -2.75665,-32.65137 -0.17426,-0.16585 -3.35356,-0.62327 -7.0651,-1.01649 l -6.74826,-0.71494 0.50568,2.86631 c 0.6808,3.85882 6.04724,62.08303 7.96026,86.36631 0.84491,10.725 1.59302,25.125 1.66248,32 0.13181,13.04659 -0.52181,16.7038 -6.59947,36.92623 -2.94378,9.79491 -3.19268,14.68673 -0.87744,17.24503 1.66349,1.83813 6.85308,2.45438 8.95548,1.06343 z m 5.75992,-275.53097 c 0.47871,-3.18796 0.61809,-6.04858 0.30973,-6.35694 -0.30836,-0.30835 -4.34406,-0.79669 -8.96821,-1.08518 l -8.40756,-0.52453 -0.64117,3.88147 c -1.31422,7.95592 -0.9781,9.21361 2.58682,9.67926 1.7875,0.23349 5.725,0.3745 8.75,0.31336 l 5.5,-0.11116 0.87039,-5.79628 z m 1.55712,-19.01307 c 1.40527,-3.69614 5.04845,-49.9188 8.56677,-108.69065 0.83959,-14.025 1.76235,-27.6375 2.05057,-30.25 l 0.52404,-4.75 -3.90612,0 -3.90611,0 -0.69236,13.25 c -0.91563,17.5229 -3.15596,39.33348 -5.62377,54.75 -4.07194,25.43752 -6.9906,41.94162 -10.40972,58.86367 -1.92959,9.55001 -3.26184,17.76251 -2.96056,18.25 0.30128,0.48748 3.90736,0.88633 8.01352,0.88633 6.87896,0 7.53474,-0.18151 8.34374,-2.30935 z m 12.54681,-163.64099 c 0.83912,-1.62269 1.52568,-4.49144 1.52568,-6.375 0,-3.03562 -0.355,-3.49566 -3.125,-4.04966 -4.68218,-0.93644 -8.67654,-0.75514 -9.40712,0.42698 -1.16306,1.88186 -0.81718,9.82222 0.49682,11.40549 0.74818,0.9015 2.88093,1.54253 5.13206,1.54253 3.25404,0 4.08867,-0.45791 5.37756,-2.95034 z m 1.79537,-59.53225 C 351.54,309.90168 347.8857,304.68812 347.88,301.103 c -0.006,-3.77156 3.03513,-9.11987 6.08145,-10.69518 1.54852,-0.80077 4.53771,-1.45595 6.64264,-1.45595 12.35586,0 15.49466,16.69662 4.23353,22.51998 -3.50788,1.814 -5.51426,1.81347 -9.69167,-0.003 l 0,4.3e-4 z m -17.71217,-32.71487 c -2.41289,-0.66849 -5.72143,-2.87895 -8.52768,-5.6974 -8.98458,-9.02366 -9.30973,-20.5067 -0.8408,-29.6944 13.36227,-14.49635 37.11948,-5.16178 37.13081,14.58926 0.008,14.44318 -13.68399,24.70292 -27.76233,20.80254 z m 3.61374,-24.45753 c 5.26396,-4.76382 -1.78792,-13.40133 -7.4254,-9.09501 -2.79947,2.13845 -3.19908,6.29678 -0.83252,8.66334 2.51153,2.51153 5.7714,2.68194 8.25792,0.43167 z m 20.14411,-24.35199 c -7.52283,-3.03102 -4.53651,-15.99302 3.68463,-15.99302 8.20754,0 11.18695,11.78348 3.92848,15.53698 -3.18161,1.64528 -4.46994,1.72245 -7.61311,0.45604 z m -8.37595,-24.0536 c -2.78216,-2.78216 -2.22047,-6.93996 1.19535,-8.84839 2.35984,-1.31845 2.90765,-1.29325 5.25,0.24151 3.37878,2.21386 3.57985,6.87841 0.39272,9.11076 -2.95263,2.0681 -4.37057,1.96362 -6.83807,-0.50388 z"
         id="path2904"
         inkscape:connector-curvature="0" />
    </g>
    <flowRoot
       xml:space="preserve"
       id="flowRoot3116"
       style="font-size:40px;font-style:normal;font-weight:normal;line-height:125%;letter-spacing:0px;word-spacing:0px;fill:none;stroke:#000000;stroke-width:1.25;stroke-linecap:butt;stroke-linejoin:miter;stroke-miterlimit:4;stroke-opacity:1;stroke-dasharray:none;font-family:Sans"
       transform="matrix(1.0019904,0,0,1.0019904,-332.01898,-248.16006)"><flowRegion
         id="flowRegion3118"><rect
           id="rect3120"
           width="276.7818"
           height="121.21831"
           x="322.23865"
           y="596.78339"
           style="fill:none;stroke:#000000;stroke-width:1.25;stroke-miterlimit:4;stroke-opacity:1;stroke-dasharray:none" /></flowRegion><flowPara
         id="flowPara3122" /></flowRoot>    <g
       transform="matrix(1.5453213,0,0,1.5453213,421.30601,-48.868323)"
       id="layer1-4"
       inkscape:label="Layer 1"
       style="fill:none;stroke:#000000;stroke-width:0.68176907;stroke-miterlimit:4;stroke-opacity:1;stroke-dasharray:none">
      <path
         style="fill:none;stroke:#000000;stroke-width:0.68176907;stroke-linecap:butt;stroke-linejoin:round;stroke-miterlimit:4;stroke-opacity:1;stroke-dasharray:none;stroke-dashoffset:0;marker:none;visibility:visible;display:inline;overflow:visible;enable-background:accumulate"
         d="m 157.30201,429.82171 c 10.04693,10.99226 5.38677,31.62566 -10.4021,46.05669 -15.78889,14.43103 -36.75709,17.22192 -46.804,6.22966 -10.046928,-10.99226 -5.386782,-31.62567 10.40209,-46.0567 15.72194,-14.36984 36.57331,-17.21141 46.68214,-6.36173 l 0.12187,0.13208 z"
         id="path6298"
         sodipodi:nodetypes="cssscc"
         inkscape:connector-curvature="0" />
      <path
         sodipodi:nodetypes="ccccc"
         id="path6296"
         d="m 100.63084,448.65206 c 15.9719,5.8549 28.87488,16.17098 34.76126,36.6868 l 20.79189,-21.5026 c -4.54807,-18.4264 -16.10901,-30.04132 -34.65501,-34.87182 l -20.89814,19.68762 z"
         style="fill:none;stroke:#000000;stroke-width:0.68176907;stroke-miterlimit:4;stroke-opacity:1;stroke-dasharray:none"
         inkscape:connector-curvature="0" />
      <path
         sodipodi:nodetypes="cssscc"
         id="path5784"
         d="m 157.52376,429.78071 c 10.04692,10.99226 5.38677,31.62566 -10.4021,46.05669 -15.7889,14.43103 -36.75709,17.22192 -46.804,6.22966 -10.046929,-10.99226 -5.386783,-31.62567 10.40209,-46.0567 15.72194,-14.36984 36.57331,-17.21141 46.68214,-6.36173 l 0.12187,0.13208 z"
         style="fill:none;stroke:#000000;stroke-width:0.68176907;stroke-linecap:butt;stroke-linejoin:round;stroke-miterlimit:4;stroke-opacity:1;stroke-dasharray:none;stroke-dashoffset:0;marker:none;visibility:visible;display:inline;overflow:visible;enable-background:accumulate"
         inkscape:connector-curvature="0" />
      <path
         sodipodi:nodetypes="ccssscc"
         id="path6310"
         d="m 158.24759,427.32368 c 10.00536,4.39404 25.15384,2.17377 30.20526,-3.53537 -2.58067,-0.54177 -5.01624,-3.15322 -6.51598,-6.16988 -1.57402,-3.16613 -0.14455,-7.28817 -2.81901,-9.73579 -3.05371,-2.79472 -7.30242,-1.25993 -10.53955,-2.93893 -2.84852,-1.47744 -3.76777,-4.59803 -6.71877,-8.06097 -7.07088,9.55408 -6.45085,21.00731 -3.61195,30.44094 z"
         style="fill:none;stroke:#000000;stroke-width:0.68176907;stroke-linecap:round;stroke-linejoin:round;stroke-miterlimit:4;stroke-opacity:1;stroke-dasharray:none"
         inkscape:connector-curvature="0" />
      <path
         style="fill:none;stroke:#000000;stroke-width:0.68176907;stroke-linecap:round;stroke-linejoin:round;stroke-miterlimit:4;stroke-opacity:1;stroke-dasharray:none"
         d="m 102.02676,483.87353 c -9.978253,-4.45526 -25.140052,-2.32784 -30.226344,3.35025 2.577301,0.55757 4.996812,3.18388 6.478043,6.20968 1.554601,3.17571 0.09991,7.28892 2.75932,9.75288 3.036527,2.81338 7.294562,1.30465 10.521346,3.00345 2.839409,1.49486 3.739525,4.62102 6.669253,8.10197 7.129272,-9.51057 6.579422,-20.96738 3.798382,-30.41823 z"
         id="path6312"
         sodipodi:nodetypes="ccssscc"
         inkscape:connector-curvature="0" />
    </g>
    <flowRoot
       xml:space="preserve"
       id="flowRoot2985-5"
       style="font-size:144px;font-style:normal;font-variant:normal;font-weight:800;font-stretch:normal;text-align:start;line-height:125%;letter-spacing:0px;word-spacing:0px;writing-mode:lr-tb;text-anchor:start;fill:none;stroke:#000000;stroke-width:1.25;stroke-miterlimit:4;stroke-opacity:1;stroke-dasharray:none;font-family:Rockwell Extra Bold;-inkscape-font-specification:'Rockwell Extra Bold, Ultra-Bold'"
       transform="matrix(0.83186398,0,0,0.83186398,-2.06359,705.27796)"><flowRegion
         id="flowRegion2987-5"><rect
           id="rect2989-1"
           width="734.42725"
           height="443.42926"
           x="57.949963"
           y="130.48546"
           style="font-size:144px;font-style:normal;font-variant:normal;font-weight:800;font-stretch:normal;text-align:start;line-height:125%;writing-mode:lr-tb;text-anchor:start;fill:none;stroke:#000000;stroke-width:1.25;stroke-miterlimit:4;stroke-opacity:1;stroke-dasharray:none;font-family:Rockwell Extra Bold;-inkscape-font-specification:'Rockwell Extra Bold, Ultra-Bold'"
           ry="0" /></flowRegion><flowPara
         id="flowPara2991-7"
         style="font-size:67.31869507px;font-style:normal;font-variant:normal;font-weight:800;font-stretch:normal;text-align:start;line-height:125%;writing-mode:lr-tb;text-anchor:start;fill:none;stroke:#000000;stroke-width:1.25;stroke-miterlimit:4;stroke-opacity:1;stroke-dasharray:none;font-family:Rockwell Extra Bold;-inkscape-font-specification:'Rockwell Extra Bold, Ultra-Bold'">Soda</flowPara><flowPara
         id="flowPara2993-1"
         style="font-size:67.31869507px;font-style:normal;font-variant:normal;font-weight:800;font-stretch:normal;text-align:start;line-height:125%;writing-mode:lr-tb;text-anchor:start;fill:none;stroke:#000000;stroke-width:1.25;stroke-miterlimit:4;stroke-opacity:1;stroke-dasharray:none;font-family:Rockwell Extra Bold;-inkscape-font-specification:'Rockwell Extra Bold, Ultra-Bold'">Candy</flowPara><flowPara
         style="font-size:67.31869507px;font-style:normal;font-variant:normal;font-weight:800;font-stretch:normal;text-align:start;line-height:125%;writing-mode:lr-tb;text-anchor:start;fill:none;stroke:#000000;stroke-width:1.25;stroke-miterlimit:4;stroke-opacity:1;stroke-dasharray:none;font-family:Rockwell Extra Bold;-inkscape-font-specification:'Rockwell Extra Bold, Ultra-Bold'"
         id="flowPara3983">Club Mate</flowPara></flowRoot>    <flowRoot
       xml:space="preserve"
       id="flowRoot2985-5-1"
       style="font-size:144px;font-style:normal;font-variant:normal;font-weight:800;font-stretch:normal;text-align:start;line-height:125%;letter-spacing:0px;word-spacing:0px;writing-mode:lr-tb;text-anchor:start;fill:none;stroke:#000000;stroke-width:1.25;stroke-miterlimit:4;stroke-opacity:1;stroke-dasharray:none;font-family:Rockwell Extra Bold;-inkscape-font-specification:'Rockwell Extra Bold, Ultra-Bold'"
       transform="matrix(0.83186398,0,0,0.83186398,45.94524,705.5514)"><flowRegion
         id="flowRegion2987-5-5"><rect
           id="rect2989-1-2"
           width="741.29651"
           height="257.95938"
           x="57.949963"
           y="130.48546"
           style="font-size:144px;font-style:normal;font-variant:normal;font-weight:800;font-stretch:normal;text-align:start;line-height:125%;writing-mode:lr-tb;text-anchor:start;fill:none;stroke:#000000;stroke-width:1.25;stroke-miterlimit:4;stroke-opacity:1;stroke-dasharray:none;font-family:Rockwell Extra Bold;-inkscape-font-specification:'Rockwell Extra Bold, Ultra-Bold'"
           ry="0" /></flowRegion><flowPara
         id="flowPara2991-7-7"
         style="font-size:67.31869507px;font-style:normal;font-variant:normal;font-weight:800;font-stretch:normal;text-align:end;line-height:125%;writing-mode:lr-tb;text-anchor:end;fill:none;stroke:#000000;stroke-width:1.25;stroke-miterlimit:4;stroke-opacity:1;stroke-dasharray:none;font-family:Rockwell Extra Bold;-inkscape-font-specification:'Rockwell Extra Bold, Ultra-Bold'">............. 1,20€</flowPara><flowPara
         id="flowPara2993-1-1"
         style="font-size:67.31869507px;font-style:normal;font-variant:normal;font-weight:800;font-stretch:normal;text-align:end;line-height:125%;writing-mode:lr-tb;text-anchor:end;fill:none;stroke:#000000;stroke-width:1.25;stroke-miterlimit:4;stroke-opacity:1;stroke-dasharray:none;font-family:Rockwell Extra Bold;-inkscape-font-specification:'Rockwell Extra Bold, Ultra-Bold'">........... 0,50€</flowPara><flowPara
         style="font-size:67.31869507px;font-style:normal;font-variant:normal;font-weight:800;font-stretch:normal;text-align:end;line-height:125%;writing-mode:lr-tb;text-anchor:end;fill:none;stroke:#000000;stroke-width:1.25;stroke-miterlimit:4;stroke-opacity:1;stroke-dasharray:none;font-family:Rockwell Extra Bold;-inkscape-font-specification:'Rockwell Extra Bold, Ultra-Bold'"
         id="flowPara3983-4">..... 1,50€</flowPara></flowRoot>  </g>
</svg>
