<?xml version="1.0" encoding="UTF-8" standalone="no"?>
<!-- Created with Inkscape (http://www.inkscape.org/) -->

<svg
   xmlns:dc="http://purl.org/dc/elements/1.1/"
   xmlns:cc="http://creativecommons.org/ns#"
   xmlns:rdf="http://www.w3.org/1999/02/22-rdf-syntax-ns#"
   xmlns:svg="http://www.w3.org/2000/svg"
   xmlns="http://www.w3.org/2000/svg"
   xmlns:sodipodi="http://sodipodi.sourceforge.net/DTD/sodipodi-0.dtd"
   xmlns:inkscape="http://www.inkscape.org/namespaces/inkscape"
   width="744.09448"
   height="1052.3622"
   id="svg2"
   version="1.1"
   inkscape:version="0.48.1 "
   sodipodi:docname="Soda&amp;Candy_004.svg">
  <defs
     id="defs4">
    <inkscape:perspective
       sodipodi:type="inkscape:persp3d"
       inkscape:vp_x="0 : 0.5 : 1"
       inkscape:vp_y="0 : 1000 : 0"
       inkscape:vp_z="1 : 0.5 : 1"
       inkscape:persp3d-origin="0.5 : 0.33333333 : 1"
       id="perspective2884" />
    <inkscape:perspective
       id="perspective10"
       inkscape:persp3d-origin="372.04724 : 350.78739 : 1"
       inkscape:vp_z="744.09448 : 526.18109 : 1"
       inkscape:vp_y="0 : 1000 : 0"
       inkscape:vp_x="0 : 526.18109 : 1"
       sodipodi:type="inkscape:persp3d" />
    <inkscape:perspective
       id="perspective4876"
       inkscape:persp3d-origin="279.81235 : 124.43199 : 1"
       inkscape:vp_z="559.62469 : 186.64798 : 1"
       inkscape:vp_y="0 : 1000 : 0"
       inkscape:vp_x="0 : 186.64798 : 1"
       sodipodi:type="inkscape:persp3d" />
  </defs>
  <sodipodi:namedview
     id="base"
     pagecolor="#ffffff"
     bordercolor="#666666"
     borderopacity="1.0"
     inkscape:pageopacity="0.0"
     inkscape:pageshadow="2"
     inkscape:zoom="0.49497475"
     inkscape:cx="230.47942"
     inkscape:cy="547.03695"
     inkscape:document-units="px"
     inkscape:current-layer="layer1"
     showgrid="false"
     inkscape:window-width="1024"
     inkscape:window-height="742"
     inkscape:window-x="-4"
     inkscape:window-y="-4"
     inkscape:window-maximized="1" />
  <metadata
     id="metadata7">
    <rdf:RDF>
      <cc:Work
         rdf:about="">
        <dc:format>image/svg+xml</dc:format>
        <dc:type
           rdf:resource="http://purl.org/dc/dcmitype/StillImage" />
        <dc:title></dc:title>
      </cc:Work>
    </rdf:RDF>
  </metadata>
  <g
     inkscape:label="Ebene 1"
     inkscape:groupmode="layer"
     id="layer1">
    <g
       transform="matrix(0.89062639,0,0,0.89062639,-30.520234,351.64071)"
       style="font-size:144px;font-style:normal;font-variant:normal;font-weight:800;font-stretch:normal;text-align:start;line-height:125%;letter-spacing:0px;word-spacing:0px;writing-mode:lr-tb;text-anchor:start;fill:none;stroke:#000000;stroke-width:1.25;stroke-miterlimit:4;stroke-opacity:1;font-family:Rockwell Extra Bold;-inkscape-font-specification:'Rockwell Extra Bold, Ultra-Bold'"
       id="flowRoot2985">
      <path
         d="m 86.484375,247.10584 -22.007813,0 0,-31.35938 22.007813,0 c 2.624969,8.53128 7.570276,12.7969 14.835935,12.79688 5.24995,2e-5 7.87495,-2.10935 7.875,-6.32813 -5e-5,-2.20309 -0.91411,-4.03122 -2.74218,-5.48437 -1.9688,-1.59372 -6.11723,-3.79684 -12.445318,-6.60938 -7.968778,-3.60933 -13.828147,-6.72651 -17.578125,-9.35156 -3.515639,-2.39057 -6.515636,-5.69526 -9,-9.91406 -2.484382,-4.17182 -3.726568,-8.789 -3.726562,-13.85156 -6e-6,-9.09367 2.953116,-16.19523 8.859375,-21.30469 5.859355,-5.10928 13.078097,-7.66396 21.65625,-7.66406 8.57808,1e-4 15.8437,2.43759 21.79688,7.3125 l 0,-6.04688 22.14843,0 0,27.84375 -21.86718,0 c -2.67194,-7.68742 -7.40631,-11.53117 -14.20313,-11.53125 -4.781289,8e-5 -7.171912,2.03914 -7.171875,6.11719 -3.7e-5,1.96882 0.67965,3.44538 2.039062,4.42969 1.31246,1.03132 5.554643,3.30475 12.726563,6.82031 9.60931,4.78131 16.03118,8.27349 19.26562,10.47656 1.64056,1.07818 3.31634,2.5899 5.02735,4.53516 1.71086,1.94536 3.12883,3.94926 4.2539,6.01172 2.57805,4.59379 3.86711,9.56253 3.86719,14.90625 -8e-5,8.20314 -3.04695,15.14063 -9.14062,20.8125 -6.09382,5.76562 -13.78131,8.64843 -23.0625,8.64843 -8.62505,0 -16.429726,-2.55468 -23.414065,-7.66406 z"
         style="line-height:125%;stroke:#000000;font-family:Rockwell Extra Bold;-inkscape-font-specification:'Rockwell Extra Bold, Ultra-Bold'"
         id="path4094" />
      <path
         d="m 189.91406,212.79334 c -4e-5,10.87502 3.89058,16.31252 11.67188,16.3125 8.24994,2e-5 12.37493,-5.48435 12.375,-16.45313 -7e-5,-5.01558 -1.00788,-8.9062 -3.02344,-11.67187 -2.06256,-2.76558 -4.96881,-4.14839 -8.71875,-4.14844 -3.70318,5e-5 -6.67974,1.35943 -8.92969,4.07813 -2.25004,2.71879 -3.37504,6.67972 -3.375,11.88281 z M 154.125,212.65271 c -1e-5,-10.0312 4.21874,-18.49213 12.65625,-25.38281 8.43747,-6.89056 19.82809,-10.33587 34.17187,-10.33594 14.43744,7e-5 26.17961,3.3282 35.22657,9.98438 9.04678,6.6563 13.57021,15.32817 13.57031,26.01562 -1e-4,10.31253 -4.3126,18.91408 -12.9375,25.80469 -8.62508,6.89063 -20.01569,10.33594 -34.17188,10.33594 -15.28128,0 -27.18752,-3.44531 -35.71875,-10.33594 -8.53126,-6.84373 -12.79688,-15.53904 -12.79687,-26.08594 z"
         style="line-height:125%;stroke:#000000;font-family:Rockwell Extra Bold;-inkscape-font-specification:'Rockwell Extra Bold, Ultra-Bold'"
         id="path4096" />
      <path
         d="m 322.3125,212.72303 c -7e-5,-4.26559 -0.98444,-7.82809 -2.95313,-10.6875 -1.96881,-2.81246 -4.89849,-4.2187 -8.78906,-4.21875 -8.01567,5e-5 -12.02348,5.17973 -12.02344,15.53906 -4e-5,4.26565 0.98434,7.78128 2.95313,10.54687 1.92183,2.81252 4.85151,4.21877 8.78906,4.21875 3.56244,2e-5 6.46869,-1.24216 8.71875,-3.72656 2.20306,-2.48435 3.30462,-6.37497 3.30469,-11.67187 z m 44.01562,12.9375 0,21.44531 -44.22656,0 0,-4.57031 c -6.56256,3.89062 -14.1563,5.83593 -22.78125,5.83593 -9.60941,0 -18.11721,-2.92968 -25.52344,-8.78906 -7.40626,-5.85936 -11.10938,-14.24998 -11.10937,-25.17187 -10e-6,-11.76558 3.42186,-20.85932 10.26562,-27.28125 6.84373,-6.32806 16.00778,-9.49212 27.49219,-9.49219 8.43745,7e-5 15.65619,1.87507 21.65625,5.625 l 0,-12.51563 -8.71875,0 0,-21.44531 44.08594,0 0,76.35938 z"
         style="line-height:125%;stroke:#000000;font-family:Rockwell Extra Bold;-inkscape-font-specification:'Rockwell Extra Bold, Ultra-Bold'"
         id="path4098" />
      <path
         d="m 431.4375,229.66834 0,-12.44531 c -3.14068,-1.68747 -6.4688,-2.53122 -9.98438,-2.53125 -3.09379,3e-5 -5.55473,0.84378 -7.38281,2.53125 -1.82816,1.7344 -2.74222,3.93752 -2.74219,6.60937 -3e-5,2.76565 0.93746,5.01565 2.8125,6.75 1.92184,1.78127 4.12496,2.67189 6.60938,2.67188 4.4062,1e-5 7.96869,-1.1953 10.6875,-3.58594 z m -26.50781,-31.71094 -27.70313,-2.8125 c 3.04687,-6.70306 7.96874,-11.414 14.76563,-14.13281 6.7031,-2.71868 16.59371,-4.07806 29.67187,-4.07813 4.82807,7e-5 9.15229,0.15242 12.97266,0.45704 3.82024,0.30475 7.2304,0.76178 10.23047,1.37109 6.23429,1.17194 10.85148,2.97663 13.85156,5.41406 2.99991,2.48444 5.08585,5.15631 6.25781,8.01563 1.21866,2.95317 1.82803,7.54692 1.82813,13.78125 l 0,19.6875 8.71875,0 0,21.44531 -44.08594,0 0,-4.64063 c -6.0938,3.93751 -14.25005,5.90625 -24.46875,5.90625 -9.6094,0 -16.85158,-2.10937 -21.72656,-6.32812 -4.92189,-4.21874 -7.38282,-9.21092 -7.38282,-14.97656 0,-6.37498 3.02343,-11.60153 9.07032,-15.67969 5.99998,-4.07809 13.82809,-6.11715 23.48437,-6.11719 8.81245,4e-5 15.82026,1.14848 21.02344,3.44531 l 0,-2.03906 c -6e-5,-4.2187 -0.30475,-7.17183 -0.91406,-8.85937 -0.65631,-1.7812 -2.10943,-3.30464 -4.35938,-4.57032 -2.3438,-1.21869 -5.06255,-1.82806 -8.15625,-1.82812 -5.67191,6e-5 -10.03128,2.17974 -13.07812,6.53906 z"
         style="line-height:125%;stroke:#000000;font-family:Rockwell Extra Bold;-inkscape-font-specification:'Rockwell Extra Bold, Ultra-Bold'"
         id="path4100" />
      <path
         d="m 721.54687,225.02771 -17.50781,-22.28906 c -6.00004,2.62504 -9.00003,7.03129 -9,13.21875 -3e-5,3.7969 1.31247,7.19534 3.9375,10.19531 2.57809,3.00002 5.85933,4.50002 9.84375,4.5 4.31245,2e-5 8.55463,-1.87498 12.72656,-5.625 z m 43.73438,-1.33593 14.90625,0 0,23.41406 -41.27344,0 -5.97656,-7.45313 c -8.81256,6.00001 -19.64068,9 -32.48438,9 -12.18752,0 -21.25783,-2.71874 -27.21093,-8.15625 -5.90626,-5.43748 -8.85938,-12.42185 -8.85938,-20.95312 0,-7.73434 2.85937,-14.60152 8.57813,-20.60156 5.7656,-6.04682 13.03122,-10.21869 21.79687,-12.51563 -2.81253,-5.15618 -4.21878,-10.33586 -4.21875,-15.53906 -3e-5,-6.89054 2.67184,-12.53897 8.01563,-16.94531 5.24995,-4.40616 13.85151,-6.60928 25.80468,-6.60938 4.35931,1e-4 9.42181,0.23448 15.1875,0.70313 l 0,20.32031 c -0.5157,-0.0468 -1.0782,-0.0702 -1.6875,-0.0703 -6.23444,8e-5 -9.35163,2.22664 -9.35156,6.67968 -7e-5,2.06257 1.80462,5.32038 5.41406,9.77344 l 10.125,12.72656 c 4.49992,-6.42181 8.3671,-13.59368 11.60157,-21.51562 l 24.53906,0 0,25.24219 -11.17969,0 c -2.57823,4.92191 -6.02354,9.63285 -10.33594,14.13281 z"
         style="line-height:125%;stroke:#000000;font-family:Rockwell Extra Bold;-inkscape-font-specification:'Rockwell Extra Bold, Ultra-Bold'"
         id="path4102" />
      <path
         d="m 141.96094,384.00428 25.38281,8.92968 c -2.15636,10.45315 -7.10166,19.00783 -14.83594,25.66407 -7.82821,6.70312 -18.60945,10.05468 -32.34375,10.05468 -18.75004,0 -32.625027,-4.89843 -41.624998,-14.69531 -9.046886,-9.74998 -13.570319,-21.65621 -13.570312,-35.71875 -7e-6,-14.15619 4.429676,-26.17961 13.289062,-36.07031 8.859346,-9.89053 20.367147,-14.83584 34.523438,-14.83594 11.48431,10e-5 20.83586,2.83604 28.05469,8.50781 l 0,-6.53906 23.48437,0 0,35.71875 -24.39844,0 c -1.2657,-4.45306 -3.39851,-7.96868 -6.39843,-10.54687 -3.00008,-2.53118 -6.42195,-3.7968 -10.26563,-3.79688 -10.5938,8e-5 -15.89067,9.11726 -15.89062,27.35156 -5e-5,18.28129 5.48432,27.4219 16.45312,27.42188 9.6093,2e-5 15.65617,-7.14841 18.14063,-21.44531 z"
         style="line-height:125%;stroke:#000000;font-family:Rockwell Extra Bold;-inkscape-font-specification:'Rockwell Extra Bold, Ultra-Bold'"
         id="path4104" />
      <path
         d="m 233.4375,409.66834 0,-12.44531 c -3.14068,-1.68747 -6.4688,-2.53122 -9.98438,-2.53125 -3.09379,3e-5 -5.55473,0.84378 -7.38281,2.53125 -1.82816,1.7344 -2.74222,3.93752 -2.74219,6.60937 -3e-5,2.76565 0.93746,5.01565 2.8125,6.75 1.92184,1.78127 4.12496,2.67189 6.60938,2.67188 4.4062,1e-5 7.96869,-1.1953 10.6875,-3.58594 z m -26.50781,-31.71094 -27.70313,-2.8125 c 3.04687,-6.70306 7.96874,-11.414 14.76563,-14.13281 6.7031,-2.71868 16.59371,-4.07806 29.67187,-4.07813 4.82807,7e-5 9.15229,0.15242 12.97266,0.45704 3.82024,0.30475 7.2304,0.76178 10.23047,1.37109 6.23429,1.17194 10.85148,2.97663 13.85156,5.41406 2.99991,2.48444 5.08585,5.15631 6.25781,8.01563 1.21866,2.95317 1.82803,7.54692 1.82813,13.78125 l 0,19.6875 8.71875,0 0,21.44531 -44.08594,0 0,-4.64063 c -6.0938,3.93751 -14.25005,5.90625 -24.46875,5.90625 -9.6094,0 -16.85158,-2.10937 -21.72656,-6.32812 -4.92189,-4.21874 -7.38282,-9.21092 -7.38282,-14.97656 0,-6.37498 3.02343,-11.60153 9.07032,-15.67969 5.99998,-4.07809 13.82809,-6.11715 23.48437,-6.11719 8.81245,4e-5 15.82026,1.14848 21.02344,3.44531 l 0,-2.03906 c -6e-5,-4.2187 -0.30475,-7.17183 -0.91406,-8.85937 -0.65631,-1.7812 -2.10943,-3.30464 -4.35938,-4.57032 -2.3438,-1.21869 -5.06255,-1.82806 -8.15625,-1.82812 -5.67191,6e-5 -10.03128,2.17974 -13.07812,6.53906 z"
         style="line-height:125%;stroke:#000000;font-family:Rockwell Extra Bold;-inkscape-font-specification:'Rockwell Extra Bold, Ultra-Bold'"
         id="path4106" />
      <path
         d="m 340.45312,427.10584 -54,0 0,-21.44531 8.78907,0 0,-25.3125 -8.78907,0 0,-21.44532 44.15625,0 0,8.64844 c 8.67182,-6.60931 17.9765,-9.91399 27.91407,-9.91406 8.71866,7e-5 15.28116,2.41413 19.6875,7.24219 4.35927,4.82818 6.53896,12.58598 6.53906,23.27343 l 0,17.50782 8.08594,0 0,21.44531 -43.45313,0 0,-30.30469 c -7e-5,-6.60934 -0.56256,-10.96871 -1.6875,-13.07812 -1.21881,-2.06246 -3.53912,-3.09371 -6.96094,-3.09375 -3.14068,4e-5 -6.51567,1.19535 -10.125,3.58593 l 0,21.44532 9.84375,0 z"
         style="line-height:125%;stroke:#000000;font-family:Rockwell Extra Bold;-inkscape-font-specification:'Rockwell Extra Bold, Ultra-Bold'"
         id="path4108" />
      <path
         d="m 463.5,392.72303 c -7e-5,-4.26559 -0.98444,-7.82809 -2.95313,-10.6875 -1.96881,-2.81246 -4.89849,-4.2187 -8.78906,-4.21875 -8.01567,5e-5 -12.02348,5.17973 -12.02344,15.53906 -4e-5,4.26565 0.98434,7.78128 2.95313,10.54687 1.92183,2.81252 4.85151,4.21877 8.78906,4.21875 3.56244,2e-5 6.46869,-1.24216 8.71875,-3.72656 2.20306,-2.48435 3.30462,-6.37497 3.30469,-11.67187 z m 44.01562,12.9375 0,21.44531 -44.22656,0 0,-4.57031 c -6.56256,3.89062 -14.1563,5.83593 -22.78125,5.83593 -9.60941,0 -18.11721,-2.92968 -25.52344,-8.78906 -7.40626,-5.85936 -11.10938,-14.24998 -11.10937,-25.17187 -10e-6,-11.76558 3.42186,-20.85932 10.26562,-27.28125 6.84373,-6.32806 16.00778,-9.49212 27.49219,-9.49219 8.43745,7e-5 15.65619,1.87507 21.65625,5.625 l 0,-12.51563 -8.71875,0 0,-21.44531 44.08594,0 0,76.35938 z"
         style="line-height:125%;stroke:#000000;font-family:Rockwell Extra Bold;-inkscape-font-specification:'Rockwell Extra Bold, Ultra-Bold'"
         id="path4110" />
      <path
         d="m 560.46094,458.3949 -29.8125,0 0,-20.74219 11.46093,0 3.44532,-6.96093 -26.15625,-50.34375 -5.27344,0 0,-21.44532 46.47656,0 0,21.44532 -7.52344,0 11.88282,26.78906 10.96875,-26.78906 -6.60938,0 0,-21.44532 35.22656,0 0,21.44532 -6.82031,0 z"
         style="line-height:125%;stroke:#000000;font-family:Rockwell Extra Bold;-inkscape-font-specification:'Rockwell Extra Bold, Ultra-Bold'"
         id="path4112" />
    </g>
    <g
       transform="matrix(0.89062639,0,0,0.89062639,161.75425,-140.38109)"
       id="layer1-9"
       inkscape:label="Layer 1"
       style="fill:none;stroke:#000000;stroke-width:1.25;stroke-miterlimit:4;stroke-opacity:1;stroke-dasharray:none">
      <path
         sodipodi:nodetypes="csssssssssssssssssssssssssssssssssccsssccssscccssssccscccsccccscccccssssccsssssccsssscccsssccssccssccsssc"
         style="fill:none;stroke:#000000;stroke-width:1.25;stroke-miterlimit:4;stroke-opacity:1;stroke-dasharray:none"
         d="m 335.37626,879.8979 c -25.36981,-2.62283 -44.67857,-9.75826 -51.85038,-19.16098 -7.0787,-9.28066 -5.55722,-31.00326 4.36396,-62.30539 5.31899,-16.78185 6.39423,-25.46825 5.68577,-45.93281 -0.50631,-14.62503 -1.52945,-22.65856 -7.20174,-56.54685 -5.49771,-32.8453 -6.5114,-40.67931 -6.01692,-46.5 0.32707,-3.85 0.66234,-8.125 0.74505,-9.5 0.0827,-1.375 -0.44875,-7.9 -1.18101,-14.5 -2.28167,-20.56494 -0.23234,-49.56264 5.15907,-73 1.15826,-5.03513 2.15731,-13.18514 2.26778,-18.5 0.17119,-8.23555 0.66751,-10.6979 3.72892,-18.5 22.2655,-56.74437 24.13707,-62.16142 27.81246,-80.5 3.12171,-15.57595 5.57447,-38.99267 4.66882,-44.57355 -0.30571,-1.88385 -1.9958,-6.35018 -3.75577,-9.92518 -2.99325,-6.08015 -3.15285,-6.93601 -2.47103,-13.25063 0.78986,-7.31511 0.78828,-8.05591 -0.041,-19.27536 -0.49165,-6.65142 -0.30946,-7.8384 1.56987,-10.22757 2.87749,-3.65814 9.53552,-5.47128 24.86453,-6.77119 19.26828,-1.63397 42.51408,0.59395 48.73642,4.67098 4.31198,2.82532 5.75892,12.20084 2.92846,18.97508 -1.17462,2.81127 -1.23976,4.01174 -0.31026,5.71788 0.64708,1.18775 1.18378,5.15145 1.19265,8.80823 0.0135,5.56249 -0.5076,7.64786 -3.18974,12.76462 -2.87104,5.47709 -3.20591,6.99691 -3.20591,14.55009 0,10.33683 2.23545,27.88366 5.55588,43.61005 2.47702,11.7318 11.65504,37.9174 22.96678,65.52596 6.70842,16.37326 8.92844,25.1073 7.60245,29.90965 -0.70663,2.55919 -0.46444,5.27241 0.97066,10.87442 5.91965,23.10773 8.68186,53.65316 6.75057,74.64986 -0.68127,7.40666 -1.15673,15.71666 -1.05658,18.46666 0.65387,17.95402 0.25994,21.92448 -5.6057,56.5 -10.12175,59.66356 -10.28832,75.97106 -1.066,104.3629 7.19431,22.1484 10.12994,47.32112 6.5248,55.94944 -4.21254,10.08202 -19.13985,17.90459 -41.56732,21.78312 -13.4885,2.33266 -41.79533,3.27523 -55.57554,1.85057 z m -2.5,-15.94603 c 1.1,-1.1 2,-2.38788 2,-2.86195 0,-0.78569 -9.49533,-3.13805 -12.66678,-3.13805 -1.80255,0 -1.68443,3.05357 0.22348,5.77749 2.03506,2.90545 7.64092,3.02489 10.4433,0.22251 z m 0.61047,-34.76531 c 2.84641,-1.8832 6.14418,-11.73755 8.94678,-26.73469 2.85636,-15.28481 2.25934,-32.5715 -3.98376,-115.34982 -1.34189,-17.79241 -2.58238,-32.48552 -2.75665,-32.65137 -0.17426,-0.16585 -3.35356,-0.62327 -7.0651,-1.01649 l -6.74826,-0.71494 0.50568,2.86631 c 0.6808,3.85882 6.04724,62.08303 7.96026,86.36631 0.84491,10.725 1.59302,25.125 1.66248,32 0.13181,13.04659 -0.52181,16.7038 -6.59947,36.92623 -2.94378,9.79491 -3.19268,14.68673 -0.87744,17.24503 1.66349,1.83813 6.85308,2.45438 8.95548,1.06343 z m 5.75992,-275.53097 c 0.47871,-3.18796 0.61809,-6.04858 0.30973,-6.35694 -0.30836,-0.30835 -4.34406,-0.79669 -8.96821,-1.08518 l -8.40756,-0.52453 -0.64117,3.88147 c -1.31422,7.95592 -0.9781,9.21361 2.58682,9.67926 1.7875,0.23349 5.725,0.3745 8.75,0.31336 l 5.5,-0.11116 0.87039,-5.79628 z m 1.55712,-19.01307 c 1.40527,-3.69614 5.04845,-49.9188 8.56677,-108.69065 0.83959,-14.025 1.76235,-27.6375 2.05057,-30.25 l 0.52404,-4.75 -3.90612,0 -3.90611,0 -0.69236,13.25 c -0.91563,17.5229 -3.15596,39.33348 -5.62377,54.75 -4.07194,25.43752 -6.9906,41.94162 -10.40972,58.86367 -1.92959,9.55001 -3.26184,17.76251 -2.96056,18.25 0.30128,0.48748 3.90736,0.88633 8.01352,0.88633 6.87896,0 7.53474,-0.18151 8.34374,-2.30935 z m 12.54681,-163.64099 c 0.83912,-1.62269 1.52568,-4.49144 1.52568,-6.375 0,-3.03562 -0.355,-3.49566 -3.125,-4.04966 -4.68218,-0.93644 -8.67654,-0.75514 -9.40712,0.42698 -1.16306,1.88186 -0.81718,9.82222 0.49682,11.40549 0.74818,0.9015 2.88093,1.54253 5.13206,1.54253 3.25404,0 4.08867,-0.45791 5.37756,-2.95034 z m 1.79537,-59.53225 C 351.54,309.90168 347.8857,304.68812 347.88,301.103 c -0.006,-3.77156 3.03513,-9.11987 6.08145,-10.69518 1.54852,-0.80077 4.53771,-1.45595 6.64264,-1.45595 12.35586,0 15.49466,16.69662 4.23353,22.51998 -3.50788,1.814 -5.51426,1.81347 -9.69167,-0.003 l 0,4.3e-4 z m -17.71217,-32.71487 c -2.41289,-0.66849 -5.72143,-2.87895 -8.52768,-5.6974 -8.98458,-9.02366 -9.30973,-20.5067 -0.8408,-29.6944 13.36227,-14.49635 37.11948,-5.16178 37.13081,14.58926 0.008,14.44318 -13.68399,24.70292 -27.76233,20.80254 z m 3.61374,-24.45753 c 5.26396,-4.76382 -1.78792,-13.40133 -7.4254,-9.09501 -2.79947,2.13845 -3.19908,6.29678 -0.83252,8.66334 2.51153,2.51153 5.7714,2.68194 8.25792,0.43167 z m 20.14411,-24.35199 c -7.52283,-3.03102 -4.53651,-15.99302 3.68463,-15.99302 8.20754,0 11.18695,11.78348 3.92848,15.53698 -3.18161,1.64528 -4.46994,1.72245 -7.61311,0.45604 z m -8.37595,-24.0536 c -2.78216,-2.78216 -2.22047,-6.93996 1.19535,-8.84839 2.35984,-1.31845 2.90765,-1.29325 5.25,0.24151 3.37878,2.21386 3.57985,6.87841 0.39272,9.11076 -2.95263,2.0681 -4.37057,1.96362 -6.83807,-0.50388 z"
         id="path2904"
         inkscape:connector-curvature="0" />
    </g>
    <g
       transform="matrix(1.0019904,0,0,1.0019904,-332.01898,-248.16006)"
       style="font-size:40px;font-style:normal;font-weight:normal;line-height:125%;letter-spacing:0px;word-spacing:0px;fill:none;stroke:#000000;stroke-width:1.25;stroke-linecap:butt;stroke-linejoin:miter;stroke-miterlimit:4;stroke-opacity:1;font-family:Sans"
       id="flowRoot3116" />
    <g
       transform="matrix(1.6329326,0,0,1.6329326,412.76554,-53.549861)"
       id="layer1-4"
       inkscape:label="Layer 1"
       style="fill:none;stroke:#000000;stroke-width:0.68176907;stroke-miterlimit:4;stroke-opacity:1;stroke-dasharray:none">
      <path
         style="fill:none;stroke:#000000;stroke-width:0.68176907;stroke-linecap:butt;stroke-linejoin:round;stroke-miterlimit:4;stroke-opacity:1;stroke-dasharray:none;stroke-dashoffset:0;marker:none;visibility:visible;display:inline;overflow:visible;enable-background:accumulate"
         d="m 157.30201,429.82171 c 10.04693,10.99226 5.38677,31.62566 -10.4021,46.05669 -15.78889,14.43103 -36.75709,17.22192 -46.804,6.22966 -10.046928,-10.99226 -5.386782,-31.62567 10.40209,-46.0567 15.72194,-14.36984 36.57331,-17.21141 46.68214,-6.36173 l 0.12187,0.13208 z"
         id="path6298"
         sodipodi:nodetypes="cssscc"
         inkscape:connector-curvature="0" />
      <path
         sodipodi:nodetypes="ccccc"
         id="path6296"
         d="m 100.63084,448.65206 c 15.9719,5.8549 28.87488,16.17098 34.76126,36.6868 l 20.79189,-21.5026 c -4.54807,-18.4264 -16.10901,-30.04132 -34.65501,-34.87182 l -20.89814,19.68762 z"
         style="fill:none;stroke:#000000;stroke-width:0.68176907;stroke-miterlimit:4;stroke-opacity:1;stroke-dasharray:none"
         inkscape:connector-curvature="0" />
      <path
         sodipodi:nodetypes="cssscc"
         id="path5784"
         d="m 157.52376,429.78071 c 10.04692,10.99226 5.38677,31.62566 -10.4021,46.05669 -15.7889,14.43103 -36.75709,17.22192 -46.804,6.22966 -10.046929,-10.99226 -5.386783,-31.62567 10.40209,-46.0567 15.72194,-14.36984 36.57331,-17.21141 46.68214,-6.36173 l 0.12187,0.13208 z"
         style="fill:none;stroke:#000000;stroke-width:0.68176907;stroke-linecap:butt;stroke-linejoin:round;stroke-miterlimit:4;stroke-opacity:1;stroke-dasharray:none;stroke-dashoffset:0;marker:none;visibility:visible;display:inline;overflow:visible;enable-background:accumulate"
         inkscape:connector-curvature="0" />
      <path
         sodipodi:nodetypes="ccssscc"
         id="path6310"
         d="m 158.24759,427.32368 c 10.00536,4.39404 25.15384,2.17377 30.20526,-3.53537 -2.58067,-0.54177 -5.01624,-3.15322 -6.51598,-6.16988 -1.57402,-3.16613 -0.14455,-7.28817 -2.81901,-9.73579 -3.05371,-2.79472 -7.30242,-1.25993 -10.53955,-2.93893 -2.84852,-1.47744 -3.76777,-4.59803 -6.71877,-8.06097 -7.07088,9.55408 -6.45085,21.00731 -3.61195,30.44094 z"
         style="fill:none;stroke:#000000;stroke-width:0.68176907;stroke-linecap:round;stroke-linejoin:round;stroke-miterlimit:4;stroke-opacity:1;stroke-dasharray:none"
         inkscape:connector-curvature="0" />
      <path
         style="fill:none;stroke:#000000;stroke-width:0.68176907;stroke-linecap:round;stroke-linejoin:round;stroke-miterlimit:4;stroke-opacity:1;stroke-dasharray:none"
         d="m 102.02676,483.87353 c -9.978253,-4.45526 -25.140052,-2.32784 -30.226344,3.35025 2.577301,0.55757 4.996812,3.18388 6.478043,6.20968 1.554601,3.17571 0.09991,7.28892 2.75932,9.75288 3.036527,2.81338 7.294562,1.30465 10.521346,3.00345 2.839409,1.49486 3.739525,4.62102 6.669253,8.10197 7.129272,-9.51057 6.579422,-20.96738 3.798382,-30.41823 z"
         id="path6312"
         sodipodi:nodetypes="ccssscc"
         inkscape:connector-curvature="0" />
    </g>
    <g
       transform="matrix(0.83186398,0,0,0.83186398,-24.06359,705.27796)"
       style="font-size:144px;font-style:normal;font-variant:normal;font-weight:800;font-stretch:normal;text-align:start;line-height:125%;letter-spacing:0px;word-spacing:0px;writing-mode:lr-tb;text-anchor:start;fill:none;stroke:#000000;stroke-width:1.25;stroke-miterlimit:4;stroke-opacity:1;font-family:Rockwell Extra Bold;-inkscape-font-specification:'Rockwell Extra Bold, Ultra-Bold'"
       id="flowRoot2985-5">
      <path
         d="m 71.282905,185.01217 -10.288453,0 0,-14.66022 10.288453,0 c 1.22715,3.98829 3.539036,5.98243 6.935667,5.98242 2.454304,1e-5 3.681467,-0.9861 3.681491,-2.95834 -2.4e-5,-1.02993 -0.42734,-1.88456 -1.281948,-2.56389 -0.920395,-0.74505 -2.85975,-1.77499 -5.818071,-3.08983 -3.725331,-1.68733 -6.464533,-3.14458 -8.217614,-4.37177 -1.64353,-1.11757 -3.046001,-2.66248 -4.207418,-4.63473 -1.161426,-1.95029 -1.742137,-4.10878 -1.742135,-6.47548 -2e-6,-4.25121 1.380556,-7.57112 4.141678,-9.95975 2.739195,-2.38854 6.113892,-3.58283 10.124101,-3.58288 4.010174,5e-5 7.406785,1.13955 10.189841,3.41853 l 0,-2.82686 10.354194,0 0,13.0167 -10.222712,0 c -1.249103,-3.5938 -3.462379,-5.39072 -6.639832,-5.39076 -2.23521,4e-5 -3.352804,0.95328 -3.352787,2.85973 -1.7e-5,0.92041 0.31773,1.61069 0.953243,2.07084 0.613563,0.48214 2.596746,1.54495 5.949553,3.18844 4.492267,2.23522 7.494432,3.86778 9.006505,4.89769 0.766943,0.50404 1.550355,1.21076 2.350238,2.12015 0.799811,0.90944 1.462698,1.84624 1.988662,2.81042 1.205212,2.14756 1.807836,4.4704 1.807876,6.96854 -4e-5,3.8349 -1.424425,7.07811 -4.27316,9.72966 -2.848805,2.69537 -6.442638,4.04306 -10.78151,4.04306 -4.032129,0 -7.680746,-1.19429 -10.945862,-3.58288 z"
         style="font-size:67.31869507px;line-height:125%;stroke:#000000;font-family:Rockwell Extra Bold;-inkscape-font-specification:'Rockwell Extra Bold, Ultra-Bold'"
         id="path4116" />
      <path
         d="m 119.63535,168.97139 c -2e-5,5.08398 1.81881,7.62595 5.45649,7.62595 3.85677,0 5.78517,-2.56389 5.7852,-7.69169 -3e-5,-2.34474 -0.47117,-4.16357 -1.41343,-5.4565 -0.96423,-1.29288 -2.32287,-1.93933 -4.07593,-1.93935 -1.7312,2e-5 -3.12272,0.63552 -4.17455,1.90648 -1.05188,1.27101 -1.5778,3.12272 -1.57778,5.55511 z m -16.73107,-0.0657 c 0,-4.6895 1.97223,-8.64491 5.91669,-11.86624 3.94444,-3.22127 9.26945,-4.83192 15.97504,-4.83195 6.74937,3e-5 12.23873,1.5559 16.4681,4.6676 4.22928,3.11176 6.34395,7.16578 6.344,12.16207 -5e-5,4.82101 -2.0161,8.84216 -6.04817,12.06346 -4.03215,3.2213 -9.35715,4.83196 -15.97504,4.83196 -7.14386,0 -12.70992,-1.61066 -16.69819,-4.83196 -3.98829,-3.19939 -5.98243,-7.26436 -5.98243,-12.19494 z"
         style="font-size:67.31869507px;line-height:125%;stroke:#000000;font-family:Rockwell Extra Bold;-inkscape-font-specification:'Rockwell Extra Bold, Ultra-Bold'"
         id="path4118" />
      <path
         d="m 181.53041,168.93852 c -3e-5,-1.99412 -0.46021,-3.65956 -1.38056,-4.99631 -0.9204,-1.3148 -2.29,-1.9722 -4.1088,-1.97223 -3.74726,3e-5 -5.62087,2.42148 -5.62085,7.26437 -2e-5,1.99416 0.46016,3.63768 1.38056,4.93057 0.89843,1.31483 2.26804,1.97224 4.1088,1.97223 1.66541,1e-5 3.02406,-0.5807 4.07594,-1.74213 1.02991,-1.16142 1.54488,-2.98025 1.54491,-5.4565 z m 20.57691,6.04816 0,10.02549 -20.67552,0 0,-2.13658 c -3.06794,1.81884 -6.61794,2.72825 -10.65003,2.72825 -4.49231,0 -8.46963,-1.3696 -11.93197,-4.10881 -3.46236,-2.73919 -5.19354,-6.66173 -5.19353,-11.76762 -1e-5,-5.5003 1.59969,-9.75154 4.79908,-12.75374 3.19938,-2.95831 7.48349,-4.43748 12.85235,-4.43751 3.94443,3e-5 7.31913,0.87658 10.1241,2.62964 l 0,-5.85094 -4.07594,0 0,-10.02549 20.60978,0 0,35.69731 z"
         style="font-size:67.31869507px;line-height:125%;stroke:#000000;font-family:Rockwell Extra Bold;-inkscape-font-specification:'Rockwell Extra Bold, Ultra-Bold'"
         id="path4120" />
      <path
         d="m 232.54536,176.8603 0,-5.81807 c -1.46824,-0.78888 -3.0241,-1.18332 -4.6676,-1.18334 -1.44632,2e-5 -2.59679,0.39446 -3.4514,1.18334 -0.85465,0.81082 -1.28197,1.84076 -1.28195,3.08982 -2e-5,1.29292 0.43826,2.34477 1.31482,3.15557 0.89844,0.83272 1.92838,1.24908 3.08982,1.24907 2.05986,1e-5 3.7253,-0.55879 4.99631,-1.67639 z m -12.39216,-14.82458 -12.95096,-1.31481 c 1.42438,-3.13363 3.72531,-5.33595 6.9028,-6.60697 3.13363,-1.27095 7.75741,-1.90645 13.87133,-1.90648 2.25708,3e-5 4.27861,0.0712 6.0646,0.21366 1.78593,0.14247 3.38014,0.35612 4.78265,0.64097 2.91448,0.54787 5.07297,1.39155 6.47548,2.53102 1.40243,1.16146 2.37759,2.41053 2.92547,3.74724 0.56971,1.38058 0.85459,3.52811 0.85463,6.44261 l 0,9.20372 4.07594,0 0,10.02549 -20.60978,0 0,-2.16945 c -2.8488,1.84075 -6.66176,2.76112 -11.43892,2.76112 -4.4923,0 -7.87796,-0.98611 -10.15697,-2.95834 -2.30093,-1.97222 -3.4514,-4.30602 -3.4514,-7.00141 0,-2.98024 1.41343,-5.42361 4.24029,-7.33011 2.80494,-1.90647 6.46451,-2.85971 10.97874,-2.85973 4.11974,2e-5 7.39582,0.5369 9.82826,1.61065 l 0,-0.95324 c -3e-5,-1.97221 -0.14246,-3.35276 -0.42731,-4.14168 -0.30682,-0.83269 -0.98614,-1.54488 -2.03797,-2.13658 -1.09571,-0.56973 -2.3667,-0.8546 -3.81297,-0.85463 -2.65157,3e-5 -4.68954,1.01901 -6.11391,3.05695 z"
         style="font-size:67.31869507px;line-height:125%;stroke:#000000;font-family:Rockwell Extra Bold;-inkscape-font-specification:'Rockwell Extra Bold, Ultra-Bold'"
         id="path4122" />
      <path
         d="m 97.217696,249.01096 11.866234,4.17455 c -1.00808,4.88675 -3.31996,8.88598 -6.93567,11.99771 -3.659614,3.13366 -8.699746,4.70048 -15.120406,4.70048 -8.765475,0 -15.251906,-2.28997 -19.45931,-6.86993 -4.229338,-4.55802 -6.344002,-10.12408 -6.343998,-16.69819 -4e-6,-6.61789 2.070833,-12.23873 6.212516,-16.86254 4.141664,-4.62374 9.521457,-6.93562 16.139394,-6.93567 5.36881,5e-5 9.740577,1.32582 13.115312,3.97733 l 0,-3.05696 10.978732,0 0,16.6982 -11.406048,0 c -0.591706,-2.08177 -1.588775,-3.72529 -2.991211,-4.93057 -1.402507,-1.1833 -3.002201,-1.77497 -4.799087,-1.77501 -4.952508,4e-5 -7.428746,4.26224 -7.428723,12.78661 -2.3e-5,8.54633 2.56387,12.81949 7.691687,12.81948 4.49226,10e-6 7.319117,-3.34182 8.480578,-10.02549 z"
         style="font-size:67.31869507px;line-height:125%;stroke:#000000;font-family:Rockwell Extra Bold;-inkscape-font-specification:'Rockwell Extra Bold, Ultra-Bold'"
         id="path4124" />
      <path
         d="m 139.98216,261.00868 0,-5.81807 c -1.46824,-0.78888 -3.02411,-1.18333 -4.6676,-1.18334 -1.44633,1e-5 -2.59679,0.39446 -3.4514,1.18334 -0.85465,0.81081 -1.28197,1.84075 -1.28195,3.08982 -2e-5,1.29291 0.43825,2.34477 1.31482,3.15556 0.89844,0.83273 1.92838,1.24909 3.08982,1.24908 2.05986,1e-5 3.72529,-0.55879 4.99631,-1.67639 z M 127.59,246.1841 114.63904,244.86928 c 1.42438,-3.13362 3.72531,-5.33594 6.90279,-6.60696 3.13364,-1.27096 7.75742,-1.90645 13.87134,-1.90649 2.25708,4e-5 4.27861,0.0713 6.0646,0.21366 1.78593,0.14247 3.38014,0.35613 4.78265,0.64098 2.91447,0.54787 5.07297,1.39154 6.47548,2.53102 1.40243,1.16145 2.37758,2.41053 2.92547,3.74723 0.56971,1.38059 0.85459,3.52812 0.85463,6.44261 l 0,9.20373 4.07594,0 0,10.02549 -20.60978,0 0,-2.16945 c -2.8488,1.84075 -6.66177,2.76112 -11.43892,2.76112 -4.49231,0 -7.87796,-0.98612 -10.15697,-2.95834 -2.30094,-1.97223 -3.4514,-4.30603 -3.4514,-7.00141 0,-2.98024 1.41343,-5.42361 4.24029,-7.33011 2.80494,-1.90647 6.46451,-2.85971 10.97873,-2.85973 4.11975,2e-5 7.39583,0.5369 9.82827,1.61065 l 0,-0.95324 c -3e-5,-1.97221 -0.14247,-3.35277 -0.42731,-4.14168 -0.30682,-0.83269 -0.98615,-1.54489 -2.03797,-2.13658 -1.09571,-0.56973 -2.3667,-0.85461 -3.81298,-0.85463 -2.65157,2e-5 -4.68953,1.01901 -6.1139,3.05695 z"
         style="font-size:67.31869507px;line-height:125%;stroke:#000000;font-family:Rockwell Extra Bold;-inkscape-font-specification:'Rockwell Extra Bold, Ultra-Bold'"
         id="path4126" />
      <path
         d="m 190.011,269.16055 -25.24451,0 0,-10.02549 4.1088,0 0,-11.83336 -4.1088,0 0,-10.02549 20.64264,0 0,4.04306 c 4.054,-3.08979 8.40385,-4.6347 13.04957,-4.63473 4.0759,3e-5 7.14381,1.12858 9.20373,3.38566 2.03792,2.25713 3.05691,5.88383 3.05695,10.88012 l 0,8.18474 3.78011,0 0,10.02549 -20.31395,0 0,-14.16717 c -3e-5,-3.0898 -0.26299,-5.12777 -0.78889,-6.1139 -0.56978,-0.96418 -1.65451,-1.44628 -3.25417,-1.4463 -1.46824,2e-5 -3.04602,0.55882 -4.73335,1.67639 l 0,10.02549 4.60187,0 z"
         style="font-size:67.31869507px;line-height:125%;stroke:#000000;font-family:Rockwell Extra Bold;-inkscape-font-specification:'Rockwell Extra Bold, Ultra-Bold'"
         id="path4128" />
      <path
         d="m 247.53429,253.0869 c -3e-5,-1.99413 -0.46022,-3.65956 -1.38056,-4.99631 -0.9204,-1.3148 -2.29,-1.97221 -4.10881,-1.97223 -3.74725,2e-5 -5.62087,2.42148 -5.62085,7.26437 -2e-5,1.99416 0.46017,3.63768 1.38056,4.93057 0.89844,1.31483 2.26804,1.97224 4.10881,1.97223 1.66541,1e-5 3.02405,-0.58071 4.07594,-1.74214 1.02991,-1.16141 1.54488,-2.98024 1.54491,-5.45649 z m 20.5769,6.04816 0,10.02549 -20.67551,0 0,-2.13658 c -3.06794,1.81883 -6.61795,2.72825 -10.65003,2.72825 -4.49231,0 -8.46963,-1.3696 -11.93198,-4.10881 -3.46236,-2.7392 -5.19353,-6.66173 -5.19353,-11.76762 0,-5.5003 1.59969,-9.75155 4.79909,-12.75374 3.19938,-2.95831 7.48349,-4.43748 12.85235,-4.43751 3.94443,3e-5 7.31912,0.87658 10.1241,2.62964 l 0,-5.85095 -4.07594,0 0,-10.02549 20.60978,0 0,35.69732 z"
         style="font-size:67.31869507px;line-height:125%;stroke:#000000;font-family:Rockwell Extra Bold;-inkscape-font-specification:'Rockwell Extra Bold, Ultra-Bold'"
         id="path4130" />
      <path
         d="m 292.86265,283.7879 -13.93707,0 0,-9.69678 5.35788,0 1.61065,-3.25418 -12.22781,-23.53524 -2.46528,0 0,-10.02549 21.72737,0 0,10.02549 -3.51714,0 5.55511,12.52364 5.12779,-12.52364 -3.08982,0 0,-10.02549 16.4681,0 0,10.02549 -3.18844,0 z"
         style="font-size:67.31869507px;line-height:125%;stroke:#000000;font-family:Rockwell Extra Bold;-inkscape-font-specification:'Rockwell Extra Bold, Ultra-Bold'"
         id="path4132" />
      <path
         d="m 97.217696,333.15934 11.866234,4.17454 c -1.00808,4.88676 -3.31996,8.88599 -6.93567,11.99772 -3.659614,3.13365 -8.699746,4.70048 -15.120406,4.70048 -8.765475,0 -15.251906,-2.28998 -19.45931,-6.86993 -4.229338,-4.55803 -6.344002,-10.12408 -6.343998,-16.69819 -4e-6,-6.61789 2.070833,-12.23873 6.212516,-16.86255 4.141664,-4.62373 9.521457,-6.93562 16.139394,-6.93566 5.36881,4e-5 9.740577,1.32582 13.115312,3.97732 l 0,-3.05695 10.978732,0 0,16.69819 -11.406048,0 c -0.591706,-2.08176 -1.588775,-3.72528 -2.991211,-4.93057 -1.402507,-1.1833 -3.002201,-1.77496 -4.799087,-1.775 -4.952508,4e-5 -7.428746,4.26223 -7.428723,12.78661 -2.3e-5,8.54633 2.56387,12.81949 7.691687,12.81948 4.49226,1e-5 7.319117,-3.34182 8.480578,-10.02549 z"
         style="font-size:67.31869507px;line-height:125%;stroke:#000000;font-family:Rockwell Extra Bold;-inkscape-font-specification:'Rockwell Extra Bold, Ultra-Bold'"
         id="path4134" />
      <path
         d="m 137.05669,353.30893 -22.84497,0 0,-10.02549 3.38566,0 0,-25.67183 -3.38566,0 0,-10.02549 19.9195,0 0,35.69732 2.92547,0 z"
         style="font-size:67.31869507px;line-height:125%;stroke:#000000;font-family:Rockwell Extra Bold;-inkscape-font-specification:'Rockwell Extra Bold, Ultra-Bold'"
         id="path4136" />
      <path
         d="m 144.71551,331.45007 -3.84585,0 0,-10.02549 20.37969,0 0,15.18615 c -2e-5,2.56391 0.24103,4.28413 0.72315,5.16067 0.46016,0.89847 1.44627,1.34769 2.95834,1.34768 1.84072,1e-5 3.54998,-0.49304 5.12779,-1.47917 l 0,-10.18984 -4.37177,0 0,-10.02549 20.90561,0 0,21.85886 3.84584,0 0,10.02549 -20.37968,0 0,-4.04307 c -4.36084,3.08982 -8.82026,4.63473 -13.37828,4.63473 -3.26514,0 -6.07009,-1.04089 -8.41483,-3.12269 -2.36668,-2.08179 -3.55002,-6.00433 -3.55001,-11.76762 z"
         style="font-size:67.31869507px;line-height:125%;stroke:#000000;font-family:Rockwell Extra Bold;-inkscape-font-specification:'Rockwell Extra Bold, Ultra-Bold'"
         id="path4138" />
      <path
         d="m 215.05829,337.23527 c -3e-5,4.7991 1.90646,7.19864 5.71946,7.19863 3.61571,1e-5 5.42359,-2.38857 5.42362,-7.16576 -3e-5,-2.279 -0.50405,-4.02113 -1.51204,-5.2264 -1.00806,-1.18331 -2.35575,-1.77498 -4.04307,-1.775 -1.79694,2e-5 -3.1775,0.64647 -4.14167,1.93935 -0.96423,1.33675 -1.44633,3.01315 -1.4463,5.02918 z m 0.13148,16.07366 -20.70839,0 0,-10.02549 4.17455,0 0,-25.67183 -4.24029,0 0,-10.02549 20.77413,0 0,15.87643 c 2.80492,-1.75306 6.21249,-2.6296 10.22271,-2.62963 5.06201,3e-5 9.24751,1.44633 12.55651,4.3389 3.30891,2.89262 4.96339,6.82611 4.96344,11.80049 -5e-5,2.45434 -0.39997,4.67857 -1.19977,6.6727 -0.79989,1.99415 -1.99967,3.79107 -3.59931,5.39076 -3.17752,3.24322 -7.1658,4.86482 -11.96485,4.86482 -4.25128,0 -7.91085,-0.90941 -10.97873,-2.72824 z"
         style="font-size:67.31869507px;line-height:125%;stroke:#000000;font-family:Rockwell Extra Bold;-inkscape-font-specification:'Rockwell Extra Bold, Ultra-Bold'"
         id="path4140" />
      <path
         d="m 283.56031,353.30893 -17.71718,0 0,-10.94587 3.51714,0 0,-23.83108 -3.61575,0 0,-10.94586 27.57832,0 6.73844,17.65144 6.9028,-17.65144 27.41396,0 0,10.94586 -3.58288,0 0,23.83108 3.68149,0 0,10.94587 -23.86395,0 0,-10.94587 3.64862,0 0,-25.54034 -13.8056,36.48621 -6.83705,0 -13.67411,-36.15751 0,25.21164 3.61575,0 z"
         style="font-size:67.31869507px;line-height:125%;stroke:#000000;font-family:Rockwell Extra Bold;-inkscape-font-specification:'Rockwell Extra Bold, Ultra-Bold'"
         id="path4142" />
      <path
         d="m 365.21052,345.15705 0,-5.81807 c -1.46824,-0.78887 -3.0241,-1.18332 -4.6676,-1.18333 -1.44632,1e-5 -2.59679,0.39446 -3.4514,1.18333 -0.85465,0.81082 -1.28197,1.84076 -1.28195,3.08983 -2e-5,1.29291 0.43826,2.34476 1.31482,3.15556 0.89844,0.83272 1.92838,1.24908 3.08982,1.24908 2.05986,0 3.7253,-0.55879 4.99631,-1.6764 z m -12.39216,-14.82457 -12.95096,-1.31482 c 1.42438,-3.13362 3.72531,-5.33594 6.9028,-6.60696 3.13364,-1.27096 7.75741,-1.90646 13.87133,-1.90649 2.25708,3e-5 4.27861,0.0713 6.0646,0.21366 1.78593,0.14247 3.38015,0.35613 4.78265,0.64097 2.91448,0.54787 5.07297,1.39155 6.47548,2.53103 1.40243,1.16145 2.37759,2.41052 2.92547,3.74723 0.56971,1.38058 0.85459,3.52812 0.85463,6.44261 l 0,9.20373 4.07594,0 0,10.02549 -20.60978,0 0,-2.16945 c -2.84879,1.84074 -6.66176,2.76111 -11.43891,2.76111 -4.49231,0 -7.87797,-0.98611 -10.15698,-2.95834 -2.30093,-1.97222 -3.4514,-4.30602 -3.45139,-7.0014 -10e-6,-2.98025 1.41342,-5.42361 4.24029,-7.33012 2.80493,-1.90646 6.4645,-2.85971 10.97873,-2.85973 4.11974,2e-5 7.39582,0.53691 9.82826,1.61066 l 0,-0.95325 c -2e-5,-1.9722 -0.14246,-3.35276 -0.42731,-4.14167 -0.30682,-0.8327 -0.98614,-1.54489 -2.03797,-2.13658 -1.09571,-0.56973 -2.3667,-0.85461 -3.81297,-0.85464 -2.65157,3e-5 -4.68954,1.01901 -6.11391,3.05696 z"
         style="font-size:67.31869507px;line-height:125%;stroke:#000000;font-family:Rockwell Extra Bold;-inkscape-font-specification:'Rockwell Extra Bold, Ultra-Bold'"
         id="path4144" />
      <path
         d="m 416.02824,341.67278 0,9.7954 c -1.07379,0.72315 -2.62966,1.35865 -4.6676,1.90649 -2.14756,0.56975 -4.20744,0.85463 -6.17965,0.85463 -2.47625,0 -4.60188,-0.4054 -6.37687,-1.21621 -1.81884,-0.83272 -3.18844,-1.95031 -4.1088,-3.35278 -0.50402,-0.8108 -0.87656,-1.55039 -1.1176,-2.21876 -0.24106,-0.66836 -0.41636,-1.4189 -0.52593,-2.25163 -0.1534,-1.44629 -0.2301,-4.24027 -0.23009,-8.38196 l 0,-5.35789 -4.07594,0 0,-10.02549 4.07594,0 0,-4.89769 16.53384,-7.85604 0,12.75373 6.6727,0 0,10.02549 -6.6727,0 0,6.17965 c -2e-5,2.01607 0.18624,3.36375 0.5588,4.04306 0.35059,0.67934 1.09566,1.019 2.23519,1.01899 1.07374,10e-6 2.36664,-0.33965 3.87871,-1.01899 z"
         style="font-size:67.31869507px;line-height:125%;stroke:#000000;font-family:Rockwell Extra Bold;-inkscape-font-specification:'Rockwell Extra Bold, Ultra-Bold'"
         id="path4146" />
      <path
         d="m 437.72277,334.8686 9.30234,0 c 0.0438,-0.65739 0.0657,-1.02992 0.0657,-1.1176 -3e-5,-1.73115 -0.4383,-3.16649 -1.31482,-4.30603 -0.87657,-1.11757 -2.03799,-1.67636 -3.48427,-1.67639 -1.49015,3e-5 -2.62966,0.61361 -3.41853,1.84075 -0.78891,1.2491 -1.18335,2.78305 -1.18333,4.60186 -2e-5,0.24107 0.0109,0.46021 0.0329,0.65741 z m 10.51854,8.3491 13.64124,1.67639 c -0.61362,1.42439 -1.46825,2.70086 -2.56389,3.82941 -1.09572,1.12855 -2.43245,2.10919 -4.0102,2.9419 -3.17751,1.70927 -6.97952,2.5639 -11.40605,2.5639 -7.42874,0 -13.01671,-1.54491 -16.76393,-4.63474 -3.74724,-3.0679 -5.62085,-7.08905 -5.62085,-12.06345 0,-4.86481 1.8517,-8.91883 5.55511,-12.16207 3.65957,-3.24319 8.623,-4.8648 14.89032,-4.86483 6.02622,3e-5 10.93487,1.53399 14.72596,4.60186 3.72528,3.04603 5.70846,7.68075 5.94955,13.90421 l -25.11302,0 c 0.0657,5.17163 1.99412,7.75743 5.7852,7.75743 2.27899,0 3.92251,-1.18333 4.93056,-3.55001 z"
         style="font-size:67.31869507px;line-height:125%;stroke:#000000;font-family:Rockwell Extra Bold;-inkscape-font-specification:'Rockwell Extra Bold, Ultra-Bold'"
         id="path4148" />
    </g>
    <g
       transform="matrix(0.83186398,0,0,0.83186398,57.94524,705.5514)"
       style="font-size:144px;font-style:normal;font-variant:normal;font-weight:800;font-stretch:normal;text-align:start;line-height:125%;letter-spacing:0px;word-spacing:0px;writing-mode:lr-tb;text-anchor:start;fill:none;stroke:#000000;stroke-width:1.25;stroke-miterlimit:4;stroke-opacity:1;font-family:Rockwell Extra Bold;-inkscape-font-specification:'Rockwell Extra Bold, Ultra-Bold'"
       id="flowRoot2985-5-1">
      <path
         d="m 191.77109,185.01217 -16.40236,0 0,-11.96484 16.40236,0 z"
         style="font-size:67.31869507px;text-align:end;line-height:125%;text-anchor:end;stroke:#000000;font-family:Rockwell Extra Bold;-inkscape-font-specification:'Rockwell Extra Bold, Ultra-Bold'"
         id="path4151" />
      <path
         d="m 218.4619,185.01217 -16.40235,0 0,-11.96484 16.40235,0 z"
         style="font-size:67.31869507px;text-align:end;line-height:125%;text-anchor:end;stroke:#000000;font-family:Rockwell Extra Bold;-inkscape-font-specification:'Rockwell Extra Bold, Ultra-Bold'"
         id="path4153" />
      <path
         d="m 245.15271,185.01217 -16.40235,0 0,-11.96484 16.40235,0 z"
         style="font-size:67.31869507px;text-align:end;line-height:125%;text-anchor:end;stroke:#000000;font-family:Rockwell Extra Bold;-inkscape-font-specification:'Rockwell Extra Bold, Ultra-Bold'"
         id="path4155" />
      <path
         d="m 271.84353,185.01217 -16.40236,0 0,-11.96484 16.40236,0 z"
         style="font-size:67.31869507px;text-align:end;line-height:125%;text-anchor:end;stroke:#000000;font-family:Rockwell Extra Bold;-inkscape-font-specification:'Rockwell Extra Bold, Ultra-Bold'"
         id="path4157" />
      <path
         d="m 298.53434,185.01217 -16.40236,0 0,-11.96484 16.40236,0 z"
         style="font-size:67.31869507px;text-align:end;line-height:125%;text-anchor:end;stroke:#000000;font-family:Rockwell Extra Bold;-inkscape-font-specification:'Rockwell Extra Bold, Ultra-Bold'"
         id="path4159" />
      <path
         d="m 325.22515,185.01217 -16.40236,0 0,-11.96484 16.40236,0 z"
         style="font-size:67.31869507px;text-align:end;line-height:125%;text-anchor:end;stroke:#000000;font-family:Rockwell Extra Bold;-inkscape-font-specification:'Rockwell Extra Bold, Ultra-Bold'"
         id="path4161" />
      <path
         d="m 351.91596,185.01217 -16.40236,0 0,-11.96484 16.40236,0 z"
         style="font-size:67.31869507px;text-align:end;line-height:125%;text-anchor:end;stroke:#000000;font-family:Rockwell Extra Bold;-inkscape-font-specification:'Rockwell Extra Bold, Ultra-Bold'"
         id="path4163" />
      <path
         d="m 378.60677,185.01217 -16.40236,0 0,-11.96484 16.40236,0 z"
         style="font-size:67.31869507px;text-align:end;line-height:125%;text-anchor:end;stroke:#000000;font-family:Rockwell Extra Bold;-inkscape-font-specification:'Rockwell Extra Bold, Ultra-Bold'"
         id="path4165" />
      <path
         d="m 405.29758,185.01217 -16.40236,0 0,-11.96484 16.40236,0 z"
         style="font-size:67.31869507px;text-align:end;line-height:125%;text-anchor:end;stroke:#000000;font-family:Rockwell Extra Bold;-inkscape-font-specification:'Rockwell Extra Bold, Ultra-Bold'"
         id="path4167" />
      <path
         d="m 431.98839,185.01217 -16.40236,0 0,-11.96484 16.40236,0 z"
         style="font-size:67.31869507px;text-align:end;line-height:125%;text-anchor:end;stroke:#000000;font-family:Rockwell Extra Bold;-inkscape-font-specification:'Rockwell Extra Bold, Ultra-Bold'"
         id="path4169" />
      <path
         d="m 458.6792,185.01217 -16.40235,0 0,-11.96484 16.40235,0 z"
         style="font-size:67.31869507px;text-align:end;line-height:125%;text-anchor:end;stroke:#000000;font-family:Rockwell Extra Bold;-inkscape-font-specification:'Rockwell Extra Bold, Ultra-Bold'"
         id="path4171" />
      <path
         d="m 485.37003,185.01217 -16.40236,0 0,-11.96484 16.40236,0 z"
         style="font-size:67.31869507px;text-align:end;line-height:125%;text-anchor:end;stroke:#000000;font-family:Rockwell Extra Bold;-inkscape-font-specification:'Rockwell Extra Bold, Ultra-Bold'"
         id="path4173" />
      <path
         d="m 512.06083,185.01217 -16.40236,0 0,-11.96484 16.40236,0 z"
         style="font-size:67.31869507px;text-align:end;line-height:125%;text-anchor:end;stroke:#000000;font-family:Rockwell Extra Bold;-inkscape-font-specification:'Rockwell Extra Bold, Ultra-Bold'"
         id="path4175" />
      <path
         d="m 538.75162,185.01217 -16.40236,0 0,-11.96484 16.40236,0 z"
         style="font-size:67.31869507px;text-align:end;line-height:125%;text-anchor:end;stroke:#000000;font-family:Rockwell Extra Bold;-inkscape-font-specification:'Rockwell Extra Bold, Ultra-Bold'"
         id="path4177" />
      <path
         d="m 565.44245,185.01217 -16.40236,0 0,-11.96484 16.40236,0 z"
         style="font-size:67.31869507px;text-align:end;line-height:125%;text-anchor:end;stroke:#000000;font-family:Rockwell Extra Bold;-inkscape-font-specification:'Rockwell Extra Bold, Ultra-Bold'"
         id="path4179" />
      <path
         d="m 625.00371,185.01217 -27.34822,0 0,-10.51854 6.50835,0 0,-20.67552 c -1.18335,0.30682 -2.80496,0.46022 -4.86483,0.46019 -0.65742,3e-5 -1.20526,-0.0328 -1.64352,-0.0986 l 0,-10.1241 c 0.26295,0.022 0.53687,0.0329 0.82176,0.0329 2.87067,5e-5 5.53318,-0.55875 7.98752,-1.67639 2.49813,-1.13946 4.28409,-2.48715 5.35789,-4.04306 l 6.86992,0 0,36.12463 6.31113,0 z"
         style="font-size:67.31869507px;text-align:end;line-height:125%;text-anchor:end;stroke:#000000;font-family:Rockwell Extra Bold;-inkscape-font-specification:'Rockwell Extra Bold, Ultra-Bold'"
         id="path4181" />
      <path
         d="m 638.84218,198.25897 0,-6.40974 c 1.75309,-1e-5 3.08982,-0.26297 4.0102,-0.78889 0.92036,-0.54785 1.49012,-1.17239 1.70926,-1.87362 0.24104,-0.72315 0.37252,-2.11467 0.39445,-4.17455 l -6.11391,0 0,-11.96484 16.40236,0 0,10.22271 c -2e-5,3.68149 -0.1315,6.1906 -0.39444,7.52733 -0.26299,1.38056 -1.02996,2.71729 -2.30094,4.0102 -1.24909,1.31481 -2.794,2.22422 -4.63473,2.72825 -1.77502,0.48208 -4.7991,0.72313 -9.07225,0.72315 z"
         style="font-size:67.31869507px;text-align:end;line-height:125%;text-anchor:end;stroke:#000000;font-family:Rockwell Extra Bold;-inkscape-font-specification:'Rockwell Extra Bold, Ultra-Bold'"
         id="path4183" />
      <path
         d="m 692.02657,170.71352 9.46669,0 -0.39445,14.29865 -36.38759,0 c -0.0438,-0.92037 -0.0657,-1.39151 -0.0657,-1.41343 -10e-6,-4.25124 0.92037,-8.06421 2.76112,-11.43892 0.94227,-1.73116 2.24613,-3.45138 3.91158,-5.16066 1.66542,-1.70924 3.69243,-3.42946 6.08103,-5.16066 4.03209,-2.98023 6.62886,-5.12776 7.7903,-6.44261 1.1614,-1.35861 1.74211,-2.72821 1.74214,-4.10881 -3e-5,-1.33669 -0.39447,-2.43237 -1.18334,-3.28704 -0.78891,-0.85459 -1.97225,-1.28191 -3.55001,-1.28195 -3.37472,4e-5 -5.06207,2.13662 -5.06205,6.40974 l -11.76762,-0.36157 c 0.24104,-5.23733 1.98317,-8.95168 5.2264,-11.14309 3.26512,-2.1694 7.38488,-3.25413 12.35929,-3.25417 5.43456,4e-5 9.83919,1.24912 13.21393,3.74723 3.37466,2.52011 5.062,5.80715 5.06205,9.86113 -5e-5,2.60776 -0.85468,5.01826 -2.5639,7.2315 -1.75313,2.21331 -5.09495,4.57998 -10.02549,7.10002 -3.98831,2.01607 -6.66177,3.53907 -8.02039,4.569 -1.38058,1.07378 -2.43243,2.28998 -3.15556,3.64862 l 14.39726,0 z"
         style="font-size:67.31869507px;text-align:end;line-height:125%;text-anchor:end;stroke:#000000;font-family:Rockwell Extra Bold;-inkscape-font-specification:'Rockwell Extra Bold, Ultra-Bold'"
         id="path4185" />
      <path
         d="m 725.06139,161.90424 c -2e-5,5.71948 0.4273,9.45575 1.28195,11.20883 0.85461,1.77501 2.03794,2.66251 3.55001,2.6625 1.53393,1e-5 2.70631,-0.93131 3.51714,-2.79398 0.81077,-1.81882 1.21617,-5.51127 1.2162,-11.07735 -3e-5,-5.78517 -0.42734,-9.54335 -1.28194,-11.27456 -0.87658,-1.70923 -2.04895,-2.56386 -3.51714,-2.5639 -1.44633,4e-5 -2.59679,0.85467 -3.4514,2.5639 -0.87657,1.73121 -1.31484,5.48939 -1.31482,11.27456 z m -14.89032,0 c 0,-7.47252 1.93935,-13.25771 5.81807,-17.3556 3.8787,-4.11972 8.49152,-6.1796 13.83847,-6.17964 5.56603,4e-5 10.24459,2.12566 14.03568,6.37686 3.76911,4.25129 5.65368,9.97074 5.65372,17.15838 -4e-5,7.56022 -1.95035,13.36733 -5.85094,17.42134 -3.90066,4.07594 -8.51348,6.11391 -13.83846,6.11391 -5.54417,0 -10.21177,-2.12562 -14.00282,-6.37687 -3.76915,-4.22932 -5.65372,-9.94878 -5.65372,-17.15838 z"
         style="font-size:67.31869507px;text-align:end;line-height:125%;text-anchor:end;stroke:#000000;font-family:Rockwell Extra Bold;-inkscape-font-specification:'Rockwell Extra Bold, Ultra-Bold'"
         id="path4187" />
      <path
         d="m 796.39029,171.60103 c -2.27906,9.33521 -8.44774,14.00281 -18.50606,14.00281 -11.0664,0 -17.80484,-5.42362 -20.21533,-16.27087 l -3.87872,0 0,-5.25928 3.22131,0 c -0.0438,-0.41634 -0.0657,-1.06279 -0.0657,-1.93935 -10e-6,-1.02992 0.0219,-1.77498 0.0657,-2.2352 l -3.22131,0 0,-5.25927 3.94446,0 c 1.18333,-5.12775 3.33086,-9.12151 6.44261,-11.98128 3.11172,-2.85968 6.76034,-4.28955 10.94586,-4.28959 4.47035,4e-5 8.10801,1.09572 10.91299,3.28704 l 0,-2.36667 9.20373,0 0,14.49587 -9.5653,0 c -1.49016,-3.76911 -3.65961,-5.65368 -6.50836,-5.65372 -1.38058,4e-5 -2.62418,0.55336 -3.73079,1.65996 -1.10666,1.10667 -1.97773,2.7228 -2.6132,4.84839 l 8.34909,0 0,5.25927 -9.13798,0 c -0.0439,0.41639 -0.0658,1.13954 -0.0657,2.16945 -10e-6,0.9204 0.0219,1.58876 0.0657,2.0051 l 9.13798,0 0,5.25928 -8.34909,0 c 1.27097,4.40465 3.45137,6.60697 6.54122,6.60696 3.46232,1e-5 5.81804,-2.47623 7.06715,-7.42873 z"
         style="font-size:67.31869507px;text-align:end;line-height:125%;text-anchor:end;stroke:#000000;font-family:Rockwell Extra Bold;-inkscape-font-specification:'Rockwell Extra Bold, Ultra-Bold'"
         id="path4189" />
      <path
         d="m 245.15271,269.16055 -16.40235,0 0,-11.96485 16.40235,0 z"
         style="font-size:67.31869507px;text-align:end;line-height:125%;text-anchor:end;stroke:#000000;font-family:Rockwell Extra Bold;-inkscape-font-specification:'Rockwell Extra Bold, Ultra-Bold'"
         id="path4191" />
      <path
         d="m 271.84352,269.16055 -16.40235,0 0,-11.96485 16.40235,0 z"
         style="font-size:67.31869507px;text-align:end;line-height:125%;text-anchor:end;stroke:#000000;font-family:Rockwell Extra Bold;-inkscape-font-specification:'Rockwell Extra Bold, Ultra-Bold'"
         id="path4193" />
      <path
         d="m 298.53434,269.16055 -16.40236,0 0,-11.96485 16.40236,0 z"
         style="font-size:67.31869507px;text-align:end;line-height:125%;text-anchor:end;stroke:#000000;font-family:Rockwell Extra Bold;-inkscape-font-specification:'Rockwell Extra Bold, Ultra-Bold'"
         id="path4195" />
      <path
         d="m 325.22515,269.16055 -16.40236,0 0,-11.96485 16.40236,0 z"
         style="font-size:67.31869507px;text-align:end;line-height:125%;text-anchor:end;stroke:#000000;font-family:Rockwell Extra Bold;-inkscape-font-specification:'Rockwell Extra Bold, Ultra-Bold'"
         id="path4197" />
      <path
         d="m 351.91596,269.16055 -16.40236,0 0,-11.96485 16.40236,0 z"
         style="font-size:67.31869507px;text-align:end;line-height:125%;text-anchor:end;stroke:#000000;font-family:Rockwell Extra Bold;-inkscape-font-specification:'Rockwell Extra Bold, Ultra-Bold'"
         id="path4199" />
      <path
         d="m 378.60677,269.16055 -16.40236,0 0,-11.96485 16.40236,0 z"
         style="font-size:67.31869507px;text-align:end;line-height:125%;text-anchor:end;stroke:#000000;font-family:Rockwell Extra Bold;-inkscape-font-specification:'Rockwell Extra Bold, Ultra-Bold'"
         id="path4201" />
      <path
         d="m 405.29758,269.16055 -16.40236,0 0,-11.96485 16.40236,0 z"
         style="font-size:67.31869507px;text-align:end;line-height:125%;text-anchor:end;stroke:#000000;font-family:Rockwell Extra Bold;-inkscape-font-specification:'Rockwell Extra Bold, Ultra-Bold'"
         id="path4203" />
      <path
         d="m 431.98839,269.16055 -16.40236,0 0,-11.96485 16.40236,0 z"
         style="font-size:67.31869507px;text-align:end;line-height:125%;text-anchor:end;stroke:#000000;font-family:Rockwell Extra Bold;-inkscape-font-specification:'Rockwell Extra Bold, Ultra-Bold'"
         id="path4205" />
      <path
         d="m 458.6792,269.16055 -16.40236,0 0,-11.96485 16.40236,0 z"
         style="font-size:67.31869507px;text-align:end;line-height:125%;text-anchor:end;stroke:#000000;font-family:Rockwell Extra Bold;-inkscape-font-specification:'Rockwell Extra Bold, Ultra-Bold'"
         id="path4207" />
      <path
         d="m 485.37001,269.16055 -16.40235,0 0,-11.96485 16.40235,0 z"
         style="font-size:67.31869507px;text-align:end;line-height:125%;text-anchor:end;stroke:#000000;font-family:Rockwell Extra Bold;-inkscape-font-specification:'Rockwell Extra Bold, Ultra-Bold'"
         id="path4209" />
      <path
         d="m 512.06083,269.16055 -16.40236,0 0,-11.96485 16.40236,0 z"
         style="font-size:67.31869507px;text-align:end;line-height:125%;text-anchor:end;stroke:#000000;font-family:Rockwell Extra Bold;-inkscape-font-specification:'Rockwell Extra Bold, Ultra-Bold'"
         id="path4211" />
      <path
         d="m 538.75165,269.16055 -16.40236,0 0,-11.96485 16.40236,0 z"
         style="font-size:67.31869507px;text-align:end;line-height:125%;text-anchor:end;stroke:#000000;font-family:Rockwell Extra Bold;-inkscape-font-specification:'Rockwell Extra Bold, Ultra-Bold'"
         id="path4213" />
      <path
         d="m 565.44245,269.16055 -16.40236,0 0,-11.96485 16.40236,0 z"
         style="font-size:67.31869507px;text-align:end;line-height:125%;text-anchor:end;stroke:#000000;font-family:Rockwell Extra Bold;-inkscape-font-specification:'Rockwell Extra Bold, Ultra-Bold'"
         id="path4215" />
      <path
         d="m 605.80736,246.05262 c -2e-5,5.71948 0.4273,9.45575 1.28195,11.20882 0.85461,1.77502 2.03795,2.66252 3.55001,2.66251 1.53393,1e-5 2.70631,-0.93132 3.51714,-2.79399 0.81077,-1.81882 1.21618,-5.51126 1.2162,-11.07734 -2e-5,-5.78517 -0.42734,-9.54336 -1.28194,-11.27457 -0.87658,-1.70923 -2.04895,-2.56386 -3.51714,-2.56389 -1.44632,3e-5 -2.59679,0.85466 -3.4514,2.56389 -0.87657,1.73121 -1.31484,5.4894 -1.31482,11.27457 z m -14.89032,0 c 0,-7.47252 1.93936,-13.25772 5.81807,-17.3556 3.87871,-4.11972 8.49152,-6.1796 13.83847,-6.17965 5.56603,5e-5 10.24459,2.12567 14.03568,6.37687 3.76911,4.25128 5.65368,9.97074 5.65372,17.15838 -4e-5,7.56022 -1.95035,13.36733 -5.85094,17.42134 -3.90066,4.07594 -8.51348,6.11391 -13.83846,6.11391 -5.54417,0 -10.21177,-2.12563 -14.00282,-6.37687 -3.76915,-4.22932 -5.65372,-9.94878 -5.65372,-17.15838 z"
         style="font-size:67.31869507px;text-align:end;line-height:125%;text-anchor:end;stroke:#000000;font-family:Rockwell Extra Bold;-inkscape-font-specification:'Rockwell Extra Bold, Ultra-Bold'"
         id="path4217" />
      <path
         d="m 638.84218,282.40734 0,-6.40974 c 1.75309,0 3.08982,-0.26297 4.0102,-0.78889 0.92036,-0.54784 1.49012,-1.17238 1.70926,-1.87361 0.24104,-0.72316 0.37252,-2.11467 0.39445,-4.17455 l -6.11391,0 0,-11.96485 16.40236,0 0,10.22272 c -2e-5,3.68148 -0.1315,6.19059 -0.39444,7.52733 -0.26299,1.38055 -1.02997,2.71728 -2.30094,4.0102 -1.24909,1.3148 -2.794,2.22422 -4.63473,2.72824 -1.77502,0.48209 -4.7991,0.72314 -9.07225,0.72315 z"
         style="font-size:67.31869507px;text-align:end;line-height:125%;text-anchor:end;stroke:#000000;font-family:Rockwell Extra Bold;-inkscape-font-specification:'Rockwell Extra Bold, Ultra-Bold'"
         id="path4219" />
      <path
         d="m 663.10057,256.867 11.8991,-0.75602 c 1.05184,2.49816 3.07885,3.74724 6.08103,3.74723 1.77499,1e-5 3.27607,-0.48209 4.50326,-1.4463 1.18331,-0.96419 1.77498,-2.47623 1.775,-4.53612 -2e-5,-2.01604 -0.59169,-3.49521 -1.775,-4.43751 -1.20528,-0.92036 -2.60775,-1.38054 -4.20742,-1.38056 -2.45435,2e-5 -4.51423,0.89848 -6.17965,2.69537 l -9.95975,-3.51713 1.38056,-23.79822 33.69222,0 0,11.96485 -7.72456,0 -1.08472,-2.79399 -16.33662,0 -0.39444,9.07225 c 2.93641,-1.84072 6.43163,-2.76109 10.48567,-2.76112 4.95246,3e-5 9.0503,1.3258 12.29355,3.97732 3.24318,2.65158 4.86479,6.28924 4.86483,10.913 -4e-5,4.51422 -1.7093,8.2724 -5.12779,11.27456 -3.44047,3.00217 -8.2286,4.50326 -14.36439,4.50326 -5.39077,0 -9.85019,-1.13951 -13.37828,-3.41853 -3.50618,-2.2571 -5.65372,-5.35788 -6.4426,-9.30234 z"
         style="font-size:67.31869507px;text-align:end;line-height:125%;text-anchor:end;stroke:#000000;font-family:Rockwell Extra Bold;-inkscape-font-specification:'Rockwell Extra Bold, Ultra-Bold'"
         id="path4221" />
      <path
         d="m 725.06139,246.05262 c -2e-5,5.71948 0.4273,9.45575 1.28195,11.20882 0.85461,1.77502 2.03794,2.66252 3.55001,2.66251 1.53393,1e-5 2.7063,-0.93132 3.51714,-2.79399 0.81077,-1.81882 1.21617,-5.51126 1.2162,-11.07734 -3e-5,-5.78517 -0.42734,-9.54336 -1.28195,-11.27457 -0.87657,-1.70923 -2.04895,-2.56386 -3.51713,-2.56389 -1.44633,3e-5 -2.59679,0.85466 -3.4514,2.56389 -0.87657,1.73121 -1.31484,5.4894 -1.31482,11.27457 z m -14.89032,0 c 0,-7.47252 1.93935,-13.25772 5.81807,-17.3556 3.8787,-4.11972 8.49152,-6.1796 13.83847,-6.17965 5.56603,5e-5 10.24459,2.12567 14.03568,6.37687 3.76911,4.25128 5.65368,9.97074 5.65372,17.15838 -4e-5,7.56022 -1.95036,13.36733 -5.85094,17.42134 -3.90066,4.07594 -8.51348,6.11391 -13.83846,6.11391 -5.54417,0 -10.21177,-2.12563 -14.00282,-6.37687 -3.76915,-4.22932 -5.65372,-9.94878 -5.65372,-17.15838 z"
         style="font-size:67.31869507px;text-align:end;line-height:125%;text-anchor:end;stroke:#000000;font-family:Rockwell Extra Bold;-inkscape-font-specification:'Rockwell Extra Bold, Ultra-Bold'"
         id="path4223" />
      <path
         d="m 796.39026,255.7494 c -2.27906,9.33522 -8.44774,14.00282 -18.50606,14.00282 -11.06641,0 -17.80484,-5.42362 -20.21534,-16.27088 l -3.87871,0 0,-5.25927 3.22131,0 c -0.0438,-0.41634 -0.0658,-1.06279 -0.0658,-1.93936 0,-1.02992 0.0219,-1.77498 0.0658,-2.23519 l -3.22131,0 0,-5.25927 3.94446,0 c 1.18333,-5.12776 3.33086,-9.12151 6.44261,-11.98128 3.11172,-2.85969 6.76033,-4.28955 10.94586,-4.2896 4.47035,5e-5 8.10801,1.09573 10.91299,3.28705 l 0,-2.36668 9.20373,0 0,14.49588 -9.56531,0 c -1.49015,-3.76911 -3.6596,-5.65369 -6.50835,-5.65372 -1.38058,3e-5 -2.62418,0.55335 -3.73079,1.65996 -1.10666,1.10667 -1.97773,2.7228 -2.6132,4.84839 l 8.34909,0 0,5.25927 -9.13799,0 c -0.0438,0.41638 -0.0658,1.13953 -0.0657,2.16945 -2e-5,0.9204 0.0219,1.58876 0.0657,2.0051 l 9.13799,0 0,5.25927 -8.34909,0 c 1.27097,4.40465 3.45137,6.60697 6.54122,6.60696 3.46232,10e-6 5.81803,-2.47623 7.06714,-7.42872 z"
         style="font-size:67.31869507px;text-align:end;line-height:125%;text-anchor:end;stroke:#000000;font-family:Rockwell Extra Bold;-inkscape-font-specification:'Rockwell Extra Bold, Ultra-Bold'"
         id="path4225" />
      <path
         d="m 405.29758,353.30893 -16.40236,0 0,-11.96485 16.40236,0 z"
         style="font-size:67.31869507px;text-align:end;line-height:125%;text-anchor:end;stroke:#000000;font-family:Rockwell Extra Bold;-inkscape-font-specification:'Rockwell Extra Bold, Ultra-Bold'"
         id="path4227" />
      <path
         d="m 431.98839,353.30893 -16.40236,0 0,-11.96485 16.40236,0 z"
         style="font-size:67.31869507px;text-align:end;line-height:125%;text-anchor:end;stroke:#000000;font-family:Rockwell Extra Bold;-inkscape-font-specification:'Rockwell Extra Bold, Ultra-Bold'"
         id="path4229" />
      <path
         d="m 458.6792,353.30893 -16.40236,0 0,-11.96485 16.40236,0 z"
         style="font-size:67.31869507px;text-align:end;line-height:125%;text-anchor:end;stroke:#000000;font-family:Rockwell Extra Bold;-inkscape-font-specification:'Rockwell Extra Bold, Ultra-Bold'"
         id="path4231" />
      <path
         d="m 485.37001,353.30893 -16.40236,0 0,-11.96485 16.40236,0 z"
         style="font-size:67.31869507px;text-align:end;line-height:125%;text-anchor:end;stroke:#000000;font-family:Rockwell Extra Bold;-inkscape-font-specification:'Rockwell Extra Bold, Ultra-Bold'"
         id="path4233" />
      <path
         d="m 512.06082,353.30893 -16.40236,0 0,-11.96485 16.40236,0 z"
         style="font-size:67.31869507px;text-align:end;line-height:125%;text-anchor:end;stroke:#000000;font-family:Rockwell Extra Bold;-inkscape-font-specification:'Rockwell Extra Bold, Ultra-Bold'"
         id="path4235" />
      <path
         d="m 538.75163,353.30893 -16.40235,0 0,-11.96485 16.40235,0 z"
         style="font-size:67.31869507px;text-align:end;line-height:125%;text-anchor:end;stroke:#000000;font-family:Rockwell Extra Bold;-inkscape-font-specification:'Rockwell Extra Bold, Ultra-Bold'"
         id="path4237" />
      <path
         d="m 565.44244,353.30893 -16.40235,0 0,-11.96485 16.40235,0 z"
         style="font-size:67.31869507px;text-align:end;line-height:125%;text-anchor:end;stroke:#000000;font-family:Rockwell Extra Bold;-inkscape-font-specification:'Rockwell Extra Bold, Ultra-Bold'"
         id="path4239" />
      <path
         d="m 625.0037,353.30893 -27.34821,0 0,-10.51855 6.50835,0 0,-20.67552 c -1.18336,0.30682 -2.80496,0.46022 -4.86483,0.46019 -0.65742,3e-5 -1.20526,-0.0328 -1.64352,-0.0986 l 0,-10.1241 c 0.26295,0.0219 0.53687,0.0329 0.82176,0.0329 2.87067,4e-5 5.53317,-0.55876 7.98752,-1.6764 2.49813,-1.13946 4.28409,-2.48715 5.35788,-4.04306 l 6.86993,0 0,36.12463 6.31112,0 z"
         style="font-size:67.31869507px;text-align:end;line-height:125%;text-anchor:end;stroke:#000000;font-family:Rockwell Extra Bold;-inkscape-font-specification:'Rockwell Extra Bold, Ultra-Bold'"
         id="path4241" />
      <path
         d="m 638.84218,366.55572 0,-6.40974 c 1.75308,-1e-5 3.08982,-0.26297 4.0102,-0.78889 0.92036,-0.54785 1.49011,-1.17238 1.70926,-1.87362 0.24104,-0.72315 0.37252,-2.11466 0.39445,-4.17454 l -6.11391,0 0,-11.96485 16.40236,0 0,10.22271 c -2e-5,3.68149 -0.1315,6.1906 -0.39445,7.52734 -0.26298,1.38055 -1.02996,2.71728 -2.30093,4.01019 -1.24909,1.31481 -2.794,2.22422 -4.63473,2.72825 -1.77502,0.48209 -4.7991,0.72314 -9.07225,0.72315 z"
         style="font-size:67.31869507px;text-align:end;line-height:125%;text-anchor:end;stroke:#000000;font-family:Rockwell Extra Bold;-inkscape-font-specification:'Rockwell Extra Bold, Ultra-Bold'"
         id="path4243" />
      <path
         d="m 663.10056,341.01538 11.89911,-0.75603 c 1.05184,2.49817 3.07885,3.74725 6.08103,3.74724 1.77498,10e-6 3.27607,-0.48209 4.50325,-1.4463 1.18332,-0.96419 1.77498,-2.47623 1.77501,-4.53613 -3e-5,-2.01603 -0.59169,-3.4952 -1.77501,-4.43751 -1.20527,-0.92035 -2.60774,-1.38054 -4.20741,-1.38056 -2.45435,2e-5 -4.51423,0.89848 -6.17965,2.69538 l -9.95975,-3.51714 1.38056,-23.79821 33.69222,0 0,11.96485 -7.72456,0 -1.08472,-2.79399 -16.33662,0 -0.39445,9.07224 c 2.93641,-1.84071 6.43164,-2.76108 10.48568,-2.76111 4.95245,3e-5 9.0503,1.3258 12.29355,3.97732 3.24318,2.65158 4.86479,6.28924 4.86483,10.91299 -4e-5,4.51422 -1.70931,8.27241 -5.12779,11.27457 -3.44048,3.00217 -8.2286,4.50325 -14.36439,4.50325 -5.39077,0 -9.85019,-1.13951 -13.37828,-3.41853 -3.50619,-2.25709 -5.65372,-5.35787 -6.44261,-9.30233 z"
         style="font-size:67.31869507px;text-align:end;line-height:125%;text-anchor:end;stroke:#000000;font-family:Rockwell Extra Bold;-inkscape-font-specification:'Rockwell Extra Bold, Ultra-Bold'"
         id="path4245" />
      <path
         d="m 725.06139,330.201 c -2e-5,5.71947 0.42729,9.45574 1.28194,11.20882 0.85462,1.77502 2.03795,2.66252 3.55001,2.66251 1.53393,10e-6 2.70631,-0.93132 3.51714,-2.79399 0.81078,-1.81882 1.21618,-5.51126 1.21621,-11.07734 -3e-5,-5.78518 -0.42734,-9.54336 -1.28195,-11.27457 -0.87657,-1.70923 -2.04895,-2.56386 -3.51714,-2.5639 -1.44632,4e-5 -2.59678,0.85467 -3.4514,2.5639 -0.87656,1.73121 -1.31483,5.48939 -1.31481,11.27457 z m -14.89032,0 c 0,-7.47252 1.93935,-13.25772 5.81807,-17.35561 3.8787,-4.11972 8.49152,-6.1796 13.83846,-6.17964 5.56604,4e-5 10.2446,2.12567 14.03569,6.37687 3.7691,4.25128 5.65367,9.97073 5.65372,17.15838 -5e-5,7.56022 -1.95036,13.36732 -5.85094,17.42134 -3.90067,4.07594 -8.51348,6.1139 -13.83847,6.1139 -5.54417,0 -10.21177,-2.12562 -14.00281,-6.37687 -3.76915,-4.22932 -5.65372,-9.94877 -5.65372,-17.15837 z"
         style="font-size:67.31869507px;text-align:end;line-height:125%;text-anchor:end;stroke:#000000;font-family:Rockwell Extra Bold;-inkscape-font-specification:'Rockwell Extra Bold, Ultra-Bold'"
         id="path4247" />
      <path
         d="m 796.39026,339.89778 c -2.27906,9.33521 -8.44774,14.00281 -18.50607,14.00281 -11.0664,0 -17.80483,-5.42362 -20.21533,-16.27087 l -3.87871,0 0,-5.25927 3.2213,0 c -0.0438,-0.41634 -0.0657,-1.06279 -0.0657,-1.93936 0,-1.02992 0.0219,-1.77498 0.0657,-2.23519 l -3.2213,0 0,-5.25928 3.94445,0 c 1.18333,-5.12775 3.33087,-9.12151 6.44261,-11.98128 3.11173,-2.85968 6.76034,-4.28955 10.94586,-4.28959 4.47036,4e-5 8.10802,1.09573 10.913,3.28704 l 0,-2.36667 9.20372,0 0,14.49587 -9.5653,0 c -1.49016,-3.76911 -3.65961,-5.65368 -6.50835,-5.65372 -1.38058,4e-5 -2.62418,0.55336 -3.7308,1.65996 -1.10666,1.10667 -1.97772,2.7228 -2.6132,4.84839 l 8.3491,0 0,5.25928 -9.13799,0 c -0.0438,0.41638 -0.0658,1.13953 -0.0657,2.16945 -2e-5,0.92039 0.0219,1.58876 0.0657,2.0051 l 9.13799,0 0,5.25927 -8.3491,0 c 1.27097,4.40465 3.45138,6.60697 6.54122,6.60696 3.46233,1e-5 5.81804,-2.47623 7.06715,-7.42872 z"
         style="font-size:67.31869507px;text-align:end;line-height:125%;text-anchor:end;stroke:#000000;font-family:Rockwell Extra Bold;-inkscape-font-specification:'Rockwell Extra Bold, Ultra-Bold'"
         id="path4249" />
    </g>
    <g
       id="g3911"
       transform="matrix(1.0111431,0,0,1.0111431,-40.117182,-5.888806)">
      <g
         transform="matrix(0.67690964,-0.4835194,0.4835194,0.67690964,-180.31022,261.04447)"
         style="font-size:144px;font-style:normal;font-variant:normal;font-weight:800;font-stretch:normal;text-align:start;line-height:125%;letter-spacing:0px;word-spacing:0px;writing-mode:lr-tb;text-anchor:start;fill:none;stroke:#000000;stroke-width:1.25;stroke-miterlimit:4;stroke-opacity:1;font-family:Rockwell Extra Bold;-inkscape-font-specification:'Rockwell Extra Bold, Ultra-Bold'"
         id="flowRoot2985-5-7">
        <path
           d="m 372.26769,165.98018 0,9.0065 3.97732,0 c 2.54195,1e-5 4.37174,-0.32869 5.48937,-0.98611 1.09564,-0.6574 1.64348,-1.81882 1.64352,-3.48427 -4e-5,-1.55585 -0.49309,-2.70632 -1.47917,-3.4514 -0.98615,-0.72313 -2.89263,-1.0847 -5.71946,-1.08472 z m 0,-16.66532 0,8.34909 3.91158,0 c 2.65152,3e-5 4.39365,-0.38346 5.2264,-1.15046 0.78886,-0.76695 1.1833,-1.77498 1.18334,-3.02408 -4e-5,-1.07374 -0.36161,-2.03794 -1.08473,-2.8926 -0.72318,-0.8546 -2.70636,-1.28192 -5.94955,-1.28195 z m 4.20741,35.69731 -25.86905,0 0,-10.94586 3.97733,0 0,-23.83108 -3.97733,0 0,-10.94586 27.93989,0 c 5.47838,4e-5 9.71866,0.31779 12.72087,0.95324 2.95829,0.65745 5.28114,1.96131 6.96854,3.91159 1.68729,1.99418 2.53097,4.31702 2.53102,6.96853 -5e-5,2.58584 -0.7999,4.64572 -2.39954,6.17965 -1.64357,1.57781 -3.63771,2.67349 -5.98243,3.28704 3.22126,0.96423 5.6975,2.45435 7.42873,4.47039 1.75304,2.0599 2.62958,4.37178 2.62963,6.93566 -5e-5,3.06792 -0.98616,5.67564 -2.95834,7.82317 -1.97227,2.12563 -4.67861,3.51714 -8.119,4.17455 -3.39665,0.67932 -8.36009,1.01898 -14.89032,1.01898 z"
           style="font-size:67.31869507px;text-align:center;line-height:125%;text-anchor:middle;stroke:#000000;font-family:Rockwell Extra Bold;-inkscape-font-specification:'Rockwell Extra Bold, Ultra-Bold'"
           id="path4252" />
        <path
           d="m 410.49603,163.15332 -3.84585,0 0,-10.02549 20.37969,0 0,15.18615 c -3e-5,2.56391 0.24102,4.28413 0.72315,5.16066 0.46016,0.89847 1.44627,1.3477 2.95834,1.34769 1.84071,1e-5 3.54998,-0.49304 5.12779,-1.47917 l 0,-10.18984 -4.37177,0 0,-10.02549 20.90561,0 0,21.85885 3.84584,0 0,10.02549 -20.37968,0 0,-4.04306 c -4.36084,3.08982 -8.82026,4.63473 -13.37828,4.63473 -3.26514,0 -6.07009,-1.0409 -8.41483,-3.12269 -2.36668,-2.08179 -3.55002,-6.00433 -3.55001,-11.76763 z"
           style="font-size:67.31869507px;text-align:center;line-height:125%;text-anchor:middle;stroke:#000000;font-family:Rockwell Extra Bold;-inkscape-font-specification:'Rockwell Extra Bold, Ultra-Bold'"
           id="path4254" />
        <path
           d="m 480.80593,199.63953 -13.93707,0 0,-9.69679 5.35788,0 1.61066,-3.25417 -12.22781,-23.53525 -2.46529,0 0,-10.02549 21.72737,0 0,10.02549 -3.51713,0 5.5551,12.52364 5.12779,-12.52364 -3.08982,0 0,-10.02549 16.4681,0 0,10.02549 -3.18843,0 z"
           style="font-size:67.31869507px;text-align:center;line-height:125%;text-anchor:middle;stroke:#000000;font-family:Rockwell Extra Bold;-inkscape-font-specification:'Rockwell Extra Bold, Ultra-Bold'"
           id="path4256" />
      </g>
      <path
         transform="matrix(0.41163053,-0.27192988,0.27192988,0.41163053,463.38401,-76.668964)"
         style="fill:none;stroke:#000000;stroke-width:1.25;stroke-miterlimit:4;stroke-dashoffset:0;stroke-opacity:1"
         inkscape:transform-center-x="2.392233"
         inkscape:transform-center-y="0.28661546"
         d="m -531.34025,199.79344 -104.28765,0.63274 12.68132,103.51569 -84.7424,-60.78684 -50.58559,91.19984 -32.82843,-98.98791 -94.53053,44.04875 31.62488,-99.37897 -102.36801,-19.92746 83.99855,-61.810639 -71.10439,-76.292058 104.28764,-0.632749 -12.68131,-103.515685 84.74239,60.786835 50.5856,-91.199834 32.82843,98.987908 94.53052,-44.048754 -31.62487,99.378973 102.36801,19.927457 -83.99856,61.810646 z"
         id="path4238" />
    </g>
    <g
       transform="matrix(-0.70707553,-0.70713803,0.70713803,-0.70707553,155.43608,410.76424)"
       style="font-size:119.788414px;font-style:normal;font-variant:normal;font-weight:800;font-stretch:normal;text-align:start;line-height:125%;letter-spacing:0px;word-spacing:0px;writing-mode:lr-tb;text-anchor:start;fill:none;stroke:#000000;stroke-width:1.03982997;stroke-miterlimit:4;stroke-opacity:1;font-family:Rockwell Extra Bold;-inkscape-font-specification:'Rockwell Extra Bold, Ultra-Bold'"
       id="text3108">
      <path
         d="m 108.71264,24.832217 10.05509,4.515068 c 1.59247,-1.987633 1.83001,-4.046977 0.71263,-6.178039 -0.68566,-1.307725 -1.75141,-2.241185 -3.19728,-2.800383 -1.42969,-0.567692 -2.83069,-0.49177 -4.20299,0.227767 -1.48528,0.778762 -2.60777,2.190623 -3.36745,4.235587 z m -14.821619,8.357941 -5.133969,2.691862 -4.228255,-8.064205 14.215282,-7.45341 3.404361,1.4877 c 1.95168,-3.657931 5.13931,-6.646589 9.5629,-8.965982 4.1976,-2.200898 7.81253,-2.902486 10.84482,-2.104765 3.01615,0.806176 5.29454,2.678419 6.83517,5.616736 1.39671,2.663839 1.65201,5.545376 0.7659,8.644622 -0.8938,3.123818 -2.64282,5.872752 -5.24707,8.24681 1.89982,1.267974 3.31953,2.797997 4.25915,4.590072 1.24435,2.373216 1.34414,4.801136 0.29937,7.283768 -1.01249,2.465624 -3.57716,4.777738 -7.69402,6.936351 -1.50144,0.787196 -3.28737,1.620689 -5.35781,2.500483 l -3.66957,-6.998665 c 0.18607,-0.07701 0.38404,-0.170519 0.59391,-0.280522 2.14723,-1.125882 2.81876,-2.455668 2.01458,-3.989362 -0.37245,-0.710397 -1.58233,-1.506541 -3.62965,-2.388435 l -5.78546,-2.554812 c -0.39016,3.024406 -0.42694,6.19288 -0.11036,9.505432 L 97.378629,52.32525 92.82024,43.631407 96.670716,41.61251 c -8.42e-4,-2.160785 0.335053,-4.405486 1.007685,-6.73411 z"
         style="font-size:55.99999619px;text-align:center;line-height:125%;text-anchor:middle;stroke:#000000;font-family:Rockwell Extra Bold;-inkscape-font-specification:'Rockwell Extra Bold, Ultra-Bold'"
         id="path4260" />
      <path
         d="m 63.563586,46.633468 5.883489,-6.140111 6.080882,5.826736 -5.50513,5.745248 c -2.965663,-0.01407 -5.287191,0.854173 -6.964592,2.604744 -1.689995,1.763701 -2.17304,2.992389 -1.449137,3.686067 0.368548,0.353115 0.834406,0.433423 1.397575,0.240923 0.588962,-0.193091 1.900922,-0.943094 3.935885,-2.250012 1.680188,-1.015738 3.558331,-2.119487 5.634437,-3.31125 1.782728,-1.043709 3.380678,-1.68378 4.793855,-1.920215 1.438389,-0.262784 2.592465,-0.255184 3.46223,0.0228 0.894972,0.251636 1.822877,0.837798 2.78372,1.758486 2.119081,2.030513 2.959904,4.275269 2.522471,6.734275 -0.438012,2.433191 -1.754252,4.794896 -3.948724,7.085124 -2.270165,2.369144 -4.622083,3.92781 -7.05576,4.676001 l 0.987156,0.945899 -5.807818,6.061138 -5.56756,-5.334868 5.372704,-5.607047 c 2.66624,-0.121399 4.920032,-1.142915 6.761385,-3.064551 1.450371,-1.513664 1.774116,-2.655148 0.971236,-3.424456 -0.381706,-0.365769 -0.846189,-0.381642 -1.39345,-0.04762 -0.48421,0.26817 -1.977943,1.260571 -4.481205,2.977207 -2.846535,1.94309 -5.182285,3.353142 -7.007257,4.23016 -1.812347,0.863797 -3.467621,1.234341 -4.965828,1.111633 -1.485571,-0.135932 -2.840398,-0.790338 -4.064487,-1.963223 -2.211211,-2.118839 -3.055059,-4.505353 -2.531547,-7.159547 0.524099,-2.628464 1.933829,-5.140433 4.229193,-7.535915 2.282781,-2.382349 4.653066,-3.986531 7.110864,-4.812552 z"
         style="font-size:55.99999619px;text-align:center;line-height:125%;text-anchor:middle;stroke:#000000;font-family:Rockwell Extra Bold;-inkscape-font-specification:'Rockwell Extra Bold, Ultra-Bold'"
         id="path4262" />
      <path
         d="m 60.92904,76.125499 1.631228,-2.752107 7.174297,4.252345 -8.644111,14.583818 -10.867297,-6.441257 c -1.834739,-1.087507 -3.167979,-1.644647 -3.999725,-1.671422 -0.83813,-0.05179 -1.577864,0.463332 -2.219204,1.545379 -0.780754,1.317224 -1.15291,2.749514 -1.116467,4.296872 l 7.291909,4.322056 1.854301,-3.128464 7.174297,4.252345 -8.867185,14.960176 -15.642321,-9.27151 -1.631227,2.75211 -7.174298,-4.252346 8.644112,-14.583818 2.893241,1.714881 c -0.361431,-4.431202 0.424501,-8.277668 2.357798,-11.53941 1.384923,-2.336557 3.319521,-3.90229 5.803799,-4.697204 2.493577,-0.810611 5.802482,0.0063 9.926727,2.45087 z"
         style="font-size:55.99999619px;text-align:center;line-height:125%;text-anchor:middle;stroke:#000000;font-family:Rockwell Extra Bold;-inkscape-font-specification:'Rockwell Extra Bold, Ultra-Bold'"
         id="path4264" />
      <path
         d="m 32.342831,123.18336 c -1.842932,-0.51699 -3.347678,-0.48471 -4.514241,0.0969 -1.179198,0.55903 -1.946042,1.47042 -2.300534,2.73417 -0.84192,3.00131 0.650251,5.03864 4.476519,6.11199 3.738499,1.04868 6.011478,0.1338 6.818946,-2.74465 0.369251,-1.3164 0.218165,-2.53262 -0.453258,-3.64865 -0.684074,-1.13855 -2.02655,-1.98845 -4.027432,-2.54971 z m 9.400976,-14.88519 8.029894,2.25251 -4.578868,16.32306 -1.711289,-0.48004 c 0.669008,3.21689 0.587485,6.30846 -0.24457,9.27473 -1.063496,3.79112 -3.205424,6.70231 -6.425788,8.73357 -3.233017,2.0087 -6.850409,2.45179 -10.852187,1.32927 -4.036884,-1.13245 -6.850786,-3.35122 -8.441714,-6.65631 -1.603542,-3.32764 -1.807111,-7.12396 -0.610706,-11.38899 0.886239,-3.15933 2.346526,-5.66534 4.380865,-7.51806 l -5.318159,-1.49182 -0.945315,3.36992 -8.0298936,-2.25251 5.5389526,-19.74564 8.029894,2.25251 -0.878847,3.13298 21.193654,5.94514 z"
         style="font-size:55.99999619px;text-align:center;line-height:125%;text-anchor:middle;stroke:#000000;font-family:Rockwell Extra Bold;-inkscape-font-specification:'Rockwell Extra Bold, Ultra-Bold'"
         id="path4266" />
      <path
         d="m 25.565892,164.03015 c -1.913935,-0.023 -3.35918,0.39723 -4.335738,1.2606 -0.994585,0.84489 -1.499741,1.92354 -1.515471,3.23597 -0.03738,3.11694 1.930763,4.69924 5.904445,4.74692 3.882516,0.0465 5.841703,-1.42488 5.877568,-4.41422 0.01637,-1.36711 -0.443999,-2.50292 -1.381119,-3.40743 -0.955164,-0.923 -2.471724,-1.39694 -4.549685,-1.42184 z m 5.233176,-16.80956 8.339244,0.1 -0.203271,16.9519 -1.777216,-0.0213 c 1.477914,2.93458 2.198415,5.94213 2.161503,9.02266 -0.04724,3.93719 -1.363732,7.30315 -3.949485,10.0979 -2.603807,2.77623 -5.983673,4.13945 -10.139607,4.08966 -4.192415,-0.0503 -7.484266,-1.46619 -9.875561,-4.24762 -2.40931,-2.79996 -3.587407,-6.4146 -3.534295,-10.84394 0.03934,-3.28104 0.802117,-6.07938 2.288322,-8.39504 l -5.5230401,-0.0662 -0.041966,3.49975 -8.33924368,-0.1 0.24589244,-20.50634 8.33924364,0.1 -0.039015,3.25367 22.0101352,0.26392 z"
         style="font-size:55.99999619px;text-align:center;line-height:125%;text-anchor:middle;stroke:#000000;font-family:Rockwell Extra Bold;-inkscape-font-specification:'Rockwell Extra Bold, Ultra-Bold'"
         id="path4268" />
      <path
         d="m 29.134291,202.78967 c -4.107499,1.00717 -5.800915,2.98024 -5.080252,5.91923 0.764053,3.11601 3.217531,4.16609 7.360441,3.15025 1.89438,-0.46454 3.27053,-1.20551 4.128454,-2.22293 0.853536,-1.03516 1.106664,-2.26092 0.759387,-3.67727 -0.342985,-1.39869 -1.132091,-2.39704 -2.367321,-2.99505 -1.235274,-0.59805 -2.835508,-0.65612 -4.800709,-0.17423 z m -3.261452,-13.53055 c 3.788785,-0.92903 7.375192,-0.11921 10.759231,2.42947 3.38399,2.54867 5.740213,6.53182 7.068674,11.94946 1.337081,5.45302 1.167538,10.19627 -0.508627,14.22976 -1.676228,4.03343 -4.532658,6.54507 -8.569299,7.53491 -3.895049,0.95505 -7.543252,0.12284 -10.944621,-2.49661 -3.401391,-2.61953 -5.757613,-6.60268 -7.068673,-11.94947 -1.41526,-5.77174 -1.21665,-10.58781 0.595828,-14.44822 1.794765,-3.85608 4.683924,-6.27251 8.667487,-7.2493 z"
         style="font-size:55.99999619px;text-align:center;line-height:125%;text-anchor:middle;stroke:#000000;font-family:Rockwell Extra Bold;-inkscape-font-specification:'Rockwell Extra Bold, Ultra-Bold'"
         id="path4270" />
      <path
         d="m 33.056637,251.67469 -9.353022,-19.22877 7.499712,-3.64792 1.578771,3.24578 8.852119,-4.30574 -1.578771,-3.24578 7.499712,-3.64792 7.200152,14.80271 -5.97518,2.90638 c 1.76282,-0.16825 3.468268,0.0664 5.116348,0.70408 1.607704,0.59642 2.854576,1.38865 3.740617,2.37668 0.845658,0.94681 1.786788,2.48575 2.823391,4.61683 l -10.499597,5.10709 c -0.119185,-0.28667 -0.278434,-0.63491 -0.477747,-1.04471 -1.227958,-2.52451 -2.395022,-4.27789 -3.501194,-5.26016 -1.146532,-1.0235 -2.257629,-1.55742 -3.333295,-1.60178 -1.116465,-0.0448 -2.399957,0.2754 -3.850481,0.96069 l 1.758177,3.61462 z"
         style="font-size:55.99999619px;text-align:center;line-height:125%;text-anchor:middle;stroke:#000000;font-family:Rockwell Extra Bold;-inkscape-font-specification:'Rockwell Extra Bold, Ultra-Bold'"
         id="path4272" />
      <path
         d="m 57.937543,271.75933 -6.649374,4.70987 c -1.007201,-0.38121 -2.186691,-1.13182 -3.538472,-2.25181 -1.419363,-1.18387 -2.603186,-2.44519 -3.551473,-3.78398 -1.190644,-1.68095 -1.937497,-3.3188 -2.240561,-4.91357 -0.309273,-1.63507 -0.209158,-3.10216 0.300345,-4.40127 0.308047,-0.73199 0.630974,-1.34049 0.968783,-1.82548 0.337794,-0.485 0.762989,-0.96489 1.275584,-1.43965 0.908022,-0.79955 2.767775,-2.19503 5.579267,-4.18645 l 3.637073,-2.57621 -1.95981,-2.76685 6.805567,-4.8205 1.959811,2.76685 3.324687,-2.35493 13.282764,7.44623 -8.657575,6.13231 3.2084,4.52961 -6.805568,4.8205 -3.208399,-4.52961 -4.194908,2.97133 c -1.368571,0.96936 -2.193855,1.7438 -2.475856,2.32333 -0.292575,0.56463 -0.164901,1.23372 0.383021,2.00726 0.516275,0.72889 1.368505,1.44323 2.556694,2.14302 z"
         style="font-size:55.99999619px;text-align:center;line-height:125%;text-anchor:middle;stroke:#000000;font-family:Rockwell Extra Bold;-inkscape-font-specification:'Rockwell Extra Bold, Ultra-Bold'"
         id="path4274" />
      <path
         d="m 74.877808,278.8388 -2.507372,-1.98698 5.179733,-6.53631 13.286926,10.52929 -7.846021,9.90091 c -1.324675,1.67157 -2.05628,2.91764 -2.194817,3.73821 -0.164188,0.82352 0.24663,1.62588 1.232455,2.4071 1.200086,0.95102 2.569213,1.51266 4.107385,1.68493 l 5.264646,-6.64347 -2.85026,-2.2587 5.179733,-6.53631 13.629814,10.80102 -11.293515,14.2513 2.507371,1.98698 -5.179732,6.53631 -13.286926,-10.5293 2.088875,-2.63595 c -4.43951,-0.23859 -8.145103,-1.53534 -11.116789,-3.89027 -2.128774,-1.68696 -3.419724,-3.81478 -3.872855,-6.38348 -0.467431,-2.58002 0.787674,-5.74877 3.765321,-9.50626 z"
         style="font-size:55.99999619px;text-align:center;line-height:125%;text-anchor:middle;stroke:#000000;font-family:Rockwell Extra Bold;-inkscape-font-specification:'Rockwell Extra Bold, Ultra-Bold'"
         id="path4276" />
      <path
         d="m 105.86047,322.83322 -7.692264,-3.62566 3.590684,-7.61807 7.19759,3.3925 c 0.92969,2.81621 2.49108,4.74115 4.68417,5.77484 2.20955,1.04145 3.52807,1.10872 3.95555,0.20181 0.2176,-0.4617 0.1456,-0.92892 -0.21599,-1.40164 -0.37034,-0.497 -1.4986,-1.50237 -3.38477,-3.01614 -1.49729,-1.26999 -3.14097,-2.69967 -4.93104,-4.28906 -1.55642,-1.35832 -2.67139,-2.6698 -3.34492,-3.93444 -0.70652,-1.28017 -1.0663,-2.37676 -1.07931,-3.28978 -0.046,-0.92853 0.21467,-1.99467 0.78204,-3.1984 1.25129,-2.65477 3.11216,-4.16574 5.58264,-4.53294 2.44617,-0.35843 5.10384,0.13851 7.973,1.49082 2.96806,1.39899 5.19369,3.1332 6.67692,5.20265 l 0.5829,-1.2367 7.59333,3.57903 -3.28757,6.97498 -7.02445,-3.31089 c -0.96292,-2.48925 -2.64809,-4.30124 -5.0555,-5.43597 -1.8963,-0.89377 -3.08148,-0.83774 -3.55555,0.1681 -0.22541,0.4782 -0.0928,0.92362 0.39795,1.33626 0.40822,0.37381 1.82409,1.47444 4.24762,3.30192 2.74739,2.08091 4.82699,3.84706 6.23879,5.29843 1.39526,1.44361 2.27292,2.89514 2.63299,4.3546 0.34351,1.45169 0.15388,2.94429 -0.56888,4.4778 -1.30574,2.7702 -3.30005,4.32912 -5.98295,4.67677 -2.6587,0.33891 -5.48856,-0.19889 -8.48959,-1.61339 -2.98458,-1.40675 -5.25921,-3.1439 -6.8239,-5.21147 z"
         style="font-size:55.99999619px;text-align:center;line-height:125%;text-anchor:middle;stroke:#000000;font-family:Rockwell Extra Bold;-inkscape-font-specification:'Rockwell Extra Bold, Ultra-Bold'"
         id="path4278" />
    </g>
  </g>
  <g
     inkscape:groupmode="layer"
     id="layer2"
     inkscape:label="Trash" />
</svg>
