<?xml version="1.0" encoding="UTF-8" standalone="no"?>
<!-- Created with Inkscape (http://www.inkscape.org/) -->

<svg
   xmlns:dc="http://purl.org/dc/elements/1.1/"
   xmlns:cc="http://creativecommons.org/ns#"
   xmlns:rdf="http://www.w3.org/1999/02/22-rdf-syntax-ns#"
   xmlns:svg="http://www.w3.org/2000/svg"
   xmlns="http://www.w3.org/2000/svg"
   xmlns:sodipodi="http://sodipodi.sourceforge.net/DTD/sodipodi-0.dtd"
   xmlns:inkscape="http://www.inkscape.org/namespaces/inkscape"
   width="900"
   height="603"
   id="svg2"
   version="1.1"
   inkscape:version="0.48.4 r9939"
   sodipodi:docname="cute_owl_004.svg">
  <defs
     id="defs4" />
  <sodipodi:namedview
     id="base"
     pagecolor="#ffffff"
     bordercolor="#666666"
     borderopacity="1.0"
     inkscape:pageopacity="0.0"
     inkscape:pageshadow="2"
     inkscape:zoom="0.35"
     inkscape:cx="2.2889618"
     inkscape:cy="216.1135"
     inkscape:document-units="px"
     inkscape:current-layer="g4128"
     showgrid="false"
     inkscape:object-paths="true"
     inkscape:snap-intersection-paths="true"
     inkscape:object-nodes="true"
     inkscape:snap-smooth-nodes="true"
     inkscape:snap-global="false"
     fit-margin-top="0"
     fit-margin-left="0"
     fit-margin-right="0"
     fit-margin-bottom="0"
     inkscape:window-width="1600"
     inkscape:window-height="1138"
     inkscape:window-x="-8"
     inkscape:window-y="-8"
     inkscape:window-maximized="1" />
  <metadata
     id="metadata7">
    <rdf:RDF>
      <cc:Work
         rdf:about="">
        <dc:format>image/svg+xml</dc:format>
        <dc:type
           rdf:resource="http://purl.org/dc/dcmitype/StillImage" />
        <dc:title></dc:title>
      </cc:Work>
    </rdf:RDF>
  </metadata>
  <g
     inkscape:label="Layer 1"
     inkscape:groupmode="layer"
     id="layer1"
     transform="translate(-102.85715,-140.79078)">
    <g
       id="g4128"
       transform="matrix(1.575,0,0,1.575,-59.142855,-427.67965)"
       style="stroke:#000000;fill:none;stroke-width:0.63492063;stroke-miterlimit:4;stroke-dasharray:none">
      <path
         id="path3886"
         d="m 188.2036,436.24283 c -46.21988,68.20032 -48.22158,85.9838 -220.562497,239.125 -23.07816,20.50714 -58.42214,57.57 -40.75,77.1875 33.12782,36.77452 98.5625,-24.3125 98.5625,-24.3125 0,0 -39.41308,59.45964 -5.6875,88.5625 20.7603,17.91472 77.125,-28.5625 77.125,-28.5625 0,0 -14.4824,47.75806 15.749997,57.125 33.1143,10.25984 62.8125,-40 62.8125,-40 0,0 -7.38682,21.4379 12.875,27.1875 16.07918,4.5627 68.60714,-63.76418 68.60714,-63.76418 m 262.42726,8.64824 c 28.87084,31.08114 59.76146,61.628 67.8406,59.49094 20.36148,-5.38596 13.3125,-26.875 13.3125,-26.875 0,0 28.89486,50.79042 62.1875,41.125 30.39524,-8.82426 16.6875,-56.875 16.6875,-56.875 0,0 55.54734,47.47772 76.625,29.9375 34.24114,-28.49448 -4.125,-88.625 -4.125,-88.625 0,0 64.34418,62.1756 98.125,26 18.02046,-19.29802 -16.60514,-56.89554 -39.3125,-77.8125 C 641.13164,527.60361 639.44524,509.75959 594.4536,440.74283"
         style="fill:none;stroke:#000000;stroke-width:1.26984131;stroke-miterlimit:4;stroke-dasharray:none"
         inkscape:connector-curvature="0"
         sodipodi:nodetypes="csscscscsccscscscssc" />
      <path
         id="path3888"
         d="m 172.85324,470.74713 c -14.68338,18.7359 -9.37366,40.34952 -158.587137,173.8707 -19.9811802,17.87982 -50.5506,50.14584 -35.25,67.25 28.6821998,32.06308 75.3125,-16.1875 75.3125,-16.1875 0,0 -36.26224,45.43822 -7.0625,70.8125 17.97436,15.61954 77.124997,-27.75 77.124997,-27.75 0,0 -23.17232,34.99252 8.25,56.25 24.8453,16.80806 54.4375,-25.9375 54.4375,-25.9375 0,0 -5.1536,22.95354 12.1875,28.625 14.81784,4.84622 31.76084,-22.15106 44.09234,-36.30092 m 286.08878,1.24764 c 0,0 28.52378,43.02148 47.44388,39.30328 17.90254,-3.51822 12.75,-28.4375 12.75,-28.4375 0,0 28.79532,43.29812 53.9375,26.9375 31.79782,-20.69158 9.25,-56.125 9.25,-56.125 0,0 58.37392,44.42028 76.625,29.125 29.64928,-24.84752 -5.8125,-70.875 -5.8125,-70.875 0,0 45.81094,49.0445 75.0625,17.5 15.60434,-16.82752 -14.40458,-49.64036 -34.0625,-67.875 C 617.84166,516.00949 638.38214,523.62789 599.4356,463.45839"
         style="fill:none;stroke:#000000;stroke-width:1.26984131;stroke-miterlimit:4;stroke-dasharray:none"
         inkscape:connector-curvature="0"
         sodipodi:nodetypes="csscscscsccscscscssc" />
      <path
         id="path3890"
         d="m 61.578603,636.11783 -35.75,25 c -8.5185,5.96294 -1.03278,21.70378 9.3125,8.5625 l 26.4375,-33.5625 z m 655.874997,6.6875 25.875,34.0625 c 10.10838,13.32436 17.84788,-2.26052 9.4375,-8.375 l -35.3125,-25.6875 z m -611.25,45.4375 -26.437497,26.8125 c -10.1046,10.24116 4.58918,20.80544 10.6875,7.5 l 15.749997,-34.3125 z m 565.6875,5.9375 15.125,34.5625 c 5.85918,13.41246 20.79466,3.1079 10.875,-7.3125 l -26,-27.25 z m -506.75,31.1875 -20.375,25.375 c -10.28912,12.81626 10.606,22.34632 13.5625,7.875 l 6.8125,-33.25 z m 447.1875,4.875 6.1875,33.3125 c 2.69698,14.52192 23.74556,5.43588 13.6875,-7.5625 l -19.875,-25.75 z m -397.5625,23.375 -11.4375,15 c -11.27924,14.80398 10.25836,17.52438 10.75,4.25 l 0.6875,-19.25 z m 347.4375,3.9375 0.375,19.3125 c 0.25392,13.28104 21.76242,10.8785 10.75,-4.125 l -11.125,-15.1875 z"
         style="fill:none;stroke:#000000;stroke-width:1.26984131;stroke-miterlimit:4;stroke-dasharray:none"
         inkscape:connector-curvature="0" />
      <path
         style="fill:none;stroke:#000000;stroke-width:1.26984131;stroke-miterlimit:4;stroke-dasharray:none"
         d="m 372.56357,800.40945 c 3.20984,0.26503 9.65213,0.49335 12.91262,0.68464 8.25609,0.48438 20.57215,-0.14264 28.29636,-0.26367 m 104.88464,-28.53308 c 31.57911,-20.58855 55.88257,-51.62389 70.22383,-86.48207 29.6012,-71.94938 26.42066,-165.98175 6.71422,-247.77673 -28.28054,-117.38327 -74.40476,-218.37302 -74.40476,-218.37302 -23.43123,30.98108 -45.33663,54.50867 -69.72223,69.24603 -1.93918,1.17194 -3.88615,2.2733 -5.83333,3.33334 1.00325,-8.59931 -5.01713,-10.0088 -22.30159,7.42063 9.4312,-37.70888 -12.41004,-37.65109 -23.21428,-4.28571 -1.3967,-32.12078 -19.07392,-33.74731 -20,-1.42857 -23.16867,-19.05837 -29.95518,-12.19469 -26.74603,1.46825 -3.53167,-2.18527 -6.95068,-4.69644 -10.2381,-7.53968 -24.96482,-21.59176 -43.94477,-43.89915 -70.51587,-68.21429 0,0 -21.25664,63.03793 -46.46825,127.61905 -0.0288,0.0229 -0.0505,0.0565 -0.0794,0.0794 -4.1811,10.70877 -8.43696,21.45067 -12.73809,31.94445 -0.0923,0.22467 -0.18541,0.45016 -0.27778,0.6746 -2.05784,5.01416 -4.12593,9.9677 -6.19048,14.84127 -1.45663,3.43224 -2.91347,6.82274 -4.36508,10.15873 -0.69631,1.6009 -1.40814,3.26544 -2.10317,4.84127 -4.12704,9.3584 -8.21416,18.27245 -12.18254,26.42857 -77.91836,160.14361 -34.15458,282.76625 76.09804,336.53763"
         id="path3052"
         inkscape:connector-curvature="0"
         sodipodi:nodetypes="csccsscscccccsccccccccsc" />
      <path
         id="path3068"
         d="m 192.5161,427.18033 c 24.5753,46.25882 103.84248,80.59812 199.12014,82.70946 m 9.31736,0.103 c 86.83132,0 161.72632,-26.7726 196.1875,-65.375 -0.50212,-2.19994 -1.03652,-4.37934 -1.5625,-6.5625 -3.86202,-16.02994 -8.07838,-31.7466 -12.4375,-46.9375"
         style="fill:none;stroke:#000000;stroke-width:1.26984131;stroke-miterlimit:4;stroke-dasharray:none"
         inkscape:connector-curvature="0"
         sodipodi:nodetypes="ccccsc" />
      <path
         id="path4125"
         d="m 467.11606,319.63957 c -23.94902,0.41774 -47.47564,10.17166 -64.5,32.9375 -1.03268,1.38096 -2.01446,2.73404 -2.9375,4.125 -3.12448,-5.62098 -7.15204,-10.81438 -12.0625,-15.4375 -29.67836,-27.94162 -80.94724,-23.92624 -114.5,8.9375 -33.55276,32.86374 -36.67836,82.12088 -7,110.0625 22.02828,20.73922 55.94298,23.87032 85.6875,10.6875 9.71376,19.98346 38.01458,38.73644 44.75,42.0625 8.37342,-4.9672 34.88392,-23.87796 43.3125,-43 20.40228,9.38156 44.67226,12.59188 69.1875,6.125 38.12182,-10.05618 62.74656,-46.32908 57.125,-83.5625 -6.13526,-40.63594 -53.34164,-73.735 -99.0625,-72.9375 z"
         style="fill:none;stroke:#000000;stroke-width:1.26984131;stroke-miterlimit:4;stroke-dasharray:none"
         inkscape:connector-curvature="0" />
      <path
         sodipodi:nodetypes="cccsc"
         inkscape:connector-curvature="0"
         id="path3079"
         d="m 380.12324,293.95827 c 0.92608,-32.31874 18.6033,-30.69222 20,1.42856 10.80424,-33.36538 32.6455,-33.42316 23.2143,4.28572 46.597,-46.98784 11.38568,42.84232 -22.85714,41.78572 -41.39104,-1.27716 -72.75742,-90.60404 -20.35716,-47.5 z"
         style="fill:none;stroke:#000000;stroke-width:1.26984131;stroke-miterlimit:4;stroke-dasharray:none" />
      <path
         id="path3087"
         d="m 328.6411,347.30533 c -13.96346,0.44736 -28.46228,6.38286 -39.8125,17.5 -21.36512,20.9264 -23.39806,52.33282 -4.5,70.125 18.89806,17.79218 51.57238,15.2389 72.9375,-5.6875 21.36512,-20.9264 23.33556,-52.33282 4.4375,-70.125 -8.85846,-8.34008 -20.7418,-12.20724 -33.0625,-11.8125 z m 142.0625,1.25 c -15.2839,0.2666 -30.2603,6.47118 -41.125,21 -31.45124,42.05822 17.57114,92.14468 67.875,78.875 24.32876,-6.4177 40.0876,-29.6132 36.5,-53.375 -3.91544,-25.93324 -34.07164,-47.00896 -63.25,-46.5 z"
         style="fill:none;stroke:#000000;stroke-width:1.26984131;stroke-miterlimit:4;stroke-dasharray:none"
         inkscape:connector-curvature="0" />
      <path
         transform="matrix(0.329252,0.3052703,-0.30375732,0.29299498,350.45328,148.02041)"
         d="m 377.5,477.71933 a 30.892857,37.857143 0 1 1 -61.78571,0 30.892857,37.857143 0 1 1 61.78571,0 z"
         sodipodi:ry="37.857143"
         sodipodi:rx="30.892857"
         sodipodi:cy="477.71933"
         sodipodi:cx="346.60715"
         id="path3089"
         style="fill:none;stroke:#000000;stroke-width:2.91938925;stroke-miterlimit:4;stroke-dasharray:none"
         sodipodi:type="arc" />
      <path
         sodipodi:nodetypes="ssss"
         inkscape:connector-curvature="0"
         id="path3093"
         d="m 489.10734,395.89567 c 0.78326,6.20352 -2.65026,12.24852 -7.96188,13.924 -10.98266,3.46432 -21.69562,-9.60826 -14.82898,-20.58846 6.9005,-11.03436 21.48824,-3.65238 22.79086,6.66446 z"
         style="fill:none;stroke:#000000;stroke-width:1.26984131;stroke-miterlimit:4;stroke-dasharray:none" />
      <path
         id="path3095"
         d="m 394.3911,407.55533 c -5.4295,3.68148 -41.81896,29.11668 -42.5,50 -0.73548,22.5523 36.90982,47.72098 43.0625,51.6875 l -0.5625,-101.6875 z m 3,0.625 0.5625,100.6875 c 7.87664,-5.37482 41.81548,-29.76578 41.125,-50.625 -0.6423,-19.40372 -33.39428,-44.10292 -41.6875,-50.0625 z"
         style="fill:none;stroke:#000000;stroke-width:1.26984131;stroke-miterlimit:4;stroke-dasharray:none"
         inkscape:connector-curvature="0" />
      <path
         sodipodi:nodetypes="csscsc"
         inkscape:connector-curvature="0"
         id="path3872"
         d="m 276.19468,253.24397 c -0.96426,5.3264 0.22394,9.3893 -2.2023,15.69142 -4.02984,10.46742 -11.7498,23.34346 -9.7123,30.75448 3.0134,10.96068 13.94122,19.73162 29.35212,14.54814 15.94302,-6.08278 19.0288,-23.73104 12.9537,-35.29764 -6.40432,-12.19336 -22.63144,-18.34364 -30.39122,-25.6964 z"
         style="fill:none;stroke:#000000;stroke-width:1.26984131;stroke-miterlimit:4;stroke-dasharray:none" />
      <path
         sodipodi:nodetypes="csssc"
         inkscape:connector-curvature="0"
         id="path3874"
         d="m 512.62324,250.74397 c 0,0 -27.13586,15.62398 -29.64286,29.28572 -1.91344,10.42716 3.21754,25.39988 13.2143,28.92858 11.29586,3.98726 27.75398,-4.92546 32.14286,-16.07144 5.49296,-13.94994 -15.7143,-42.14286 -15.7143,-42.14286 z"
         style="fill:none;stroke:#000000;stroke-width:1.26984131;stroke-miterlimit:4;stroke-dasharray:none" />
      <path
         id="path3898"
         d="m 207.0161,480.43033 c -8.97032,0.8353 -18.41854,12.14366 -22.375,27.6875 -4.52166,17.7644 -0.1342,34.31476 9.8125,36.9375 9.9467,2.62274 21.66584,-9.6731 26.1875,-27.4375 4.52166,-17.7644 0.1342,-34.25226 -9.8125,-36.875 -1.24334,-0.32784 -2.53102,-0.43182 -3.8125,-0.3125 z m 41.8125,27.0625 c -8.69556,0.4904 -16.77992,11.64744 -18.5,26.0625 -1.83476,15.37606 4.28754,28.6631 13.625,29.6875 9.33746,1.0244 18.41524,-10.62394 20.25,-26 1.83476,-15.37606 -4.28754,-28.6631 -13.625,-29.6875 -0.5836,-0.064 -1.1703,-0.0952 -1.75,-0.0624 z m 328.8125,3.4375 c -9.94906,0.69456 -17.40182,12.81692 -16.625,27.125 0.77682,14.30808 9.48844,25.38206 19.4375,24.6875 9.94906,-0.69456 17.40182,-12.87942 16.625,-27.1875 -0.77682,-14.30808 -9.48844,-25.31956 -19.4375,-24.625 z m -284.9375,13.5625 c -8.20536,0.43602 -15.81438,10.37128 -17.4375,23.1875 -1.73132,13.67064 4.00142,25.46422 12.8125,26.375 8.81108,0.91078 17.33118,-9.39186 19.0625,-23.0625 1.73132,-13.67064 -4.00142,-25.52672 -12.8125,-26.4375 -0.5507,-0.057 -1.07798,-0.0916 -1.625,-0.0624 z m 245.25,0.8125 c -10.48036,0.78664 -18.31832,14.6072 -17.5,30.8125 0.81832,16.2053 9.95714,28.66164 20.4375,27.875 10.48036,-0.78664 18.31832,-14.5447 17.5,-30.75 -0.81832,-16.2053 -9.95714,-28.72414 -20.4375,-27.9375 z m -197.625,9.1875 c -8.1843,0.73162 -15.4026,10.88358 -16.5625,23.75 -1.23724,13.72418 4.91182,25.34504 13.75,25.9375 8.83818,0.59246 17.01276,-10.08832 18.25,-23.8125 1.23724,-13.72418 -4.91182,-25.28254 -13.75,-25.875 -0.55238,-0.037 -1.14188,-0.0488 -1.6875,0 z m 152.625,4.875 c -9.42136,-0.012 -17.375,11.17528 -17.75,24.9375 -0.375,13.76222 6.95364,24.92574 16.375,24.9375 9.42136,0.012 17.375,-11.11278 17.75,-24.875 0.375,-13.76222 -6.95364,-24.98824 -16.375,-25 z m -50.375,0.875 c -10.10814,0.94546 -17.52138,13.9469 -16.5,29 1.02138,15.0531 10.07936,26.50796 20.1875,25.5625 10.10814,-0.94546 17.45888,-13.9469 16.4375,-29 -1.02138,-15.0531 -10.01686,-26.50796 -20.125,-25.5625 z m -49.6875,1.3125 c -8.85688,-0.1422 -16.4624,10.85566 -17,24.625 -0.5376,13.76934 6.20562,25.04532 15.0625,25.1875 8.85688,0.1422 16.4624,-10.85566 17,-24.625 0.5376,-13.76934 -6.20562,-25.04532 -15.0625,-25.1875 z m -199.9375,33.9375 c -10.2612,0.98384 -16.79504,14.71838 -14.625,30.625 2.17004,15.90662 12.2388,27.98384 22.5,27 10.2612,-0.98384 16.85754,-14.65588 14.6875,-30.5625 -2.17004,-15.90662 -12.3013,-28.04634 -22.5625,-27.0625 z m 386.5,12 c -8.1167,-0.4106 -16.0185,10.24374 -18.1875,24.9375 -2.3136,15.67334 2.78266,30.02108 11.4375,32.0625 8.65484,2.04142 17.5614,-9.01416 19.875,-24.6875 2.3136,-15.67334 -2.84516,-30.02108 -11.5,-32.0625 -0.54092,-0.1276 -1.08388,-0.22262 -1.625,-0.25 z m -334.6875,4.25 c -10.82812,-0.81152 -20.10538,12.32662 -20.6875,29.3125 -0.58212,16.98588 7.73438,31.43848 18.5625,32.25 10.82812,0.81152 20.10538,-12.32662 20.6875,-29.3125 0.58212,-16.98588 -7.73438,-31.43848 -18.5625,-32.25 z m 297.5625,5.1875 c -9.28698,-0.4495 -18.39326,11.16398 -20.875,27.25 -2.64718,17.15844 3.2848,32.89016 13.1875,35.125 9.9027,2.23484 20.04032,-9.84156 22.6875,-27 2.64718,-17.15844 -3.2223,-32.89016 -13.125,-35.125 -0.61892,-0.1396 -1.25586,-0.22004 -1.875,-0.25 z m -250.3125,2.0625 c -10.26836,0.88992 -18.74874,14.259 -19.3125,31.25 -0.60134,18.12372 8.00218,33.50912 19.1875,34.375 11.18532,0.86588 20.71116,-13.12628 21.3125,-31.25 0.60134,-18.12372 -7.93968,-33.50912 -19.125,-34.375 -0.69908,-0.0542 -1.37794,-0.0594 -2.0625,0 z m 203.4375,7.375 c -11.1413,-0.48788 -22.08524,12.16588 -25.0625,29.625 -3.17574,18.62306 3.87004,35.69938 15.75,38.125 11.87996,2.42562 24.07426,-10.68944 27.25,-29.3125 3.17574,-18.62306 -3.87004,-35.69938 -15.75,-38.125 -0.7425,-0.1516 -1.44474,-0.27998 -2.1875,-0.3125 z m -148.1875,2.625 c -10.30048,0.36262 -19.4414,13.31022 -20.875,30.25 -1.52916,18.0691 6.24874,33.87464 17.375,35.3125 11.12626,1.43786 21.40834,-12.0559 22.9375,-30.125 1.52916,-18.0691 -6.24874,-33.87464 -17.375,-35.3125 -0.6954,-0.0898 -1.3758,-0.1492 -2.0625,-0.125 z m 96.125,9.3125 c -10.47988,0.1218 -20.02554,12.85368 -21.875,29.75 -1.97276,18.02274 5.53478,33.99058 16.8125,35.6875 11.27772,1.69692 22.02724,-11.53976 24,-29.5625 1.97276,-18.02274 -5.59728,-33.99058 -16.875,-35.6875 -0.70486,-0.106 -1.36384,-0.1956 -2.0625,-0.1874 z m -46.125,0.0624 c -10.97664,0.38138 -20.6598,13.93384 -22.1875,31.75 -1.62954,19.0039 6.64336,35.67526 18.5,37.1875 11.85664,1.51224 22.80796,-12.6836 24.4375,-31.6875 1.62954,-19.0039 -6.64336,-35.61276 -18.5,-37.125 -0.74104,-0.0946 -1.51822,-0.1504 -2.25,-0.125 z m -162.9375,40.875 c -0.71574,-0.0444 -1.46804,-0.008 -2.1875,0.0624 -11.51134,1.13538 -18.87194,16.8934 -16.4375,35.25 2.43444,18.3566 13.73866,32.32288 25.25,31.1875 11.51134,-1.13538 18.87194,-16.8934 16.4375,-35.25 -2.28228,-17.20932 -12.3265,-30.58454 -23.0625,-31.25 z m 314.3125,13.3126 c -9.75954,0.47546 -20.10884,10.63688 -24.5,24.9375 -5.01848,16.34358 -0.36406,31.85686 10.4375,34.625 10.80156,2.76814 23.66902,-8.21892 28.6875,-24.5625 5.01848,-16.34358 0.30156,-31.85686 -10.5,-34.625 -1.3502,-0.34602 -2.73078,-0.44292 -4.125,-0.375 z m -262.3125,8 c -11.541,0.4491 -19.79486,16.75382 -18.5,36.375 1.29486,19.62118 11.6465,35.1366 23.1875,34.6875 11.541,-0.4491 19.85736,-16.69132 18.5625,-36.3125 -1.29486,-19.62118 -11.709,-35.1991 -23.25,-34.75 z m 210.625,3.1875 c -10.99388,-0.21452 -21.93746,13.9575 -25.125,33.1875 -3.40004,20.512 3.30428,38.99446 15,41.3125 11.69572,2.31804 23.91246,-12.4255 27.3125,-32.9375 3.40004,-20.512 -3.30428,-39.05696 -15,-41.375 -0.73098,-0.1448 -1.45458,-0.1732 -2.1875,-0.1874 z m -157.5625,5.5 c -12.10828,0.3643 -22.198,17.01074 -22.8125,38.0625 -0.63432,21.73086 9.06334,39.90426 21.6875,40.625 12.62416,0.72074 23.36568,-16.26914 24,-38 0.63432,-21.73086 -9.06334,-39.96676 -21.6875,-40.6875 -0.3945,-0.0226 -0.79692,-0.012 -1.1875,0 z m 56.4375,5.0625 c -12.46254,0.37056 -22.86752,17.27448 -23.5,38.6875 -0.65288,22.10376 9.31898,40.6419 22.3125,41.375 12.99352,0.7331 24.09712,-16.64624 24.75,-38.75 0.65288,-22.10376 -9.38148,-40.5794 -22.375,-41.3125 -0.40604,-0.0228 -0.78548,-0.012 -1.1875,0 z m 48.1875,0.625 c -11.93082,0.36118 -21.8945,16.87856 -22.5,37.75 -0.62504,21.54472 8.93584,39.59794 21.375,40.3125 12.43916,0.71456 23.06246,-16.20528 23.6875,-37.75 0.62504,-21.54472 -8.93584,-39.59794 -21.375,-40.3125 -0.38872,-0.0224 -0.80264,-0.012 -1.1875,0 z"
         style="fill:none;stroke:#000000;stroke-width:1.26984131;stroke-miterlimit:4;stroke-dasharray:none"
         inkscape:connector-curvature="0" />
      <path
         id="path3900"
         d="m 205.8286,487.43033 c -4.07138,0.37912 -8.32928,5.50756 -10.125,12.5625 -2.05226,8.06278 -0.077,15.5596 4.4375,16.75 4.51454,1.1904 9.82274,-4.37472 11.875,-12.4375 2.05226,-8.06278 0.077,-15.5596 -4.4375,-16.75 -0.56432,-0.1488 -1.16838,-0.1792 -1.75,-0.125 z m 41.9375,26.1875 c -3.94668,0.22258 -7.6568,5.2699 -8.4375,11.8125 -0.83274,6.97878 1.94948,13.03504 6.1875,13.5 4.23802,0.46496 8.35476,-4.83372 9.1875,-11.8125 0.83274,-6.97878 -1.94948,-12.97254 -6.1875,-13.4375 -0.26488,-0.029 -0.48688,-0.0774 -0.75,-0.0624 z m 328.8125,3.1875 c -4.5156,0.31524 -7.91508,5.88096 -7.5625,12.375 0.35258,6.49404 4.2969,11.50274 8.8125,11.1875 4.5156,-0.31524 7.91508,-5.88096 7.5625,-12.375 -0.35258,-6.49404 -4.2969,-11.50274 -8.8125,-11.1875 z m -284.9375,13.1875 c -3.7242,0.1978 -7.20082,4.68306 -7.9375,10.5 -0.7858,6.20474 1.8134,11.52412 5.8125,11.9375 3.9991,0.41338 7.9017,-4.23276 8.6875,-10.4375 0.7858,-6.20474 -1.8134,-11.58662 -5.8125,-12 -0.24994,-0.0258 -0.50172,-0.014 -0.75,0 z m 245.125,2.0625 c -4.75676,0.35704 -8.30892,6.58236 -7.9375,13.9375 0.37142,7.35514 4.55574,13.04454 9.3125,12.6875 4.75676,-0.35704 8.30892,-6.64486 7.9375,-14 -0.37142,-7.35514 -4.55574,-12.98204 -9.3125,-12.625 z m -196.5,7.875 c -4.01142,-0.2689 -7.75096,4.58346 -8.3125,10.8125 -0.56154,6.22904 2.23858,11.4811 6.25,11.75 4.01142,0.2689 7.75096,-4.52096 8.3125,-10.75 0.56154,-6.22904 -2.23858,-11.5436 -6.25,-11.8125 z m 151.1875,5.0625 c -4.2761,-0.006 -7.8923,5.0662 -8.0625,11.3125 -0.1702,6.2463 3.1614,11.30716 7.4375,11.3125 4.2761,0.006 7.8923,-5.0662 8.0625,-11.3125 0.1702,-6.2463 -3.1614,-11.30716 -7.4375,-11.3125 z m -49.0625,1.5 c -0.28212,-0.016 -0.52576,0.0356 -0.8125,0.0624 -4.5878,0.42912 -7.96358,6.2928 -7.5,13.125 0.46358,6.8322 4.5997,11.99162 9.1875,11.5625 4.5878,-0.42912 7.90108,-6.2928 7.4375,-13.125 -0.4346,-6.40518 -4.08068,-11.3833 -8.3125,-11.625 z m -51,0.625 c -4.0199,-0.0646 -7.4435,4.93796 -7.6875,11.1875 -0.244,6.24954 2.7926,11.37296 6.8125,11.4375 4.0199,0.0646 7.506,-4.93796 7.75,-11.1875 0.244,-6.24954 -2.8551,-11.37296 -6.875,-11.4375 z m -199,35 c -4.65728,0.44654 -7.60992,6.65542 -6.625,13.875 0.98492,7.21958 5.59272,12.69654 10.25,12.25 4.65728,-0.44654 7.60992,-6.65542 6.625,-13.875 -0.98492,-7.21958 -5.59272,-12.69654 -10.25,-12.25 z m 385.8125,11.5625 c -3.68396,-0.1864 -7.26554,4.6434 -8.25,11.3125 -1.05008,7.1137 1.2593,13.63596 5.1875,14.5625 3.9282,0.92654 7.94992,-4.0738 9,-11.1875 1.05008,-7.1137 -1.2593,-13.63596 -5.1875,-14.5625 -0.24552,-0.058 -0.5044,-0.1126 -0.75,-0.125 z m -336.125,4.875 c -4.5117,0.37856 -8.1898,6.0849 -8.4375,13.3125 -0.26422,7.70944 3.46042,14.25668 8.375,14.625 4.91458,0.36832 9.11078,-5.60306 9.375,-13.3125 0.26422,-7.70944 -3.46042,-14.25668 -8.375,-14.625 -0.30716,-0.023 -0.63672,-0.0252 -0.9375,0 z m 298,5.1875 c -3.91126,0.47794 -7.5737,5.56072 -8.625,12.375 -1.20148,7.78774 1.44294,14.92316 5.9375,15.9375 4.49456,1.01434 9.11102,-4.52476 10.3125,-12.3125 1.20148,-7.78774 -1.44294,-14.92316 -5.9375,-15.9375 -0.56182,-0.1268 -1.12874,-0.1308 -1.6875,-0.0624 z m -248.75,2.5 c -4.66054,0.40392 -8.49412,6.47574 -8.75,14.1875 -0.27292,8.22586 3.61078,15.232 8.6875,15.625 5.07672,0.393 9.41458,-5.96164 9.6875,-14.1875 0.27292,-8.22586 -3.61078,-15.232 -8.6875,-15.625 -0.3173,-0.0246 -0.6268,-0.027 -0.9375,0 z m 202.375,7.5 c -5.05674,-0.22144 -10.0237,5.51328 -11.375,13.4375 -1.44138,8.4525 1.733,16.21158 7.125,17.3125 5.392,1.10092 10.93362,-4.86 12.375,-13.3125 1.44138,-8.4525 -1.733,-16.21158 -7.125,-17.3125 -0.337,-0.0688 -0.66288,-0.1102 -1,-0.125 z m -147.5,2.4375 c -4.6751,0.1646 -8.78682,6.06148 -9.4375,13.75 -0.69404,8.20108 2.82508,15.3474 7.875,16 5.04992,0.6526 9.68096,-5.48642 10.375,-13.6875 0.69404,-8.20108 -2.82508,-15.3474 -7.875,-16 -0.31562,-0.0408 -0.62582,-0.0734 -0.9375,-0.0624 z m 95.9375,9.3125 c -4.75654,0.0552 -9.09808,5.83122 -9.9375,13.5 -0.89538,8.18004 2.50634,15.41732 7.625,16.1875 5.11866,0.77018 10.04212,-5.25746 10.9375,-13.4375 0.89538,-8.18004 -2.56884,-15.41732 -7.6875,-16.1875 -0.31992,-0.0482 -0.6204,-0.0662 -0.9375,-0.0624 z m -45.9375,0.4375 c -4.982,0.173 -9.43162,6.35122 -10.125,14.4375 -0.7396,8.62536 3.0561,16.18864 8.4375,16.875 5.3814,0.68636 10.3229,-5.74964 11.0625,-14.375 0.7396,-8.62536 -2.9936,-16.18864 -8.375,-16.875 -0.33634,-0.0428 -0.66786,-0.074 -1,-0.0624 z m -163.6875,40.9375 c -0.32486,-0.0202 -0.67346,0.0302 -1,0.0624 -5.22468,0.51532 -8.54242,7.66844 -7.4375,16 1.10492,8.33156 6.21282,14.64032 11.4375,14.125 5.22468,-0.51532 8.54242,-7.66844 7.4375,-16 -1.03586,-7.81084 -5.56472,-13.88546 -10.4375,-14.1875 z m 315.5,12.3125 c -5.09356,0.0518 -10.268,4.43758 -12.25,10.75 -2.26514,7.2142 0.54016,14.2116 6.25,15.625 5.70984,1.4134 12.17236,-3.2858 14.4375,-10.5 2.26514,-7.2142 -0.54016,-14.2116 -6.25,-15.625 -0.71374,-0.1766 -1.45984,-0.2574 -2.1875,-0.25 z m -262.75,9.4375 c -5.23814,0.20384 -9.0252,7.59448 -8.4375,16.5 0.5877,8.90552 5.32436,15.95384 10.5625,15.75 5.23814,-0.20384 9.0252,-7.59448 8.4375,-16.5 -0.5877,-8.90552 -5.32436,-15.95384 -10.5625,-15.75 z m 209.5625,3.4375 c -5.35864,0.5689 -10.32826,6.51076 -11.6875,14.4375 -1.5534,9.05914 2.19824,17.33574 8.375,18.5 6.17676,1.16426 12.4466,-5.25336 14,-14.3125 1.5534,-9.05914 -2.19824,-17.33574 -8.375,-18.5 -0.7721,-0.1456 -1.54698,-0.20628 -2.3125,-0.125 z m -157.375,5.9375 c -5.25818,0.61586 -9.54258,8.0034 -9.8125,17.25 -0.2879,9.86304 4.14524,18.11038 9.875,18.4375 5.72976,0.32712 10.5871,-7.38696 10.875,-17.25 0.2879,-9.86304 -4.14524,-18.11038 -9.875,-18.4375 -0.35812,-0.0204 -0.71196,-0.041 -1.0625,0 z m 57.375,5.3125 c -6.25938,0.69644 -11.3662,9.04364 -11.6875,19.5 -0.34272,11.15346 4.86674,20.50508 11.6875,20.875 6.82076,0.36992 12.65728,-8.34654 13,-19.5 0.34272,-11.15346 -4.92924,-20.50508 -11.75,-20.875 -0.4263,-0.0232 -0.8327,-0.0464 -1.25,0 z m 48.25,0.375 c -6.02092,0.5946 -10.94094,7.69756 -11.25,16.625 -0.32966,9.52262 4.68908,17.49666 11.25,17.8125 6.56092,0.31584 12.17034,-7.10238 12.5,-16.625 0.32966,-9.52262 -4.75158,-17.49666 -11.3125,-17.8125 -0.41006,-0.02 -0.7861,-0.0396 -1.1875,0 z"
         style="fill:none;stroke:#000000;stroke-width:1.26984131;stroke-miterlimit:4;stroke-dasharray:none"
         inkscape:connector-curvature="0" />
      <path
         id="path3998"
         d="m 281.7661,762.86783 c -9.75024,-0.43678 -21.46496,11.53856 -27.8125,29.4375 -7.25434,20.45594 -4.77026,40.90974 5.5625,45.625 8.13084,3.71044 18.70846,-3.45868 26.375,-16.625 -0.51222,18.39924 6.91266,33.21216 18.375,34.6875 10.6739,1.37386 21.53278,-9.2201 27.125,-25.0625 1.35884,20.97574 10.98318,37.25 22.6875,37.25 12.6354,0 22.875,-18.937 22.875,-42.3125 0,-23.3755 -10.2396,-42.3125 -22.875,-42.3125 -8.05004,0 -15.04726,7.68506 -19.125,19.3125 -1.41942,-14.7765 -8.33736,-25.85716 -18.1875,-27.125 -7.68972,-0.98976 -15.46478,4.2639 -21.3125,13.1875 0.49596,-12.15996 -2.85564,-22.03586 -9.625,-25.125 -1.2916,-0.5894 -2.6696,-0.8751 -4.0625,-0.9375 z m 222.125,2.8125 c -1.3929,0.0624 -2.7709,0.3481 -4.0625,0.9375 -6.76936,3.08914 -10.12096,12.96504 -9.625,25.125 -5.84772,-8.9236 -13.62278,-14.17726 -21.3125,-13.1875 -9.85014,1.26784 -16.76808,12.3485 -18.1875,27.125 -4.07774,-11.62744 -11.07496,-19.3125 -19.125,-19.3125 -12.6354,0 -22.875,18.937 -22.875,42.3125 0,23.3755 10.2396,42.3125 22.875,42.3125 11.70432,0 21.32866,-16.27426 22.6875,-37.25 5.59222,15.8424 16.4511,26.43636 27.125,25.0625 11.46234,-1.47534 18.88722,-16.28826 18.375,-34.6875 7.66654,13.16632 18.24416,20.33544 26.375,16.625 10.33276,-4.71526 12.81684,-25.16906 5.5625,-45.625 -6.34754,-17.89894 -18.06226,-29.87428 -27.8125,-29.4375 z"
         style="fill:none;stroke:#000000;stroke-width:1.26984131;stroke-miterlimit:4;stroke-dasharray:none"
         inkscape:connector-curvature="0" />
      <path
         id="path4013"
         d="m 279.9536,766.61783 c -7.84742,-0.4163 -17.2662,11.06548 -22.375,28.125 -5.83862,19.4966 -3.81626,38.94336 4.5,43.4375 8.31626,4.49414 19.78638,-7.6909 25.625,-27.1875 5.83862,-19.4966 3.81626,-38.94336 -4.5,-43.4375 -1.03954,-0.56176 -2.12894,-0.87802 -3.25,-0.9375 z m 225.6875,2.8125 c -1.12106,0.0594 -2.21046,0.37574 -3.25,0.9375 -8.31626,4.49414 -10.27612,23.9409 -4.4375,43.4375 5.83862,19.4966 17.30874,31.61914 25.625,27.125 8.31626,-4.49414 10.27612,-23.9409 4.4375,-43.4375 -5.1088,-17.05952 -14.52758,-28.4788 -22.375,-28.0625 z m -191.875,11.6875 c -10.68452,0.43658 -21.07368,14.16696 -23.875,32.125 -2.98806,19.15524 3.78876,35.84534 15.1875,37.3125 11.39874,1.46716 23.07444,-12.84476 26.0625,-32 2.98806,-19.15524 -3.85126,-35.90784 -15.25,-37.375 -0.71242,-0.0916 -1.4127,-0.0916 -2.125,-0.0624 z m 158.0625,2.75 c -0.7123,-0.029 -1.41258,0.0334 -2.125,0.125 -11.39874,1.46716 -18.23806,18.15726 -15.25,37.3125 2.98806,19.15524 14.66376,33.52966 26.0625,32.0625 11.39874,-1.46716 18.23806,-18.21976 15.25,-37.375 -2.80132,-17.95804 -13.25298,-31.68842 -23.9375,-32.125 z m -118.4375,4 c -10.96374,0 -19.875,16.9985 -19.875,38 0,21.0015 8.91126,38.0625 19.875,38.0625 10.96374,0 19.8125,-17.061 19.8125,-38.0625 0,-21.0015 -8.84876,-38 -19.8125,-38 z m 78.875,2.75 c -10.96374,0 -19.875,17.061 -19.875,38.0625 0,21.0015 8.91126,38 19.875,38 10.96374,0 19.875,-16.9985 19.875,-38 0,-21.0015 -8.91126,-38.0625 -19.875,-38.0625 z"
         style="fill:none;stroke:#000000;stroke-width:1.26984131;stroke-miterlimit:4;stroke-dasharray:none"
         inkscape:connector-curvature="0" />
      <path
         id="path4019"
         d="m 263.5786,809.61783 c -4.38816,0.1602 -9.29894,3.08918 -11.625,6.5625 -7.12734,10.6427 1.5625,38.375 1.5625,38.375 0,0 4.78186,-15.32596 10.1875,-20.875 2.34076,-2.40286 7.58762,-1.55406 8.9375,-4.625 2.57978,-5.86894 0.68788,-15.66734 -5,-18.625 -1.23626,-0.64284 -2.59978,-0.86588 -4.0625,-0.8125 z m 257.4375,2.8125 c -1.0706,0.079 -2.1353,0.33036 -3.0625,0.8125 -5.68788,2.95766 -7.57978,12.69356 -5,18.5625 1.34988,3.07094 6.59674,2.22214 8.9375,4.625 5.40564,5.54904 10.1875,20.9375 10.1875,20.9375 0,0 8.75234,-27.7948 1.625,-38.4375 -2.5199,-3.76276 -8.04826,-6.84222 -12.6875,-6.5 z m -212.75,15 c -6.0028,-0.26894 -12.40552,6.15644 -14.1875,11.9375 -3.13832,10.18122 10,30.375 10,30.375 0,0 1.04122,-13.93088 4.625,-19.625 2.11934,-3.36734 8.57624,-3.58996 9.3125,-7.5 1.06564,-5.6593 -2.91686,-13.86416 -8.5625,-15 -0.39538,-0.0796 -0.78732,-0.1696 -1.1875,-0.1874 z m 169.125,2.8125 c -0.40018,0.018 -0.79212,0.0454 -1.1875,0.125 -5.64564,1.13584 -9.62814,9.3407 -8.5625,15 0.73626,3.91004 7.13066,4.13266 9.25,7.5 3.58378,5.69412 4.6875,19.6875 4.6875,19.6875 0,0 13.13832,-20.19378 10,-30.375 -1.78198,-5.78106 -8.1847,-12.20644 -14.1875,-11.9375 z m -125.75,10.9375 c -5.05536,0.37284 -7.71006,6.5028 -9,11.75 -2.64606,10.76376 10,29.3125 10,29.3125 0,0 11.67432,-17.88478 10,-27.875 -0.98878,-5.89978 -4.03692,-12.71142 -10,-13.1875 -0.35908,-0.0286 -0.66298,-0.0248 -1,0 z m 81.3125,2.75 c -5.96308,0.47608 -9.01122,7.35022 -10,13.25 -1.67432,9.99022 10,27.875 10,27.875 0,0 12.64606,-18.54874 10,-29.3125 -1.37594,-5.59702 -4.2546,-12.2712 -10,-11.8125 z"
         style="fill:none;stroke:#000000;stroke-width:1.26984131;stroke-miterlimit:4;stroke-dasharray:none"
         inkscape:connector-curvature="0" />
      <path
         sodipodi:type="arc"
         style="fill:none;stroke:#000000;stroke-width:2.91938925;stroke-miterlimit:4;stroke-dasharray:none"
         id="path3776"
         sodipodi:cx="346.60715"
         sodipodi:cy="477.71933"
         sodipodi:rx="30.892857"
         sodipodi:ry="37.857143"
         d="m 377.5,477.71933 a 30.892857,37.857143 0 1 1 -61.78571,0 30.892857,37.857143 0 1 1 61.78571,0 z"
         transform="matrix(0.329252,0.3052703,-0.30375732,0.29299498,350.45328,148.02041)" />
      <path
         style="fill:none;stroke:#000000;stroke-width:1.26984131;stroke-miterlimit:4;stroke-dasharray:none"
         d="m 489.10734,395.89567 c 0.78326,6.20352 -2.65026,12.24852 -7.96188,13.924 -10.98266,3.46432 -21.69562,-9.60826 -14.82898,-20.58846 6.9005,-11.03436 21.48824,-3.65238 22.79086,6.66446 z"
         id="path3778"
         inkscape:connector-curvature="0"
         sodipodi:nodetypes="ssss" />
      <path
         style="fill:none;stroke:#000000;stroke-width:1.26984131;stroke-miterlimit:4;stroke-dasharray:none"
         d="m 475,385.78125 c -9.15163,0.7616 -11.86808,14.46352 -4.65625,19.78125 5.24101,5.34378 15.3673,2.61826 16.53125,-5.03125 2.0398,-7.35979 -4.4811,-15.06554 -11.875,-14.75 z"
         id="path3834"
         inkscape:connector-curvature="0" />
      <path
         style="fill:none;stroke:#000000;stroke-width:1.26984131;stroke-miterlimit:4;stroke-dasharray:none"
         d="m 474.71875,387.8125 c -8.45862,1.66559 -8.4222,15.04861 -0.6875,17.90625 6.63303,3.1415 13.35251,-4.35086 10.78125,-10.78125 -1.36467,-4.15496 -5.58295,-7.54274 -10.09375,-7.125 z"
         id="path3838"
         inkscape:connector-curvature="0" />
      <path
         style="fill:none;stroke:#000000;stroke-width:1.26984131;stroke-miterlimit:4;stroke-dasharray:none"
         d="m 475,389.8125 c -8.02748,1.86637 -4.87459,16.27349 3.34375,14.5 7.3125,-1.71893 5.80166,-12.42504 -0.71875,-14.1875 -0.84991,-0.24691 -1.73906,-0.42326 -2.625,-0.3125 z"
         id="path3842"
         inkscape:connector-curvature="0" />
      <path
         style="fill:none;stroke:#000000;stroke-width:1.26984131;stroke-miterlimit:4;stroke-dasharray:none"
         d="m 475.28125,391.8125 c -6.27197,1.77909 -1.54211,14.15942 4.3125,9.75 3.7844,-3.15365 0.46364,-10.22248 -4.3125,-9.75 z"
         id="path3846"
         inkscape:connector-curvature="0" />
      <path
         style="fill:none;stroke:#000000;stroke-width:1.26984131;stroke-miterlimit:4;stroke-dasharray:none"
         d="m 475.625,393.8125 c -3.67826,1.62967 0.8735,9.77206 3.40625,5.28125 0.7997,-2.18844 -0.94642,-5.36302 -3.40625,-5.28125 z"
         id="path3850"
         inkscape:connector-curvature="0" />
      <path
         style="fill:none;stroke:#000000;stroke-width:1.26984131;stroke-miterlimit:4;stroke-dasharray:none"
         d="m 476.25,396.125 c -0.12729,1.64123 1.76822,3.09759 0.65625,0.5625 -0.16086,-0.14103 -0.54806,-0.79028 -0.65625,-0.5625 z"
         id="path3854"
         inkscape:connector-curvature="0" />
      <path
         style="fill:none;stroke:#000000;stroke-width:1.26984131;stroke-miterlimit:4;stroke-dasharray:none"
         d="m 329.8747,382.87221 c -6.38348,-5.11386 -15.80008,-2.55027 -20.48171,2.6664 -4.67512,4.66809 -6.44977,13.14244 -1.04775,18.54794 5.46,5.29351 14.47794,3.86093 19.46005,-0.43523 6.10401,-4.67778 9.05405,-14.81431 2.06941,-20.77911 z"
         id="path3858"
         inkscape:connector-curvature="0" />
      <path
         style="fill:none;stroke:#000000;stroke-width:1.26984131;stroke-miterlimit:4;stroke-dasharray:none"
         d="m 320.59375,382.15625 c -9.48433,0.13239 -18.12143,12.6966 -10.84375,20.53125 9.37794,8.48921 26.17688,-3.51894 21.3125,-15.09375 -1.8029,-3.96951 -6.35932,-5.87845 -10.46875,-5.4375 z"
         id="path3862"
         inkscape:connector-curvature="0" />
      <path
         style="fill:none;stroke:#000000;stroke-width:1.26984131;stroke-miterlimit:4;stroke-dasharray:none"
         d="m 320.75,384.15625 c -8.35124,-0.29599 -16.27589,12.17489 -8.5,17.9375 8.67944,5.69722 22.42239,-6.24086 15.96875,-15.25 -1.79591,-2.09193 -4.77069,-2.98364 -7.46875,-2.6875 z"
         id="path3866"
         inkscape:connector-curvature="0" />
      <path
         style="fill:none;stroke:#000000;stroke-width:1.26984131;stroke-miterlimit:4;stroke-dasharray:none"
         d="m 321.375,386.125 c -6.87955,-0.74558 -14.14533,9.5224 -7.84375,14.40625 7.20897,4.49659 19.04307,-6.32104 12.28125,-13.21875 -1.29174,-0.88234 -2.87474,-1.30379 -4.4375,-1.1875 z"
         id="path3870"
         inkscape:connector-curvature="0" />
      <path
         style="fill:none;stroke:#000000;stroke-width:1.26984131;stroke-miterlimit:4;stroke-dasharray:none"
         d="m 320.28125,388.125 c -5.14718,-0.0255 -10.54892,9.11735 -4.3125,11.3125 5.50372,1.54645 13.40465,-6.51691 7.96875,-10.875 -1.14757,-0.59873 -2.41896,-0.45545 -3.65625,-0.4375 z"
         id="path3875"
         inkscape:connector-curvature="0" />
      <path
         style="fill:none;stroke:#000000;stroke-width:1.26984131;stroke-miterlimit:4;stroke-dasharray:none"
         d="m 320.40625,390.125 c -3.17548,-0.0956 -7.26249,5.45622 -3.96875,7.375 3.59459,1.19825 9.88924,-4.63508 6,-7.34375 -0.66827,-0.064 -1.35443,-0.0937 -2.03125,-0.0312 z m 2.6875,0.375 c 0.10364,-0.0325 -0.0429,-0.0577 0,0 z"
         id="path3879"
         inkscape:connector-curvature="0" />
      <path
         style="fill:none;stroke:#000000;stroke-width:1.26984131;stroke-miterlimit:4;stroke-dasharray:none"
         d="m 320.53125,392.125 c -1.52965,-0.0471 -3.8123,2.38924 -3.03125,3.53125 1.64009,-0.0184 4.74289,-2.21756 3.8125,-3.5625 -0.26059,0.006 -0.52241,-0.0171 -0.78125,0.0312 z"
         id="path3883"
         inkscape:connector-curvature="0" />
      <path
         style="fill:none;stroke:#000000;stroke-width:1.26984131;stroke-miterlimit:4;stroke-dasharray:none"
         d="m 263.3125,811.65625 c -8.27478,0.55356 -12.97097,8.82915 -12.15625,16.59375 -0.0225,6.6149 1.10326,13.11327 2.625,19.53125 3.2569,-7.19534 6.12295,-17.56767 15.5,-18.46875 3.82577,-1.8515 2.47585,-8.06037 1.65625,-11.40625 -0.96332,-3.35015 -3.75982,-6.85414 -7.625,-6.25 z m 257.875,2.78125 c -7.23334,1.07802 -9.07932,11.70197 -5.90625,17.09375 4.55484,1.22549 9.36791,3.0034 11.28125,7.875 2.14361,3.54485 3.72583,7.3851 5.28125,11.25 1.80999,-9.9651 5.2626,-21.86824 -0.15625,-31.09375 -2.42209,-3.04563 -6.49387,-5.27999 -10.5,-5.125 z m -213.84375,15.03125 c -8.55252,1.4559 -14.28265,11.53717 -10.78125,19.6875 1.42022,5.04618 3.74799,9.85847 6.21875,14.5 1.13011,-7.36323 2.47266,-16.92468 10.9375,-19.25 4.80601,-2.03832 1.73951,-8.81332 -0.40625,-11.84375 -1.4015,-1.85536 -3.54869,-3.35458 -5.96875,-3.09375 z M 477,832.28125 c -5.46649,1.25746 -8.81466,8.6042 -6.90625,13.625 4.27551,2.50011 9.57871,4.65853 10.46875,10.28125 1.05685,3.36808 1.82122,6.77506 2.28125,10.28125 3.71283,-7.86161 9.86689,-17.30857 5.8125,-26.125 -2.39481,-4.09562 -6.52411,-8.35491 -11.65625,-8.0625 z M 351.78125,843.1875 c -5.85027,1.49633 -7.56543,9.22488 -7.4375,14.59375 0.94308,7.33563 4.61427,14.84651 8.375,20.5 5.18728,-9.39275 11.84688,-21.21368 5.125,-31.40625 -1.26139,-2.10329 -3.49218,-3.90976 -6.0625,-3.6875 z m 81.40625,2.75 c -6.51318,1.09376 -8.56662,9.49335 -8.3125,15.09375 1.02467,7.23763 4.51981,13.83223 8.09375,20.25 5.60037,-9.498 12.40238,-22.27827 4.9375,-32.59375 -0.99647,-1.57552 -2.74455,-2.99556 -4.71875,-2.75 z"
         id="path3887"
         inkscape:connector-curvature="0" />
      <path
         style="fill:none;stroke:#000000;stroke-width:1.26984131;stroke-miterlimit:4;stroke-dasharray:none"
         d="m 263.84375,813.625 c -8.46319,0.21559 -11.95608,9.81736 -10.65625,17.03125 0.18501,3.55481 0.51567,7.00954 1.25,10.5 2.43994,-6.6452 7.42511,-12.9661 14.625,-14.125 1.85307,-4.25236 0.55035,-11.30406 -4.0625,-13.34375 -0.37808,-0.0709 -0.77317,-0.13835 -1.15625,-0.0625 z M 521.25,816.46875 c -5.4275,1.47656 -6.55225,8.80353 -4.5625,13.375 7.39632,1.19715 11.81596,7.09636 14.28172,13.68024 1.61551,-6.26825 3.23095,-16.61892 -1.28172,-23.24274 -2.16762,-2.30857 -5.22201,-3.97257 -8.4375,-3.8125 z m -213.59375,15 c -8.82494,1.50084 -12.63223,12.53618 -8.3125,19.875 0.99861,2.52482 2.69787,8.53659 3.25,3 1.26981,-5.96781 5.87164,-10.45096 11.34375,-12.5625 1.19726,-3.48788 -2.16211,-10.35024 -6.28125,-10.3125 z m 169.40625,2.84375 c -3.91078,1.28211 -7.40424,7.73371 -4.3125,10.78125 6.07214,2.46341 10.15288,7.93372 10.8125,14.4375 1.01575,0.0816 2.63026,-5.02504 3.5,-7.25 3.10234,-7.45176 -1.50082,-17.72653 -10,-17.96875 z m -125,10.875 c -7.18841,3.44212 -6.44637,13.85466 -3.78125,20.0625 1.12561,3.16029 2.63103,6.19658 4.34375,9.09375 4.7603,-8.17883 9.7373,-20.60708 1.875,-28.3125 -0.5648,-0.45085 -1.54856,-0.9574 -2.4375,-0.84375 z m 81.4375,2.75 c -7.04653,2.03935 -7.64782,12.0303 -5.5,17.84375 1.25822,3.53214 3.20687,9.56157 5.34375,10.8125 4.89057,-8.2691 9.61744,-20.92438 1.1875,-28.46875 -0.31729,-0.12292 -0.6934,-0.29402 -1.03125,-0.1875 z"
         id="path3891"
         inkscape:connector-curvature="0" />
      <path
         style="fill:none;stroke:#000000;stroke-width:1.26984131;stroke-miterlimit:4;stroke-dasharray:none"
         d="m 264.0625,815.625 c -7.95026,0.22243 -10.21441,9.97261 -8.8125,16.28125 -0.3393,4.376 1.25074,0.91486 2.78125,-0.71875 2.33523,-3.1175 6.54745,-4.79326 9.59375,-6.28125 0.69846,-3.21614 -0.17893,-8.20837 -3.5625,-9.28125 z m 257.28125,2.90625 c -3.52209,1.40017 -4.52606,7.01132 -2.75,9.65625 4.91544,1.20425 9.01694,4.82361 11.59375,9.09375 1.09528,-7.03369 0.82941,-18.85398 -8.84375,-18.75 z M 307.375,833.5625 c -7.73192,1.34045 -9.76159,13.13837 -5.78125,17.28125 1.75802,-5.02123 6.70399,-8.34736 10.59375,-10.90625 -0.30544,-2.45585 -1.82766,-6.5272 -4.8125,-6.375 z m 169.9375,2.8125 c -2.86901,1.28208 -6.00563,7.01522 -1.3125,8.09375 3.87286,1.74665 6.95748,6.82762 8.40625,9.1875 3.60417,-6.20369 0.98773,-16.65938 -7.09375,-17.28125 z m -124.96875,10.9375 c -6.91321,5.23811 -3.4486,15.23538 -0.3125,21.75 1.20619,2.75851 2.29596,-3.69238 3.15625,-4.84375 1.93749,-5.5322 2.58286,-13.30077 -2.65625,-17 l -0.1875,0.0937 z m 81.15625,2.75 c -7.24334,4.08903 -4.47485,14.39491 -1.625,20.46875 1.17269,5.35219 2.82194,-1.43084 3.71875,-3.375 2.06176,-5.44833 2.72051,-13.17119 -2.09375,-17.09375 z"
         id="path3895"
         inkscape:connector-curvature="0" />
      <path
         style="fill:none;stroke:#000000;stroke-width:1.26984131;stroke-miterlimit:4;stroke-dasharray:none"
         d="m 263.09375,817.71875 c -5.12624,0.93165 -6.69233,7.80234 -6.0625,11.53125 2.13355,-3.09558 6.8427,-3.91043 8.8125,-6.40625 -0.0556,-1.63911 -0.43021,-5.33594 -2.75,-5.125 z M 521.75,820.5625 c -2.22682,1.40837 -3.41476,6.68808 0.4375,6.75 2.33368,0.57581 5.51143,4.31186 6.4375,4.0625 0.0393,-4.39038 -1.31917,-10.98528 -6.875,-10.8125 z m -214.375,15.03125 c -4.46083,0.98892 -6.45782,7.31183 -5.53125,10.5625 1.8804,-3.22095 6.35204,-5.09059 7.9375,-7.75 -0.43475,-1.04417 -1.01378,-2.91295 -2.40625,-2.8125 z M 477.625,838.5 c -1.76677,1.18707 -3.2938,4.41182 0.0625,4.59375 2.54882,1.08483 4.91335,4.8119 6.21875,5.75 0.56626,-4.20677 -1.44517,-9.87527 -6.28125,-10.34375 z M 352.25,850.125 c -3.48707,4.26662 -1.56196,11.04956 0.375,15.03125 1.95037,-4.68336 3.38729,-10.99898 -0.125,-15.3125 l -0.25,0.28125 z m 80.875,2.65625 c -3.91651,4.28844 -1.94239,10.61759 -0.0625,15.4375 1.82884,-4.58979 3.65444,-11.6159 0.0625,-15.4375 z"
         id="path3899"
         inkscape:connector-curvature="0" />
      <path
         style="fill:none;stroke:#000000;stroke-width:1.26984131;stroke-miterlimit:4;stroke-dasharray:none"
         d="m 263.0625,819.78125 c -2.21249,0.67346 -3.31988,2.93108 -3.8125,5.03125 1.99015,-1.43676 6.19942,-2.15558 3.8125,-5.03125 z m 259.375,2.84375 c -1.74692,2.08383 -0.42338,3.07475 1.6875,3.3125 4.16271,3.70578 0.65629,-3.78031 -1.6875,-3.3125 z m -215.34375,15.15625 c -1.27599,0.24413 -3.9478,4.46728 -1.25,1.8125 0.33072,-0.33827 2.48039,-1.73177 1.25,-1.8125 z m 171.09375,2.90625 c -0.40421,0.66413 4.19642,2.89027 1.5,0.78125 -0.40681,-0.36448 -0.96918,-0.74976 -1.5,-0.78125 z m -125.75,13.90625 c -0.36536,1.48805 0.22361,5.75322 0.1875,1.75 0.0315,-0.52099 -0.0664,-1.55715 -0.1875,-1.75 z M 433,857.53125 c -0.47826,3.41316 0.42805,3.5114 0.125,0.21875 -0.0646,-0.0319 -0.0285,-1.04417 -0.125,-0.21875 z"
         id="path3903"
         inkscape:connector-curvature="0" />
    </g>
  </g>
</svg>
