<?xml version="1.0" encoding="UTF-8" standalone="no"?>
<!-- Created with Inkscape (http://www.inkscape.org/) -->

<svg
   xmlns:dc="http://purl.org/dc/elements/1.1/"
   xmlns:cc="http://creativecommons.org/ns#"
   xmlns:rdf="http://www.w3.org/1999/02/22-rdf-syntax-ns#"
   xmlns:svg="http://www.w3.org/2000/svg"
   xmlns="http://www.w3.org/2000/svg"
   xmlns:sodipodi="http://sodipodi.sourceforge.net/DTD/sodipodi-0.dtd"
   xmlns:inkscape="http://www.inkscape.org/namespaces/inkscape"
   width="900"
   height="603"
   id="svg2"
   version="1.1"
   inkscape:version="0.48.4 r9939"
   sodipodi:docname="cute_owl_002.svg">
  <defs
     id="defs4" />
  <sodipodi:namedview
     id="base"
     pagecolor="#ffffff"
     bordercolor="#666666"
     borderopacity="1.0"
     inkscape:pageopacity="0.0"
     inkscape:pageshadow="2"
     inkscape:zoom="0.98994948"
     inkscape:cx="474.41166"
     inkscape:cy="422.10385"
     inkscape:document-units="px"
     inkscape:current-layer="g4128"
     showgrid="false"
     inkscape:object-paths="true"
     inkscape:snap-intersection-paths="true"
     inkscape:object-nodes="true"
     inkscape:snap-smooth-nodes="true"
     inkscape:snap-global="false"
     fit-margin-top="0"
     fit-margin-left="0"
     fit-margin-right="0"
     fit-margin-bottom="0"
     inkscape:window-width="1600"
     inkscape:window-height="1138"
     inkscape:window-x="-8"
     inkscape:window-y="-8"
     inkscape:window-maximized="1" />
  <metadata
     id="metadata7">
    <rdf:RDF>
      <cc:Work
         rdf:about="">
        <dc:format>image/svg+xml</dc:format>
        <dc:type
           rdf:resource="http://purl.org/dc/dcmitype/StillImage" />
        <dc:title></dc:title>
      </cc:Work>
    </rdf:RDF>
  </metadata>
  <g
     inkscape:label="Layer 1"
     inkscape:groupmode="layer"
     id="layer1"
     transform="translate(-102.85715,-140.79078)">
    <g
       id="g4128"
       transform="matrix(1.575,0,0,1.575,-59.142855,-427.67965)"
       style="stroke:#000000;fill:none;stroke-width:0.63492063;stroke-miterlimit:4;stroke-dasharray:none">
      <path
         id="path3886"
         d="m 288.38752,494.30163 c -23.10994,34.10016 -24.11079,42.9919 -110.28125,119.5625 -11.53908,10.25357 -29.21107,28.785 -20.375,38.59375 16.56391,18.38726 49.28125,-12.15625 49.28125,-12.15625 0,0 -19.70654,29.72982 -2.84375,44.28125 10.38015,8.95736 38.5625,-14.28125 38.5625,-14.28125 0,0 -7.2412,23.87903 7.875,28.5625 16.55715,5.12992 31.40625,-20 31.40625,-20 0,0 -3.69341,10.71895 6.4375,13.59375 8.03959,2.28135 34.30357,-31.88209 34.30357,-31.88209 m 131.21363,4.32412 c 14.43542,15.54057 29.88073,30.814 33.9203,29.74547 10.18074,-2.69298 6.65625,-13.4375 6.65625,-13.4375 0,0 14.44743,25.39521 31.09375,20.5625 15.19762,-4.41213 8.34375,-28.4375 8.34375,-28.4375 0,0 27.77367,23.73886 38.3125,14.96875 17.12057,-14.24724 -2.0625,-44.3125 -2.0625,-44.3125 0,0 32.17209,31.0878 49.0625,13 9.01023,-9.64901 -8.30257,-28.44777 -19.65625,-38.90625 -84.78598,-78.10086 -85.62918,-87.02287 -108.125,-121.53125"
         style="fill:none;stroke:#000000;stroke-width:0.63492066;stroke-miterlimit:4;stroke-dasharray:none"
         inkscape:connector-curvature="0"
         sodipodi:nodetypes="csscscscsccscscscssc" />
      <path
         id="path3888"
         d="m 280.71234,511.55378 c -7.34169,9.36795 -4.68683,20.17476 -79.29357,86.93535 -9.99059,8.93991 -25.2753,25.07292 -17.625,33.625 14.3411,16.03154 37.65625,-8.09375 37.65625,-8.09375 0,0 -18.13112,22.71911 -3.53125,35.40625 8.98718,7.80977 38.5625,-13.875 38.5625,-13.875 0,0 -11.58616,17.49626 4.125,28.125 12.42265,8.40403 27.21875,-12.96875 27.21875,-12.96875 0,0 -2.5768,11.47677 6.09375,14.3125 7.40892,2.42311 15.88042,-11.07553 22.04617,-18.15046 m 143.04439,0.62382 c 0,0 14.26189,21.51074 23.72194,19.65164 8.95127,-1.75911 6.375,-14.21875 6.375,-14.21875 0,0 14.39766,21.64906 26.96875,13.46875 15.89891,-10.34579 4.625,-28.0625 4.625,-28.0625 0,0 29.18696,22.21014 38.3125,14.5625 14.82464,-12.42376 -2.90625,-35.4375 -2.90625,-35.4375 0,0 22.90547,24.52225 37.53125,8.75 7.80217,-8.41376 -7.20229,-24.82018 -17.03125,-33.9375 -73.39972,-68.08542 -63.12948,-64.27622 -82.60275,-94.36097"
         style="fill:none;stroke:#000000;stroke-width:0.63492066;stroke-miterlimit:4;stroke-dasharray:none"
         inkscape:connector-curvature="0"
         sodipodi:nodetypes="csscscscsccscscscssc" />
      <path
         id="path3890"
         d="m 225.07502,594.23913 -17.875,12.5 c -4.25925,2.98147 -0.51639,10.85189 4.65625,4.28125 l 13.21875,-16.78125 z m 327.9375,3.34375 12.9375,17.03125 c 5.05419,6.66218 8.92394,-1.13026 4.71875,-4.1875 l -17.65625,-12.84375 z m -305.625,22.71875 -13.21875,13.40625 c -5.0523,5.12058 2.29459,10.40272 5.34375,3.75 l 7.875,-17.15625 z m 282.84375,2.96875 7.5625,17.28125 c 2.92959,6.70623 10.39733,1.55395 5.4375,-3.65625 l -13,-13.625 z m -253.375,15.59375 -10.1875,12.6875 c -5.14456,6.40813 5.303,11.17316 6.78125,3.9375 l 3.40625,-16.625 z m 223.59375,2.4375 3.09375,16.65625 c 1.34849,7.26096 11.87278,2.71794 6.84375,-3.78125 l -9.9375,-12.875 z m -198.78125,11.6875 -5.71875,7.5 c -5.63962,7.40199 5.12918,8.76219 5.375,2.125 l 0.34375,-9.625 z m 173.71875,1.96875 0.1875,9.65625 c 0.12696,6.64052 10.88121,5.43925 5.375,-2.0625 l -5.5625,-7.59375 z"
         style="fill:none;stroke:#000000;stroke-width:0.63492063;stroke-miterlimit:4;stroke-dasharray:none"
         inkscape:connector-curvature="0" />
      <path
         style="fill:none;stroke:#000000;stroke-width:1;stroke-miterlimit:4;stroke-dasharray:none"
         d="m 437.39381,496.83585 c 2.52775,0.20871 7.60105,0.38851 10.16869,0.53915 6.50167,0.38145 16.20057,-0.11233 22.28338,-0.20764 m 82.59666,-22.4698 c 24.86855,-16.21348 44.00752,-40.65381 55.30126,-68.10463 23.31095,-56.66014 20.80627,-130.71063 5.28745,-195.12418 C 590.76033,119.02943 554.4375,39.5 554.4375,39.5 c -18.45209,24.397601 -35.70259,42.925579 -54.90625,54.53125 -1.52711,0.922903 -3.06035,1.790223 -4.59375,2.625 0.79006,-6.771956 -3.95099,-7.881928 -17.5625,5.84375 7.42707,-29.695743 -9.77291,-29.650237 -18.28125,-3.375 -1.0999,-25.295114 -15.02071,-26.576008 -15.75,-1.125 -18.24533,-15.008467 -23.5897,-9.603315 -21.0625,1.15625 -2.78119,-1.720901 -5.47366,-3.698446 -8.0625,-5.9375 C 394.55895,76.215239 379.61224,58.648173 358.6875,39.5 c 0,0 -16.7396,49.642366 -36.59375,100.5 -0.0227,0.018 -0.0398,0.0445 -0.0625,0.0625 -3.29262,8.43315 -6.64411,16.8924 -10.03125,25.15625 -0.0727,0.17693 -0.14601,0.3545 -0.21875,0.53125 -1.62055,3.94865 -3.24917,7.84956 -4.875,11.6875 -1.1471,2.70289 -2.29436,5.37291 -3.4375,8 -0.54835,1.26071 -1.10891,2.57153 -1.65625,3.8125 -3.25004,7.36974 -6.46865,14.38955 -9.59375,20.8125 -61.36071,126.11309 -26.89673,222.67842 59.92721,265.02338"
         transform="matrix(0.63492063,0,0,0.63492063,102.85715,360.93361)"
         id="path3052"
         inkscape:connector-curvature="0"
         sodipodi:nodetypes="csccsscscccccsccccccccsc" />
      <path
         id="path3068"
         d="m 290.54377,489.77038 c 12.28765,23.12941 51.92124,40.29906 99.56007,41.35473 m 4.65868,0.0515 c 43.41566,0 80.86316,-13.3863 98.09375,-32.6875 -0.25106,-1.09997 -0.51826,-2.18967 -0.78125,-3.28125 -1.93101,-8.01497 -4.03919,-15.8733 -6.21875,-23.46875"
         style="fill:none;stroke:#000000;stroke-width:0.63492066;stroke-miterlimit:4;stroke-dasharray:none"
         inkscape:connector-curvature="0"
         sodipodi:nodetypes="ccccsc" />
      <path
         id="path4125"
         d="m 427.84375,436 c -11.97451,0.20887 -23.73782,5.08583 -32.25,16.46875 -0.51634,0.69048 -1.00723,1.36702 -1.46875,2.0625 -1.56224,-2.81049 -3.57602,-5.40719 -6.03125,-7.71875 -14.83918,-13.97081 -40.47362,-11.96312 -57.25,4.46875 -16.77638,16.43187 -18.33918,41.06044 -3.5,55.03125 11.01414,10.36961 27.97149,11.93516 42.84375,5.34375 4.85688,9.99173 19.00729,19.36822 22.375,21.03125 4.18671,-2.4836 17.44196,-11.93898 21.65625,-21.5 10.20114,4.69078 22.33613,6.29594 34.59375,3.0625 19.06091,-5.02809 31.37328,-23.16454 28.5625,-41.78125 C 474.30737,452.15078 450.70418,435.60125 427.84375,436 z"
         style="fill:none;fill-opacity:1;stroke:#000000;stroke-width:0.63492063;stroke-miterlimit:4;stroke-dasharray:none"
         inkscape:connector-curvature="0" />
      <path
         sodipodi:nodetypes="cccsc"
         inkscape:connector-curvature="0"
         id="path3079"
         d="m 384.34734,423.15935 c 0.46304,-16.15937 9.30165,-15.34611 10,0.71428 5.40212,-16.68269 16.32275,-16.71158 11.60715,2.14286 23.2985,-23.49392 5.69284,21.42116 -11.42857,20.89286 -20.69552,-0.63858 -36.37871,-45.30202 -10.17858,-23.75 z"
         style="fill:none;stroke:#000000;stroke-width:0.63492063;stroke-miterlimit:4;stroke-dasharray:none" />
      <path
         id="path3087"
         d="m 358.60627,449.83288 c -6.98173,0.22368 -14.23114,3.19143 -19.90625,8.75 -10.68256,10.4632 -11.69903,26.16641 -2.25,35.0625 9.44903,8.89609 25.78619,7.61945 36.46875,-2.84375 10.68256,-10.4632 11.66778,-26.16641 2.21875,-35.0625 -4.42923,-4.17004 -10.3709,-6.10362 -16.53125,-5.90625 z m 71.03125,0.625 c -7.64195,0.1333 -15.13015,3.23559 -20.5625,10.5 -15.72562,21.02911 8.78557,46.07234 33.9375,39.4375 12.16438,-3.20885 20.0438,-14.8066 18.25,-26.6875 -1.95772,-12.96662 -17.03582,-23.50448 -31.625,-23.25 z"
         style="fill:none;fill-opacity:1;stroke:#000000;stroke-width:0.63492063;stroke-miterlimit:4;stroke-dasharray:none"
         inkscape:connector-curvature="0" />
      <path
         transform="matrix(0.164626,0.15263515,-0.15187866,0.14649749,369.51236,350.19042)"
         d="m 377.5,477.71933 c 0,20.90792 -13.8312,37.85714 -30.89285,37.85714 -17.06166,0 -30.89286,-16.94922 -30.89286,-37.85714 0,-20.90792 13.8312,-37.85714 30.89286,-37.85714 17.06165,0 30.89285,16.94922 30.89285,37.85714 z"
         sodipodi:ry="37.857143"
         sodipodi:rx="30.892857"
         sodipodi:cy="477.71933"
         sodipodi:cx="346.60715"
         id="path3089"
         style="fill:none;fill-opacity:1;stroke:#000000;stroke-width:2.91938924;stroke-miterlimit:4;stroke-dasharray:none"
         sodipodi:type="arc" />
      <path
         sodipodi:nodetypes="ssss"
         inkscape:connector-curvature="0"
         id="path3093"
         d="m 438.83939,474.12805 c 0.39163,3.10176 -1.32513,6.12426 -3.98094,6.962 -5.49133,1.73216 -10.84781,-4.80413 -7.41449,-10.29423 3.45025,-5.51718 10.74412,-1.82619 11.39543,3.33223 z"
         style="fill:none;fill-opacity:1;stroke:#000000;stroke-width:0.63492063;stroke-miterlimit:4;stroke-dasharray:none" />
      <path
         id="path3095"
         d="m 391.48127,479.95788 c -2.71475,1.84074 -20.90948,14.55834 -21.25,25 -0.36774,11.27615 18.45491,23.86049 21.53125,25.84375 l -0.28125,-50.84375 z m 1.5,0.3125 0.28125,50.34375 c 3.93832,-2.68741 20.90774,-14.88289 20.5625,-25.3125 -0.32115,-9.70186 -16.69714,-22.05146 -20.84375,-25.03125 z"
         style="fill:none;fill-opacity:1;stroke:#000000;stroke-width:0.63492063;stroke-miterlimit:4;stroke-dasharray:none"
         inkscape:connector-curvature="0" />
      <path
         sodipodi:nodetypes="csscsc"
         inkscape:connector-curvature="0"
         id="path3872"
         d="m 332.38306,402.8022 c -0.48213,2.6632 0.11197,4.69465 -1.10115,7.84571 -2.01492,5.23371 -5.8749,11.67173 -4.85615,15.37724 1.5067,5.48034 6.97061,9.86581 14.67606,7.27407 7.97151,-3.04139 9.5144,-11.86552 6.47685,-17.64882 -3.20216,-6.09668 -11.31572,-9.17182 -15.19561,-12.8482 z"
         style="fill:none;stroke:#000000;stroke-width:0.63492063;stroke-miterlimit:4;stroke-dasharray:none" />
      <path
         sodipodi:nodetypes="csssc"
         inkscape:connector-curvature="0"
         id="path3874"
         d="m 450.59734,401.5522 c 0,0 -13.56793,7.81199 -14.82143,14.64286 -0.95672,5.21358 1.60877,12.69994 6.60715,14.46429 5.64793,1.99363 13.87699,-2.46273 16.07143,-8.03572 2.74648,-6.97497 -7.85715,-21.07143 -7.85715,-21.07143 z"
         style="fill:none;stroke:#000000;stroke-width:0.63492063;stroke-miterlimit:4;stroke-dasharray:none" />
      <path
         id="path3898"
         d="m 297.79377,516.39538 c -4.48516,0.41765 -9.20927,6.07183 -11.1875,13.84375 -2.26083,8.8822 -0.0671,17.15738 4.90625,18.46875 4.97335,1.31137 10.83292,-4.83655 13.09375,-13.71875 2.26083,-8.8822 0.0671,-17.12613 -4.90625,-18.4375 -0.62167,-0.16392 -1.26551,-0.21591 -1.90625,-0.15625 z m 20.90625,13.53125 c -4.34778,0.2452 -8.38996,5.82372 -9.25,13.03125 -0.91738,7.68803 2.14377,14.33155 6.8125,14.84375 4.66873,0.5122 9.20762,-5.31197 10.125,-13 0.91738,-7.68803 -2.14377,-14.33155 -6.8125,-14.84375 -0.2918,-0.032 -0.58515,-0.0476 -0.875,-0.0312 z m 164.40625,1.71875 c -4.97453,0.34728 -8.70091,6.40846 -8.3125,13.5625 0.38841,7.15404 4.74422,12.69103 9.71875,12.34375 4.97453,-0.34728 8.70091,-6.43971 8.3125,-13.59375 -0.38841,-7.15404 -4.74422,-12.65978 -9.71875,-12.3125 z m -142.46875,6.78125 c -4.10268,0.21801 -7.90719,5.18564 -8.71875,11.59375 -0.86566,6.83532 2.00071,12.73211 6.40625,13.1875 4.40554,0.45539 8.66559,-4.69593 9.53125,-11.53125 0.86566,-6.83532 -2.00071,-12.76336 -6.40625,-13.21875 -0.27535,-0.0285 -0.53899,-0.0458 -0.8125,-0.0312 z m 122.625,0.40625 c -5.24018,0.39332 -9.15916,7.3036 -8.75,15.40625 0.40916,8.10265 4.97857,14.33082 10.21875,13.9375 5.24018,-0.39332 9.15916,-7.27235 8.75,-15.375 -0.40916,-8.10265 -4.97857,-14.36207 -10.21875,-13.96875 z m -98.8125,4.59375 c -4.09215,0.36581 -7.7013,5.44179 -8.28125,11.875 -0.61862,6.86209 2.45591,12.67252 6.875,12.96875 4.41909,0.29623 8.50638,-5.04416 9.125,-11.90625 0.61862,-6.86209 -2.45591,-12.64127 -6.875,-12.9375 -0.27619,-0.0185 -0.57094,-0.0244 -0.84375,0 z m 76.3125,2.4375 c -4.71068,-0.006 -8.6875,5.58764 -8.875,12.46875 -0.1875,6.88111 3.47682,12.46287 8.1875,12.46875 4.71068,0.006 8.6875,-5.55639 8.875,-12.4375 0.1875,-6.88111 -3.47682,-12.49412 -8.1875,-12.5 z m -25.1875,0.4375 c -5.05407,0.47273 -8.76069,6.97345 -8.25,14.5 0.51069,7.52655 5.03968,13.25398 10.09375,12.78125 5.05407,-0.47273 8.72944,-6.97345 8.21875,-14.5 -0.51069,-7.52655 -5.00843,-13.25398 -10.0625,-12.78125 z m -24.84375,0.65625 c -4.42844,-0.0711 -8.2312,5.42783 -8.5,12.3125 -0.2688,6.88467 3.10281,12.52266 7.53125,12.59375 4.42844,0.0711 8.2312,-5.42783 8.5,-12.3125 0.2688,-6.88467 -3.10281,-12.52266 -7.53125,-12.59375 z m -99.96875,16.96875 c -5.1306,0.49192 -8.39752,7.35919 -7.3125,15.3125 1.08502,7.95331 6.1194,13.99192 11.25,13.5 5.1306,-0.49192 8.42877,-7.32794 7.34375,-15.28125 -1.08502,-7.95331 -6.15065,-14.02317 -11.28125,-13.53125 z m 193.25,6 c -4.05835,-0.2053 -8.00925,5.12187 -9.09375,12.46875 -1.1568,7.83667 1.39133,15.01054 5.71875,16.03125 4.32742,1.02071 8.7807,-4.50708 9.9375,-12.34375 1.1568,-7.83667 -1.42258,-15.01054 -5.75,-16.03125 -0.27046,-0.0638 -0.54194,-0.11131 -0.8125,-0.125 z m -167.34375,2.125 c -5.41406,-0.40576 -10.05269,6.16331 -10.34375,14.65625 -0.29106,8.49294 3.86719,15.71924 9.28125,16.125 5.41406,0.40576 10.05269,-6.16331 10.34375,-14.65625 0.29106,-8.49294 -3.86719,-15.71924 -9.28125,-16.125 z m 148.78125,2.59375 c -4.64349,-0.22475 -9.19663,5.58199 -10.4375,13.625 -1.32359,8.57922 1.6424,16.44508 6.59375,17.5625 4.95135,1.11742 10.02016,-4.92078 11.34375,-13.5 1.32359,-8.57922 -1.61115,-16.44508 -6.5625,-17.5625 -0.30946,-0.0698 -0.62793,-0.11002 -0.9375,-0.125 z m -125.15625,1.03125 c -5.13418,0.44496 -9.37437,7.1295 -9.65625,15.625 -0.30067,9.06186 4.00109,16.75456 9.59375,17.1875 5.59266,0.43294 10.35558,-6.56314 10.65625,-15.625 0.30067,-9.06186 -3.96984,-16.75456 -9.5625,-17.1875 -0.34954,-0.0271 -0.68897,-0.0297 -1.03125,0 z m 101.71875,3.6875 c -5.57065,-0.24394 -11.04262,6.08294 -12.53125,14.8125 -1.58787,9.31153 1.93502,17.84969 7.875,19.0625 5.93998,1.21281 12.03713,-5.34472 13.625,-14.65625 1.58787,-9.31153 -1.93502,-17.84969 -7.875,-19.0625 -0.37125,-0.0758 -0.72237,-0.13999 -1.09375,-0.15625 z m -74.09375,1.3125 c -5.15024,0.18131 -9.7207,6.65511 -10.4375,15.125 -0.76458,9.03455 3.12437,16.93732 8.6875,17.65625 5.56313,0.71893 10.70417,-6.02795 11.46875,-15.0625 0.76458,-9.03455 -3.12437,-16.93732 -8.6875,-17.65625 -0.3477,-0.0449 -0.6879,-0.0746 -1.03125,-0.0625 z m 48.0625,4.65625 c -5.23994,0.0609 -10.01277,6.42684 -10.9375,14.875 -0.98638,9.01137 2.76739,16.99529 8.40625,17.84375 5.63886,0.84846 11.01362,-5.76988 12,-14.78125 0.98638,-9.01137 -2.79864,-16.99529 -8.4375,-17.84375 -0.35243,-0.053 -0.68192,-0.0978 -1.03125,-0.0937 z m -23.0625,0.0312 c -5.48832,0.19069 -10.3299,6.96692 -11.09375,15.875 -0.81477,9.50195 3.32168,17.83763 9.25,18.59375 5.92832,0.75612 11.40398,-6.3418 12.21875,-15.84375 0.81477,-9.50195 -3.32168,-17.80638 -9.25,-18.5625 -0.37052,-0.0473 -0.75911,-0.0752 -1.125,-0.0625 z m -81.46875,20.4375 c -0.35787,-0.0222 -0.73402,-0.004 -1.09375,0.0312 -5.75567,0.56769 -9.43597,8.4467 -8.21875,17.625 1.21722,9.1783 6.86933,16.16144 12.625,15.59375 5.75567,-0.56769 9.43597,-8.4467 8.21875,-17.625 -1.14114,-8.60466 -6.16325,-15.29227 -11.53125,-15.625 z m 157.15625,6.6563 c -4.87977,0.23773 -10.05442,5.31844 -12.25,12.46875 -2.50924,8.17179 -0.18203,15.92843 5.21875,17.3125 5.40078,1.38407 11.83451,-4.10946 14.34375,-12.28125 2.50924,-8.17179 0.15078,-15.92843 -5.25,-17.3125 -0.6751,-0.17301 -1.36539,-0.22146 -2.0625,-0.1875 z m -131.15625,4 c -5.7705,0.22455 -9.89743,8.37691 -9.25,18.1875 0.64743,9.81059 5.82325,17.5683 11.59375,17.34375 5.7705,-0.22455 9.92868,-8.34566 9.28125,-18.15625 -0.64743,-9.81059 -5.8545,-17.59955 -11.625,-17.375 z m 105.3125,1.59375 c -5.49694,-0.10726 -10.96873,6.97875 -12.5625,16.59375 -1.70002,10.256 1.65214,19.49723 7.5,20.65625 5.84786,1.15902 11.95623,-6.21275 13.65625,-16.46875 1.70002,-10.256 -1.65214,-19.52848 -7.5,-20.6875 -0.36549,-0.0724 -0.72729,-0.0866 -1.09375,-0.0937 z m -78.78125,2.75 c -6.05414,0.18215 -11.099,8.50537 -11.40625,19.03125 -0.31716,10.86543 4.53167,19.95213 10.84375,20.3125 6.31208,0.36037 11.68284,-8.13457 12,-19 0.31716,-10.86543 -4.53167,-19.98338 -10.84375,-20.34375 -0.19725,-0.0113 -0.39846,-0.006 -0.59375,0 z m 28.21875,2.53125 c -6.23127,0.18528 -11.43376,8.63724 -11.75,19.34375 -0.32644,11.05188 4.65949,20.32095 11.15625,20.6875 6.49676,0.36655 12.04856,-8.32312 12.375,-19.375 0.32644,-11.05188 -4.69074,-20.2897 -11.1875,-20.65625 -0.20302,-0.0114 -0.39274,-0.006 -0.59375,0 z m 24.09375,0.3125 c -5.96541,0.18059 -10.94725,8.43928 -11.25,18.875 -0.31252,10.77236 4.46792,19.79897 10.6875,20.15625 6.21958,0.35728 11.53123,-8.10264 11.84375,-18.875 0.31252,-10.77236 -4.46792,-19.79897 -10.6875,-20.15625 -0.19436,-0.0112 -0.40132,-0.006 -0.59375,0 z"
         style="fill:none;stroke:#000000;stroke-width:0.63492063;stroke-miterlimit:4;stroke-dasharray:none"
         inkscape:connector-curvature="0" />
      <path
         id="path3900"
         d="m 297.20002,519.89538 c -2.03569,0.18956 -4.16464,2.75378 -5.0625,6.28125 -1.02613,4.03139 -0.0385,7.7798 2.21875,8.375 2.25727,0.5952 4.91137,-2.18736 5.9375,-6.21875 1.02613,-4.03139 0.0385,-7.7798 -2.21875,-8.375 -0.28216,-0.0744 -0.58419,-0.0896 -0.875,-0.0625 z m 20.96875,13.09375 c -1.97334,0.11129 -3.8284,2.63495 -4.21875,5.90625 -0.41637,3.48939 0.97474,6.51752 3.09375,6.75 2.11901,0.23248 4.17738,-2.41686 4.59375,-5.90625 0.41637,-3.48939 -0.97474,-6.48627 -3.09375,-6.71875 -0.13244,-0.0145 -0.24344,-0.0387 -0.375,-0.0312 z m 164.40625,1.59375 c -2.2578,0.15762 -3.95754,2.94048 -3.78125,6.1875 0.17629,3.24702 2.14845,5.75137 4.40625,5.59375 2.2578,-0.15762 3.95754,-2.94048 3.78125,-6.1875 -0.17629,-3.24702 -2.14845,-5.75137 -4.40625,-5.59375 z m -142.46875,6.59375 c -1.8621,0.0989 -3.60041,2.34153 -3.96875,5.25 -0.3929,3.10237 0.9067,5.76206 2.90625,5.96875 1.99955,0.20669 3.95085,-2.11638 4.34375,-5.21875 0.3929,-3.10237 -0.9067,-5.79331 -2.90625,-6 -0.12497,-0.0129 -0.25086,-0.007 -0.375,0 z m 122.5625,1.03125 c -2.37838,0.17852 -4.15446,3.29118 -3.96875,6.96875 0.18571,3.67757 2.27787,6.52227 4.65625,6.34375 2.37838,-0.17852 4.15446,-3.32243 3.96875,-7 -0.18571,-3.67757 -2.27787,-6.49102 -4.65625,-6.3125 z m -98.25,3.9375 c -2.00571,-0.13445 -3.87548,2.29173 -4.15625,5.40625 -0.28077,3.11452 1.11929,5.74055 3.125,5.875 2.00571,0.13445 3.87548,-2.26048 4.15625,-5.375 0.28077,-3.11452 -1.11929,-5.7718 -3.125,-5.90625 z m 75.59375,2.53125 c -2.13805,-0.003 -3.94615,2.5331 -4.03125,5.65625 -0.0851,3.12315 1.5807,5.65358 3.71875,5.65625 2.13805,0.003 3.94615,-2.5331 4.03125,-5.65625 0.0851,-3.12315 -1.5807,-5.65358 -3.71875,-5.65625 z m -24.53125,0.75 c -0.14106,-0.008 -0.26288,0.0178 -0.40625,0.0312 -2.2939,0.21456 -3.98179,3.1464 -3.75,6.5625 0.23179,3.4161 2.29985,5.99581 4.59375,5.78125 2.2939,-0.21456 3.95054,-3.1464 3.71875,-6.5625 -0.2173,-3.20259 -2.04034,-5.69165 -4.15625,-5.8125 z m -25.5,0.3125 c -2.00995,-0.0323 -3.72175,2.46898 -3.84375,5.59375 -0.122,3.12477 1.3963,5.68648 3.40625,5.71875 2.00995,0.0323 3.753,-2.46898 3.875,-5.59375 0.122,-3.12477 -1.42755,-5.68648 -3.4375,-5.71875 z m -99.5,17.5 c -2.32864,0.22327 -3.80496,3.32771 -3.3125,6.9375 0.49246,3.60979 2.79636,6.34827 5.125,6.125 2.32864,-0.22327 3.80496,-3.32771 3.3125,-6.9375 -0.49246,-3.60979 -2.79636,-6.34827 -5.125,-6.125 z m 192.90625,5.78125 c -1.84198,-0.0932 -3.63277,2.3217 -4.125,5.65625 -0.52504,3.55685 0.62965,6.81798 2.59375,7.28125 1.9641,0.46327 3.97496,-2.0369 4.5,-5.59375 0.52504,-3.55685 -0.62965,-6.81798 -2.59375,-7.28125 -0.12276,-0.029 -0.2522,-0.0563 -0.375,-0.0625 z m -168.0625,2.4375 c -2.25585,0.18928 -4.0949,3.04245 -4.21875,6.65625 -0.13211,3.85472 1.73021,7.12834 4.1875,7.3125 2.45729,0.18416 4.55539,-2.80153 4.6875,-6.65625 0.13211,-3.85472 -1.73021,-7.12834 -4.1875,-7.3125 -0.15358,-0.0115 -0.31836,-0.0126 -0.46875,0 z m 149,2.59375 c -1.95563,0.23897 -3.78685,2.78036 -4.3125,6.1875 -0.60074,3.89387 0.72147,7.46158 2.96875,7.96875 2.24728,0.50717 4.55551,-2.26238 5.15625,-6.15625 0.60074,-3.89387 -0.72147,-7.46158 -2.96875,-7.96875 -0.28091,-0.0634 -0.56437,-0.0654 -0.84375,-0.0312 z m -124.375,1.25 c -2.33027,0.20196 -4.24706,3.23787 -4.375,7.09375 -0.13646,4.11293 1.80539,7.616 4.34375,7.8125 2.53836,0.1965 4.70729,-2.98082 4.84375,-7.09375 0.13646,-4.11293 -1.80539,-7.616 -4.34375,-7.8125 -0.15865,-0.0123 -0.3134,-0.0135 -0.46875,0 z m 101.1875,3.75 c -2.52837,-0.11072 -5.01185,2.75664 -5.6875,6.71875 -0.72069,4.22625 0.8665,8.10579 3.5625,8.65625 2.696,0.55046 5.46681,-2.43 6.1875,-6.65625 0.72069,-4.22625 -0.8665,-8.10579 -3.5625,-8.65625 -0.1685,-0.0344 -0.33144,-0.0551 -0.5,-0.0625 z m -73.75,1.21875 c -2.33755,0.0823 -4.39341,3.03074 -4.71875,6.875 -0.34702,4.10054 1.41254,7.6737 3.9375,8 2.52496,0.3263 4.84048,-2.74321 5.1875,-6.84375 0.34702,-4.10054 -1.41254,-7.6737 -3.9375,-8 -0.15781,-0.0204 -0.31291,-0.0367 -0.46875,-0.0312 z m 47.96875,4.65625 c -2.37827,0.0276 -4.54904,2.91561 -4.96875,6.75 -0.44769,4.09002 1.25317,7.70866 3.8125,8.09375 2.55933,0.38509 5.02106,-2.62873 5.46875,-6.71875 0.44769,-4.09002 -1.28442,-7.70866 -3.84375,-8.09375 -0.15996,-0.0241 -0.3102,-0.0331 -0.46875,-0.0312 z m -22.96875,0.21875 c -2.491,0.0865 -4.71581,3.17561 -5.0625,7.21875 -0.3698,4.31268 1.52805,8.09432 4.21875,8.4375 2.6907,0.34318 5.16145,-2.87482 5.53125,-7.1875 0.3698,-4.31268 -1.4968,-8.09432 -4.1875,-8.4375 -0.16817,-0.0214 -0.33393,-0.037 -0.5,-0.0312 z m -81.84375,20.46875 c -0.16243,-0.0101 -0.33673,0.0151 -0.5,0.0312 -2.61234,0.25766 -4.27121,3.83422 -3.71875,8 0.55246,4.16578 3.10641,7.32016 5.71875,7.0625 2.61234,-0.25766 4.27121,-3.83422 3.71875,-8 -0.51793,-3.90542 -2.78236,-6.94273 -5.21875,-7.09375 z m 157.75,6.15625 c -2.54678,0.0259 -5.134,2.21879 -6.125,5.375 -1.13257,3.6071 0.27008,7.1058 3.125,7.8125 2.85492,0.7067 6.08618,-1.6429 7.21875,-5.25 1.13257,-3.6071 -0.27008,-7.1058 -3.125,-7.8125 -0.35687,-0.0883 -0.72992,-0.1287 -1.09375,-0.125 z m -131.375,4.71875 c -2.61907,0.10192 -4.5126,3.79724 -4.21875,8.25 0.29385,4.45276 2.66218,7.97692 5.28125,7.875 2.61907,-0.10192 4.5126,-3.79724 4.21875,-8.25 -0.29385,-4.45276 -2.66218,-7.97692 -5.28125,-7.875 z m 104.78125,1.71875 c -2.67932,0.28445 -5.16413,3.25538 -5.84375,7.21875 -0.7767,4.52957 1.09912,8.66787 4.1875,9.25 3.08838,0.58213 6.2233,-2.62668 7,-7.15625 0.7767,-4.52957 -1.09912,-8.66787 -4.1875,-9.25 -0.38605,-0.0728 -0.77349,-0.10314 -1.15625,-0.0625 z m -78.6875,2.96875 c -2.62909,0.30793 -4.77129,4.0017 -4.90625,8.625 -0.14395,4.93152 2.07262,9.05519 4.9375,9.21875 2.86488,0.16356 5.29355,-3.69348 5.4375,-8.625 0.14395,-4.93152 -2.07262,-9.05519 -4.9375,-9.21875 -0.17906,-0.0102 -0.35598,-0.0205 -0.53125,0 z m 28.6875,2.65625 c -3.12969,0.34822 -5.6831,4.52182 -5.84375,9.75 -0.17136,5.57673 2.43337,10.25254 5.84375,10.4375 3.41038,0.18496 6.32864,-4.17327 6.5,-9.75 0.17136,-5.57673 -2.46462,-10.25254 -5.875,-10.4375 -0.21315,-0.0116 -0.41635,-0.0232 -0.625,0 z m 24.125,0.1875 c -3.01046,0.2973 -5.47047,3.84878 -5.625,8.3125 -0.16483,4.76131 2.34454,8.74833 5.625,8.90625 3.28046,0.15792 6.08517,-3.55119 6.25,-8.3125 0.16483,-4.76131 -2.37579,-8.74833 -5.65625,-8.90625 -0.20503,-0.01 -0.39305,-0.0198 -0.59375,0 z"
         style="fill:none;fill-opacity:1;stroke:#000000;stroke-width:0.63492063;stroke-miterlimit:4;stroke-dasharray:none"
         inkscape:connector-curvature="0" />
      <path
         id="path3998"
         d="m 335.16877,657.61413 c -4.87512,-0.21839 -10.73248,5.76928 -13.90625,14.71875 -3.62717,10.22797 -2.38513,20.45487 2.78125,22.8125 4.06542,1.85522 9.35423,-1.72934 13.1875,-8.3125 -0.25611,9.19962 3.45633,16.60608 9.1875,17.34375 5.33695,0.68693 10.76639,-4.61005 13.5625,-12.53125 0.67942,10.48787 5.49159,18.625 11.34375,18.625 6.3177,0 11.4375,-9.4685 11.4375,-21.15625 0,-11.68775 -5.1198,-21.15625 -11.4375,-21.15625 -4.02502,0 -7.52363,3.84253 -9.5625,9.65625 -0.70971,-7.38825 -4.16868,-12.92858 -9.09375,-13.5625 -3.84486,-0.49488 -7.73239,2.13195 -10.65625,6.59375 0.24798,-6.07998 -1.42782,-11.01793 -4.8125,-12.5625 -0.6458,-0.2947 -1.3348,-0.43755 -2.03125,-0.46875 z m 111.0625,1.40625 c -0.69645,0.0312 -1.38545,0.17405 -2.03125,0.46875 -3.38468,1.54457 -5.06048,6.48252 -4.8125,12.5625 -2.92386,-4.4618 -6.81139,-7.08863 -10.65625,-6.59375 -4.92507,0.63392 -8.38404,6.17425 -9.09375,13.5625 -2.03887,-5.81372 -5.53748,-9.65625 -9.5625,-9.65625 -6.3177,0 -11.4375,9.4685 -11.4375,21.15625 0,11.68775 5.1198,21.15625 11.4375,21.15625 5.85216,0 10.66433,-8.13713 11.34375,-18.625 2.79611,7.9212 8.22555,13.21818 13.5625,12.53125 5.73117,-0.73767 9.44361,-8.14413 9.1875,-17.34375 3.83327,6.58316 9.12208,10.16772 13.1875,8.3125 5.16638,-2.35763 6.40842,-12.58453 2.78125,-22.8125 -3.17377,-8.94947 -9.03113,-14.93714 -13.90625,-14.71875 z"
         style="fill:none;stroke:#000000;stroke-width:0.63492063;stroke-miterlimit:4;stroke-dasharray:none"
         inkscape:connector-curvature="0" />
      <path
         id="path4013"
         d="m 334.26252,659.48913 c -3.92371,-0.20815 -8.6331,5.53274 -11.1875,14.0625 -2.91931,9.7483 -1.90813,19.47168 2.25,21.71875 4.15813,2.24707 9.89319,-3.84545 12.8125,-13.59375 2.91931,-9.7483 1.90813,-19.47168 -2.25,-21.71875 -0.51977,-0.28088 -1.06447,-0.43901 -1.625,-0.46875 z m 112.84375,1.40625 c -0.56053,0.0297 -1.10523,0.18787 -1.625,0.46875 -4.15813,2.24707 -5.13806,11.97045 -2.21875,21.71875 2.91931,9.7483 8.65437,15.80957 12.8125,13.5625 4.15813,-2.24707 5.13806,-11.97045 2.21875,-21.71875 -2.5544,-8.52976 -7.26379,-14.2394 -11.1875,-14.03125 z m -95.9375,5.84375 c -5.34226,0.21829 -10.53684,7.08348 -11.9375,16.0625 -1.49403,9.57762 1.89438,17.92267 7.59375,18.65625 5.69937,0.73358 11.53722,-6.42238 13.03125,-16 1.49403,-9.57762 -1.92563,-17.95392 -7.625,-18.6875 -0.35621,-0.0458 -0.70635,-0.0458 -1.0625,-0.0312 z m 79.03125,1.375 c -0.35615,-0.0145 -0.70629,0.0167 -1.0625,0.0625 -5.69937,0.73358 -9.11903,9.07863 -7.625,18.65625 1.49403,9.57762 7.33188,16.76483 13.03125,16.03125 5.69937,-0.73358 9.11903,-9.10988 7.625,-18.6875 -1.40066,-8.97902 -6.62649,-15.84421 -11.96875,-16.0625 z m -59.21875,2 c -5.48187,0 -9.9375,8.49925 -9.9375,19 0,10.50075 4.45563,19.03125 9.9375,19.03125 5.48187,0 9.90625,-8.5305 9.90625,-19.03125 0,-10.50075 -4.42438,-19 -9.90625,-19 z m 39.4375,1.375 c -5.48187,0 -9.9375,8.5305 -9.9375,19.03125 0,10.50075 4.45563,19 9.9375,19 5.48187,0 9.9375,-8.49925 9.9375,-19 0,-10.50075 -4.45563,-19.03125 -9.9375,-19.03125 z"
         style="fill:none;fill-opacity:1;stroke:#000000;stroke-width:0.63492063;stroke-miterlimit:4;stroke-dasharray:none"
         inkscape:connector-curvature="0" />
      <path
         id="path4019"
         d="m 326.07502,680.98913 c -2.19408,0.0801 -4.64947,1.54459 -5.8125,3.28125 -3.56367,5.32135 0.78125,19.1875 0.78125,19.1875 0,0 2.39093,-7.66298 5.09375,-10.4375 1.17038,-1.20143 3.79381,-0.77703 4.46875,-2.3125 1.28989,-2.93447 0.34394,-7.83367 -2.5,-9.3125 -0.61813,-0.32142 -1.29989,-0.43294 -2.03125,-0.40625 z m 128.71875,1.40625 c -0.5353,0.0395 -1.06765,0.16518 -1.53125,0.40625 -2.84394,1.47883 -3.78989,6.34678 -2.5,9.28125 0.67494,1.53547 3.29837,1.11107 4.46875,2.3125 2.70282,2.77452 5.09375,10.46875 5.09375,10.46875 0,0 4.37617,-13.8974 0.8125,-19.21875 -1.25995,-1.88138 -4.02413,-3.42111 -6.34375,-3.25 z m -106.375,7.5 c -3.0014,-0.13447 -6.20276,3.07822 -7.09375,5.96875 -1.56916,5.09061 5,15.1875 5,15.1875 0,0 0.52061,-6.96544 2.3125,-9.8125 1.05967,-1.68367 4.28812,-1.79498 4.65625,-3.75 0.53282,-2.82965 -1.45843,-6.93208 -4.28125,-7.5 -0.19769,-0.0398 -0.39366,-0.0848 -0.59375,-0.0937 z m 84.5625,1.40625 c -0.20009,0.009 -0.39606,0.0227 -0.59375,0.0625 -2.82282,0.56792 -4.81407,4.67035 -4.28125,7.5 0.36813,1.95502 3.56533,2.06633 4.625,3.75 1.79189,2.84706 2.34375,9.84375 2.34375,9.84375 0,0 6.56916,-10.09689 5,-15.1875 -0.89099,-2.89053 -4.09235,-6.10322 -7.09375,-5.96875 z m -62.875,5.46875 c -2.52768,0.18642 -3.85503,3.2514 -4.5,5.875 -1.32303,5.38188 5,14.65625 5,14.65625 0,0 5.83716,-8.94239 5,-13.9375 -0.49439,-2.94989 -2.01846,-6.35571 -5,-6.59375 -0.17954,-0.0143 -0.33149,-0.0124 -0.5,0 z m 40.65625,1.375 c -2.98154,0.23804 -4.50561,3.67511 -5,6.625 -0.83716,4.99511 5,13.9375 5,13.9375 0,0 6.32303,-9.27437 5,-14.65625 -0.68797,-2.79851 -2.1273,-6.1356 -5,-5.90625 z"
         style="fill:none;fill-opacity:1;stroke:#000000;stroke-width:0.63492063;stroke-miterlimit:4;stroke-dasharray:none"
         inkscape:connector-curvature="0" />
    </g>
  </g>
</svg>
