<?xml version="1.0" encoding="UTF-8" standalone="no"?>
<!-- Generator: Adobe Illustrator 12.0.1, SVG Export Plug-In . SVG Version: 6.00 Build 51448)  -->

<svg
   xmlns:dc="http://purl.org/dc/elements/1.1/"
   xmlns:cc="http://creativecommons.org/ns#"
   xmlns:rdf="http://www.w3.org/1999/02/22-rdf-syntax-ns#"
   xmlns:svg="http://www.w3.org/2000/svg"
   xmlns="http://www.w3.org/2000/svg"
   xmlns:xlink="http://www.w3.org/1999/xlink"
   xmlns:sodipodi="http://sodipodi.sourceforge.net/DTD/sodipodi-0.dtd"
   xmlns:inkscape="http://www.inkscape.org/namespaces/inkscape"
   version="1.1"
   id="Layer_1"
   width="337.886"
   height="258.942"
   viewBox="0 0 337.886 258.942"
   overflow="visible"
   enable-background="new 0 0 337.886 258.942"
   xml:space="preserve"
   inkscape:version="0.48.1 "
   sodipodi:docname="fish_2_black_white_line_art_coloring_book_colouring.svg"><metadata
   id="metadata677"><rdf:RDF><cc:Work
       rdf:about=""><dc:format>image/svg+xml</dc:format><dc:type
         rdf:resource="http://purl.org/dc/dcmitype/StillImage" /></cc:Work></rdf:RDF></metadata><defs
   id="defs675">
	
	
	
	
	
	
	
	
	
	
	
	
	
	
	
	
	
	
	
	
	
	
	
	
	
	
	
	
	
	
	
	
	<linearGradient
   y2="88.5757"
   x2="152.4634"
   y1="25.7134"
   x1="255.3716"
   gradientUnits="userSpaceOnUse"
   id="XMLID_15_">
		<stop
   id="stop70"
   style="stop-color:#FDBF57"
   offset="0" />
		<stop
   id="stop72"
   style="stop-color:#FFCF57"
   offset="0.3067" />
		<stop
   id="stop74"
   style="stop-color:#FFD457"
   offset="0.5112" />
		<stop
   id="stop76"
   style="stop-color:#FDBF57"
   offset="0.9775" />
	</linearGradient>
	
	
	
	
	
	
	
	
	
	<linearGradient
   y2="109.7109"
   x2="310.8042"
   y1="109.7109"
   x1="296.8843"
   gradientUnits="userSpaceOnUse"
   id="XMLID_16_">
		<stop
   id="stop97"
   style="stop-color:#FDBF57"
   offset="0" />
		<stop
   id="stop99"
   style="stop-color:#FFCF57"
   offset="0.3067" />
		<stop
   id="stop101"
   style="stop-color:#FFD457"
   offset="0.5112" />
		<stop
   id="stop103"
   style="stop-color:#FDBF57"
   offset="0.9775" />
	</linearGradient>
	
	
	
	
	
	
	
	
	
	
	
	
	
	
	<linearGradient
   y2="139.4707"
   x2="334.3237"
   y1="139.4707"
   x1="329.2466"
   gradientUnits="userSpaceOnUse"
   id="XMLID_17_">
		<stop
   id="stop134"
   style="stop-color:#FDBF57"
   offset="0" />
		<stop
   id="stop136"
   style="stop-color:#FFCF57"
   offset="0.3067" />
		<stop
   id="stop138"
   style="stop-color:#FFD457"
   offset="0.5112" />
		<stop
   id="stop140"
   style="stop-color:#FDBF57"
   offset="0.9775" />
	</linearGradient>
	
	
	
	
	
	
	
	
	
	
	
	
	
	
	
	
	
	
	
	
	
	
	
	
	
	
	
	
	
	
	
	
	
	
	
	
	
	
	
	
	
	
	
	
	
	
	
	
	
	
	
	
	
	
	
	
	
	
	
	<linearGradient
   y2="199.5625"
   x2="211.0913"
   y1="250.3184"
   x1="264.9517"
   gradientUnits="userSpaceOnUse"
   id="XMLID_18_">
		<stop
   id="stop261"
   style="stop-color:#FDBF57"
   offset="0" />
		<stop
   id="stop263"
   style="stop-color:#FFCF57"
   offset="0.3067" />
		<stop
   id="stop265"
   style="stop-color:#FFD457"
   offset="0.5112" />
		<stop
   id="stop267"
   style="stop-color:#FDBF57"
   offset="0.9775" />
	</linearGradient>
	
	
	<linearGradient
   y2="197.8604"
   x2="212.6948"
   y1="248.6162"
   x1="266.5552"
   gradientUnits="userSpaceOnUse"
   id="XMLID_19_">
		<stop
   id="stop274"
   style="stop-color:#FDBF57"
   offset="0" />
		<stop
   id="stop276"
   style="stop-color:#FFCF57"
   offset="0.3067" />
		<stop
   id="stop278"
   style="stop-color:#FFD457"
   offset="0.5112" />
		<stop
   id="stop280"
   style="stop-color:#FDBF57"
   offset="0.9775" />
	</linearGradient>
	
	
	
	<linearGradient
   y2="198.4727"
   x2="212.1177"
   y1="249.2285"
   x1="265.978"
   gradientUnits="userSpaceOnUse"
   id="XMLID_20_">
		<stop
   id="stop289"
   style="stop-color:#FDBF57"
   offset="0" />
		<stop
   id="stop291"
   style="stop-color:#FFCF57"
   offset="0.3067" />
		<stop
   id="stop293"
   style="stop-color:#FFD457"
   offset="0.5112" />
		<stop
   id="stop295"
   style="stop-color:#FDBF57"
   offset="0.9775" />
	</linearGradient>
	
	
	<linearGradient
   y2="199.6582"
   x2="211.0005"
   y1="250.4141"
   x1="264.8608"
   gradientUnits="userSpaceOnUse"
   id="XMLID_21_">
		<stop
   id="stop302"
   style="stop-color:#FDBF57"
   offset="0" />
		<stop
   id="stop304"
   style="stop-color:#FFCF57"
   offset="0.3067" />
		<stop
   id="stop306"
   style="stop-color:#FFD457"
   offset="0.5112" />
		<stop
   id="stop308"
   style="stop-color:#FDBF57"
   offset="0.9775" />
	</linearGradient>
	
	
	
	
	
	<linearGradient
   y2="95.0503"
   x2="156.4185"
   y1="32.188"
   x1="259.3267"
   gradientUnits="userSpaceOnUse"
   id="XMLID_22_">
		<stop
   id="stop321"
   style="stop-color:#FDBF57"
   offset="0" />
		<stop
   id="stop323"
   style="stop-color:#FFCF57"
   offset="0.3067" />
		<stop
   id="stop325"
   style="stop-color:#FFD457"
   offset="0.5112" />
		<stop
   id="stop327"
   style="stop-color:#FDBF57"
   offset="0.9775" />
	</linearGradient>
	
	
	
	
	
	
	<linearGradient
   y2="182.084"
   x2="139.6318"
   y1="69.7529"
   x1="142.1357"
   gradientUnits="userSpaceOnUse"
   id="XMLID_23_">
		<stop
   id="stop342"
   style="stop-color:#FDBF57"
   offset="0" />
		<stop
   id="stop344"
   style="stop-color:#FFCC51"
   offset="0.2927" />
		<stop
   id="stop346"
   style="stop-color:#FFD24F"
   offset="0.5112" />
		<stop
   id="stop348"
   style="stop-color:#FDBF57"
   offset="0.9775" />
	</linearGradient>
	
	
	
	
	
	
	
	
	
	
	
	
	
	
	
	
	
	
	
	
	
	
	
	
	
	
	
	
	
	
	
	
	
	
	
	
	
	
	
	
	
	
	
	
	
	
	
	
	
	
	
	
	
	
	
	
	
	
	
	
	
	
	
	
	
	
	
	
	
	
	
	
	
	
	
	
	
	
	
	
	
	
	
	<linearGradient
   y2="102.0308"
   x2="296.4038"
   y1="102.0308"
   x1="282.4839"
   gradientUnits="userSpaceOnUse"
   id="XMLID_24_">
		<stop
   id="stop517"
   style="stop-color:#FDBF57"
   offset="0" />
		<stop
   id="stop519"
   style="stop-color:#FFCF57"
   offset="0.3067" />
		<stop
   id="stop521"
   style="stop-color:#FFD457"
   offset="0.5112" />
		<stop
   id="stop523"
   style="stop-color:#FDBF57"
   offset="0.9775" />
	</linearGradient>
	
	
	
	
	
	
	
	
	
	<linearGradient
   y2="181.8877"
   x2="226.2456"
   y1="147.957"
   x1="233.728"
   gradientUnits="userSpaceOnUse"
   id="XMLID_25_">
		<stop
   id="stop544"
   style="stop-color:#FDBF57"
   offset="0" />
		<stop
   id="stop546"
   style="stop-color:#FFCF57"
   offset="0.3067" />
		<stop
   id="stop548"
   style="stop-color:#FFD457"
   offset="0.5112" />
		<stop
   id="stop550"
   style="stop-color:#FDBF57"
   offset="0.9775" />
	</linearGradient>
	
	
	
	
	
	
	
	
	
	
	
	
	
	
	
	
	
	
	
	
	
	
	
	
	
	
	
	
	
	
	
	
	
	
	
	
	
	
	
	
	
	
	
	<linearGradient
   y2="117.5107"
   x2="320.5308"
   y1="117.5107"
   x1="311.0435"
   gradientUnits="userSpaceOnUse"
   id="XMLID_26_">
		<stop
   id="stop639"
   style="stop-color:#FDBF57"
   offset="0" />
		<stop
   id="stop641"
   style="stop-color:#FFCF57"
   offset="0.3067" />
		<stop
   id="stop643"
   style="stop-color:#FFD457"
   offset="0.5112" />
		<stop
   id="stop645"
   style="stop-color:#FDBF57"
   offset="0.9775" />
	</linearGradient>
	
	<linearGradient
   y2="127.5908"
   x2="328.7886"
   y1="127.5908"
   x1="321.5347"
   gradientUnits="userSpaceOnUse"
   id="XMLID_27_">
		<stop
   id="stop650"
   style="stop-color:#FDBF57"
   offset="0" />
		<stop
   id="stop652"
   style="stop-color:#FFCF57"
   offset="0.3067" />
		<stop
   id="stop654"
   style="stop-color:#FFD457"
   offset="0.5112" />
		<stop
   id="stop656"
   style="stop-color:#FDBF57"
   offset="0.9775" />
	</linearGradient>
	
	
	<linearGradient
   y2="184.5288"
   x2="299.6606"
   y1="66.4736"
   x1="301.4497"
   gradientUnits="userSpaceOnUse"
   id="XMLID_28_">
		<stop
   id="stop663"
   style="stop-color:#FDBF57"
   offset="0" />
		<stop
   id="stop665"
   style="stop-color:#FFCF57"
   offset="0.3067" />
		<stop
   id="stop667"
   style="stop-color:#FFD457"
   offset="0.5112" />
		<stop
   id="stop669"
   style="stop-color:#FDBF57"
   offset="0.9775" />
	</linearGradient>
	
<linearGradient
   inkscape:collect="always"
   xlink:href="#XMLID_28_"
   id="linearGradient3725"
   gradientUnits="userSpaceOnUse"
   x1="301.4497"
   y1="66.4736"
   x2="299.6606"
   y2="184.5288" /><linearGradient
   inkscape:collect="always"
   xlink:href="#XMLID_27_"
   id="linearGradient3729"
   gradientUnits="userSpaceOnUse"
   x1="321.5347"
   y1="127.5908"
   x2="328.7886"
   y2="127.5908" /><linearGradient
   inkscape:collect="always"
   xlink:href="#XMLID_26_"
   id="linearGradient3732"
   gradientUnits="userSpaceOnUse"
   x1="311.0435"
   y1="117.5107"
   x2="320.5308"
   y2="117.5107" /><linearGradient
   inkscape:collect="always"
   xlink:href="#XMLID_25_"
   id="linearGradient3777"
   gradientUnits="userSpaceOnUse"
   x1="233.728"
   y1="147.957"
   x2="226.2456"
   y2="181.8877" /><linearGradient
   inkscape:collect="always"
   xlink:href="#XMLID_24_"
   id="linearGradient3788"
   gradientUnits="userSpaceOnUse"
   x1="282.4839"
   y1="102.0308"
   x2="296.4038"
   y2="102.0308" /><linearGradient
   inkscape:collect="always"
   xlink:href="#XMLID_23_"
   id="linearGradient3873"
   gradientUnits="userSpaceOnUse"
   x1="142.1357"
   y1="69.7529"
   x2="139.6318"
   y2="182.084"
   gradientTransform="translate(373.73072,16.906866)" /><linearGradient
   inkscape:collect="always"
   xlink:href="#XMLID_22_"
   id="linearGradient3881"
   gradientUnits="userSpaceOnUse"
   x1="259.3267"
   y1="32.188"
   x2="156.4185"
   y2="95.0503" /><linearGradient
   inkscape:collect="always"
   xlink:href="#XMLID_21_"
   id="linearGradient3888"
   gradientUnits="userSpaceOnUse"
   x1="264.8608"
   y1="250.4141"
   x2="211.0005"
   y2="199.6582" /><linearGradient
   inkscape:collect="always"
   xlink:href="#XMLID_20_"
   id="linearGradient3892"
   gradientUnits="userSpaceOnUse"
   x1="265.978"
   y1="249.2285"
   x2="212.1177"
   y2="198.4727" /><linearGradient
   inkscape:collect="always"
   xlink:href="#XMLID_19_"
   id="linearGradient3897"
   gradientUnits="userSpaceOnUse"
   x1="266.5552"
   y1="248.6162"
   x2="212.6948"
   y2="197.8604" /><linearGradient
   inkscape:collect="always"
   xlink:href="#XMLID_18_"
   id="linearGradient3901"
   gradientUnits="userSpaceOnUse"
   x1="264.9517"
   y1="250.3184"
   x2="211.0913"
   y2="199.5625" /><linearGradient
   inkscape:collect="always"
   xlink:href="#XMLID_17_"
   id="linearGradient3962"
   gradientUnits="userSpaceOnUse"
   x1="329.2466"
   y1="139.4707"
   x2="334.3237"
   y2="139.4707" /><linearGradient
   inkscape:collect="always"
   xlink:href="#XMLID_16_"
   id="linearGradient3978"
   gradientUnits="userSpaceOnUse"
   x1="296.8843"
   y1="109.7109"
   x2="310.8042"
   y2="109.7109" /><linearGradient
   inkscape:collect="always"
   xlink:href="#XMLID_15_"
   id="linearGradient3989"
   gradientUnits="userSpaceOnUse"
   x1="255.3716"
   y1="25.7134"
   x2="152.4634"
   y2="88.5757" /></defs><sodipodi:namedview
   pagecolor="#ffffff"
   bordercolor="#666666"
   borderopacity="1"
   objecttolerance="10"
   gridtolerance="10"
   guidetolerance="10"
   inkscape:pageopacity="0"
   inkscape:pageshadow="2"
   inkscape:window-width="1202"
   inkscape:window-height="656"
   id="namedview673"
   showgrid="false"
   inkscape:zoom="1.4142136"
   inkscape:cx="167.98318"
   inkscape:cy="98.68441"
   inkscape:window-x="357"
   inkscape:window-y="57"
   inkscape:window-maximized="0"
   inkscape:current-layer="Layer_1" />
<path
   style="fill-rule:evenodd"
   inkscape:connector-curvature="0"
   id="path152"
   d="m 316.564,137.07 c 6.967,-1.45 6.879,9.472 1.44,10.32 -3.093,0.482 -5.461,-1.769 -5.521,-4.8 -0.043,-2.168 1.473,-4.262 2.64,-5.04 0.462,-0.307 0.484,-0.28 1.441,-0.48 z m 1.92,9.12 c 1.058,-0.358 1.434,-1.486 2.4,-2.399 0.404,-3.045 -0.584,-4.697 -2.16,-5.761 -7.3,-1.223 -6.085,10.144 -0.24,8.16 z"
   clip-rule="evenodd" /><path
   style="fill:#130f06;fill-rule:evenodd"
   inkscape:connector-curvature="0"
   id="path154"
   d="m 318.724,138.03 c 1.576,1.063 2.564,2.716 2.16,5.761 -0.967,0.913 -1.343,2.041 -2.4,2.399 -5.845,1.984 -7.06,-9.383 0.24,-8.16 z"
   clip-rule="evenodd" /><path
   style="fill-rule:evenodd"
   inkscape:connector-curvature="0"
   id="path318"
   d="m 275.78007,202.31006 c -4.102,15.338 -12.267,26.613 -21.6,36.72 -4.941,3.465 -9.543,7.482 -15.12,10.561 -5.511,3.041 -11.437,5.57 -17.76,7.92 -4.326,0.711 -8.418,1.793 -13.44,2.16 -1.59,0.116 -3.127,0.74 -4.08,0.24 -1.682,-0.883 -1.062,-4.091 -0.479,-6.24 1.293,-4.77 2.422,-8.312 3.6,-12.72 2.839,-10.621 5.514,-21.484 8.4,-31.921 -3.262,-0.805 -7.104,-0.763 -10.08,-1.199 -9.926,-1.457 -18.699,-6.001 -25.92,-10.561 -2.486,-1.569 -5.164,-2.921 -6.96,-5.04 -2.44,-1.344 -4.789,-3.37 -6.72,-5.52 -1.881,-2.094 -3.64,-4.403 -5.28,-6.72 -3.317,-4.688 -5.362,-10.536 -10.08,-13.921 -2.383,0.819 -3.771,2.93 -4.8,4.801 -3.419,6.213 -4.263,14.343 -5.52,23.279 -0.562,3.998 -1.851,7.898 -3.36,11.521 -2.566,6.159 -6.521,10.612 -11.76,14.16 -2.592,1.755 -6.22,3.64 -9.84,4.8 -3.243,1.039 -10.833,2.448 -15.119999,1.439 -1.665,-0.392 -3.492,-1.65 -3.6,-3.6 -0.046,-0.825 0.568,-1.942 0.96,-3.12 0.781,-2.346 1.045,-4.115 2.16,-6 -3.808,-0.457 -8.536,-1.258 -12.24,-2.88 -2.154,-0.943 -3.741,-1.853 -5.52,-3.12 -0.246,-0.175 -0.527,-0.573 -0.72,-0.72 -0.13,-0.099 -0.614,0.12 -0.72,0 -0.917,-1.043 -2.342,-1.82 -2.4,-3.12 -0.056,-1.247 2.693,-4.961 3.6,-5.76 0.546,-0.481 1.361,-0.529 1.92,-0.96 1.276,-0.982 2.58,-3.031 4.56,-3.601 1.392,-2.656 4.798,-3.329 6.24,-6 0.088,-0.163 0.108,-0.531 0.24,-0.72 0.318,-0.456 1.343,-1.794 1.92,-2.4 0.821,-0.862 2.023,-1.32 2.64,-2.159 0.9,-1.226 1.102999,-3.082 1.679999,-4.561 -2.124999,0.543 -3.975999,1.743 -5.999999,2.641 -5.926,2.626 -13.125,4.732 -20.16,6.72 -9.11,2.573 -17.605,6.201 -24.48,11.52 -1.165,0.901 -2.238,2.131 -3.36,3.12 -1.167,1.028 -2.297,1.997 -3.36,3.12 -2.147,2.269 -3.738,5.201 -6,6.96 -2.234,1.737 -6.952,3.412 -10.56,2.16 -1.747,-0.606 -2.774,-1.94 -4.08,-3.36 -0.095,-2.483 -0.555,-4.414 0,-6.72 0.637,-2.649 2.438,-5.246 2.88,-7.44 0.455,-2.264 0.217,-4.575 0.72,-6.72 0.727,-3.095 2.423,-6.68 4.08,-9.359 1.696,-2.744 3.838,-5.158 6.24,-7.2 1.378,-2.462 3.456,-4.225 5.52,-6 0.386,-4.094 2.163,-6.797 4.8,-8.641 -0.02,-3.939 1.575,-6.266 5.28,-6.479 1.028,-1.853 1.93,-3.83 4.8,-3.84 1.011,-1.71 2.504,-2.936 5.04,-3.12 0.71,-1.449 1.085,-3.234 2.88,-3.6 -0.146,-1.506 0.35,-2.37 0.72,-3.36 -0.487,-1.753 -0.921,-3.559 -0.72,-6 -1.196,-1.284 -2.768,-2.192 -3.36,-4.08 -1.042,-0.318 -1.78,-0.94 -2.88,-1.2 -0.155,-1.285 -1.527,-1.353 -1.44,-2.88 -2.341,-0.175 -4.756,-0.706 -6.48,-1.92 -0.908,-0.639 -1.476,-1.928 -2.4,-2.64 -1.109,-0.854 -2.648,-1.112 -3.6,-1.92 -0.759,-0.645 -1.171,-1.786 -1.92,-2.4 -0.884,-0.725 -2.189,-0.915 -3.12,-1.68 -0.659,-0.54199 -1.295,-1.48599 -1.92,-2.15999 -0.673,-0.725 -1.585,-1.363 -1.68,-2.4 -1.84,-0.34 -3.428,-1.482 -5.04,-2.4 -1.473,-0.838 -2.968,-2.055 -4.8,-3.12 -0.643,-0.373 -1.568,-0.691 -2.16,-1.2 -2.24,-1.925003 -3.575,-5.044003 -4.08,-8.640003 -5.286,-4.078 -8.934,-9.935 -11.5200003,-17.28 -0.963,-2.738 -2.431,-7.397 -1.92,-12 0.22,-1.985 0.98,-3.873 0.72,-6 -0.339,-2.765 -1.966,-4.758 -2.88,-7.92 -0.605,-2.095 -0.82,-4.307 -1.44,-5.76 -0.739,-1.735 -2.50699997,-3.32 -2.39999997,-5.28 0.117,-2.129 2.23499997,-4.529 5.75999997,-4.08 2.352,0.3 5.6360003,3.325 7.6800003,5.04 3.747,3.144 6.886,6.637 10.08,10.8 2.344,3.055 4.262,6.585 6.96,9.84 1.047,1.263 2.666,2.729 4.08,4.32 1.895,2.132 3.356,5.104 7.44,4.08 1.617,-1.842 0.022,-3.79 -1.68,-5.76 -2.174,-2.516 -4.066,-4.764 -6,-7.44 -1.462,-2.024 -2.591,-3.363 -3.12,-6 -1.381,-1.408 -2.427,-3.638 -4.08,-5.28 -1.094,-1.087 -1.927,-1.443 -2.88,-2.88 -0.465,-0.701 -1.46,-3.013 -1.68,-4.56 -0.206,-1.451 -0.025,-2.688 -0.48,-3.84 -0.889,-2.25 -3.811,-4.152 -3.12,-8.4 0.442,-2.718 3.445,-5.463 6,-5.76 3.996,-0.464 6.549,2.488 8.88,4.08 4.416,3.015 9.025,6.247 13.68,9.36 2.302,1.54 4.64,2.963 6.96,4.56 6.633,4.567 13.665,9.495 22.08,12.72 7.448,2.854 15.913,4.081 23.039999,7.68 5.352,2.703 9.611,5.915 13.2,10.56 1.17,1.515 2.648,2.998 3.6,4.56 2.1,3.446 3.335,7.662 5.04,11.52 2.46,5.567 5.069,11.607 8.4,16.560003 2.497,3.713 4.785,6.67 8.64,9.12 3.042,0.449 6.035,1.908 8.64,0.72 0.722,-0.33 1.569,-1.13 2.4,-1.68 0.786,-0.52 1.717,-0.927 2.4,-1.44 1.111,-0.835 2.012,-2.028 3.12,-3.12 2.744,-2.705 6.664,-6.198003 9.12,-8.880003 -4.944,-1.464 -10.21,-4.183 -14.64,-6.96 -1.504,-0.943 -3.311,-1.577 -4.32,-2.64 -1.888,-1.99 -3.165,-5.703 -2.16,-9.12 0.61,-2.074 2.148,-4.126 3.36,-6 5.507,-8.516 14.002,-13.497 24.24,-17.52 0.542,-0.212 1.154,-0.499 1.68,-0.72 2.37,-0.996 5.348,-2.171 8.16,-3.36 3.953,-1.671 9.839,-2.338 10.8,-7.2 0.729,-3.684 0.039,-7.726 0.24,-11.76 0.324,-6.502 1.125,-13.626 2.16,-19.2 0.169,-0.907 0.572,-1.572 0.72,-2.4 0.618,-3.462 0.52,-7.6300003 4.561,-7.2000003 2.411,0.257 5.145,1.7520003 7.68,2.8800003 16.963,7.543 31.254,17.826 42,31.2 3.393,4.223 6.445,7.932 9.12,12 5.397,8.208 10.109,17.704 13.68,28.08 1.155,3.355 2.603,8.118 3.601,12.24 0.349,1.443 0.433,3.18 0.96,4.08 1.043,1.781 3.36,2.022 5.04,3.6 3.094,-0.252 6.732,1.716 9.359,3.12 2.241,1.197 4.469,2.585003 5.76,4.320003 6.321,1.359 10.643,4.718 14.4,8.64 4.117,1.64199 7.104,4.41699 10.08,7.19999 0.303,0.577 0.309,1.451 0.72,1.92 3.657,3.063 7.618,5.822 8.641,11.52 0.361,0.439 1.035,0.565 1.439,0.96 1.424,3.817 3.898,7.784 4.08,12.48 0.023,0.609 -0.373,1.738 -0.24,2.4 0.293,1.458 2.049,2.585 2.4,4.319 0.737,3.641 -0.689,6.016 -1.92,9.36 0.081,0.799 0.979,0.78 0.96,1.68 -0.488,3.553 -2.778,4.656 -5.521,6.721 -2.961,2.229 -5.587,4.142 -7.92,6.96 -1.133,1.368 -1.979,3.114 -3.12,4.319 -0.648,0.686 -1.645,1.2 -2.399,1.92 -2.013,1.921 -4.181,3.968 -6.721,5.521 -3.489,2.133 -7.196,3.521 -11.279,5.28 -3.871,1.667 -8.097,2.846 -12.24,4.319 -4.061,1.446 -8.085,3.032 -12.242,4.081 z m -78.72,-198.958993 c -1.205,2.193 -0.955,5.039 -1.439,7.68 -0.608,3.313 -1.667,6.801 -1.2,10.08 0.681,-5.479 1.345,-10.975 2.64,-15.84 -0.049,0.751 0.162,1.762 -0.24,2.16 10.845,5.341 20.312,13.259 29.04,20.4 0.63,0.515 0.898,1.143 1.44,1.68 5.103,5.062 10.53,9.991 14.399,15.6 -1.14,-1.572 -2.702,-2.888 -3.84,-4.08 -0.398,-0.418 -0.564,-1.024 -0.96,-1.44 -5.827,-6.131 -11.952,-12.52 -18.479,-17.52 -5.952,-4.56 -12.137,-8.821 -18.72,-12.48 -0.954,-0.53 -1.966,-1.378 -3.12,-1.44 -0.13,1.391 -0.26,2.78 -0.48,4.08 9.214,5.683 17.942,11.792 25.44,19.2 4.863,4.805 9.691,9.683 13.92,15.12 -11.598,-12.883 -23.783,-25.177 -39.601,-33.84 -0.188,1.492 -0.333,3.027 -0.479,4.56 8.994,6.588 18.483,13.891 25.2,21.84 -3.182,-3.104 -6.57,-6.205 -9.601,-9.12 -1.734,-1.669 -3.465,-3.222 -5.28,-4.56 -1.193,-0.88 -2.971,-1.902 -3.84,-2.64 -2.154,-1.831 -4.155,-3.588 -6.72,-4.8 -0.176,1.762 -0.663,4.16 -0.479,5.52 4.631,3.703 9.414,7.215 13.68,11.28 4.302,4.1 8.782,8.016 12.479,12.72 -8.124,-8.515 -16.607,-16.672 -26.399,-23.52 -0.438,2.042 -0.004,4.956 -0.48,6.96 6.932,4.988 13.94,9.899 19.44,16.32 -5.982,-5.698 -12.132,-11.229 -19.44,-15.6 0.185,2.664 -0.309,4.651 -0.239,7.2 7.185,5.055 14.158,10.321 19.439,17.28 -5.657,-6.263 -11.88,-11.96 -19.2,-16.56 -0.474,0.167 0.06,1.339 -0.479,1.44 -0.446,-7.429 0.769,-12.996 0.479,-19.44 -0.406,2.594 -0.361,5.14 -0.479,7.68 -0.216,4.633 -0.07,12.612 -1.681,15.12 -2.487,3.876 -8.083,3.916 -11.76,6.48 5.505,-2.176 12.014,-3.347 13.44,-9.6 -0.216,3.304 -2.149,4.891 -4.32,6.24 1.462,1.98 3.681,3.198 5.521,4.8 5.689,4.957 10.581,10.606 15.119,16.56 -6.244,-7.676 -13.111,-14.729 -20.88,-20.88 -1.228,0.135 -2.22,0.981 -3.359,1.44 -0.863,0.347 -2.198,0.192 -2.641,1.2 7.175,5.706 13.857,11.903 19.681,18.96 -6.515,-6.685 -12.723,-13.678 -20.641,-18.96 -1.537,0.306 -3.029,1.927 -4.56,1.44 0.616,-0.583 2.003,-0.397 2.399,-1.2 -1.351,0.249 -2.447,0.752 -3.359,1.44 1.072,-0.112 1.321,0.599 1.68,1.2 -0.716,-0.003 -0.815,-0.624 -1.439,-0.72 -2.135,0.738 -4.791,1.895 -6.48,2.64 -1.692,0.746 -3.408,1.041 -4.32,2.4 4.552,2.722 10.174,5.792 13.2,9.12 -2.436,-1.948 -7.006,-5.019 -10.08,-6.96 -0.525,-0.332 -1.304,-0.557 -1.92,-0.96 -0.726,-0.475 -1.172,-1.135 -1.68,-1.2 -1.394,-0.178 -2.945,0.677 -3.84,1.92 1.854,1.507 5.24,2.759 6.24,4.32 -2.456,-1.304 -4.369,-3.151 -7.2,-4.08 -1.293,0.866 -2.717,1.603 -3.84,2.64 1.034,1.659 3.046,1.979 4.56,2.88 0.861,0.512 2.013,1.502 2.64,1.92 0.18,0.12 0.456,0.08 0.72,0.24 3.487,2.114 6.258,5.12 9.84,6.96 0.08,0.99 0.761,1.099 1.439,1.68 3.101,2.652 5.993,5.37 8.641,8.16 -0.785,-0.537 -1.673,-1.042 -2.4,-1.68 -0.696,-0.611 -1.559,-1.48 -1.92,-2.4 -2.254,-1.147 -3.702,-3.204 -5.52,-4.8 -5.662,-4.972 -12.128,-8.617 -18.72,-12.48 -1.066,1.014 -2.362,1.798 -3.12,3.12 6.373,3.467 12.5,7.18 17.52,12 -5.557,-4.204 -11.298,-8.222 -17.52,-11.76 -1.052,0.389 -1.771,1.109 -2.16,2.16 2.704,2.277 6.398,4.408 9.12,6.48 0.949,0.722 2.464,1.499 2.4,2.4 -3.776,-3.023 -7.71,-5.889 -12,-8.4 -1.679,1.601 -2.912,3.648 -3.84,6 4.468,3.052 8.96,6.08 13.92,8.64 1.52,1.84 4.263,2.457 5.76,4.32 -6.923,-3.957 -13.279,-8.48 -20.16,-12.48 -0.389,1.532 -0.973,2.868 -0.96,4.8 8.66,3.98 16.809,8.471 24.72,13.2 0.804,-0.396 1.691,-0.709 1.92,-1.68 -1.938,-1.182 -4.017,-2.223 -5.52,-3.84 2.363,0.997 3.985,2.735 6.24,3.84 0.774,-0.579 1.696,-0.916 1.68,-1.68 1.406,0.286 1.492,-0.749 2.4,-0.96 -0.291,-1.234 -2.789,-1.525 -2.4,-2.64 1.146,0.614 1.818,1.702 3.12,2.16 0.995,-0.445 1.741,-1.139 2.88,-1.44 -2.086,-2.407 -4.89,-4.972 -7.2,-6.96 -0.839,-0.722 -2.059,-1.054 -2.16,-2.16 1.613,1.427 3.558,2.522 4.8,4.32 2.421,0.585 2.837,3.905 5.28,4.08 1.413,0.101 4.261,-2.191 6.479,-3.12 3.668,-1.536 7.45,-2.908 10.56,-3.84 1.902,-0.57 3.204,-0.469 4.801,-1.44 -0.812,-1.032 -2.396,-2.561 -2.4,-3.6 1.176,1.065 1.657,2.822 3.12,3.6 1.502,-0.418 3.431,-0.409 4.56,-1.2 -1.436,-2.485 -3.922,-5.196 -5.04,-7.2 2.19,2.13 3.716,4.925 5.521,7.44 1.796,-0.524 4.282,-0.358 6.24,-0.72 0.123,-0.702 -1.195,-1.18 -0.48,-1.68 0.356,0.604 0.535,1.385 1.2,1.68 1.781,-0.389 4.442,-0.405 6.96,-0.48 0.401,-0.904 -1.116,-1.093 -0.48,-1.44 0.641,1.76 3.112,1.688 5.521,1.68 -0.416,-1.024 -1.087,-1.793 -1.44,-2.88 1.026,0.734 1.288,2.232 2.16,3.12 1.4,-0.04 2.301,0.419 3.84,0.24 0.051,-1.336 -1.522,-2.31 -0.96,-3.36 0.298,1.222 1.204,1.836 1.2,3.36 9.593,1.527 18.185,4.056 25.68,7.68 -0.907,-3.253 -3.086,-6.512 -3.6,-9.36 1.501,3.219 2.909,6.531 4.32,9.84 2.645,0.796 5.11,3.048 7.439,3.36 -0.78,-1.542 -1.982,-3.935 -1.92,-5.52 0.535,2.185 1.818,3.621 2.16,6 1.882,1.238 3.752,2.488 6,3.36 -0.604,-2.917 -2.263,-6.056 -2.4,-8.64 1.049,2.872 1.928,5.913 2.88,8.88 1.145,0.062 1.44,0.419 2.4,0 -0.605,-5.878 -2.636,-12.292 -4.32,-17.28 -3.374,-9.997 -8.261,-20.177 -13.68,-28.08 -2.592,-3.78 -5.477,-7.588 -8.64,-10.56 -2.699,-4.099 -6.515,-7.686 -9.84,-10.8 -0.481,-0.451 -1.379,-0.879 -1.44,-1.68 -1.573,-0.647 -2.742,-1.977 -4.08,-3.12 -1.063,-0.909 -2.106,-1.705 -3.12,-2.4 -3.215,-2.206 -6.329,-4.596 -9.84,-6.72 -2.858,-1.73 -6.134,-3.287 -9.6,-5.04 -2.157,-1.091 -4.972,-2.456 -7.44,-3.36 -1.906,-0.6980003 -4.618,-2.0770003 -5.28,0.24 5.301,3.024 10.811,5.826 15.841,9.12 5.116,3.351 10.396,6.362 14.399,10.8 0.95,-0.31 0.49,0.79 1.44,0.48 3.972,3.953 8.265,8.491 12,12.48 0.813,0.869 1.579,1.78 2.399,2.64 1.613,1.691 3.285,3.327 4.32,5.28 -3.349,-3.771 -6.656,-7.584 -10.32,-11.04 -0.992,-1.407 -1.95,-2.849 -3.6,-3.6 -0.17,-1.51 -1.963,-1.397 -2.16,-2.88 -1.518,-0.694 -2.616,-2.091 -3.84,-3.12 -3.713,-3.124 -7.893,-6.301 -11.76,-8.88 -2.967,-1.978 -6.139,-3.924 -9.36,-5.76 -3.041,-1.733 -6.303,-3.306 -9.6,-4.8 -0.396,0.004 -0.135,0.666 -0.48,0.72 -0.415,-0.978 0.927,-2.3710003 -0.002,-1.68 z m -24,50.16 c -0.811,-0.091 -1.024,0.416 -1.44,0.72 0.732,0.012 1.222,-0.218 1.44,-0.72 z m -4.08,1.44 c 0.073,0.553 -0.693,0.267 -0.72,0.72 0.609,0.254 1.368,-0.506 0.72,-0.72 z m -0.96,0.72 c -1.277,0.243 -2.296,0.744 -3.12,1.44 1.124,-0.397 2.466,-0.575 3.12,-1.44 z m -7.2,3.6 c 0.734,-0.472 2.592,-1.079 2.4,-1.68 -0.742,0.618 -1.943,0.777 -2.4,1.68 z m -3.36,2.16 c 0.76,-0.2 1.22,-0.7 1.68,-1.2 -0.752,0.208 -1.325,0.595 -1.68,1.2 z m -7.44,6.72 c -2.017,2.459 -4.179,5.216 -4.8,8.4 0.972,-2.868 2.837,-4.843 4.08,-7.44 1.569,-0.898 2.507,-2.721 3.84,-4.08 1.306,-1.331 3.327,-2.114 3.84,-3.6 -2.585,1.869 -4.848,4.145 -6.96,6.72 z m -5.04,12.96 c 0.447,3.55 2.749,4.425 5.52,6.24 3.251,2.129 5.924,3.615 9.6,5.04 3.183,1.234 5.761,2.865 8.64,1.2 -7.509,-4.571 -15.228,-8.932 -23.76,-12.48 z m -127.679999,-7.44 c 0.628,0.703 1.609,1.337 2.4,2.16 3.329,3.465 7.167,6.588 11.52,8.64 1.792,0.845 3.394,1.392 5.04,1.92 1.117,0.358 2.398,0.671 3.6,0.96 0.806,0.193 2.775,-0.001 3.12,1.44 -0.362,0.967 -2.195,0.203 -2.64,-0.24 -16.404,-3.675 -26.297,-13.863 -31.9200003,-28.32 -0.479,2.692 -0.863,5.261 -0.48,7.68 0.579,3.652 2.9640003,5.408 5.0400003,7.44 1.841,1.802 3.579,3.568 5.52,5.04 1.101,0.834 2.718,1.669 3.36,2.4 0.104,0.118 0.588,-0.093 0.72,0 2.034,1.436 3.973,2.183 6.24,3.12 3.5,1.446 6.868,2.254 10.56,3.12 0.544,0.128 2.041,-0.448 2.16,0.96 -0.38,0.929 -1.438,0.307 -2.16,0.24 -3.005,-0.277 -4.492,-1.035 -6.72,-1.68 -10.432,-3.021 -17.642,-8.986 -24.0000003,-15.6 3.5560003,14.491 17.9580003,19.844 35.2800003,19.92 0.892,0.004 2.322,-0.177 3.84,-0.24 1.147,-0.048 3.173,-0.717 3.6,0.48 -0.816,0.883 -2.326,0.875 -3.6,0.96 -2.825,0.189 -6.361,0.194 -8.88,0 -6.169,-0.475 -12.098,-1.767 -16.56,-3.84 -3.353,-1.557 -6.008,-3.516 -8.4,-5.28 5.317,7.529 13.197,12.441 23.52,14.16 6.437,1.072003 10.948,0.437 17.04,0 9.987,-0.715 20.105,0.179 27.84,2.160003 0.881,0.226 2.017,0.51 2.64,1.2 -1.242,0.808 -2.788,0.019 -4.08,-0.24 -2.133,-0.427 -4.125,-0.679 -6.48,-0.96 -0.985,-0.118 -1.884,-0.618 -2.88,-0.72 -2.269,-0.232 -4.785,-0.373 -7.2,-0.48 -8.69,-0.386003 -17.886,1.596 -25.92,0.48 -6.918,-0.961003 -12.185,-3.410003 -17.04,-6.480003 0.463,4.897 3.595,7.125003 6.96,9.120003 5.207,0.645 11.088,1.07 16.56,0.96 4.551,-0.091 8.753,-0.774 12.48,-0.96 6.647,-0.331 13.583,-0.21 19.92,0.72 0.848,0.124 1.749,0.614 2.64,0.72 6.071,0.721 11.156,2.497 15.84,4.56 1.867,0.822 4.273999,2.179 5.999999,2.64 0.301,0.08 0.076,0.395 0.24,0.48 0.872,0.45299 2.095,0.88699 3.12,1.43999 0.679,0.366 2.747,0.637 2.16,2.16 -9.108999,-4.64699 -19.316999,-9.46599 -31.679999,-11.03999 -2.447,-0.312 -6.112,-0.39 -8.16,-0.48 -6.671,-0.293 -12.988,0.676 -19.44,0.96 -5.618,0.247 -11.014,-0.431 -16.56,-0.24 3.514,2.302 6.491,2.765 11.04,3.12 3.446,0.269 6.828,0.963 10.08,0.72 2.888,-0.216 5.764,-0.984 8.88,-1.44 4.845,-0.709 9.582,-0.744 13.92,0 5.327,0.914 9.657,3.809 14.4,5.75999 5.072,2.086 10.393999,4.04 15.599999,4.8 1.574,0.229 4.66,-0.387 4.56,1.2 -9.982999,0.131 -18.086999,-3.91 -25.439999,-7.19999 -2.643,-1.183 -5.369,-2.56 -8.16,-3.12 -6.777,-1.36 -11.838,-0.186 -18.72,0.72 -6.926,0.912 -13.88,0.244 -19.92,-0.48 2.725,3.411 6.27,5.44599 11.04,5.75999 1.99,0.131 3.54,-0.226 5.28,-0.24 3.84,-0.031 7.857,0 12.48,0 1.218,0 3.15,-0.608 4.08,0.72 -0.956,0.89 -2.239,0.457 -3.36,0.48 -8.916,0.185 -14.607,0.21 -22.08,0 2.282,1.67 4.519,3.096 7.68,3.6 2.645,0.421 4.702,0.085 6.96,0 9.861,-0.371 20.578,0.13 30.96,0.72 5.135,0.292 10.543999,0.974 15.119999,1.44 0.816,0.083 2.504,-0.59 2.88,0.72 -2.233,0.988 -4.568,-0.068 -6.96,-0.24 -12.037999,-0.862 -26.385999,-1.773 -38.879999,-1.44 -2.749,0.073 -5.571,0.514 -8.16,0.24 -1.19,-0.125 -2.446,-0.973 -3.6,-0.48 1.483,1.797 4.886,1.674 7.44,2.4 -0.892,1.492 1.266,3.332 2.64,3.6 2.289,0.446 6.016,-1.076 8.64,-1.44 7.864,-1.089 17.659,0.208 25.44,0.48 4.632,0.162 9.705999,-0.058 14.159999,-0.24 0.995,-0.041 2.341,-0.861 3.12,0.24 -0.109,0.975 -1.688,0.9 -2.16,0.96 -2.898,0.365 -6.472,0.092 -9.84,0.24 -4.932999,0.217 -8.951999,-0.022 -13.199999,-0.24 -8.825,-0.453 -17.249,-1.593 -24.72,1.44 1.384,2.971 4.431,2.853 9.12,2.64 2.382,-0.108 4.97,-0.254 6.96,-0.48 2.58,-0.293 5.09,-1.477 6.96,-0.48 -1.155,1.244 -3.226,0.998 -4.8,1.2 -5.507,0.708 -9.925,0.982 -14.88,0.96 -0.046,1.966 0.012,3.828 0.48,5.28 6.347,-0.436 11.976,-1.19 17.04,-2.4 2.602,-0.622 5.15,-1.82 7.68,-1.68 0.058,1.418 -1.726,1.149 -2.64,1.44 -6.47,2.062 -14.927,3.571 -22.32,4.08 -1.471,3.26 2.442,4.786 5.28,4.8 1.333,0.007 3.309,-0.604 5.04,-0.96 5.197,-1.07 9.87,-2.643 14.16,-4.319 4.511,-1.764 8.38,-4.25 12.239999,-6.24 1.417,-0.731 2.721,-1.554 4.08,-1.68 -0.141,1.341 -2.008,2.054 -3.12,2.64 -1.25,0.659 -2.574,1.235 -3.84,1.92 -1.880999,1.017 -3.924999,2.336 -5.519999,3.12 -0.736,0.362 -1.558,0.393 -2.4,0.72 -5.887,2.29 -12.11,4.561 -18,5.521 -4.087,0.666 -6.838,-0.462 -9.12,-2.16 -3.258,2.062 -1.012,5.092 1.44,5.76 10.646,0.409 19.039,-2.845 26.16,-6.479 -0.142,0.072 2.239,-1.841 2.4,-0.721 0.121,0.839 -4.171,2.646 -6.24,3.601 -2.536,1.171 -4.105,2.052 -6.96,2.88 -3.283,0.953 -11.627,2.585 -14.88,1.92 -2.312,-0.473 -3.266,-2.642 -5.04,-2.88 -1.693,-0.228 -2.751,0.755 -3.6,1.68 0.845,2.253 3.039,3.312 5.52,3.6 5.151,0.598 10.553,-0.43 14.4,-1.199 2.78,-0.557 5.121,-1.589 6.96,-1.44 -0.053,1.18 -1.676,1.382 -2.64,1.68 -5.023,1.558 -17.756,3.817 -22.8,0.96 -0.982,-0.556 -1.483,-1.964 -2.4,-2.159 -2.313,-0.496 -3.448,1.148 -3.84,2.399 0.762,0.882 2.386,1.398 4.08,1.681 1.052,0.175 2.772,-0.643 3.12,0.72 -3.23,1.971 -6.779,-1.912 -10.8,-0.72 -1.023,1.216 -2.234,2.245 -1.92,4.8 3.941,2.11 7.907,1.607 12.96,0.96 4.104,-0.526 8.312,-1.668 11.76,-2.641 3.382,-0.953 5.653,-1.811 8.4,-2.88 4.83,-1.879 9.154,-3.767 13.2,-6 4.206,-2.32 8.082999,-4.963 11.519999,-7.68 1.25,-0.988 2.275,-2.342 3.84,-2.64 -0.292,1.762 -2.472,2.916 -3.6,3.6 -0.217,0.132 -0.306,0.594 -0.48,0.72 -6.554999,4.742 -13.963999,8.736 -21.599999,12.24 -7.796,3.577 -16.471,5.586 -26.16,6.72 -1.205,0.142 -2.336,0.728 -3.36,0.721 -2.598,-0.019 -4.551,-1.33 -6.96,-1.92 -2.052,1.548 -3.882,3.317 -4.08,6.72 2.448,-1.301 4.299,-1.175 7.44,-1.44 2.995,-0.252 6.111,-0.931 9.12,-1.439 1.785,-0.303 3.782,-0.359 5.52,-0.721 1.12,-0.232 2.211,-0.902 3.36,-1.199 1.317,-0.341 2.583,-0.562 3.84,-0.961 2.491,-0.787 4.945,-1.485 7.2,-2.399 12.251,-4.966 24.181999,-11.072 32.639999,-19.44 0.737,-0.729 1.453,-2.126 2.88,-1.92 -2.709,3.988 -6.823,7.048 -11.04,9.84 -13.562999,8.982 -29.945999,16.663 -49.199999,18.96 -2.89,0.346 -5.988,0.052 -8.88,0.721 -1.773,0.41 -3.539,1.636 -4.8,2.64 -0.79,0.628 -1.855,1.616 -1.92,2.4 3.069,-2.158 7.402,-1.843 11.52,-2.16 11.791,-0.908 22.638,-4.58 31.44,-8.16 1.294,-0.526 2.676,-1.056 3.84,-1.68 0.966,-0.519 2.081,-1.984 3.36,-1.2 -0.825,1.464 -2.612,1.897 -4.08,2.64 -11.069,5.599 -26.469,9.482 -41.28,9.84 -4.817,1.263 -8.472,3.688 -10.8,7.44 8.077,-2.494 16.826,-4.561 25.68,-6.48 7.662,-1.66 15.651,-3.702 23.04,-5.04 0.954,-0.172 2.219,-0.815 3.12,0 -2.584,1.439 -5.834,1.898 -9.12,2.641 -5.927,1.338 -12.069,2.404 -18,3.84 -5.455,1.32 -10.928,2.499 -16.08,3.84 -3.104,0.809 -7.047,1.674 -9.12,3.12 -1.924,1.343 -3.639,3.099 -3.84,5.521 1.455,-1.385 3.252,-1.766 5.28,-2.4 2.782,-0.871 5.15,-1.545 7.68,-2.4 6.881,-2.326 14.243,-4.289 21.12,-6.239 1.717,-0.487 3.546,-0.984 5.28,-1.44 1.657,-0.436 3.593,-1.646 5.28,-0.72 -1.323,1.227 -3.216,1.434 -5.04,1.92 -10.955,2.922 -21.974,6.425 -32.16,9.6 -1.977,0.616 -3.917,0.95 -5.52,1.681 -0.904,0.411 -1.062,0.998 -1.68,1.68 -1.017,1.122 -2.369,2.018 -2.16,3.84 8.826,-3.732 17.881,-7.61 27.36,-10.56 4.954,-1.542 9.836,-2.795 14.64,-4.32 7.248,-2.301 14.055,-4.866 19.92,-8.4 2,-1.205 4.052,-2.299 6,-3.6 3.815,-2.548 7.077999,-5.496 10.319999,-8.64 3.183,-3.087 6.51,-6.235 9.36,-9.601 2.25,-2.656 4.67,-5.077 7.2,-7.2 0.713,-0.598 1.72,-1.787 2.88,-1.439 -0.108,1.216 -1.397,1.788 -2.16,2.399 -3.654,2.928 -6.534,6.435 -9.6,9.601 -3.472,3.585 -7.158,7.781 -10.8,10.8 -0.424,0.352 -0.802,0.886 -1.2,1.2 -1.429999,1.129 -2.984999,1.971 -4.319999,2.88 -0.487,0.332 -0.396,0.569 -0.96,0.72 -0.335,0.09 -0.043,0.348 -0.24,0.48 -0.951,0.638 -2.108,1.041 -3.12,1.68 -10.967,6.925 -24.217,10.791 -37.68,14.88 -9.595,2.914 -18.898,6.764 -28.08,10.32 0.501,3.782 -1.514,6.324 -1.68,8.64 6.434,-5.804 14.999,-9.979 23.52,-13.68 2.826,-1.228 5.615,-2.709 8.4,-3.601 0.799,-0.255 2.072,-1.084 2.88,-0.239 -0.844,1.492 -2.823,1.601 -4.32,2.16 -3.157,1.18 -6.229,2.49 -9.12,3.84 -1.479,0.689 -3.031,1.439 -4.56,2.16 -4.437,2.089 -8.675,4.53 -12.24,7.199 -3.705,2.774 -8.074,6.309 -5.76,12.24 1.28,0.96 2.323,2.157 4.32,2.4 -0.142,-0.866 -0.405,-1.609 0,-2.4 7.717,-11.036 19.361,-18.396 32.64,-24 5.09,-2.148 10.341,-3.808 15.12,-6 1.548,-0.711 2.97,-1.802 4.56,-2.64 4.71,-2.484 9.315,-4.921 13.68,-7.44 1.415,-0.816 2.741,-2.394 4.56,-2.16 -1.567,1.981 -4.062,2.976 -6.24,4.32 -6.737,4.158 -13.656,8.018 -21.12,11.28 -5.044,2.204 -10.343,3.719 -15.36,6 -4.896,2.226 -9.466,4.85 -13.68,7.92 -3.803,3.051 -7.89,6.88 -11.04,10.56 -1.008,1.178 -2.848,2.611 -1.92,4.32 6.144,0.511 8.438,-3.978 11.28,-7.2 2.601,-2.949 5.173,-5.564 8.16,-7.92 7.084,-5.586 15.662,-8.567 24.24,-12 7.63,-3.053 14.827,-6.559 21.12,-10.56 0.766,-0.487 1.677,-1.896 2.88,-1.2 -1.705,1.995 -4.201,3.396 -6.48,4.8 -2.351,1.449 -4.892,2.611 -7.2,4.08 6.764,-1.476 11.823,-4.657 17.759999,-6.96 0.661,-1.594 -0.011,-4.807 1.92,-4.8 0.039,3.319 -1.641,6.998 -2.64,10.08 2.6,-1.058 6.862,-1.412 9.36,-2.16 0.512,-0.153 1.181,-0.112 1.68,-0.24 2.905,-0.745 5.486,-1.882 7.92,-2.88 3.688,-1.512 6.581,-3.053 9.6,-4.8 1.403,-0.812 2.972,-2.309 4.8,-2.16 -1.039,1.256 -2.687,2.426 -4.32,3.359 -1.568,0.898 -3.346,1.829 -5.04,2.641 -4.955,2.373 -10.719,4.834 -16.56,6 -2.197,0.438 -4.699,0.387 -6.72,1.2 -1.890999,0.76 -3.712999,2.532 -4.799999,3.84 -0.533,0.642 -1.735,1.788 -0.96,1.92 2.319,-1.092 4.874999,-0.984 7.199999,-1.44 10.012,-1.96 18.751,-6.47 25.68,-11.279 0.917,-0.638 1.892,-1.629 3.12,-1.681 0.022,1.276 -1.516,1.982 -2.4,2.641 -1.03,0.766 -2.214,1.49 -3.36,2.159 -6.815,3.98 -15.073,8.146 -24,9.601 -1.941999,0.316 -4.874999,0.59 -6.239999,1.2 -1.776,0.794 -2.92,1.477 -4.08,2.399 -0.137,0.109 -1.706,0.44 -0.72,0.96 2.919,-0.618 5.765,-0.201 8.64,-0.479 6.828999,-0.661 14.053999,-2.823 19.199999,-5.76 2.752,-1.571 5.111,-3.447 7.44,-5.28 1.208,-0.951 2.494,-1.832 3.6,-2.88 0.988,-0.937 1.699,-2.67 3.36,-2.641 -0.426,1.517 -1.783,2.789 -2.88,3.841 -2.82,2.701 -6.497,5.217 -9.6,7.199 -1.601,1.023 -3.002,1.413 -4.8,2.16 -0.728,0.303 -1.387,0.901 -2.16,1.2 -4.836,1.872 -11.137,3.204 -17.039999,3.6 -4.775,0.32 -8.023,-0.258 -10.32,2.4 3.773,0.021 6.069,0.817 8.88,0.96 1.396,0.071 2.925,0.084 4.56,0 15.807999,-0.811 27.058999,-8.939 33.839999,-19.68 1.002,-1.7 2.47,-3.448 3.84,-5.04 1.342,-1.56 2.663,-3.806 4.8,-3.84 -2.652,2.658 -4.907,5.649 -6.96,8.64 -1.529,2.227 -3.456,4.718 -5.04,6.479 -1.533,1.707 -3.118,3.455 -4.56,4.801 -1.887,1.761 -3.739,2.622 -6,3.84 -3.545,1.908 -7.219,3.696 -11.52,4.8 -4.773,1.225 -10.794999,1.618 -16.319999,0.96 -1.139,-0.136 -2.183,-0.608 -3.36,-0.72 -3.656,-0.346 -5.917,1.417 -7.44,3.6 2.437,-0.354 4.161,0.424 5.52,0.72 3.908,0.852 8.154,1.516 12.48,1.2 8.160999,-0.594 14.759999,-3.101 20.639999,-6.479 4.405,-2.532 8.553,-5.315 11.52,-8.88 0.868,-1.043 1.505,-3.138 3.36,-3.12 -2.057,4.012 -5.909,7.542 -10.08,10.56 -3.841,2.779 -9.575,5.737 -14.4,7.2 -2.052,0.622 -4.08,1.098 -6.24,1.439 -1.894,0.301 -4.212999,0.658 -6.239999,0.721 -3.452,0.105 -11.058,-1.876 -13.68,-2.16 -2.224,-0.241 -4.908,0.036 -4.8,1.92 0.062,1.065 3.643,3.236 5.52,4.32 3.605,2.081 6.268,2.804 10.56,3.6 5.373999,0.996 12.617999,0.812 17.279999,-0.479 4.759,-1.318 7.523,-2.94 10.8,-5.521 1.904,-1.499 3.992,-2.767 5.52,-4.32 2.414,-2.452 4.832,-5.512 6.48,-8.159 0.646,-1.038 0.721,-2.587 2.16,-2.881 -0.612,3.049 -2.672,5.57 -4.56,7.921 -7.079,8.811 -16.872,15.832 -31.92,15.359 -1.024999,1.455 -1.921999,3.038 -2.159999,5.28 3.103999,-1.09 7.369999,-1.202 10.559999,-2.16 5.675,-1.704 11.959,-4.882 16.08,-8.4 -0.021,0.019 2.279,-2.995 2.64,-1.439 0.244,1.053 -4.325,4.01 -5.52,4.8 -6.483,4.287 -14.435,6.822 -23.039999,8.16 -1.327,1.091 -2.836,2.26 -1.68,4.08 1.002,1.578 3.965999,1.16 5.519999,1.2 2.035,0.051 6.431,-0.113 9.12,-0.721 2.543,-0.573 3.842,-1.148 5.52,-1.92 0.781,-0.358 1.682,-0.589 2.4,-0.96 9.55,-4.933 16.011,-13.084 18,-25.2 0.604,-3.677 1.004,-8.111 1.68,-11.52 1.627,-8.209 4.434,-16.837 10.32,-20.16 2.515,1.271 5.367,4.722 6.48,7.2 1.447,3.224 2.979,5.515 5.04,8.4 5.48,7.669 11.758,12.747 20.16,17.76 6.679,3.984 14.474,7.303 23.04,8.64 5,0.78 10.742,1.784 14.641,0.24 -6.482,-0.181 -12.965,-0.829 -18,-1.92 -4.057,-0.88 -7.77,-2.339 -11.28,-3.84 -13.26,-5.669 -23.047,-13.952 -30.24,-25.2 -0.64,-1.002 -1.689,-1.844 -1.68,-3.12 4.829,8.348 10.945,15.114 18.72,20.4 7.68,5.221 16.516,10.075 27.36,12 4.917,0.872 10.382,0.628 15.84,1.68 3.389,-1.252 7.973,-1.308 10.56,-3.36 3.449,0.589 6.707,-0.712 9.601,-1.439 -6.519,0.653 -13.134,0.778 -19.92,0.479 -4.747,-0.209 -9.627,-0.082 -14.16,-0.72 -3.837,-0.54 -8.618,-2.406 -11.76,-3.6 -6.305,-2.396 -12.156,-5.531 -17.04,-8.881 -1.977,-1.354 -3.941,-2.881 -5.76,-4.56 -0.856,-0.79 -1.901,-2.379 -2.88,-2.64 -0.354,-0.095 -0.034,-0.287 -0.24,-0.48 -2.917,-2.733 -5.349,-6.212 -7.68,-9.12 -1.107,-1.381 -3.011,-2.707 -2.88,-4.56 0.92,2.168 2.612,3.938 4.08,5.76 1.49,1.85 2.986,3.752 4.56,5.521 1.531,1.72 3.463,3.118 5.28,4.8 0.398,0.368 0.564,1.076 0.96,1.439 0.477,0.438 1.195,0.538 1.68,0.96 0.905,0.789 1.654,1.713 2.64,2.4 3.987,2.779 9.255,5.461 13.68,7.439 0.893,0.399 1.712,0.838 2.641,1.2 2.514,0.981 4.923,1.606 7.68,2.4 1.305,0.376 2.669,1.009 3.84,1.2 10.76,1.757 23.946,1.596 35.04,0.72 5.807,-0.459 12.367,-2.397 17.28,-3.36 1.263,-0.247 2.389,-0.458 3.6,-0.72 2.392,-0.518 4.861,-0.723 7.2,-1.2 2.464,-0.503 5.074,-1.916 7.68,-1.2 0.906,-0.773 2.844,-0.516 3.6,-1.439 -2.75,-0.61 -5.366,-1.354 -5.279,-4.8 -4.856,-1.144 -3.452,-8.548 -5.76,-12.24 -2.278,5.146 -6.097,10.146 -13.2,9.84 -1.782,-0.077 -3.721,-1.409 -5.04,-1.439 -1.664,-0.04 -3.41,1.256 -5.28,1.68 -3.453,0.783 -7.472,1.262 -11.52,1.439 -2.897,0.128 -6.6,0.198 -8.4,-0.239 -2.185,-0.531 -3.401,-3.216 -5.76,-3.36 -1.922,-2.798 -5.38,-4.061 -6,-8.16 -0.765,-0.66 -1.752,-1.055 -2.4,-1.92 -0.761,-1.016 -0.944,-2.547 -1.68,-3.6 -1.15,-1.647 -3.035,-2.77 -3.36,-5.04 -1.538,-1.337 -2.639,-3.113 -3.359,-5.04 -0.375,-1.001 -0.312,-2.281 -0.721,-3.36 -0.29,-0.768 -1.109,-1.398 -1.439,-2.16 -0.44,-1.014 -0.36,-2.266 -0.72,-3.12 -0.869,-2.062 -2.882,-3.562 -2.16,-6.72 -0.597,-1.103 -1.369,-2.644 -1.44,-4.319 -0.027,-0.66 0.441,-1.231 0.48,-1.921 0.07,-1.27 -0.522,-2.07 -0.24,-3.119 0.738,-2.749 3.544,-2.571 6.96,-2.4 4.123,0.206 7.288,0.956 10.56,1.92 2.419,0.713 4.55,1.971 6.96,3.12 9.034,4.307 18.673,8.206 27.12,12.72 2.082,1.112 4.253,2.397 6.24,3.601 2.951,1.786 5.519,3.696 8.88,4.08 -0.146,-4.123 1.088,-6.56 1.92,-9.601 1.871,-6.834 3.659,-13.336 5.04,-20.64 1.143,-1.626 2.318,-3.333 3.84,-5.04 1.671,-1.875 3.775,-3.805 5.04,-5.76 1.378,-2.129 4.132,-4.977 4.561,-7.43999 0.624,-3.594 -0.109,-11.129003 -0.721,-13.200003 -1.909,-0.862 -3.934,-2.972 -5.76,-3.84 -0.795,-0.378 -1.065,-0.997 -1.92,0 -0.057,0.862 2.437,1.239 2.88,2.4 -1.512,-0.568 -2.686,-1.474 -3.84,-2.4 -0.64,0 -1.28,0 -1.92,0 -4.649,-2.611 -9.71,-5.891 -14.64,-8.16 -1.915,-0.881 -3.768,-1.816 -5.28,-2.4 -1.87,-0.722 -4.177,-1.321 -6.48,-1.92 -2.336,-0.607 -4.809,-1.357 -7.199,-1.92 -8.979,-2.113 -20.294,-2.413 -29.521,-0.96 -0.723,0.114 -1.425,0.625 -2.16,0.72 -0.634,0.082 -1.345,-0.107 -1.92,0 -3.143,0.584 -5.982,1.917 -8.88,2.88 -2.505,0.832 -4.812,1.378 -7.2,2.4 -2.357,1.009 -4.705,2.089 -7.199,2.64 -1.593,1.996 -4.107,2.725 -6.24,4.08 -5.2,3.302 -10.144,7.613 -14.4,11.520003 -0.847,0.778 -1.44,2.021 -2.64,2.16 3.333,-3.387 6.987,-6.453003 10.56,-9.600003 -1.155,0.125 -2.049,0.512 -3.12,0.72 -2.876,3.044 -6.022,5.818003 -9.12,8.640003 -0.125,2.275 -2.347,2.453 -3.12,4.08 -1.245,0.513 -2.833,2.067 -4.08,2.4 -0.343,0.091 -0.037,0.331 -0.24,0.48 -2.576,1.88099 -6.41,0.264 -10.08,-0.24 -2.623,-1.58 -4.797,-3.281 -6.48,-5.52 -0.456,-0.606 -1.038,-1.105 -1.44,-1.68 -6.178,-8.838003 -10.63,-20.469003 -15.12,-30.720003 -2.921,-3.49 -5.612,-7.602 -9.12,-10.08 -0.839,-0.593 -1.738,-1.439 -2.16,-1.92 -0.103,-0.117 -0.587,0.089 -0.72,0 -2.554,-1.712 -4.851999,-3.192 -7.679999,-4.32 -4.482,-1.787 -9.493,-3.256 -14.88,-4.08 -2.417,-1.269 -5.003,-2.04 -7.44,-3.12 -6.858,-3.04 -13.961,-7.128 -19.2,-11.52 -1.237,-1.037 -2.744,-1.748 -4.08,-2.64 -5.554,-3.709 -10.387,-6.925 -15.84,-10.8 -1.993,-1.416 -4.861,-3.948 -6.48,-4.32 -4.124,-0.948 -7.807,1.68 -8.16,4.8 -0.409,3.618 2.66,7.125 4.56,8.16 0.273,0.149 0.512,0.609 0.72,0.72 0.546,0.293 1.689,-0.04 1.68,0.96 -1.178,0.678 -2.249,-0.559 -3.36,-0.72 -0.443,5.923 3.823,6.642 7.68,8.4 1.837,0.838 3.74,1.801 5.52,2.64 11.042,5.208 22.689,9.896 33.84,14.64 7.667,3.261 15.199,6.787 22.32,10.08 6.421,2.969 12.129999,7.003 16.319999,12 0.535,0.638 1.976,1.251 1.2,2.4 -2.021,-0.933 -2.953,-3.101 -4.56,-4.56 -2.434,-2.211 -5.453,-4.401 -8.159999,-6 -1.117,-0.66 -2.27,-1.371 -3.36,-1.92 -3.424,-1.727 -7.26,-3.626 -10.56,-5.04 -5.161,-2.212 -10.871,-4.818 -15.84,-6.96 -4.297,-1.853 -8.151,-3.527 -12.24,-5.28 -6.702,-2.874 -13.498,-5.375 -19.68,-8.4 -3.188,-1.56 -6.257,-3.474 -9.6,-4.08 1.94,1.537 3.31,3.944 4.8,5.76 1.976,2.408 4.119,3.26 7.2,4.32 9.828,3.382 20.342,7.176 29.52,10.8 6.47,2.555 13.147,5.069 19.2,7.92 8.63,4.065 15.341999,9.255 20.879999,15.84 0.583,0.693 1.166,1.079 1.68,1.68 1.083,1.265 2.198,2.544 3.12,3.6 2.572,2.945 4.671,5.83 7.2,8.640003 1.356,1.508 3.526,3.081 3.6,5.04 -2.047,-0.953 -3.146,-3.018 -4.56,-4.56 -5.036,-5.494003 -9.765,-12.013003 -14.88,-17.040003 -3.95,-3.882 -8.131999,-7.26 -12.959999,-9.84 -1.982,-1.06 -3.994,-1.929 -6.24,-2.88 -8.338,-3.53 -17.03,-7.22 -25.92,-10.56 -6.755,-2.538 -13.607,-4.877 -20.16,-7.2 -2.07,-0.734 -4.077,-1.873 -6.24,-2.4 1.487,2.063 3.532,4.68 5.76,7.68 2.214,2.982 8.206,7.542 3.84,11.28 7.727,1.618 15.927,1.977 22.56,3.84 5.595,1.571 11.116,3.643 15.6,6 0.891,0.468 2.343,0.653 2.4,1.92 -2.256,0.204 -3.738,-1.735 -5.76,-2.64 -1.356,-0.607 -3.185,-0.883 -4.8,-1.44 -4.669,-1.609 -9.776,-3.47 -14.88,-4.32 -5.276,-0.878 -11.55,-1.021 -15.6,-2.4 -0.667,-0.227 -1.275,-0.075 -1.68,-0.24 -1.714,-0.698 -2.931,-2.26 -4.56,-2.88 -1.347,-2.543 -4.028,-4.689 -6,-7.2 -2.499,-3.183 -5.525,-8.407 -8.16,-11.52 -2.656,-3.139 -4.996,-5.815 -8.4,-8.64 -2.335,-1.938 -4.9700003,-4.647 -7.4400003,-5.04 -2.604,-0.414 -4.537,1.658 -4.56,3.36 -0.011,0.787 1.156,2.796 1.68,3.84 0.726,1.445 1.273,2.82 1.68,3.84 1.23,3.085 2.953,4.837 4.32,6.96 1.1520003,1.789 1.9820003,3.72 3.1200003,5.52 1.125,1.779 2.377,3.552 3.6,5.28 2.414,3.41 4.861,7.055 7.92,9.84 5.846,5.323 14.367,10.164 23.52,12 7.207,1.446 13.866,0.875 20.88,2.16 1.402,0.257 2.692,0.897 4.08,1.2 1.222,0.267 3.083,-0.089 3.84,1.44 -4.207,0.154 -7.973,-1.324 -12,-1.92 -4.981,-0.738 -10.875,-0.651 -15.6,-1.44 -5.216,-0.871 -9.687,-2.962 -13.92,-5.04 -1.142,-0.561 -2.334,-0.811 -3.36,-1.44 -11.039,-6.776 -17.433,-17.193 -24.0000003,-28.56 -0.413,0.095 -0.615,-0.356 -0.72,0 3.5150003,7.645 5.8650003,15.344 10.7940003,20.868 z M 289.70007,195.11006 c -2.968,-0.392 -6.365,-0.354 -8.88,-1.199 -1.429,0.491 -2.661,1.179 -4.56,1.199 1.188,1.357 0.879,2.805 0.24,4.561 4.145,-1.776 9.024,-2.817 13.2,-4.561 z m 1.44,-0.239 c -4.481,2.398 -10.647,3.112 -14.88,5.76 3.081,-0.405 6.766,-1.791 8.88,-2.64 1.506,-0.605 3.27,-0.938 4.8,-1.44 1.516,-0.498 3.164,-0.815 4.32,-1.92 -1.058,0.061 -1.856,0.383 -3.12,0.24 z m -117.84,-141.359993 c 0.881,-0.167 2.699,-0.649 2.4,-1.2 -0.61,0.589 -1.852,0.548 -2.4,1.2 z m -2.88,1.44 c 0.066,-0.494 0.894,-0.226 0.96,-0.72 -0.636,-0.209 -1.456,0.586 -0.96,0.72 z m -6.72,2.64 c 0.447,-0.033 0.802,-0.158 0.96,-0.48 -0.547,-0.067 -0.902,0.058 -0.96,0.48 z m -3.84,2.16 c 0.413,0.013 0.615,-0.185 0.72,-0.48 -0.413,-0.013 -0.615,0.184 -0.72,0.48 z m -15.12,21.12 c -0.343,-1.471 0.643,-2.868 0,-3.84 -0.03,1.221 -1.07,2.988 0,3.84 z m 151.92,24.000003 c -0.145,-0.623 -1.188,-2.279 -0.72,-0.96 -0.047,1.98 0.261,3.744 0.48,4.32 -2.402,-2.478 -6.311,-3.45 -9.84,-4.8 3.835,0.564 6.898,1.901 9.359,3.84 -0.167,-1.673 -0.807,-2.874 -0.72,-4.8 -3.172,-2.348 -6.644,-4.396003 -10.8,-5.760003 0.919,1.056 1.433,5.950003 0.72,6.960003 -0.314,-1.941 0.569,-6.260003 -2.16,-7.440003 1.609,1.67 1.865,4.695003 1.68,8.160003 5.458,0.542 9.369,2.631 12.24,5.76 -0.216,-1.232 0.104,-3.808 -0.239,-5.28 z m 1.44,6 c 6.194,0.525 9.793,3.64699 13.2,6.95999 -0.157,-8.64399 -6.897,-10.70299 -12.72,-13.67999 0.164,1.838 0.404,4.872 0.479,6 -0.96,-0.147 -0.408,-1.398 -0.479,-1.92 -0.191,-1.378 -0.671,-2.7 -0.48,-4.32 -0.24,0 -0.48,0 -0.72,0 0.616,1.944 0.835,4.284 0.72,6.96 z m 26.16,57.83999 c 0.619,-0.021 0.252,-1.027 1.2,-0.72 0.734,-2.616 2.673,-5.146 4.079,-8.16 0.615,-1.317 1.244,-2.847 1.921,-4.32 0.683,-1.489 1.719,-3.023 1.92,-4.32 0.657,-4.254 -1.681,-7.643 -3.36,-10.8 -0.633,-0.285 -0.619,1.154 -0.72,0 0.187,-0.053 0.278,-0.201 0.239,-0.479 -0.481,-0.721 -0.992,1.354 -1.68,0.479 1.376,-3.905 -1.184,-7.919 -2.88,-10.08 -0.857,-1.092 -1.716,-2.125 -2.16,-2.4 -0.397,-0.247 -0.563,0.54 -0.72,0.479 -0.298,-0.114 -0.026,-1.574 -0.48,-0.96 -0.172,0.867 -0.485,1.595 -0.96,2.16 1.059,0.782 1.918,1.762 2.88,2.64 4.667,7.644 2.999,17.072 -2.399,23.04 -2.787,3.081 -6.532,4.99 -11.76,4.08 -0.729,-0.632 -1.479,-1.242 -2.641,-1.439 -2.292,-3.051 -4.642,-5.996 -5.04,-10.561 -0.85,-9.736 7.491,-22.93 18.48,-18.24 1.179,-2.57 -0.16,-3.932 -1.44,-5.04 -1.603,-1.387 -4.351,-3.417 -6.479,-3.36 -0.442,1.171 -0.375,3.229 -1.2,3.84 -0.927,-0.715 0.003,-3.222 0,-4.56 -2.706,-3.774 -5.925,-7.035 -11.76,-7.67999 -0.601,1.23999 -0.215,3.46499 -0.72,4.79999 -0.087,-1.766 0.062,-3.298 0.239,-4.79999 -1.733,0.42599 0.202,4.52099 -1.439,5.03999 0.169,0.708 1.122,2.063 -0.48,1.92 -0.129,-1.801 -0.266,-4.09 0.24,-6.71999 -2.599,-3.881 -6.43,-6.53 -12.48,-6.96 0.608,3.745 -0.625,6.478 -1.68,8.39999 -1.937,3.531 -4.567,6.524 -6.96,9.12 -2.948,3.199 -4.938,5.467 -6,10.08 -0.231,1.004 -0.565,2.188 -0.72,3.12 -0.597,3.597 -1.346,6.094 -2.16,8.88 -0.903,3.09 -1.393,5.086 -2.16,8.16 -0.316,1.267 -0.831,2.444 -0.96,3.601 -0.372,3.35 1.231,5.781 2.16,8.399 1.358,3.833 2.813,7.311 3.84,11.28 5.936,2.385 12.564,4.076 21.12,3.84 -1.755,-5.868 -6.3,-11.26 -7.68,-18.479 -1.435,-7.504 -0.934,-18.098 0.96,-24.24 0.327,-1.061 0.647,-2.389 1.439,-3.12 0.926,1.164 -0.371,2.57 -0.72,3.84 -0.392,1.425 -0.82,3.314 -0.96,4.8 -0.975,10.37 -0.213,20.021 3.12,26.641 1.821,3.618 3.759,6.935 5.04,10.56 2.851,2.249 5.152,4.258 9.84,3.6 3.365,-0.472 7.009,-2.054 10.08,-3.6 4.621,-2.327 8.502,-5.713 12.24,-8.64 3.926,-3.075 8.064,-6.572 10.8,-10.08 1.344,-3.619 3.614,-9.481 0,-12.24 -2.589,4.858 -4.45,10.738 -6.96,15.36 -0.834,1.534 -2.527,2.626 -2.641,4.319 2.379,-1.781 4.93,-4.67 6.96,-6 -4.958,5.202 -11.34,10.26 -17.04,13.92 0.662,-1.326 2.282,-1.592 3.36,-2.399 1.922,-1.441 3.444,-3.36 5.521,-4.561 0.609,-0.587 -0.505,-0.512 -0.239,-1.44 z m -12,-49.2 c 3.696,0.864 6.351,2.769 8.64,5.04 1.022,-6.388 -4.351,-8.444 -7.92,-11.04 -0.276,2.277 0.776,3.606 -0.24,4.56 -0.12,-2.04 0.432,-4.751 -1.2,-5.28 0.994,1.591 0.768,4.768 0.72,6.72 z m 9.84,5.52 c 0.646,0.428 0.464,-1.057 0.72,-0.24 0.407,1.127 -1.127,0.312 -0.72,1.44 0.68,0.762 1.656,1.009 2.4,1.68 2.125,1.917 3.183,4.76 4.56,7.44 1.353,-7.053 -3.718,-10.713 -6.96,-13.2 0,0.96 0,1.92 0,2.88 z m -13.92,30 c 2.661,2.755 6.876,2.27 9.6,0.479 1.184,-0.777 1.738,-0.971 2.641,-1.92 3.05,-3.208 5.479,-9.499 3.84,-15.6 -0.297,-0.777 0.776,-0.184 0.479,-0.96 -0.712,-0.568 -0.61,-1.95 -1.439,-2.4 0.279,-0.041 0.261,-0.379 0.239,-0.72 -1.145,-1.058 -1.968,-2.58 -3.119,-3.36 -1.492,-1.01 -3.599,-1.762 -6,-1.44 -3.214,0.431 -7.141,3.429 -9.12,6.96 -1.974,3.52 -3.266,10.312 -1.681,14.64 0.896,2.446 1.794,3.877 3.12,5.28 0.805,0.851 1.023,1.031 1.681,1.439 4.773,2.968 9.354,-0.556 12.239,-3.12 0.051,-0.921 -0.424,-0.038 -0.479,0 -1.321,0.904 -2.839,2.452 -4.32,2.88 -4.117,1.19 -6.484,-0.881 -8.16,-2.64 -0.527,-0.554 -0.941,-1.247 -1.199,-1.92 0.952,0.433 1.045,1.746 1.678,2.402 z m 21.6,-16.32 c 2.301,2.259 3.531,5.589 4.561,9.12 0.432,-1.56 -0.883,-2.628 -0.24,-3.601 0.211,0.669 0.3,1.461 0.72,1.92 -0.32,-4.719 -1.463,-8.616 -3.6,-11.52 -0.095,0.865 0.089,2.009 -0.72,2.16 -0.354,-1.359 1.052,-2.818 0,-3.36 0.218,2.219 -0.982,3.02 -0.721,5.281 z m -106.8,46.559 c 0.698,0.169 0.96,0.742 1.44,0.96 0.513,0.232 0.428,-0.351 0.96,-0.239 0.553,0.115 0.677,0.661 1.2,0.72 4.758,0.528 10.721,-0.076 14.399,-0.72 1.587,-0.278 3.403,-0.297 5.04,-0.721 1.911,-0.494 3.359,-1.482 4.561,-1.439 0.692,0.024 1.654,0.489 2.399,0.72 1.367,0.424 2.39,0.819 3.84,0.72 3.189,-0.218 5.674,-1.925 7.44,-3.6 1.541,-1.462 3.82,-5.033 3.84,-7.2 0.02,-2.218 -1.091,-3.798 -1.68,-5.52 -0.984,-2.877 -1.92,-5.691 -3.12,-8.4 -2.572,-0.618 -4.937,-1.594 -6.72,-2.64 -0.931,-0.546 -1.235,-1.051 -1.681,-1.44 -0.556,-0.486 -1.438,-0.675 -1.92,-0.96 -4.328,-2.557 -8.456,-5.007 -13.2,-6.96 -1.154,-1.17 -2.882,-1.494 -4.319,-2.16 -4.556,-2.109 -9.048,-4.395 -13.92,-6 -1.491,-1.389 -3.576,-1.913 -5.521,-2.64 -2.621,-0.979 -5.975,-2.015 -8.399,-2.4 -2.432,-0.386 -5.146,-0.448 -7.92,-0.48 -1.602,1.885 -0.24,6.031 -0.96,8.399 -0.157,-2.519 -0.581,-5.891 0.239,-8.16 -1.995,0.019 -1.521,2.146 -1.439,3.84 0.148,3.145 -0.248,5.299 1.2,6.72 -0.592,2.069 0.522,4.409 1.68,5.52 1.312,4.529 3.1,8.581 4.8,12.721 0.693,0.187 0.884,0.876 1.44,1.199 0.539,2.345 2.606,4.028 3.84,6 1.262,2.019 1.929,3.774 3.84,4.801 0.381,0.906 0.278,1.819 0.72,2.64 0.621,1.152 1.936,1.479 2.88,2.4 1.078,1.052 1.524,2.512 2.88,2.88 -0.694,-1.386 -1.908,-2.251 -2.88,-3.36 1.039,-0.077 1.388,0.907 1.92,1.44 1.576,1.578 2.995,2.552 5.04,3.6 0,0.16 0,0.32 0,0.48 -0.661,-0.071 -1.16,-1.541 -1.919,-0.721 z m 101.52,-12 c -5.141,4.373 -11.456,8.889 -19.2,11.28 -1.011,0.312 -2.142,0.405 -3.12,0.72 -1.007,0.324 -1.877,0.877 -2.88,1.2 -7.708,2.483 -16.339,2.918 -23.76,3.12 0.169,1.159 0.244,1.479 0.72,1.92 0.487,0.453 3.07,1.171 4.32,1.44 6.451,1.392 15.058,0.75 20.159,-0.721 2.78,-0.801 7.786,-2.289 9.36,-4.08 0.104,-0.118 0.588,0.094 0.72,0 3.024,-2.135 5.004,-4.375 7.681,-6.96 1,-0.966 1.818,-1.647 2.64,-2.64 2.592,-3.132 4.858,-5.37 8.16,-7.92 3.267,-2.524 6.444,-4.001 6.72,-7.68 -2.235,1.168 -3.266,3.794 -5.04,5.52 -1.765,1.716 -3.978,2.876 -5.76,4.561 -2.175,2.055 -4.223,4.659 -6,6.72 -2.018,2.338 -4.354,4.539 -6.72,6.24 -0.969,0.695 -1.922,1.495 -3.12,1.68 6.144,-3.696 10.374,-9.306 15.12,-14.4 z m -29.52,10.561 c -1.12,-0.647 -1.951,-1.409 -2.88,-2.16 -7.609,0.453 -15.501,-1.154 -21.6,-3.601 0.888,3.752 1.016,8.264 3.84,10.08 9.198,0.399 17.071,-0.528 23.76,-2.64 -0.781,-0.922 -2.125,-1.105 -3.12,-1.679 z m -67.92,64.8 c -6.713,3.161 -14.693,5.87 -23.04,6.96 -0.804,1.058 -0.354,2.452 0.24,3.359 5.389,-0.371 10.12,-1.399 15.12,-2.159 5.659,-1.808 11.521,-4.143 16.319,-6.48 1.489,-0.725 2.703,-1.82 4.08,-2.64 1.4,-0.833 2.988,-1.282 4.32,-2.16 1.307,-0.86 2.614,-1.952 3.84,-2.88 2.512,-1.901 4.755,-4.035 6.96,-6.24 9.131,-9.131 16.448,-20.646 19.681,-34.56 0.422,-1.82 1.705,-3.512 1.439,-5.521 -1.312,-0.501 -2.306,0.081 -3.84,0 -1.146,2.935 -1.868,6.293 -3.36,8.88 0.846,-2.994 2.012,-5.668 2.88,-8.64 -1.185,0.175 -2.032,0.688 -3.6,0.48 -1.067,1.175 -1.5,4.256 -2.64,4.56 0.796,-1.204 1.28,-2.72 1.92,-4.08 -1.725,0.115 -3.186,0.494 -4.561,0.96 -1.583,3.297 -3.477,6.344 -5.52,9.36 -1.96,2.895 -4.488,5.514 -6.72,8.159 -1.08,1.28 -2.27,2.568 -3.601,3.841 -1.254,1.198 -2.542,2.507 -3.84,3.6 -2.742,2.311 -5.584,4.768 -8.4,6.72 -1.697,1.178 -3.702,2.165 -5.52,3.36 -3.628,2.386 -7.435,4.616 -11.521,6.24 -2.172,0.863 -4.713,1.783 -6.72,1.92 11.77,-3.782 21.717,-9.928 30.24,-17.04 8.61,-7.186 15.8,-15.953 21.36,-26.16 -2.043,0.277 -3.869,0.771 -5.761,1.2 -3.66,5.46 -7.648,10.591 -12.239,15.12 -1.515,1.207 -3.235,3.482 -4.801,3.84 6.334,-5.346 11.847,-11.514 16.32,-18.72 -2.251,0.229 -4.055,0.905 -6.24,1.199 -2.896,3.433 -5.712,7.311 -8.88,10.08 -1.812,1.585 -3.484,3.101 -5.28,4.561 -4.85,3.944 -10.327,7.188 -16.079,9.84 -2.898,1.336 -5.929,2.54 -8.881,4.08 -0.351,2.049 -0.995,3.804 -1.439,5.76 2.696,-0.623 5.313,-1.594 7.68,-2.64 2.501,-1.105 4.683,-2.536 6.96,-3.12 -4.435,2.525 -9.288,4.631 -14.64,6.24 -0.735,2.145 -1.267,4.493 -1.92,6.72 1.468,0.34 2.258,-1.253 3.359,-0.48 -1.135,0.465 -2.473,0.728 -3.6,1.2 -0.313,2.087 -1.063,3.736 -1.44,5.76 3.156,-0.501 5.44,-1.399 7.921,-2.159 4.611,-1.414 8.032,-2.943 11.76,-4.801 5.101,-2.541 10.67,-4.943 13.92,-8.64 0.105,-0.12 0.59,0.099 0.72,0 0.19,-0.145 0.481,-0.527 0.72,-0.72 4.03,-3.245 7.986,-7.22 11.28,-10.801 1.425,-1.548 2.662,-2.976 3.84,-4.56 1.489,-2.003 2.679,-4.263 4.561,-6 -12.466,18.495 -29.484,32.437 -54.721,38.16 -0.708,1.611 -1.222,3.418 -1.439,5.52 3.33,-0.081 6.827,-1.249 8.88,-1.92 4.88,-1.594 10.17,-2.839 14.16,-4.8 3.277,-1.61 6.092,-3.279 8.88,-5.04 3.799,-2.398 7.744,-4.562 10.8,-7.68 -5.245,5.601 -12.735,9.579 -19.917,12.962 z m 22.08,-47.281 c -2.967,0.554 -5.913,1.127 -8.64,1.92 -6.976,8.625 -16.239,14.961 -27.84,18.96 -0.089,2.552 -1.33,3.95 -1.44,6.48 15.983,-5.777 28.703,-14.817 37.92,-27.36 z m -10.8,4.081 c 0.396,-0.442 2.032,-2.125 1.2,-2.16 -2.922,0.918 -6.176,1.505 -9.36,2.16 -4.17,4.23 -9.062,7.737 -15.36,9.84 -0.799,2.001 -1.171,4.43 -1.92,6.48 10.033,-3.426 19.318,-9.47 25.44,-16.32 z m -10.32,1.44 c 0.012,-0.013 1.485,-0.733 0.48,-0.96 -4.148,0.731 -7.902,1.857 -12,2.64 -0.445,2.274 -1.256,4.184 -1.681,6.479 4.665,-1.955 10.16,-4.775 13.201,-8.159 z"
   clip-rule="evenodd" /><path
   style="fill-rule:evenodd"
   inkscape:connector-curvature="0"
   id="path541"
   d="m 319.444,150.751 c -2.862,1.614 -5.351,2.198 -8.88,0.239 -1.072,-1.603 -2.598,-2.892 -3.12,-4.8 -1.354,-4.945 1.198,-10.054 4.08,-13.2 1.711,-0.403 2.32,-1.541 3.84,-1.68 2.427,-0.223 5.255,1.387 6.48,3.12 0.807,1.142 1.729,3.799 1.92,5.521 0.557,5.007 -2.071,8.362 -4.32,10.8 z m -3.84,-0.24 c 4.827,0.238 8.51,-7.219 6,-12.72 0.554,-0.074 0.267,0.693 0.72,0.72 -0.792,-1.727 -0.658,-2.563 -1.439,-3.6 -0.634,-0.841 -2.241,-1.961 -2.88,-2.161 -2.115,-0.66 -5.393,0.484 -6.24,1.44 -0.856,0.965 -2.521,3.415 -2.88,4.32 -0.124,0.312 0.102,0.935 0,1.44 -0.129,0.637 -0.664,1.191 -0.721,1.68 -0.505,4.382 1.772,8.706 5.04,9.359 0.594,0.119 4.806,-0.009 2.4,-0.239 -0.575,-0.146 -1.095,-0.346 -1.92,-0.24 -1.167,-1.235 -3.265,-2.812 -2.88,-4.8 0.896,2.836 2.528,4.688 4.8,4.801 z"
   clip-rule="evenodd" />
</svg>